<?xml version="1.0" encoding="utf-8"?>
<!-- Generator: Adobe Illustrator 18.1.0, SVG Export Plug-In . SVG Version: 6.00 Build 0)  -->
<!DOCTYPE svg PUBLIC "-//W3C//DTD SVG 1.1//EN" "http://www.w3.org/Graphics/SVG/1.1/DTD/svg11.dtd" [
	<!ENTITY ns_extend "http://ns.adobe.com/Extensibility/1.0/">
	<!ENTITY ns_ai "http://ns.adobe.com/AdobeIllustrator/10.0/">
	<!ENTITY ns_graphs "http://ns.adobe.com/Graphs/1.0/">
	<!ENTITY ns_vars "http://ns.adobe.com/Variables/1.0/">
	<!ENTITY ns_imrep "http://ns.adobe.com/ImageReplacement/1.0/">
	<!ENTITY ns_sfw "http://ns.adobe.com/SaveForWeb/1.0/">
	<!ENTITY ns_custom "http://ns.adobe.com/GenericCustomNamespace/1.0/">
	<!ENTITY ns_adobe_xpath "http://ns.adobe.com/XPath/1.0/">
]>
<svg version="1.1" id="Layer_1" xmlns:x="&ns_extend;" xmlns:i="&ns_ai;" xmlns:graph="&ns_graphs;"
	 xmlns="http://www.w3.org/2000/svg" xmlns:xlink="http://www.w3.org/1999/xlink" x="0px" y="0px" viewBox="0 0 265 37"
	 enable-background="new 0 0 265 37" xml:space="preserve">
<metadata>
	<sfw  xmlns="&ns_sfw;">
		<slices></slices>
		<sliceSourceBounds  width="263.4" height="36.8" x="0.8" y="-36.9" bottomLeftOrigin="true"></sliceSourceBounds>
	</sfw>
</metadata>
<g>
	<path fill="#E9BF1D" d="M17,27.6c-1,0.6-3,1.3-5.6,1.3c-6,0-10.5-4.8-10.5-13.6c0-8.4,4.5-14.2,11.1-14.2c2.7,0,4.3,0.7,5.1,1.2
		l-0.7,2.8C15.3,4.5,13.8,4,12,4c-5,0-8.3,4-8.3,11.1c0,6.6,3,10.8,8.2,10.8c1.7,0,3.4-0.4,4.5-1.1L17,27.6z"/>
	<path fill="#E9BF1D" d="M28.6,28.5l-0.2-2.4h-0.1c-0.9,1.5-2.5,2.9-4.7,2.9c-3.1,0-4.7-2.8-4.7-5.6c0-4.7,3.3-7.2,9.2-7.2v-0.4
		c0-1.6-0.3-4.5-3.5-4.5c-1.4,0-2.9,0.6-4,1.4L20,10.4c1.3-1,3.1-1.7,5-1.7c4.7,0,5.8,4,5.8,7.9v7.2c0,1.7,0.1,3.3,0.3,4.6H28.6z
		 M28.2,18.6c-3-0.1-6.5,0.6-6.5,4.4c0,2.3,1.2,3.4,2.6,3.4c2,0,3.3-1.6,3.7-3.2c0.1-0.4,0.2-0.8,0.2-1.1V18.6z"/>
	<path fill="#E9BF1D" d="M35.3,14.4c0-2,0-3.6-0.1-5.2h2.4l0.1,3.1h0.1c0.9-1.8,2.3-3.6,4.8-3.6c2.1,0,3.7,1.6,4.3,3.9h0.1
		c0.5-1.1,1.1-1.9,1.7-2.5c0.9-0.9,1.9-1.4,3.4-1.4c2,0,5,1.7,5,8.4v11.4h-2.7v-11c0-3.7-1.1-6-3.3-6c-1.6,0-2.8,1.5-3.3,3.2
		c-0.1,0.5-0.2,1.1-0.2,1.8v12h-2.7V16.9c0-3.1-1.1-5.3-3.2-5.3c-1.7,0-3,1.8-3.4,3.5c-0.2,0.5-0.2,1.1-0.2,1.7v11.7h-2.7V14.4z"/>
	<path fill="#E9BF1D" d="M64.8,3.7c0,1.2-0.7,2.2-1.8,2.2c-1,0-1.7-1-1.7-2.2c0-1.2,0.7-2.2,1.7-2.2C64.2,1.5,64.8,2.5,64.8,3.7z
		 M61.7,28.5V9.2h2.8v19.4H61.7z"/>
	<path fill="#E9BF1D" d="M69.1,14.4c0-2,0-3.6-0.1-5.2h2.5l0.2,3.2h0.1c0.8-1.8,2.5-3.6,5.1-3.6c2.1,0,5.4,1.6,5.4,8.2v11.6h-2.8
		V17.4c0-3.1-0.9-5.7-3.5-5.7c-1.8,0-3.3,1.6-3.7,3.6c-0.1,0.4-0.2,1-0.2,1.6v11.6h-2.8V14.4z"/>
	<path fill="#E9BF1D" d="M100.5,18.7c0,7.2-3.9,10.3-7.6,10.3c-4.1,0-7.3-3.8-7.3-10c0-6.5,3.4-10.3,7.6-10.3
		C97.6,8.7,100.5,12.8,100.5,18.7z M88.4,18.9c0,4.2,1.9,7.4,4.7,7.4c2.7,0,4.7-3.2,4.7-7.5c0-3.3-1.3-7.4-4.6-7.4
		C89.8,11.4,88.4,15.2,88.4,18.9z"/>
	<path fill="#E9BF1D" d="M124,0.1v23.4c0,1.7,0,3.7,0.1,5h-2.5l-0.1-3.4h-0.1c-0.9,2.2-2.7,3.8-5.2,3.8c-3.7,0-6.6-4-6.6-9.8
		c0-6.4,3.1-10.4,6.9-10.4c2.3,0,3.9,1.4,4.6,3h0.1V0.1H124z M121.2,17c0-0.4,0-1-0.1-1.5c-0.4-2.2-1.9-4.1-4-4.1
		c-2.9,0-4.6,3.2-4.6,7.5c0,3.9,1.5,7.2,4.5,7.2c1.9,0,3.6-1.6,4.1-4.2c0.1-0.5,0.1-1,0.1-1.5V17z"/>
	<path fill="#E9BF1D" d="M130.2,19.5c0.1,4.8,2.5,6.7,5.3,6.7c2,0,3.2-0.4,4.2-1l0.5,2.5c-1,0.6-2.7,1.2-5.1,1.2
		c-4.7,0-7.5-3.9-7.5-9.8s2.7-10.4,7.2-10.4c5,0,6.3,5.6,6.3,9.1c0,0.7-0.1,1.3-0.1,1.6H130.2z M138.3,17c0-2.2-0.7-5.7-3.9-5.7
		c-2.8,0-4.1,3.3-4.3,5.7H138.3z"/>
	<path fill="#E9BF1D" d="M150.9,24.3c1.2,1,3,1.8,4.9,1.8c2.8,0,4.5-1.9,4.5-4.6c0-2.5-1.1-4-4-5.4c-3.5-1.6-5.6-3.8-5.6-7.6
		c0-4.2,2.8-7.3,6.9-7.3c2.2,0,3.8,0.6,4.7,1.3l-0.8,2.8c-0.7-0.5-2.1-1.3-4.1-1.3c-2.9,0-4,2.2-4,4c0,2.5,1.3,3.8,4.2,5.2
		c3.6,1.8,5.4,4,5.4,7.9c0,4.2-2.4,7.8-7.5,7.8c-2.1,0-4.3-0.8-5.4-1.7L150.9,24.3z"/>
	<path fill="#E9BF1D" d="M175.3,28.5l-0.2-2.4H175c-0.9,1.5-2.5,2.9-4.7,2.9c-3.1,0-4.7-2.8-4.7-5.6c0-4.7,3.3-7.2,9.2-7.2v-0.4
		c0-1.6-0.3-4.5-3.5-4.5c-1.4,0-2.9,0.6-4,1.4l-0.6-2.3c1.3-1,3.1-1.7,5-1.7c4.7,0,5.8,4,5.8,7.9v7.2c0,1.7,0.1,3.3,0.3,4.6H175.3z
		 M174.9,18.6c-3-0.1-6.5,0.6-6.5,4.4c0,2.3,1.2,3.4,2.6,3.4c2,0,3.3-1.6,3.7-3.2c0.1-0.4,0.2-0.8,0.2-1.1V18.6z"/>
	<path fill="#E9BF1D" d="M182.1,14.4c0-2,0-3.6-0.1-5.2h2.5l0.2,3.2h0.1c0.8-1.8,2.5-3.6,5.1-3.6c2.1,0,5.4,1.6,5.4,8.2v11.6h-2.8
		V17.4c0-3.1-0.9-5.7-3.5-5.7c-1.8,0-3.3,1.6-3.7,3.6c-0.1,0.4-0.2,1-0.2,1.6v11.6h-2.8V14.4z"/>
	<path fill="#E9BF1D" d="M202.9,3.6v5.6h4v2.7h-4v10.4c0,2.4,0.5,3.8,2.1,3.8c0.7,0,1.3-0.1,1.6-0.2l0.1,2.6
		c-0.5,0.3-1.4,0.5-2.5,0.5c-1.3,0-2.3-0.5-3-1.5c-0.8-1-1.1-2.8-1.1-5V11.8h-2.4V9.2h2.4V4.5L202.9,3.6z"/>
	<path fill="#E9BF1D" d="M213.1,3.7c0,1.2-0.7,2.2-1.8,2.2c-1,0-1.7-1-1.7-2.2c0-1.2,0.7-2.2,1.7-2.2C212.5,1.5,213.1,2.5,213.1,3.7
		z M210,28.5V9.2h2.8v19.4H210z"/>
	<path fill="#E9BF1D" d="M225.9,28.5l-0.2-2.4h-0.1c-0.9,1.5-2.5,2.9-4.7,2.9c-3.1,0-4.7-2.8-4.7-5.6c0-4.7,3.3-7.2,9.2-7.2v-0.4
		c0-1.6-0.3-4.5-3.5-4.5c-1.4,0-2.9,0.6-4,1.4l-0.6-2.3c1.3-1,3.1-1.7,5-1.7c4.7,0,5.8,4,5.8,7.9v7.2c0,1.7,0.1,3.3,0.3,4.6H225.9z
		 M225.5,18.6c-3-0.1-6.5,0.6-6.5,4.4c0,2.3,1.2,3.4,2.6,3.4c2,0,3.3-1.6,3.7-3.2c0.1-0.4,0.2-0.8,0.2-1.1V18.6z"/>
	<path fill="#E9BF1D" d="M245.9,9.2c-0.1,1.4-0.1,3-0.1,5.3v11.2c0,4.4-0.7,7.2-2.2,8.8c-1.5,1.8-3.6,2.3-5.6,2.3
		c-1.8,0-3.9-0.6-5.1-1.6l0.7-2.7c1,0.8,2.6,1.5,4.5,1.5c2.8,0,4.9-1.9,4.9-6.8v-2.2H243c-0.9,1.8-2.5,3.2-4.9,3.2
		c-3.8,0-6.5-4.1-6.5-9.4c0-6.6,3.4-10.3,6.9-10.3c2.7,0,4.1,1.8,4.8,3.4h0.1l0.1-2.9H245.9z M243,16.8c0-0.6,0-1.1-0.2-1.6
		c-0.5-2-1.9-3.7-3.9-3.7c-2.7,0-4.6,2.8-4.6,7.3c0,3.8,1.5,7,4.5,7c1.7,0,3.3-1.4,3.9-3.6c0.2-0.6,0.2-1.3,0.2-1.9V16.8z"/>
	<path fill="#E9BF1D" d="M264.2,18.7c0,7.2-3.9,10.3-7.6,10.3c-4.1,0-7.3-3.8-7.3-10c0-6.5,3.4-10.3,7.6-10.3
		C261.2,8.7,264.2,12.8,264.2,18.7z M252.1,18.9c0,4.2,1.9,7.4,4.7,7.4c2.7,0,4.7-3.2,4.7-7.5c0-3.3-1.3-7.4-4.6-7.4
		C253.5,11.4,252.1,15.2,252.1,18.9z"/>
</g>
</svg>
