<?xml version="1.0" encoding="utf-8"?>
<!-- Generator: Adobe Illustrator 18.1.0, SVG Export Plug-In . SVG Version: 6.00 Build 0)  -->
<!DOCTYPE svg PUBLIC "-//W3C//DTD SVG 1.1//EN" "http://www.w3.org/Graphics/SVG/1.1/DTD/svg11.dtd" [
	<!ENTITY ns_extend "http://ns.adobe.com/Extensibility/1.0/">
	<!ENTITY ns_ai "http://ns.adobe.com/AdobeIllustrator/10.0/">
	<!ENTITY ns_graphs "http://ns.adobe.com/Graphs/1.0/">
	<!ENTITY ns_vars "http://ns.adobe.com/Variables/1.0/">
	<!ENTITY ns_imrep "http://ns.adobe.com/ImageReplacement/1.0/">
	<!ENTITY ns_sfw "http://ns.adobe.com/SaveForWeb/1.0/">
	<!ENTITY ns_custom "http://ns.adobe.com/GenericCustomNamespace/1.0/">
	<!ENTITY ns_adobe_xpath "http://ns.adobe.com/XPath/1.0/">
]>
<svg version="1.1" xmlns:x="&ns_extend;" xmlns:i="&ns_ai;" xmlns:graph="&ns_graphs;"
	 xmlns="http://www.w3.org/2000/svg" xmlns:xlink="http://www.w3.org/1999/xlink" x="0px" y="0px" viewBox="0 0 300 300"
	 enable-background="new 0 0 300 300" xml:space="preserve">
<metadata>
	<sfw  xmlns="&ns_sfw;">
		<slices></slices>
		<sliceSourceBounds  height="291.8" width="290.6" x="4.7" y="-295.9" bottomLeftOrigin="true"></sliceSourceBounds>
	</sfw>
</metadata>
<g id="Layer_1" display="none">
	<g display="inline">
		<path fill-rule="evenodd" clip-rule="evenodd" fill="#FFFFFF" d="M131.7,87l43.8-10.5L219.2,87l-19,75.6h-49.5L131.7,87z"/>
		<path fill-rule="evenodd" clip-rule="evenodd" fill="#4D4D4D" d="M199.8,166l-11.1,105.8l-11.6,0v0h-1.6l-13.3,0l-11.3-105.7
			L199.8,166z"/>
		<path fill-rule="evenodd" clip-rule="evenodd" fill="#DB0000" d="M194.3,81l24.9,6l-19,75.6l0,0.1l-49.5,0.1l0-0.2l-19-75.6
			l24.9-6v-4.9c3.5,3.1,7.7,5.3,12.4,6.4v13.3l12.8-3.2V82.5c4.7-1.1,8.9-3.4,12.4-6.4V81z"/>
		<g>
			
				<path fill-rule="evenodd" clip-rule="evenodd" fill="none" stroke="#4D4D4D" stroke-width="5.2396" stroke-linecap="round" stroke-linejoin="round" stroke-miterlimit="22.9256" d="
				M175.4,25.4c40.1,0,29.1,52.4,0,52.4S135.4,25.4,175.4,25.4z"/>
			<path fill-rule="evenodd" clip-rule="evenodd" fill="#FFFFFF" d="M175.4,25.4c40.1,0,29.1,52.4,0,52.4S135.4,25.4,175.4,25.4z"/>
		</g>
		<path fill-rule="evenodd" clip-rule="evenodd" fill="#4D4D4D" d="M175.4,24.5c20.5,0,28.3,13,27.5,26.4c-0.8,0.1-1.6,0.1-2.4,0.1
			c-11.4,0-21.1-6.6-25-15.9c-3.9,9.3-13.7,15.9-25,15.9c-0.8,0-1.6,0-2.4-0.1C147.1,37.4,154.9,24.5,175.4,24.5z"/>
		<path fill-rule="evenodd" clip-rule="evenodd" fill="#DB0000" d="M221,91.8l15.9,42l-33.2,27l4.4-16.3l12.1-11.8l-7.2-8.8
			L221,91.8z"/>
		<path fill-rule="evenodd" clip-rule="evenodd" fill="#FFFFFF" d="M173.8,271.8l0-89.3h3.2l0,89.3H173.8z"/>
		<path fill-rule="evenodd" clip-rule="evenodd" fill="#4D4D4D" d="M173.8,289.4h-3.6H144c-6,0-6.1-7.5,1.1-8.9
			c4.8-0.9,10.9-2.9,15-5.5l13.7,0v0l16.9,0c4.1,2.5,8.9,4.3,15,5.5c6,1.2,7.1,8.9,1.1,8.9H173.8z"/>
		<path fill-rule="evenodd" clip-rule="evenodd" fill="#FFFFFF" d="M173.8,289.4l0-14.4h3.2l0,14.4H173.8z"/>
		<path fill-rule="evenodd" clip-rule="evenodd" fill="#DB0000" d="M135.1,118L122.5,140l-16.7,8.4l-1.3-10.6l8-8.7l15.4-40.8
			L135.1,118z"/>
		<polygon fill="#FFFFFF" points="181.8,92.6 160.2,98 159.5,94.9 181.8,89.3 		"/>
		<polygon fill="#FFFFFF" points="162.7,94.9 162.7,148.3 159.5,148.3 159.5,94.9 		"/>
		<g>
			<path fill-rule="evenodd" clip-rule="evenodd" fill="#FFFFFF" d="M168.1,148.3c1.3,0,2.4-1.1,2.4-2.4c0-1.3-1.1-2.4-2.4-2.4
				c-1.3,0-2.4,1.1-2.4,2.4C165.7,147.2,166.8,148.3,168.1,148.3z"/>
			<path fill-rule="evenodd" clip-rule="evenodd" fill="#FFFFFF" d="M182.8,148.3c1.3,0,2.4-1.1,2.4-2.4c0-1.3-1.1-2.4-2.4-2.4
				c-1.3,0-2.4,1.1-2.4,2.4C180.4,147.2,181.5,148.3,182.8,148.3z"/>
		</g>
		<g>
			<path fill-rule="evenodd" clip-rule="evenodd" fill="#FFFFFF" d="M168.1,129.4c1.3,0,2.4-1.1,2.4-2.4c0-1.3-1.1-2.4-2.4-2.4
				c-1.3,0-2.4,1.1-2.4,2.4C165.7,128.3,166.8,129.4,168.1,129.4z"/>
			<path fill-rule="evenodd" clip-rule="evenodd" fill="#FFFFFF" d="M182.8,129.4c1.3,0,2.4-1.1,2.4-2.4c0-1.3-1.1-2.4-2.4-2.4
				c-1.3,0-2.4,1.1-2.4,2.4C180.4,128.3,181.5,129.4,182.8,129.4z"/>
		</g>
		<g>
			<path fill-rule="evenodd" clip-rule="evenodd" fill="#FFFFFF" d="M168.1,110.4c1.3,0,2.4-1.1,2.4-2.4c0-1.3-1.1-2.4-2.4-2.4
				c-1.3,0-2.4,1.1-2.4,2.4C165.7,109.3,166.8,110.4,168.1,110.4z"/>
			<path fill-rule="evenodd" clip-rule="evenodd" fill="#FFFFFF" d="M182.8,110.4c1.3,0,2.4-1.1,2.4-2.4c0-1.3-1.1-2.4-2.4-2.4
				c-1.3,0-2.4,1.1-2.4,2.4C180.4,109.3,181.5,110.4,182.8,110.4z"/>
		</g>
		<g>
			<path fill-rule="evenodd" clip-rule="evenodd" fill="#DB0000" d="M145.8,20.5l42.4-9.9l3.6,15.3l-42.4,9.9L145.8,20.5z"/>
			<path fill-rule="evenodd" clip-rule="evenodd" fill="#FFFFFF" d="M141.3,35l57.4-13.4l0.8,3.6l-57.4,13.4L141.3,35z"/>
		</g>
		<path fill="#4D4D4D" d="M108.3,145.8H88.2c-4.8,0-4.9,0.1-4.9,4.9v7.8H71.1c-4.4,0-8,3.6-8,8v67.8c0,4.4,3.6,8,8,8h8
			c0,3.3-1.2,6,2.1,6c3.3,0,2.1-2.7,2.1-6h32.6c0,3.3-1.2,6,2.1,6c3.3,0,2.1-2.7,2.1-6h5.4c4.4,0,8-3.6,8-8v-67.8c0-4.4-3.6-8-8-8
			h-12.3v-7.8C113.2,145.9,113.1,145.8,108.3,145.8z M86.3,150.7c0-1.1,0.9-2.9,1.9-2.9h20.1c1.1,0,1.9,1.8,1.9,2.9v4.4h-9.1H86.3
			v-0.5L86.3,150.7z M129.5,228.1c0,1.3-12.6,2.3-13.8,2.3H79.1c-1.3,0-11.9-1-11.9-2.3v-33.9c0-1.3,10.6-7.1,11.9-7.1h36.6
			c1.3,0,13.8,5.8,13.8,7.1V228.1z M122.8,173.1v5.4c0,1.3-5.8,2.3-7.1,2.3H79.1c-1.3,0-7.1-1-7.1-2.3v-5.4c0-1.3,5.8-7.1,7.1-7.1
			h36.6C116.9,166,122.8,171.9,122.8,173.1z"/>
		<g>
			<path fill="#4D4D4D" d="M91.2,152l0-5l0,0l0,0l0,0l0,0l0,0l0,0l0,0l0,0l0,0l0,0l0,0l0,0l0,0l0,0l0,0l0,0l0,0l0,0l0,0l0,0l0,0l0,0
				l0,0l0,0l0,0l0,0l0,0l0,0l0,0l0,0l0,0l0,0l0,0l2.9,4l-0.1,0.1l-0.1,0.1l-0.1,0.1l-0.1,0.1l-0.1,0.1l-0.1,0.1l-0.1,0.1l-0.1,0.1
				l-0.1,0.1l-0.1,0.1l-0.1,0.1l-0.1,0l-0.1,0l-0.1,0l-0.1,0l-0.1,0l-0.1,0l-0.1,0l-0.1,0l-0.1,0l-0.1,0l-0.1,0l-0.1,0l-0.1,0
				l-0.1,0l-0.1,0l-0.1,0l-0.1,0l-0.1,0l-0.1,0l-0.1,0L91.2,152L91.2,152L91.2,152z M84.1,144.1l4.8,0l0,0l0-0.1l0-0.1l0,0l0,0
				l0,0.1l0,0.1l0.1,0.1l0.1,0.1l0.1,0.1l0.1,0.2l0.1,0.2l0.1,0.2l0.1,0.2l0.1,0.2l0.1,0.2l0.1,0.2l0.1,0.2l0.1,0.2l0.1,0.2l0.1,0.1
				l0.1,0.1l0.1,0.1l0.1,0.1l0.1,0.1l0.1,0.1l0.1,0.1l0.1,0l0.1,0l0,0l0,0l-0.1,0l-0.1,0l0,5l-0.4,0l-0.4-0.1l-0.4-0.1l-0.4-0.1
				l-0.3-0.2l-0.3-0.2l-0.3-0.2l-0.3-0.2l-0.3-0.2l-0.3-0.2l-0.3-0.2l-0.3-0.2l-0.2-0.2l-0.2-0.3l-0.2-0.3l-0.2-0.3l-0.2-0.3
				l-0.2-0.3l-0.2-0.3l-0.2-0.3l-0.2-0.3l-0.2-0.3l-0.2-0.3l-0.2-0.3l-0.1-0.3l-0.1-0.3l-0.1-0.3l-0.1-0.3l-0.1-0.3l-0.1-0.4
				l-0.1-0.4L84.1,144.1L84.1,144.1L84.1,144.1z M89.6,138.6l0,5l0,0l0,0l0,0l0,0l0,0l0,0l0,0l0,0l0,0l0,0l0,0l0,0l0,0l0,0l0,0l0,0
				l0,0l0,0l0,0l0,0l0,0l0,0l0,0l0,0l0,0l0,0l0,0l0,0l0,0l0,0l0,0l0,0l0,0l-4.8,0l0-0.3l0-0.3l0-0.3l0.1-0.3l0.1-0.3l0.1-0.3
				l0.1-0.3l0.1-0.3l0.1-0.2l0.1-0.2l0.1-0.2l0.1-0.2l0.2-0.2l0.2-0.2l0.2-0.2l0.2-0.2L86,140l0.2-0.2l0.2-0.2l0.2-0.1l0.2-0.1
				l0.2-0.1l0.2-0.1l0.2-0.1l0.2-0.1l0.2-0.1l0.3-0.1l0.3-0.1l0.3,0l0.3,0l0.3,0L89.6,138.6L89.6,138.6L89.6,138.6z M88.7,140.5
				l4.4,2l-3.3,1.3l0,0l0,0l0,0l0,0l0,0l0,0l0,0l0,0l0,0l0,0l0,0l0,0l0,0l0,0l0,0l0,0l0,0l0,0l0,0l0,0l0,0l0,0l0,0l0,0l0,0l0,0l0,0
				l0,0l0,0l0,0l0,0l0,0l0-5l0.1,0l0.1,0l0.1,0l0.1,0l0.1,0l0.1,0l0.1,0l0.1,0l0.1,0l0.1,0l0.1,0l0.1,0l0.1,0l0.1,0l0.1,0l0.1,0
				l0.1,0l0.1,0l0.1,0l0.1,0l0.1,0l0.1,0l0.1,0l0.1,0l0.1,0l0.1,0l0.1,0l0.1,0l0.1,0l0.1,0l0.1,0l0.1,0L88.7,140.5L88.7,140.5z
				 M89.8,143.7l2.2-4.5l0.1,0.1l0.1,0.1l0.1,0.1l0.1,0.1l0.1,0.1l0.1,0.1l0.1,0.1l0.1,0.1l0.1,0.1l0.1,0.1l0.1,0.1l0.1,0.1l0.1,0.1
				l0,0.1l0,0.1l0,0.1l0,0.1l0,0.1l0,0.1l0,0.1l0,0.1l0,0.1l0,0.1l0,0.1l0,0.1l0,0.1l0,0.1l0,0.1l0,0.1l0,0.1l0,0.1l-0.1,0.1
				l-0.1,0.1l-0.1,0.1l-0.1,0.1l-0.1,0.1l-0.1,0.1l-0.1,0.1l-0.1,0.1l-0.1,0.1l-0.1,0.1l-0.1,0.1l-0.1,0.1l-0.1,0.1l-0.1,0.1l-0.1,0
				l-0.1,0l-0.1,0l-0.1,0l-0.1,0l-0.1,0l-0.1,0l-0.1,0l-0.1,0l-0.1,0l-0.1,0l-0.1,0l-0.1,0l-0.1,0l-0.1,0l-0.1,0l-0.1,0l-0.1,0
				L89.8,143.7L89.8,143.7z M93.8,137.1l0,5l0,0l0,0l0,0l0,0l0,0l0,0l0,0l0,0l0,0l0,0l0,0l0,0l0,0l0,0l0,0l0,0l0,0l0,0l0,0l0,0l0,0
				l0,0l0,0l0,0l0,0l0,0l0,0l0,0l0,0l0,0l0,0l0,0l0,0l-4.4-2l0.1-0.2l0.1-0.2l0.1-0.2l0.1-0.2l0.1-0.2l0.1-0.2l0.1-0.2l0.1-0.2
				l0.1-0.2l0.1-0.1l0.1-0.1l0.1-0.1l0.1-0.1l0.2-0.1l0.2-0.1l0.2-0.1l0.2-0.1l0.2-0.1l0.2-0.1l0.2-0.1l0.2-0.1l0.2-0.1l0.2-0.1
				l0.2-0.1l0.2-0.1l0.2,0l0.2,0l0.2,0l0.2,0l0.2,0l0.2,0L93.8,137.1L93.8,137.1L93.8,137.1z M92.9,138.2l3.7,3.2l-2.6,0.8l0,0l0,0
				l0,0l0,0l0,0l0,0l0,0l0,0l0,0l0,0l0,0l0,0l0,0l0,0l0,0l0,0l0,0l0,0l0,0l0,0l0,0l0,0l0,0l0,0l0,0l0,0l0,0l0,0l0,0l0,0l0,0l0,0l0-5
				l0.1,0l0.1,0l0.1,0l0.1,0l0.1,0l0.1,0l0.1,0l0.1,0l0.1,0l0.1,0l0.1,0l0.1,0l0.1,0l0.1,0l0.1,0l0.1,0l0.1,0l0.1,0l0.1,0l0.1,0
				l0.1,0l0.1,0l0.1,0l0,0l0.1,0l0.1,0l0.1,0l0,0l0.1,0l0.1,0l0.1,0l0.1,0L92.9,138.2L92.9,138.2z M94,142.2l1.6-4.8l0.1,0l0.1,0.1
				l0.1,0.1l0.1,0.1l0.1,0.1l0.1,0.1l0.1,0.1l0.1,0.1l0.1,0.1l0.1,0.1l0.1,0.1l0.1,0.1l0.1,0.1l0.1,0.1l0.1,0.1l0.1,0.1l0,0.1l0,0.1
				l0,0.1l0,0.1l0,0.1l0,0.1l0,0.1l0,0.1l0,0.1l0,0.1l0,0.1l0,0.1l0,0.1l0,0.1l0,0.1l0,0.1l0,0.1l0,0.1l-0.1,0.1l-0.1,0.1l-0.1,0.1
				l-0.1,0.1l-0.1,0.1l-0.1,0.1l-0.1,0.1l-0.1,0.1l-0.1,0.1l-0.1,0.1l-0.1,0.1L96,142l-0.1,0.1l-0.1,0.1l-0.1,0l-0.1,0l-0.1,0
				l-0.1,0l-0.1,0l-0.1,0l-0.1,0l-0.1,0l-0.1,0l-0.1,0l-0.1,0l-0.1,0l-0.1,0l-0.1,0l-0.1,0L94,142.2L94,142.2z M97.2,136.1l0,5l0,0
				l0,0l0,0l0,0l0,0l0,0l0,0l0,0l0,0l0,0l0,0l0,0l0,0l0,0l0,0l0,0l0,0l0,0l0,0l0,0l0,0l0,0l0,0l0,0l0,0l0,0l0,0l0,0l0,0l0,0l0,0l0,0
				l0,0l-3.7-3.2l0.1-0.1l0.1-0.1l0.1-0.1l0.1-0.1l0.1-0.1l0.1-0.1l0.1-0.1l0.1-0.1l0.1-0.1l0.1-0.1l0.1-0.1l0.1-0.1l0.1-0.1
				l0.1-0.1l0.1-0.1l0.1-0.1l0.1-0.1l0.1-0.1l0.1-0.1l0.1-0.1l0.1,0l0.1,0l0.1,0l0.1,0l0.2,0l0.1,0l0.2,0l0.2,0l0.2,0l0.2,0l0.2,0
				L97.2,136.1L97.2,136.1L97.2,136.1z M98.2,137.4l2.3,4.4l-2.9-0.5l0,0l0,0l0,0l0,0l0,0l0,0l0,0l0,0l0,0l0,0l0,0l0,0l0,0l0,0l0,0
				l0,0l0,0l0,0l0,0l0,0l0,0l0,0l0,0l0,0l0,0l0,0l0,0l0,0l0,0l0,0l0,0l0,0l0-5l0.1,0l0.1,0l0.1,0l0.1,0l0.1,0l0.1,0l0.1,0l0.1,0
				l0.1,0l0.1,0l0.1,0l0.1,0l0.1,0l0.1,0.1l0.1,0.1l0.1,0.1l0.1,0.1l0.1,0.1l0.1,0.1l0.1,0.1l0.1,0.1l0.1,0.1l0.1,0.1l0.1,0.1
				l0.1,0.1l0.1,0.1l0.1,0.1l0.1,0.1l0.1,0.1l0.1,0.1l0.1,0.1l0.1,0.1L98.2,137.4L98.2,137.4z M97.6,141.4l3.5-3.4l0.1,0.1l0.1,0.1
				l0.1,0.1l0.1,0.1l0.1,0.1l0.1,0.1l0,0.1l0,0.1l0,0.1l0,0.1l0,0.1l0,0.1l0,0.1l0,0.1l0,0.1l0,0.1l0,0.1l0,0.1l0,0.1l0,0.1l0,0.1
				l0,0.1l0,0.1l0,0.1l-0.1,0.1l-0.1,0.1l-0.1,0.1l-0.1,0.1l-0.1,0.1l-0.1,0.1l-0.1,0.1l-0.1,0.1l-0.1,0.1l-0.1,0.1l-0.1,0.1
				l-0.1,0.1l-0.1,0.1l-0.1,0.1l-0.1,0.1l-0.1,0l-0.1,0l-0.1,0l-0.1,0l-0.1,0l-0.1,0l-0.1,0l-0.1,0l-0.1,0l-0.1,0l-0.1,0l-0.1,0
				l-0.1,0l-0.1,0l-0.1,0l-0.1,0l-0.1,0l-0.1-0.1l-0.1-0.1l-0.1-0.1l-0.1-0.1l-0.1-0.1l-0.1-0.1L97.6,141.4L97.6,141.4L97.6,141.4z
				 M100.9,136.7l0,5l0,0l0,0l0,0l0,0l0,0l0,0l0,0l0,0l0,0l0,0l0,0l0,0l0,0l0,0l0,0l0,0l0,0l0,0l0,0l0,0l0,0l0,0l0,0l0,0l0,0l0,0
				l0,0l0,0l0,0l0,0l0,0l0,0l0,0l-2.3-4.4l0.1,0l0.1,0l0.1,0l0.1,0l0.1,0l0.1,0l0.1,0l0.1,0l0.1,0l0.1,0l0.1,0l0.1,0l0.1,0l0.1,0
				l0.1,0l0.1,0l0.1,0l0.1,0l0.1,0l0.1,0l0.1,0l0.1,0l0.1,0l0.1,0l0.1,0l0.1,0l0.1,0l0.1,0l0.1,0l0.1,0L100.9,136.7L100.9,136.7
				L100.9,136.7L100.9,136.7z M106.2,141.9l-4.8,0.6l0,0l0-0.1l0-0.1l0-0.1l0-0.1l0-0.1l0-0.1l0,0l0,0l0,0l0,0l0,0l0,0l0,0l0,0l0,0
				l0,0l0,0l0,0l0,0l0,0l0,0l0,0l0,0l0,0l0,0l0,0l0,0l0,0l0,0l0,0l0,0l0,0l0-5l0.3,0l0.3,0l0.3,0l0.3,0.1l0.3,0.1l0.3,0.1l0.2,0.1
				l0.2,0.1l0.2,0.1l0.2,0.1l0.2,0.1l0.2,0.1l0.2,0.2l0.2,0.2l0.2,0.2l0.2,0.2l0.2,0.2l0.2,0.2l0.2,0.2l0.1,0.2l0.1,0.2l0.1,0.2
				l0.1,0.2l0.1,0.2l0.1,0.2l0.1,0.2l0.1,0.2l0.1,0.2l0.1,0.2l0.1,0.2l0,0.2L106.2,141.9L106.2,141.9L106.2,141.9z M101.9,146.4
				l-0.5-3.8l4.8-0.6l0.5,3.8l0,0L101.9,146.4L101.9,146.4z M101.3,151.5l0-5l0,0l0,0l0,0l0,0l0,0l0,0l0,0l0,0l0,0l0,0l0,0l0,0l0,0
				l0,0l0,0l0,0l0,0l0,0l0,0l0,0l0,0l0,0l0,0l0,0l0,0l0,0l0,0l0,0l0,0l0,0l0,0l0,0l0,0l4.8-0.6l0,0.3l0,0.3l0,0.3l0,0.3l-0.1,0.3
				l-0.1,0.3l-0.1,0.3l-0.1,0.3l-0.1,0.3l-0.1,0.3l-0.1,0.2l-0.2,0.2l-0.2,0.2l-0.2,0.2l-0.2,0.2l-0.2,0.2l-0.2,0.2l-0.2,0.2
				l-0.2,0.2l-0.2,0.1l-0.2,0.1l-0.2,0.1l-0.2,0.1l-0.2,0.1l-0.2,0.1l-0.2,0.1l-0.3,0.1l-0.3,0.1l-0.3,0l-0.3,0l-0.3,0L101.3,151.5
				L101.3,151.5L101.3,151.5z M102.9,150.4l-4-2.8l2.3-1.1l0,0l0,0l0,0l0,0l0,0l0,0l0,0l0,0l0,0l0,0l0,0l0,0l0,0l0,0l0,0l0,0l0,0
				l0,0l0,0l0,0l0,0l0,0l0,0l0,0l0,0l0,0l0,0l0,0l0,0l0,0l0,0l0,0l0,5l0,0l0,0l0,0l0,0l0,0l0,0l0,0l0,0l0,0l0,0l0,0l0,0l0,0l0,0l0,0
				l0,0l0,0l0,0l0,0l-0.1,0l0,0l0,0l0,0l0,0l0,0l0,0l0,0l0,0l0,0l0,0l0,0l0,0L102.9,150.4L102.9,150.4z M101.2,146.5l-0.6,5l-0.1,0
				l-0.1,0l-0.1,0l-0.1,0l-0.1,0l-0.1,0l-0.1-0.1l-0.1-0.1l-0.1-0.1l-0.1-0.1l-0.1-0.1l-0.1-0.1l-0.1-0.1l-0.1-0.1l-0.1-0.1
				l-0.1-0.1l-0.1-0.1l-0.1-0.1l-0.1-0.1l-0.1-0.1l0-0.1l0-0.1l0-0.1l0-0.1l0-0.1l0-0.1l0-0.1l0-0.1l0-0.1l0-0.1l0-0.1l0-0.1l0-0.1
				l0-0.1l0-0.1l0-0.1l0-0.1l0-0.1l0.1-0.1l0.1-0.1l0.1-0.1l0.1-0.1l0.1-0.1l0.1-0.1l0.1-0.1l0.1-0.1l0.1-0.1l0.1-0.1l0.1-0.1
				l0.1-0.1l0.1-0.1l0.1-0.1l0.1-0.1l0.1,0l0.1,0l0.1,0l0.1,0l0.1,0l0.1,0l0.1,0l0.1,0l0.1,0l0.1,0L101.2,146.5L101.2,146.5z
				 M98.4,152.9l0-5l0,0l0,0l0,0l0,0l0,0l0,0l0,0l0,0l0,0l0,0l0,0l0,0l0,0l0,0l0,0l0,0l0,0l0,0l0,0l0,0l0,0l0,0l0,0l0,0l0,0l0,0l0,0
				l0,0l0,0l0,0l0,0l0,0l0,0l4,2.8l-0.1,0.1l-0.1,0.1l-0.1,0.1l-0.1,0.1l-0.1,0.1l-0.1,0.1l-0.1,0.1l-0.1,0.1l-0.1,0.1l-0.1,0.1
				l-0.1,0.1l-0.1,0.1l-0.1,0.1l-0.1,0.1l-0.1,0.1l-0.1,0.1l-0.1,0.1l-0.2,0.1l-0.2,0.1l-0.2,0.1l-0.2,0.1l-0.2,0.1l-0.2,0.1l-0.2,0
				l-0.2,0l-0.2,0l-0.2,0l-0.2,0l-0.2,0l-0.2,0l-0.2,0L98.4,152.9L98.4,152.9L98.4,152.9z M96.8,151.5l-1.6-4.7l2.7,0.8l0,0l0,0l0,0
				l0,0l0,0l0,0l0,0l0,0l0,0l0,0l0,0l0,0l0,0l0,0l0,0l0,0l0,0l0,0l0,0l0,0l0,0l0,0l0,0l0,0l0,0l0,0l0,0l0,0l0,0l0,0l0,0l0,0l0,5
				l-0.2,0l-0.2,0l-0.2,0l-0.2,0l-0.2,0l-0.2,0l-0.2,0l-0.2,0l-0.1,0l-0.1,0l-0.1,0l-0.1-0.1l-0.1-0.1l-0.1-0.1l-0.1-0.1l-0.1-0.1
				l-0.1-0.1l-0.1-0.1l-0.1-0.1l-0.1-0.1l-0.1-0.1l-0.1-0.1l-0.1-0.1l-0.1-0.1l-0.1-0.1l-0.1-0.1l-0.1-0.1l-0.1-0.1l-0.1-0.1
				l-0.1-0.1l-0.1-0.1l-0.1-0.1L96.8,151.5L96.8,151.5z M97.9,147.6l-3.8,3.1l-0.1-0.1l-0.1-0.1l-0.1-0.1l-0.1-0.1l-0.1-0.1l0-0.1
				l0-0.1l0-0.1l0-0.1l0-0.1l0-0.1l0-0.1l0-0.1l0-0.1l0-0.1l0-0.1l0-0.1l0-0.1l0-0.1l0-0.1l0-0.1l0-0.1l0-0.1l0.1-0.1l0.1-0.1
				l0.1-0.1l0.1-0.1l0.1-0.1l0.1-0.1l0.1-0.1l0.1-0.1l0.1-0.1l0.1-0.1l0.1-0.1l0.1-0.1l0.1-0.1l0.1-0.1l0.1,0l0.1,0l0.1,0l0.1,0
				l0.1,0l0.1,0l0.1,0l0.1,0l0.1,0l0.1,0l0.1,0l0.1,0l0.1,0l0.1,0l0.1,0l0.1,0l0.1,0l0.1,0.1l0.1,0.1l0.1,0.1l0.1,0.1l0.1,0.1
				l0.1,0.1l0.1,0.1l0.1,0.1l0.1,0.1L97.9,147.6L97.9,147.6z M94.9,151.9l0-5l0,0l0,0l0,0l0,0l0,0l0,0l0,0l0,0l0,0l0,0l0,0l0,0l0,0
				l0,0l0,0l0,0l0,0l0,0l0,0l0,0l0,0l0,0l0,0l0,0l0,0l0,0l0,0l0,0l0,0l0,0l0,0l0,0l0,0l1.6,4.7l-0.1,0l-0.1,0l-0.1,0l-0.1,0l-0.1,0
				l-0.1,0l-0.1,0l-0.1,0l-0.1,0l-0.1,0l-0.1,0l-0.1,0l-0.1,0l-0.1,0l-0.1,0l-0.1,0l-0.1,0l-0.1,0l-0.1,0l-0.1,0l-0.1,0l-0.1,0
				l-0.1,0l-0.1,0l-0.1,0l-0.1,0l-0.1,0l-0.1,0l-0.1,0l-0.1,0L94.9,151.9L94.9,151.9L94.9,151.9L94.9,151.9z M94.6,150.8l-2.9-4
				l2.8-0.1l0,0l0,0l0,0l0,0l0,0l0,0l0,0l0,0l0,0l0,0l0,0l0,0l0,0l0,0l0,0l0,0l0,0l0,0l0,0l0,0l0,0l0,0l0,0l0,0l0,0l0,0l0,0l0,0l0,0
				l0,0l0,0l0,0l0,5l-0.1,0l-0.1,0l-0.1,0l-0.1,0l-0.1,0l-0.1,0l-0.1,0l-0.1,0l-0.1,0l-0.1,0l-0.1,0l-0.1,0l-0.1,0l-0.1,0l-0.1,0
				l-0.1,0l-0.1,0l-0.1,0l-0.1,0l-0.1,0l-0.1,0l-0.1,0l-0.1,0l-0.1,0l-0.1,0l-0.1,0l-0.1-0.1l-0.1-0.1l-0.1-0.1L92,151l-0.1-0.1
				l-0.1-0.1L94.6,150.8L94.6,150.8z M94.6,146.7l-2.7,4.1l-0.1-0.1l-0.1-0.1l-0.1-0.1l-0.1-0.1l-0.1-0.1l-0.1-0.1l-0.1-0.1
				l-0.1-0.1l-0.1-0.1l-0.1-0.1l0-0.1l0-0.1l0-0.1l0-0.1l0-0.1l0-0.1l0-0.1l0-0.1l0-0.1l0-0.1l0-0.1l0-0.1l0-0.1l0-0.1l0-0.1l0-0.1
				l0-0.1l0-0.1l0-0.1l0.1-0.1l0.1-0.1l0.1-0.1l0.1-0.1l0.1-0.1l0.1-0.1l0.1-0.1l0.1-0.1l0.1-0.1l0.1-0.1l0.1-0.1l0.1-0.1l0.1-0.1
				l0.1-0.1l0.1,0l0.1,0l0.1,0l0.1,0l0.1,0l0.1,0l0.1,0l0.1,0l0.1,0l0.1,0l0.1,0l0.1,0l0.1,0l0.1,0l0.1,0l0.1,0l0.1,0l0.1,0.1
				l0.1,0.1l0.1,0.1L94.6,146.7z"/>
			<path fill-rule="evenodd" clip-rule="evenodd" fill="#FFFFFF" d="M93.2,148.8c-0.5,0.4-1.2,0.7-1.9,0.7c-1.9,0-4.7-3.8-4.7-5.4
				c0-1.6,1.4-3,3-3c0.5,0,1,0.1,1.4,0.4c0.4-1.1,1.5-1.9,2.8-1.9c0.4,0,0.7,0.1,1,0.2c0.6-0.7,1.4-1.2,2.4-1.2c0.9,0,1.7,0.4,2.2,1
				c0.5-0.3,1-0.4,1.5-0.4c1.7,0,2.8,1.4,3,3l0.5,3.8c0.2,1.6-1.4,3-3,3c-0.1,0-0.2,0-0.4,0c-0.5,0.8-1.5,1.4-2.5,1.4
				c-1,0-1.8-0.5-2.4-1.2c-0.3,0.1-0.7,0.2-1.1,0.2C94.3,149.4,93.7,149.2,93.2,148.8z"/>
		</g>
		<g>
			<path fill="#4D4D4D" d="M113.6,145.8h-4l0,0l0,0l0,0l0,0l0,0l0,0l0,0l0,0l0,0l0,0l0,0l0,0l0,0l0,0l0,0l0,0l0,0l0,0l0,0l0,0l0,0
				l0,0l0,0l0,0l0,0l0,0l0,0l0,0l0,0l0,0l0,0l0,0h0v-3.8l0.2,0l0.2,0l0.2,0l0.2,0l0.2,0.1l0.2,0.1l0.2,0.1l0.2,0.1l0.2,0.1l0.2,0.1
				l0.2,0.1l0.2,0.1l0.2,0.1l0.2,0.1l0.2,0.1l0.1,0.1l0.1,0.2l0.1,0.2l0.1,0.2l0.1,0.2l0.1,0.2l0.1,0.2l0.1,0.2l0.1,0.2l0.1,0.2
				l0.1,0.2l0.1,0.2l0,0.2l0,0.2l0,0.2l0,0.2L113.6,145.8L113.6,145.8L113.6,145.8z M109.3,150v-3.8l0,0l0,0h0l0,0l0,0l0,0l0,0l0,0
				l0,0l0,0l0,0l0,0l0,0l0,0l0,0l0,0l0,0l0,0l0,0l0,0l0,0l0,0l0,0l0,0l0,0l0,0l0,0l0,0l0,0l0,0l0,0l0,0l0,0h4l0,0.2l0,0.2l0,0.2
				l0,0.2l0,0.2l-0.1,0.2l-0.1,0.2l-0.1,0.2l-0.1,0.2l-0.1,0.2L113,148l-0.1,0.2l-0.1,0.2l-0.1,0.2l-0.1,0.2l-0.1,0.2l-0.1,0.1
				l-0.2,0.1l-0.2,0.1l-0.2,0.1l-0.2,0.1l-0.2,0.1l-0.2,0.1l-0.2,0.1l-0.2,0.1l-0.2,0.1l-0.2,0.1l-0.2,0.1l-0.2,0l-0.2,0l-0.2,0
				L109.3,150L109.3,150L109.3,150z M104.9,145.8h4l0,0l0,0l0,0l0,0l0,0l0,0l0,0l0,0l0,0l0,0l0,0l0,0l0,0l0,0l0,0l0,0l0,0l0,0l0,0
				l0,0l0,0l0,0l0,0l0,0l0,0l0,0l0,0l0,0l0,0l0,0l0,0h0l0,0v3.8l-0.2,0l-0.2,0l-0.2,0l-0.2,0l-0.2-0.1l-0.2-0.1l-0.2-0.1l-0.2-0.1
				l-0.2-0.1l-0.2-0.1l-0.2-0.1l-0.2-0.1l-0.2-0.1l-0.2-0.1l-0.2-0.1l-0.1-0.1l-0.1-0.2l-0.1-0.2l-0.1-0.2l-0.1-0.2l-0.1-0.2
				l-0.1-0.2l-0.1-0.2l-0.1-0.2l-0.1-0.2l-0.1-0.2l-0.1-0.2l0-0.2l0-0.2l0-0.2l0-0.2L104.9,145.8L104.9,145.8L104.9,145.8z
				 M109.3,141.6v3.8l0,0h0l0,0l0,0l0,0l0,0l0,0l0,0l0,0l0,0l0,0l0,0l0,0l0,0l0,0l0,0l0,0l0,0l0,0l0,0l0,0l0,0l0,0l0,0l0,0l0,0l0,0
				l0,0l0,0l0,0l0,0l0,0l0,0h-4l0-0.2l0-0.2l0-0.2l0-0.2l0-0.2l0.1-0.2l0.1-0.2l0.1-0.2l0.1-0.2l0.1-0.2l0.1-0.2l0.1-0.2l0.1-0.2
				l0.1-0.2l0.1-0.2l0.1-0.2l0.1-0.1l0.2-0.1l0.2-0.1l0.2-0.1l0.2-0.1l0.2-0.1l0.2-0.1l0.2-0.1l0.2-0.1l0.2-0.1l0.2-0.1l0.2-0.1
				l0.2,0l0.2,0l0.2,0L109.3,141.6L109.3,141.6z"/>
			<circle fill-rule="evenodd" clip-rule="evenodd" fill="#FFFFFF" cx="109.3" cy="145.8" r="2.3"/>
		</g>
	</g>
</g>
<g id="Layer_2" display="none">
	<g display="inline">
		<path d="M156.5,89c5.1-8.5,13.2-20.7,23.4-32.4c0,0,0,0,0,0c8.6-9.9,25.5-22.7,25.5-22.7c2.5-1.9,2.3-4.6-0.6-5.9l-20.4-9.5
			c-2.9-1.4-6.8-0.4-8.7,2.2c0,0-15.1,21.7-32.9,67.8c-55-24.9-107.2,10-107.2,70.5c0,63.3,48.7,159.4,114.5,130.4
			c69.3,30,114.5-67.1,114.5-130.4C264.5,97.9,217.5,62.1,156.5,89z"/>
		<path d="M144.2,68.5c3.2-0.3,6-3.1,6.2-6.3c0,0,2-24.7-15.2-42C117.9,3,93.2,5.1,93.2,5.1c-3.2,0.3-6,3.1-6.2,6.3
			c0,0-2.1,24.8,15.2,42C119.4,70.6,144.2,68.5,144.2,68.5z"/>
	</g>
</g>
<g id="Layer_3" display="none">
	<g id="Capa_x0020_1" display="inline">
		<g id="_619661696">
			<path d="M134,129.3c27.3,8.2,21.9,10.9,27.3,16.4c-19.1,30,0,5.5-24.6,19.1c8.2-19.1,21.9-30-2.7-24.6l-19.1,5.5v-21.9L134,132
				V129.3z M229.7,118.4c0,10.9-16.4,13.7-19.1,2.7C210.5,110.2,226.9,110.2,229.7,118.4z M142.2,162.1l-76.5,5.5
				c-35.5,2.7-35.5,46.4-13.7,73.8c24.6,27.3,46.4,27.3,92.9,24.6c43.7-2.7,24.6-54.6,65.6-117.5c8.2-16.4,21.9,24.6,46.4,13.7
				c21.9-10.9-21.9-101.1-49.2-79.2c-2.7,2.7-5.5,2.7-8.2,8.2l-8.2,13.7c-16.4,24.6-27.3,27.3-65.6-2.7c-2.7-8.2-2.7-8.2-2.7-16.4
				c-2.7-5.5,10.9-8.2-24.6-10.9c-60.1,106.5-35.5,92.9,49.2,87.4H142.2z"/>
			<path d="M98.5,58.3c19.1,32.8,71-10.9,43.7-43.7C114.9-15.5,79.4,25.5,98.5,58.3z"/>
			<path fill="#2B2A29" d="M74,271.3h90.1c2.7,0,2.7,0,2.7,2.7v2.7c0,2.7,0,2.7-2.7,2.7H74c-2.7,0-2.7-2.7-2.7-2.7v-2.7
				C71.2,271.3,71.2,271.3,74,271.3z"/>
			<path fill="#2B2A29" d="M74,287.7h90.1c2.7,0,2.7,0,2.7,2.7v2.7c0,2.7,0,2.7-2.7,2.7H74c-2.7,0-2.7-2.7-2.7-2.7v-2.7
				C71.2,287.7,71.2,287.7,74,287.7z"/>
		</g>
	</g>
</g>
<g id="Layer_4">
	<g>
		<path fill-rule="evenodd" clip-rule="evenodd" fill="#1BA39C" d="M153.4,255.2c8.8-0.3,20.8,1.4,28.8-1.7
			c22.6-8.5-6.4-23.4,3-39.2c3.6-6,13.7-8.8,21.1-7.4c27.4,5.4,4.6,33.6,4.3,35.9c-2.3,17,30.6,15.5,42.9,14.4
			c1.4-13.8-1.4-27.1,4.1-38.9c20.6-4.4,17.3,12.7,31.6,6.9c11.8-4.9,5-25.2-8.7-21.7c-6.7,1.7-5.6,7.5-15.2,6.7
			c-16.5-1.4-8.6-26.9-10.3-51.4c-22.1,4.5-30.8,2.1-46.8-6.7c0.7-14.6,13.6-16.7,7.7-27.6c-4-7.5-18.3-6.5-24.1-0.9
			c-4.8,18.4,10.9,16.8,4.7,30.2c-8.4,5.6-11.6,1.9-20.4,0.8c-7.8-1-16.2,0.2-23.7,1.3l0.9,23.7c1,10.4,0,13.5-1.5,21.4
			c-18.2,5.1-17.9-5.3-27.2-4.6c-10.5,0.7-14.3,19.7,1.5,20.1c11,0.2,20.5-10.9,26,4.8C156.3,233.2,153.4,243.4,153.4,255.2
			L153.4,255.2z"/>
		<path fill-rule="evenodd" clip-rule="evenodd" fill="#F2784B" d="M80.4,201.9c0.1,0.6,12,18.9-3.6,25.6
			c-17.1,7.4-14.2-8.4-29.9-6.5c-6.5,8.4-4.5,23.8-4,34.4c95.7-9.4,22.7,27.7,52.5,39.5c11.4,2.1,17.3-1.8,19.4-11.8
			c-3.5-11-17.3-17.9-2.8-32.1l36.5,3c0.2-12.2,5-27.3-4.6-37.8c-9.3,0-13.7,5.7-22.9,2.9c-16.7-5.1-12.1-31.2,5.8-28
			c9.2,1.6,7.6,6.9,21.5,6.1c2-15-0.8-22.7-1.9-37.3c-12.5-3.4-34.8,8-45.4-8.9c-1-10,2.9-8.4,7.1-14.1c7.8-10.5-3.7-26-17.4-19.3
			c-6.6,3.2-8.1,7.9-7.3,17.4c6.2,5.5,10.4,7.9,6.7,19c-11.1,3.8-32.7,3.1-46,2.7l1.9,45.3C51,213.9,57.5,192.7,80.4,201.9
			L80.4,201.9z"/>
		<path fill-rule="evenodd" clip-rule="evenodd" fill="#2980B9" d="M84.5,55.3c-11.8-3.8-25.5-1.5-38-1.2c2.3,13.5,11.9,38-6.1,40.9
			c-12.9,2-12.3-5.9-21.7-6.5C8.7,87.7,4.6,94.9,4.7,104.5c12.6,21.4,17.3-3.4,39,7.9c3.3,13.6-2.2,24,1.2,39.7
			c7.5,3.1,33.7,0.7,42.8-0.6c0.3-12.9-10.6-11.8-8.1-24.7c3.9-19.8,33.2-18.9,35.9-0.3c1.7,12.1-7.2,13.4-10.1,23.1
			c10.7,11.1,40,8,43.3,1.7c2.5-15.1-9.8-35.4,2.3-45.3c13.6-11.2,15.8,3.4,26.4,2.8c17.4-0.9,10.7-28.1-6.8-20.1
			c-5.5,2.5-3.9,4.6-12.9,4.1c-22.7-1.3-8.1-24.5-12.3-39.3l-21.4-1.5c-16.1-3.3-16.6,6.6-9.3,16.6c17.3,23.5-19.2,35.8-28.4,18.4
			C78,71.6,101.6,59.1,84.5,55.3L84.5,55.3z"/>
		<path fill-rule="evenodd" clip-rule="evenodd" fill="#F1C40F" d="M182.3,53.8L153,54.4c-2.6,8.6-4.3,24.2-1.7,32.3
			c17.8,10.7,16.4-9.6,33.8-0.3c4.1,2.2,7.4,6.5,7.9,13.1c0.6,7.8-3.9,11.1-8.7,13.4c-14.5,6.8-22.3-13.7-31.7,0.3
			c-4.4,6.6,2.3,27.3,1.5,39.3c33.3-5.5,26.3,3.4,39.6-0.1c2-9.9-13.8-20.1-2.4-32.4c4.9-5.3,22.1-9.4,29.8,5.6c4.5,1.7,3.7,1,7.9,2
			l-0.7-9.2c-20.7-8.8-11.2-26-5.2-30c18-12.1,20.3,11.5,37.2,0.4c2-9.3,0.6-24.4-4.5-31.4c-10.7-5.2-32,4.1-43.9-8
			C196.7,34,223.5,26.3,214.6,10C206-2.6,182,8.4,191.4,24.8C202.4,44,195.8,43.1,182.3,53.8L182.3,53.8z"/>
		<path fill-rule="evenodd" clip-rule="evenodd" fill="#F1C40F" d="M228,118l0.7,9.2c-4.2-1-3.4-0.3-7.9-2
			c3.4,10.6-3.6,16.4-7.2,23.8c1.3,5.4,11.6,7,17.9,7.6c7.7,0.8,14.3,1,21.7-1.8c1.5-5.2,2.1-33.6,0.3-39
			C238.5,109.3,244.7,119.7,228,118L228,118z"/>
	</g>
</g>
</svg>
