<?xml version="1.0" encoding="utf-8"?>
<!-- Generator: Adobe Illustrator 18.1.0, SVG Export Plug-In . SVG Version: 6.00 Build 0)  -->
<!DOCTYPE svg PUBLIC "-//W3C//DTD SVG 1.1//EN" "http://www.w3.org/Graphics/SVG/1.1/DTD/svg11.dtd">
<svg version="1.1" id="Layer_1" xmlns="http://www.w3.org/2000/svg" xmlns:xlink="http://www.w3.org/1999/xlink" x="0px" y="0px"
	 viewBox="0 0 300 300" enable-background="new 0 0 300 300" xml:space="preserve">
<g id="Layer_1_1_">
	<g>
		<path fill="#F1C40F" d="M96.6,32.2l0.4,3.7l0.4,20.2l-0.2,9.2c0.4,5.6-4,20.7-0.2,30.3c3.4,8.6,16,7.7,25.6,6.4
			c6.8-0.9,13.9-10,17-15.4c10.8-18.9,6.8-9.6,15.2-17.6c-1.2-8.1-6-9.8-11.6-13.9c1.2-4.6,2.7-2.4,4.1-9.1c0.8-4.1,1.3-6,3.9-8.2
			c4.1-3.6,14.3-3.5,21.4-2.4c5.3,3-0.2,8.3,8.6,20c8.6,0,16.5-1.5,26.3-0.9c20.2,1.2,19.3,20.3,14.6,32.1c-3.5,8.7-7,6.9-3.9,19.1
			c2.3,9.1,2.6,14,3.4,23.7c1.5,18.1,1.4,9.2,3.5,15.7l3.5,15.9c-0.5,6.2-2,3.4,1.5,10c2.4,4.7,7.6,11.7,8.2,18
			c-4.7-0.9-4.9-4.4-7.2-8.7c-1.6-3-4.3-7.3-5.6-10.1c-2.2-4.8-2.6-20-5.4-25.3c-0.2,0-0.5,0.1-0.6,0.1c-0.1,0-0.5,0.1-0.6,0.1
			c-6.1,2.8-2.2,7.7-6.9,12.4c-2.1-0.8-1.2-0.4-2.4-2.2c-0.1-0.2-0.6-1-0.7-1.3l-0.7-1.4c-0.8,16.1,1.5,31.7,1.4,34.1l-4.2,0.5
			l-3.9-32.2c-1.6,0.4-2-0.9-2,6.1c0,7.3-0.4,16.2,0.9,22.9c1.9,9.6,2.3,18.9,2.3,29.2c0,11.4,1.8,18.1,2.8,28.7
			c0.9,9.5-0.1,20.5,0.9,29.7c12.3,1.8,24.7-0.9,37-0.5v20H57.7v-12.4c14.5,1.9,21.2-0.7,35.1-0.6c2-1.5,1,2.6,2.1-2.9
			c0-13.2,0.4-26.7-0.1-39.9c-0.2-6.5-0.8-13.1-1-19.5c-0.2-6.3,0.8-13.1,0.9-19.5c0.2-12.8,0-26.2-0.1-39l-1.6-38.3
			c-0.8-5.8-0.1-5.4-2.7-10.9c-2.2-4.9-0.8-6.3,0.8-10.3c1.2-2.9,1.2-21,0.6-25.2l0.6-1.2c0-0.2,0.1-0.5,0.2-0.7l0.9-11.8
			c3.3-8.2-1.8-31.7,1.2-38.9L96.6,32.2z"/>
		<path fill="#F39C12" d="M167.7,68.6c-1.2-8.1,1.7-9.9-4-14c1.2-4.6,0-4.1,1.4-10.8c0.8-4.1-4-5.3-1.4-7.6c4.1-3.6,1.4-1.9,8.6-0.9
			c5.3,3-0.2,8.3,8.6,20c8.6,0,16.5-1.5,26.3-0.9c20.2,1.2,19.3,20.3,14.6,32.1c-3.5,8.7-7,6.9-3.9,19.1c2.3,9.1,2.6,14,3.4,23.7
			c1.5,18.1,1.4,9.2,3.5,15.7l3.5,15.9c-0.5,6.2-2,3.4,1.5,10c2.4,4.7,7.6,11.7,8.2,18c-4.7-0.9-4.9-4.4-7.2-8.7
			c-1.6-3-4.3-7.3-5.6-10.1c-2.2-4.8-2.6-20-5.4-25.3c-0.2,0-0.5,0.1-0.6,0.1s-0.5,0.1-0.6,0.1c-6.1,2.8-2.2,7.7-6.9,12.4
			c-2.1-0.8-1.2-0.4-2.4-2.2c-0.1-0.2-0.6-1-0.7-1.3l-0.7-1.4c-0.8,16.1,1.5,31.7,1.4,34.1l-4.2,0.5l-3.9-32.2c-1.6,0.4-2-0.9-2,6.1
			c0,7.3-0.4,16.2,0.9,22.9c1.9,9.6,2.3,18.9,2.3,29.2c0,11.4,1.8,18.1,2.8,28.7c0.9,9.5-0.1,20.5,0.9,29.7
			c12.3,1.8,24.7-0.9,37-0.5v20h-66.3C177.1,290.8,168.1,86.9,167.7,68.6z"/>
		<path fill="#FFFFFF" d="M120.9,272.9c-0.8-5.3-3.4-13.3-3.3-18.5c0.1-6.5,2.2-3.4-1.2-10.9c-2.1-4.8,0.2-5-0.6-11.6
			c-0.1-0.1-0.5-0.2-0.6-0.1c0,0-2,0.8-2.8-4.1c-0.5-2.2-0.2-4-1.2-7c-1.9-6.1-2.7-8.2-3.3-14.4c-0.1,0.2-0.4,0.4-0.4,0.7l-1.9,6.4
			c-0.6,2.8-1.2,4.9-1.9,7c-1.5,4.8-0.7,3-1.3,6.3c-0.5,2.9-1,2.7-1.2,7c-2-5-2-0.1-3.6-9.9c-1-6.5-0.4-110.4-0.1-114.7l4.9,0.9
			c3.5,6.8,3.9,6,20.5,5.5c9.9-0.2,12.5-3.4,17.5-5.7l2.1-0.5c0.7,2,4.1,16.6,4.2,18.9c0.2,5.4-4,10.3-4.2,18.2
			c-0.5,18.9,9.9,2.6-0.4,36.7c-5.3,17.3-7.6,21.2-6.9,39.9c0.2,7.6,3.3,11.8,4.1,19.4c0.8,7.3,4.1,11.8,6,18
			c-3.9,0.1,1.5,3.5-1.6,4.2L120.9,272.9z"/>
		<path fill="#FFFFFF" d="M122.8,257.6c1.2,2.9-1.8,3.2,1.4,4.8l6.2,1.2c0.4-4.1,0.2-4,4.7-4.2c3-0.1,5.1,1.5,7,2.4
			c3.6-8.7-2.4,2,0.5-5.1l1.6,4c0.1-10-0.5-3.3,2.8-6.1c0,8.1-1,10-7.2,12.5c-7.8,3.2-5.3,1.2-8.7,8.1c-6.3,1.4-25.5,1.3-31.9,0.1
			c-1.8-11.6-1.4-132.6-1.4-152.6c0-6.5-2.8-10,0.1-13.4c-0.2,4.4,0.7,99.7,1.8,106.2c1.6,9.8,1.6,5,3.6,9.9c0.1-4.3,0.6-4.1,1.2-7
			c0.6-3.3-0.2-1.6,1.3-6.3c0.6-2.1,1.3-4.2,1.9-7l1.9-6.4c0-0.5,0.2-0.5,0.4-0.7c0.6,6.2,1.4,8.2,3.3,14.4c0.9,3,0.7,4.7,1.2,7
			c0.9,4.9,2.8,4.1,2.8,4.1c0.1-0.1,0.4,0,0.6,0.1c0.8,6.5-1.5,6.8,0.6,11.6c3.4,7.5,1.3,4.3,1.2,10.9
			C118.8,251.2,121.9,252.4,122.8,257.6z"/>
		<path fill="#FFFFFF" d="M170.4,270.9c-1.5-13.7-3.6-15.7-4.1-21.7c-0.5-5.7-1.4-7-2.3-11.7c-0.8-4.3-0.2-8.4-1-12.5
			c-1.9-9.1,0.5-12.7,3.3-21c1.9-5.7,3.7-15.3,7.5-19.4c4.7,2.1,4.8,15.9,6.7,22.3c2.8,9.2-4.9,8.4-1,25.2c5,21.5-1.4,11.6,5,23.9
			C188.7,264.3,177,269.5,170.4,270.9z"/>
	</g>
</g>
<g id="Layer_2" display="none">
	<g display="inline">
		<g>
			<defs>
				<path id="SVGID_1_" d="M299.8,291.3c0,0.5-125.4-1.5-125.9-1.3c-0.5-86.8,0-189.3,0.5-282.3c138.2,0,75.8,2,125.6,0
					c0.1,20.8,0.1,174.1,0.3,200C300.7,246.8,301.4,265.4,299.8,291.3z"/>
			</defs>
			<clipPath id="SVGID_2_">
				<use xlink:href="#SVGID_1_"  overflow="visible"/>
			</clipPath>
			<path clip-path="url(#SVGID_2_)" fill="#E3AB15" d="M96.3-18.4l0.4,3.7L97,5.5l-0.2,9.2c0.4,5.6-4,20.7-0.2,30.3
				c3.4,8.6,16,7.7,25.6,6.4c6.8-0.9,13.9-10,17-15.4c10.8-18.9,6.8-9.6,15.2-17.6c-1.2-8.1-6-9.8-11.6-13.9
				c1.2-4.6,2.7-2.4,4.1-9.1c0.8-4.1,1.3-6,3.9-8.2c4.1-3.6,14.3-3.5,21.4-2.4c5.3,3-0.2,8.3,8.6,20c8.6,0,16.5-1.5,26.3-0.9
				C227.2,5,226.3,24.2,221.6,36c-3.5,8.7-7,6.9-3.9,19.1c2.3,9.1,2.6,14,3.4,23.7c1.5,18.1,1.4,9.2,3.5,15.7l3.5,15.9
				c-0.5,6.2-2,3.4,1.5,10c2.4,4.7,7.6,11.7,8.2,18c-4.7-0.9-4.9-4.4-7.2-8.7c-1.6-3-4.3-7.3-5.6-10.1c-2.2-4.8-2.6-20-5.4-25.3
				c-0.2,0-0.5,0.1-0.6,0.1s-0.5,0.1-0.6,0.1c-6.1,2.8-2.2,7.7-6.9,12.4c-2.1-0.8-1.2-0.4-2.4-2.2c-0.1-0.2-0.6-1-0.7-1.3l-0.7-1.4
				c-0.8,16.1,1.5,31.7,1.4,34.1l-4.2,0.5l-3.9-32.2c-1.6,0.4-2-0.9-2,6.1c0,7.3-0.4,16.2,0.9,22.9c1.9,9.6,2.3,18.9,2.3,29.2
				c0,11.4,1.8,18.1,2.8,28.7c0.9,9.5-0.1,20.5,0.9,29.7c12.3,1.8,24.7-0.9,37-0.5v20H57.4v-12.4c14.5,1.9,21.2-0.7,35.1-0.6
				c2-1.5,1,2.6,2.1-2.9c0-13.2,0.4-26.7-0.1-39.9c-0.2-6.5-0.8-13.1-1-19.5c-0.2-6.3,0.8-13.1,0.9-19.5c0.2-12.8,0-26.2-0.1-39
				L92.6,68c-0.8-5.8-0.1-5.4-2.7-10.9c-2.2-4.9-0.8-6.3,0.8-10.3c1.2-2.9,1.2-21,0.6-25.2l0.6-1.2c0-0.2,0.1-0.5,0.2-0.7L93,8
				c3.3-8.2-1.8-31.7,1.2-38.9L96.3-18.4z"/>
		</g>
		<g>
			<defs>
				<path id="SVGID_3_" d="M299.8,291.3c0,0.5-125.4-1.5-125.9-1.3c-0.5-86.8,0-189.3,0.5-282.3c138.2,0,75.8,2,125.6,0
					c0.1,20.8,0.1,174.1,0.3,200C300.7,246.8,301.4,265.4,299.8,291.3z"/>
			</defs>
			<clipPath id="SVGID_4_">
				<use xlink:href="#SVGID_3_"  overflow="visible"/>
			</clipPath>
			<path clip-path="url(#SVGID_4_)" fill="#FFFFFF" d="M120.6,273.1c-0.8-5.3-3.4-13.3-3.3-18.5c0.1-6.5,2.2-3.4-1.2-10.9
				c-2.1-4.8,0.2-5-0.6-11.6c-0.1-0.1-0.5-0.2-0.6-0.1c0,0-2,0.8-2.8-4.1c-0.5-2.2-0.2-4-1.2-7c-1.9-6.1-2.7-8.2-3.3-14.4
				c-0.1,0.2-0.4,0.4-0.4,0.7l-1.9,6.4c-0.6,2.8-1.2,4.9-1.9,7c-1.5,4.8-0.7,3-1.3,6.3c-0.5,2.9-1,2.7-1.2,7c-2-5-2-0.1-3.6-9.9
				c-1-6.5-0.4-110.4-0.1-114.7l4.9,0.9c3.5,6.8,3.9,6,20.5,5.5c9.9-0.2,12.5-3.4,17.5-5.7l2.1-0.5c0.7,2,4.1,16.6,4.2,18.9
				c0.2,5.4-4,10.3-4.2,18.2c-0.5,18.9,9.9,2.6-0.4,36.7c-5.3,17.3-7.6,21.2-6.9,39.9c0.2,7.6,3.3,11.8,4.1,19.4
				c0.8,7.3,4.1,11.8,6,18c-3.9,0.1,1.5,3.5-1.6,4.2L120.6,273.1z"/>
		</g>
		<g>
			<defs>
				<path id="SVGID_5_" d="M299.8,291.3c0,0.5-125.4-1.5-125.9-1.3c-0.5-86.8,0-189.3,0.5-282.3c138.2,0,75.8,2,125.6,0
					c0.1,20.8,0.1,174.1,0.3,200C300.7,246.8,301.4,265.4,299.8,291.3z"/>
			</defs>
			<clipPath id="SVGID_6_">
				<use xlink:href="#SVGID_5_"  overflow="visible"/>
			</clipPath>
			<path clip-path="url(#SVGID_6_)" fill="#FFFFFF" d="M122.4,257.8c1.2,2.9-1.8,3.2,1.4,4.8l6.2,1.2c0.4-4.1,0.2-4,4.7-4.2
				c3-0.1,5.1,1.5,7,2.4c3.6-8.7-2.4,2,0.5-5.1l1.6,4c0.1-10-0.5-3.3,2.8-6.1c0,8.1-1,10-7.2,12.5c-7.8,3.2-5.3,1.2-8.7,8.1
				c-6.3,1.4-25.5,1.3-31.9,0.1c-1.8-11.6-1.4-132.6-1.4-152.6c0-6.5-2.8-10,0.1-13.4c-0.2,4.4,0.7,99.7,1.8,106.2
				c1.6,9.8,1.6,5,3.6,9.9c0.1-4.3,0.6-4.1,1.2-7c0.6-3.3-0.2-1.6,1.3-6.3c0.6-2.1,1.3-4.2,1.9-7l1.9-6.4c0-0.5,0.2-0.5,0.4-0.7
				c0.6,6.2,1.4,8.2,3.3,14.4c0.9,3,0.7,4.7,1.2,7c0.9,4.9,2.8,4.1,2.8,4.1c0.1-0.1,0.4,0,0.6,0.1c0.8,6.5-1.5,6.8,0.6,11.6
				c3.4,7.5,1.3,4.3,1.2,10.9C118.4,251.4,121.5,252.5,122.4,257.8z"/>
		</g>
		<g>
			<defs>
				<path id="SVGID_7_" d="M299.8,291.3c0,0.5-125.4-1.5-125.9-1.3c-0.5-86.8,0-189.3,0.5-282.3c138.2,0,75.8,2,125.6,0
					c0.1,20.8,0.1,174.1,0.3,200C300.7,246.8,301.4,265.4,299.8,291.3z"/>
			</defs>
			<clipPath id="SVGID_8_">
				<use xlink:href="#SVGID_7_"  overflow="visible"/>
			</clipPath>
			<path clip-path="url(#SVGID_8_)" fill="#FFFFFF" d="M170.8,271.1c-1.5-13.7-3.6-15.7-4.1-21.7c-0.5-5.7-1.4-7-2.3-11.7
				c-0.8-4.3-0.2-8.4-1-12.5c-1.9-9.1,0.5-12.7,3.3-21c1.9-5.7,3.7-15.3,7.5-19.4c4.7,2.1,4.8,15.9,6.7,22.3c2.8,9.2-4.9,8.4-1,25.2
				c5,21.5-1.4,11.6,5,23.9C189,264.4,177.4,269.7,170.8,271.1z"/>
		</g>
	</g>
</g>
</svg>
