<?xml version="1.0" encoding="utf-8"?>
<!-- Generator: Adobe Illustrator 18.1.0, SVG Export Plug-In . SVG Version: 6.00 Build 0)  -->
<!DOCTYPE svg PUBLIC "-//W3C//DTD SVG 1.1//EN" "http://www.w3.org/Graphics/SVG/1.1/DTD/svg11.dtd">
<svg version="1.1" id="Layer_1" xmlns="http://www.w3.org/2000/svg" xmlns:xlink="http://www.w3.org/1999/xlink" x="0px" y="0px"
	 viewBox="0 0 300 300" enable-background="new 0 0 300 300" xml:space="preserve">
<g id="Layer_1_1_" display="none">
	<g display="inline">
		<path fill="#FFFFFF" d="M131.7,87l43.8-10.5L219.2,87l-19,75.6h-49.5L131.7,87z"/>
		<path fill="#4D4D4D" d="M199.8,166l-11.1,105.8h-11.6l0,0h-1.6h-13.3l-11.3-105.7L199.8,166z"/>
		<path fill="#DB0000" d="M194.3,81l24.9,6l-19,75.6v0.1l-49.5,0.1v-0.2l-19-75.6l24.9-6v-4.9c3.5,3.1,7.7,5.3,12.4,6.4v13.3
			l12.8-3.2V82.5c4.7-1.1,8.9-3.4,12.4-6.4V81H194.3z"/>
		<g>
			
				<path fill="none" stroke="#4D4D4D" stroke-width="5.2396" stroke-linecap="round" stroke-linejoin="round" stroke-miterlimit="22.9256" d="
				M175.4,25.4c40.1,0,29.1,52.4,0,52.4S135.4,25.4,175.4,25.4z"/>
			<path fill="#FFFFFF" d="M175.4,25.4c40.1,0,29.1,52.4,0,52.4S135.4,25.4,175.4,25.4z"/>
		</g>
		<path fill="#4D4D4D" d="M175.4,24.5c20.5,0,28.3,13,27.5,26.4c-0.8,0.1-1.6,0.1-2.4,0.1c-11.4,0-21.1-6.6-25-15.9
			c-3.9,9.3-13.7,15.9-25,15.9c-0.8,0-1.6,0-2.4-0.1C147.1,37.4,154.9,24.5,175.4,24.5z"/>
		<path fill="#DB0000" d="M221,91.8l15.9,42l-33.2,27l4.4-16.3l12.1-11.8l-7.2-8.8L221,91.8z"/>
		<path fill="#FFFFFF" d="M173.8,271.8v-89.3h3.2v89.3H173.8z"/>
		<path fill="#4D4D4D" d="M173.8,289.4h-3.6H144c-6,0-6.1-7.5,1.1-8.9c4.8-0.9,10.9-2.9,15-5.5h13.7l0,0h16.9
			c4.1,2.5,8.9,4.3,15,5.5c6,1.2,7.1,8.9,1.1,8.9H173.8z"/>
		<path fill="#FFFFFF" d="M173.8,289.4V275h3.2v14.4H173.8z"/>
		<path fill="#DB0000" d="M135.1,118l-12.6,22l-16.7,8.4l-1.3-10.6l8-8.7l15.4-40.8L135.1,118z"/>
		<polygon fill="#FFFFFF" points="181.8,92.6 160.2,98 159.5,94.9 181.8,89.3 		"/>
		<polygon fill="#FFFFFF" points="162.7,94.9 162.7,148.3 159.5,148.3 159.5,94.9 		"/>
		<g>
			<path fill="#FFFFFF" d="M168.1,148.3c1.3,0,2.4-1.1,2.4-2.4c0-1.3-1.1-2.4-2.4-2.4c-1.3,0-2.4,1.1-2.4,2.4
				C165.7,147.2,166.8,148.3,168.1,148.3z"/>
			<path fill="#FFFFFF" d="M182.8,148.3c1.3,0,2.4-1.1,2.4-2.4c0-1.3-1.1-2.4-2.4-2.4c-1.3,0-2.4,1.1-2.4,2.4
				C180.4,147.2,181.5,148.3,182.8,148.3z"/>
		</g>
		<g>
			<path fill="#FFFFFF" d="M168.1,129.4c1.3,0,2.4-1.1,2.4-2.4c0-1.3-1.1-2.4-2.4-2.4c-1.3,0-2.4,1.1-2.4,2.4
				C165.7,128.3,166.8,129.4,168.1,129.4z"/>
			<path fill="#FFFFFF" d="M182.8,129.4c1.3,0,2.4-1.1,2.4-2.4c0-1.3-1.1-2.4-2.4-2.4c-1.3,0-2.4,1.1-2.4,2.4
				C180.4,128.3,181.5,129.4,182.8,129.4z"/>
		</g>
		<g>
			<path fill="#FFFFFF" d="M168.1,110.4c1.3,0,2.4-1.1,2.4-2.4s-1.1-2.4-2.4-2.4c-1.3,0-2.4,1.1-2.4,2.4
				C165.7,109.3,166.8,110.4,168.1,110.4z"/>
			<path fill="#FFFFFF" d="M182.8,110.4c1.3,0,2.4-1.1,2.4-2.4s-1.1-2.4-2.4-2.4c-1.3,0-2.4,1.1-2.4,2.4
				C180.4,109.3,181.5,110.4,182.8,110.4z"/>
		</g>
		<g>
			<path fill="#DB0000" d="M145.8,20.5l42.4-9.9l3.6,15.3l-42.4,9.9L145.8,20.5z"/>
			<path fill="#FFFFFF" d="M141.3,35l57.4-13.4l0.8,3.6l-57.4,13.4L141.3,35z"/>
		</g>
		<path fill="#4D4D4D" d="M108.3,145.8H88.2c-4.8,0-4.9,0.1-4.9,4.9v7.8H71.1c-4.4,0-8,3.6-8,8v67.8c0,4.4,3.6,8,8,8h8
			c0,3.3-1.2,6,2.1,6c3.3,0,2.1-2.7,2.1-6h32.6c0,3.3-1.2,6,2.1,6c3.3,0,2.1-2.7,2.1-6h5.4c4.4,0,8-3.6,8-8v-67.8c0-4.4-3.6-8-8-8
			h-12.3v-7.8C113.2,145.9,113.1,145.8,108.3,145.8z M86.3,150.7c0-1.1,0.9-2.9,1.9-2.9h20.1c1.1,0,1.9,1.8,1.9,2.9v4.4h-9.1H86.3
			v-0.5V150.7z M129.5,228.1c0,1.3-12.6,2.3-13.8,2.3H79.1c-1.3,0-11.9-1-11.9-2.3v-33.9c0-1.3,10.6-7.1,11.9-7.1h36.6
			c1.3,0,13.8,5.8,13.8,7.1V228.1z M122.8,173.1v5.4c0,1.3-5.8,2.3-7.1,2.3H79.1c-1.3,0-7.1-1-7.1-2.3v-5.4c0-1.3,5.8-7.1,7.1-7.1
			h36.6C116.9,166,122.8,171.9,122.8,173.1z"/>
		<g>
			<path fill="#4D4D4D" d="M91.2,152v-5l0,0l0,0l0,0l0,0l0,0l0,0l0,0l0,0l0,0l0,0l0,0l0,0l0,0l0,0l0,0l0,0l0,0l0,0l0,0l0,0l0,0l0,0
				l0,0l0,0l0,0l0,0l0,0l0,0l0,0l0,0l0,0l0,0l0,0l2.9,4l-0.1,0.1l-0.1,0.1l-0.1,0.1l-0.1,0.1l-0.1,0.1l-0.1,0.1l-0.1,0.1l-0.1,0.1
				l-0.1,0.1l-0.1,0.1l-0.1,0.1h-0.1h-0.1h-0.1h-0.1h-0.1h-0.1h-0.1h-0.1h-0.1H92h-0.1h-0.1h-0.1h-0.1h-0.1h-0.1h-0.1h-0.1h-0.1H91
				L91.2,152L91.2,152L91.2,152z M84.1,144.1h4.8l0,0V144v-0.1l0,0l0,0v0.1v0.1l0.1,0.1l0.1,0.1l0.1,0.1l0.1,0.2l0.1,0.2l0.1,0.2
				l0.1,0.2l0.1,0.2l0.1,0.2l0.1,0.2L90,146l0.1,0.2l0.1,0.2l0.1,0.1l0.1,0.1l0.1,0.1l0.1,0.1l0.1,0.1l0.1,0.1l0.1,0.1H91h0.1l0,0
				l0,0H91h-0.1v5h-0.4l-0.4-0.1l-0.4-0.1l-0.4-0.1l-0.3-0.2l-0.3-0.2l-0.3-0.2l-0.3-0.2l-0.3-0.2l-0.3-0.2l-0.3-0.2l-0.3-0.2
				l-0.2-0.2l-0.2-0.3l-0.2-0.3l-0.2-0.3l-0.2-0.3l-0.2-0.3l-0.2-0.3l-0.2-0.3l-0.2-0.3l-0.2-0.3l-0.2-0.3l-0.2-0.3l-0.1-0.3
				l-0.1-0.3l-0.1-0.3l-0.1-0.3l-0.1-0.3l-0.1-0.4l-0.1-0.4L84.1,144.1L84.1,144.1L84.1,144.1z M89.6,138.6v5l0,0l0,0l0,0l0,0l0,0
				l0,0l0,0l0,0l0,0l0,0l0,0l0,0l0,0l0,0l0,0l0,0l0,0l0,0l0,0l0,0l0,0l0,0l0,0l0,0l0,0l0,0l0,0l0,0l0,0l0,0l0,0l0,0l0,0h-4.8v-0.3
				V143v-0.3l0.1-0.3l0.1-0.3l0.1-0.3l0.1-0.3l0.1-0.3l0.1-0.2l0.1-0.2l0.1-0.2l0.1-0.2l0.2-0.2l0.2-0.2l0.2-0.2l0.2-0.2L86,140
				l0.2-0.2l0.2-0.2l0.2-0.1l0.2-0.1l0.2-0.1l0.2-0.1l0.2-0.1l0.2-0.1l0.2-0.1l0.3-0.1l0.3-0.1h0.3H89h0.3L89.6,138.6L89.6,138.6
				L89.6,138.6z M88.7,140.5l4.4,2l-3.3,1.3l0,0l0,0l0,0l0,0l0,0l0,0l0,0l0,0l0,0l0,0l0,0l0,0l0,0l0,0l0,0l0,0l0,0l0,0l0,0l0,0l0,0
				l0,0l0,0l0,0l0,0l0,0l0,0l0,0l0,0l0,0l0,0l0,0v-5h0.1H90h0.1h0.1h0.1h0.1h0.1h0.1h0.1h0.1h0.1H91h0.1h0.1h0.1h0.1h0.1h0.1h0.1
				h0.1h0.1H92h0.1h0.1h0.1h0.1h0.1h0.1h0.1h0.1h0.1H93L88.7,140.5L88.7,140.5z M89.8,143.7l2.2-4.5l0.1,0.1l0.1,0.1l0.1,0.1
				l0.1,0.1l0.1,0.1l0.1,0.1l0.1,0.1l0.1,0.1l0.1,0.1l0.1,0.1l0.1,0.1l0.1,0.1l0.1,0.1v0.1v0.1v0.1v0.1v0.1v0.1v0.1v0.1v0.1v0.1v0.1
				v0.1v0.1v0.1v0.1v0.1v0.1v0.1l-0.1,0.1l-0.1,0.1l-0.1,0.1l-0.1,0.1l-0.1,0.1l-0.1,0.1l-0.1,0.1l-0.1,0.1l-0.1,0.1l-0.1,0.1
				l-0.1,0.1l-0.1,0.1l-0.1,0.1l-0.1,0.1h-0.1h-0.1h-0.1h-0.1h-0.1h-0.1h-0.1h-0.1H91h-0.1h-0.1h-0.1h-0.1h-0.1h-0.1h-0.1h-0.1h-0.1
				L89.8,143.7L89.8,143.7z M93.8,137.1v5l0,0l0,0l0,0l0,0l0,0l0,0l0,0l0,0l0,0l0,0l0,0l0,0l0,0l0,0l0,0l0,0l0,0l0,0l0,0l0,0l0,0
				l0,0l0,0l0,0l0,0l0,0l0,0l0,0l0,0l0,0l0,0l0,0l0,0l-4.4-2l0.1-0.2l0.1-0.2l0.1-0.2l0.1-0.2l0.1-0.2l0.1-0.2l0.1-0.2l0.1-0.2
				l0.1-0.2l0.1-0.1l0.1-0.1l0.1-0.1l0.1-0.1l0.2-0.1l0.2-0.1l0.2-0.1l0.2-0.1l0.2-0.1l0.2-0.1l0.2-0.1l0.2-0.1l0.2-0.1l0.2-0.1
				l0.2-0.1l0.2-0.1h0.2h0.2h0.2h0.2h0.2h0.2L93.8,137.1L93.8,137.1L93.8,137.1z M92.9,138.2l3.7,3.2l-2.6,0.8l0,0l0,0l0,0l0,0l0,0
				l0,0l0,0l0,0l0,0l0,0l0,0l0,0l0,0l0,0l0,0l0,0l0,0l0,0l0,0l0,0l0,0l0,0l0,0l0,0l0,0l0,0l0,0l0,0l0,0l0,0l0,0l0,0v-5h0.1h0.1h0.1
				h0.1h0.1h0.1h0.1h0.1h0.1H95h0.1h0.1h0.1h0.1h0.1h0.1h0.1h0.1h0.1H96h0.1h0.1h0.1l0,0h0.1h0.1h0.1l0,0h0.1h0.1h0.1H97L92.9,138.2
				L92.9,138.2z M94,142.2l1.6-4.8h0.1l0.1,0.1l0.1,0.1l0.1,0.1l0.1,0.1l0.1,0.1l0.1,0.1l0.1,0.1l0.1,0.1l0.1,0.1l0.1,0.1l0.1,0.1
				l0.1,0.1l0.1,0.1l0.1,0.1l0.1,0.1v0.1v0.1v0.1v0.1v0.1v0.1v0.1v0.1v0.1v0.1v0.1v0.1v0.1v0.1v0.1v0.1v0.1v0.1l-0.1,0.1l-0.1,0.1
				l-0.1,0.1l-0.1,0.1l-0.1,0.1l-0.1,0.1l-0.1,0.1l-0.1,0.1l-0.1,0.1l-0.1,0.1l-0.1,0.1L96,142l-0.1,0.1l-0.1,0.1h-0.1h-0.1h-0.1
				h-0.1h-0.1h-0.1h-0.1H95h-0.1h-0.1h-0.1h-0.1h-0.1h-0.1h-0.1L94,142.2L94,142.2z M97.2,136.1v5l0,0l0,0l0,0l0,0l0,0l0,0l0,0l0,0
				l0,0l0,0l0,0l0,0l0,0l0,0l0,0l0,0l0,0l0,0l0,0l0,0l0,0l0,0l0,0l0,0l0,0l0,0l0,0l0,0l0,0l0,0l0,0l0,0l0,0l-3.7-3.2l0.1-0.1
				l0.1-0.1l0.1-0.1l0.1-0.1l0.1-0.1l0.1-0.1l0.1-0.1l0.1-0.1l0.1-0.1l0.1-0.1l0.1-0.1l0.1-0.1l0.1-0.1l0.1-0.1l0.1-0.1l0.1-0.1
				l0.1-0.1l0.1-0.1l0.1-0.1l0.1-0.1h0.1h0.1h0.1h0.1h0.2h0.1h0.2h0.2h0.2H97h0.2L97.2,136.1L97.2,136.1L97.2,136.1z M98.2,137.4
				l2.3,4.4l-2.9-0.5l0,0l0,0l0,0l0,0l0,0l0,0l0,0l0,0l0,0l0,0l0,0l0,0l0,0l0,0l0,0l0,0l0,0l0,0l0,0l0,0l0,0l0,0l0,0l0,0l0,0l0,0
				l0,0l0,0l0,0l0,0l0,0l0,0v-5h0.1h0.1h0.1H98h0.1h0.1h0.1h0.1h0.1h0.1h0.1h0.1h0.1l0.1,0.1l0.1,0.1l0.1,0.1l0.1,0.1l0.1,0.1
				l0.1,0.1l0.1,0.1l0.1,0.1l0.1,0.1l0.1,0.1l0.1,0.1l0.1,0.1l0.1,0.1l0.1,0.1l0.1,0.1l0.1,0.1l0.1,0.1l0.1,0.1l0.1,0.1L98.2,137.4
				L98.2,137.4z M97.6,141.4l3.5-3.4l0.1,0.1l0.1,0.1l0.1,0.1l0.1,0.1l0.1,0.1l0.1,0.1v0.1v0.1v0.1v0.1v0.1v0.1v0.1v0.1v0.1v0.1v0.1
				v0.1v0.1v0.1v0.1v0.1v0.1v0.1l-0.1,0.1l-0.1,0.1l-0.1,0.1l-0.1,0.1l-0.1,0.1l-0.1,0.1l-0.1,0.1l-0.1,0.1l-0.1,0.1l-0.1,0.1
				l-0.1,0.1l-0.1,0.1l-0.1,0.1l-0.1,0.1l-0.1,0.1h-0.1H100h-0.1h-0.1h-0.1h-0.1h-0.1h-0.1h-0.1h-0.1h-0.1H99h-0.1h-0.1h-0.1h-0.1
				h-0.1l-0.1-0.1l-0.1-0.1l-0.1-0.1l-0.1-0.1l-0.1-0.1l-0.1-0.1L97.6,141.4L97.6,141.4L97.6,141.4z M100.9,136.7v5l0,0l0,0l0,0l0,0
				l0,0l0,0l0,0l0,0l0,0l0,0l0,0l0,0l0,0l0,0l0,0l0,0l0,0l0,0l0,0l0,0l0,0l0,0l0,0l0,0l0,0l0,0l0,0l0,0l0,0l0,0l0,0l0,0l0,0
				l-2.3-4.4h0.1h0.1h0.1H99h0.1h0.1h0.1h0.1h0.1h0.1h0.1h0.1h0.1h0.1h0.1h0.1h0.1h0.1h0.1h0.1h0.1h0.1h0.1h0.1h0.1h0.1h0.1h0.1h0.1
				h0.1L100.9,136.7L100.9,136.7L100.9,136.7L100.9,136.7z M106.2,141.9l-4.8,0.6l0,0v-0.1v-0.1v-0.1v-0.1V142v-0.1l0,0l0,0l0,0l0,0
				l0,0l0,0l0,0l0,0l0,0l0,0l0,0l0,0l0,0l0,0l0,0l0,0l0,0l0,0l0,0l0,0l0,0l0,0l0,0l0,0l0,0l0,0v-5h0.3h0.3h0.3l0.3,0.1l0.3,0.1
				l0.3,0.1l0.2,0.1l0.2,0.1l0.2,0.1l0.2,0.1l0.2,0.1l0.2,0.1l0.2,0.2l0.2,0.2l0.2,0.2l0.2,0.2l0.2,0.2l0.2,0.2l0.2,0.2l0.1,0.2
				l0.1,0.2l0.1,0.2l0.1,0.2l0.1,0.2l0.1,0.2l0.1,0.2l0.1,0.2l0.1,0.2l0.1,0.2l0.1,0.2v0.2L106.2,141.9L106.2,141.9L106.2,141.9z
				 M101.9,146.4l-0.5-3.8l4.8-0.6l0.5,3.8l0,0L101.9,146.4L101.9,146.4z M101.3,151.5v-5l0,0l0,0l0,0l0,0l0,0l0,0l0,0l0,0l0,0l0,0
				l0,0l0,0l0,0l0,0l0,0l0,0l0,0l0,0l0,0l0,0l0,0l0,0l0,0l0,0l0,0l0,0l0,0l0,0l0,0l0,0l0,0l0,0l0,0l4.8-0.6v0.3v0.3v0.3v0.3
				l-0.1,0.3l-0.1,0.3l-0.1,0.3l-0.1,0.3l-0.1,0.3l-0.1,0.3l-0.1,0.2l-0.2,0.2l-0.2,0.2l-0.2,0.2l-0.2,0.2l-0.2,0.2l-0.2,0.2
				l-0.2,0.2l-0.2,0.2l-0.2,0.1l-0.2,0.1l-0.2,0.1l-0.2,0.1l-0.2,0.1l-0.2,0.1l-0.2,0.1l-0.3,0.1l-0.3,0.1h-0.3h-0.3h-0.3
				L101.3,151.5L101.3,151.5L101.3,151.5z M102.9,150.4l-4-2.8l2.3-1.1l0,0l0,0l0,0l0,0l0,0l0,0l0,0l0,0l0,0l0,0l0,0l0,0l0,0l0,0
				l0,0l0,0l0,0l0,0l0,0l0,0l0,0l0,0l0,0l0,0l0,0l0,0l0,0l0,0l0,0l0,0l0,0l0,0v5l0,0l0,0l0,0l0,0l0,0l0,0l0,0l0,0l0,0l0,0l0,0l0,0
				l0,0l0,0l0,0l0,0l0,0l0,0l0,0h-0.1l0,0l0,0l0,0l0,0l0,0l0,0l0,0l0,0l0,0l0,0l0,0l0,0L102.9,150.4L102.9,150.4z M101.2,146.5
				l-0.6,5h-0.1h-0.1h-0.1h-0.1h-0.1H100l-0.1-0.1l-0.1-0.1l-0.1-0.1l-0.1-0.1l-0.1-0.1l-0.1-0.1l-0.1-0.1l-0.1-0.1l-0.1-0.1
				l-0.1-0.1l-0.1-0.1l-0.1-0.1l-0.1-0.1l-0.1-0.1V150v-0.1v-0.1v-0.1v-0.1v-0.1v-0.1v-0.1v-0.1v-0.1V149v-0.1v-0.1v-0.1v-0.1v-0.1
				v-0.1v-0.1l0.1-0.1l0.1-0.1l0.1-0.1l0.1-0.1l0.1-0.1l0.1-0.1l0.1-0.1l0.1-0.1l0.1-0.1l0.1-0.1l0.1-0.1l0.1-0.1l0.1-0.1l0.1-0.1
				l0.1-0.1h0.1h0.1h0.1h0.1h0.1h0.1h0.1h0.1h0.1h0.1L101.2,146.5L101.2,146.5z M98.4,152.9v-5l0,0l0,0l0,0l0,0l0,0l0,0l0,0l0,0l0,0
				l0,0l0,0l0,0l0,0l0,0l0,0l0,0l0,0l0,0l0,0l0,0l0,0l0,0l0,0l0,0l0,0l0,0l0,0l0,0l0,0l0,0l0,0l0,0l0,0l4,2.8l-0.1,0.1l-0.1,0.1
				l-0.1,0.1l-0.1,0.1l-0.1,0.1l-0.1,0.1l-0.1,0.1l-0.1,0.1l-0.1,0.1l-0.1,0.1l-0.1,0.1l-0.1,0.1l-0.1,0.1l-0.1,0.1l-0.1,0.1
				l-0.1,0.1l-0.1,0.1l-0.2,0.1l-0.2,0.1l-0.2,0.1l-0.2,0.1l-0.2,0.1l-0.2,0.1h-0.2h-0.2h-0.2h-0.2h-0.2h-0.2h-0.2h-0.2L98.4,152.9
				L98.4,152.9L98.4,152.9z M96.8,151.5l-1.6-4.7l2.7,0.8l0,0l0,0l0,0l0,0l0,0l0,0l0,0l0,0l0,0l0,0l0,0l0,0l0,0l0,0l0,0l0,0l0,0l0,0
				l0,0l0,0l0,0l0,0l0,0l0,0l0,0l0,0l0,0l0,0l0,0l0,0l0,0l0,0v5h-0.2h-0.2h-0.2h-0.2h-0.2h-0.2h-0.2h-0.2h-0.1h-0.1H96l-0.1-0.1
				l-0.1-0.1l-0.1-0.1l-0.1-0.1l-0.1-0.1l-0.1-0.1l-0.1-0.1l-0.1-0.1l-0.1-0.1l-0.1-0.1l-0.1-0.1l-0.1-0.1l-0.1-0.1l-0.1-0.1
				l-0.1-0.1l-0.1-0.1l-0.1-0.1l-0.1-0.1l-0.1-0.1l-0.1-0.1l-0.1-0.1L96.8,151.5L96.8,151.5z M97.9,147.6l-3.8,3.1l-0.1-0.1
				l-0.1-0.1l-0.1-0.1l-0.1-0.1l-0.1-0.1v-0.1V150v-0.1v-0.1v-0.1v-0.1v-0.1v-0.1v-0.1v-0.1v-0.1V149v-0.1v-0.1v-0.1v-0.1v-0.1v-0.1
				l0.1-0.1l0.1-0.1l0.1-0.1L94,148l0.1-0.1l0.1-0.1l0.1-0.1l0.1-0.1l0.1-0.1l0.1-0.1l0.1-0.1l0.1-0.1l0.1-0.1L95,147h0.1h0.1h0.1
				h0.1h0.1h0.1h0.1h0.1h0.1H96h0.1h0.1h0.1h0.1h0.1h0.1h0.1l0.1,0.1l0.1,0.1l0.1,0.1l0.1,0.1l0.1,0.1l0.1,0.1l0.1,0.1l0.1,0.1
				l0.1,0.1L97.9,147.6L97.9,147.6z M94.9,151.9v-5l0,0l0,0l0,0l0,0l0,0l0,0l0,0l0,0l0,0l0,0l0,0l0,0l0,0l0,0l0,0l0,0l0,0l0,0l0,0
				l0,0l0,0l0,0l0,0l0,0l0,0l0,0l0,0l0,0l0,0l0,0l0,0l0,0l0,0l1.6,4.7h-0.1h-0.1h-0.1h-0.1H96h-0.1h-0.1h-0.1h-0.1h-0.1h-0.1h-0.1
				h-0.1h-0.1H95h-0.1h-0.1h-0.1h-0.1h-0.1h-0.1h-0.1h-0.1h-0.1H94h-0.1h-0.1h-0.1h-0.1h-0.1L94.9,151.9L94.9,151.9L94.9,151.9
				L94.9,151.9z M94.6,150.8l-2.9-4l2.8-0.1l0,0l0,0l0,0l0,0l0,0l0,0l0,0l0,0l0,0l0,0l0,0l0,0l0,0l0,0l0,0l0,0l0,0l0,0l0,0l0,0l0,0
				l0,0l0,0l0,0l0,0l0,0l0,0l0,0l0,0l0,0l0,0l0,0v5h-0.1h-0.1h-0.1h-0.1H94h-0.1h-0.1h-0.1h-0.1h-0.1h-0.1h-0.1h-0.1h-0.1H93h-0.1
				h-0.1h-0.1h-0.1h-0.1h-0.1h-0.1h-0.1h-0.1H92h-0.1l-0.1-0.1l-0.1-0.1l-0.1-0.1L92,151l-0.1-0.1l-0.1-0.1L94.6,150.8L94.6,150.8z
				 M94.6,146.7l-2.7,4.1l-0.1-0.1l-0.1-0.1l-0.1-0.1l-0.1-0.1l-0.1-0.1l-0.1-0.1l-0.1-0.1l-0.1-0.1l-0.1-0.1l-0.1-0.1v-0.1v-0.1
				v-0.1v-0.1v-0.1v-0.1v-0.1V149v-0.1v-0.1v-0.1v-0.1v-0.1v-0.1v-0.1v-0.1v-0.1V148v-0.1l0.1-0.1l0.1-0.1l0.1-0.1l0.1-0.1l0.1-0.1
				l0.1-0.1l0.1-0.1l0.1-0.1l0.1-0.1l0.1-0.1l0.1-0.1l0.1-0.1l0.1-0.1l0.1-0.1h0.1h0.1h0.1h0.1h0.1h0.1H93h0.1h0.1h0.1h0.1h0.1h0.1
				h0.1h0.1h0.1H94l0.1,0.1l0.1,0.1l0.1,0.1L94.6,146.7z"/>
			<path fill="#FFFFFF" d="M93.2,148.8c-0.5,0.4-1.2,0.7-1.9,0.7c-1.9,0-4.7-3.8-4.7-5.4c0-1.6,1.4-3,3-3c0.5,0,1,0.1,1.4,0.4
				c0.4-1.1,1.5-1.9,2.8-1.9c0.4,0,0.7,0.1,1,0.2c0.6-0.7,1.4-1.2,2.4-1.2c0.9,0,1.7,0.4,2.2,1c0.5-0.3,1-0.4,1.5-0.4
				c1.7,0,2.8,1.4,3,3l0.5,3.8c0.2,1.6-1.4,3-3,3c-0.1,0-0.2,0-0.4,0c-0.5,0.8-1.5,1.4-2.5,1.4s-1.8-0.5-2.4-1.2
				c-0.3,0.1-0.7,0.2-1.1,0.2C94.3,149.4,93.7,149.2,93.2,148.8z"/>
		</g>
		<g>
			<path fill="#4D4D4D" d="M113.6,145.8h-4l0,0l0,0l0,0l0,0l0,0l0,0l0,0l0,0l0,0l0,0l0,0l0,0l0,0l0,0l0,0l0,0l0,0l0,0l0,0l0,0l0,0
				l0,0l0,0l0,0l0,0l0,0l0,0l0,0l0,0l0,0l0,0l0,0l0,0V142h0.2h0.2h0.2h0.2l0.2,0.1l0.2,0.1l0.2,0.1l0.2,0.1l0.2,0.1l0.2,0.1l0.2,0.1
				l0.2,0.1l0.2,0.1l0.2,0.1l0.2,0.1l0.1,0.1l0.1,0.2l0.1,0.2l0.1,0.2l0.1,0.2l0.1,0.2l0.1,0.2l0.1,0.2l0.1,0.2l0.1,0.2l0.1,0.2
				l0.1,0.2v0.2v0.2v0.2v0.2L113.6,145.8L113.6,145.8L113.6,145.8z M109.3,150v-3.8l0,0l0,0l0,0l0,0l0,0l0,0l0,0l0,0l0,0l0,0l0,0
				l0,0l0,0l0,0l0,0l0,0l0,0l0,0l0,0l0,0l0,0l0,0l0,0l0,0l0,0l0,0l0,0l0,0l0,0l0,0l0,0l0,0l0,0h4v0.2v0.2v0.2v0.2v0.2l-0.1,0.2
				l-0.1,0.2l-0.1,0.2l-0.1,0.2l-0.1,0.2l0.2-0.2l-0.1,0.2l-0.1,0.2l-0.1,0.2l-0.1,0.2l-0.1,0.2l-0.1,0.1l-0.2,0.1l-0.2,0.1
				l-0.2,0.1l-0.2,0.1l-0.2,0.1l-0.2,0.1l-0.2,0.1l-0.2,0.1l-0.2,0.1l-0.2,0.1l-0.2,0.1H110h-0.2h-0.2L109.3,150L109.3,150
				L109.3,150z M104.9,145.8h4l0,0l0,0l0,0l0,0l0,0l0,0l0,0l0,0l0,0l0,0l0,0l0,0l0,0l0,0l0,0l0,0l0,0l0,0l0,0l0,0l0,0l0,0l0,0l0,0
				l0,0l0,0l0,0l0,0l0,0l0,0l0,0l0,0l0,0v3.8h-0.2h-0.2h-0.2h-0.2l-0.2-0.1l-0.2-0.1l-0.2-0.1l-0.2-0.1l-0.2-0.1l-0.2-0.1l-0.2-0.1
				l-0.2-0.1l-0.2-0.1l-0.2-0.1l-0.2-0.1l-0.1-0.1l-0.1-0.2l-0.1-0.2l-0.1-0.2l-0.1-0.2l-0.1-0.2l-0.1-0.2l-0.1-0.2l-0.1-0.2
				l-0.1-0.2l-0.1-0.2l-0.1-0.2V146v-0.2v-0.2v-0.2L104.9,145.8L104.9,145.8L104.9,145.8z M109.3,141.6v3.8l0,0l0,0l0,0l0,0l0,0l0,0
				l0,0l0,0l0,0l0,0l0,0l0,0l0,0l0,0l0,0l0,0l0,0l0,0l0,0l0,0l0,0l0,0l0,0l0,0l0,0l0,0l0,0l0,0l0,0l0,0l0,0l0,0l0,0h-4v-0.2V145
				v-0.2v-0.2v-0.2l0.1-0.2l0.1-0.2l0.1-0.2l0.1-0.2l0.1-0.2l0.1-0.2l0.1-0.2l0.1-0.2l0.1-0.2l0.1-0.2l0.1-0.2l0.1-0.1l0.2-0.1
				l0.2-0.1l0.2-0.1l0.2-0.1l0.2-0.1l0.2-0.1l0.2-0.1l0.2-0.1l0.2-0.1l0.2-0.1l0.2-0.1h0.2h0.2h0.2L109.3,141.6L109.3,141.6z"/>
			<circle fill="#FFFFFF" cx="109.3" cy="145.8" r="2.3"/>
		</g>
	</g>
</g>
<g id="Layer_2">
	<g>
		<path fill="#E74C3C" d="M156.5,89c5.1-8.5,13.2-20.7,23.4-32.4l0,0c8.6-9.9,25.5-22.7,25.5-22.7c2.5-1.9,2.3-4.6-0.6-5.9
			l-20.4-9.5c-2.9-1.4-6.8-0.4-8.7,2.2c0,0-15.1,21.7-32.9,67.8c-55-24.9-107.2,10-107.2,70.5c0,63.3,48.7,159.4,114.5,130.4
			c69.3,30,114.5-67.1,114.5-130.4C264.5,97.9,217.5,62.1,156.5,89z"/>
		<path fill="#2ECC71" d="M144.2,68.5c3.2-0.3,6-3.1,6.2-6.3c0,0,2-24.7-15.2-42C117.9,3,93.2,5.1,93.2,5.1c-3.2,0.3-6,3.1-6.2,6.3
			c0,0-2.1,24.8,15.2,42C119.4,70.6,144.2,68.5,144.2,68.5z"/>
		<g>
			<path fill="#C0392B" d="M156.5,89c5.1-8.5,13.2-20.7,23.4-32.4l0,0c8.6-9.9,25.5-22.7,25.5-22.7c2.5-1.9,2.3-4.6-0.6-5.9
				l-20.4-9.5c-2.9-1.4-6.8-0.4-8.7,2.2c0,0-15.1,21.7-32.9,67.8c-55-24.9-58.5,229.9,7.3,200.9c69.3,30,114.5-67.1,114.5-130.4
				C264.5,97.9,217.5,62.1,156.5,89z"/>
			<path fill="#27AE60" d="M144.2,68.5c3.2-0.3,6-3.1,6.2-6.3L93.2,5.1c-3.2,0.3-6,3.1-6.2,6.3c0,0-2.1,24.8,15.2,42
				C119.4,70.6,144.2,68.5,144.2,68.5z"/>
		</g>
	</g>
</g>
</svg>
