<?xml version="1.0" encoding="utf-8"?>
<!-- Generator: Adobe Illustrator 18.1.0, SVG Export Plug-In . SVG Version: 6.00 Build 0)  -->
<!DOCTYPE svg PUBLIC "-//W3C//DTD SVG 1.1//EN" "http://www.w3.org/Graphics/SVG/1.1/DTD/svg11.dtd">
<svg version="1.1" id="Capa_1" xmlns="http://www.w3.org/2000/svg" xmlns:xlink="http://www.w3.org/1999/xlink" x="0px" y="0px"
	 viewBox="0 0 150 150" enable-background="new 0 0 150 150" xml:space="preserve">
<g>
	<g>
		<path fill="#FFFFFF" d="M75,5C36.3,5,5,36.3,5,75s31.3,70,70,70s70-31.3,70-70S113.7,5,75,5z M57.5,108.9H40V47.6h17.5V108.9z
			 M49.3,43.9c-4.5,0-8.2-3.7-8.2-8.2s3.7-8.2,8.2-8.2s8.2,3.7,8.2,8.2S53.8,43.9,49.3,43.9z M118.8,108.9h-17.5V71
			c0-4.4-1.3-7.5-6.7-7.5c-9,0-10.8,7.5-10.8,7.5v37.9H66.3V47.6h17.5v5.9c2.5-1.9,8.8-5.8,17.5-5.8c5.7,0,17.5,3.4,17.5,23.9V108.9
			z"/>
	</g>
</g>
</svg>
