<?xml version="1.0" encoding="utf-8"?>
<!-- Generator: Adobe Illustrator 18.1.0, SVG Export Plug-In . SVG Version: 6.00 Build 0)  -->
<!DOCTYPE svg PUBLIC "-//W3C//DTD SVG 1.1//EN" "http://www.w3.org/Graphics/SVG/1.1/DTD/svg11.dtd" [
	<!ENTITY ns_extend "http://ns.adobe.com/Extensibility/1.0/">
	<!ENTITY ns_ai "http://ns.adobe.com/AdobeIllustrator/10.0/">
	<!ENTITY ns_graphs "http://ns.adobe.com/Graphs/1.0/">
	<!ENTITY ns_vars "http://ns.adobe.com/Variables/1.0/">
	<!ENTITY ns_imrep "http://ns.adobe.com/ImageReplacement/1.0/">
	<!ENTITY ns_sfw "http://ns.adobe.com/SaveForWeb/1.0/">
	<!ENTITY ns_custom "http://ns.adobe.com/GenericCustomNamespace/1.0/">
	<!ENTITY ns_adobe_xpath "http://ns.adobe.com/XPath/1.0/">
]>
<svg version="1.1" id="Layer_1" xmlns:x="&ns_extend;" xmlns:i="&ns_ai;" xmlns:graph="&ns_graphs;"
	 xmlns="http://www.w3.org/2000/svg" xmlns:xlink="http://www.w3.org/1999/xlink" x="0px" y="0px" viewBox="0 0 526.6 167"
	 style="enable-background:new 0 0 526.6 167;" xml:space="preserve">
<metadata>
	<sfw  xmlns="&ns_sfw;">
		<slices></slices>
		<sliceSourceBounds  height="166.7" width="526.3" y="-166.4" x="0" bottomLeftOrigin="true"></sliceSourceBounds>
	</sfw>
</metadata>
<g>
	<path style="fill:#9A3CBB;" d="M89.5,5.4c3.7-0.1,6.1,1.3,7.5,4.1c0.2,0.4,0.3,0.8,0.4,1.2c0.1,0.4,0.2,0.9,0.3,1.3
		c0,0.2,0.1,0.4,0,0.7c-0.1,0.3-0.1,0.4-0.1,0.6c-0.1,0.1-0.2,0.2-0.4,0.3c-0.2,0-0.4,0.1-0.6,0.1h-1.8c-0.2,0-0.3,0-0.5,0
		c-0.2,0-0.3,0-0.4-0.1c-0.2-0.1-0.4-0.3-0.4-0.6c-0.1-0.3-0.1-0.5-0.2-0.8c-0.1-0.2-0.2-0.5-0.3-0.8c-0.1-0.3-0.3-0.5-0.4-0.6
		c-0.3-0.2-0.5-0.4-0.8-0.6C91.6,10,91.3,9.9,91,9.8c-0.3-0.1-0.7-0.1-1-0.2c-0.4,0-0.7,0-1,0c-0.3,0-0.6,0.1-0.9,0.3
		c-0.4,0.2-0.8,0.5-1,0.8c-0.2,0.3-0.4,0.8-0.5,1.5c0,0.2,0,0.4,0,0.6c0,0.2,0,0.4,0.1,0.5c0.2,0.5,0.4,0.9,0.6,1.1
		c0.3,0.2,0.6,0.4,1,0.6c0.2,0.1,0.4,0.2,0.6,0.3c0.2,0.1,0.4,0.1,0.7,0.2c0.5,0.2,1,0.4,1.6,0.6c0.6,0.2,1.1,0.3,1.6,0.5
		c0.1,0,0.2,0.1,0.3,0.1c0.1,0,0.2,0,0.3,0.1c0.4,0.2,0.8,0.3,1.2,0.5c0.4,0.1,0.8,0.3,1.1,0.6c0.5,0.4,1,0.8,1.3,1.2
		c0.4,0.4,0.7,0.9,1,1.6c0.1,0.2,0.2,0.4,0.2,0.6c0.1,0.2,0.1,0.5,0.2,0.7c0,0.1,0,0.1,0,0.2c0,0.1,0,0.1,0,0.2
		c0.1,0.4,0.1,0.9,0.1,1.4c0,0.1,0,0.2,0,0.4v0.6c0,0.3-0.1,0.5-0.1,0.8c0,0.3-0.1,0.5-0.1,0.7c-0.1,0.4-0.2,0.8-0.4,1.2
		c-0.1,0.4-0.3,0.7-0.5,1c-0.1,0.1-0.2,0.2-0.2,0.3c-0.1,0.1-0.1,0.2-0.2,0.3s-0.2,0.3-0.3,0.4c-0.1,0.1-0.2,0.3-0.4,0.4
		c-0.1,0.1-0.2,0.2-0.3,0.3c-0.1,0.1-0.2,0.2-0.3,0.3c-0.3,0.3-0.7,0.5-1,0.6s-0.7,0.3-1.1,0.5c-0.3,0.1-0.5,0.2-0.8,0.2
		c-0.3,0-0.6,0.1-0.9,0.2c-0.1,0-0.3,0.1-0.4,0.1s-0.2,0-0.4,0.1h-0.2c0,0-0.1,0-0.2,0s-0.1,0-0.2,0c-0.1,0-0.3,0-0.5,0
		c-0.2,0-0.4,0-0.5,0h-0.3c-0.1,0-0.3-0.1-0.4-0.1s-0.3,0-0.4-0.1c-0.1,0-0.2,0-0.3,0c-0.1,0-0.2,0-0.3-0.1
		c-0.2-0.1-0.5-0.1-0.7-0.2c-0.2-0.1-0.5-0.1-0.7-0.2c-0.9-0.4-1.7-0.9-2.4-1.5c-0.7-0.6-1.3-1.4-1.8-2.3c-0.3-0.6-0.5-1.3-0.7-2.1
		c0-0.1-0.1-0.3-0.1-0.4c0-0.1,0-0.3-0.1-0.5c0-0.2-0.1-0.4-0.1-0.7c0-0.3,0-0.5,0.1-0.6c0.1-0.2,0.2-0.3,0.4-0.3
		c0.2,0,0.4-0.1,0.6-0.1h1.8c0.2,0,0.3,0,0.5,0c0.2,0,0.3,0,0.5,0.1c0.2,0.1,0.3,0.3,0.4,0.6c0,0.3,0.1,0.6,0.2,0.8
		c0.1,0.3,0.2,0.6,0.3,0.8c0.1,0.2,0.2,0.5,0.4,0.7c0.1,0.1,0.2,0.3,0.3,0.4c0.1,0.1,0.2,0.2,0.3,0.3c0.4,0.3,0.9,0.6,1.5,0.8
		c0.1,0,0.3,0.1,0.4,0.1c0.1,0,0.3,0,0.4,0.1h0.1c0.2,0,0.4,0.1,0.6,0.1c0.3,0,0.5,0,0.6-0.1c0.1,0,0.2,0,0.3,0c0.1,0,0.2,0,0.3-0.1
		c0.1,0,0.2,0,0.3-0.1c0.6-0.2,1.2-0.5,1.5-0.9c0.3-0.4,0.6-1,0.8-1.8c0-0.2,0-0.4,0-0.6c0-0.2-0.1-0.4-0.1-0.5
		c-0.2-0.6-0.5-1.2-1-1.5c-0.1,0-0.2-0.1-0.3-0.2c-0.3-0.2-0.6-0.4-1-0.5s-0.7-0.3-1-0.4c-0.1,0-0.3-0.1-0.4-0.1
		c-0.1,0-0.3-0.1-0.4-0.1c-0.3-0.1-0.6-0.2-0.9-0.3c-0.3-0.1-0.6-0.2-0.9-0.3c-0.1,0-0.2-0.1-0.2-0.1c-0.1,0-0.1,0-0.2-0.1
		c-0.2,0-0.3-0.1-0.4-0.1c-0.1,0-0.3-0.1-0.4-0.1c-0.4-0.2-0.9-0.4-1.3-0.6s-0.8-0.4-1.1-0.7c-0.4-0.4-0.8-0.8-1.2-1.3
		c-0.4-0.5-0.6-1-0.9-1.7c-0.1-0.2-0.1-0.4-0.2-0.7c0-0.2-0.1-0.5-0.1-0.7c0-0.2-0.1-0.5-0.1-0.9c0-0.4,0-0.7,0-1c0-0.1,0-0.2,0-0.4
		c0.1-0.3,0.1-0.5,0.1-0.8c0-0.2,0.1-0.5,0.2-0.7c0.3-0.8,0.6-1.6,1.1-2.1c0.4-0.6,1-1.1,1.6-1.6C85.2,6.4,85.6,6.2,86,6
		c0.4-0.2,0.9-0.3,1.4-0.5c0.2,0,0.4-0.1,0.6-0.1c0.2,0,0.4,0,0.6-0.1c0.1,0,0.1,0,0.3,0C89.4,5.5,89.5,5.5,89.5,5.4z"/>
	<path style="fill:#9A3CBB;" d="M101.9,5.9h10.5h2.5c0.2,0,0.4,0,0.7,0c0.2,0,0.4,0.1,0.5,0.3c0,0.1,0.1,0.2,0.1,0.3s0,0.2,0.1,0.3
		v0.4c0,0.2,0,0.3,0,0.5c0,0.2,0,0.4,0,0.5c0,0.2,0,0.4,0,0.6s0,0.4,0,0.5s0,0.3,0,0.5c-0.1,0.3-0.2,0.5-0.3,0.6
		c-0.1,0.1-0.3,0.1-0.4,0.1s-0.4,0-0.5,0h-2H108c-0.2,0-0.3,0-0.5,0c-0.2,0-0.4,0-0.6,0c-0.2,0-0.4,0-0.6,0.1
		c-0.2,0-0.3,0.1-0.4,0.2s-0.2,0.3-0.2,0.5c0,0.2,0,0.5,0,0.8v2.1v1c0,0.2,0.1,0.4,0.1,0.5c0,0.1,0.1,0.2,0.2,0.3
		c0.1,0.1,0.2,0.2,0.4,0.2c0.2,0,0.3,0,0.5,0h1.5h4.9c0.1,0,0.3,0,0.5,0c0.2,0,0.4,0,0.6,0c0.2,0,0.4,0,0.5,0.1
		c0.2,0,0.3,0.1,0.4,0.1c0.1,0.1,0.2,0.2,0.2,0.4s0.1,0.5,0.1,0.7s0,0.5,0,0.8c0,0.3,0,0.5,0,0.7s0,0.3,0,0.5c0,0.2,0,0.3-0.1,0.4
		c0,0.2-0.1,0.3-0.2,0.5c-0.1,0.1-0.2,0.1-0.4,0.1c-0.2,0-0.3,0-0.5,0c-0.2,0-0.4,0-0.6,0c-0.2,0-0.4,0-0.5,0h-5.5
		c-0.2,0-0.4,0-0.7,0c-0.2,0-0.4,0-0.6,0c-0.2,0-0.3,0.1-0.5,0.2c-0.1,0.1-0.2,0.3-0.3,0.5c0,0.1,0,0.2,0,0.4c0,0.1,0,0.3,0,0.4v1.4
		v2c0,0.3,0,0.5,0,0.8c0,0.2,0.1,0.4,0.2,0.5s0.1,0.1,0.2,0.1c0.1,0,0.2,0,0.3,0.1h0.3c0.1,0,0.2,0,0.3,0c0.1,0,0.2,0,0.3,0h1.2h5.3
		h1.5c0.2,0,0.3,0,0.4,0c0.1,0,0.3,0,0.4,0.1c0.2,0.1,0.3,0.2,0.3,0.4c0,0.1,0.1,0.3,0.1,0.4c0,0.2,0,0.3,0,0.5v1.7
		c0,0.3,0,0.6,0,0.8s-0.1,0.4-0.3,0.6c-0.1,0.1-0.3,0.2-0.4,0.2c-0.2,0-0.4,0-0.6,0H113h-8.3h-2.2c-0.3,0-0.5,0-0.7-0.1
		c-0.2-0.1-0.3-0.1-0.4-0.3c-0.1-0.1-0.1-0.3-0.1-0.6c0-0.2,0-0.5,0-0.7v-2.6v-9.7V9.7V7.5c0-0.2,0-0.4,0-0.6c0-0.2,0-0.4,0.1-0.5
		C101.5,6.2,101.6,6.1,101.9,5.9L101.9,5.9C101.8,5.9,101.8,5.9,101.9,5.9z"/>
	<path style="fill:#9A3CBB;" d="M120.3,5.9h3.7c0.3,0,0.6,0,0.9,0s0.6,0.1,0.7,0.3c0.1,0.1,0.2,0.3,0.3,0.5c0.1,0.2,0.1,0.4,0.2,0.7
		c0.1,0.4,0.2,0.8,0.3,1.2c0.1,0.4,0.2,0.8,0.3,1.2c0.4,1.5,0.8,3,1.2,4.6c0.4,1.6,0.8,3.1,1.3,4.6c0.2,0.5,0.3,1,0.4,1.5
		s0.2,1,0.4,1.5c0,0.1,0.1,0.2,0.1,0.4c0,0.1,0.1,0.2,0.2,0.3c0,0,0.1,0,0.1,0.1s0.1,0,0.1,0c0.2,0,0.3-0.2,0.3-0.4
		c0.1-0.2,0.1-0.5,0.2-0.6c0.2-0.6,0.3-1.1,0.4-1.6s0.3-1.1,0.4-1.6c0.4-1.5,0.8-2.9,1.1-4.4c0.4-1.5,0.8-3,1.1-4.4
		c0.1-0.4,0.2-0.8,0.3-1.1c0.1-0.4,0.2-0.8,0.3-1.1c0.1-0.2,0.1-0.4,0.2-0.6c0.1-0.2,0.2-0.3,0.3-0.5c0.1-0.1,0.3-0.2,0.4-0.2
		c0.2,0,0.4,0,0.6,0h1.9h2c0.2,0,0.3,0,0.5,0s0.3,0,0.4,0.1c0.2,0.1,0.3,0.4,0.3,0.8s0,0.8,0,1.2v5.3v12.9v3.1c0,0.3,0,0.5,0,0.8
		s-0.1,0.4-0.2,0.6c-0.1,0.2-0.3,0.2-0.4,0.2s-0.4,0-0.6,0h-1.4h-0.8c-0.2,0-0.3-0.1-0.4-0.1s-0.2-0.1-0.3-0.3
		c-0.1-0.1-0.1-0.3-0.1-0.5s0-0.4,0-0.6V28v-9.2c0-0.3,0-0.7,0-1c0-0.3,0-0.6,0-0.9c0-0.2,0-0.4,0-0.6s0-0.4,0-0.6
		c0-0.2-0.1-0.3-0.1-0.5s-0.1-0.3-0.2-0.4c-0.1,0-0.1,0-0.1,0l-0.1,0.1c-0.1,0.1-0.1,0.2-0.2,0.3c0,0.1-0.1,0.3-0.1,0.4
		c-0.1,0.4-0.2,0.7-0.3,1.1c-0.1,0.4-0.2,0.8-0.3,1.2c0,0.1-0.1,0.3-0.1,0.4s-0.1,0.3-0.1,0.4c-0.1,0.3-0.2,0.6-0.3,0.9
		c-0.1,0.3-0.2,0.6-0.3,0.9c0,0.1-0.1,0.2-0.1,0.2s0,0.2-0.1,0.2c-0.1,0.2-0.1,0.4-0.2,0.7c0,0.2-0.1,0.5-0.2,0.7
		c-0.1,0.2-0.1,0.4-0.2,0.7s-0.1,0.5-0.2,0.7c-0.2,0.7-0.4,1.4-0.6,2.1c-0.2,0.7-0.4,1.4-0.6,2.1c0,0.1-0.1,0.1-0.1,0.2
		s0,0.1-0.1,0.2c-0.1,0.3-0.2,0.5-0.2,0.8c-0.1,0.3-0.1,0.5-0.2,0.8c-0.1,0.2-0.1,0.3-0.2,0.5c0,0.1-0.1,0.3-0.2,0.4
		c-0.1,0.1-0.2,0.2-0.3,0.2c-0.1,0-0.2,0-0.3,0.1h-0.7c-0.1,0-0.3,0-0.5,0c-0.2,0-0.4,0-0.5,0c-0.2,0-0.3,0-0.5,0
		c-0.2,0-0.3-0.1-0.3-0.1c-0.2-0.1-0.3-0.3-0.3-0.4s-0.1-0.3-0.2-0.6c-0.1-0.3-0.2-0.6-0.2-0.9c-0.1-0.3-0.1-0.6-0.2-0.9l-0.1-0.3
		c-0.1-0.3-0.2-0.6-0.3-0.9c-0.1-0.3-0.2-0.6-0.3-0.9c0-0.1,0-0.1,0-0.2c0-0.1,0-0.1,0-0.2c-0.1-0.2-0.2-0.4-0.2-0.7
		c-0.1-0.2-0.1-0.5-0.2-0.7c0,0,0-0.1,0-0.2c0-0.1,0-0.1,0-0.2c-0.1-0.2-0.1-0.5-0.2-0.7c0-0.2-0.1-0.5-0.2-0.7
		c-0.2-0.5-0.3-1-0.4-1.5c-0.1-0.5-0.3-1-0.4-1.5c-0.2-0.6-0.3-1.2-0.5-1.8c-0.2-0.6-0.3-1.2-0.5-1.8c-0.1-0.3-0.2-0.6-0.3-0.8
		l-0.1-0.1h-0.1c-0.1,0.1-0.1,0.2-0.1,0.4c0,0.2,0,0.3-0.1,0.5c0,0.2-0.1,0.3,0,0.5c0,0.2,0,0.4,0,0.6c0,0.3,0,0.5,0,0.8
		c0,0.3,0,0.5,0,0.8v9.5v1.8c0,0.2,0,0.4,0,0.6c0,0.2,0,0.3-0.1,0.5c-0.1,0.2-0.2,0.3-0.4,0.3c-0.1,0-0.3,0.1-0.4,0.1
		c-0.2,0-0.3,0-0.5,0h-1.5c-0.2,0-0.4,0-0.6,0c-0.2,0-0.3-0.1-0.4-0.2c-0.1-0.1-0.2-0.3-0.2-0.6s0-0.5,0-0.8v-3.2V13.4v-5
		c0-0.1,0-0.3,0-0.5c0-0.2,0-0.4,0-0.6c0-0.2,0-0.4,0-0.6c0-0.2,0-0.3,0.1-0.4c0.1-0.2,0.2-0.3,0.5-0.4H120.3
		C120.2,5.9,120.3,5.9,120.3,5.9z"/>
	<path style="fill:#9A3CBB;" d="M162,29.6c0,0.1,0.1,0.2,0.1,0.4c0,0.1,0.1,0.3,0.1,0.5s0,0.3,0,0.5c0,0.1-0.1,0.3-0.2,0.3
		c-0.2,0.1-0.4,0.2-0.8,0.1c-0.4,0-0.6,0-0.9,0h-1.2c-0.2,0-0.3,0-0.4,0s-0.2,0-0.4-0.1c-0.2-0.1-0.4-0.2-0.5-0.4
		c-0.1-0.2-0.2-0.4-0.2-0.6s-0.1-0.4-0.2-0.6c-0.1-0.4-0.2-0.8-0.3-1.2c-0.1-0.4-0.2-0.8-0.3-1.1c-0.1-0.2-0.1-0.4-0.2-0.6
		c-0.1-0.2-0.1-0.3-0.2-0.5c-0.1-0.1-0.1-0.3-0.3-0.4c-0.1-0.1-0.3-0.2-0.5-0.2c-0.1,0-0.2,0-0.3,0c-0.1,0-0.2,0-0.3,0h-4.5
		c-0.3,0-0.7,0-1,0c-0.4,0-0.7,0.1-0.9,0.3c-0.2,0.1-0.3,0.3-0.3,0.6c-0.1,0.2-0.1,0.5-0.2,0.7c-0.2,0.4-0.3,0.8-0.4,1.3
		c-0.1,0.4-0.2,0.9-0.4,1.3c-0.1,0.2-0.1,0.5-0.2,0.8c-0.1,0.3-0.2,0.5-0.3,0.6c-0.1,0.1-0.2,0.2-0.4,0.2c-0.2,0-0.4,0.1-0.6,0.1
		c-0.2,0-0.4,0-0.7,0c-0.2,0-0.4,0-0.6,0s-0.5,0-0.9,0c-0.4,0-0.6,0-0.8-0.2c-0.1-0.1-0.1-0.2-0.2-0.3c0-0.1,0-0.3,0-0.5
		s0.1-0.3,0.1-0.5c0-0.1,0.1-0.3,0.1-0.4c0.2-0.6,0.4-1.1,0.5-1.7c0.2-0.6,0.3-1.1,0.5-1.7c0.1-0.2,0.1-0.4,0.2-0.6s0.1-0.4,0.2-0.6
		c0.2-0.5,0.3-1,0.5-1.5c0.2-0.5,0.3-1,0.5-1.5c0.2-0.5,0.3-1,0.4-1.4c0.1-0.5,0.3-0.9,0.4-1.4c0.4-1.3,0.8-2.7,1.2-4
		c0.4-1.3,0.8-2.7,1.2-4c0-0.1,0.1-0.2,0.1-0.3c0-0.1,0-0.2,0.1-0.3c0.2-0.5,0.3-1,0.5-1.5s0.3-1,0.5-1.5c0.1-0.3,0.2-0.5,0.2-0.8
		c0.1-0.3,0.2-0.5,0.4-0.7c0.1-0.1,0.2-0.1,0.4-0.2h0.1h0.1h2.5c0.2,0,0.4,0,0.6,0c0.2,0,0.4,0,0.5,0.2c0.2,0.1,0.3,0.4,0.4,0.6
		c0.1,0.3,0.1,0.6,0.2,0.8c0.1,0.4,0.3,0.8,0.4,1.2c0.1,0.4,0.2,0.8,0.4,1.2c0,0.1,0.1,0.3,0.1,0.4c0,0.1,0.1,0.3,0.1,0.4
		c0.2,0.5,0.3,1,0.4,1.4c0.1,0.5,0.3,0.9,0.4,1.4c0.4,1.2,0.7,2.4,1.1,3.6c0.3,1.2,0.7,2.4,1.1,3.6c0,0.1,0.1,0.2,0.1,0.3
		s0,0.2,0.1,0.3c0.1,0.4,0.2,0.8,0.3,1.2c0.1,0.4,0.2,0.8,0.3,1.2c0.1,0.2,0.1,0.4,0.2,0.6c0.1,0.2,0.1,0.4,0.1,0.6
		c0.2,0.8,0.5,1.5,0.7,2.3c0.2,0.8,0.4,1.5,0.7,2.3c0,0.1,0.1,0.1,0.1,0.2S162,29.5,162,29.6z M154.7,21.5c0.2-0.1,0.4-0.3,0.3-0.6
		c0-0.3-0.1-0.6-0.2-0.8c0-0.1-0.1-0.2-0.1-0.3s0-0.2-0.1-0.3c-0.2-0.8-0.5-1.6-0.7-2.5c-0.2-0.8-0.4-1.7-0.7-2.5
		c0-0.1-0.1-0.3-0.1-0.5c0-0.2-0.1-0.3-0.1-0.5c-0.1-0.2-0.1-0.3-0.2-0.4s-0.2-0.2-0.3-0.2l-0.1,0.1l-0.1,0.1
		c-0.2,0.2-0.3,0.5-0.3,0.9c0,0.4-0.1,0.7-0.2,1c-0.2,0.7-0.4,1.4-0.6,2.1c-0.2,0.7-0.4,1.4-0.6,2.1c-0.1,0.2-0.1,0.5-0.2,0.7
		s-0.1,0.5-0.2,0.7c-0.1,0.2,0,0.4,0,0.6c0.1,0.2,0.3,0.3,0.5,0.3s0.4,0,0.7,0h2.2c0.2,0,0.4,0,0.6,0
		C154.4,21.5,154.6,21.5,154.7,21.5z"/>
	<path style="fill:#9A3CBB;" d="M165.1,5.9h2.3c0.2,0,0.4,0,0.6,0c0.2,0,0.4,0,0.5,0.1c0.2,0.1,0.3,0.2,0.4,0.4
		c0.1,0.2,0.2,0.4,0.3,0.6l1,2.1c0.7,1.4,1.3,2.7,2,4.1s1.3,2.7,2,4.1c0.3,0.6,0.6,1.3,1,2c0.3,0.7,0.6,1.3,1,1.9
		c0.1,0.1,0.1,0.3,0.2,0.4c0.1,0.1,0.2,0.3,0.3,0.4l0.1,0.1c0.1,0,0.1,0,0.2,0s0.2-0.2,0.2-0.3s0-0.3,0.1-0.5c0-0.2,0-0.4,0-0.6
		s0-0.4,0-0.6v-2.3V9.4V8c0-0.1,0-0.2,0-0.4s0-0.2,0-0.3V6.9c0-0.3,0.1-0.6,0.2-0.8c0.1-0.2,0.2-0.3,0.4-0.3c0.2,0,0.3,0,0.6,0h1.7
		c0.2,0,0.3,0,0.5,0c0.2,0,0.3,0,0.4,0.1c0.2,0.1,0.4,0.3,0.4,0.6c0,0.3,0,0.7,0,1.1v4v15v3c0,0.3,0,0.5,0,0.8s0,0.5-0.1,0.6
		s-0.2,0.2-0.3,0.3s-0.2,0.1-0.4,0.1h-1H178c-0.2,0-0.3,0-0.5,0s-0.3,0-0.4-0.1c-0.2-0.1-0.4-0.3-0.5-0.5s-0.2-0.4-0.3-0.7
		c-0.2-0.3-0.3-0.7-0.5-1s-0.3-0.7-0.5-1l-4.3-8.5c-0.3-0.6-0.5-1.1-0.8-1.6c-0.3-0.5-0.5-1-0.8-1.6c-0.1-0.2-0.2-0.4-0.3-0.6
		c-0.1-0.3-0.3-0.4-0.5-0.4c-0.2,0.2-0.2,0.4-0.2,0.6s0,0.5,0,0.8v2.5v8.5v1.4c0,0.1,0,0.2,0,0.4c0,0.1,0,0.2,0,0.4v0.4
		c0,0.4,0,0.7-0.1,0.8c-0.1,0.1-0.2,0.2-0.4,0.3c-0.2,0-0.3,0-0.6,0h-1.7c-0.2,0-0.3,0-0.5,0c-0.2,0-0.3,0-0.4-0.1
		c-0.2-0.1-0.4-0.3-0.4-0.6s0-0.7,0-1.1v-4.1V11.1V7.8c0-0.3,0-0.5,0-0.8s0-0.5,0.1-0.7c0.1-0.2,0.2-0.3,0.4-0.4H165.1
		C165,5.9,165.1,5.9,165.1,5.9z"/>
	<path style="fill:#9A3CBB;" d="M202.3,29.6c0,0.1,0.1,0.2,0.1,0.4c0,0.1,0.1,0.3,0.1,0.5s0,0.3,0,0.5c0,0.1-0.1,0.3-0.2,0.3
		c-0.2,0.1-0.4,0.2-0.8,0.1c-0.4,0-0.6,0-0.9,0h-1.3c-0.2,0-0.3,0-0.4,0s-0.2,0-0.4-0.1c-0.2-0.1-0.4-0.2-0.5-0.4
		c-0.1-0.2-0.2-0.4-0.2-0.6c0-0.2-0.1-0.4-0.2-0.6c-0.1-0.4-0.2-0.8-0.3-1.2c-0.1-0.4-0.2-0.8-0.3-1.1c-0.1-0.2-0.1-0.4-0.2-0.6
		c0-0.2-0.1-0.3-0.2-0.5c-0.1-0.1-0.1-0.3-0.3-0.4c-0.1-0.1-0.3-0.2-0.5-0.2c-0.1,0-0.2,0-0.3,0c-0.1,0-0.2,0-0.3,0h-4.5
		c-0.3,0-0.7,0-1,0c-0.4,0-0.7,0.1-0.9,0.3c-0.2,0.1-0.3,0.3-0.3,0.6c-0.1,0.2-0.1,0.5-0.2,0.7c-0.2,0.4-0.3,0.8-0.4,1.3
		c-0.1,0.5-0.2,0.9-0.4,1.3c-0.1,0.2-0.1,0.5-0.2,0.8c-0.1,0.3-0.2,0.5-0.3,0.6c-0.1,0.1-0.2,0.2-0.4,0.2c-0.2,0-0.4,0.1-0.6,0.1
		c-0.2,0-0.4,0-0.7,0c-0.2,0-0.4,0-0.6,0s-0.5,0-0.9,0c-0.4,0-0.6,0-0.8-0.2c-0.1-0.1-0.1-0.2-0.2-0.3c0-0.1,0-0.3,0-0.5
		s0.1-0.3,0.1-0.5c0-0.1,0.1-0.3,0.1-0.4c0.2-0.6,0.4-1.1,0.5-1.7c0.2-0.6,0.3-1.1,0.5-1.7c0.1-0.2,0.1-0.4,0.2-0.6
		c0-0.2,0.1-0.4,0.2-0.6c0.2-0.5,0.3-1,0.5-1.5c0.2-0.5,0.3-1,0.5-1.5c0.2-0.5,0.3-1,0.4-1.4c0.1-0.5,0.3-0.9,0.4-1.4
		c0.4-1.3,0.8-2.7,1.2-4c0.4-1.3,0.8-2.7,1.2-4c0-0.1,0.1-0.2,0.1-0.3c0-0.1,0-0.2,0.1-0.3c0.2-0.5,0.3-1,0.5-1.5s0.3-1,0.5-1.5
		c0.1-0.3,0.2-0.5,0.2-0.8c0.1-0.3,0.2-0.5,0.4-0.7c0.1-0.1,0.2-0.1,0.4-0.2h0.1h0.1h2.5c0.2,0,0.4,0,0.6,0c0.2,0,0.4,0,0.5,0.2
		c0.2,0.1,0.3,0.4,0.4,0.6c0.1,0.3,0.1,0.6,0.2,0.8c0.1,0.4,0.3,0.8,0.4,1.2c0.1,0.4,0.2,0.8,0.4,1.2c0,0.1,0.1,0.3,0.1,0.4
		c0,0.1,0.1,0.3,0.1,0.4c0.2,0.5,0.3,1,0.4,1.4c0.1,0.5,0.3,0.9,0.4,1.4c0.4,1.2,0.7,2.4,1.1,3.6c0.3,1.2,0.7,2.4,1.1,3.6
		c0,0.1,0.1,0.2,0.1,0.3s0,0.2,0.1,0.3c0.1,0.4,0.2,0.8,0.3,1.2c0.1,0.4,0.2,0.8,0.3,1.2c0.1,0.2,0.1,0.4,0.2,0.6s0.1,0.4,0.1,0.6
		c0.2,0.8,0.5,1.5,0.7,2.3c0.2,0.8,0.4,1.5,0.7,2.3c0,0.1,0.1,0.1,0.1,0.2S202.3,29.5,202.3,29.6z M194.9,21.5
		c0.2-0.1,0.4-0.3,0.3-0.6c0-0.3-0.1-0.6-0.2-0.8c0-0.1-0.1-0.2-0.1-0.3s0-0.2-0.1-0.3c-0.2-0.8-0.5-1.6-0.7-2.5
		c-0.2-0.9-0.4-1.7-0.7-2.5c0-0.1-0.1-0.3-0.1-0.5c0-0.2-0.1-0.3-0.1-0.5c-0.1-0.2-0.1-0.3-0.2-0.4s-0.2-0.2-0.3-0.2l-0.1,0.1
		l-0.1,0.1c-0.2,0.2-0.3,0.5-0.3,0.9c-0.1,0.3-0.1,0.7-0.2,1c-0.2,0.7-0.4,1.4-0.6,2.1c-0.2,0.7-0.4,1.4-0.6,2.1
		c-0.1,0.2-0.1,0.5-0.2,0.7s-0.1,0.5-0.2,0.7s0,0.4,0,0.6c0.1,0.2,0.3,0.3,0.5,0.3c0.2,0,0.4,0,0.7,0h2.2c0.2,0,0.4,0,0.6,0
		S194.8,21.5,194.9,21.5z"/>
	<path style="fill:#9A3CBB;" d="M219,5.4c3.7-0.1,6.1,1.3,7.5,4.1c0.2,0.4,0.3,0.8,0.4,1.2c0.1,0.4,0.2,0.9,0.3,1.3
		c0,0.2,0.1,0.4,0,0.7c0,0.3-0.1,0.4-0.1,0.6c-0.1,0.1-0.2,0.2-0.4,0.3c-0.2,0.1-0.4,0.1-0.6,0.1h-1.8c-0.2,0-0.3,0-0.5,0
		c-0.2,0-0.3,0-0.4-0.1c-0.2-0.1-0.4-0.3-0.4-0.6c-0.1-0.3-0.1-0.5-0.2-0.8c-0.1-0.2-0.2-0.5-0.3-0.8c-0.1-0.3-0.3-0.5-0.4-0.6
		c-0.3-0.2-0.5-0.4-0.8-0.6c-0.2-0.1-0.5-0.2-0.8-0.3c-0.3-0.1-0.7-0.1-1-0.2c-0.4,0-0.7,0-1,0c-0.3,0-0.6,0.1-0.9,0.3
		c-0.4,0.2-0.8,0.5-1,0.8c-0.2,0.3-0.4,0.8-0.5,1.5c0,0.2,0,0.4,0,0.6c0,0.2,0,0.4,0.1,0.5c0.2,0.5,0.4,0.9,0.6,1.1
		c0.3,0.2,0.6,0.4,1,0.6c0.2,0.1,0.4,0.2,0.6,0.3c0.2,0.1,0.4,0.1,0.7,0.2c0.5,0.2,1,0.4,1.6,0.6c0.6,0.2,1.1,0.3,1.6,0.5
		c0.1,0,0.2,0.1,0.3,0.1s0.2,0,0.3,0.1c0.4,0.2,0.8,0.3,1.2,0.5c0.4,0.1,0.8,0.3,1.1,0.6c0.5,0.4,1,0.8,1.3,1.2
		c0.4,0.4,0.7,0.9,1,1.6c0.1,0.2,0.2,0.4,0.2,0.6c0.1,0.2,0.1,0.5,0.2,0.7c0,0.1,0,0.1,0,0.2c0,0.1,0,0.1,0,0.2
		c0.1,0.4,0.1,0.9,0.1,1.4c0,0.1,0,0.2,0,0.4v0.6c0,0.3-0.1,0.5-0.1,0.8c0,0.3-0.1,0.5-0.1,0.7c-0.1,0.4-0.2,0.8-0.4,1.2
		c-0.1,0.4-0.3,0.7-0.5,1c-0.1,0.1-0.2,0.2-0.2,0.3c-0.1,0.1-0.1,0.2-0.2,0.3s-0.2,0.3-0.3,0.4c-0.1,0.1-0.2,0.3-0.4,0.4
		c-0.1,0.1-0.2,0.2-0.3,0.3c-0.1,0.1-0.2,0.2-0.3,0.3c-0.3,0.3-0.7,0.5-1,0.6c-0.3,0.1-0.7,0.3-1.1,0.5c-0.3,0.1-0.5,0.2-0.8,0.2
		c-0.3,0-0.6,0.1-0.9,0.2c-0.1,0-0.3,0.1-0.4,0.1s-0.2,0-0.4,0.1h-0.2c0,0-0.1,0-0.2,0s-0.1,0-0.2,0c-0.1,0-0.3,0-0.5,0
		s-0.4,0-0.5,0h-0.3c-0.1,0-0.3-0.1-0.4-0.1s-0.3,0-0.4-0.1c-0.1,0-0.2,0-0.3,0c-0.1,0-0.2,0-0.3-0.1c-0.2-0.1-0.5-0.1-0.7-0.2
		c-0.2,0-0.5-0.1-0.7-0.2c-0.9-0.4-1.7-0.9-2.4-1.5c-0.7-0.6-1.3-1.4-1.8-2.3c-0.3-0.6-0.5-1.3-0.7-2.1c0-0.1-0.1-0.3-0.1-0.4
		c0-0.1,0-0.3-0.1-0.5c0-0.2-0.1-0.4-0.1-0.7c0-0.3,0-0.5,0.1-0.6c0.1-0.2,0.2-0.3,0.4-0.3c0.2,0,0.4-0.1,0.6-0.1h1.8
		c0.2,0,0.3,0,0.5,0c0.2,0,0.3,0,0.5,0.1c0.2,0.1,0.3,0.3,0.4,0.6c0,0.3,0.1,0.6,0.2,0.8c0.1,0.3,0.2,0.6,0.3,0.8
		c0.1,0.2,0.2,0.5,0.4,0.7c0.1,0.1,0.2,0.3,0.3,0.4c0.1,0.1,0.2,0.2,0.3,0.3c0.4,0.3,0.9,0.6,1.5,0.8c0.1,0,0.3,0.1,0.4,0.1
		c0.1,0,0.3,0,0.4,0.1h0.1c0.2,0,0.4,0.1,0.6,0.1c0.3,0,0.5,0,0.6-0.1c0.1,0,0.2,0,0.3,0c0.1,0,0.2,0,0.3-0.1c0.1,0,0.2,0,0.3-0.1
		c0.6-0.2,1.2-0.5,1.5-0.9c0.4-0.4,0.6-1,0.8-1.8c0-0.2,0-0.4,0-0.6c0-0.2-0.1-0.4-0.1-0.5c-0.2-0.6-0.5-1.2-1-1.5
		c-0.1,0-0.2-0.1-0.3-0.2c-0.3-0.2-0.6-0.4-1-0.5c-0.4-0.1-0.7-0.3-1-0.4c-0.1,0-0.3-0.1-0.4-0.1s-0.3-0.1-0.4-0.1
		c-0.3-0.1-0.6-0.2-0.9-0.3c-0.3-0.1-0.6-0.2-0.9-0.3c-0.1,0-0.2-0.1-0.2-0.1c-0.1,0-0.1,0-0.2-0.1c-0.2,0-0.3-0.1-0.4-0.1
		s-0.3-0.1-0.4-0.1c-0.4-0.2-0.9-0.4-1.3-0.6c-0.4-0.2-0.8-0.4-1.1-0.7c-0.4-0.4-0.8-0.8-1.2-1.3c-0.4-0.5-0.6-1-0.9-1.7
		c-0.1-0.2-0.1-0.4-0.2-0.7c0-0.2-0.1-0.5-0.1-0.7c0-0.2-0.1-0.5-0.1-0.9c0-0.4,0-0.7,0-1c0-0.1,0-0.2,0-0.4
		c0.1-0.3,0.1-0.5,0.1-0.8c0-0.2,0.1-0.5,0.2-0.7c0.3-0.8,0.7-1.6,1.1-2.1c0.4-0.6,1-1.1,1.6-1.6c0.4-0.3,0.8-0.5,1.2-0.7
		c0.4-0.2,0.9-0.3,1.4-0.5c0.2,0,0.4-0.1,0.6-0.1s0.4,0,0.6-0.1c0.1,0,0.1,0,0.3,0C218.9,5.5,219,5.5,219,5.4z"/>
	<path style="fill:#9A3CBB;" d="M247.7,29.6c0,0.1,0.1,0.2,0.1,0.4c0,0.1,0.1,0.3,0.1,0.5s0,0.3,0,0.5c0,0.1-0.1,0.3-0.2,0.3
		c-0.2,0.1-0.4,0.2-0.8,0.1c-0.4,0-0.6,0-0.9,0h-1.3c-0.2,0-0.3,0-0.4,0s-0.2,0-0.4-0.1c-0.2-0.1-0.4-0.2-0.5-0.4
		c-0.1-0.2-0.2-0.4-0.2-0.6c0-0.2-0.1-0.4-0.2-0.6c-0.1-0.4-0.2-0.8-0.3-1.2c-0.1-0.4-0.2-0.8-0.3-1.1c-0.1-0.2-0.1-0.4-0.2-0.6
		c0-0.2-0.1-0.3-0.2-0.5c-0.1-0.1-0.1-0.3-0.3-0.4c-0.1-0.1-0.3-0.2-0.5-0.2c-0.1,0-0.2,0-0.3,0c-0.1,0-0.2,0-0.3,0h-4.5
		c-0.3,0-0.7,0-1,0c-0.4,0-0.7,0.1-0.9,0.3c-0.2,0.1-0.3,0.3-0.3,0.6c-0.1,0.2-0.1,0.5-0.2,0.7c-0.2,0.4-0.3,0.8-0.4,1.3
		c-0.1,0.5-0.2,0.9-0.4,1.3c-0.1,0.2-0.1,0.5-0.2,0.8s-0.2,0.5-0.3,0.6c-0.1,0.1-0.2,0.2-0.4,0.2c-0.2,0-0.4,0.1-0.6,0.1
		s-0.4,0-0.7,0c-0.2,0-0.4,0-0.6,0c-0.2,0-0.5,0-0.9,0c-0.4,0-0.6,0-0.8-0.2c-0.1-0.1-0.1-0.2-0.2-0.3c0-0.1,0-0.3,0-0.5
		s0.1-0.3,0.1-0.5c0-0.1,0.1-0.3,0.1-0.4c0.2-0.6,0.4-1.1,0.5-1.7c0.2-0.6,0.3-1.1,0.5-1.7c0.1-0.2,0.1-0.4,0.2-0.6
		c0-0.2,0.1-0.4,0.2-0.6c0.2-0.5,0.3-1,0.5-1.5c0.2-0.5,0.3-1,0.5-1.5c0.2-0.5,0.3-1,0.4-1.4c0.1-0.5,0.3-0.9,0.4-1.4
		c0.4-1.3,0.8-2.7,1.2-4c0.4-1.3,0.8-2.7,1.2-4c0-0.1,0.1-0.2,0.1-0.3c0-0.1,0-0.2,0.1-0.3c0.2-0.5,0.3-1,0.5-1.5
		c0.2-0.5,0.3-1,0.5-1.5c0.1-0.3,0.2-0.5,0.2-0.8c0.1-0.3,0.2-0.5,0.4-0.7c0.1-0.1,0.2-0.1,0.4-0.2h0.1h0.1h2.5c0.2,0,0.4,0,0.6,0
		s0.4,0,0.5,0.2c0.2,0.1,0.3,0.4,0.4,0.6c0.1,0.3,0.1,0.6,0.2,0.8c0.1,0.4,0.3,0.8,0.4,1.2c0.1,0.4,0.2,0.8,0.4,1.2
		c0,0.1,0.1,0.3,0.1,0.4c0,0.1,0.1,0.3,0.1,0.4c0.2,0.5,0.3,1,0.4,1.4c0.1,0.5,0.3,0.9,0.4,1.4c0.4,1.2,0.7,2.4,1.1,3.6
		c0.3,1.2,0.7,2.4,1.1,3.6c0,0.1,0.1,0.2,0.1,0.3s0,0.2,0.1,0.3c0.1,0.4,0.2,0.8,0.3,1.2c0.1,0.4,0.2,0.8,0.3,1.2
		c0.1,0.2,0.1,0.4,0.2,0.6s0.1,0.4,0.1,0.6c0.2,0.8,0.5,1.5,0.7,2.3s0.4,1.5,0.7,2.3c0,0.1,0.1,0.1,0.1,0.2S247.7,29.5,247.7,29.6z
		 M240.4,21.5c0.2-0.1,0.4-0.3,0.3-0.6c0-0.3-0.1-0.6-0.2-0.8c0-0.1-0.1-0.2-0.1-0.3s0-0.2-0.1-0.3c-0.2-0.8-0.5-1.6-0.7-2.5
		c-0.2-0.9-0.4-1.7-0.7-2.5c0-0.1-0.1-0.3-0.1-0.5c0-0.2-0.1-0.3-0.1-0.5c-0.1-0.2-0.1-0.3-0.2-0.4c-0.1-0.1-0.2-0.2-0.3-0.2
		l-0.1,0.1l-0.1,0.1c-0.2,0.2-0.3,0.5-0.3,0.9c-0.1,0.3-0.1,0.7-0.2,1c-0.2,0.7-0.4,1.4-0.6,2.1c-0.2,0.7-0.4,1.4-0.6,2.1
		c-0.1,0.2-0.1,0.5-0.2,0.7s-0.1,0.5-0.2,0.7s0,0.4,0,0.6c0.1,0.2,0.3,0.3,0.5,0.3c0.2,0,0.4,0,0.7,0h2.2c0.2,0,0.4,0,0.6,0
		C240.1,21.5,240.3,21.5,240.4,21.5z"/>
	<path style="fill:#9A3CBB;" d="M250.8,5.9h2.3c0.2,0,0.4,0,0.6,0c0.2,0,0.4,0,0.5,0.1c0.2,0.1,0.3,0.2,0.4,0.4
		c0.1,0.2,0.2,0.4,0.3,0.6l1,2.1c0.7,1.4,1.3,2.7,2,4.1s1.3,2.7,2,4.1c0.3,0.6,0.6,1.3,1,2c0.3,0.7,0.6,1.3,1,1.9
		c0.1,0.1,0.1,0.3,0.2,0.4c0.1,0.1,0.2,0.3,0.3,0.4l0.1,0.1c0.1,0,0.1,0,0.2,0c0.1,0,0.2-0.2,0.2-0.3s0-0.3,0.1-0.5
		c0-0.2,0-0.4,0-0.6s0-0.4,0-0.6v-2.3V9.4V8c0-0.1,0-0.2,0-0.4s0-0.2,0-0.3V6.9c0-0.3,0.1-0.6,0.2-0.8c0.1-0.2,0.2-0.3,0.4-0.3
		s0.3,0,0.6,0h1.7c0.2,0,0.3,0,0.5,0s0.3,0,0.4,0.1c0.2,0.1,0.4,0.3,0.4,0.6c0,0.3,0,0.7,0,1.1v4v15v3c0,0.3,0,0.5,0,0.8
		s0,0.5-0.1,0.6c-0.1,0.1-0.2,0.2-0.3,0.3c-0.1,0.1-0.2,0.1-0.4,0.1h-1h-1.6c-0.2,0-0.3,0-0.5,0s-0.3,0-0.4-0.1
		c-0.2-0.1-0.4-0.3-0.5-0.5c-0.1-0.2-0.2-0.4-0.3-0.7c-0.2-0.3-0.3-0.7-0.5-1s-0.3-0.7-0.5-1l-4.3-8.5c-0.3-0.6-0.5-1.1-0.8-1.6
		c-0.3-0.5-0.5-1-0.8-1.6c-0.1-0.2-0.2-0.4-0.3-0.6c-0.1-0.3-0.3-0.4-0.5-0.4c-0.2,0.2-0.2,0.4-0.2,0.6s0,0.5,0,0.8v2.5v8.5v1.4
		c0,0.1,0,0.2,0,0.4c0,0.1,0,0.2,0,0.4v0.4c0,0.4,0,0.7-0.1,0.8c-0.1,0.1-0.2,0.2-0.4,0.3c-0.2,0-0.3,0-0.6,0h-1.8
		c-0.2,0-0.3,0-0.5,0s-0.3,0-0.4-0.1c-0.2-0.1-0.4-0.3-0.4-0.6s0-0.7,0-1.1v-4.1V11.1V7.8c0-0.3,0-0.5,0-0.8s0-0.5,0.1-0.7
		c0.1-0.2,0.2-0.3,0.4-0.4h0.1C250.7,5.9,250.8,5.9,250.8,5.9z"/>
	<path style="fill:#9A3CBB;" d="M281.4,5.9h2.9c0.2,0,0.5,0,0.7,0s0.4,0.1,0.6,0.2c0.1,0,0.1,0.1,0.1,0.2c0,0.1,0.1,0.2,0.1,0.3v0.2
		c0,0.1,0,0.2,0,0.3c0,0.1,0,0.2,0,0.4v1.4c0,0.2,0,0.3,0,0.5s0,0.3,0,0.5c-0.1,0.4-0.3,0.6-0.6,0.6s-0.6,0-1,0h-2.9
		c-0.4,0-0.7,0-1,0.1c-0.3,0-0.5,0.3-0.6,0.7c0,0.1,0,0.2,0,0.3c0,0.1,0,0.2,0,0.3c0,0.1,0,0.3,0,0.5s0,0.3,0,0.5V16v10.3v3.3
		c0,0.4,0,0.7,0,1s-0.1,0.5-0.4,0.6c-0.1,0-0.3,0.1-0.5,0.1s-0.3,0-0.5,0h-1.9c-0.2,0-0.4,0-0.6,0c-0.2,0-0.3-0.1-0.4-0.3
		c-0.1-0.2-0.1-0.4-0.1-0.7s0-0.6,0-0.9v-3.6v-9.9v-3.1c0-0.2,0-0.3,0-0.5s0-0.3,0-0.5c0-0.1,0-0.2,0-0.3c0-0.1,0-0.2,0-0.3
		c-0.1-0.4-0.3-0.6-0.6-0.7c-0.3,0-0.6-0.1-1-0.1h-2.7c-0.2,0-0.4,0-0.7,0c-0.3,0-0.5,0-0.6-0.1c-0.2-0.1-0.3-0.2-0.3-0.3
		c-0.1-0.1-0.1-0.3-0.1-0.5c0-0.2,0-0.4,0-0.6V7.2c0-0.3,0-0.6,0-0.8c0-0.2,0.1-0.4,0.3-0.5c0.1,0,0.2-0.1,0.3-0.1h0.1L281.4,5.9
		L281.4,5.9z"/>
	<path style="fill:#9A3CBB;" d="M302.6,29.6c0,0.1,0.1,0.2,0.1,0.4c0,0.1,0.1,0.3,0.1,0.5s0,0.3,0,0.5c0,0.1-0.1,0.3-0.2,0.3
		c-0.2,0.1-0.4,0.2-0.8,0.1c-0.4,0-0.6,0-0.9,0h-1.3c-0.2,0-0.3,0-0.4,0c-0.1,0-0.2,0-0.4-0.1c-0.2-0.1-0.4-0.2-0.5-0.4
		c-0.1-0.2-0.2-0.4-0.2-0.6c0-0.2-0.1-0.4-0.2-0.6c-0.1-0.4-0.2-0.8-0.3-1.2c-0.1-0.4-0.2-0.8-0.3-1.1c-0.1-0.2-0.1-0.4-0.2-0.6
		c0-0.2-0.1-0.3-0.2-0.5c-0.1-0.1-0.1-0.3-0.3-0.4c-0.1-0.1-0.3-0.2-0.5-0.2c-0.1,0-0.2,0-0.3,0c-0.1,0-0.2,0-0.3,0h-4.5
		c-0.3,0-0.7,0-1,0c-0.4,0-0.7,0.1-0.9,0.3c-0.2,0.1-0.3,0.3-0.3,0.6c-0.1,0.2-0.1,0.5-0.2,0.7c-0.2,0.4-0.3,0.8-0.4,1.3
		c-0.1,0.5-0.2,0.9-0.4,1.3c-0.1,0.2-0.1,0.5-0.2,0.8c-0.1,0.3-0.2,0.5-0.3,0.6c-0.1,0.1-0.2,0.2-0.4,0.2s-0.4,0.1-0.6,0.1
		c-0.2,0-0.4,0-0.7,0c-0.2,0-0.4,0-0.6,0c-0.2,0-0.5,0-0.9,0s-0.6,0-0.8-0.2c-0.1-0.1-0.1-0.2-0.2-0.3c0-0.1,0-0.3,0-0.5
		s0.1-0.3,0.1-0.5c0-0.1,0.1-0.3,0.1-0.4c0.2-0.6,0.4-1.1,0.5-1.7c0.2-0.6,0.3-1.1,0.5-1.7c0.1-0.2,0.1-0.4,0.2-0.6
		c0-0.2,0.1-0.4,0.2-0.6c0.2-0.5,0.3-1,0.5-1.5c0.2-0.5,0.3-1,0.5-1.5c0.2-0.5,0.3-1,0.4-1.4c0.1-0.5,0.3-0.9,0.4-1.4
		c0.4-1.3,0.8-2.7,1.2-4c0.4-1.3,0.8-2.7,1.2-4c0-0.1,0.1-0.2,0.1-0.3c0-0.1,0-0.2,0.1-0.3c0.2-0.5,0.3-1,0.5-1.5s0.3-1,0.5-1.5
		c0.1-0.3,0.2-0.5,0.2-0.8c0.1-0.3,0.2-0.5,0.4-0.7c0.1-0.1,0.2-0.1,0.4-0.2h0.1h0.1h2.5c0.2,0,0.4,0,0.6,0c0.2,0,0.4,0,0.5,0.2
		c0.2,0.1,0.3,0.4,0.4,0.6c0.1,0.3,0.1,0.6,0.2,0.8c0.1,0.4,0.3,0.8,0.4,1.2c0.1,0.4,0.2,0.8,0.4,1.2c0,0.1,0.1,0.3,0.1,0.4
		c0,0.1,0.1,0.3,0.1,0.4c0.2,0.5,0.3,1,0.4,1.4c0.1,0.5,0.3,0.9,0.4,1.4c0.4,1.2,0.7,2.4,1.1,3.6c0.3,1.2,0.7,2.4,1.1,3.6
		c0,0.1,0.1,0.2,0.1,0.3s0,0.2,0.1,0.3c0.1,0.4,0.2,0.8,0.3,1.2c0.1,0.4,0.2,0.8,0.3,1.2c0.1,0.2,0.1,0.4,0.2,0.6
		c0.1,0.2,0.1,0.4,0.1,0.6c0.2,0.8,0.5,1.5,0.7,2.3s0.4,1.5,0.7,2.3c0,0.1,0.1,0.1,0.1,0.2S302.6,29.5,302.6,29.6z M295.3,21.5
		c0.2-0.1,0.4-0.3,0.3-0.6c0-0.3-0.1-0.6-0.2-0.8c0-0.1-0.1-0.2-0.1-0.3s0-0.2-0.1-0.3c-0.2-0.8-0.5-1.6-0.7-2.5
		c-0.2-0.9-0.4-1.7-0.7-2.5c0-0.1-0.1-0.3-0.1-0.5c0-0.2-0.1-0.3-0.1-0.5c-0.1-0.2-0.1-0.3-0.2-0.4c-0.1-0.1-0.2-0.2-0.3-0.2
		l-0.1,0.1l-0.1,0.1c-0.2,0.2-0.3,0.5-0.3,0.9c-0.1,0.3-0.1,0.7-0.2,1c-0.2,0.7-0.4,1.4-0.6,2.1c-0.2,0.7-0.4,1.4-0.6,2.1
		c-0.1,0.2-0.1,0.5-0.2,0.7c-0.1,0.2-0.1,0.5-0.2,0.7c-0.1,0.2,0,0.4,0,0.6c0.1,0.2,0.3,0.3,0.5,0.3s0.4,0,0.7,0h2.2
		c0.2,0,0.4,0,0.6,0S295.2,21.5,295.3,21.5z"/>
	<path style="fill:#9A3CBB;" d="M318.7,5.9c1.5,0,2.8,0.3,3.8,1s1.8,1.7,2.4,2.8c0.1,0.2,0.2,0.4,0.2,0.6c0.1,0.2,0.1,0.4,0.2,0.6
		c0.1,0.4,0.2,0.8,0.3,1.3c0.1,0.5,0.1,1,0.1,1.5s0,1-0.1,1.5c-0.1,0.5-0.2,0.9-0.3,1.3c-0.2,0.6-0.4,1.2-0.7,1.8
		c-0.4,0.7-0.8,1.3-1.3,1.8c-0.5,0.5-1,1-1.5,1.5c-0.2,0.1-0.3,0.3-0.5,0.4s-0.3,0.3-0.5,0.4c-0.4,0.3-0.8,0.7-1.2,1
		c-0.4,0.3-0.8,0.7-1.2,1c-0.1,0.1-0.3,0.2-0.4,0.4c-0.1,0.2-0.2,0.2-0.3,0.4c0,0,0,0,0,0.1c0,0,0,0-0.1,0.1
		c-0.1,0.1-0.2,0.3-0.4,0.4c-0.1,0.2-0.2,0.3-0.3,0.5c0,0,0,0.1-0.1,0.2c0,0.1,0,0.2,0,0.3c0,0.1,0.1,0.2,0.2,0.3
		c0.1,0,0.2,0.1,0.3,0.1h0.1c0.1,0,0.2,0.1,0.3,0.1c0.1,0,0.2,0,0.3,0h1.3h4.3c0.3,0,0.6,0,1,0s0.6,0.1,0.8,0.2
		c0.1,0.1,0.2,0.2,0.2,0.4s0.1,0.4,0.1,0.7c0,0.3,0,0.5,0,0.8s0,0.5,0,0.7c0,0.1,0,0.3,0,0.5s0,0.3,0,0.4c0,0.2-0.1,0.4-0.3,0.5
		c-0.1,0.1-0.3,0.1-0.4,0.1c-0.1,0-0.4,0-0.5,0h-2h-7.6h-2.2c-0.2,0-0.4,0-0.6,0c-0.2,0-0.4,0-0.5-0.1c-0.2-0.1-0.3-0.3-0.4-0.6
		c0-0.3,0-0.6,0-0.9c0-0.1,0-0.1,0-0.2c0-0.1,0-0.2,0-0.2c0-0.2,0.1-0.4,0.1-0.6c0-0.2,0.1-0.4,0.1-0.6c0.3-1.1,0.6-2,1.1-2.8
		c0.5-0.8,1-1.6,1.7-2.3c0.6-0.7,1.3-1.3,2-1.9c0.5-0.5,1.1-0.9,1.6-1.3s1-0.9,1.6-1.4c0.1-0.1,0.3-0.2,0.4-0.4
		c0.1-0.2,0.2-0.2,0.3-0.4c0.3-0.3,0.5-0.6,0.7-1c0.2-0.4,0.4-0.8,0.5-1.2c0-0.1,0.1-0.2,0.1-0.3c0-0.1,0-0.2,0.1-0.3
		c0-0.2,0.1-0.5,0.1-0.8c0-0.3,0-0.6,0-0.9c0-0.1,0-0.3-0.1-0.4c0-0.1,0-0.3-0.1-0.4c-0.3-0.9-0.7-1.5-1.2-1.9
		c-0.1-0.1-0.2-0.2-0.4-0.2c-0.1-0.1-0.3-0.1-0.4-0.2c-0.1,0-0.2-0.1-0.3-0.1c-0.1,0-0.2,0-0.3-0.1c-0.1,0-0.3-0.1-0.5,0
		c-0.2,0.1-0.3,0.1-0.4,0.1c-0.7,0.3-1.3,0.8-1.7,1.5c-0.2,0.3-0.3,0.7-0.4,1.1c-0.1,0.4-0.2,0.8-0.3,1.2c-0.1,0.3-0.1,0.6-0.1,1
		c0,0.3-0.1,0.6-0.3,0.7c-0.1,0.1-0.2,0.1-0.4,0.1s-0.3,0-0.5,0h-1.5c-0.2,0-0.4,0-0.6,0c-0.2,0-0.3-0.1-0.4-0.2
		c-0.1-0.1-0.2-0.2-0.2-0.4c0-0.2,0-0.4,0-0.5v-0.3c0-0.1,0-0.3,0-0.4s0-0.3,0-0.5c0.1-0.3,0.1-0.6,0.1-0.9c0-0.3,0.1-0.6,0.2-0.8
		c0.1-0.2,0.1-0.4,0.2-0.6c0.1-0.2,0.1-0.4,0.2-0.6c0.1-0.1,0.1-0.3,0.2-0.5c0.1-0.2,0.2-0.3,0.2-0.5c0.4-0.8,0.8-1.4,1.4-2
		c0.5-0.5,1.1-1,1.9-1.3c0.3-0.1,0.5-0.2,0.8-0.3c0.3-0.1,0.5-0.1,0.8-0.2c0.1,0,0.2,0,0.3,0c0.1,0,0.2,0,0.3-0.1c0,0,0.1,0,0.2,0
		C318.6,5.9,318.6,5.9,318.7,5.9z"/>
	<path style="fill:#9A3CBB;" d="M341.5,17.9c0,0.1,0,0.3,0,0.5s0,0.3,0,0.5c0,0.1,0,0.2,0,0.4c0,0.1,0,0.2,0,0.4v0.5l-0.1,1.3
		c0,0.2,0,0.4,0,0.6c0,0.2,0,0.4,0,0.6c-0.1,0.4-0.2,0.9-0.2,1.3c0,0.4-0.1,0.9-0.2,1.3c-0.4,1.5-0.9,2.7-1.5,3.7
		c-0.6,1-1.5,1.8-2.6,2.4c-0.2,0.1-0.5,0.2-0.8,0.3c-0.3,0-0.6,0.1-0.8,0.2c-0.1,0-0.3,0-0.4,0c-0.1,0-0.2,0-0.4,0
		c-0.1,0-0.2,0-0.3,0c-0.1,0-0.2,0-0.3-0.1h-0.3c0,0-0.1,0-0.2,0c-0.1,0-0.1,0-0.2,0c-0.2,0-0.3-0.1-0.5-0.1s-0.3,0-0.5-0.1
		c-0.4-0.1-0.7-0.3-1-0.4c-0.3-0.1-0.6-0.3-0.9-0.6c-0.7-0.6-1.3-1.2-1.7-1.9c-0.4-0.7-0.8-1.6-1.1-2.6c-0.1-0.3-0.2-0.7-0.2-1
		c-0.1-0.4-0.1-0.7-0.2-1.1c-0.1-0.3-0.1-0.5-0.1-0.8s-0.1-0.6-0.1-0.9c0-0.1,0-0.2,0-0.3s0-0.2,0-0.3c0-0.1,0-0.3,0-0.4
		s0-0.3,0-0.4s0-0.2,0-0.3s0-0.2,0-0.3c0-0.2-0.1-0.4,0-0.6c0-0.2,0-0.5,0-0.6c0-0.2,0-0.3,0-0.5s0-0.3,0-0.5v-0.5
		c0-0.2,0-0.4,0-0.6s0-0.4,0-0.6V16c0-0.1,0.1-0.3,0-0.4c0-0.1,0-0.3,0-0.5c0-0.1,0.1-0.3,0.1-0.4c0-0.2,0-0.3,0.1-0.4
		c0.1-0.3,0.1-0.7,0.2-1c0-0.3,0.1-0.6,0.2-0.9c0.4-1.4,0.9-2.6,1.5-3.6c0.6-1,1.4-1.7,2.5-2.3c0.2-0.1,0.5-0.2,0.7-0.3
		c0.3-0.1,0.5-0.1,0.8-0.2c0.1,0,0.2,0,0.3,0c0.1,0,0.2,0,0.3,0c0,0,0.1,0,0.2,0c0.1,0,0.1,0,0.2,0c1,0,1.9,0.1,2.6,0.4
		c0.8,0.3,1.4,0.8,2,1.3c0.6,0.6,1,1.3,1.4,2.1c0.4,0.8,0.7,1.7,0.9,2.6c0.1,0.4,0.2,0.8,0.2,1.3c0,0.4,0.1,0.9,0.2,1.3
		c0,0.2,0.1,0.4,0,0.6c0,0.2,0,0.4,0,0.6s0.1,0.5,0.1,0.7s0,0.5,0.1,0.7V17.9z M337.5,19.5c0-0.1,0-0.2,0-0.4s0-0.3,0-0.4
		s0-0.2,0-0.4s0-0.3,0-0.4v-0.2c0-0.2,0-0.3,0-0.5s0-0.3,0-0.5v-0.4c0-0.2-0.1-0.5-0.1-0.7c0-0.2,0-0.5,0-0.7c0-0.2-0.1-0.4-0.1-0.6
		s0-0.4-0.1-0.6c-0.2-0.7-0.3-1.3-0.5-1.9c-0.2-0.6-0.5-1-0.9-1.4c-0.2-0.2-0.5-0.4-0.8-0.5s-0.6-0.2-1-0.2c0,0-0.1,0.1-0.2,0
		c-0.1,0-0.1,0-0.2,0c-0.1,0-0.2,0.1-0.3,0.1c-0.1,0-0.2,0.1-0.3,0.1c-0.4,0.2-0.8,0.6-1,1c-0.2,0.5-0.5,1-0.7,1.5
		c-0.1,0.4-0.2,0.8-0.2,1.2c0,0.4-0.1,0.8-0.2,1.3c0,0.2,0,0.4,0,0.6c0,0.2,0,0.4,0,0.6s0,0.4,0,0.6c0,0.2,0,0.4,0,0.6v0.4
		c0,0.1-0.1,0.3,0,0.4c0,0.1,0,0.3,0,0.4s0,0.2,0,0.4s0,0.2,0,0.4c0,0.1,0,0.3,0,0.4c0,0.2,0,0.3,0,0.4v0.5c0,0.2,0.1,0.4,0.1,0.7
		s0,0.5,0.1,0.7v0.3c0,0.2,0.1,0.4,0.1,0.7c0,0.2,0,0.5,0.1,0.7c0.1,0.5,0.2,0.9,0.3,1.3c0.1,0.4,0.3,0.8,0.5,1.2
		c0.2,0.3,0.4,0.6,0.6,0.8c0.2,0.2,0.5,0.4,0.9,0.5c0.1,0,0.2,0.1,0.4,0.1s0.3,0,0.5,0c0.1,0,0.2-0.1,0.3-0.1c0.1,0,0.2,0,0.3-0.1
		c0.2-0.1,0.4-0.2,0.7-0.4c0.2-0.2,0.4-0.4,0.5-0.6c0.2-0.3,0.3-0.6,0.4-0.9c0.1-0.3,0.2-0.6,0.3-1c0.1-0.3,0.2-0.6,0.2-1
		c0-0.3,0.1-0.7,0.2-1c0-0.1,0-0.2,0-0.3s0-0.2,0-0.3c0-0.2,0.1-0.3,0-0.5c0-0.2,0-0.4,0-0.5c0-0.2,0-0.4,0-0.6s0-0.4,0-0.6
		L337.5,19.5L337.5,19.5z"/>
	<path style="fill:#9A3CBB;" d="M350.7,6.4h1.1c0.1,0,0.2,0,0.3,0c0.1,0,0.2,0,0.3,0.1h0.1c0.1,0,0.2,0.1,0.3,0.1
		c0.1,0,0.1,0.1,0.2,0.2c0.1,0.2,0.1,0.4,0.2,0.7c0,0.3,0,0.6,0,0.9v3.3v13v4.6c0,0.3,0,0.7,0,1c0,0.4,0,0.7-0.1,0.8
		c-0.1,0.1-0.2,0.2-0.3,0.2c-0.1,0-0.2,0.1-0.4,0.1h-0.7h-1.1c-0.1,0-0.2,0-0.3,0c-0.1,0-0.2,0-0.3,0h-0.1c-0.1,0-0.2-0.1-0.3-0.1
		c-0.1,0-0.2-0.1-0.2-0.2c-0.1-0.1-0.1-0.3-0.1-0.6c0-0.2,0-0.5,0-0.8v-2.7v-7.6V17c0-0.2,0-0.4,0-0.7c0-0.3,0-0.5,0-0.6
		c-0.1-0.4-0.3-0.6-0.5-0.7c-0.3,0-0.6-0.1-1-0.1h-2c-0.3,0-0.5,0-0.8,0c-0.2,0-0.4-0.1-0.5-0.3c0-0.1-0.1-0.2-0.1-0.3s0-0.2,0-0.3
		c0-0.1-0.1-0.2,0-0.4c0-0.1,0-0.3,0-0.4c0-0.3,0-0.6,0-1c0-0.4,0-0.6,0.1-0.8c0.1-0.2,0.2-0.3,0.4-0.3c0.2,0,0.4-0.1,0.6-0.1h0.3
		c0.1,0,0.2-0.1,0.4-0.1c0.1,0,0.2,0,0.4-0.1s0.4-0.2,0.6-0.3c0.2-0.1,0.4-0.2,0.6-0.3c0.4-0.2,0.8-0.6,1.1-0.9
		c0.3-0.4,0.6-0.8,0.8-1.3c0.1-0.3,0.2-0.6,0.3-1c0.1-0.4,0.2-0.7,0.4-0.8c0.1-0.1,0.2-0.2,0.3-0.2h0.1
		C350.6,6.4,350.7,6.4,350.7,6.4z"/>
	<path style="fill:#9A3CBB;" d="M361.6,6.4h7.2h1.8c0.2,0,0.4,0,0.6,0c0.2,0,0.3,0.1,0.4,0.2c0.1,0.1,0.1,0.2,0.2,0.4
		c0,0.2,0.1,0.4,0.1,0.7c0,0.2,0,0.5,0,0.7c0,0.2,0,0.5,0,0.7c0,0.2,0,0.3,0,0.5s0,0.3-0.1,0.4c-0.1,0.3-0.3,0.5-0.5,0.5
		s-0.5,0.1-0.8,0.1h-2.2h-3.1c-0.3,0-0.5,0-0.8,0s-0.5,0.1-0.6,0.2c-0.1,0.1-0.2,0.2-0.2,0.4c-0.1,0.2-0.1,0.4-0.1,0.6
		s-0.1,0.5-0.1,0.7s0,0.4-0.1,0.6c0,0.2-0.1,0.4-0.1,0.6s0,0.4-0.1,0.6c0,0.1,0,0.2,0,0.4c0,0.1-0.1,0.3-0.1,0.4s0,0.3,0.1,0.4
		c0,0,0,0.1,0.1,0.1c0,0,0,0.1,0.1,0.1c0.2,0,0.3,0,0.4-0.1c0.1-0.1,0.2-0.1,0.3-0.2c0.1-0.1,0.3-0.2,0.4-0.3
		c0.1-0.1,0.3-0.1,0.4-0.2c0.2-0.1,0.5-0.2,0.8-0.3s0.6-0.1,1-0.1c0.4,0,0.7,0,1,0c0.3,0,0.6,0.1,0.9,0.2c0.2,0.1,0.4,0.2,0.6,0.3
		c0.2,0.1,0.4,0.2,0.6,0.4c1.2,0.9,2,2.1,2.6,3.6c0.1,0.3,0.2,0.6,0.2,0.9c0.1,0.3,0.1,0.6,0.2,1c0.1,0.3,0.1,0.6,0.1,1
		s0.1,0.8,0.1,1.2s0,0.8-0.1,1.2c0,0.4-0.1,0.7-0.2,1c-0.1,0.4-0.2,0.8-0.3,1.1c-0.1,0.4-0.2,0.7-0.4,1c-0.1,0.2-0.2,0.5-0.4,0.7
		c-0.1,0.2-0.3,0.4-0.4,0.6c0,0,0,0-0.1,0.1c0,0,0,0-0.1,0.1s-0.2,0.2-0.2,0.3c-0.1,0.1-0.2,0.2-0.3,0.3c0,0,0,0,0,0.1
		c0,0,0,0-0.1,0.1c-0.1,0.1-0.2,0.2-0.3,0.3c-0.1,0.1-0.2,0.2-0.3,0.3c-0.6,0.6-1.3,1-2.1,1.3c-0.2,0.1-0.3,0.1-0.5,0.2
		c-0.2,0.1,0,0-0.2,0s-0.3,0.1-0.5,0.1c-0.2,0-0.4,0-0.6,0.1c-0.1,0-0.2,0-0.2,0c-0.1,0-0.2,0-0.2,0h-0.2c-0.1,0-0.2,0-0.3,0
		s-0.2,0-0.3,0c-0.2-0.1-0.4-0.1-0.6-0.1c-0.2,0-0.4-0.1-0.6-0.1c-0.4-0.2-0.9-0.3-1.3-0.5c-0.4-0.2-0.8-0.4-1.1-0.7
		c-0.1-0.1-0.2-0.2-0.3-0.3c-0.1-0.1-0.2-0.2-0.3-0.3l-0.2-0.2c-0.1-0.1-0.2-0.2-0.2-0.3c-0.1-0.1-0.1-0.2-0.2-0.3
		c-0.1-0.1-0.2-0.2-0.2-0.3s-0.1-0.2-0.2-0.3c-0.2-0.3-0.4-0.7-0.5-1.1c-0.1-0.4-0.3-0.8-0.4-1.2c0-0.2-0.1-0.5-0.1-0.8
		c-0.1-0.4,0-0.7,0.1-0.8c0.1-0.2,0.2-0.3,0.4-0.3s0.4-0.1,0.6-0.1h1.5c0.2,0,0.3,0,0.5,0s0.3,0,0.4,0.1c0.2,0.1,0.3,0.3,0.4,0.5
		c0.1,0.2,0.1,0.5,0.2,0.7c0.1,0.2,0.2,0.4,0.2,0.5s0.2,0.3,0.3,0.5c0.1,0.1,0.1,0.2,0.2,0.3c0.1,0.1,0.2,0.1,0.2,0.2
		c0.1,0.2,0.2,0.3,0.4,0.4c0.3,0.2,0.6,0.3,1.1,0.5c0.5,0.1,0.9,0.1,1.4-0.1c0.3-0.1,0.5-0.3,0.8-0.4c0.2-0.2,0.4-0.3,0.6-0.5
		c0.1-0.1,0.2-0.2,0.2-0.3c0.1-0.1,0.1-0.2,0.2-0.3c0.2-0.3,0.3-0.5,0.4-0.8c0.1-0.3,0.2-0.6,0.3-1c0-0.3,0.1-0.5,0.1-0.7v-0.3
		c0-0.1,0.1-0.4,0.1-0.6s0-0.5-0.1-0.6c0-0.2-0.1-0.3-0.1-0.5s-0.1-0.3-0.1-0.5c-0.2-0.7-0.5-1.3-0.9-1.7c-0.4-0.5-0.8-0.8-1.4-1
		c-0.1,0-0.2-0.1-0.3-0.1c-0.1,0-0.2,0-0.3-0.1h-0.2c-0.1,0-0.3-0.1-0.4,0c-0.2,0-0.3,0.1-0.4,0.1c-0.1,0-0.2,0-0.2,0s-0.1,0-0.2,0
		c-0.2,0.1-0.4,0.2-0.6,0.3c-0.2,0.1-0.3,0.3-0.5,0.4s-0.3,0.3-0.4,0.5c-0.1,0.2-0.3,0.4-0.5,0.5s-0.5,0.2-0.8,0.1
		c-0.3,0-0.6,0-0.9,0c-0.1,0-0.3,0-0.4,0c-0.1,0-0.3,0-0.4,0h-0.3c-0.2,0-0.4-0.1-0.4-0.2c-0.2-0.2-0.2-0.5-0.2-0.9
		c0.1-0.3,0.1-0.7,0.1-1c0-0.3,0.1-0.7,0.1-1c0-0.1,0-0.2,0-0.3s0-0.2,0-0.3c0-0.2,0.1-0.5,0.1-0.7s0.1-0.5,0.1-0.7s0.1-0.4,0.1-0.6
		s0.1-0.4,0.1-0.6c0-0.1,0-0.3,0-0.4s0-0.3,0.1-0.4c0.1-0.5,0.2-1.1,0.3-1.6c0.1-0.6,0.1-1.1,0.2-1.6c0-0.1,0-0.1,0-0.2
		c0-0.1,0-0.1,0-0.2c0-0.3,0.1-0.5,0.1-0.8c0-0.3,0.1-0.5,0.1-0.8c0-0.3,0.1-0.5,0.1-0.7c0-0.2,0.1-0.4,0.2-0.6
		c0.1-0.1,0.2-0.2,0.4-0.3h0.1C361.5,6.4,361.6,6.4,361.6,6.4z"/>
</g>
<g>
	<path style="fill:#010101;" d="M0.6,43.7h8.8H11c0.1,0,0.3,0,0.4,0s0.3,0,0.4,0.1c0.1,0.1,0.2,0.2,0.2,0.4s0,0.3,0,0.6v0.3
		c0,0.1-0.1,0.3-0.1,0.3c0,0.1-0.1,0.2-0.1,0.2c-0.1,0.1-0.3,0.1-0.5,0.1c-0.2,0-0.4,0-0.6,0H8.3c-0.2,0-0.3,0-0.5,0
		c-0.2,0-0.3,0-0.4,0c-0.1,0-0.2,0.1-0.3,0.2C7.1,46,7.1,46.1,7,46.3c0,0.2-0.1,0.4,0,0.6s0,0.5,0,0.7v2.6v8.4v2.8
		c0,0.3,0,0.5,0,0.7c0,0.2-0.1,0.4-0.2,0.5c-0.1,0-0.2,0.1-0.3,0.1c-0.1,0-0.2,0-0.3,0c-0.2,0-0.4,0-0.6,0s-0.3-0.1-0.4-0.2
		c-0.1-0.1-0.1-0.3-0.1-0.5s0-0.4,0-0.6v-2.4v-8.7v-2.7c0-0.2,0-0.4,0-0.7c0-0.3,0-0.5-0.1-0.6c-0.1-0.3-0.2-0.4-0.5-0.5
		c-0.2,0-0.5,0-0.8,0H1.4c-0.2,0-0.4,0-0.6,0s-0.4,0-0.5-0.1l-0.1-0.1l-0.1-0.1c0-0.1-0.1-0.2-0.1-0.3c0-0.1,0-0.3,0-0.5
		s0-0.3,0.1-0.5s0.1-0.2,0.1-0.3c0-0.1,0.1-0.1,0.1-0.1S0.4,43.8,0.6,43.7C0.5,43.7,0.5,43.7,0.6,43.7L0.6,43.7z"/>
	<path style="fill:#010101;" d="M14.3,43.7h6.8h1.8c0.2,0,0.3,0,0.5,0s0.3,0,0.4,0.1l0.1,0.1c0,0,0.1,0.1,0.1,0.2c0,0.1,0,0.3,0,0.6
		s0,0.5,0,0.6c-0.1,0.3-0.2,0.4-0.4,0.4c-0.2,0-0.4,0-0.7,0h-2.1h-3.6c-0.2,0-0.5,0-0.8,0c-0.3,0-0.5,0-0.7,0.1
		c-0.1,0.1-0.2,0.3-0.2,0.6s0,0.5,0,0.8v2.7c0,0.2,0,0.4,0,0.7c0,0.3,0,0.5,0,0.6c0,0.2,0.1,0.4,0.3,0.4c0.1,0,0.2,0.1,0.3,0.1h0.2
		c0.1,0,0.1,0,0.2,0c0.1,0,0.1,0,0.2,0h0.7h4.2c0.1,0,0.3,0,0.4,0c0.2,0,0.3,0,0.5,0c0.2,0,0.3,0,0.4,0.1c0.1,0,0.2,0.1,0.3,0.1
		c0,0,0.1,0.1,0.1,0.2c0,0.1,0,0.3,0.1,0.4c0.1,0.1,0,0.3,0,0.4c0,0.2,0,0.3-0.1,0.4c0,0.2-0.1,0.3-0.2,0.3L23,53.6h-0.1h-0.1
		c-0.1,0-0.1,0-0.2,0s-0.1,0-0.2,0h-0.8h-4.5c-0.2,0-0.3,0-0.5,0s-0.3,0-0.5,0c-0.2,0-0.3,0.1-0.4,0.1c-0.1,0.1-0.2,0.2-0.2,0.4
		c0,0.1,0,0.2,0,0.4c0,0.1,0,0.3,0,0.4v1.5v2.6c0,0.3,0,0.5,0,0.7s0.1,0.4,0.2,0.4c0.1,0.1,0.2,0.1,0.3,0.1c0.1,0,0.3,0,0.4,0h1.4
		h3.9h1.2c0.1,0,0.2,0,0.3,0c0.1,0,0.2,0,0.3,0c0.2,0.1,0.3,0.2,0.3,0.3c0,0.1,0,0.1,0.1,0.3c0.1,0.2,0,0.3,0,0.4c0,0.1,0,0.3,0,0.4
		c0,0.1,0,0.2,0,0.3c-0.1,0.1-0.1,0.2-0.2,0.3c-0.1,0.1-0.2,0.1-0.3,0.1c-0.1,0-0.3,0-0.4,0h-1.5H16h-1.4c-0.2,0-0.4,0-0.5,0
		s-0.2-0.1-0.3-0.3c-0.1-0.1-0.1-0.2-0.1-0.4c0-0.2,0-0.3,0-0.5v-1.9v-6.7v-5.9v-1.7c0-0.2,0-0.3,0-0.5s0-0.3,0.1-0.4
		s0.2-0.2,0.3-0.3C14.1,43.7,14.2,43.7,14.3,43.7C14.2,43.7,14.2,43.7,14.3,43.7z"/>
	<path style="fill:#010101;" d="M27.2,43.7c0.3,0,0.5,0,0.8,0c0.3,0,0.5,0.1,0.7,0.2c0.1,0.1,0.2,0.3,0.3,0.5
		c0.1,0.2,0.2,0.4,0.3,0.6c0.2,0.4,0.4,0.7,0.6,1.1c0.2,0.4,0.4,0.7,0.6,1.1c0.1,0.2,0.2,0.4,0.3,0.6c0.1,0.2,0.2,0.4,0.3,0.6
		c0.4,0.9,0.9,1.7,1.3,2.6s0.9,1.7,1.3,2.6c0.1,0.3,0.2,0.5,0.4,0.7c0.1,0.2,0.3,0.5,0.4,0.7c0.2,0.5,0.5,1,0.7,1.4
		c0.2,0.5,0.5,0.9,0.7,1.4c0.1,0.1,0.2,0.3,0.3,0.5c0.1,0.2,0.2,0.3,0.4,0.3c0.1,0,0.1-0.1,0.1-0.1c0.1-0.1,0.1-0.3,0.1-0.5
		s0-0.4,0-0.6v-2.1V47v-1.6c0-0.1,0-0.3,0-0.4c0-0.1,0-0.3,0-0.4v-0.3c0-0.1,0-0.1,0.1-0.2c0-0.1,0-0.1,0.1-0.2
		c0.1-0.1,0.2-0.2,0.4-0.2c0.2,0,0.4,0,0.6,0c0.1,0,0.2,0,0.3,0c0.1,0,0.2,0,0.2,0.1c0.2,0.1,0.3,0.2,0.3,0.5c0,0.2,0,0.5,0,0.8v3
		v11.1v2.1c0,0.2,0,0.4,0,0.6s0,0.3-0.1,0.5c-0.1,0.1-0.1,0.2-0.2,0.2c-0.1,0-0.2,0.1-0.3,0.1h-0.7c-0.2,0-0.3,0-0.5,0
		s-0.3,0-0.4-0.1c-0.1-0.1-0.2-0.1-0.3-0.3c-0.1-0.1-0.1-0.3-0.2-0.4c-0.1-0.2-0.2-0.4-0.4-0.7c-0.1-0.2-0.2-0.5-0.4-0.7
		c-0.5-1-1-1.9-1.5-2.9c-0.5-0.9-1-1.9-1.5-2.9c-0.3-0.5-0.5-1.1-0.8-1.6c-0.3-0.5-0.5-1-0.8-1.6c-0.5-0.9-1-1.9-1.5-2.8
		c-0.1-0.1-0.1-0.2-0.2-0.4c-0.1-0.1-0.1-0.2-0.2-0.3c0,0-0.1,0-0.1-0.1h-0.1c-0.1,0-0.1,0.1-0.1,0.2s0,0.2-0.1,0.3v0.2
		c0,0.1,0,0.3,0,0.4c0,0.2,0,0.3,0,0.4v1.9v8.4v1.3c0,0.1,0,0.2,0,0.3c0,0.1,0,0.2,0,0.3v0.2c0,0.2-0.1,0.3-0.1,0.4
		c0,0.1-0.1,0.1-0.1,0.2c-0.1,0-0.1,0.1-0.2,0.1h-0.5c-0.2,0-0.4,0-0.5,0c-0.2,0-0.3-0.1-0.3-0.2c-0.1-0.1-0.1-0.3-0.1-0.4
		c0-0.1,0-0.4,0-0.6v-2.2V48v-2.9c0-0.2,0-0.4,0-0.7s0-0.4,0.1-0.6c0-0.1,0.1-0.2,0.3-0.2L27.2,43.7C27.1,43.7,27.1,43.7,27.2,43.7z
		"/>
	<path style="fill:#010101;" d="M42.3,43.7h6.8h1.8c0.2,0,0.3,0,0.5,0s0.3,0,0.4,0.1l0.1,0.1c0,0,0.1,0.1,0.1,0.2c0,0.1,0,0.3,0,0.6
		s0,0.5,0,0.6c-0.1,0.3-0.2,0.4-0.4,0.4c-0.2,0-0.4,0-0.7,0h-2.1h-3.6c-0.2,0-0.5,0-0.8,0s-0.5,0-0.7,0.1c-0.1,0.1-0.2,0.3-0.2,0.6
		s0,0.5,0,0.8v2.7c0,0.2,0,0.4,0,0.7c0,0.3,0,0.5,0,0.6c0,0.2,0.1,0.4,0.3,0.4c0.1,0,0.2,0.1,0.3,0.1h0.2c0.1,0,0.1,0,0.2,0
		c0.1,0,0.1,0,0.2,0h0.7h4.2c0.1,0,0.3,0,0.4,0c0.2,0,0.3,0,0.5,0c0.2,0,0.3,0,0.4,0.1c0.1,0,0.2,0.1,0.3,0.1c0,0,0.1,0.1,0.1,0.2
		c0,0.1,0,0.3,0.1,0.4c0.1,0.1,0,0.3,0,0.4c0,0.2,0,0.3-0.1,0.4c0,0.2-0.1,0.3-0.2,0.3L51,53.6h-0.1h-0.1c-0.1,0-0.1,0-0.2,0
		c-0.1,0-0.1,0-0.2,0h-0.8h-4.5c-0.2,0-0.3,0-0.5,0s-0.3,0-0.5,0s-0.3,0.1-0.4,0.1c-0.1,0.1-0.2,0.2-0.2,0.4c0,0.1,0,0.2,0,0.4
		c0,0.1,0,0.3,0,0.4v1.5v2.6c0,0.3,0,0.5,0,0.7s0.1,0.4,0.2,0.4c0.1,0.1,0.2,0.1,0.3,0.1c0.1,0,0.3,0,0.4,0h1.4h3.9h1.2
		c0.1,0,0.2,0,0.3,0c0.1,0,0.2,0,0.3,0c0.2,0.1,0.3,0.2,0.3,0.3c0,0.1,0,0.1,0.1,0.3c0.1,0.2,0,0.3,0,0.4c0,0.1,0,0.3,0,0.4
		c0,0.1,0,0.2,0,0.3c-0.1,0.1-0.1,0.2-0.2,0.3c-0.1,0.1-0.2,0.1-0.3,0.1c-0.1,0-0.3,0-0.4,0h-1.5H44h-1.5c-0.2,0-0.4,0-0.5,0
		c-0.1,0-0.2-0.1-0.3-0.3c-0.1-0.1-0.1-0.2-0.1-0.4c0-0.2,0-0.3,0-0.5v-1.9v-6.7v-5.9v-1.7c0-0.2,0-0.3,0-0.5s0-0.3,0.1-0.4
		c0.1-0.1,0.2-0.2,0.3-0.3C42.1,43.7,42.2,43.7,42.3,43.7C42.2,43.7,42.2,43.7,42.3,43.7z"/>
	<path style="fill:#010101;" d="M55.2,43.7h1.3c0.1,0,0.3,0,0.4,0c0.1,0,0.2,0,0.3,0.1c0.1,0.1,0.2,0.3,0.3,0.4
		c0,0.2,0.1,0.4,0.2,0.6c0.1,0.3,0.2,0.7,0.3,1c0.1,0.3,0.2,0.7,0.3,1c0.1,0.3,0.2,0.6,0.3,1c0.1,0.3,0.2,0.7,0.3,1
		c0.1,0.3,0.2,0.5,0.2,0.8c0.1,0.3,0.1,0.5,0.2,0.8c0.3,0.8,0.5,1.6,0.7,2.4s0.5,1.6,0.7,2.4c0,0.1,0.1,0.2,0.1,0.3
		c0,0.1,0,0.2,0.1,0.3c0.1,0.4,0.2,0.8,0.4,1.2c0.1,0.4,0.2,0.8,0.4,1.2c0.1,0.2,0.1,0.4,0.2,0.6c0.1,0.2,0.1,0.4,0.3,0.4
		c0.1,0,0.1,0,0.1,0l0.1-0.1c0.1-0.1,0.1-0.2,0.2-0.3c0-0.1,0.1-0.2,0.1-0.3c0.1-0.4,0.2-0.8,0.3-1.1c0.1-0.4,0.2-0.8,0.3-1.1
		c0-0.1,0.1-0.2,0.1-0.3c0-0.1,0.1-0.2,0.1-0.3c0.1-0.3,0.2-0.7,0.3-1c0.1-0.3,0.2-0.7,0.3-1.1c0.3-1,0.7-2.1,0.9-3.1
		c0.3-1.1,0.6-2.1,0.9-3.1c0.1-0.4,0.2-0.7,0.3-1.1c0.1-0.4,0.2-0.7,0.3-1.1c0.1-0.1,0.1-0.3,0.2-0.5c0-0.2,0.1-0.4,0.2-0.5
		c0.1-0.1,0.2-0.1,0.3-0.2c0.1,0,0.3-0.1,0.5-0.1c0.2,0,0.3,0,0.5,0c0.2,0,0.3,0,0.5,0c0.1,0,0.3,0,0.4,0c0.1,0,0.2,0,0.3,0.1
		c0.1,0.1,0.2,0.3,0.2,0.5s0,0.5,0,0.8v3v11.1v2c0,0.2,0,0.4,0,0.6s0,0.3-0.1,0.5c0,0.1-0.1,0.2-0.2,0.2s-0.2,0.1-0.3,0.1h-0.3
		c-0.2,0-0.4,0-0.5,0s-0.3-0.1-0.3-0.2c0-0.1,0-0.1-0.1-0.2c0-0.1,0-0.1-0.1-0.2v-0.3c0-0.1,0-0.2,0-0.4c0-0.1,0-0.3,0-0.4v-1.5
		v-7.8c0-0.4,0-0.9,0-1.4c0-0.5,0-0.9,0-1.3c0-0.2,0-0.4,0-0.6c0-0.2-0.1-0.3-0.2-0.3l0,0c-0.1,0-0.2,0.2-0.2,0.3
		c-0.1,0.2-0.1,0.4-0.2,0.5c-0.1,0.3-0.2,0.6-0.3,0.9c-0.1,0.3-0.2,0.6-0.3,0.9c0,0.1,0,0.2-0.1,0.2c0,0.1,0,0.2-0.1,0.2
		c-0.1,0.3-0.2,0.6-0.3,1c-0.1,0.3-0.2,0.7-0.3,1c-0.1,0.3-0.2,0.5-0.3,0.8c-0.1,0.3-0.1,0.6-0.2,0.8c-0.3,0.8-0.5,1.7-0.8,2.5
		c-0.2,0.9-0.5,1.7-0.7,2.5c-0.1,0.3-0.2,0.6-0.3,1c-0.1,0.4-0.2,0.6-0.3,1c-0.1,0.2-0.1,0.4-0.2,0.6c-0.1,0.2-0.2,0.3-0.4,0.4h-0.1
		h-0.1h-0.1c-0.1,0-0.1,0-0.2,0c-0.1,0-0.3,0-0.4,0c-0.1,0-0.3,0-0.3-0.1c-0.1-0.1-0.2-0.2-0.2-0.4c0-0.2-0.1-0.3-0.2-0.5
		c-0.1-0.4-0.2-0.7-0.3-1.1c-0.1-0.4-0.2-0.8-0.3-1.1c-0.1-0.3-0.2-0.6-0.3-1c-0.1-0.3-0.2-0.7-0.3-1c-0.3-1-0.6-2-0.9-3
		s-0.6-2-0.9-3c-0.1-0.4-0.2-0.8-0.3-1.1c-0.1-0.4-0.2-0.8-0.3-1.1c-0.1-0.2-0.1-0.4-0.2-0.6c0-0.2-0.1-0.4-0.2-0.5v-0.1l0,0h-0.1
		l0,0l0,0c0,0.1,0,0.2,0,0.3c0,0.1,0,0.2,0,0.3V49c0,0.1,0,0.2,0,0.3c0,0.1,0,0.3,0,0.4v1.4v8.1v2.1c0,0.2,0,0.4,0,0.6
		s0,0.3-0.1,0.5c-0.1,0.1-0.2,0.2-0.4,0.2c-0.2,0-0.4,0-0.6,0c-0.1,0-0.2,0-0.3,0c-0.1,0-0.2,0-0.2-0.1c-0.2-0.1-0.3-0.2-0.3-0.5
		c0-0.2,0-0.5,0-0.8v-3.1V47.5v-2.5c0-0.2,0-0.4,0-0.6c0-0.2,0-0.4,0.1-0.5C55.1,43.9,55.2,43.8,55.2,43.7
		C55.1,43.7,55.1,43.7,55.2,43.7L55.2,43.7z"/>
	<path style="fill:#010101;" d="M86.4,52.8c0,0.1,0,0.2,0,0.4c0,0.2,0,0.3,0,0.4v0.3c0,0.2,0,0.4,0,0.6s0,0.4,0,0.5
		c0,0.1,0,0.3-0.1,0.4c0,0.1,0,0.3,0,0.4c-0.1,0.3-0.1,0.6-0.2,0.9C86,57,86,57.2,85.9,57.4c-0.4,1.3-1,2.4-1.7,3.3
		c-0.7,0.9-1.6,1.5-2.7,2c-0.2,0.1-0.3,0.1-0.5,0.1c-0.2,0-0.3,0.1-0.5,0.1c-0.1,0-0.1,0-0.2,0c-0.1,0-0.1,0-0.2,0L79.4,63
		c0,0-0.1,0-0.3,0c-0.1,0-0.2,0-0.3,0c-0.1,0-0.1,0-0.2,0c-0.1,0-0.1,0-0.2,0h-0.2c-0.1,0-0.2-0.1-0.3-0.1c-0.1,0-0.2,0-0.3,0
		c-0.1-0.1-0.3-0.1-0.4-0.1s-0.3-0.1-0.4-0.1c-0.1-0.1-0.3-0.1-0.4-0.2c-0.1-0.1-0.3-0.1-0.4-0.2c-0.9-0.5-1.6-1.1-2.1-2
		c-0.6-0.8-1-1.8-1.4-3c-0.1-0.3-0.1-0.5-0.2-0.8c0-0.3-0.1-0.5-0.2-0.8c0-0.1,0-0.1,0-0.2c0-0.1,0-0.1,0-0.2c0-0.1,0-0.3,0-0.4
		c0-0.1,0-0.3,0-0.4c0-0.1,0-0.1,0-0.2c0-0.1,0-0.1,0-0.2v-0.6c0-0.1,0-0.2,0-0.4s0-0.3,0-0.4v-0.3l0.1-1c0-0.1,0-0.2,0-0.3
		c0-0.1,0-0.2,0-0.3c0.1-0.3,0.1-0.6,0.1-0.8c0-0.3,0.1-0.5,0.2-0.8c0.1-0.3,0.2-0.7,0.3-1c0.1-0.3,0.2-0.6,0.4-0.9
		c0.4-0.8,0.9-1.5,1.4-2.1c0.5-0.6,1.2-1.1,1.9-1.4c0.2-0.1,0.3-0.2,0.5-0.2c0.2-0.1,0.4-0.1,0.5-0.2c0.1,0,0.2-0.1,0.3-0.1
		c0.1,0,0.2,0,0.3-0.1c0.1,0,0.2,0,0.3,0c0.1,0,0.2,0,0.3,0h0.1H79c0.9,0,1.8,0.1,2.5,0.4c0.7,0.3,1.3,0.7,1.9,1.1
		c0.2,0.2,0.4,0.4,0.6,0.6c0.2,0.2,0.4,0.4,0.5,0.7c0,0.1,0.1,0.2,0.1,0.2c0.1,0.1,0.1,0.1,0.1,0.2c0.1,0.1,0.2,0.3,0.3,0.4
		c0.1,0.2,0.2,0.3,0.2,0.4s0.1,0.2,0.1,0.2c0,0.1,0.1,0.1,0.1,0.2c0.1,0.1,0.1,0.2,0.1,0.3c0.1,0.3,0.2,0.7,0.3,1
		c0,0.1,0.1,0.2,0.1,0.3s0,0.2,0.1,0.3c0,0.2,0.1,0.4,0.1,0.6c0,0.2,0.1,0.4,0.1,0.6c0,0.1,0,0.2,0,0.3c0,0.1,0,0.2,0,0.3
		c0,0.1,0,0.3,0,0.4s0,0.3,0,0.4v0.2c0,0.1,0,0.2,0,0.3C86.4,52.6,86.4,52.7,86.4,52.8z M84.4,53.6c0-0.1,0-0.2,0-0.5
		c0-0.3,0-0.4,0-0.5v-0.2c0-0.1,0-0.2,0-0.2c0-0.1,0-0.2,0-0.2c0-0.1,0-0.2,0-0.3c0-0.1,0-0.2,0-0.3c0-0.2-0.1-0.3-0.1-0.5
		s0-0.3-0.1-0.5c-0.1-0.3-0.1-0.5-0.2-0.7c0-0.2-0.1-0.4-0.2-0.7c-0.2-0.7-0.6-1.4-1-2s-0.9-1-1.5-1.4c-0.3-0.2-0.7-0.3-1.1-0.4
		c-0.2-0.1-0.4-0.1-0.7-0.1c-0.2,0-0.5,0-0.7,0c-0.1,0-0.2,0-0.3,0c-0.1,0-0.2,0-0.3,0c-0.2,0.1-0.4,0.1-0.6,0.2
		c-0.2,0.1-0.4,0.1-0.6,0.2c-0.8,0.4-1.4,1-1.8,1.8c-0.4,0.8-0.8,1.7-1.1,2.7c-0.1,0.2-0.1,0.4-0.1,0.6c0,0.2-0.1,0.4-0.1,0.6
		c0,0.1,0,0.2,0,0.3c0,0.1,0,0.2,0,0.3c0,0.1,0,0.1,0,0.2c0,0.1,0,0.2,0,0.2v0.2c0,0.1,0,0.3,0,0.5s0,0.4,0,0.5s0,0.1,0,0.2
		c0,0.1,0,0.1,0,0.2c0,0.1,0,0.3,0.1,0.5c0,0.2,0,0.3,0.1,0.5c0,0.1,0,0.1,0,0.2c0,0.1,0,0.1,0,0.2c0,0.2,0.1,0.4,0.1,0.6
		s0.1,0.4,0.1,0.6s0.1,0.4,0.2,0.6c0,0.2,0.1,0.4,0.2,0.6c0.1,0.1,0.1,0.3,0.2,0.4c0.1,0.1,0.1,0.3,0.2,0.4c0.4,0.8,1,1.4,1.7,1.9
		c0.2,0.1,0.4,0.3,0.6,0.3c0.2,0.1,0.4,0.2,0.7,0.2c0.1,0,0.2,0,0.3,0c0.1,0,0.2,0,0.3,0c0.1,0,0.2,0,0.3,0c0.1,0,0.2,0,0.3,0h0.2
		c0.1,0,0.1,0,0.2,0c0.1,0,0.1,0,0.2,0c0.2-0.1,0.4-0.1,0.6-0.1c0.2,0,0.3-0.1,0.5-0.2c0.7-0.4,1.3-0.9,1.8-1.5
		c0.5-0.6,0.8-1.4,1.1-2.3c0.1-0.2,0.1-0.5,0.2-0.7c0-0.3,0.1-0.5,0.2-0.8c0-0.1,0-0.2,0.1-0.3c0-0.1,0-0.2,0.1-0.4l0.1-0.9v0H84.4z
		"/>
	<path style="fill:#010101;" d="M93.6,43.3c0.8,0,1.5,0,2.1,0.2c0.6,0.2,1.2,0.5,1.7,0.9c0.1,0.1,0.2,0.1,0.2,0.2
		c0.1,0.1,0.2,0.1,0.2,0.2l0.1,0.1L98,45l0.1,0.1l0.1,0.1c0.1,0.1,0.1,0.2,0.2,0.3c0.1,0.1,0.1,0.2,0.2,0.3c0.1,0.1,0.1,0.2,0.1,0.3
		c0,0.1,0.1,0.2,0.1,0.3c0.1,0.3,0.2,0.5,0.3,0.8c0.1,0.3,0.1,0.6,0.2,1c0,0.1,0,0.3,0,0.5s0,0.3-0.1,0.4c-0.1,0.1-0.2,0.2-0.3,0.2
		c-0.2,0-0.3,0-0.5,0c-0.1,0-0.1,0-0.2,0s-0.1,0-0.2,0c-0.1,0-0.1,0-0.2,0c0,0-0.1,0-0.2-0.1c0,0-0.1,0-0.1-0.1l-0.1-0.1
		c-0.1-0.2-0.1-0.4-0.2-0.6c0-0.2-0.1-0.4-0.2-0.6c-0.2-0.7-0.6-1.3-1-1.6c-0.3-0.3-0.7-0.5-1.2-0.6c-0.1,0-0.2-0.1-0.3-0.1
		c-0.1,0-0.2,0-0.3-0.1H94c-0.1,0-0.2-0.1-0.3-0.1s-0.2,0-0.3,0c-0.7,0-1.4,0.1-1.8,0.4c-0.3,0.1-0.5,0.3-0.8,0.6
		c-0.2,0.2-0.4,0.5-0.5,0.9c-0.1,0.1-0.1,0.3-0.1,0.4c0,0.2,0,0.3-0.1,0.5c0,0.1,0,0.3,0,0.5s0,0.3,0.1,0.5c0.1,0.4,0.2,0.7,0.4,0.9
		c0.1,0.2,0.4,0.4,0.6,0.6c0.3,0.3,0.7,0.4,1,0.6c0.4,0.1,0.8,0.3,1.2,0.4c0.1,0,0.3,0.1,0.4,0.1c0.1,0,0.3,0.1,0.4,0.1
		c0.2,0.1,0.4,0.1,0.6,0.2c0.2,0,0.4,0.1,0.6,0.2c0.1,0,0.1,0,0.1,0h0.1c0.1,0,0.3,0.1,0.4,0.1c0.1,0,0.3,0.1,0.4,0.1
		c0.3,0.1,0.6,0.3,0.8,0.4c0.3,0.1,0.5,0.3,0.8,0.5c0.3,0.3,0.6,0.5,0.8,0.9c0.2,0.3,0.4,0.7,0.6,1.2c0.1,0.2,0.1,0.3,0.1,0.5
		s0.1,0.3,0.1,0.5c0,0.1,0,0.2,0,0.3c0,0.1,0,0.2,0,0.3v0.5v0.2c0,0.1,0,0.1,0,0.2c0,0.1,0,0.1,0,0.2c0,0.1,0,0.3-0.1,0.4
		c0,0.2,0,0.3-0.1,0.4c-0.1,0.3-0.1,0.5-0.2,0.8c-0.1,0.3-0.2,0.5-0.3,0.7c-0.2,0.5-0.5,0.9-0.9,1.2c-0.4,0.3-0.8,0.6-1.2,0.9
		c-0.1,0.1-0.3,0.1-0.4,0.2c-0.1,0.1-0.3,0.1-0.4,0.2c-0.2,0.1-0.3,0.1-0.5,0.1s-0.3,0.1-0.5,0.1c-0.1,0-0.1,0-0.2,0s-0.2,0-0.2,0
		c-0.1,0-0.2,0-0.3,0c-0.1,0-0.2,0-0.3,0c-0.1,0-0.2,0-0.3,0c-0.1,0-0.2,0-0.3,0h-0.2c-0.1,0-0.3-0.1-0.4-0.1c-0.1,0-0.3,0-0.4-0.1
		c-0.1,0-0.1,0-0.2,0s-0.1,0-0.2,0c-0.2,0-0.3-0.1-0.4-0.1c-0.1,0-0.3-0.1-0.4-0.2c-0.7-0.3-1.3-0.7-1.8-1.1c-0.5-0.4-0.9-1-1.2-1.7
		c-0.1-0.2-0.2-0.5-0.3-0.7c-0.1-0.2-0.2-0.5-0.2-0.8c0-0.1,0-0.2-0.1-0.3c0-0.1,0-0.2-0.1-0.3c0-0.2,0-0.3,0-0.6
		c0-0.2,0-0.4,0.1-0.4c0.1-0.1,0.2-0.2,0.4-0.2c0.2,0,0.3,0,0.5,0c0.1,0,0.1,0,0.2,0s0.1,0,0.2,0c0.1,0,0.1,0,0.2,0h0.1
		c0.1,0.1,0.2,0.1,0.2,0.2c0,0.1,0.1,0.2,0.1,0.3c0,0.1,0,0.2,0.1,0.3c0,0.1,0.1,0.3,0.1,0.4c0,0.1,0.1,0.3,0.1,0.4
		c0.2,0.8,0.6,1.4,1.1,1.8c0.2,0.2,0.5,0.4,0.8,0.6c0.3,0.1,0.6,0.3,0.9,0.4c0.1,0,0.2,0.1,0.3,0.1c0.1,0,0.2,0,0.3,0.1h0.1h0.1
		c0.1,0,0.1,0,0.2,0s0.2,0,0.2,0c0.1,0,0.1,0,0.2,0s0.2,0,0.3-0.1h0.1c0.1,0,0.1,0,0.2,0c0.1,0,0.1,0,0.2,0h0.1H95
		c0.1,0,0.2-0.1,0.4-0.1c0.1,0,0.2-0.1,0.4-0.1c0.4-0.2,0.7-0.4,1-0.7c0.3-0.3,0.5-0.6,0.7-1.1c0-0.1,0.1-0.3,0.1-0.4
		c0-0.1,0.1-0.3,0.1-0.4c0-0.1,0-0.3,0-0.5c0-0.2,0-0.4,0-0.5c0-0.1,0-0.2,0-0.2s0-0.1,0-0.2c-0.1-0.3-0.2-0.6-0.3-0.8
		c-0.1-0.2-0.3-0.4-0.5-0.6c-0.3-0.3-0.6-0.5-1-0.6c-0.4-0.2-0.8-0.3-1.2-0.4c-0.4-0.1-0.8-0.2-1.2-0.3c-0.4-0.1-0.8-0.2-1.2-0.4
		c-0.2-0.1-0.5-0.2-0.7-0.2c-0.2-0.1-0.4-0.1-0.6-0.3c0,0,0,0-0.1,0c-0.1,0,0,0-0.1,0c-0.1-0.1-0.3-0.1-0.4-0.2
		c-0.1-0.1-0.3-0.2-0.4-0.3c-0.3-0.3-0.6-0.5-0.9-0.8c-0.3-0.3-0.5-0.7-0.6-1.1c-0.1-0.2-0.1-0.3-0.1-0.5s-0.1-0.4-0.1-0.6
		c0-0.1,0-0.1,0-0.2s0-0.1,0-0.2c0-0.2,0-0.5,0-0.8c0-0.3,0.1-0.6,0.1-0.8s0.1-0.4,0.1-0.6c0-0.2,0.1-0.3,0.1-0.5
		c0.2-0.5,0.5-1,0.8-1.4c0.3-0.4,0.7-0.7,1-1l0.1-0.1c0,0,0.1,0,0.1-0.1c0.3-0.2,0.7-0.4,1.1-0.5c0.1,0,0.2-0.1,0.3-0.1
		c0.1,0,0.2-0.1,0.3-0.1c0.1,0,0.2-0.1,0.4-0.1c0.1,0,0.3,0,0.4-0.1c0,0,0.1,0,0.2,0C93.6,43.3,93.6,43.3,93.6,43.3z"/>
	<path style="fill:#010101;" d="M108.9,43.7c0.2,0,0.4,0,0.7,0c0.3,0,0.5,0.1,0.5,0.2c0.1,0.2,0.2,0.4,0.2,0.7c0,0.3,0,0.6,0,0.9v4
		v5c0,0.6,0,1.2,0,1.8c0,0.6,0.1,1.1,0.2,1.6c0.2,0.7,0.4,1.3,0.8,1.7c0.3,0.4,0.8,0.8,1.3,1.1c0.2,0.1,0.3,0.1,0.5,0.2
		c0.2,0,0.3,0.1,0.5,0.1c0.1,0,0.2,0,0.3,0c0.1,0,0.2,0,0.3,0h0.2c0.1,0,0.2,0,0.3,0c0.1,0,0.2,0,0.2,0c0.1,0,0.1,0,0.2,0
		c0.1,0,0.2,0,0.2,0c0.2-0.1,0.3-0.1,0.5-0.1c0.2,0,0.3-0.1,0.5-0.2c0.5-0.3,1-0.6,1.3-1c0.3-0.4,0.5-1,0.7-1.7
		c0.1-0.4,0.2-1,0.2-1.5c0-0.6,0-1.1,0-1.7v-4.4v-4.6c0-0.3,0-0.6,0-1c0-0.4,0-0.7,0.2-0.8c0.1-0.1,0.2-0.2,0.4-0.2
		c0.2,0,0.4,0,0.6,0c0.1,0,0.1,0,0.2,0c0.1,0,0.1,0,0.2,0c0.2,0.1,0.3,0.1,0.4,0.3c0.1,0.1,0.1,0.3,0.1,0.6s0,0.5,0,0.7V49v5.5
		c0,0.7,0,1.3,0,2c0,0.6-0.1,1.2-0.2,1.7c-0.2,0.9-0.5,1.6-0.8,2.2c-0.3,0.6-0.7,1.1-1.3,1.6c-0.2,0.2-0.4,0.3-0.7,0.4
		c-0.2,0.1-0.5,0.2-0.8,0.3c-0.1,0.1-0.3,0.1-0.4,0.1s-0.3,0.1-0.4,0.1s-0.3,0.1-0.4,0.1s-0.3,0-0.4,0.1h-0.3c-0.1,0-0.2,0-0.3,0
		s-0.3,0-0.3,0h-0.3c-0.1,0-0.2,0-0.3,0c-0.1,0-0.2,0-0.3,0h-0.2c-0.1,0-0.2-0.1-0.3-0.1c-0.1,0-0.2,0-0.3-0.1
		c-0.2-0.1-0.5-0.2-0.7-0.3c-0.2-0.1-0.5-0.2-0.7-0.3c-0.1-0.1-0.2-0.1-0.3-0.2c-0.1-0.1-0.2-0.2-0.3-0.2c-0.4-0.3-0.8-0.7-1.1-1.2
		c-0.3-0.5-0.5-1-0.7-1.6c-0.1-0.3-0.1-0.5-0.2-0.8c-0.1-0.3-0.1-0.6-0.1-0.9c0-0.1,0-0.3,0-0.4c0-0.1,0-0.3,0-0.4v-0.3
		c0-0.1,0-0.3,0-0.4c0-0.2,0-0.3,0-0.4v-1.7v-6.9v-1.8c0-0.2,0-0.3,0-0.5s0-0.3,0.1-0.4s0.2-0.2,0.3-0.3
		C108.8,43.7,108.8,43.7,108.9,43.7z"/>
	<path style="fill:#010101;" d="M124.1,43.7c0.3,0,0.5,0,0.8,0c0.3,0,0.5,0.1,0.7,0.2c0.1,0.1,0.2,0.3,0.3,0.5
		c0.1,0.2,0.2,0.4,0.3,0.6c0.2,0.4,0.4,0.7,0.6,1.1c0.2,0.4,0.4,0.7,0.6,1.1c0.1,0.2,0.2,0.4,0.3,0.6c0.1,0.2,0.2,0.4,0.3,0.6
		c0.4,0.9,0.9,1.7,1.3,2.6c0.4,0.9,0.9,1.7,1.3,2.6c0.1,0.3,0.2,0.5,0.4,0.7c0.1,0.2,0.3,0.5,0.4,0.7c0.2,0.5,0.5,1,0.7,1.4
		c0.2,0.5,0.5,0.9,0.7,1.4c0.1,0.1,0.2,0.3,0.3,0.5c0.1,0.2,0.2,0.3,0.4,0.3c0.1,0,0.1-0.1,0.1-0.1c0.1-0.1,0.1-0.3,0.1-0.5
		s0-0.4,0-0.6v-2.1V47v-1.6c0-0.1,0-0.3,0-0.4c0-0.1,0-0.3,0-0.4v-0.3c0-0.1,0-0.1,0.1-0.2c0-0.1,0-0.1,0.1-0.2
		c0.1-0.1,0.2-0.2,0.4-0.2c0.2,0,0.4,0,0.6,0c0.1,0,0.2,0,0.3,0c0.1,0,0.2,0,0.2,0.1c0.2,0.1,0.3,0.2,0.3,0.5c0,0.2,0,0.5,0,0.8v3
		v11.1v2.1c0,0.2,0,0.4,0,0.6s0,0.3-0.1,0.5c-0.1,0.1-0.1,0.2-0.2,0.2s-0.2,0.1-0.3,0.1h-0.6c-0.2,0-0.3,0-0.5,0
		c-0.2,0-0.3,0-0.4-0.1c-0.1-0.1-0.2-0.1-0.3-0.3c-0.1-0.1-0.1-0.3-0.2-0.4c-0.1-0.2-0.2-0.4-0.4-0.7c-0.1-0.2-0.2-0.5-0.4-0.7
		c-0.5-1-1-1.9-1.5-2.9c-0.5-0.9-1-1.9-1.5-2.9c-0.3-0.5-0.5-1.1-0.8-1.6s-0.5-1-0.8-1.6c-0.5-0.9-1-1.9-1.5-2.8
		c-0.1-0.1-0.1-0.2-0.2-0.4c-0.1-0.1-0.1-0.2-0.2-0.3c0,0-0.1,0-0.1-0.1h-0.1c-0.1,0-0.1,0.1-0.1,0.2s0,0.2-0.1,0.3v0.2
		c0,0.1,0,0.3,0,0.4c0,0.2,0,0.3,0,0.4v1.9v8.4v1.3c0,0.1,0,0.2,0,0.3c0,0.1,0,0.2,0,0.3v0.2c0,0.2-0.1,0.3-0.1,0.4
		c0,0.1-0.1,0.1-0.1,0.2c-0.1,0-0.1,0.1-0.2,0.1h-0.5c-0.2,0-0.4,0-0.5,0c-0.2,0-0.3-0.1-0.3-0.2c-0.1-0.1-0.1-0.3-0.1-0.4
		c0-0.1,0-0.4,0-0.6v-2.2V48v-2.9c0-0.2,0-0.4,0-0.7s0-0.4,0.1-0.6C123.7,43.8,123.8,43.7,124.1,43.7L124.1,43.7
		C124,43.7,124.1,43.7,124.1,43.7z"/>
	<path style="fill:#010101;" d="M150.4,61.2c0,0.1,0.1,0.2,0.1,0.3c0,0.1,0.1,0.3,0.1,0.4c0,0.1,0,0.3,0,0.4c0,0.1-0.1,0.2-0.2,0.3
		c-0.1,0-0.2,0.1-0.3,0.1c-0.1,0-0.2,0-0.3,0c-0.2,0-0.4,0-0.6,0s-0.4,0-0.5-0.1c-0.1-0.1-0.2-0.3-0.3-0.6c-0.1-0.3-0.1-0.5-0.2-0.7
		c-0.2-0.5-0.3-0.9-0.4-1.4c-0.1-0.5-0.3-1-0.4-1.5c0-0.2-0.1-0.3-0.1-0.5c0-0.1-0.1-0.3-0.1-0.4c0-0.1-0.1-0.2-0.2-0.3
		c-0.1-0.1-0.2-0.2-0.3-0.2c-0.1,0-0.2,0-0.2,0c-0.1,0-0.2,0-0.3,0h-4c-0.1,0-0.3,0-0.4,0c-0.2,0-0.3,0-0.4,0c-0.1,0-0.3,0-0.4,0.1
		c-0.1,0-0.2,0.1-0.3,0.2c-0.1,0.2-0.2,0.4-0.2,0.6c0,0.2-0.1,0.5-0.2,0.7c-0.1,0.4-0.3,0.8-0.4,1.3c-0.1,0.4-0.3,0.9-0.4,1.3
		c0,0.1-0.1,0.2-0.1,0.4s-0.1,0.3-0.1,0.4c0,0.1-0.1,0.3-0.1,0.4c0,0.1-0.1,0.2-0.2,0.3c-0.1,0.1-0.3,0.2-0.5,0.2
		c-0.2,0-0.4,0-0.6,0c-0.1,0-0.2,0-0.3,0c-0.1,0-0.2,0-0.3-0.1c-0.1-0.1-0.1-0.1-0.1-0.2c0-0.1,0-0.2,0-0.3c0-0.1,0-0.2,0.1-0.3
		c0-0.1,0.1-0.2,0.1-0.3c0.2-0.6,0.4-1.1,0.5-1.7c0.2-0.6,0.3-1.1,0.5-1.7c0.1-0.4,0.2-0.8,0.4-1.2c0.1-0.4,0.2-0.8,0.4-1.2
		c0.4-1.3,0.8-2.6,1.2-3.9c0.4-1.3,0.8-2.6,1.2-3.9c0.2-0.5,0.3-0.9,0.4-1.4c0.1-0.5,0.3-1,0.4-1.4c0.1-0.2,0.1-0.4,0.2-0.7
		c0.1-0.2,0.2-0.4,0.3-0.5c0.1-0.1,0.1-0.1,0.3-0.2h0.1h0.1c0.3,0,0.6,0,0.9,0c0.3,0,0.6,0.1,0.7,0.2c0.1,0.1,0.2,0.3,0.3,0.5
		c0.1,0.2,0.1,0.5,0.2,0.7c0.1,0.4,0.3,0.8,0.4,1.2c0.1,0.4,0.2,0.8,0.4,1.2c0.1,0.4,0.2,0.7,0.3,1.1c0.1,0.4,0.2,0.7,0.4,1.1
		c0.4,1.3,0.8,2.6,1.2,4c0.4,1.3,0.8,2.7,1.2,4c0.1,0.2,0.1,0.3,0.1,0.5c0,0.1,0.1,0.3,0.1,0.5c0.2,0.5,0.3,0.9,0.5,1.4
		C150.1,60.3,150.3,60.7,150.4,61.2z M145.9,54.8c0.1-0.1,0.2-0.1,0.2-0.3c0-0.1,0-0.3,0-0.4c0-0.2-0.1-0.3-0.1-0.5
		c0-0.2-0.1-0.3-0.1-0.4s0-0.1,0-0.2c0-0.1,0-0.1,0-0.2s-0.1-0.3-0.1-0.4c0-0.2-0.1-0.3-0.1-0.5c-0.2-0.6-0.4-1.3-0.6-2
		c-0.2-0.7-0.4-1.3-0.6-2c-0.1-0.2-0.1-0.4-0.2-0.6c0-0.2-0.1-0.4-0.2-0.6c0-0.1-0.1-0.2-0.1-0.3c0-0.1-0.1-0.1-0.2-0.1l-0.1,0.1
		c0,0-0.1,0-0.1,0.1c-0.1,0.1-0.1,0.2-0.1,0.3c0,0.1-0.1,0.2-0.1,0.3c-0.1,0.2-0.1,0.4-0.2,0.6c-0.1,0.2-0.1,0.4-0.2,0.6
		c-0.2,0.7-0.4,1.4-0.6,2.1c-0.2,0.7-0.4,1.4-0.6,2.1c0,0.1-0.1,0.2-0.1,0.3c0,0.1,0,0.2-0.1,0.3c0,0.1-0.1,0.3-0.1,0.4
		c0,0.1-0.1,0.3-0.1,0.4c0,0.1,0,0.2,0,0.3c0,0.1,0,0.2,0.1,0.3c0.1,0.1,0.2,0.2,0.4,0.2c0.2,0,0.4,0,0.6,0h2.3c0.2,0,0.3,0,0.6,0
		C145.6,54.9,145.8,54.8,145.9,54.8z"/>
	<path style="fill:#010101;" d="M169.3,48.7c0,0.1,0,0.3,0,0.6s0,0.4,0,0.6c0,0.1,0,0.2,0,0.3c0,0.1,0,0.2,0,0.3
		c0,0.1,0,0.2-0.1,0.3c0,0.1,0,0.2-0.1,0.3c0,0.1-0.1,0.3-0.1,0.4c0,0.1-0.1,0.3-0.1,0.4c0,0.1,0,0.1-0.1,0.1c0,0,0,0.1-0.1,0.1
		c-0.2,0.4-0.3,0.7-0.5,1c0,0.1-0.1,0.1-0.1,0.2c-0.1,0.1-0.1,0.1-0.2,0.2c-0.1,0-0.1,0.1-0.1,0.1c0,0.1-0.1,0.1-0.1,0.1l-0.4,0.3
		c-0.2,0.1-0.3,0.3-0.6,0.3c-0.2,0.1-0.4,0.1-0.6,0.2c-0.1,0-0.2,0.1-0.3,0.1c-0.1,0-0.2,0-0.3,0.1c-0.1,0-0.1,0-0.2,0h-0.1
		c-0.1,0-0.1,0-0.2,0s-0.1,0-0.2,0h-3.2c-0.2,0-0.4,0-0.7,0c-0.2,0-0.4,0-0.6,0.2c-0.2,0.1-0.2,0.4-0.2,0.8s0,0.7,0,1v3.9
		c0,0.2,0,0.5,0,0.9c0,0.3,0,0.6-0.1,0.7c-0.1,0.1-0.1,0.2-0.2,0.2c-0.1,0-0.2,0.1-0.3,0.1h-0.4c-0.2,0-0.4,0-0.6,0
		c-0.2,0-0.3-0.1-0.4-0.3c-0.1-0.1-0.1-0.3-0.1-0.4c0-0.2,0-0.4,0-0.6V45.2c0-0.2,0-0.4,0-0.7c0-0.2,0-0.4,0.1-0.6
		c0.1-0.1,0.2-0.2,0.3-0.3h0.1h0.1h4.8c0.5,0,1.1,0,1.6,0c0.5,0,1,0.1,1.4,0.3c0.6,0.3,1.2,0.6,1.5,1c0.4,0.4,0.7,1,1,1.8
		c0.1,0.2,0.1,0.4,0.2,0.6c0,0.2,0.1,0.4,0.1,0.7c0,0.1,0,0.2,0,0.3C169.3,48.4,169.3,48.5,169.3,48.7z M167.3,49.6
		c0.1-0.3,0.1-0.5,0-0.9c0-0.3-0.1-0.6-0.1-0.8c-0.1-0.5-0.3-0.9-0.6-1.2c-0.2-0.3-0.5-0.5-0.9-0.7c-0.3-0.2-0.7-0.3-1.1-0.3
		c-0.4,0-0.8-0.1-1.3-0.1h-2.7h-0.1h-0.1c-0.2,0.1-0.3,0.2-0.3,0.3c-0.1,0.2-0.1,0.4-0.1,0.7c0,0.3,0,0.6,0,0.8v3.2
		c0,0.3,0,0.6,0,0.9c0,0.3,0,0.6,0.1,0.8c0.1,0.1,0.2,0.2,0.3,0.3c0.1,0,0.3,0,0.5,0h2.9c0.2,0,0.4,0,0.7,0c0.2,0,0.4,0,0.6-0.1
		c0.4-0.1,0.7-0.3,1-0.4c0.3-0.1,0.5-0.4,0.7-0.8c0.1-0.2,0.2-0.4,0.3-0.7s0.1-0.5,0.2-0.8C167.3,49.9,167.3,49.8,167.3,49.6z"/>
	<path style="fill:#010101;" d="M183.5,61.9c0.1,0.2,0,0.4-0.1,0.5c-0.1,0.1-0.2,0.1-0.3,0.1c-0.1,0-0.2,0-0.3,0c-0.2,0-0.5,0-0.7,0
		c-0.2,0-0.4-0.1-0.5-0.2c-0.1-0.1-0.2-0.2-0.2-0.4c0-0.2-0.1-0.4-0.1-0.6c0-0.1,0-0.1,0-0.2c0-0.1,0-0.1,0-0.2c0-0.1,0-0.2,0-0.2
		c0-0.1,0-0.1,0-0.2c0-0.1,0-0.2,0-0.3c0-0.1,0-0.2,0-0.3l-0.1-1.2c0-0.1,0-0.3,0-0.4c0-0.1,0-0.3,0-0.4c-0.1-0.3-0.1-0.6-0.2-1
		s-0.1-0.6-0.2-0.9c-0.3-0.8-0.7-1.3-1.3-1.5c-0.2-0.1-0.4-0.1-0.6-0.1s-0.5,0-0.7,0h-3.9c-0.1,0-0.2,0.1-0.3,0.1
		c-0.1,0-0.1,0.1-0.2,0.2c-0.1,0.2-0.1,0.5-0.1,0.9s0,0.8,0,1.1v3.9c0,0.3,0,0.6,0,0.9c0,0.4,0,0.6-0.1,0.8c0,0.1-0.1,0.2-0.2,0.2
		s-0.1,0.1-0.2,0.1c0,0-0.1,0-0.2,0.1c-0.1,0-0.1,0-0.2,0s-0.1,0-0.2,0c-0.2,0-0.3,0-0.5,0c-0.1,0-0.3-0.1-0.4-0.1
		c-0.1-0.1-0.2-0.3-0.2-0.5s0-0.5,0-0.7V45.1c0-0.2,0-0.4,0-0.6c0-0.2,0-0.4,0.1-0.5c0.1-0.1,0.2-0.2,0.3-0.3h0.1h0.1h6.1
		c0.1,0,0.2,0,0.3,0c0.1,0,0.2,0,0.3,0h0.2c0.1,0,0.2,0,0.3,0c0.1,0,0.2,0,0.3,0c0.1,0,0.2,0.1,0.4,0.1c0.1,0,0.2,0,0.4,0.1
		c0.3,0.1,0.5,0.2,0.7,0.3c0.2,0.1,0.4,0.3,0.6,0.5c0.4,0.3,0.6,0.7,0.9,1.1c0.2,0.4,0.4,1,0.5,1.5c0,0.1,0,0.3,0.1,0.4
		c0,0.2,0,0.3,0.1,0.4v0.4c0,0.1,0,0.2,0,0.3c0,0.1,0,0.2,0,0.3v0.3c0,0.1,0,0.3-0.1,0.4c0,0.1,0,0.3-0.1,0.4
		c-0.1,0.3-0.1,0.5-0.2,0.8c-0.1,0.2-0.2,0.5-0.3,0.7c0,0.1-0.1,0.2-0.1,0.2l-0.1,0.2l0,0l0,0l-0.1,0.1l-0.1,0.1
		c-0.1,0.1-0.2,0.2-0.3,0.3c-0.1,0.1-0.2,0.2-0.3,0.3c-0.1,0.1-0.1,0.1-0.2,0.2c-0.1,0.1-0.1,0.1-0.1,0.3c0,0.1,0,0.2,0.1,0.3
		c0.1,0.1,0.1,0.1,0.2,0.2c0.2,0.1,0.3,0.3,0.4,0.4c0.1,0.1,0.3,0.3,0.4,0.5c0.2,0.3,0.3,0.5,0.3,0.8c0.1,0.3,0.1,0.6,0.2,1
		c0,0.1,0,0.3,0,0.4c0,0.1,0,0.3,0,0.4c0,0.1,0,0.3,0,0.4s0,0.3,0,0.4v0.3c0,0.1,0,0.3,0,0.4c0,0.1,0,0.3,0,0.4s0,0.1,0,0.2
		c0,0.1,0,0.1,0,0.2c0,0.2,0,0.4,0.1,0.6c0,0.2,0,0.4,0.1,0.5c0,0.1,0,0.2,0.1,0.3c0,0.1,0,0.2,0.1,0.3L183.5,61.9z M181.1,50.9
		c0.1-0.2,0.2-0.4,0.2-0.6s0.1-0.4,0.1-0.7v-0.2c0-0.3,0-0.5,0-0.8c0-0.3-0.1-0.5-0.1-0.7c-0.2-0.9-0.7-1.5-1.3-1.9
		c-0.3-0.1-0.6-0.2-1-0.2c-0.4,0-0.8,0-1.2,0h-3.5h-0.1h-0.1c-0.2,0.1-0.3,0.2-0.3,0.3c-0.1,0.2-0.1,0.4-0.1,0.7c0,0.3,0,0.5,0,0.8
		v3.1c0,0.3,0,0.6,0,0.8c0,0.3,0,0.5,0.1,0.7c0.1,0.1,0.2,0.2,0.3,0.2c0.1,0,0.3,0,0.5,0h1.3c0.6,0,1.1,0,1.6,0s1,0,1.5-0.1
		c0.4-0.1,0.8-0.2,1.2-0.4C180.6,51.7,180.8,51.3,181.1,50.9z"/>
	<path style="fill:#010101;" d="M199.7,52.8c0,0.1,0,0.2,0,0.4c0,0.2,0,0.3,0,0.4v0.3c0,0.2,0,0.4,0,0.6s0,0.4,0,0.5
		c0,0.1,0,0.3-0.1,0.4c0,0.1,0,0.3,0,0.4c-0.1,0.3-0.1,0.6-0.2,0.9c-0.1,0.3-0.1,0.6-0.2,0.8c-0.4,1.3-1,2.4-1.7,3.3
		c-0.7,0.9-1.6,1.5-2.7,2c-0.2,0.1-0.3,0.1-0.5,0.1s-0.3,0.1-0.5,0.1c-0.1,0-0.1,0-0.2,0s-0.1,0-0.2,0l-0.7,0.1c0,0-0.1,0-0.3,0
		c-0.1,0-0.2,0-0.3,0c-0.1,0-0.1,0-0.2,0s-0.1,0-0.2,0h-0.2c-0.1,0-0.2-0.1-0.3-0.1c-0.1,0-0.2,0-0.3,0c-0.1-0.1-0.3-0.1-0.4-0.1
		s-0.3-0.1-0.4-0.1c-0.1-0.1-0.3-0.1-0.4-0.2c-0.1-0.1-0.3-0.1-0.4-0.2c-0.9-0.5-1.6-1.1-2.1-2c-0.6-0.8-1-1.8-1.4-3
		c-0.1-0.3-0.1-0.5-0.2-0.8c0-0.3-0.1-0.5-0.2-0.8c0-0.1,0-0.1,0-0.2c0-0.1,0-0.1,0-0.2c0-0.1,0-0.3,0-0.4c0-0.1,0-0.3,0-0.4
		c0-0.1,0-0.1,0-0.2c0-0.1,0-0.1,0-0.2v-0.6c0-0.1,0-0.2,0-0.4s0-0.3,0-0.4v-0.3l0.1-1c0-0.1,0-0.2,0-0.3c0-0.1,0-0.2,0-0.3
		c0.1-0.3,0.1-0.6,0.1-0.8c0-0.3,0.1-0.5,0.2-0.8c0.1-0.3,0.2-0.7,0.3-1c0.1-0.3,0.2-0.6,0.4-0.9c0.4-0.8,0.9-1.5,1.4-2.1
		c0.5-0.6,1.2-1.1,1.9-1.4c0.2-0.1,0.3-0.2,0.5-0.2c0.2-0.1,0.4-0.1,0.5-0.2c0.1,0,0.2-0.1,0.3-0.1c0.1,0,0.2,0,0.3-0.1
		c0.1,0,0.2,0,0.3,0c0.1,0,0.2,0,0.3,0h0.1h0.1c0.9,0,1.8,0.1,2.5,0.4c0.7,0.3,1.3,0.7,1.9,1.1c0.2,0.2,0.4,0.4,0.6,0.6
		s0.4,0.4,0.5,0.7c0,0.1,0.1,0.2,0.1,0.2s0.1,0.1,0.1,0.2c0.1,0.1,0.2,0.3,0.3,0.4c0.1,0.2,0.2,0.3,0.2,0.4s0.1,0.2,0.1,0.2
		c0,0.1,0.1,0.1,0.1,0.2c0.1,0.1,0.1,0.2,0.1,0.3c0.1,0.3,0.2,0.7,0.3,1c0,0.1,0.1,0.2,0.1,0.3s0,0.2,0.1,0.3c0,0.2,0.1,0.4,0.1,0.6
		c0,0.2,0.1,0.4,0.1,0.6c0,0.1,0,0.2,0,0.3c0,0.1,0,0.2,0,0.3c0,0.1,0,0.3,0,0.4s0,0.3,0,0.4v0.2c0,0.1,0,0.2,0,0.3
		C199.7,52.6,199.7,52.7,199.7,52.8z M197.7,53.6c0-0.1,0-0.2,0-0.5c0-0.3,0-0.4,0-0.5v-0.2c0-0.1,0-0.2,0-0.2c0-0.1,0-0.2,0-0.2
		c0-0.1,0-0.2,0-0.3c0-0.1,0-0.2,0-0.3c0-0.2-0.1-0.3-0.1-0.5s0-0.3-0.1-0.5c-0.1-0.3-0.1-0.5-0.2-0.7c0-0.2-0.1-0.4-0.2-0.7
		c-0.2-0.7-0.6-1.4-1-2c-0.4-0.6-0.9-1-1.5-1.4c-0.3-0.2-0.7-0.3-1.1-0.4c-0.2-0.1-0.4-0.1-0.7-0.1c-0.2,0-0.5,0-0.7,0
		c-0.1,0-0.2,0-0.3,0c-0.1,0-0.2,0-0.3,0c-0.2,0.1-0.4,0.1-0.6,0.2c-0.2,0.1-0.4,0.1-0.6,0.2c-0.8,0.4-1.4,1-1.8,1.8
		c-0.4,0.8-0.8,1.7-1.1,2.7c-0.1,0.2-0.1,0.4-0.1,0.6c0,0.2-0.1,0.4-0.1,0.6c0,0.1,0,0.2,0,0.3c0,0.1,0,0.2,0,0.3c0,0.1,0,0.1,0,0.2
		c0,0.1,0,0.2,0,0.2v0.2c0,0.1,0,0.3,0,0.5s0,0.4,0,0.5s0,0.1,0,0.2c0,0.1,0,0.1,0,0.2c0,0.1,0,0.3,0.1,0.5c0,0.2,0,0.3,0.1,0.5
		c0,0.1,0,0.1,0,0.2c0,0.1,0,0.1,0,0.2c0,0.2,0.1,0.4,0.1,0.6s0.1,0.4,0.1,0.6c0.1,0.2,0.1,0.4,0.2,0.6c0,0.2,0.1,0.4,0.2,0.6
		c0.1,0.1,0.1,0.3,0.2,0.4c0.1,0.1,0.1,0.3,0.2,0.4c0.4,0.8,1,1.4,1.7,1.9c0.2,0.1,0.4,0.3,0.6,0.3c0.2,0.1,0.4,0.2,0.7,0.2
		c0.1,0,0.2,0,0.3,0c0.1,0,0.2,0,0.3,0c0.1,0,0.2,0,0.3,0c0.1,0,0.2,0,0.3,0h0.2c0.1,0,0.1,0,0.2,0s0.1,0,0.2,0
		c0.2-0.1,0.4-0.1,0.6-0.1s0.3-0.1,0.5-0.2c0.7-0.4,1.3-0.9,1.8-1.5c0.5-0.6,0.8-1.4,1.1-2.3c0.1-0.2,0.1-0.5,0.2-0.7
		c0-0.3,0.1-0.5,0.2-0.8c0-0.1,0-0.2,0.1-0.3c0.1-0.1,0-0.2,0.1-0.4l0.1-0.9v0H197.7z"/>
	<path style="fill:#010101;" d="M213.3,48.7c0,0.1,0,0.3,0,0.6s0,0.4,0,0.6c0,0.1,0,0.2,0,0.3c0,0.1,0,0.2,0,0.3
		c0,0.1,0,0.2-0.1,0.3c0,0.1,0,0.2-0.1,0.3c0,0.1-0.1,0.3-0.1,0.4c0,0.1-0.1,0.3-0.1,0.4c0,0.1,0,0.1-0.1,0.1c0,0,0,0.1-0.1,0.1
		c-0.2,0.4-0.3,0.7-0.5,1c0,0.1-0.1,0.1-0.1,0.2c-0.1,0.1-0.1,0.1-0.2,0.2c-0.1,0-0.1,0.1-0.1,0.1c0,0.1-0.1,0.1-0.1,0.1l-0.4,0.3
		c-0.2,0.1-0.3,0.3-0.6,0.3c-0.2,0.1-0.4,0.1-0.6,0.2c-0.1,0-0.2,0.1-0.3,0.1c-0.1,0-0.2,0-0.3,0.1c-0.1,0-0.1,0-0.2,0h-0.1
		c-0.1,0-0.1,0-0.2,0s-0.1,0-0.2,0h-3.2c-0.2,0-0.4,0-0.7,0c-0.2,0-0.4,0-0.6,0.2c-0.2,0.1-0.2,0.4-0.2,0.8s0,0.7,0,1v3.9
		c0,0.2,0,0.5,0,0.9c0,0.3,0,0.6-0.1,0.7c-0.1,0.1-0.1,0.2-0.2,0.2s-0.2,0.1-0.3,0.1h-0.4c-0.2,0-0.4,0-0.6,0s-0.3-0.1-0.4-0.3
		c-0.1-0.1-0.1-0.3-0.1-0.4c0-0.2,0-0.4,0-0.6V45.2c0-0.2,0-0.4,0-0.7c0-0.2,0-0.4,0.1-0.6c0.1-0.1,0.2-0.2,0.3-0.3h0.1h0.1h4.8
		c0.5,0,1.1,0,1.6,0c0.5,0,1,0.1,1.4,0.3c0.6,0.3,1.2,0.6,1.6,1c0.4,0.4,0.7,1,1,1.8c0.1,0.2,0.1,0.4,0.2,0.6c0,0.2,0.1,0.4,0.1,0.7
		c0,0.1,0,0.2,0,0.3C213.3,48.4,213.3,48.5,213.3,48.7z M211.4,49.6c0.1-0.3,0.1-0.5,0-0.9c0-0.3-0.1-0.6-0.1-0.8
		c-0.1-0.5-0.3-0.9-0.6-1.2c-0.2-0.3-0.5-0.5-0.9-0.7c-0.3-0.2-0.7-0.3-1.1-0.3c-0.4,0-0.8-0.1-1.3-0.1h-2.7h-0.1h-0.1
		c-0.2,0.1-0.3,0.2-0.3,0.3c-0.1,0.2-0.1,0.4-0.1,0.7c0,0.3,0,0.6,0,0.8v3.2c0,0.3,0,0.6,0,0.9c0,0.3,0,0.6,0.1,0.8
		c0.1,0.1,0.2,0.2,0.3,0.3c0.1,0.1,0.3,0,0.5,0h2.9c0.2,0,0.4,0,0.7,0c0.2,0,0.4,0,0.6-0.1c0.4-0.1,0.7-0.3,1-0.4
		c0.3-0.2,0.5-0.4,0.7-0.8c0.1-0.2,0.2-0.4,0.3-0.7c0.1-0.2,0.1-0.5,0.2-0.8C211.3,49.9,211.4,49.8,211.4,49.6z"/>
	<path style="fill:#010101;" d="M216.3,43.7c0.2,0,0.4,0,0.7,0c0.3,0,0.5,0.1,0.5,0.2c0.1,0.2,0.2,0.4,0.2,0.7c0,0.3,0,0.6,0,0.9v4
		v5c0,0.6,0,1.2,0,1.8c0,0.6,0.1,1.1,0.2,1.6c0.2,0.7,0.4,1.3,0.8,1.7c0.3,0.4,0.8,0.8,1.3,1.1c0.2,0.1,0.3,0.1,0.5,0.2
		c0.2,0,0.3,0.1,0.5,0.1c0.1,0,0.2,0,0.3,0c0.1,0,0.2,0,0.3,0h0.2c0.1,0,0.2,0,0.3,0c0.1,0,0.2,0,0.2,0c0.1,0,0.1,0,0.2,0
		s0.2,0,0.2,0c0.2-0.1,0.3-0.1,0.5-0.1c0.2,0,0.3-0.1,0.5-0.2c0.5-0.3,1-0.6,1.3-1c0.3-0.4,0.5-1,0.7-1.7c0.1-0.4,0.2-1,0.2-1.5
		c0-0.6,0-1.1,0-1.7v-4.4v-4.6c0-0.3,0-0.6,0-1c0-0.4,0-0.7,0.2-0.8c0.1-0.1,0.2-0.2,0.4-0.2c0.2,0,0.4,0,0.6,0c0.1,0,0.1,0,0.2,0
		s0.1,0,0.2,0c0.2,0.1,0.3,0.1,0.4,0.3c0.1,0.1,0.1,0.3,0.1,0.6s0,0.5,0,0.7V49v5.5c0,0.7,0,1.3,0,2c0,0.6-0.1,1.2-0.2,1.7
		c-0.2,0.9-0.5,1.6-0.8,2.2c-0.3,0.6-0.7,1.1-1.3,1.6c-0.2,0.2-0.4,0.3-0.7,0.4c-0.2,0.1-0.5,0.2-0.8,0.3c-0.1,0.1-0.3,0.1-0.4,0.1
		c-0.1,0-0.3,0.1-0.4,0.1S223.1,63,223,63c-0.1,0-0.3,0-0.4,0.1h-0.3c-0.1,0-0.2,0-0.3,0c-0.2,0-0.3,0-0.3,0h-0.3
		c-0.1,0-0.2,0-0.3,0c-0.1,0-0.2,0-0.3,0h-0.2c-0.1,0-0.2-0.1-0.3-0.1c-0.1,0-0.2,0-0.3-0.1c-0.2-0.1-0.5-0.2-0.7-0.3
		c-0.2-0.1-0.5-0.2-0.7-0.3c-0.1-0.1-0.2-0.1-0.3-0.2c-0.1-0.1-0.2-0.2-0.3-0.2c-0.4-0.3-0.8-0.7-1.1-1.2c-0.3-0.5-0.5-1-0.7-1.6
		c-0.1-0.3-0.1-0.5-0.2-0.8c0-0.3-0.1-0.6-0.1-0.9c0-0.1,0-0.3,0-0.4c0-0.1,0-0.3,0-0.4v-0.3c0-0.1,0-0.3,0-0.4c0-0.2,0-0.3,0-0.4
		v-1.7v-6.9v-1.8c0-0.2,0-0.3,0-0.5s0-0.3,0.1-0.4s0.2-0.2,0.3-0.3C216.2,43.7,216.3,43.7,216.3,43.7z"/>
	<path style="fill:#010101;" d="M231.6,43.7h6.8h1.8c0.2,0,0.3,0,0.5,0c0.2,0,0.3,0,0.4,0.1l0.1,0.1c0,0,0.1,0.1,0.1,0.2
		c0,0.1,0,0.3,0,0.6s0,0.5,0,0.6c-0.1,0.3-0.2,0.4-0.4,0.4c-0.2,0-0.4,0-0.7,0h-2.1h-3.6c-0.2,0-0.5,0-0.8,0s-0.5,0-0.7,0.1
		c-0.2,0.1-0.2,0.3-0.2,0.6s0,0.5,0,0.8v2.7c0,0.2,0,0.4,0,0.7c0,0.3,0,0.5,0,0.6c0,0.2,0.1,0.4,0.3,0.4c0.1,0,0.2,0.1,0.3,0.1h0.2
		c0.1,0,0.1,0,0.2,0s0.1,0,0.2,0h0.7h4.2c0.1,0,0.3,0,0.4,0c0.2,0,0.3,0,0.5,0s0.3,0,0.4,0.1c0.1,0,0.2,0.1,0.3,0.1
		c0,0,0.1,0.1,0.1,0.2c0,0.1,0,0.3,0.1,0.4c0,0.1,0,0.3,0,0.4c0,0.2,0,0.3-0.1,0.4c0,0.2-0.1,0.3-0.2,0.3l-0.1,0.1h-0.1h-0.1
		c-0.1,0-0.1,0-0.2,0s-0.1,0-0.2,0h-0.8h-4.5c-0.2,0-0.3,0-0.5,0c-0.2,0-0.3,0-0.5,0c-0.2,0-0.3,0.1-0.4,0.1
		c-0.1,0.1-0.2,0.2-0.2,0.4c0,0.1,0,0.2,0,0.4c0,0.1,0,0.3,0,0.4v1.5v2.6c0,0.3,0,0.5,0,0.7s0.1,0.4,0.2,0.4
		c0.1,0.1,0.2,0.1,0.3,0.1c0.1,0,0.3,0,0.4,0h1.4h3.9h1.2c0.1,0,0.2,0,0.3,0c0.1,0,0.2,0,0.3,0c0.2,0.1,0.3,0.2,0.3,0.3
		c0,0.1,0,0.1,0.1,0.3c0,0.1,0,0.3,0,0.4c0,0.1,0,0.3,0,0.4c0,0.1,0,0.2,0,0.3c-0.1,0.1-0.1,0.2-0.2,0.3c-0.1,0.1-0.2,0.1-0.3,0.1
		c-0.1,0-0.3,0-0.4,0h-1.5h-5.5h-1.5c-0.2,0-0.4,0-0.5,0s-0.2-0.1-0.3-0.3c-0.1-0.1-0.1-0.2-0.1-0.4c0-0.2,0-0.3,0-0.5v-1.9v-6.7
		v-5.9v-1.7c0-0.2,0-0.3,0-0.5s0-0.3,0.1-0.4s0.2-0.2,0.3-0.3C231.4,43.7,231.5,43.7,231.6,43.7C231.5,43.7,231.5,43.7,231.6,43.7z"
		/>
	<path style="fill:#010101;" d="M248.6,43.3c0.8,0,1.5,0,2.1,0.2c0.6,0.2,1.2,0.5,1.7,0.9c0.1,0.1,0.2,0.1,0.2,0.2
		c0,0.1,0.2,0.1,0.2,0.2l0.1,0.1L253,45l0.1,0.1l0.1,0.1c0.1,0.1,0.1,0.2,0.2,0.3c0.1,0.1,0.1,0.2,0.2,0.3c0.1,0.1,0.1,0.2,0.1,0.3
		c0,0.1,0.1,0.2,0.1,0.3c0.1,0.3,0.2,0.5,0.3,0.8c0.1,0.3,0.1,0.6,0.2,1c0,0.1,0,0.3,0,0.5s0,0.3-0.1,0.4c-0.1,0.1-0.2,0.2-0.3,0.2
		c-0.2,0-0.3,0-0.5,0c-0.1,0-0.1,0-0.2,0s-0.1,0-0.2,0c-0.1,0-0.1,0-0.2,0c0,0-0.1,0-0.2-0.1c0,0-0.1,0-0.1-0.1l-0.1-0.1
		c-0.1-0.2-0.1-0.4-0.2-0.6c0-0.2-0.1-0.4-0.2-0.6c-0.2-0.7-0.6-1.3-1-1.6c-0.3-0.3-0.7-0.5-1.2-0.6c-0.1,0-0.2-0.1-0.3-0.1
		c-0.1,0-0.2,0-0.3-0.1H249c-0.1,0-0.2-0.1-0.3-0.1s-0.2,0-0.3,0c-0.7,0-1.4,0.1-1.8,0.4c-0.3,0.1-0.5,0.3-0.8,0.6
		c-0.2,0.2-0.4,0.5-0.5,0.9c-0.1,0.1-0.1,0.3-0.1,0.4c0,0.2,0,0.3-0.1,0.5c0,0.1,0,0.3,0,0.5s0,0.3,0.1,0.5c0.1,0.4,0.2,0.7,0.4,0.9
		c0.1,0.2,0.4,0.4,0.6,0.6c0.3,0.3,0.7,0.4,1,0.6c0.4,0.1,0.8,0.3,1.2,0.4c0.1,0,0.3,0.1,0.4,0.1s0.3,0.1,0.4,0.1
		c0.2,0.1,0.4,0.1,0.6,0.2c0.2,0,0.4,0.1,0.6,0.2c0.1,0,0.1,0,0.1,0h0.1c0.1,0,0.3,0.1,0.4,0.1s0.3,0.1,0.4,0.1
		c0.3,0.1,0.6,0.3,0.8,0.4c0.3,0.1,0.5,0.3,0.8,0.5c0.3,0.3,0.6,0.5,0.8,0.9c0.2,0.3,0.4,0.7,0.6,1.2c0.1,0.2,0.1,0.3,0.1,0.5
		s0.1,0.3,0.1,0.5c0,0.1,0,0.2,0,0.3c0,0.1,0,0.2,0,0.3v0.5v0.2c0,0.1,0,0.1,0,0.2c0,0.1,0,0.1,0,0.2c0,0.1,0,0.3-0.1,0.4
		c0,0.2,0,0.3-0.1,0.4c-0.1,0.3-0.1,0.5-0.2,0.8c-0.1,0.3-0.2,0.5-0.3,0.7c-0.2,0.5-0.5,0.9-0.9,1.2c-0.4,0.3-0.8,0.6-1.2,0.9
		c-0.1,0.1-0.3,0.1-0.4,0.2c-0.1,0.1-0.3,0.1-0.4,0.2c-0.2,0.1-0.3,0.1-0.5,0.1c-0.2,0-0.3,0.1-0.5,0.1c-0.1,0-0.1,0-0.2,0
		s-0.2,0-0.2,0c-0.1,0-0.2,0-0.3,0c-0.1,0-0.2,0-0.3,0c-0.1,0-0.2,0-0.3,0c-0.1,0-0.2,0-0.3,0h-0.2c-0.1,0-0.3-0.1-0.4-0.1
		s-0.3,0-0.4-0.1c-0.1,0-0.1,0-0.2,0s-0.1,0-0.2,0c-0.2,0-0.3-0.1-0.4-0.1c-0.1,0-0.3-0.1-0.4-0.2c-0.7-0.3-1.3-0.7-1.8-1.1
		c-0.5-0.4-0.9-1-1.2-1.7c-0.1-0.2-0.2-0.5-0.3-0.7c-0.1-0.3-0.2-0.5-0.2-0.8c0-0.1,0-0.2-0.1-0.3c-0.1-0.1,0-0.2-0.1-0.3
		c0-0.2,0-0.3,0-0.6c0-0.2,0-0.4,0.1-0.4c0.1-0.1,0.2-0.2,0.4-0.2c0.2,0,0.3,0,0.5,0c0.1,0,0.1,0,0.2,0c0.1,0,0.1,0,0.2,0
		s0.1,0,0.2,0h0.1c0.1,0.1,0.2,0.1,0.2,0.2c0,0.1,0.1,0.2,0.1,0.3c0,0.1,0,0.2,0.1,0.3c0,0.1,0.1,0.3,0.1,0.4c0,0.1,0.1,0.3,0.1,0.4
		c0.2,0.8,0.6,1.4,1.1,1.8c0.2,0.2,0.5,0.4,0.8,0.6c0.3,0.1,0.6,0.3,0.9,0.4c0.1,0,0.2,0.1,0.3,0.1c0.1,0,0.2,0,0.3,0.1h0.1h0.1
		c0.1,0,0.1,0,0.2,0s0.2,0,0.2,0c0.1,0,0.1,0,0.2,0c0.1,0,0.2,0,0.3-0.1h0.1c0.1,0,0.1,0,0.2,0c0.1,0,0.1,0,0.2,0h0.1h0.1
		c0.1,0,0.2-0.1,0.4-0.1c0.1,0,0.2-0.1,0.4-0.1c0.4-0.2,0.7-0.4,1-0.7c0.3-0.3,0.5-0.6,0.7-1.1c0-0.1,0.1-0.3,0.1-0.4
		c0-0.1,0.1-0.3,0.1-0.4c0-0.1,0-0.3,0-0.5c0-0.2,0-0.4,0-0.5c0-0.1,0-0.2,0-0.2s0-0.1,0-0.2c-0.1-0.3-0.2-0.6-0.3-0.8
		s-0.3-0.4-0.5-0.6c-0.3-0.3-0.6-0.5-1-0.6c-0.4-0.2-0.8-0.3-1.2-0.4c-0.4-0.1-0.8-0.2-1.2-0.3c-0.4-0.1-0.8-0.2-1.2-0.4
		c-0.2-0.1-0.5-0.2-0.7-0.2c-0.2-0.1-0.4-0.1-0.6-0.3c0,0,0,0-0.1,0c0,0,0,0-0.1,0c-0.1-0.1-0.3-0.1-0.4-0.2
		c-0.1-0.1-0.3-0.2-0.4-0.3c-0.3-0.3-0.6-0.5-0.9-0.8c-0.3-0.3-0.5-0.7-0.6-1.1c-0.1-0.2-0.1-0.3-0.1-0.5s-0.1-0.4-0.1-0.6
		c0-0.1,0-0.1,0-0.2s0-0.1,0-0.2c0-0.2,0-0.5,0-0.8c0-0.3,0.1-0.6,0.1-0.8s0.1-0.4,0.1-0.6s0.1-0.3,0.1-0.5c0.2-0.5,0.5-1,0.8-1.4
		c0.3-0.4,0.7-0.7,1-1l0.1-0.1c0,0,0.1,0,0.1-0.1c0.3-0.2,0.7-0.4,1.1-0.5c0.1,0,0.2-0.1,0.3-0.1c0.1,0,0.2-0.1,0.3-0.1
		c0.1,0,0.2-0.1,0.4-0.1c0.1,0,0.3,0,0.4-0.1c0,0,0.1,0,0.2,0C248.5,43.3,248.6,43.3,248.6,43.3z"/>
	<path style="fill:#010101;" d="M256.4,43.7h8.8h1.6c0.1,0,0.3,0,0.4,0c0.1,0,0.3,0,0.4,0.1c0.1,0.1,0.2,0.2,0.2,0.4s0,0.3,0,0.6
		v0.3c0,0.1-0.1,0.3-0.1,0.3c0,0.1-0.1,0.2-0.1,0.2c-0.1,0.1-0.3,0.1-0.5,0.1s-0.4,0-0.6,0h-2.4c-0.2,0-0.3,0-0.5,0s-0.3,0-0.4,0
		c-0.1,0-0.2,0.1-0.3,0.2c-0.1,0.1-0.1,0.2-0.2,0.4c0,0.2-0.1,0.4,0,0.6c0,0.3,0,0.5,0,0.7v2.6v8.4v2.8c0,0.3,0,0.5,0,0.7
		c0,0.2-0.1,0.4-0.2,0.5c-0.1,0-0.2,0.1-0.3,0.1c-0.1,0-0.2,0-0.3,0c-0.2,0-0.4,0-0.6,0s-0.3-0.1-0.4-0.2c-0.1-0.1-0.1-0.3-0.1-0.5
		s0-0.4,0-0.6v-2.4v-8.7v-2.7c0-0.2,0-0.4,0-0.7c0-0.3,0-0.5-0.1-0.6c-0.1-0.3-0.2-0.4-0.5-0.5c-0.2,0-0.5,0-0.8,0h-2.3
		c-0.2,0-0.4,0-0.6,0c-0.2,0-0.4,0-0.5-0.1l-0.1-0.1l-0.1-0.1c0-0.1-0.1-0.2-0.1-0.3c0-0.2,0-0.3,0-0.5s0-0.3,0.1-0.5
		C256,44,256,44,256,43.9c0-0.1,0.1-0.1,0.1-0.1S256.2,43.8,256.4,43.7C256.3,43.7,256.3,43.7,256.4,43.7L256.4,43.7z"/>
	<path style="fill:#010101;" d="M281.2,61.2c0,0.1,0.1,0.2,0.1,0.3c0,0.1,0.1,0.3,0.1,0.4c0,0.1,0,0.3,0,0.4c0,0.1-0.1,0.2-0.2,0.3
		c-0.1,0-0.2,0.1-0.3,0.1c-0.1,0-0.2,0-0.3,0c-0.2,0-0.4,0-0.6,0c-0.2,0-0.4,0-0.5-0.1c-0.1-0.1-0.2-0.3-0.3-0.6
		c-0.1-0.3-0.1-0.5-0.2-0.7c-0.2-0.5-0.3-0.9-0.4-1.4c-0.1-0.5-0.3-1-0.4-1.5c0-0.2-0.1-0.3-0.1-0.5c0-0.1-0.1-0.3-0.1-0.4
		c0-0.1-0.1-0.2-0.2-0.3c-0.1-0.1-0.2-0.2-0.3-0.2c-0.1,0-0.2,0-0.2,0c-0.1,0-0.2,0-0.3,0h-4c-0.1,0-0.3,0-0.4,0c-0.2,0-0.3,0-0.4,0
		c-0.1,0-0.3,0-0.4,0.1c-0.1,0-0.2,0.1-0.3,0.2c-0.1,0.2-0.2,0.4-0.2,0.6c0,0.2-0.1,0.5-0.2,0.7c-0.1,0.4-0.3,0.8-0.4,1.3
		c-0.1,0.4-0.3,0.9-0.4,1.3c0,0.1-0.1,0.2-0.1,0.4s-0.1,0.3-0.1,0.4c0,0.1-0.1,0.3-0.1,0.4c0,0.1-0.1,0.2-0.2,0.3
		c-0.1,0.1-0.3,0.2-0.5,0.2s-0.4,0-0.6,0c-0.1,0-0.2,0-0.3,0s-0.2,0-0.3-0.1c-0.1-0.1-0.1-0.1-0.1-0.2c0-0.1,0-0.2,0-0.3
		c0-0.1,0-0.2,0.1-0.3c0-0.1,0.1-0.2,0.1-0.3c0.2-0.6,0.4-1.1,0.5-1.7c0.2-0.6,0.3-1.1,0.5-1.7c0.1-0.4,0.2-0.8,0.4-1.2
		c0.1-0.4,0.2-0.8,0.4-1.2c0.4-1.3,0.8-2.6,1.2-3.9c0.4-1.3,0.8-2.6,1.2-3.9c0.2-0.5,0.3-0.9,0.4-1.4c0.1-0.5,0.3-1,0.4-1.4
		c0.1-0.2,0.1-0.4,0.2-0.7c0.1-0.2,0.2-0.4,0.3-0.5c0.1-0.1,0.1-0.1,0.3-0.2h0.1h0.1c0.3,0,0.6,0,0.9,0c0.3,0,0.6,0.1,0.7,0.2
		c0.1,0.1,0.2,0.3,0.3,0.5c0.1,0.2,0.1,0.5,0.2,0.7c0.1,0.4,0.3,0.8,0.4,1.2c0.1,0.4,0.2,0.8,0.4,1.2c0.1,0.4,0.2,0.7,0.3,1.1
		c0.1,0.4,0.2,0.7,0.4,1.1c0.4,1.3,0.8,2.6,1.2,4c0.4,1.3,0.8,2.7,1.2,4c0.1,0.2,0.1,0.3,0.1,0.5c0,0.1,0.1,0.3,0.1,0.5
		c0.2,0.5,0.3,0.9,0.5,1.4C280.9,60.3,281.1,60.7,281.2,61.2z M276.7,54.8c0.1-0.1,0.2-0.1,0.2-0.3c0-0.1,0-0.3,0-0.4
		c0-0.1-0.1-0.3-0.1-0.5c0-0.2-0.1-0.3-0.1-0.4s0-0.1,0-0.2c0-0.1,0-0.1,0-0.2s-0.1-0.3-0.1-0.4c0-0.2-0.1-0.3-0.1-0.5
		c-0.2-0.6-0.4-1.3-0.6-2c-0.2-0.7-0.4-1.3-0.6-2c-0.1-0.2-0.1-0.4-0.2-0.6c0-0.2-0.1-0.4-0.2-0.6c0-0.1-0.1-0.2-0.1-0.3
		c0-0.1-0.1-0.1-0.2-0.1l-0.1,0.1c0,0-0.1,0-0.1,0.1c-0.1,0.1-0.1,0.2-0.1,0.3c0,0.1-0.1,0.2-0.1,0.3c-0.1,0.2-0.1,0.4-0.2,0.6
		c0,0.2-0.1,0.4-0.2,0.6c-0.2,0.7-0.4,1.4-0.6,2.1c-0.2,0.7-0.4,1.4-0.6,2.1c0,0.1-0.1,0.2-0.1,0.3c0,0.1,0,0.2-0.1,0.3
		c0,0.1-0.1,0.3-0.1,0.4c0,0.1-0.1,0.3-0.1,0.4c0,0.1,0,0.2,0,0.3c0,0.1,0,0.2,0.1,0.3c0.1,0.1,0.2,0.2,0.4,0.2s0.4,0,0.6,0h2.3
		c0.2,0,0.3,0,0.6,0C276.4,54.9,276.6,54.8,276.7,54.8z"/>
	<path style="fill:#010101;" d="M301.3,52.7c0,0.1,0,0.3,0,0.5s0,0.3,0,0.4v0.3c0,0.1,0,0.1,0,0.2c0,0.1,0,0.1,0,0.2
		c0,0.1,0,0.2,0,0.3c0,0.1,0,0.2,0,0.3c0,0.3-0.1,0.5-0.1,0.8c0,0.3-0.1,0.5-0.1,0.8c0,0.2-0.1,0.4-0.1,0.7c0,0.2-0.1,0.4-0.2,0.7
		c-0.2,0.8-0.5,1.5-0.9,2.1c-0.4,0.6-0.8,1.1-1.3,1.6c-0.3,0.2-0.6,0.4-0.9,0.6c-0.3,0.2-0.6,0.3-1,0.4c-0.2,0.1-0.3,0.1-0.5,0.1
		s-0.4,0.1-0.5,0.1c-0.2,0-0.3,0.1-0.5,0.1s-0.3,0-0.4,0.1h-0.3h-0.1c-0.1,0-0.1,0-0.2,0h-4.4c-0.2,0-0.4,0-0.6,0s-0.3-0.1-0.3-0.3
		c-0.1-0.1-0.1-0.3-0.1-0.6c0-0.3,0-0.5,0-0.7V45.2c0-0.2,0-0.4,0-0.7s0-0.4,0.1-0.6c0.1-0.1,0.2-0.2,0.3-0.2h0.1h0.1h4.6
		c0.1,0,0.1,0,0.2,0c0.1,0,0.1,0,0.2,0c0.1,0,0.1,0,0.2,0c0.1,0,0.2,0,0.2,0c0.1,0,0.1,0,0.2,0c0.1,0,0.2,0,0.2,0c0.1,0,0.1,0,0.2,0
		c0.1,0,0.1,0,0.2,0c0.2,0,0.3,0.1,0.4,0.1c0.1,0,0.3,0.1,0.4,0.1c0.3,0.1,0.6,0.2,0.9,0.4c0.3,0.1,0.5,0.3,0.8,0.5
		c0.2,0.1,0.4,0.3,0.5,0.4l0.1,0.1l0.1,0.1c0.1,0.1,0.2,0.2,0.2,0.3c0.1,0.1,0.1,0.2,0.2,0.3c0.1,0.1,0.1,0.2,0.2,0.2
		c0.1,0.1,0.1,0.2,0.2,0.3c0.1,0.1,0.1,0.2,0.2,0.3c0.1,0.1,0.1,0.2,0.2,0.3c0,0.1,0.1,0.2,0.2,0.4c0,0.1,0,0.1,0.1,0.2
		c0,0.1,0,0.1,0.1,0.2c0.1,0.1,0.1,0.3,0.1,0.4s0.1,0.3,0.1,0.4c0.1,0.2,0.1,0.4,0.1,0.6c0,0.2,0.1,0.4,0.1,0.6c0,0.1,0,0.2,0,0.3
		c0,0.1,0,0.2,0,0.3c0.1,0.3,0.1,0.7,0.1,1.1C301.3,51.9,301.3,52.3,301.3,52.7z M299.3,54.1c0-0.2,0-0.4,0-0.6c0-0.2,0-0.4,0-0.6
		c0-0.1,0-0.3,0-0.4c0-0.1,0-0.3,0-0.4c0-0.1,0-0.1,0-0.2c0-0.1,0-0.1,0-0.2c0-0.2,0-0.4-0.1-0.6c0-0.2,0-0.4-0.1-0.6
		c0-0.1-0.1-0.3-0.1-0.4c0-0.1,0-0.3-0.1-0.4c-0.2-0.6-0.4-1.2-0.6-1.7c-0.4-0.8-1-1.4-1.8-1.8c-0.1-0.1-0.3-0.2-0.4-0.2
		c-0.1,0-0.3-0.1-0.4-0.1c-0.2-0.1-0.3-0.1-0.5-0.1s-0.3,0-0.5-0.1h-0.4h-0.1c0,0-0.1,0-0.2,0h-2.6h-0.1h-0.1
		c-0.1,0-0.1,0.1-0.2,0.1c-0.1,0-0.1,0.1-0.1,0.2s-0.1,0.2-0.1,0.4v0.2c0,0.1,0,0.2,0,0.2c0,0.1,0,0.2,0,0.2v12.1c0,0.1,0,0.2,0,0.3
		c0,0.1,0,0.2,0,0.2v0.2c0,0.2,0.1,0.3,0.1,0.4c0.1,0.2,0.3,0.3,0.6,0.3s0.6,0,0.9,0h1.2c0.1,0,0.2,0,0.3,0c0.1,0,0.2,0,0.3,0h0.2
		c0.1,0,0.1,0,0.2,0c0.1,0,0.2,0,0.3,0c0.1,0,0.2-0.1,0.3-0.1s0.2,0,0.3-0.1c0.2-0.1,0.3-0.1,0.5-0.2c0.1-0.1,0.3-0.1,0.5-0.2
		c0.5-0.3,1-0.7,1.3-1.2c0.4-0.5,0.7-1.1,0.9-1.8c0.1-0.2,0.1-0.4,0.2-0.6c0-0.2,0.1-0.5,0.2-0.7c0-0.2,0.1-0.4,0.1-0.6
		s0-0.4,0.1-0.7C299.3,54.3,299.3,54.2,299.3,54.1C299.3,54.2,299.3,54.2,299.3,54.1z"/>
	<path style="fill:#010101;" d="M304.4,43.7h6.8h1.8c0.2,0,0.3,0,0.5,0s0.3,0,0.4,0.1l0.1,0.1c0,0,0.1,0.1,0.1,0.2
		c0,0.1,0,0.3,0,0.6s0,0.5,0,0.6c-0.1,0.3-0.2,0.4-0.4,0.4c-0.2,0-0.4,0-0.7,0h-2.1h-3.6c-0.2,0-0.5,0-0.8,0c-0.3,0-0.5,0-0.7,0.1
		c-0.1,0.1-0.2,0.3-0.2,0.6s0,0.5,0,0.8v2.7c0,0.2,0,0.4,0,0.7c0,0.3,0,0.5,0,0.6c0,0.2,0.1,0.4,0.3,0.4c0.1,0,0.2,0.1,0.3,0.1h0.2
		c0.1,0,0.1,0,0.2,0c0.1,0,0.1,0,0.2,0h0.7h4.2c0.1,0,0.3,0,0.4,0c0.2,0,0.3,0,0.5,0s0.3,0,0.4,0.1c0.1,0.1,0.2,0.1,0.3,0.1
		c0,0,0.1,0.1,0.1,0.2c0,0.1,0,0.3,0.1,0.4c0,0.1,0,0.3,0,0.4c0,0.2,0,0.3-0.1,0.4c0,0.2-0.1,0.3-0.2,0.3l-0.1,0.1H313h-0.1
		c-0.1,0-0.1,0-0.2,0c-0.1,0-0.1,0-0.2,0h-0.8h-4.5c-0.2,0-0.3,0-0.5,0s-0.3,0-0.5,0s-0.3,0.1-0.4,0.1c-0.1,0.1-0.2,0.2-0.2,0.4
		c0,0.1,0,0.2,0,0.4c0,0.1,0,0.3,0,0.4v1.5v2.6c0,0.3,0,0.5,0,0.7s0.1,0.4,0.2,0.4c0.1,0.1,0.2,0.1,0.3,0.1c0.1,0,0.3,0,0.4,0h1.4
		h3.9h1.2c0.1,0,0.2,0,0.3,0c0.1,0,0.2,0,0.3,0c0.2,0.1,0.3,0.2,0.3,0.3c0,0.1,0,0.1,0.1,0.3c0,0.1,0,0.3,0,0.4c0,0.1,0,0.3,0,0.4
		c0,0.1,0,0.2,0,0.3c-0.1,0.1-0.1,0.2-0.2,0.3c-0.1,0.1-0.2,0.1-0.3,0.1c-0.1,0-0.3,0-0.4,0h-1.5h-5.5h-1.5c-0.2,0-0.4,0-0.5,0
		c-0.1,0-0.2-0.1-0.3-0.3c-0.1-0.1-0.1-0.2-0.1-0.4c0-0.2,0-0.3,0-0.5v-1.9v-6.7v-5.9v-1.7c0-0.2,0-0.3,0-0.5s0-0.3,0.1-0.4
		c0.1-0.1,0.2-0.2,0.3-0.3C304.3,43.7,304.3,43.7,304.4,43.7C304.3,43.7,304.4,43.7,304.4,43.7z"/>
	<path style="fill:#010101;" d="M336,52.8c0,0.1,0,0.2,0,0.4c0,0.2,0,0.3,0,0.4v0.3c0,0.2,0,0.4,0,0.6s0,0.4,0,0.5
		c0,0.1,0,0.3-0.1,0.4c0,0.1,0,0.3,0,0.4c-0.1,0.3-0.1,0.6-0.2,0.9c-0.1,0.3-0.1,0.6-0.2,0.8c-0.4,1.3-1,2.4-1.7,3.3
		c-0.7,0.9-1.6,1.5-2.7,2c-0.2,0.1-0.3,0.1-0.5,0.1s-0.3,0.1-0.5,0.1c-0.1,0-0.1,0-0.2,0c-0.1,0-0.1,0-0.2,0L329,63c0,0-0.1,0-0.3,0
		c-0.1,0-0.2,0-0.3,0c-0.1,0-0.1,0-0.2,0c-0.1,0-0.1,0-0.2,0h-0.2c-0.1,0-0.2-0.1-0.3-0.1c-0.1,0-0.2,0-0.3,0
		c-0.1-0.1-0.3-0.1-0.4-0.1c-0.1,0-0.3-0.1-0.4-0.1c-0.1-0.1-0.3-0.1-0.4-0.2c-0.1-0.1-0.3-0.1-0.4-0.2c-0.9-0.5-1.6-1.1-2.1-2
		c-0.6-0.8-1-1.8-1.4-3c-0.1-0.3-0.1-0.5-0.2-0.8c0-0.3-0.1-0.5-0.2-0.8c0-0.1,0-0.1,0-0.2c0-0.1,0-0.1,0-0.2c0-0.1,0-0.3,0-0.4
		c0-0.1,0-0.3,0-0.4c0-0.1,0-0.1,0-0.2c0-0.1,0-0.1,0-0.2v-0.6c0-0.1,0-0.2,0-0.4s0-0.3,0-0.4v-0.3l0.1-1c0-0.1,0-0.2,0-0.3
		c0-0.1,0-0.2,0-0.3c0.1-0.3,0.1-0.6,0.1-0.8c0-0.3,0.1-0.5,0.2-0.8c0.1-0.3,0.2-0.7,0.3-1c0.1-0.3,0.2-0.6,0.4-0.9
		c0.4-0.8,0.9-1.5,1.4-2.1c0.5-0.6,1.2-1.1,1.9-1.4c0.2-0.1,0.3-0.2,0.5-0.2s0.4-0.1,0.5-0.2c0.1,0,0.2-0.1,0.3-0.1
		c0.1,0,0.2,0,0.3-0.1c0.1,0,0.2,0,0.3,0c0.1,0,0.2,0,0.3,0h0.1h0.1c0.9,0,1.8,0.1,2.5,0.4s1.3,0.7,1.9,1.1c0.2,0.2,0.4,0.4,0.6,0.6
		s0.4,0.4,0.5,0.7c0,0.1,0.1,0.2,0.1,0.2c0.1,0.1,0.1,0.1,0.1,0.2c0.1,0.1,0.2,0.3,0.3,0.4c0.1,0.2,0.2,0.3,0.2,0.4s0.1,0.2,0.1,0.2
		c0,0.1,0.1,0.1,0.1,0.2c0.1,0.1,0.1,0.2,0.1,0.3c0.1,0.3,0.2,0.7,0.3,1c0,0.1,0.1,0.2,0.1,0.3s0,0.2,0.1,0.3c0,0.2,0.1,0.4,0.1,0.6
		s0.1,0.4,0.1,0.6c0,0.1,0,0.2,0,0.3c0,0.1,0,0.2,0,0.3c0,0.1,0,0.3,0,0.4s0,0.3,0,0.4v0.2c0,0.1,0,0.2,0,0.3
		C336,52.6,336,52.7,336,52.8z M334,53.6c0-0.1,0-0.2,0-0.5c0-0.3,0-0.4,0-0.5v-0.2c0-0.1,0-0.2,0-0.2c0-0.1,0-0.2,0-0.2
		c0-0.1,0-0.2,0-0.3c0-0.1,0-0.2,0-0.3c0-0.2-0.1-0.3-0.1-0.5s0-0.3-0.1-0.5c-0.1-0.3-0.1-0.5-0.2-0.7c0-0.2-0.1-0.4-0.2-0.7
		c-0.2-0.7-0.6-1.4-1-2c-0.4-0.6-0.9-1-1.5-1.4c-0.3-0.2-0.7-0.3-1.1-0.4c-0.2-0.1-0.4-0.1-0.7-0.1c-0.2,0-0.5,0-0.7,0
		c-0.1,0-0.2,0-0.3,0c-0.1,0-0.2,0-0.3,0c-0.2,0.1-0.4,0.1-0.6,0.2c-0.2,0.1-0.4,0.1-0.6,0.2c-0.8,0.4-1.4,1-1.8,1.8
		c-0.4,0.8-0.8,1.7-1.1,2.7c-0.1,0.2-0.1,0.4-0.1,0.6c0,0.2-0.1,0.4-0.1,0.6c0,0.1,0,0.2,0,0.3c0,0.1,0,0.2,0,0.3c0,0.1,0,0.1,0,0.2
		c0,0.1,0,0.2,0,0.2v0.2c0,0.1,0,0.3,0,0.5s0,0.4,0,0.5s0,0.1,0,0.2c0,0.1,0,0.1,0,0.2c0,0.1,0,0.3,0.1,0.5c0,0.2,0,0.3,0.1,0.5
		c0,0.1,0,0.1,0,0.2c0,0.1,0,0.1,0,0.2c0,0.2,0.1,0.4,0.1,0.6s0.1,0.4,0.1,0.6c0.1,0.2,0.1,0.4,0.2,0.6c0,0.2,0.1,0.4,0.2,0.6
		c0.1,0.1,0.1,0.3,0.2,0.4c0.1,0.1,0.1,0.3,0.2,0.4c0.4,0.8,1,1.4,1.7,1.9c0.2,0.1,0.4,0.3,0.6,0.3c0.2,0.1,0.4,0.2,0.7,0.2
		c0.1,0,0.2,0,0.3,0c0.1,0,0.2,0,0.3,0c0.1,0,0.2,0,0.3,0s0.2,0,0.3,0h0.2c0.1,0,0.1,0,0.2,0c0.1,0,0.1,0,0.2,0
		c0.2-0.1,0.4-0.1,0.6-0.1c0.2,0,0.3-0.1,0.5-0.2c0.7-0.4,1.3-0.9,1.8-1.5c0.5-0.6,0.8-1.4,1.1-2.3c0.1-0.2,0.1-0.5,0.2-0.7
		c0-0.3,0.1-0.5,0.2-0.8c0-0.1,0-0.2,0.1-0.3c0-0.1,0-0.2,0.1-0.4l0.1-0.9v0H334z"/>
	<path style="fill:#010101;" d="M344.6,43.3c1.4,0,2.6,0.2,3.5,0.8s1.7,1.4,2.2,2.5c0.1,0.3,0.3,0.6,0.3,0.8s0.2,0.6,0.3,0.9
		c0,0.1,0.1,0.2,0.1,0.4s0,0.3,0,0.4s-0.1,0.2-0.2,0.2c-0.1,0-0.2,0.1-0.2,0.1h-0.2c0,0-0.1,0-0.2,0c-0.1,0-0.1,0-0.2,0
		c-0.2,0-0.4,0-0.5,0c-0.2,0-0.3-0.1-0.3-0.3c-0.1-0.2-0.2-0.4-0.2-0.6c-0.1-0.2-0.1-0.4-0.2-0.6c-0.2-0.4-0.4-0.7-0.6-1
		c-0.2-0.3-0.5-0.6-0.8-0.8c-0.2-0.1-0.4-0.3-0.6-0.3c-0.2-0.1-0.4-0.1-0.6-0.2c-0.2-0.1-0.3-0.1-0.5-0.1c-0.2,0-0.4,0-0.6,0
		c-0.2,0-0.4,0-0.6,0s-0.4,0.1-0.5,0.1c-0.1,0-0.3,0.1-0.4,0.1c-0.1,0-0.3,0.1-0.4,0.2c-1.2,0.6-2,1.7-2.6,3.2
		c-0.1,0.3-0.2,0.5-0.2,0.8c-0.1,0.3-0.1,0.6-0.2,0.8c0,0.1,0,0.2,0,0.3c0,0.1,0,0.2,0,0.3c0,0.1,0,0.1,0,0.2c0,0.1,0,0.1,0,0.2
		c0,0.2,0,0.4-0.1,0.6c0,0.2,0,0.4,0,0.6c0,0.1,0,0.3,0,0.4c0,0.1,0,0.3,0,0.4v0.3c0,0.1,0,0.3,0,0.4c0,0.1,0,0.3,0,0.4
		c0,0.1,0,0.2,0,0.3c0,0.1,0,0.2,0,0.3c0,0.2,0.1,0.5,0.1,0.7s0.1,0.4,0.1,0.7c0.2,0.9,0.6,1.7,0.9,2.3c0.4,0.6,0.9,1.2,1.5,1.6
		c0.2,0.1,0.4,0.2,0.6,0.3c0.2,0.1,0.4,0.2,0.7,0.2c0.1,0,0.2,0,0.3,0c0.1,0,0.2,0,0.3,0c0.1,0,0.2,0,0.4,0c0.2,0,0.3,0,0.4,0h0.1
		c0.1,0,0.1,0,0.2,0c0.1,0,0.1,0,0.2,0c0.1,0,0.3-0.1,0.4-0.1c0.1,0,0.3-0.1,0.4-0.1c1.1-0.6,1.9-1.5,2.3-2.8
		c0.1-0.3,0.2-0.7,0.3-1.2c0-0.2,0.1-0.3,0.1-0.5s0.1-0.3,0.1-0.5c0.1-0.1,0.2-0.2,0.3-0.2c0.2,0,0.3,0,0.5,0c0.1,0,0.1,0,0.2,0
		c0.1,0,0.1,0,0.2,0h0.1h0.1c0,0,0.1,0,0.1,0.1c0.1,0.1,0.2,0.2,0.2,0.4c0,0.2,0,0.4,0,0.5c-0.1,0.4-0.2,0.8-0.2,1.2
		c-0.1,0.4-0.2,0.7-0.3,1.1c-0.1,0.2-0.2,0.5-0.3,0.7c-0.1,0.2-0.2,0.4-0.3,0.6c-0.3,0.5-0.6,0.9-0.9,1.3c-0.3,0.4-0.8,0.7-1.2,1
		c-0.2,0.1-0.3,0.2-0.5,0.2c-0.1,0.1-0.3,0.1-0.5,0.2c-0.2,0.1-0.3,0.1-0.5,0.1s-0.3,0.1-0.5,0.1c-0.1,0-0.1,0-0.2,0
		c-0.1,0-0.1,0-0.2,0c-0.1,0-0.2,0-0.3,0c-0.1,0-0.2,0-0.3,0c0,0-0.1,0-0.3,0c-0.1,0-0.2,0-0.3,0c-0.1,0-0.1,0-0.2,0
		c-0.1,0-0.1,0-0.2,0h-0.2c-0.1,0-0.2-0.1-0.3-0.1s-0.2,0-0.3-0.1c-0.1,0-0.3-0.1-0.4-0.1c-0.1,0-0.2-0.1-0.4-0.1
		c-0.3-0.1-0.6-0.2-0.8-0.4c-0.9-0.5-1.6-1.2-2.2-2.1c-0.6-0.9-1-2-1.3-3.2c-0.1-0.2-0.1-0.4-0.1-0.7s-0.1-0.5-0.1-0.7
		c0-0.1,0-0.2,0-0.2c0-0.1,0-0.2,0-0.2c0-0.2,0-0.3-0.1-0.5c0-0.2,0-0.3-0.1-0.5v-0.5c0-0.1,0-0.2,0-0.5c0-0.3,0-0.4,0-0.5
		c0-0.1,0-0.1,0-0.2s0-0.1,0-0.1v-0.2c0-0.1,0-0.3,0-0.4c0-0.2,0-0.3,0.1-0.4c0-0.1,0-0.2,0-0.3c0-0.1,0-0.2,0-0.4
		c0.1-0.3,0.1-0.6,0.2-0.9c0-0.3,0.1-0.6,0.2-0.8c0.1-0.2,0.1-0.5,0.2-0.7c0.1-0.2,0.2-0.5,0.3-0.7c0.2-0.5,0.4-0.9,0.6-1.3
		c0-0.1,0.1-0.2,0.2-0.2c0.1-0.1,0.1-0.1,0.2-0.2c0.1-0.1,0.2-0.3,0.3-0.4c0.1-0.1,0.2-0.2,0.3-0.3c0.1-0.1,0.2-0.2,0.2-0.3
		c0.1-0.1,0.2-0.2,0.3-0.3c0.2-0.2,0.4-0.4,0.7-0.5c0.2-0.1,0.5-0.3,0.7-0.4s0.3-0.2,0.5-0.2c0.2,0,0.4-0.1,0.5-0.2
		c0.1,0,0.2,0,0.3-0.1s0.2,0,0.3-0.1c0.1,0,0.2,0,0.3,0c0.1,0,0.2,0,0.3,0L344.6,43.3C344.5,43.3,344.6,43.3,344.6,43.3z"/>
	<path style="fill:#010101;" d="M354.4,43.8c0.1,0,0.2,0,0.3,0c0.1,0,0.3,0,0.4,0c0.1,0,0.2,0,0.3,0.1c0.1,0,0.2,0.1,0.2,0.2
		c0.1,0.1,0.1,0.3,0.1,0.5c0,0.2,0,0.5,0,0.7v2.6v10.3v3.1c0,0.2,0,0.5,0,0.7c0,0.3,0,0.5-0.1,0.6c-0.1,0.1-0.1,0.1-0.2,0.2
		c-0.1,0-0.2,0-0.3,0.1h-0.4c-0.2,0-0.4,0-0.6,0s-0.3-0.1-0.4-0.3c-0.1-0.1-0.1-0.3-0.1-0.4c0-0.1,0-0.4,0-0.6v-2.1V48.1v-2.9
		c0-0.2,0-0.4,0-0.7c0-0.2,0-0.4,0.1-0.6c0.1-0.1,0.2-0.2,0.3-0.3C354.2,43.8,354.3,43.8,354.4,43.8
		C354.3,43.8,354.3,43.8,354.4,43.8z"/>
	<path style="fill:#010101;" d="M372.6,52.8c0,0.1,0,0.2,0,0.4c0,0.2,0,0.3,0,0.4v0.3c0,0.2,0,0.4,0,0.6s0,0.4,0,0.5
		c0,0.1,0,0.3-0.1,0.4c0,0.1,0,0.3,0,0.4c-0.1,0.3-0.1,0.6-0.2,0.9c-0.1,0.3-0.1,0.6-0.2,0.8c-0.4,1.3-1,2.4-1.7,3.3
		c-0.7,0.9-1.6,1.5-2.7,2c-0.2,0.1-0.3,0.1-0.5,0.1s-0.3,0.1-0.5,0.1c-0.1,0-0.1,0-0.2,0c-0.1,0-0.1,0-0.2,0l-0.7,0.1
		c0,0-0.1,0-0.3,0c-0.1,0-0.2,0-0.3,0c-0.1,0-0.1,0-0.2,0c-0.1,0-0.1,0-0.2,0h-0.2c-0.1,0-0.2-0.1-0.3-0.1c-0.1,0-0.2,0-0.3,0
		c-0.1-0.1-0.3-0.1-0.4-0.1c-0.1,0-0.3-0.1-0.4-0.1c-0.1-0.1-0.3-0.1-0.4-0.2c-0.1-0.1-0.3-0.1-0.4-0.2c-0.9-0.5-1.6-1.1-2.1-2
		c-0.6-0.8-1-1.8-1.4-3c-0.1-0.3-0.1-0.5-0.2-0.8c0-0.3-0.1-0.5-0.2-0.8c0-0.1,0-0.1,0-0.2c0-0.1,0-0.1,0-0.2c0-0.1,0-0.3,0-0.4
		c0-0.1,0-0.3,0-0.4c0-0.1,0-0.1,0-0.2c0-0.1,0-0.1,0-0.2v-0.6c0-0.1,0-0.2,0-0.4s0-0.3,0-0.4v-0.3l0.1-1c0-0.1,0-0.2,0-0.3
		c0-0.1,0-0.2,0-0.3c0.1-0.3,0.1-0.6,0.1-0.8c0-0.3,0.1-0.5,0.2-0.8c0.1-0.3,0.2-0.7,0.3-1c0.1-0.3,0.2-0.6,0.4-0.9
		c0.4-0.8,0.9-1.5,1.4-2.1c0.5-0.6,1.2-1.1,1.9-1.4c0.2-0.1,0.3-0.2,0.5-0.2c0.2,0,0.4-0.1,0.5-0.2c0.1,0,0.2-0.1,0.3-0.1
		s0.2,0,0.3-0.1c0.1,0,0.2,0,0.3,0c0.1,0,0.2,0,0.3,0h0.1h0.1c0.9,0,1.8,0.1,2.5,0.4s1.3,0.7,1.9,1.1c0.2,0.2,0.4,0.4,0.6,0.6
		c0.2,0.2,0.4,0.4,0.5,0.7c0,0.1,0.1,0.2,0.1,0.2c0.1,0.1,0.1,0.1,0.1,0.2c0.1,0.1,0.2,0.3,0.3,0.4c0.1,0.2,0.2,0.3,0.2,0.4
		s0.1,0.2,0.1,0.2c0,0.1,0.1,0.1,0.1,0.2c0.1,0.1,0.1,0.2,0.1,0.3c0.1,0.3,0.2,0.7,0.3,1c0,0.1,0.1,0.2,0.1,0.3s0,0.2,0.1,0.3
		c0,0.2,0.1,0.4,0.1,0.6s0.1,0.4,0.1,0.6c0,0.1,0,0.2,0,0.3c0,0.1,0,0.2,0,0.3c0,0.1,0,0.3,0,0.4s0,0.3,0,0.4v0.2c0,0.1,0,0.2,0,0.3
		C372.6,52.6,372.6,52.7,372.6,52.8z M370.6,53.6c0-0.1,0-0.2,0-0.5c0-0.3,0-0.4,0-0.5v-0.2c0-0.1,0-0.2,0-0.2c0-0.1,0-0.2,0-0.2
		c0-0.1,0-0.2,0-0.3c0-0.1,0-0.2,0-0.3c0-0.2-0.1-0.3-0.1-0.5s0-0.3-0.1-0.5c-0.1-0.3-0.1-0.5-0.2-0.7c0-0.2-0.1-0.4-0.2-0.7
		c-0.2-0.7-0.6-1.4-1-2c-0.4-0.6-0.9-1-1.5-1.4c-0.3-0.2-0.7-0.3-1.1-0.4c-0.2-0.1-0.4-0.1-0.7-0.1c-0.2,0-0.5,0-0.7,0
		c-0.1,0-0.2,0-0.3,0c-0.1,0-0.2,0-0.3,0c-0.2,0.1-0.4,0.1-0.6,0.2c-0.2,0.1-0.4,0.1-0.6,0.2c-0.8,0.4-1.4,1-1.8,1.8
		c-0.4,0.8-0.8,1.7-1.1,2.7c-0.1,0.2-0.1,0.4-0.1,0.6c0,0.2-0.1,0.4-0.1,0.6c0,0.1,0,0.2,0,0.3c0,0.1,0,0.2,0,0.3c0,0.1,0,0.1,0,0.2
		c0,0.1,0,0.2,0,0.2v0.2c0,0.1,0,0.3,0,0.5s0,0.4,0,0.5s0,0.1,0,0.2c0,0.1,0,0.1,0,0.2c0,0.1,0,0.3,0.1,0.5c0,0.2,0,0.3,0.1,0.5
		c0,0.1,0,0.1,0,0.2c0,0.1,0,0.1,0,0.2c0,0.2,0.1,0.4,0.1,0.6s0.1,0.4,0.1,0.6c0.1,0.2,0.1,0.4,0.2,0.6c0,0.2,0.1,0.4,0.2,0.6
		c0.1,0.1,0.1,0.3,0.2,0.4c0.1,0.1,0.1,0.3,0.2,0.4c0.4,0.8,1,1.4,1.7,1.9c0.2,0.1,0.4,0.3,0.6,0.3c0.2,0.1,0.4,0.2,0.7,0.2
		c0.1,0,0.2,0,0.3,0c0.1,0,0.2,0,0.3,0s0.2,0,0.3,0c0.1,0,0.2,0,0.3,0h0.2c0.1,0,0.1,0,0.2,0c0.1,0,0.1,0,0.2,0
		c0.2-0.1,0.4-0.1,0.6-0.1c0.2,0,0.3-0.1,0.5-0.2c0.7-0.4,1.3-0.9,1.8-1.5s0.8-1.4,1.1-2.3c0.1-0.2,0.1-0.5,0.2-0.7
		c0-0.3,0.1-0.5,0.2-0.8c0-0.1,0-0.2,0.1-0.3c0-0.1,0-0.2,0.1-0.4l0.1-0.9v0H370.6z"/>
</g>
<g>
	<path style="fill:#1173BA;" d="M353,85.2c0-0.1,0-0.2,0-0.3c0-0.1,0-0.3,0-0.4s0-0.3,0-0.4s0-0.2,0-0.3c0-0.2,0-0.3,0-0.5
		c0-0.2,0-0.3,0-0.5c0-0.1,0.1-0.2,0-0.4c0-0.1,0-0.2,0-0.4c0-0.3,0.1-0.5,0.1-0.8s0.1-0.5,0.1-0.8c0.1-0.4,0.2-0.8,0.3-1.2
		c0.1-0.4,0.2-0.7,0.3-1.1c0.3-1,0.7-1.9,1.2-2.8c0.5-0.8,1.1-1.5,1.7-2.1c0.4-0.3,0.8-0.6,1.2-0.9c0.4-0.2,0.9-0.5,1.3-0.7
		c0.2-0.1,0.4-0.1,0.6-0.2c0.2,0,0.4-0.1,0.6-0.2c0.1,0,0.2,0,0.3,0c0.1,0,0.2,0,0.3,0c0.1,0,0.2,0,0.2,0c0.1,0,0.2,0,0.3,0
		c0,0,0.1,0,0.2,0c0.1,0,0.1,0,0.2,0c0.2,0,0.3-0.1,0.6,0c0.3,0.1,0.4,0,0.6,0h6.6c0.3,0,0.6,0,0.8,0.1c0.2,0,0.4,0.2,0.5,0.5
		c0.1,0.2,0.1,0.5,0.1,0.9s0,0.7,0,1V95c0,0.3,0,0.6,0,0.9c0,0.3,0,0.6-0.1,0.8c-0.1,0.1-0.2,0.3-0.4,0.4h-0.1h-0.1h-7.6
		c-0.1,0-0.2,0-0.4,0c-0.1,0-0.2,0-0.3,0h-0.3c-0.1,0-0.2-0.1-0.3-0.1c-0.1,0-0.2,0-0.3-0.1c-0.1,0-0.2-0.1-0.3-0.1
		c-0.1,0-0.2,0-0.3-0.1c-0.3-0.1-0.5-0.1-0.8-0.2c-0.2-0.1-0.5-0.2-0.7-0.3c-0.2-0.1-0.4-0.2-0.6-0.3c-0.2-0.1-0.4-0.2-0.6-0.4
		c-0.5-0.4-0.9-0.8-1.3-1.1l-0.2-0.2c-0.2-0.2-0.4-0.4-0.5-0.7l-0.3-0.3c-0.1-0.2-0.2-0.4-0.3-0.6c-0.1-0.2-0.2-0.4-0.3-0.6
		c-0.2-0.5-0.5-1-0.7-1.6s-0.4-1.2-0.5-1.8c-0.1-0.3-0.2-0.6-0.2-1c0-0.3-0.1-0.7-0.1-1c0-0.1,0-0.2,0-0.3c0-0.1,0-0.2,0-0.3
		c0-0.1-0.1-0.3,0-0.5c0-0.2,0-0.3,0-0.4l0,0H353z M357.5,83.4c0,0.1-0.1,0.3-0.1,0.6s0,0.5,0.1,0.6v0.7c0,0.2,0.1,0.4,0.1,0.7
		c0,0.2,0,0.5,0.1,0.7c0,0.1,0.1,0.2,0,0.3c0,0.1,0,0.2,0,0.3c0.1,0.4,0.2,0.8,0.3,1.1c0.1,0.4,0.2,0.7,0.4,1c0.3,0.6,0.6,1.1,1,1.5
		c0.4,0.4,0.8,0.8,1.4,1.1c0.2,0.1,0.3,0.1,0.5,0.2c0.2,0.1,0.3,0.1,0.5,0.2c0.2,0,0.3,0,0.4,0.1c0.1,0,0.3,0,0.4,0.1
		c0.1,0,0.2,0,0.2,0s0.1,0,0.2,0h0.6c0.1,0,0.2,0,0.3,0c0.1,0,0.2,0,0.3,0h1.3c0,0,0.1-0.1,0.2,0c0.1,0,0.2,0,0.2,0
		c0.1,0,0.2-0.1,0.3-0.1c0.1,0,0.2-0.1,0.2-0.2c0.1-0.1,0.1-0.3,0.1-0.5c0-0.2,0-0.5,0-0.7c0-0.3,0-0.6,0-1c0-0.3,0-0.7,0-1V78.8
		c0-0.1,0-0.3,0-0.5c0-0.2,0-0.3,0-0.4v-0.4c0-0.2,0-0.3,0-0.5c0-0.2,0-0.3-0.1-0.4c-0.1-0.3-0.3-0.4-0.7-0.5c-0.3,0-0.7,0-1,0
		c-0.7,0-1.5,0-2.3,0c-0.8,0-1.4,0.2-2,0.4c-0.7,0.4-1.3,0.8-1.7,1.5c-0.4,0.6-0.8,1.4-1.1,2.3c-0.1,0.2-0.1,0.4-0.2,0.7
		c0,0.2-0.1,0.5-0.1,0.7V82c0,0.2-0.1,0.4-0.1,0.5c0,0.2,0,0.4-0.1,0.6v0.3H357.5z"/>
	<path style="fill:#1173BA;" d="M349.1,97.1h-2.5c-0.2,0-0.4,0-0.6,0c-0.2,0-0.3-0.1-0.4-0.3c-0.1-0.2-0.1-0.4-0.2-0.7
		c0-0.3,0-0.6,0-0.9V92V79.6v-5.9c0-0.3,0-0.7,0-1.1s0-0.7,0.1-0.9c0.1-0.2,0.3-0.3,0.5-0.4c0.1,0,0.3-0.1,0.4,0c0.2,0,0.3,0,0.5,0
		h1.7c0.2,0,0.4,0,0.6,0c0.2,0,0.3,0.1,0.4,0.2c0.1,0.1,0.2,0.3,0.2,0.5c0,0.2,0,0.5,0,0.8v3.4v13.2v5.2c0,0.3,0,0.7,0,1.2
		c0,0.5,0,0.8-0.1,1c-0.1,0.1-0.2,0.3-0.4,0.4C349.2,97.2,349.2,97.2,349.1,97.1C349.2,97.1,349.1,97.1,349.1,97.1z"/>
	<path style="fill:#1173BA;" d="M340.7,97.1h-10h-2.3c-0.2,0-0.4,0-0.6,0c-0.2,0-0.3-0.1-0.4-0.3c-0.1-0.1-0.1-0.3-0.2-0.5
		c0-0.2,0-0.4,0-0.7c0-0.3,0-0.5,0-0.8c0-0.3,0-0.5,0-0.7c0-0.2,0-0.3,0-0.5c0-0.2,0-0.3,0-0.5c0-0.1,0.1-0.2,0.1-0.3
		c0-0.1,0.1-0.2,0.2-0.3c0.2-0.1,0.4-0.2,0.8-0.2c0.4,0,0.7,0,1,0h5.5c0.3,0,0.7,0,1.1,0s0.7-0.1,0.9-0.2c0.1-0.1,0.2-0.3,0.3-0.5
		c0-0.2,0.1-0.4,0-0.7c0-0.3,0-0.5,0-0.7v-1.7c0-0.1,0-0.3,0-0.4c0-0.2,0-0.3,0-0.4v-0.4c0-0.2-0.1-0.4-0.1-0.5
		c0-0.1-0.1-0.3-0.3-0.3c-0.1,0-0.2-0.1-0.3-0.1c-0.1,0-0.3,0-0.4,0H335h-4c-0.2,0-0.3,0-0.5,0s-0.4,0-0.6,0c-0.2,0-0.4,0-0.5-0.1
		c-0.2,0-0.3-0.1-0.4-0.1c-0.2-0.2-0.3-0.5-0.3-1s0-0.9,0-1.3c0-0.2,0-0.4,0-0.6c0-0.2,0-0.4,0-0.6c0.1-0.3,0.2-0.4,0.3-0.5
		c0.1-0.1,0.4-0.1,0.8-0.1c0.4,0,0.7,0,1,0h4.7c0.4,0,0.7,0,1.1,0c0.3,0,0.6-0.2,0.7-0.5c0-0.1,0.1-0.2,0.1-0.2v-0.2v-0.4v-0.8v-1
		v-5.1c0-0.3,0-0.8,0-1.3c0-0.5,0-0.9,0.1-1.1c0.1-0.1,0.1-0.2,0.2-0.2c0.1,0,0.2-0.1,0.3-0.1c0.1,0,0.3-0.1,0.4,0
		c0.2,0,0.3,0,0.5,0h1.7c0.2,0,0.4,0,0.6,0c0.2,0,0.3,0.1,0.4,0.2c0.1,0.1,0.2,0.3,0.2,0.6c0,0.3,0,0.5,0,0.8v3.1v13.2v5.2
		c0,0.3,0,0.7,0,1.2s0,0.8-0.1,1c-0.1,0.2-0.2,0.3-0.4,0.4h-0.1C340.7,97.1,340.7,97.1,340.7,97.1z"/>
	<path style="fill:#1173BA;" d="M323.8,97.2h-10.7h-2.5c-0.2,0-0.5,0-0.7,0s-0.4-0.1-0.5-0.3c0-0.1-0.1-0.2-0.1-0.3s0-0.2-0.1-0.3
		v-0.4c0-0.2,0-0.4,0-0.5c0-0.2,0-0.4,0-0.5c0-0.2,0-0.4,0-0.6c0-0.2,0-0.4,0-0.5s0-0.3,0-0.5c0.1-0.3,0.2-0.5,0.3-0.6
		c0.1-0.1,0.3-0.1,0.4-0.1c0.1,0,0.4,0,0.5,0h2h5.2c0.2,0,0.3,0,0.5,0s0.4,0,0.6,0c0.2,0,0.4,0,0.6-0.1c0.2,0,0.3-0.1,0.4-0.2
		c0.1-0.1,0.2-0.3,0.2-0.5c0-0.2,0-0.5,0-0.8v-2.1v-1.1c0-0.2-0.1-0.4-0.1-0.5c0-0.1-0.1-0.2-0.2-0.3c-0.1-0.1-0.2-0.2-0.4-0.2
		c-0.2,0-0.3,0-0.5,0H317h-5c-0.1,0-0.3,0-0.5,0c-0.2,0-0.4,0-0.6,0c-0.2,0-0.4,0-0.5-0.1c-0.2,0-0.3-0.1-0.4-0.1
		c-0.1-0.1-0.2-0.2-0.2-0.4s-0.1-0.5-0.1-0.7c0-0.2,0-0.5,0-0.8c0-0.3,0-0.5,0-0.7c0-0.2,0-0.3,0-0.5c0-0.2,0-0.3,0.1-0.4
		c0-0.2,0.1-0.4,0.2-0.5c0.1-0.1,0.2-0.1,0.4-0.1s0.3,0,0.5,0s0.4,0,0.6,0c0.2,0,0.4,0,0.5,0h5.5c0.2,0,0.5,0,0.7,0s0.4,0,0.6,0
		c0.2,0,0.3-0.1,0.5-0.2c0.1-0.1,0.2-0.3,0.3-0.5c0-0.1,0-0.2,0-0.4c0-0.1,0-0.3,0-0.4v-1.4v-2c0-0.3,0-0.6,0-0.8s-0.1-0.4-0.2-0.5
		c-0.1-0.1-0.1-0.1-0.2-0.1c-0.1,0-0.2,0-0.3-0.1h-0.3c-0.1,0-0.2,0-0.3,0c-0.1,0-0.2,0-0.3,0h-1.2h-5.3h-1.5c-0.2,0-0.3,0-0.4,0
		c-0.1,0-0.3,0-0.4-0.1c-0.2-0.1-0.3-0.2-0.3-0.4c0-0.1-0.1-0.3-0.1-0.4c0-0.2,0-0.4,0-0.5v-1.7c0-0.3,0-0.6,0-0.8
		c0-0.3,0.1-0.4,0.3-0.6c0.1-0.1,0.3-0.2,0.4-0.2c0.1,0,0.4,0,0.6,0h2.2h8.4h2.3c0.3,0,0.5,0,0.7,0.1c0.2,0,0.3,0.2,0.4,0.3
		c0.1,0.1,0.1,0.3,0.1,0.6s0,0.5,0,0.7v2.6v9.8v7.8v2.3c0,0.2,0,0.4,0,0.7c0,0.2,0,0.4-0.1,0.5c-0.1,0.2-0.2,0.3-0.4,0.4h-0.1
		C323.9,97.1,323.8,97.1,323.8,97.2z"/>
	<path style="fill:#1173BA;" d="M288.9,72.3c0-0.1,0-0.3,0-0.4s0.1-0.2,0.2-0.3c0.1-0.1,0.3-0.2,0.5-0.2s0.4,0,0.6,0h1.6
		c0.3,0,0.6,0,0.8,0.1c0.2,0,0.4,0.2,0.5,0.4c0.2,0.3,0.2,0.7,0.3,1.2c0,0.5,0.1,0.9,0.1,1.3c0,0.1,0,0.2,0,0.3s0,0.2,0,0.2
		c0.1,0.3,0.1,0.6,0.1,0.9c0,0.3,0,0.6,0.1,0.9c0,0.1,0,0.2,0,0.3c0,0.3,0.1,0.5,0.1,0.8s0.1,0.6,0.1,0.8c0.2,0.6,0.3,1.1,0.5,1.5
		s0.5,0.8,0.9,1c0.1,0,0.2,0.1,0.3,0.1c0.1,0,0.2,0.1,0.3,0.1c0.3,0.1,0.7,0.2,1.2,0.2s0.9,0,1.3,0h2.4c0.2,0,0.3-0.1,0.4-0.1
		c0.1,0,0.2-0.1,0.3-0.2c0.2-0.2,0.2-0.6,0.2-1.1s0-1,0-1.4V74c0-0.2,0-0.4,0-0.6c0-0.2,0-0.4,0-0.6c0-0.2,0-0.4,0-0.5
		c0-0.2,0-0.3,0.1-0.4c0.1-0.2,0.2-0.4,0.3-0.4c0.1,0,0.2-0.1,0.3-0.1c0.1,0,0.3,0,0.4,0h1.3c0.3,0,0.6,0,1,0c0.4,0,0.6,0.1,0.8,0.2
		s0.2,0.3,0.2,0.7c0,0.3,0,0.6,0,1v21.9c0,0.3,0,0.5,0,0.8s0,0.5-0.1,0.7c-0.1,0.1-0.2,0.3-0.4,0.4h-0.1h-0.1h-9.7
		c-0.3,0-0.6,0-0.9,0c-0.3,0-0.5-0.1-0.8-0.1c-0.1,0-0.2-0.1-0.3-0.1c-0.1,0-0.2,0-0.3-0.1c-0.1,0-0.3-0.1-0.4-0.1
		c-0.1,0-0.3-0.1-0.4-0.2c-0.5-0.3-0.9-0.6-1.3-1c-0.4-0.4-0.7-0.8-1-1.3c-0.1-0.1-0.1-0.2-0.2-0.4c0-0.1-0.1-0.3-0.2-0.4
		c-0.2-0.3-0.3-0.7-0.3-1.1s-0.2-0.8-0.3-1.2c0-0.1,0-0.2,0-0.3c0-0.1,0-0.2,0-0.3v-0.3c0-0.2,0-0.4,0-0.7c0-0.3,0-0.5,0.1-0.7
		c0-0.2,0.1-0.4,0.1-0.5c0-0.2,0-0.3,0.1-0.5c0.1-0.4,0.2-0.7,0.3-1c0.1-0.3,0.2-0.6,0.4-0.9c0-0.1,0.1-0.2,0.1-0.2
		c0.1-0.1,0.1-0.2,0.1-0.2c0.1-0.1,0.1-0.2,0.2-0.3c0.1-0.1,0.1-0.2,0.2-0.3c0.1-0.1,0.2-0.2,0.3-0.4c0.1-0.1,0.2-0.2,0.4-0.4
		c0.1-0.1,0.2-0.2,0.2-0.2c0.1-0.1,0.1-0.2,0.2-0.3c0-0.1,0-0.3-0.1-0.4c-0.1-0.1-0.1-0.2-0.2-0.2c-0.2-0.2-0.4-0.4-0.6-0.6
		c-0.2-0.2-0.4-0.4-0.5-0.7c-0.2-0.4-0.4-0.8-0.5-1.3c-0.1-0.4-0.3-0.9-0.4-1.5c0-0.2-0.1-0.4-0.1-0.7c0-0.2,0-0.5-0.1-0.7
		c0-0.1,0-0.3,0-0.4c0-0.1,0-0.3,0-0.4c0-0.1,0-0.2,0-0.3s0-0.2,0-0.3s0-0.2,0-0.3c0-0.1,0-0.2,0-0.3c0-0.2-0.1-0.5-0.1-0.8
		s0-0.5-0.1-0.8l-0.1-0.7c0-0.2-0.1-0.4-0.1-0.7C289,72.7,289,72.5,288.9,72.3z M293.7,88.5c0,0.3,0,0.6,0,1c0,0.4,0.1,0.7,0.1,0.9
		c0,0.1,0.1,0.2,0.1,0.3c0,0.1,0,0.1,0.1,0.2c0.2,0.8,0.7,1.3,1.3,1.6c0.3,0.2,0.7,0.3,1.1,0.3c0.4,0,0.9,0,1.3,0h3.3l0.1-0.1h0.1
		c0.2-0.1,0.4-0.2,0.5-0.4c0.1-0.2,0.1-0.4,0.1-0.7c0-0.3,0-0.6,0-0.9v-3.4c0-0.3,0-0.6,0-0.9s0-0.5-0.1-0.7
		c-0.1-0.1-0.2-0.2-0.4-0.3c-0.2,0-0.4-0.1-0.6-0.1c-0.2,0-0.4,0-0.7,0c-0.2,0-0.4,0-0.6,0h-1.7c-0.1,0-0.3,0-0.4,0
		c-0.2,0-0.3,0-0.4,0.1h-0.4c-0.2,0-0.3,0.1-0.4,0.1c-0.1,0-0.3,0-0.4,0.1c-0.3,0.1-0.6,0.3-0.9,0.5c-0.2,0.2-0.5,0.4-0.6,0.8
		c-0.1,0.2-0.2,0.5-0.3,0.7C293.8,87.9,293.7,88.1,293.7,88.5z"/>
	<path style="fill:#1173BA;" d="M284.8,97.2h-10.7h-2.5c-0.2,0-0.5,0-0.7,0c-0.2,0-0.4-0.1-0.5-0.3c0-0.1-0.1-0.2-0.1-0.3
		s0-0.2-0.1-0.3v-0.4c0-0.2,0-0.4,0-0.5c0-0.2,0-0.4,0-0.5c0-0.2,0-0.4,0-0.6c0-0.2,0-0.4,0-0.5s0-0.3,0-0.5
		c0.1-0.3,0.2-0.5,0.3-0.6c0.1-0.1,0.3-0.1,0.4-0.1c0.1,0,0.4,0,0.5,0h2h5.2c0.2,0,0.3,0,0.5,0s0.4,0,0.6,0c0.2,0,0.4,0,0.6-0.1
		c0.2,0,0.3-0.1,0.4-0.2c0.1-0.1,0.2-0.3,0.2-0.5c0-0.2,0-0.5,0-0.8v-2.1v-1.1c0-0.2-0.1-0.4-0.1-0.5c0-0.1-0.1-0.2-0.2-0.3
		c-0.1-0.1-0.2-0.2-0.4-0.2s-0.3,0-0.5,0H278h-5c-0.1,0-0.3,0-0.5,0s-0.4,0-0.6,0c-0.2,0-0.4,0-0.5-0.1c-0.2,0-0.3-0.1-0.4-0.1
		c-0.1-0.1-0.2-0.2-0.2-0.4s-0.1-0.5-0.1-0.7c0-0.2,0-0.5,0-0.8c0-0.3,0-0.5,0-0.7c0-0.2,0-0.3,0-0.5c0-0.2,0-0.3,0.1-0.4
		c0-0.2,0.1-0.4,0.2-0.5c0.1-0.1,0.2-0.1,0.4-0.1s0.3,0,0.5,0s0.4,0,0.6,0s0.4,0,0.5,0h5.5c0.2,0,0.5,0,0.7,0s0.4,0,0.6,0
		c0.2,0,0.3-0.1,0.5-0.2c0.1-0.1,0.2-0.3,0.3-0.5c0-0.1,0-0.2,0-0.4c0-0.1,0-0.3,0-0.4v-1.4v-2c0-0.3,0-0.6,0-0.8s-0.1-0.4-0.2-0.5
		c-0.1-0.1-0.1-0.1-0.2-0.1c-0.1,0-0.2,0-0.3-0.1l0,0c-0.1,0-0.2,0-0.3,0s-0.2,0-0.3,0h-1.2h-5.3h-1.5c-0.2,0-0.3,0-0.4,0
		c-0.1,0-0.3,0-0.4-0.1c-0.2-0.1-0.3-0.2-0.3-0.4c0-0.1-0.1-0.3-0.1-0.4c0-0.2,0-0.4,0-0.5v-1.7c0-0.3,0-0.6,0-0.8
		c0-0.3,0.1-0.4,0.3-0.6c0.1-0.1,0.3-0.2,0.4-0.2c0.1,0,0.4,0,0.6,0h2.2h8.4h2.3c0.3,0,0.5,0,0.7,0.1c0.2,0,0.3,0.2,0.4,0.3
		c0.1,0.1,0.1,0.3,0.1,0.6s0,0.5,0,0.7v2.6v9.8v7.8v2.3c0,0.2,0,0.4,0,0.7c0,0.2,0,0.4-0.1,0.5c-0.1,0.2-0.2,0.3-0.4,0.4H285
		C284.8,97.1,284.8,97.1,284.8,97.2z"/>
	<path style="fill:#1173BA;" d="M266.2,97.2H264c-0.2,0-0.4,0-0.6,0c-0.2,0-0.4,0-0.5-0.1c-0.2-0.1-0.3-0.2-0.4-0.4
		c-0.1-0.2-0.2-0.4-0.3-0.6l-1-2.1c-0.7-1.4-1.3-2.8-2-4.1c-0.7-1.4-1.4-2.7-2-4.1c-0.3-0.7-0.6-1.3-1-2c-0.3-0.7-0.6-1.3-1-1.9
		c-0.1-0.1-0.1-0.3-0.2-0.4s-0.2-0.3-0.3-0.4l-0.1-0.1c-0.1,0-0.1,0-0.2,0c-0.1,0-0.2,0.2-0.2,0.3c0,0.2,0,0.4-0.1,0.5
		c0,0.2,0,0.4,0,0.6c0,0.2,0,0.4,0,0.6v2.3v8.3v1.4c0,0.1,0,0.2,0,0.4c0,0.1,0,0.2,0,0.3v0.4c0,0.3-0.1,0.6-0.2,0.8
		c-0.1,0.2-0.2,0.3-0.4,0.3c-0.2,0-0.4,0-0.6,0h-1.8c-0.2,0-0.3,0-0.5,0s-0.3,0-0.4-0.1c-0.2-0.1-0.4-0.3-0.4-0.6s0-0.7,0-1.1v-4
		V76.3v-3.1c0-0.3,0-0.5,0-0.8c0-0.3,0-0.5,0.1-0.6c0.1-0.1,0.2-0.2,0.3-0.3c0.1,0,0.2-0.1,0.4-0.1h1h1.6c0.2,0,0.3,0,0.5,0
		s0.3,0,0.4,0.1c0.2,0.1,0.4,0.3,0.5,0.5c0.1,0.2,0.2,0.4,0.3,0.7c0.2,0.3,0.3,0.7,0.5,1c0.2,0.4,0.3,0.7,0.5,1l4.3,8.6
		c0.3,0.6,0.5,1.1,0.8,1.6s0.5,1.1,0.8,1.6c0.1,0.2,0.2,0.4,0.3,0.6c0.1,0.2,0.3,0.4,0.5,0.4c0.2-0.2,0.2-0.4,0.2-0.6
		c0-0.2,0-0.5,0-0.8v-2.5V75v-1.4c0-0.1,0-0.2,0-0.4c0-0.1,0-0.2,0-0.4v-0.4c0-0.4,0-0.7,0.1-0.8c0.1-0.1,0.2-0.2,0.4-0.3
		c0.2,0,0.3,0,0.6,0h1.8c0.2,0,0.3,0,0.5,0c0.2,0,0.3,0,0.4,0.1c0.3,0.1,0.4,0.3,0.4,0.7c0,0.3,0,0.7,0,1.1v4.2v14.5v3.4
		c0,0.3,0,0.5,0,0.8s0,0.5-0.1,0.7c-0.1,0.2-0.2,0.3-0.4,0.4L266.2,97.2L266.2,97.2z"/>
	<path style="fill:#1173BA;" d="M235.3,97.2h-2.9c-0.2,0-0.5,0-0.7,0c-0.2,0-0.4-0.1-0.6-0.2c-0.1,0-0.1-0.1-0.1-0.2
		s-0.1-0.2-0.1-0.3v-0.2c0-0.1,0-0.2,0-0.3c0-0.1,0-0.2,0-0.4v-1.4c0-0.2,0-0.3,0-0.5c0-0.2,0-0.3,0-0.5c0.1-0.4,0.3-0.6,0.6-0.7
		c0.3,0,0.6,0,1,0h2.9c0.4,0,0.7,0,1-0.1c0.3,0,0.5-0.3,0.6-0.7c0-0.1,0-0.2,0-0.3s0-0.2,0-0.3c0-0.1,0-0.3,0-0.5c0-0.2,0-0.3,0-0.5
		V87V76.6v-3.4c0-0.4,0-0.7,0-1s0.1-0.5,0.4-0.6c0.1,0,0.3-0.1,0.5-0.1c0.2,0,0.3,0,0.5,0h2c0.2,0,0.4,0,0.6,0s0.3,0.1,0.4,0.3
		c0.1,0.2,0.1,0.4,0.1,0.7c0,0.3,0,0.6,0,0.9V77v10.1v3.1c0,0.2,0,0.3,0,0.5c0,0.2,0,0.3,0,0.5c0,0.1,0,0.2,0,0.3c0,0.1,0,0.2,0,0.3
		c0.1,0.4,0.3,0.6,0.6,0.7c0.3,0,0.6,0.1,1.1,0.1h2.7c0.2,0,0.4,0,0.7,0c0.3,0,0.5,0,0.6,0.1c0.2,0.1,0.3,0.2,0.3,0.3
		c0.1,0.1,0.1,0.3,0.1,0.5c0,0.2,0,0.4,0,0.6v1.8c0,0.3,0,0.6,0,0.8s-0.1,0.4-0.3,0.5c-0.1,0-0.2,0.1-0.3,0.1h-0.1
		C246.8,97.2,235.3,97.2,235.3,97.2z"/>
	<path style="fill:#1173BA;" d="M227.7,97.2H217h-2.5c-0.2,0-0.5,0-0.7,0s-0.4-0.1-0.5-0.3c0-0.1-0.1-0.2-0.1-0.3s0-0.2-0.1-0.3
		v-0.4c0-0.2,0-0.4,0-0.5c0-0.2,0-0.4,0-0.5c0-0.2,0-0.4,0-0.6c0-0.2,0-0.4,0-0.5s0-0.3,0-0.5c0.1-0.3,0.2-0.5,0.3-0.6
		c0.1-0.1,0.3-0.1,0.4-0.1s0.4,0,0.5,0h2h5.2c0.2,0,0.3,0,0.5,0s0.4,0,0.6,0s0.4,0,0.6-0.1c0.2,0,0.3-0.1,0.4-0.2s0.2-0.3,0.2-0.5
		c0-0.2,0-0.5,0-0.8v-2.1v-1.1c0-0.2-0.1-0.4-0.1-0.5c0-0.1-0.1-0.2-0.2-0.3c-0.1-0.1-0.2-0.2-0.4-0.2c-0.2,0-0.3,0-0.5,0H221h-5
		c-0.1,0-0.3,0-0.5,0c-0.2,0-0.4,0-0.6,0c-0.2,0-0.4,0-0.5-0.1c-0.2,0-0.3-0.1-0.4-0.1c-0.1-0.1-0.2-0.2-0.2-0.4s-0.1-0.5-0.1-0.7
		c0-0.2,0-0.5,0-0.8c0-0.3,0-0.5,0-0.7c0-0.2,0-0.3,0-0.5c0-0.2,0-0.3,0.1-0.4c0-0.2,0.1-0.4,0.2-0.5c0.1-0.1,0.2-0.1,0.4-0.1
		c0.2,0,0.3,0,0.5,0c0.2,0,0.4,0,0.6,0c0.2,0,0.4,0,0.5,0h5.5c0.2,0,0.5,0,0.7,0c0.2,0,0.4,0,0.6,0c0.2,0,0.3-0.1,0.5-0.2
		c0.1-0.1,0.2-0.3,0.3-0.5c0-0.1,0-0.2,0-0.4c0-0.1,0-0.3,0-0.4v-1.4v-2c0-0.3,0-0.6,0-0.8s-0.1-0.4-0.2-0.5
		c-0.1-0.1-0.1-0.1-0.2-0.1s-0.2,0-0.3-0.1h-0.3c-0.1,0-0.2,0-0.3,0c-0.1,0-0.2,0-0.3,0h-1.2h-5.3H214c-0.2,0-0.3,0-0.4,0
		s-0.3,0-0.4-0.1c-0.2-0.1-0.3-0.2-0.3-0.4c0-0.1-0.1-0.3-0.1-0.4c0-0.2,0-0.4,0-0.5v-1.7c0-0.3,0-0.6,0-0.8c0-0.3,0.1-0.4,0.3-0.6
		c0.1-0.1,0.3-0.2,0.4-0.2s0.4,0,0.6,0h2.2h8.4h2.3c0.3,0,0.5,0,0.7,0.1c0.2,0,0.3,0.2,0.4,0.3c0.1,0.1,0.1,0.3,0.1,0.6s0,0.5,0,0.7
		v2.6v9.8v7.8v2.3c0,0.2,0,0.4,0,0.7c0,0.2,0,0.4-0.1,0.5c-0.1,0.2-0.2,0.3-0.4,0.4h-0.1C227.8,97.1,227.7,97.1,227.7,97.2z"/>
</g>
<g id="EGG_1_" style="opacity:0.85;">
	<path style="fill:#CD8BDA;" d="M411.8,32c2.1,2.3,7.7,6.6,16.5,11.1c8.8,4.5,20.7,9.1,32,11.6c11.3,2.5,22,2.9,27.7,3.4
		c5.7,0.5,6.4,1.2,8.9-1.4c2.6-2.5,6.9-8.1,9.4-12.4c2.6-4.4,3.3-7.3,3.4-9.2c0.1-1.9-0.3-2.6-0.7-2.9c-0.4-0.3-0.8-0.3-4.2-0.4
		c-3.4-0.1-9.6-0.3-17.9-0.4c-8.3-0.1-18.5-0.1-27.3-1.9c-8.8-1.8-16-5.4-21.7-6.9c-5.6-1.5-9.7-0.7-12.9,0.5s-5.5,2.9-7.4,4
		c-1.9,1.1-3.3,1.6-4.8,1.9C411.5,29.4,409.8,29.7,411.8,32"/>
	<path style="fill:#CD8BDA;" d="M435.7,60.4c1.9,1.4,4.7,4.1,7.9,5.9s6.8,3.1,13,4.5c6.1,1.4,14.7,3,25.9,3.3
		c11.3,0.3,25.3-0.8,32.4-1c7.1-0.3,7.3,0.2,7.4,0.7s-0.1,1.1-4.6,6.7c-4.5,5.6-13.3,16.4-19.5,21.7c-6.2,5.3-9.9,5.2-17.5,4.5
		c-7.6-0.7-19.2-2.1-28.3-4.3c-9-2.2-15.5-5.2-22.5-8.8c-7-3.7-14.8-8-19.8-11.2c-5.1-3.2-7.3-5.2-8.5-6.6c-1.2-1.4-1.3-2,4-4.8
		c5.2-2.8,15.8-7.5,21.6-9.9C432.9,58.8,433.8,59,435.7,60.4"/>
	<path style="fill:#9A3CBB;" d="M417.9,43.4c8.9-1.2,23-4.3,34.9-11s21.6-17.1,27.1-22.6c5.5-5.5,6.8-6.2,9.8-4
		c3,2.2,7.6,7.3,9.9,10.5c2.3,3.3,2.3,4.7-4.5,13c-6.7,8.3-20.3,23.5-37,32.7c-16.8,9.3-36.8,12.7-47,13.8
		c-10.3,1.1-10.7-0.3-10.7-6.1c0-5.8,0.5-16.1,2.7-21C405,43.9,408.9,44.6,417.9,43.4"/>
	<path style="fill:#CD8BDA;" d="M423.1,107.2c4.1,1.5,6.5,3.3,9.9,5.2c3.4,2,7.8,4.1,12.8,5.7c5,1.8,10.5,3.1,18.1,4.4
		c7.7,1.3,17.5,2.4,27.4,3.2c9.9,0.9,19.8,1.5,23.5,2.3c3.7,0.8,0.9,1.9-4,5.7c-4.9,3.9-12,10.4-16.3,14.5c-4.4,4-6,5.3-12.3,4.8
		c-6.2-0.5-17-3-26.4-5.4c-9.4-2.5-17.4-5.2-24.1-8c-6.6-2.9-12.1-6-17.3-10.8c-5.2-4.8-10.4-11-12.7-14.5c-2.2-3.5-1.5-4.1,0-5.3
		c1.5-1.4,3.6-3.5,7.6-4C413.3,104.4,419.1,105.7,423.1,107.2"/>
	<path style="fill:#9A3CBB;" d="M415.1,85.9c11.6-1.3,31.1-4.4,47.4-13.5c16.2-9.1,29.3-24.2,36.6-32.4s9-9.6,11.6-6.9
		c2.6,2.7,5.9,9.4,7.3,14.4s0.7,8.1-7.2,17.5c-7.9,9.4-23.1,25.1-41.1,34.6c-18,9.5-38.8,13-51,14.9c-12.3,1.9-15.9,2.2-18.3-2.9
		c-2.3-5.1-3.2-15.3-1.8-20.2C400,86.6,403.6,87.2,415.1,85.9"/>
	<path style="fill:#9A3CBB;" d="M427,125.6c12.1-1.6,30.7-5.2,47-13.9c16.3-8.7,30.5-22.6,38.3-30.6c7.8-8,9.4-10.1,10.9-6.3
		c1.5,3.9,2.9,13.6,3.1,19.5c0.2,5.9-0.9,8.2-7.8,16s-19.7,21.3-35.1,29.5s-33.3,11.3-42.9,12.8c-9.6,1.5-11,1.4-15.7-3.3
		c-4.8-4.7-13-13.9-14.3-18.3C409.2,126.8,414.9,127.2,427,125.6"/>
	<path style="fill:#9A3CBB;" d="M442.6,161.6c6.1-0.6,18.4-1.8,28-4.7s16.5-7.3,24.1-12.6c7.5-5.3,15.7-11.6,19.3-14.2
		c3.6-2.6,2.6-1.5,1.2,1.1c-1.4,2.6-3.2,6.5-6.9,11.2c-3.7,4.7-9.3,10.1-15.5,14.3c-6.2,4.3-13.3,7.3-21,8.7
		c-7.7,1.4-16.2,0.9-22.3,0.1c-6-0.8-9.6-2.1-11.4-2.8C436.4,162.2,436.5,162.2,442.6,161.6"/>
	<path style="fill:#9A3CBB;" d="M415,31.2c3.8-0.3,10.3-1.2,17.1-3.3c6.8-2,14.1-5.2,21.5-9.7c7.4-4.6,15.3-10.7,19.1-13.8
		c3.9-3.1,3.9-3.1,0.4-3.7c-3.5-0.6-10.5-1.7-18-0.7c-7.5,1.1-15.5,4.3-22,7.9s-11.2,7.7-14.9,11.6s-6.2,7.5-7,9.5
		C410.3,31.2,411.2,31.5,415,31.2"/>
</g>
</svg>
