<?xml version="1.0" encoding="utf-8"?>
<!-- Generator: Adobe Illustrator 18.1.0, SVG Export Plug-In . SVG Version: 6.00 Build 0)  -->
<!DOCTYPE svg PUBLIC "-//W3C//DTD SVG 1.1//EN" "http://www.w3.org/Graphics/SVG/1.1/DTD/svg11.dtd">
<svg version="1.1" id="Capa_1" xmlns="http://www.w3.org/2000/svg" xmlns:xlink="http://www.w3.org/1999/xlink" x="0px" y="0px"
	 viewBox="12 2890.5 150 150" enable-background="new 12 2890.5 150 150" xml:space="preserve">
<g display="none">
	<g display="inline">
		<path fill="#FFFFFF" d="M95.7,2941.4l0-12.1c0-6.3,0.4-9.7,9.4-9.7h16.7v-24.1H98c-23.2,0-28.5,12-28.5,31.7l0,14.2l-17.6,0v24.1
			h17.6v70h26.2l0-70l23.8,0l2.6-24.1H95.7z"/>
	</g>
</g>
<g>
	<g>
		<path fill="#FFFFFF" d="M153.5,2924.1c-5,2.2-10.3,3.7-15.9,4.4c5.7-3.4,10.1-8.9,12.2-15.3c-5.4,3.2-11.3,5.5-17.6,6.7
			c-5.1-5.4-12.2-8.7-20.2-8.7c-15.3,0-27.7,12.4-27.7,27.7c0,2.2,0.2,4.3,0.7,6.3c-23-1.2-43.4-12.2-57.1-28.9
			c-2.4,4.1-3.7,8.8-3.7,13.9c0,9.6,4.9,18.1,12.3,23c-4.5-0.2-8.8-1.4-12.5-3.5v0.3c0,13.4,9.5,24.6,22.2,27.2
			c-2.3,0.6-4.8,1-7.3,1c-1.8,0-3.5-0.2-5.2-0.5c3.5,11,13.8,19,25.9,19.2c-9.5,7.4-21.4,11.8-34.4,11.8c-2.2,0-4.4-0.1-6.6-0.4
			c12.3,7.9,26.8,12.5,42.4,12.5c50.9,0,78.8-42.2,78.8-78.8l-0.1-3.6C145.1,2934.6,149.8,2929.7,153.5,2924.1z"/>
	</g>
</g>
</svg>
