<?xml version="1.0" encoding="utf-8"?>
<!-- Generator: Adobe Illustrator 18.1.0, SVG Export Plug-In . SVG Version: 6.00 Build 0)  -->
<!DOCTYPE svg PUBLIC "-//W3C//DTD SVG 1.1//EN" "http://www.w3.org/Graphics/SVG/1.1/DTD/svg11.dtd">
<svg version="1.1" id="Capa_1" xmlns="http://www.w3.org/2000/svg" xmlns:xlink="http://www.w3.org/1999/xlink" x="0px" y="0px"
	 viewBox="0 0 150 150" enable-background="new 0 0 150 150" xml:space="preserve">
<g>
	<g>
		<g>
			<path fill="#FFFFFF" d="M75,5C36.3,5,5,36.3,5,75s31.3,70,70,70s70-31.3,70-70S113.7,5,75,5z M118,90.7
				c-0.5,5.8-4.9,13.3-11.1,14.3c-19.8,1.5-43.3,1.3-63.8,0c-6.4-0.8-10.6-8.5-11.1-14.3c-1-12.2-1-19.2,0-31.4
				c0.5-5.8,4.8-13.5,11.1-14.2c20.3-1.7,43.9-1.3,63.8,0c7.1,0.3,10.6,7.6,11.1,13.4C119,70.7,119,78.4,118,90.7z"/>
			<polygon fill="#FFFFFF" points="66.3,92.5 92.5,75 66.3,57.5 			"/>
		</g>
	</g>
</g>
</svg>
