<?xml version="1.0" encoding="utf-8"?>
<!-- Generator: Adobe Illustrator 18.1.0, SVG Export Plug-In . SVG Version: 6.00 Build 0)  -->
<!DOCTYPE svg PUBLIC "-//W3C//DTD SVG 1.1//EN" "http://www.w3.org/Graphics/SVG/1.1/DTD/svg11.dtd">
<svg version="1.1" id="Layer_1" xmlns="http://www.w3.org/2000/svg" xmlns:xlink="http://www.w3.org/1999/xlink" x="0px" y="0px"
	 viewBox="0 0 300 300" enable-background="new 0 0 300 300" xml:space="preserve">
<path fill="#2980B9" d="M119.7,237.5H76c-6.6,0-12-5.4-12-12v-50.7c0-6.6,5.4-12,12-12h43.7c6.6,0,12,5.4,12,12v50.7
	C131.7,232.1,126.3,237.5,119.7,237.5z"/>
<g>
	<path fill="#FFFFFF" d="M131.7,86l43.8-10.5L219.2,86l-19,75.6h-49.5L131.7,86z"/>
	<path fill="#34495E" d="M199.8,165l-11.1,105.8h-11.6l0,0h-1.6h-13.3l-11.3-105.7L199.8,165z"/>
	<path fill="#E74C3C" d="M194.6,80.2l24.9,6.2l-19.7,75.4v0.1l-49.5-0.4v-0.2L132,85.6l25-5.7V75c3.5,3.1,7.7,5.4,12.4,6.5
		l-0.1,13.3l12.8-3.1l0.1-10.1c4.7-1.1,8.9-3.3,12.5-6.3L194.6,80.2z"/>
	<g>
		
			<path fill="none" stroke="#7F8C8D" stroke-width="5.2396" stroke-linecap="round" stroke-linejoin="round" stroke-miterlimit="22.9256" d="
			M175.4,24.4c40.1,0,29.1,52.4,0,52.4S135.4,24.4,175.4,24.4z"/>
		<path fill="#FFFFFF" d="M175.4,24.4c40.1,0,29.1,52.4,0,52.4S135.4,24.4,175.4,24.4z"/>
	</g>
	<path fill="#7F8C8D" d="M175.4,23.5c20.5,0,28.3,13,27.5,26.4c-0.8,0.1-1.6,0.1-2.4,0.1c-11.4,0-21.1-6.6-25-15.9
		c-3.9,9.3-13.7,15.9-25,15.9c-0.8,0-1.6,0-2.4-0.1C147.1,36.4,154.9,23.5,175.4,23.5z"/>
	<path fill="#E74C3C" d="M221,90.8l15.9,42l-33.2,27l4.4-16.3l12.1-11.8l-7.2-8.8L221,90.8z"/>
	<path fill="#FFFFFF" d="M173.8,270.8v-89.3h3.2v89.3H173.8z"/>
	<path fill="#7F8C8D" d="M173.8,288.4h-3.6H144c-6,0-6.1-7.5,1.1-8.9c4.8-0.9,10.9-2.9,15-5.5h13.7l0,0h16.9c4.1,2.5,8.9,4.3,15,5.5
		c6,1.2,7.1,8.9,1.1,8.9H173.8z"/>
	<path fill="#FFFFFF" d="M173.8,288.4V274h3.2v14.4H173.8z"/>
	<path fill="#E74C3C" d="M135.1,117l-12.6,22l-16.7,8.4l-1.3-10.6l8-8.7l15.4-40.8L135.1,117z"/>
	<polygon fill="#FFFFFF" points="181.8,91.6 160.2,97 159.5,93.9 181.8,88.3 	"/>
	<polygon fill="#FFFFFF" points="162.7,93.9 162.7,147.3 159.5,147.3 159.5,93.9 	"/>
	<g>
		<path fill="#F1C40F" d="M168.1,147.3c1.3,0,2.4-1.1,2.4-2.4c0-1.3-1.1-2.4-2.4-2.4c-1.3,0-2.4,1.1-2.4,2.4
			C165.7,146.2,166.8,147.3,168.1,147.3z"/>
		<path fill="#F1C40F" d="M182.8,147.3c1.3,0,2.4-1.1,2.4-2.4c0-1.3-1.1-2.4-2.4-2.4c-1.3,0-2.4,1.1-2.4,2.4
			C180.4,146.2,181.5,147.3,182.8,147.3z"/>
	</g>
	<g>
		<path fill="#F1C40F" d="M168.1,128.4c1.3,0,2.4-1.1,2.4-2.4c0-1.3-1.1-2.4-2.4-2.4c-1.3,0-2.4,1.1-2.4,2.4
			C165.7,127.3,166.8,128.4,168.1,128.4z"/>
		<path fill="#F1C40F" d="M182.8,128.4c1.3,0,2.4-1.1,2.4-2.4c0-1.3-1.1-2.4-2.4-2.4c-1.3,0-2.4,1.1-2.4,2.4
			C180.4,127.3,181.5,128.4,182.8,128.4z"/>
	</g>
	<g>
		<path fill="#F1C40F" d="M168.1,109.4c1.3,0,2.4-1.1,2.4-2.4s-1.1-2.4-2.4-2.4c-1.3,0-2.4,1.1-2.4,2.4
			C165.7,108.3,166.8,109.4,168.1,109.4z"/>
		<path fill="#F1C40F" d="M182.8,109.4c1.3,0,2.4-1.1,2.4-2.4s-1.1-2.4-2.4-2.4c-1.3,0-2.4,1.1-2.4,2.4
			C180.4,108.3,181.5,109.4,182.8,109.4z"/>
	</g>
	<g>
		<path fill="#C0392B" d="M145.8,19.5l42.4-9.9l3.6,15.3l-42.4,9.9L145.8,19.5z"/>
		<path fill="#FFFFFF" d="M141.3,34l57.4-13.4l0.8,3.6l-57.4,13.4L141.3,34z"/>
	</g>
	<path fill="#2C3E50" d="M108.3,144.8H88.2c-4.8,0-4.9,0.1-4.9,4.9v7.8H71.1c-4.4,0-8,3.6-8,8v67.8c0,4.4,3.6,8,8,8h8
		c0,3.3-1.2,6,2.1,6c3.3,0,2.1-2.7,2.1-6h32.6c0,3.3-1.2,6,2.1,6c3.3,0,2.1-2.7,2.1-6h5.4c4.4,0,8-3.6,8-8v-67.8c0-4.4-3.6-8-8-8
		h-12.3v-7.8C113.2,144.9,113.1,144.8,108.3,144.8z M86.3,149.7c0-1.1,0.9-2.9,1.9-2.9h20.1c1.1,0,1.9,1.8,1.9,2.9v4.4h-9.1H86.3
		v-0.5V149.7z M129.5,227.1c0,1.3-12.6,2.3-13.8,2.3H79.1c-1.3,0-11.9-1-11.9-2.3v-33.9c0-1.3,10.6-7.1,11.9-7.1h36.6
		c1.3,0,13.8,5.8,13.8,7.1V227.1z M122.8,172.1v5.4c0,1.3-5.8,2.3-7.1,2.3H79.1c-1.3,0-7.1-1-7.1-2.3v-5.4c0-1.3,5.8-7.1,7.1-7.1
		h36.6C116.9,165,122.8,170.9,122.8,172.1z"/>
	<g>
		<path fill="#7F8C8D" d="M91.2,151v-5l0,0l0,0l0,0l0,0l0,0l0,0l0,0l0,0l0,0l0,0l0,0l0,0l0,0l0,0l0,0l0,0l0,0l0,0l0,0l0,0l0,0l0,0
			l0,0l0,0l0,0l0,0l0,0l0,0l0,0l0,0l0,0l0,0l0,0l2.9,4l-0.1,0.1l-0.1,0.1l-0.1,0.1l-0.1,0.1l-0.1,0.1l-0.1,0.1l-0.1,0.1l-0.1,0.1
			l-0.1,0.1l-0.1,0.1l-0.1,0.1h-0.1h-0.1h-0.1h-0.1h-0.1h-0.1h-0.1h-0.1h-0.1H92h-0.1h-0.1h-0.1h-0.1h-0.1h-0.1h-0.1h-0.1h-0.1H91
			L91.2,151L91.2,151L91.2,151z M84.1,143.1h4.8l0,0V143v-0.1l0,0l0,0v0.1v0.1l0.1,0.1l0.1,0.1l0.1,0.1l0.1,0.2l0.1,0.2l0.1,0.2
			l0.1,0.2l0.1,0.2l0.1,0.2l0.1,0.2L90,145l0.1,0.2l0.1,0.2l0.1,0.1l0.1,0.1l0.1,0.1l0.1,0.1l0.1,0.1l0.1,0.1l0.1,0.1H91h0.1l0,0
			l0,0H91h-0.1v5h-0.4l-0.4-0.1l-0.4-0.1l-0.4-0.1l-0.3-0.2l-0.3-0.2l-0.3-0.2l-0.3-0.2l-0.3-0.2l-0.3-0.2l-0.3-0.2l-0.3-0.2
			l-0.2-0.2l-0.2-0.3l-0.2-0.3l-0.2-0.3l-0.2-0.3l-0.2-0.3l-0.2-0.3l-0.2-0.3l-0.2-0.3l-0.2-0.3l-0.2-0.3l-0.2-0.3l-0.1-0.3
			l-0.1-0.3l-0.1-0.3l-0.1-0.3l-0.1-0.3l-0.1-0.4l-0.1-0.4L84.1,143.1L84.1,143.1L84.1,143.1z M89.6,137.6v5l0,0l0,0l0,0l0,0l0,0
			l0,0l0,0l0,0l0,0l0,0l0,0l0,0l0,0l0,0l0,0l0,0l0,0l0,0l0,0l0,0l0,0l0,0l0,0l0,0l0,0l0,0l0,0l0,0l0,0l0,0l0,0l0,0l0,0h-4.8v-0.3
			V142v-0.3l0.1-0.3l0.1-0.3l0.1-0.3l0.1-0.3l0.1-0.3l0.1-0.2l0.1-0.2l0.1-0.2l0.1-0.2l0.2-0.2l0.2-0.2l0.2-0.2l0.2-0.2L86,139
			l0.2-0.2l0.2-0.2l0.2-0.1l0.2-0.1l0.2-0.1l0.2-0.1l0.2-0.1l0.2-0.1l0.2-0.1l0.3-0.1l0.3-0.1h0.3H89h0.3L89.6,137.6L89.6,137.6
			L89.6,137.6z M88.7,139.5l4.4,2l-3.3,1.3l0,0l0,0l0,0l0,0l0,0l0,0l0,0l0,0l0,0l0,0l0,0l0,0l0,0l0,0l0,0l0,0l0,0l0,0l0,0l0,0l0,0
			l0,0l0,0l0,0l0,0l0,0l0,0l0,0l0,0l0,0l0,0l0,0v-5h0.1H90h0.1h0.1h0.1h0.1h0.1h0.1h0.1h0.1h0.1H91h0.1h0.1h0.1h0.1h0.1h0.1h0.1h0.1
			h0.1H92h0.1h0.1h0.1h0.1h0.1h0.1h0.1h0.1h0.1H93L88.7,139.5L88.7,139.5z M89.8,142.7l2.2-4.5l0.1,0.1l0.1,0.1l0.1,0.1l0.1,0.1
			l0.1,0.1l0.1,0.1l0.1,0.1l0.1,0.1l0.1,0.1l0.1,0.1l0.1,0.1l0.1,0.1l0.1,0.1v0.1v0.1v0.1v0.1v0.1v0.1v0.1v0.1v0.1v0.1v0.1v0.1v0.1
			v0.1v0.1v0.1v0.1v0.1l-0.1,0.1l-0.1,0.1l-0.1,0.1l-0.1,0.1l-0.1,0.1l-0.1,0.1l-0.1,0.1l-0.1,0.1l-0.1,0.1l-0.1,0.1l-0.1,0.1
			l-0.1,0.1l-0.1,0.1l-0.1,0.1h-0.1h-0.1h-0.1h-0.1h-0.1h-0.1h-0.1h-0.1H91h-0.1h-0.1h-0.1h-0.1h-0.1h-0.1h-0.1h-0.1h-0.1
			L89.8,142.7L89.8,142.7z M93.8,136.1v5l0,0l0,0l0,0l0,0l0,0l0,0l0,0l0,0l0,0l0,0l0,0l0,0l0,0l0,0l0,0l0,0l0,0l0,0l0,0l0,0l0,0l0,0
			l0,0l0,0l0,0l0,0l0,0l0,0l0,0l0,0l0,0l0,0l0,0l-4.4-2l0.1-0.2l0.1-0.2l0.1-0.2l0.1-0.2l0.1-0.2l0.1-0.2l0.1-0.2l0.1-0.2l0.1-0.2
			l0.1-0.1l0.1-0.1l0.1-0.1l0.1-0.1l0.2-0.1l0.2-0.1l0.2-0.1l0.2-0.1l0.2-0.1l0.2-0.1l0.2-0.1l0.2-0.1l0.2-0.1l0.2-0.1l0.2-0.1
			l0.2-0.1h0.2h0.2h0.2h0.2h0.2h0.2L93.8,136.1L93.8,136.1L93.8,136.1z M92.9,137.2l3.7,3.2l-2.6,0.8l0,0l0,0l0,0l0,0l0,0l0,0l0,0
			l0,0l0,0l0,0l0,0l0,0l0,0l0,0l0,0l0,0l0,0l0,0l0,0l0,0l0,0l0,0l0,0l0,0l0,0l0,0l0,0l0,0l0,0l0,0l0,0l0,0v-5h0.1h0.1h0.1h0.1h0.1
			h0.1h0.1h0.1h0.1H95h0.1h0.1h0.1h0.1h0.1h0.1h0.1h0.1h0.1H96h0.1h0.1h0.1l0,0h0.1h0.1h0.1l0,0h0.1h0.1h0.1H97L92.9,137.2
			L92.9,137.2z M94,141.2l1.6-4.8h0.1l0.1,0.1l0.1,0.1l0.1,0.1l0.1,0.1l0.1,0.1l0.1,0.1l0.1,0.1l0.1,0.1l0.1,0.1l0.1,0.1l0.1,0.1
			l0.1,0.1l0.1,0.1l0.1,0.1l0.1,0.1v0.1v0.1v0.1v0.1v0.1v0.1v0.1v0.1v0.1v0.1v0.1v0.1v0.1v0.1v0.1v0.1v0.1v0.1l-0.1,0.1l-0.1,0.1
			l-0.1,0.1l-0.1,0.1l-0.1,0.1l-0.1,0.1l-0.1,0.1l-0.1,0.1l-0.1,0.1l-0.1,0.1l-0.1,0.1L96,141l-0.1,0.1l-0.1,0.1h-0.1h-0.1h-0.1
			h-0.1h-0.1h-0.1h-0.1H95h-0.1h-0.1h-0.1h-0.1h-0.1h-0.1h-0.1L94,141.2L94,141.2z M97.2,135.1v5l0,0l0,0l0,0l0,0l0,0l0,0l0,0l0,0
			l0,0l0,0l0,0l0,0l0,0l0,0l0,0l0,0l0,0l0,0l0,0l0,0l0,0l0,0l0,0l0,0l0,0l0,0l0,0l0,0l0,0l0,0l0,0l0,0l0,0l-3.7-3.2l0.1-0.1l0.1-0.1
			l0.1-0.1l0.1-0.1l0.1-0.1l0.1-0.1l0.1-0.1l0.1-0.1l0.1-0.1l0.1-0.1l0.1-0.1l0.1-0.1l0.1-0.1l0.1-0.1l0.1-0.1l0.1-0.1l0.1-0.1
			l0.1-0.1l0.1-0.1l0.1-0.1h0.1h0.1h0.1h0.1h0.2h0.1h0.2h0.2h0.2H97h0.2L97.2,135.1L97.2,135.1L97.2,135.1z M98.2,136.4l2.3,4.4
			l-2.9-0.5l0,0l0,0l0,0l0,0l0,0l0,0l0,0l0,0l0,0l0,0l0,0l0,0l0,0l0,0l0,0l0,0l0,0l0,0l0,0l0,0l0,0l0,0l0,0l0,0l0,0l0,0l0,0l0,0l0,0
			l0,0l0,0l0,0v-5h0.1h0.1h0.1H98h0.1h0.1h0.1h0.1h0.1h0.1h0.1h0.1h0.1l0.1,0.1l0.1,0.1l0.1,0.1l0.1,0.1l0.1,0.1l0.1,0.1l0.1,0.1
			l0.1,0.1l0.1,0.1l0.1,0.1l0.1,0.1l0.1,0.1l0.1,0.1l0.1,0.1l0.1,0.1l0.1,0.1l0.1,0.1l0.1,0.1l0.1,0.1L98.2,136.4L98.2,136.4z
			 M97.6,140.4l3.5-3.4l0.1,0.1l0.1,0.1l0.1,0.1l0.1,0.1l0.1,0.1l0.1,0.1v0.1v0.1v0.1v0.1v0.1v0.1v0.1v0.1v0.1v0.1v0.1v0.1v0.1v0.1
			v0.1v0.1v0.1v0.1l-0.1,0.1l-0.1,0.1l-0.1,0.1l-0.1,0.1l-0.1,0.1l-0.1,0.1l-0.1,0.1l-0.1,0.1l-0.1,0.1l-0.1,0.1l-0.1,0.1l-0.1,0.1
			l-0.1,0.1l-0.1,0.1l-0.1,0.1h-0.1H100h-0.1h-0.1h-0.1h-0.1h-0.1h-0.1h-0.1h-0.1h-0.1H99h-0.1h-0.1h-0.1h-0.1h-0.1l-0.1-0.1
			l-0.1-0.1l-0.1-0.1l-0.1-0.1l-0.1-0.1l-0.1-0.1L97.6,140.4L97.6,140.4L97.6,140.4z M100.9,135.7v5l0,0l0,0l0,0l0,0l0,0l0,0l0,0
			l0,0l0,0l0,0l0,0l0,0l0,0l0,0l0,0l0,0l0,0l0,0l0,0l0,0l0,0l0,0l0,0l0,0l0,0l0,0l0,0l0,0l0,0l0,0l0,0l0,0l0,0l-2.3-4.4h0.1h0.1h0.1
			H99h0.1h0.1h0.1h0.1h0.1h0.1h0.1h0.1h0.1h0.1h0.1h0.1h0.1h0.1h0.1h0.1h0.1h0.1h0.1h0.1h0.1h0.1h0.1h0.1h0.1h0.1L100.9,135.7
			L100.9,135.7L100.9,135.7L100.9,135.7z M106.2,140.9l-4.8,0.6l0,0v-0.1v-0.1v-0.1v-0.1V141v-0.1l0,0l0,0l0,0l0,0l0,0l0,0l0,0l0,0
			l0,0l0,0l0,0l0,0l0,0l0,0l0,0l0,0l0,0l0,0l0,0l0,0l0,0l0,0l0,0l0,0l0,0l0,0v-5h0.3h0.3h0.3l0.3,0.1l0.3,0.1l0.3,0.1l0.2,0.1
			l0.2,0.1l0.2,0.1l0.2,0.1l0.2,0.1l0.2,0.1l0.2,0.2l0.2,0.2l0.2,0.2l0.2,0.2l0.2,0.2l0.2,0.2l0.2,0.2l0.1,0.2l0.1,0.2l0.1,0.2
			l0.1,0.2l0.1,0.2l0.1,0.2l0.1,0.2l0.1,0.2l0.1,0.2l0.1,0.2l0.1,0.2v0.2L106.2,140.9L106.2,140.9L106.2,140.9z M101.9,145.4
			l-0.5-3.8l4.8-0.6l0.5,3.8l0,0L101.9,145.4L101.9,145.4z M101.3,150.5v-5l0,0l0,0l0,0l0,0l0,0l0,0l0,0l0,0l0,0l0,0l0,0l0,0l0,0
			l0,0l0,0l0,0l0,0l0,0l0,0l0,0l0,0l0,0l0,0l0,0l0,0l0,0l0,0l0,0l0,0l0,0l0,0l0,0l0,0l4.8-0.6v0.3v0.3v0.3v0.3l-0.1,0.3l-0.1,0.3
			l-0.1,0.3l-0.1,0.3l-0.1,0.3l-0.1,0.3l-0.1,0.2l-0.2,0.2l-0.2,0.2l-0.2,0.2l-0.2,0.2l-0.2,0.2l-0.2,0.2l-0.2,0.2l-0.2,0.2
			l-0.2,0.1l-0.2,0.1l-0.2,0.1l-0.2,0.1l-0.2,0.1l-0.2,0.1l-0.2,0.1l-0.3,0.1l-0.3,0.1h-0.3h-0.3h-0.3L101.3,150.5L101.3,150.5
			L101.3,150.5z M102.9,149.4l-4-2.8l2.3-1.1l0,0l0,0l0,0l0,0l0,0l0,0l0,0l0,0l0,0l0,0l0,0l0,0l0,0l0,0l0,0l0,0l0,0l0,0l0,0l0,0l0,0
			l0,0l0,0l0,0l0,0l0,0l0,0l0,0l0,0l0,0l0,0l0,0v5l0,0l0,0l0,0l0,0l0,0l0,0l0,0l0,0l0,0l0,0l0,0l0,0l0,0l0,0l0,0l0,0l0,0l0,0l0,0
			h-0.1l0,0l0,0l0,0l0,0l0,0l0,0l0,0l0,0l0,0l0,0l0,0l0,0L102.9,149.4L102.9,149.4z M101.2,145.5l-0.6,5h-0.1h-0.1h-0.1h-0.1h-0.1
			H100l-0.1-0.1l-0.1-0.1l-0.1-0.1l-0.1-0.1l-0.1-0.1l-0.1-0.1l-0.1-0.1l-0.1-0.1l-0.1-0.1l-0.1-0.1l-0.1-0.1l-0.1-0.1l-0.1-0.1
			l-0.1-0.1V149v-0.1v-0.1v-0.1v-0.1v-0.1v-0.1v-0.1v-0.1v-0.1V148v-0.1v-0.1v-0.1v-0.1v-0.1v-0.1v-0.1l0.1-0.1l0.1-0.1l0.1-0.1
			l0.1-0.1l0.1-0.1l0.1-0.1l0.1-0.1l0.1-0.1l0.1-0.1l0.1-0.1l0.1-0.1l0.1-0.1l0.1-0.1l0.1-0.1l0.1-0.1h0.1h0.1h0.1h0.1h0.1h0.1h0.1
			h0.1h0.1h0.1L101.2,145.5L101.2,145.5z M98.4,151.9v-5l0,0l0,0l0,0l0,0l0,0l0,0l0,0l0,0l0,0l0,0l0,0l0,0l0,0l0,0l0,0l0,0l0,0l0,0
			l0,0l0,0l0,0l0,0l0,0l0,0l0,0l0,0l0,0l0,0l0,0l0,0l0,0l0,0l0,0l4,2.8l-0.1,0.1l-0.1,0.1l-0.1,0.1l-0.1,0.1l-0.1,0.1l-0.1,0.1
			l-0.1,0.1l-0.1,0.1l-0.1,0.1l-0.1,0.1l-0.1,0.1l-0.1,0.1l-0.1,0.1l-0.1,0.1l-0.1,0.1l-0.1,0.1l-0.1,0.1l-0.2,0.1l-0.2,0.1
			l-0.2,0.1l-0.2,0.1l-0.2,0.1l-0.2,0.1h-0.2h-0.2h-0.2h-0.2h-0.2h-0.2h-0.2h-0.2L98.4,151.9L98.4,151.9L98.4,151.9z M96.8,150.5
			l-1.6-4.7l2.7,0.8l0,0l0,0l0,0l0,0l0,0l0,0l0,0l0,0l0,0l0,0l0,0l0,0l0,0l0,0l0,0l0,0l0,0l0,0l0,0l0,0l0,0l0,0l0,0l0,0l0,0l0,0l0,0
			l0,0l0,0l0,0l0,0l0,0v5h-0.2h-0.2h-0.2h-0.2h-0.2h-0.2h-0.2h-0.2h-0.1h-0.1H96l-0.1-0.1l-0.1-0.1l-0.1-0.1l-0.1-0.1l-0.1-0.1
			l-0.1-0.1l-0.1-0.1l-0.1-0.1l-0.1-0.1l-0.1-0.1l-0.1-0.1l-0.1-0.1l-0.1-0.1l-0.1-0.1l-0.1-0.1l-0.1-0.1l-0.1-0.1l-0.1-0.1
			l-0.1-0.1l-0.1-0.1l-0.1-0.1L96.8,150.5L96.8,150.5z M97.9,146.6l-3.8,3.1l-0.1-0.1l-0.1-0.1l-0.1-0.1l-0.1-0.1l-0.1-0.1v-0.1V149
			v-0.1v-0.1v-0.1v-0.1v-0.1v-0.1v-0.1v-0.1v-0.1V148v-0.1v-0.1v-0.1v-0.1v-0.1v-0.1l0.1-0.1l0.1-0.1l0.1-0.1L94,147l0.1-0.1
			l0.1-0.1l0.1-0.1l0.1-0.1l0.1-0.1l0.1-0.1l0.1-0.1l0.1-0.1l0.1-0.1L95,146h0.1h0.1h0.1h0.1h0.1h0.1h0.1h0.1h0.1H96h0.1h0.1h0.1
			h0.1h0.1h0.1h0.1l0.1,0.1l0.1,0.1l0.1,0.1l0.1,0.1l0.1,0.1l0.1,0.1l0.1,0.1l0.1,0.1l0.1,0.1L97.9,146.6L97.9,146.6z M94.9,150.9
			v-5l0,0l0,0l0,0l0,0l0,0l0,0l0,0l0,0l0,0l0,0l0,0l0,0l0,0l0,0l0,0l0,0l0,0l0,0l0,0l0,0l0,0l0,0l0,0l0,0l0,0l0,0l0,0l0,0l0,0l0,0
			l0,0l0,0l0,0l1.6,4.7h-0.1h-0.1h-0.1h-0.1H96h-0.1h-0.1h-0.1h-0.1h-0.1h-0.1h-0.1h-0.1h-0.1H95h-0.1h-0.1h-0.1h-0.1h-0.1h-0.1
			h-0.1h-0.1h-0.1H94h-0.1h-0.1h-0.1h-0.1h-0.1L94.9,150.9L94.9,150.9L94.9,150.9L94.9,150.9z M94.6,149.8l-2.9-4l2.8-0.1l0,0l0,0
			l0,0l0,0l0,0l0,0l0,0l0,0l0,0l0,0l0,0l0,0l0,0l0,0l0,0l0,0l0,0l0,0l0,0l0,0l0,0l0,0l0,0l0,0l0,0l0,0l0,0l0,0l0,0l0,0l0,0l0,0v5
			h-0.1h-0.1h-0.1h-0.1H94h-0.1h-0.1h-0.1h-0.1h-0.1h-0.1h-0.1h-0.1h-0.1H93h-0.1h-0.1h-0.1h-0.1h-0.1h-0.1h-0.1h-0.1h-0.1H92h-0.1
			l-0.1-0.1l-0.1-0.1l-0.1-0.1L92,150l-0.1-0.1l-0.1-0.1L94.6,149.8L94.6,149.8z M94.6,145.7l-2.7,4.1l-0.1-0.1l-0.1-0.1l-0.1-0.1
			l-0.1-0.1l-0.1-0.1l-0.1-0.1l-0.1-0.1l-0.1-0.1l-0.1-0.1l-0.1-0.1v-0.1v-0.1v-0.1v-0.1v-0.1v-0.1v-0.1V148v-0.1v-0.1v-0.1v-0.1
			v-0.1v-0.1v-0.1v-0.1v-0.1V147v-0.1l0.1-0.1l0.1-0.1l0.1-0.1l0.1-0.1l0.1-0.1l0.1-0.1l0.1-0.1l0.1-0.1l0.1-0.1l0.1-0.1l0.1-0.1
			l0.1-0.1l0.1-0.1l0.1-0.1h0.1h0.1h0.1h0.1h0.1h0.1H93h0.1h0.1h0.1h0.1h0.1h0.1h0.1h0.1h0.1H94l0.1,0.1l0.1,0.1l0.1,0.1L94.6,145.7
			z"/>
		<path fill="#FFFFFF" d="M93.2,147.8c-0.5,0.4-1.2,0.7-1.9,0.7c-1.9,0-4.7-3.8-4.7-5.4c0-1.6,1.4-3,3-3c0.5,0,1,0.1,1.4,0.4
			c0.4-1.1,1.5-1.9,2.8-1.9c0.4,0,0.7,0.1,1,0.2c0.6-0.7,1.4-1.2,2.4-1.2c0.9,0,1.7,0.4,2.2,1c0.5-0.3,1-0.4,1.5-0.4
			c1.7,0,2.8,1.4,3,3l0.5,3.8c0.2,1.6-1.4,3-3,3c-0.1,0-0.2,0-0.4,0c-0.5,0.8-1.5,1.4-2.5,1.4s-1.8-0.5-2.4-1.2
			c-0.3,0.1-0.7,0.2-1.1,0.2C94.3,148.4,93.7,148.2,93.2,147.8z"/>
	</g>
	<g>
		<path fill="#7F8C8D" d="M113.6,144.8h-4l0,0l0,0l0,0l0,0l0,0l0,0l0,0l0,0l0,0l0,0l0,0l0,0l0,0l0,0l0,0l0,0l0,0l0,0l0,0l0,0l0,0
			l0,0l0,0l0,0l0,0l0,0l0,0l0,0l0,0l0,0l0,0l0,0l0,0V141h0.2h0.2h0.2h0.2l0.2,0.1l0.2,0.1l0.2,0.1l0.2,0.1l0.2,0.1l0.2,0.1l0.2,0.1
			l0.2,0.1l0.2,0.1l0.2,0.1l0.2,0.1l0.1,0.1l0.1,0.2l0.1,0.2l0.1,0.2l0.1,0.2l0.1,0.2l0.1,0.2l0.1,0.2l0.1,0.2l0.1,0.2l0.1,0.2
			l0.1,0.2v0.2v0.2v0.2v0.2L113.6,144.8L113.6,144.8L113.6,144.8z M109.3,149v-3.8l0,0l0,0l0,0l0,0l0,0l0,0l0,0l0,0l0,0l0,0l0,0l0,0
			l0,0l0,0l0,0l0,0l0,0l0,0l0,0l0,0l0,0l0,0l0,0l0,0l0,0l0,0l0,0l0,0l0,0l0,0l0,0l0,0l0,0h4v0.2v0.2v0.2v0.2v0.2l-0.1,0.2l-0.1,0.2
			l-0.1,0.2l-0.1,0.2l-0.1,0.2l0.2-0.2l-0.1,0.2l-0.1,0.2l-0.1,0.2l-0.1,0.2l-0.1,0.2l-0.1,0.1l-0.2,0.1l-0.2,0.1l-0.2,0.1l-0.2,0.1
			l-0.2,0.1l-0.2,0.1l-0.2,0.1l-0.2,0.1l-0.2,0.1l-0.2,0.1l-0.2,0.1H110h-0.2h-0.2L109.3,149L109.3,149L109.3,149z M104.9,144.8h4
			l0,0l0,0l0,0l0,0l0,0l0,0l0,0l0,0l0,0l0,0l0,0l0,0l0,0l0,0l0,0l0,0l0,0l0,0l0,0l0,0l0,0l0,0l0,0l0,0l0,0l0,0l0,0l0,0l0,0l0,0l0,0
			l0,0l0,0v3.8h-0.2h-0.2h-0.2h-0.2l-0.2-0.1l-0.2-0.1l-0.2-0.1l-0.2-0.1l-0.2-0.1l-0.2-0.1l-0.2-0.1l-0.2-0.1l-0.2-0.1l-0.2-0.1
			l-0.2-0.1l-0.1-0.1l-0.1-0.2l-0.1-0.2l-0.1-0.2l-0.1-0.2l-0.1-0.2l-0.1-0.2l-0.1-0.2l-0.1-0.2l-0.1-0.2l-0.1-0.2l-0.1-0.2V145
			v-0.2v-0.2v-0.2L104.9,144.8L104.9,144.8L104.9,144.8z M109.3,140.6v3.8l0,0l0,0l0,0l0,0l0,0l0,0l0,0l0,0l0,0l0,0l0,0l0,0l0,0l0,0
			l0,0l0,0l0,0l0,0l0,0l0,0l0,0l0,0l0,0l0,0l0,0l0,0l0,0l0,0l0,0l0,0l0,0l0,0l0,0h-4v-0.2V144v-0.2v-0.2v-0.2l0.1-0.2l0.1-0.2
			l0.1-0.2l0.1-0.2l0.1-0.2l0.1-0.2l0.1-0.2l0.1-0.2l0.1-0.2l0.1-0.2l0.1-0.2l0.1-0.1l0.2-0.1l0.2-0.1l0.2-0.1l0.2-0.1l0.2-0.1
			l0.2-0.1l0.2-0.1l0.2-0.1l0.2-0.1l0.2-0.1l0.2-0.1h0.2h0.2h0.2L109.3,140.6L109.3,140.6z"/>
		<circle fill="#FFFFFF" cx="109.3" cy="144.8" r="2.3"/>
	</g>
</g>
<g>
	<defs>
		<rect id="SVGID_1_" x="171.1" width="128.9" height="300"/>
	</defs>
	<clipPath id="SVGID_2_">
		<use xlink:href="#SVGID_1_"  overflow="visible"/>
	</clipPath>
	<g clip-path="url(#SVGID_2_)">
		<path fill="#FFFFFF" d="M130.7,86l43.8-10.5L218.2,86l-19,75.6h-49.5L130.7,86z"/>
		<path fill="#2C3E50" d="M198.8,165l-11.1,105.8h-11.6l0,0h-1.6h-13.3l-11.3-105.7L198.8,165z"/>
		<path fill="#C0392B" d="M193.6,80.2l24.9,6.2l-19.7,75.4v0.1l-49.5-0.4v-0.2L131,85.6l25-5.7V75c3.5,3.1,7.7,5.4,12.4,6.5
			l-0.1,13.3l12.8-3.1l0.1-10.1c4.7-1.1,8.9-3.3,12.5-6.3L193.6,80.2z"/>
		<g>
			
				<path fill="none" stroke="#4D4D4D" stroke-width="5.2396" stroke-linecap="round" stroke-linejoin="round" stroke-miterlimit="22.9256" d="
				M174.4,24.4c40.1,0,29.1,52.4,0,52.4S134.4,24.4,174.4,24.4z"/>
			<path fill="#FFFFFF" d="M174.4,24.4c40.1,0,29.1,52.4,0,52.4S134.4,24.4,174.4,24.4z"/>
		</g>
		<path fill="#4D4D4D" d="M174.4,23.5c20.5,0,28.3,13,27.5,26.4c-0.8,0.1-1.6,0.1-2.4,0.1c-11.4,0-21.1-6.6-25-15.9
			c-3.9,9.3-13.7,15.9-25,15.9c-0.8,0-1.6,0-2.4-0.1C146.1,36.4,153.9,23.5,174.4,23.5z"/>
		<path fill="#C0392B" d="M220,90.8l15.9,42l-33.2,27l4.4-16.3l12.1-11.8l-7.2-8.8L220,90.8z"/>
		<path fill="#FFFFFF" d="M172.8,270.8v-89.3h3.2v89.3H172.8z"/>
		<path fill="#4D4D4D" d="M172.8,288.4h-3.6H143c-6,0-6.1-7.5,1.1-8.9c4.8-0.9,10.9-2.9,15-5.5h13.7l0,0h16.9
			c4.1,2.5,8.9,4.3,15,5.5c6,1.2,7.1,8.9,1.1,8.9H172.8z"/>
		<path fill="#FFFFFF" d="M172.8,288.4V274h3.2v14.4H172.8z"/>
		<path fill="#C0392B" d="M134.1,117l-12.6,22l-16.7,8.4l-1.3-10.6l8-8.7l15.4-40.8L134.1,117z"/>
		<polygon fill="#FFFFFF" points="180.8,91.6 159.2,97 158.5,93.9 180.8,88.3 		"/>
		<polygon fill="#FFFFFF" points="161.7,93.9 161.7,147.3 158.5,147.3 158.5,93.9 		"/>
		<g>
			<path fill="#F39C12" d="M167.1,147.3c1.3,0,2.4-1.1,2.4-2.4c0-1.3-1.1-2.4-2.4-2.4c-1.3,0-2.4,1.1-2.4,2.4
				C164.7,146.2,165.8,147.3,167.1,147.3z"/>
			<path fill="#F39C12" d="M181.8,147.3c1.3,0,2.4-1.1,2.4-2.4c0-1.3-1.1-2.4-2.4-2.4c-1.3,0-2.4,1.1-2.4,2.4
				C179.4,146.2,180.5,147.3,181.8,147.3z"/>
		</g>
		<g>
			<path fill="#F39C12" d="M167.1,128.4c1.3,0,2.4-1.1,2.4-2.4c0-1.3-1.1-2.4-2.4-2.4c-1.3,0-2.4,1.1-2.4,2.4
				C164.7,127.3,165.8,128.4,167.1,128.4z"/>
			<path fill="#F39C12" d="M181.8,128.4c1.3,0,2.4-1.1,2.4-2.4c0-1.3-1.1-2.4-2.4-2.4c-1.3,0-2.4,1.1-2.4,2.4
				C179.4,127.3,180.5,128.4,181.8,128.4z"/>
		</g>
		<g>
			<path fill="#F39C12" d="M167.1,109.4c1.3,0,2.4-1.1,2.4-2.4s-1.1-2.4-2.4-2.4c-1.3,0-2.4,1.1-2.4,2.4
				C164.7,108.3,165.8,109.4,167.1,109.4z"/>
			<path fill="#F39C12" d="M181.8,109.4c1.3,0,2.4-1.1,2.4-2.4s-1.1-2.4-2.4-2.4c-1.3,0-2.4,1.1-2.4,2.4
				C179.4,108.3,180.5,109.4,181.8,109.4z"/>
		</g>
		<g>
			<path fill="#C0392B" d="M144.8,19.5l42.4-9.9l3.6,15.3l-42.4,9.9L144.8,19.5z"/>
			<path fill="#FFFFFF" d="M140.3,34l57.4-13.4l0.8,3.6l-57.4,13.4L140.3,34z"/>
		</g>
		<path fill="#2C3E50" d="M107.3,144.8H87.2c-4.8,0-4.9,0.1-4.9,4.9v7.8H70.1c-4.4,0-8,3.6-8,8v67.8c0,4.4,3.6,8,8,8h8
			c0,3.3-1.2,6,2.1,6c3.3,0,2.1-2.7,2.1-6h32.6c0,3.3-1.2,6,2.1,6c3.3,0,2.1-2.7,2.1-6h5.4c4.4,0,8-3.6,8-8v-67.8c0-4.4-3.6-8-8-8
			h-12.3v-7.8C112.2,144.9,112.1,144.8,107.3,144.8z M85.3,149.7c0-1.1,0.9-2.9,1.9-2.9h20.1c1.1,0,1.9,1.8,1.9,2.9v4.4h-9.1H85.3
			v-0.5V149.7z M128.5,227.1c0,1.3-12.6,2.3-13.8,2.3H78.1c-1.3,0-11.9-1-11.9-2.3v-33.9c0-1.3,10.6-7.1,11.9-7.1h36.6
			c1.3,0,13.8,5.8,13.8,7.1V227.1z M121.8,172.1v5.4c0,1.3-5.8,2.3-7.1,2.3H78.1c-1.3,0-7.1-1-7.1-2.3v-5.4c0-1.3,5.8-7.1,7.1-7.1
			h36.6C115.9,165,121.8,170.9,121.8,172.1z"/>
		<g>
			<path fill="#7F8C8D" d="M90.2,151v-5l0,0l0,0l0,0l0,0l0,0l0,0l0,0l0,0l0,0l0,0l0,0l0,0l0,0l0,0l0,0l0,0l0,0l0,0l0,0l0,0l0,0l0,0
				l0,0l0,0l0,0l0,0l0,0l0,0l0,0l0,0l0,0l0,0l0,0l2.9,4l-0.1,0.1l-0.1,0.1l-0.1,0.1l-0.1,0.1l-0.1,0.1l-0.1,0.1l-0.1,0.1l-0.1,0.1
				l-0.1,0.1l-0.1,0.1l-0.1,0.1h-0.1h-0.1h-0.1h-0.1h-0.1h-0.1h-0.1h-0.1h-0.1H91h-0.1h-0.1h-0.1h-0.1h-0.1h-0.1h-0.1h-0.1h-0.1H90
				L90.2,151L90.2,151L90.2,151z M83.1,143.1h4.8l0,0V143v-0.1l0,0l0,0v0.1v0.1l0.1,0.1l0.1,0.1l0.1,0.1l0.1,0.2l0.1,0.2l0.1,0.2
				l0.1,0.2l0.1,0.2l0.1,0.2l0.1,0.2L89,145l0.1,0.2l0.1,0.2l0.1,0.1l0.1,0.1l0.1,0.1l0.1,0.1l0.1,0.1l0.1,0.1l0.1,0.1H90h0.1l0,0
				l0,0H90h-0.1v5h-0.4l-0.4-0.1l-0.4-0.1l-0.4-0.1l-0.3-0.2l-0.3-0.2l-0.3-0.2l-0.3-0.2l-0.3-0.2l-0.3-0.2l-0.3-0.2l-0.3-0.2
				l-0.2-0.2l-0.2-0.3l-0.2-0.3l-0.2-0.3l-0.2-0.3l-0.2-0.3l-0.2-0.3l-0.2-0.3l-0.2-0.3l-0.2-0.3l-0.2-0.3l-0.2-0.3l-0.1-0.3
				l-0.1-0.3l-0.1-0.3l-0.1-0.3l-0.1-0.3l-0.1-0.4l-0.1-0.4L83.1,143.1L83.1,143.1L83.1,143.1z M88.6,137.6v5l0,0l0,0l0,0l0,0l0,0
				l0,0l0,0l0,0l0,0l0,0l0,0l0,0l0,0l0,0l0,0l0,0l0,0l0,0l0,0l0,0l0,0l0,0l0,0l0,0l0,0l0,0l0,0l0,0l0,0l0,0l0,0l0,0l0,0h-4.8v-0.3
				V142v-0.3l0.1-0.3l0.1-0.3l0.1-0.3l0.1-0.3l0.1-0.3l0.1-0.2l0.1-0.2l0.1-0.2l0.1-0.2l0.2-0.2l0.2-0.2l0.2-0.2l0.2-0.2L85,139
				l0.2-0.2l0.2-0.2l0.2-0.1l0.2-0.1l0.2-0.1l0.2-0.1l0.2-0.1l0.2-0.1l0.2-0.1l0.3-0.1l0.3-0.1h0.3H88h0.3L88.6,137.6L88.6,137.6
				L88.6,137.6z M87.7,139.5l4.4,2l-3.3,1.3l0,0l0,0l0,0l0,0l0,0l0,0l0,0l0,0l0,0l0,0l0,0l0,0l0,0l0,0l0,0l0,0l0,0l0,0l0,0l0,0l0,0
				l0,0l0,0l0,0l0,0l0,0l0,0l0,0l0,0l0,0l0,0l0,0v-5h0.1H89h0.1h0.1h0.1h0.1h0.1h0.1h0.1h0.1h0.1H90h0.1h0.1h0.1h0.1h0.1h0.1h0.1
				h0.1h0.1H91h0.1h0.1h0.1h0.1h0.1h0.1h0.1h0.1h0.1H92L87.7,139.5L87.7,139.5z M88.8,142.7l2.2-4.5l0.1,0.1l0.1,0.1l0.1,0.1
				l0.1,0.1l0.1,0.1l0.1,0.1l0.1,0.1l0.1,0.1l0.1,0.1l0.1,0.1l0.1,0.1l0.1,0.1l0.1,0.1v0.1v0.1v0.1v0.1v0.1v0.1v0.1v0.1v0.1v0.1v0.1
				v0.1v0.1v0.1v0.1v0.1v0.1v0.1l-0.1,0.1l-0.1,0.1l-0.1,0.1l-0.1,0.1l-0.1,0.1l-0.1,0.1l-0.1,0.1l-0.1,0.1l-0.1,0.1l-0.1,0.1
				l-0.1,0.1l-0.1,0.1l-0.1,0.1l-0.1,0.1h-0.1h-0.1h-0.1h-0.1h-0.1h-0.1h-0.1h-0.1H90h-0.1h-0.1h-0.1h-0.1h-0.1h-0.1h-0.1h-0.1h-0.1
				L88.8,142.7L88.8,142.7z M92.8,136.1v5l0,0l0,0l0,0l0,0l0,0l0,0l0,0l0,0l0,0l0,0l0,0l0,0l0,0l0,0l0,0l0,0l0,0l0,0l0,0l0,0l0,0
				l0,0l0,0l0,0l0,0l0,0l0,0l0,0l0,0l0,0l0,0l0,0l0,0l-4.4-2l0.1-0.2l0.1-0.2l0.1-0.2l0.1-0.2l0.1-0.2l0.1-0.2l0.1-0.2l0.1-0.2
				l0.1-0.2l0.1-0.1l0.1-0.1l0.1-0.1l0.1-0.1l0.2-0.1l0.2-0.1l0.2-0.1l0.2-0.1l0.2-0.1l0.2-0.1l0.2-0.1l0.2-0.1l0.2-0.1l0.2-0.1
				l0.2-0.1l0.2-0.1h0.2h0.2h0.2h0.2h0.2h0.2L92.8,136.1L92.8,136.1L92.8,136.1z M91.9,137.2l3.7,3.2l-2.6,0.8l0,0l0,0l0,0l0,0l0,0
				l0,0l0,0l0,0l0,0l0,0l0,0l0,0l0,0l0,0l0,0l0,0l0,0l0,0l0,0l0,0l0,0l0,0l0,0l0,0l0,0l0,0l0,0l0,0l0,0l0,0l0,0l0,0v-5h0.1h0.1h0.1
				h0.1h0.1h0.1h0.1h0.1h0.1H94h0.1h0.1h0.1h0.1h0.1h0.1h0.1h0.1h0.1H95h0.1h0.1h0.1l0,0h0.1h0.1h0.1l0,0h0.1h0.1h0.1H96L91.9,137.2
				L91.9,137.2z M93,141.2l1.6-4.8h0.1l0.1,0.1l0.1,0.1l0.1,0.1l0.1,0.1l0.1,0.1l0.1,0.1l0.1,0.1l0.1,0.1l0.1,0.1l0.1,0.1l0.1,0.1
				l0.1,0.1l0.1,0.1l0.1,0.1l0.1,0.1v0.1v0.1v0.1v0.1v0.1v0.1v0.1v0.1v0.1v0.1v0.1v0.1v0.1v0.1v0.1v0.1v0.1v0.1l-0.1,0.1l-0.1,0.1
				l-0.1,0.1l-0.1,0.1l-0.1,0.1l-0.1,0.1l-0.1,0.1l-0.1,0.1l-0.1,0.1l-0.1,0.1l-0.1,0.1L95,141l-0.1,0.1l-0.1,0.1h-0.1h-0.1h-0.1
				h-0.1h-0.1h-0.1h-0.1H94h-0.1h-0.1h-0.1h-0.1h-0.1h-0.1h-0.1L93,141.2L93,141.2z M96.2,135.1v5l0,0l0,0l0,0l0,0l0,0l0,0l0,0l0,0
				l0,0l0,0l0,0l0,0l0,0l0,0l0,0l0,0l0,0l0,0l0,0l0,0l0,0l0,0l0,0l0,0l0,0l0,0l0,0l0,0l0,0l0,0l0,0l0,0l0,0l-3.7-3.2l0.1-0.1
				l0.1-0.1l0.1-0.1l0.1-0.1l0.1-0.1l0.1-0.1l0.1-0.1l0.1-0.1l0.1-0.1l0.1-0.1l0.1-0.1l0.1-0.1l0.1-0.1l0.1-0.1l0.1-0.1l0.1-0.1
				l0.1-0.1l0.1-0.1l0.1-0.1l0.1-0.1h0.1h0.1h0.1h0.1h0.2h0.1h0.2h0.2h0.2H96h0.2L96.2,135.1L96.2,135.1L96.2,135.1z M97.2,136.4
				l2.3,4.4l-2.9-0.5l0,0l0,0l0,0l0,0l0,0l0,0l0,0l0,0l0,0l0,0l0,0l0,0l0,0l0,0l0,0l0,0l0,0l0,0l0,0l0,0l0,0l0,0l0,0l0,0l0,0l0,0
				l0,0l0,0l0,0l0,0l0,0l0,0v-5h0.1h0.1h0.1H97h0.1h0.1h0.1h0.1h0.1h0.1h0.1h0.1h0.1l0.1,0.1l0.1,0.1l0.1,0.1l0.1,0.1l0.1,0.1
				l0.1,0.1l0.1,0.1l0.1,0.1l0.1,0.1l0.1,0.1l0.1,0.1l0.1,0.1l0.1,0.1l0.1,0.1l0.1,0.1l0.1,0.1l0.1,0.1l0.1,0.1l0.1,0.1L97.2,136.4
				L97.2,136.4z M96.6,140.4l3.5-3.4l0.1,0.1l0.1,0.1l0.1,0.1l0.1,0.1l0.1,0.1l0.1,0.1v0.1v0.1v0.1v0.1v0.1v0.1v0.1v0.1v0.1v0.1v0.1
				v0.1v0.1v0.1v0.1v0.1v0.1v0.1l-0.1,0.1l-0.1,0.1l-0.1,0.1l-0.1,0.1l-0.1,0.1l-0.1,0.1l-0.1,0.1l-0.1,0.1l-0.1,0.1l-0.1,0.1
				l-0.1,0.1l-0.1,0.1l-0.1,0.1l-0.1,0.1l-0.1,0.1h-0.1H99h-0.1h-0.1h-0.1h-0.1h-0.1h-0.1h-0.1h-0.1h-0.1H98h-0.1h-0.1h-0.1h-0.1
				h-0.1l-0.1-0.1l-0.1-0.1l-0.1-0.1l-0.1-0.1l-0.1-0.1l-0.1-0.1L96.6,140.4L96.6,140.4L96.6,140.4z M99.9,135.7v5l0,0l0,0l0,0l0,0
				l0,0l0,0l0,0l0,0l0,0l0,0l0,0l0,0l0,0l0,0l0,0l0,0l0,0l0,0l0,0l0,0l0,0l0,0l0,0l0,0l0,0l0,0l0,0l0,0l0,0l0,0l0,0l0,0l0,0
				l-2.3-4.4h0.1h0.1h0.1H98h0.1h0.1h0.1h0.1h0.1h0.1h0.1h0.1h0.1H99h0.1h0.1h0.1h0.1h0.1h0.1h0.1h0.1h0.1h0.1h0.1h0.1h0.1h0.1h0.1
				h0.1L99.9,135.7L99.9,135.7L99.9,135.7L99.9,135.7z M105.2,140.9l-4.8,0.6l0,0v-0.1v-0.1v-0.1v-0.1V141v-0.1l0,0l0,0l0,0l0,0l0,0
				l0,0l0,0l0,0l0,0l0,0l0,0l0,0l0,0l0,0l0,0l0,0l0,0l0,0l0,0l0,0l0,0l0,0l0,0l0,0l0,0l0,0v-5h0.3h0.3h0.3l0.3,0.1l0.3,0.1l0.3,0.1
				l0.2,0.1l0.2,0.1l0.2,0.1l0.2,0.1l0.2,0.1l0.2,0.1l0.2,0.2l0.2,0.2l0.2,0.2l0.2,0.2l0.2,0.2l0.2,0.2l0.2,0.2l0.1,0.2l0.1,0.2
				l0.1,0.2l0.1,0.2l0.1,0.2l0.1,0.2l0.1,0.2l0.1,0.2l0.1,0.2l0.1,0.2l0.1,0.2v0.2L105.2,140.9L105.2,140.9L105.2,140.9z
				 M100.9,145.4l-0.5-3.8l4.8-0.6l0.5,3.8l0,0L100.9,145.4L100.9,145.4z M100.3,150.5v-5l0,0l0,0l0,0l0,0l0,0l0,0l0,0l0,0l0,0l0,0
				l0,0l0,0l0,0l0,0l0,0l0,0l0,0l0,0l0,0l0,0l0,0l0,0l0,0l0,0l0,0l0,0l0,0l0,0l0,0l0,0l0,0l0,0l0,0l4.8-0.6v0.3v0.3v0.3v0.3
				l-0.1,0.3l-0.1,0.3l-0.1,0.3l-0.1,0.3l-0.1,0.3l-0.1,0.3l-0.1,0.2l-0.2,0.2l-0.2,0.2l-0.2,0.2l-0.2,0.2l-0.2,0.2l-0.2,0.2
				l-0.2,0.2l-0.2,0.2l-0.2,0.1l-0.2,0.1l-0.2,0.1l-0.2,0.1l-0.2,0.1l-0.2,0.1l-0.2,0.1l-0.3,0.1l-0.3,0.1h-0.3h-0.3h-0.3
				L100.3,150.5L100.3,150.5L100.3,150.5z M101.9,149.4l-4-2.8l2.3-1.1l0,0l0,0l0,0l0,0l0,0l0,0l0,0l0,0l0,0l0,0l0,0l0,0l0,0l0,0
				l0,0l0,0l0,0l0,0l0,0l0,0l0,0l0,0l0,0l0,0l0,0l0,0l0,0l0,0l0,0l0,0l0,0l0,0v5l0,0l0,0l0,0l0,0l0,0l0,0l0,0l0,0l0,0l0,0l0,0l0,0
				l0,0l0,0l0,0l0,0l0,0l0,0l0,0h-0.1l0,0l0,0l0,0l0,0l0,0l0,0l0,0l0,0l0,0l0,0l0,0l0,0L101.9,149.4L101.9,149.4z M100.2,145.5
				l-0.6,5h-0.1h-0.1h-0.1h-0.1h-0.1H99l-0.1-0.1l-0.1-0.1l-0.1-0.1l-0.1-0.1l-0.1-0.1l-0.1-0.1l-0.1-0.1l-0.1-0.1l-0.1-0.1
				l-0.1-0.1l-0.1-0.1l-0.1-0.1l-0.1-0.1l-0.1-0.1V149v-0.1v-0.1v-0.1v-0.1v-0.1v-0.1v-0.1v-0.1v-0.1V148v-0.1v-0.1v-0.1v-0.1v-0.1
				v-0.1v-0.1l0.1-0.1l0.1-0.1l0.1-0.1l0.1-0.1l0.1-0.1l0.1-0.1l0.1-0.1l0.1-0.1l0.1-0.1l0.1-0.1l0.1-0.1l0.1-0.1l0.1-0.1l0.1-0.1
				l0.1-0.1h0.1h0.1h0.1h0.1h0.1h0.1h0.1h0.1h0.1h0.1L100.2,145.5L100.2,145.5z M97.4,151.9v-5l0,0l0,0l0,0l0,0l0,0l0,0l0,0l0,0l0,0
				l0,0l0,0l0,0l0,0l0,0l0,0l0,0l0,0l0,0l0,0l0,0l0,0l0,0l0,0l0,0l0,0l0,0l0,0l0,0l0,0l0,0l0,0l0,0l0,0l4,2.8l-0.1,0.1l-0.1,0.1
				l-0.1,0.1l-0.1,0.1l-0.1,0.1l-0.1,0.1l-0.1,0.1l-0.1,0.1l-0.1,0.1l-0.1,0.1l-0.1,0.1l-0.1,0.1l-0.1,0.1l-0.1,0.1l-0.1,0.1
				l-0.1,0.1l-0.1,0.1l-0.2,0.1l-0.2,0.1l-0.2,0.1l-0.2,0.1l-0.2,0.1l-0.2,0.1h-0.2h-0.2h-0.2h-0.2h-0.2h-0.2h-0.2h-0.2L97.4,151.9
				L97.4,151.9L97.4,151.9z M95.8,150.5l-1.6-4.7l2.7,0.8l0,0l0,0l0,0l0,0l0,0l0,0l0,0l0,0l0,0l0,0l0,0l0,0l0,0l0,0l0,0l0,0l0,0l0,0
				l0,0l0,0l0,0l0,0l0,0l0,0l0,0l0,0l0,0l0,0l0,0l0,0l0,0l0,0v5h-0.2h-0.2h-0.2h-0.2h-0.2h-0.2h-0.2h-0.2h-0.1h-0.1H95l-0.1-0.1
				l-0.1-0.1l-0.1-0.1l-0.1-0.1l-0.1-0.1l-0.1-0.1l-0.1-0.1l-0.1-0.1l-0.1-0.1l-0.1-0.1l-0.1-0.1l-0.1-0.1l-0.1-0.1l-0.1-0.1
				l-0.1-0.1l-0.1-0.1l-0.1-0.1l-0.1-0.1l-0.1-0.1l-0.1-0.1l-0.1-0.1L95.8,150.5L95.8,150.5z M96.9,146.6l-3.8,3.1l-0.1-0.1
				l-0.1-0.1l-0.1-0.1l-0.1-0.1l-0.1-0.1v-0.1V149v-0.1v-0.1v-0.1v-0.1v-0.1v-0.1v-0.1v-0.1v-0.1V148v-0.1v-0.1v-0.1v-0.1v-0.1v-0.1
				l0.1-0.1l0.1-0.1l0.1-0.1L93,147l0.1-0.1l0.1-0.1l0.1-0.1l0.1-0.1l0.1-0.1l0.1-0.1l0.1-0.1l0.1-0.1l0.1-0.1L94,146h0.1h0.1h0.1
				h0.1h0.1h0.1h0.1h0.1h0.1H95h0.1h0.1h0.1h0.1h0.1h0.1h0.1l0.1,0.1l0.1,0.1l0.1,0.1l0.1,0.1l0.1,0.1l0.1,0.1l0.1,0.1l0.1,0.1
				l0.1,0.1L96.9,146.6L96.9,146.6z M93.9,150.9v-5l0,0l0,0l0,0l0,0l0,0l0,0l0,0l0,0l0,0l0,0l0,0l0,0l0,0l0,0l0,0l0,0l0,0l0,0l0,0
				l0,0l0,0l0,0l0,0l0,0l0,0l0,0l0,0l0,0l0,0l0,0l0,0l0,0l0,0l1.6,4.7h-0.1h-0.1h-0.1h-0.1H95h-0.1h-0.1h-0.1h-0.1h-0.1h-0.1h-0.1
				h-0.1h-0.1H94h-0.1h-0.1h-0.1h-0.1h-0.1h-0.1h-0.1h-0.1h-0.1H93h-0.1h-0.1h-0.1h-0.1h-0.1L93.9,150.9L93.9,150.9L93.9,150.9
				L93.9,150.9z M93.6,149.8l-2.9-4l2.8-0.1l0,0l0,0l0,0l0,0l0,0l0,0l0,0l0,0l0,0l0,0l0,0l0,0l0,0l0,0l0,0l0,0l0,0l0,0l0,0l0,0l0,0
				l0,0l0,0l0,0l0,0l0,0l0,0l0,0l0,0l0,0l0,0l0,0v5h-0.1h-0.1h-0.1h-0.1H93h-0.1h-0.1h-0.1h-0.1h-0.1h-0.1h-0.1h-0.1h-0.1H92h-0.1
				h-0.1h-0.1h-0.1h-0.1h-0.1h-0.1h-0.1h-0.1H91h-0.1l-0.1-0.1l-0.1-0.1l-0.1-0.1L91,150l-0.1-0.1l-0.1-0.1L93.6,149.8L93.6,149.8z
				 M93.6,145.7l-2.7,4.1l-0.1-0.1l-0.1-0.1l-0.1-0.1l-0.1-0.1l-0.1-0.1l-0.1-0.1l-0.1-0.1l-0.1-0.1l-0.1-0.1l-0.1-0.1v-0.1v-0.1
				v-0.1v-0.1v-0.1v-0.1v-0.1V148v-0.1v-0.1v-0.1v-0.1v-0.1v-0.1v-0.1v-0.1v-0.1V147v-0.1l0.1-0.1l0.1-0.1l0.1-0.1l0.1-0.1l0.1-0.1
				l0.1-0.1l0.1-0.1l0.1-0.1l0.1-0.1l0.1-0.1l0.1-0.1l0.1-0.1l0.1-0.1l0.1-0.1h0.1h0.1h0.1h0.1h0.1h0.1H92h0.1h0.1h0.1h0.1h0.1h0.1
				h0.1h0.1h0.1H93l0.1,0.1l0.1,0.1l0.1,0.1L93.6,145.7z"/>
			<path fill="#FFFFFF" d="M92.2,147.8c-0.5,0.4-1.2,0.7-1.9,0.7c-1.9,0-4.7-3.8-4.7-5.4c0-1.6,1.4-3,3-3c0.5,0,1,0.1,1.4,0.4
				c0.4-1.1,1.5-1.9,2.8-1.9c0.4,0,0.7,0.1,1,0.2c0.6-0.7,1.4-1.2,2.4-1.2c0.9,0,1.7,0.4,2.2,1c0.5-0.3,1-0.4,1.5-0.4
				c1.7,0,2.8,1.4,3,3l0.5,3.8c0.2,1.6-1.4,3-3,3c-0.1,0-0.2,0-0.4,0c-0.5,0.8-1.5,1.4-2.5,1.4s-1.8-0.5-2.4-1.2
				c-0.3,0.1-0.7,0.2-1.1,0.2C93.3,148.4,92.7,148.2,92.2,147.8z"/>
		</g>
		<g>
			<path fill="#7F8C8D" d="M112.6,144.8h-4l0,0l0,0l0,0l0,0l0,0l0,0l0,0l0,0l0,0l0,0l0,0l0,0l0,0l0,0l0,0l0,0l0,0l0,0l0,0l0,0l0,0
				l0,0l0,0l0,0l0,0l0,0l0,0l0,0l0,0l0,0l0,0l0,0l0,0V141h0.2h0.2h0.2h0.2l0.2,0.1l0.2,0.1l0.2,0.1l0.2,0.1l0.2,0.1l0.2,0.1l0.2,0.1
				l0.2,0.1l0.2,0.1l0.2,0.1l0.2,0.1l0.1,0.1l0.1,0.2l0.1,0.2l0.1,0.2l0.1,0.2l0.1,0.2l0.1,0.2l0.1,0.2l0.1,0.2l0.1,0.2l0.1,0.2
				l0.1,0.2v0.2v0.2v0.2v0.2L112.6,144.8L112.6,144.8L112.6,144.8z M108.3,149v-3.8l0,0l0,0l0,0l0,0l0,0l0,0l0,0l0,0l0,0l0,0l0,0
				l0,0l0,0l0,0l0,0l0,0l0,0l0,0l0,0l0,0l0,0l0,0l0,0l0,0l0,0l0,0l0,0l0,0l0,0l0,0l0,0l0,0l0,0h4v0.2v0.2v0.2v0.2v0.2l-0.1,0.2
				l-0.1,0.2l-0.1,0.2l-0.1,0.2l-0.1,0.2l0.2-0.2l-0.1,0.2l-0.1,0.2l-0.1,0.2l-0.1,0.2l-0.1,0.2l-0.1,0.1l-0.2,0.1l-0.2,0.1
				l-0.2,0.1l-0.2,0.1l-0.2,0.1l-0.2,0.1l-0.2,0.1l-0.2,0.1l-0.2,0.1l-0.2,0.1l-0.2,0.1H109h-0.2h-0.2L108.3,149L108.3,149
				L108.3,149z M103.9,144.8h4l0,0l0,0l0,0l0,0l0,0l0,0l0,0l0,0l0,0l0,0l0,0l0,0l0,0l0,0l0,0l0,0l0,0l0,0l0,0l0,0l0,0l0,0l0,0l0,0
				l0,0l0,0l0,0l0,0l0,0l0,0l0,0l0,0l0,0v3.8h-0.2h-0.2h-0.2h-0.2l-0.2-0.1l-0.2-0.1l-0.2-0.1l-0.2-0.1l-0.2-0.1l-0.2-0.1l-0.2-0.1
				l-0.2-0.1l-0.2-0.1l-0.2-0.1l-0.2-0.1l-0.1-0.1l-0.1-0.2l-0.1-0.2l-0.1-0.2l-0.1-0.2l-0.1-0.2l-0.1-0.2l-0.1-0.2l-0.1-0.2
				l-0.1-0.2l-0.1-0.2l-0.1-0.2V145v-0.2v-0.2v-0.2L103.9,144.8L103.9,144.8L103.9,144.8z M108.3,140.6v3.8l0,0l0,0l0,0l0,0l0,0l0,0
				l0,0l0,0l0,0l0,0l0,0l0,0l0,0l0,0l0,0l0,0l0,0l0,0l0,0l0,0l0,0l0,0l0,0l0,0l0,0l0,0l0,0l0,0l0,0l0,0l0,0l0,0l0,0h-4v-0.2V144
				v-0.2v-0.2v-0.2l0.1-0.2l0.1-0.2l0.1-0.2l0.1-0.2l0.1-0.2l0.1-0.2l0.1-0.2l0.1-0.2l0.1-0.2l0.1-0.2l0.1-0.2l0.1-0.1l0.2-0.1
				l0.2-0.1l0.2-0.1l0.2-0.1l0.2-0.1l0.2-0.1l0.2-0.1l0.2-0.1l0.2-0.1l0.2-0.1l0.2-0.1h0.2h0.2h0.2L108.3,140.6L108.3,140.6z"/>
			<circle fill="#FFFFFF" cx="108.3" cy="144.8" r="2.3"/>
		</g>
	</g>
</g>
</svg>
