<?xml version="1.0" encoding="utf-8"?>
<!-- Generator: Adobe Illustrator 18.1.0, SVG Export Plug-In . SVG Version: 6.00 Build 0)  -->
<!DOCTYPE svg PUBLIC "-//W3C//DTD SVG 1.1//EN" "http://www.w3.org/Graphics/SVG/1.1/DTD/svg11.dtd" [
	<!ENTITY ns_extend "http://ns.adobe.com/Extensibility/1.0/">
	<!ENTITY ns_ai "http://ns.adobe.com/AdobeIllustrator/10.0/">
	<!ENTITY ns_graphs "http://ns.adobe.com/Graphs/1.0/">
	<!ENTITY ns_vars "http://ns.adobe.com/Variables/1.0/">
	<!ENTITY ns_imrep "http://ns.adobe.com/ImageReplacement/1.0/">
	<!ENTITY ns_sfw "http://ns.adobe.com/SaveForWeb/1.0/">
	<!ENTITY ns_custom "http://ns.adobe.com/GenericCustomNamespace/1.0/">
	<!ENTITY ns_adobe_xpath "http://ns.adobe.com/XPath/1.0/">
]>
<svg version="1.1" xmlns:x="&ns_extend;" xmlns:i="&ns_ai;" xmlns:graph="&ns_graphs;"
	 xmlns="http://www.w3.org/2000/svg" xmlns:xlink="http://www.w3.org/1999/xlink" x="0px" y="0px" viewBox="0 0 300 300"
	 enable-background="new 0 0 300 300" xml:space="preserve">
<metadata>
	<sfw  xmlns="&ns_sfw;">
		<slices></slices>
		<sliceSourceBounds  height="295" width="290.6" x="4.7" y="-297.5" bottomLeftOrigin="true"></sliceSourceBounds>
	</sfw>
</metadata>
<g id="Layer_1" display="none">
	<g display="inline">
		<path fill-rule="evenodd" clip-rule="evenodd" fill="#FFFFFF" d="M131.7,87l43.8-10.5L219.2,87l-19,75.6h-49.5L131.7,87z"/>
		<path fill-rule="evenodd" clip-rule="evenodd" fill="#4D4D4D" d="M199.8,166l-11.1,105.8l-11.6,0v0h-1.6l-13.3,0l-11.3-105.7
			L199.8,166z"/>
		<path fill-rule="evenodd" clip-rule="evenodd" fill="#DB0000" d="M194.3,81l24.9,6l-19,75.6l0,0.1l-49.5,0.1l0-0.2l-19-75.6
			l24.9-6v-4.9c3.5,3.1,7.7,5.3,12.4,6.4v13.3l12.8-3.2V82.5c4.7-1.1,8.9-3.4,12.4-6.4V81z"/>
		<g>
			
				<path fill-rule="evenodd" clip-rule="evenodd" fill="none" stroke="#4D4D4D" stroke-width="5.2396" stroke-linecap="round" stroke-linejoin="round" stroke-miterlimit="22.9256" d="
				M175.4,25.4c40.1,0,29.1,52.4,0,52.4S135.4,25.4,175.4,25.4z"/>
			<path fill-rule="evenodd" clip-rule="evenodd" fill="#FFFFFF" d="M175.4,25.4c40.1,0,29.1,52.4,0,52.4S135.4,25.4,175.4,25.4z"/>
		</g>
		<path fill-rule="evenodd" clip-rule="evenodd" fill="#4D4D4D" d="M175.4,24.5c20.5,0,28.3,13,27.5,26.4c-0.8,0.1-1.6,0.1-2.4,0.1
			c-11.4,0-21.1-6.6-25-15.9c-3.9,9.3-13.7,15.9-25,15.9c-0.8,0-1.6,0-2.4-0.1C147.1,37.4,154.9,24.5,175.4,24.5z"/>
		<path fill-rule="evenodd" clip-rule="evenodd" fill="#DB0000" d="M221,91.8l15.9,42l-33.2,27l4.4-16.3l12.1-11.8l-7.2-8.8
			L221,91.8z"/>
		<path fill-rule="evenodd" clip-rule="evenodd" fill="#FFFFFF" d="M173.8,271.8l0-89.3h3.2l0,89.3H173.8z"/>
		<path fill-rule="evenodd" clip-rule="evenodd" fill="#4D4D4D" d="M173.8,289.4h-3.6H144c-6,0-6.1-7.5,1.1-8.9
			c4.8-0.9,10.9-2.9,15-5.5l13.7,0v0l16.9,0c4.1,2.5,8.9,4.3,15,5.5c6,1.2,7.1,8.9,1.1,8.9H173.8z"/>
		<path fill-rule="evenodd" clip-rule="evenodd" fill="#FFFFFF" d="M173.8,289.4l0-14.4h3.2l0,14.4H173.8z"/>
		<path fill-rule="evenodd" clip-rule="evenodd" fill="#DB0000" d="M135.1,118L122.5,140l-16.7,8.4l-1.3-10.6l8-8.7l15.4-40.8
			L135.1,118z"/>
		<polygon fill="#FFFFFF" points="181.8,92.6 160.2,98 159.5,94.9 181.8,89.3 		"/>
		<polygon fill="#FFFFFF" points="162.7,94.9 162.7,148.3 159.5,148.3 159.5,94.9 		"/>
		<g>
			<path fill-rule="evenodd" clip-rule="evenodd" fill="#FFFFFF" d="M168.1,148.3c1.3,0,2.4-1.1,2.4-2.4c0-1.3-1.1-2.4-2.4-2.4
				c-1.3,0-2.4,1.1-2.4,2.4C165.7,147.2,166.8,148.3,168.1,148.3z"/>
			<path fill-rule="evenodd" clip-rule="evenodd" fill="#FFFFFF" d="M182.8,148.3c1.3,0,2.4-1.1,2.4-2.4c0-1.3-1.1-2.4-2.4-2.4
				c-1.3,0-2.4,1.1-2.4,2.4C180.4,147.2,181.5,148.3,182.8,148.3z"/>
		</g>
		<g>
			<path fill-rule="evenodd" clip-rule="evenodd" fill="#FFFFFF" d="M168.1,129.4c1.3,0,2.4-1.1,2.4-2.4c0-1.3-1.1-2.4-2.4-2.4
				c-1.3,0-2.4,1.1-2.4,2.4C165.7,128.3,166.8,129.4,168.1,129.4z"/>
			<path fill-rule="evenodd" clip-rule="evenodd" fill="#FFFFFF" d="M182.8,129.4c1.3,0,2.4-1.1,2.4-2.4c0-1.3-1.1-2.4-2.4-2.4
				c-1.3,0-2.4,1.1-2.4,2.4C180.4,128.3,181.5,129.4,182.8,129.4z"/>
		</g>
		<g>
			<path fill-rule="evenodd" clip-rule="evenodd" fill="#FFFFFF" d="M168.1,110.4c1.3,0,2.4-1.1,2.4-2.4c0-1.3-1.1-2.4-2.4-2.4
				c-1.3,0-2.4,1.1-2.4,2.4C165.7,109.3,166.8,110.4,168.1,110.4z"/>
			<path fill-rule="evenodd" clip-rule="evenodd" fill="#FFFFFF" d="M182.8,110.4c1.3,0,2.4-1.1,2.4-2.4c0-1.3-1.1-2.4-2.4-2.4
				c-1.3,0-2.4,1.1-2.4,2.4C180.4,109.3,181.5,110.4,182.8,110.4z"/>
		</g>
		<g>
			<path fill-rule="evenodd" clip-rule="evenodd" fill="#DB0000" d="M145.8,20.5l42.4-9.9l3.6,15.3l-42.4,9.9L145.8,20.5z"/>
			<path fill-rule="evenodd" clip-rule="evenodd" fill="#FFFFFF" d="M141.3,35l57.4-13.4l0.8,3.6l-57.4,13.4L141.3,35z"/>
		</g>
		<path fill="#4D4D4D" d="M108.3,145.8H88.2c-4.8,0-4.9,0.1-4.9,4.9v7.8H71.1c-4.4,0-8,3.6-8,8v67.8c0,4.4,3.6,8,8,8h8
			c0,3.3-1.2,6,2.1,6c3.3,0,2.1-2.7,2.1-6h32.6c0,3.3-1.2,6,2.1,6c3.3,0,2.1-2.7,2.1-6h5.4c4.4,0,8-3.6,8-8v-67.8c0-4.4-3.6-8-8-8
			h-12.3v-7.8C113.2,145.9,113.1,145.8,108.3,145.8z M86.3,150.7c0-1.1,0.9-2.9,1.9-2.9h20.1c1.1,0,1.9,1.8,1.9,2.9v4.4h-9.1H86.3
			v-0.5L86.3,150.7z M129.5,228.1c0,1.3-12.6,2.3-13.8,2.3H79.1c-1.3,0-11.9-1-11.9-2.3v-33.9c0-1.3,10.6-7.1,11.9-7.1h36.6
			c1.3,0,13.8,5.8,13.8,7.1V228.1z M122.8,173.1v5.4c0,1.3-5.8,2.3-7.1,2.3H79.1c-1.3,0-7.1-1-7.1-2.3v-5.4c0-1.3,5.8-7.1,7.1-7.1
			h36.6C116.9,166,122.8,171.9,122.8,173.1z"/>
		<g>
			<path fill="#4D4D4D" d="M91.2,152l0-5l0,0l0,0l0,0l0,0l0,0l0,0l0,0l0,0l0,0l0,0l0,0l0,0l0,0l0,0l0,0l0,0l0,0l0,0l0,0l0,0l0,0l0,0
				l0,0l0,0l0,0l0,0l0,0l0,0l0,0l0,0l0,0l0,0l0,0l2.9,4l-0.1,0.1l-0.1,0.1l-0.1,0.1l-0.1,0.1l-0.1,0.1l-0.1,0.1l-0.1,0.1l-0.1,0.1
				l-0.1,0.1l-0.1,0.1l-0.1,0.1l-0.1,0l-0.1,0l-0.1,0l-0.1,0l-0.1,0l-0.1,0l-0.1,0l-0.1,0l-0.1,0l-0.1,0l-0.1,0l-0.1,0l-0.1,0
				l-0.1,0l-0.1,0l-0.1,0l-0.1,0l-0.1,0l-0.1,0l-0.1,0L91.2,152L91.2,152L91.2,152z M84.1,144.1l4.8,0l0,0l0-0.1l0-0.1l0,0l0,0
				l0,0.1l0,0.1l0.1,0.1l0.1,0.1l0.1,0.1l0.1,0.2l0.1,0.2l0.1,0.2l0.1,0.2l0.1,0.2l0.1,0.2l0.1,0.2l0.1,0.2l0.1,0.2l0.1,0.2l0.1,0.1
				l0.1,0.1l0.1,0.1l0.1,0.1l0.1,0.1l0.1,0.1l0.1,0.1l0.1,0l0.1,0l0,0l0,0l-0.1,0l-0.1,0l0,5l-0.4,0l-0.4-0.1l-0.4-0.1l-0.4-0.1
				l-0.3-0.2l-0.3-0.2l-0.3-0.2l-0.3-0.2l-0.3-0.2l-0.3-0.2l-0.3-0.2l-0.3-0.2l-0.2-0.2l-0.2-0.3l-0.2-0.3l-0.2-0.3l-0.2-0.3
				l-0.2-0.3l-0.2-0.3l-0.2-0.3l-0.2-0.3l-0.2-0.3l-0.2-0.3l-0.2-0.3l-0.1-0.3l-0.1-0.3l-0.1-0.3l-0.1-0.3l-0.1-0.3l-0.1-0.4
				l-0.1-0.4L84.1,144.1L84.1,144.1L84.1,144.1z M89.6,138.6l0,5l0,0l0,0l0,0l0,0l0,0l0,0l0,0l0,0l0,0l0,0l0,0l0,0l0,0l0,0l0,0l0,0
				l0,0l0,0l0,0l0,0l0,0l0,0l0,0l0,0l0,0l0,0l0,0l0,0l0,0l0,0l0,0l0,0l0,0l-4.8,0l0-0.3l0-0.3l0-0.3l0.1-0.3l0.1-0.3l0.1-0.3
				l0.1-0.3l0.1-0.3l0.1-0.2l0.1-0.2l0.1-0.2l0.1-0.2l0.2-0.2l0.2-0.2l0.2-0.2l0.2-0.2L86,140l0.2-0.2l0.2-0.2l0.2-0.1l0.2-0.1
				l0.2-0.1l0.2-0.1l0.2-0.1l0.2-0.1l0.2-0.1l0.3-0.1l0.3-0.1l0.3,0l0.3,0l0.3,0L89.6,138.6L89.6,138.6L89.6,138.6z M88.7,140.5
				l4.4,2l-3.3,1.3l0,0l0,0l0,0l0,0l0,0l0,0l0,0l0,0l0,0l0,0l0,0l0,0l0,0l0,0l0,0l0,0l0,0l0,0l0,0l0,0l0,0l0,0l0,0l0,0l0,0l0,0l0,0
				l0,0l0,0l0,0l0,0l0,0l0-5l0.1,0l0.1,0l0.1,0l0.1,0l0.1,0l0.1,0l0.1,0l0.1,0l0.1,0l0.1,0l0.1,0l0.1,0l0.1,0l0.1,0l0.1,0l0.1,0
				l0.1,0l0.1,0l0.1,0l0.1,0l0.1,0l0.1,0l0.1,0l0.1,0l0.1,0l0.1,0l0.1,0l0.1,0l0.1,0l0.1,0l0.1,0l0.1,0L88.7,140.5L88.7,140.5z
				 M89.8,143.7l2.2-4.5l0.1,0.1l0.1,0.1l0.1,0.1l0.1,0.1l0.1,0.1l0.1,0.1l0.1,0.1l0.1,0.1l0.1,0.1l0.1,0.1l0.1,0.1l0.1,0.1l0.1,0.1
				l0,0.1l0,0.1l0,0.1l0,0.1l0,0.1l0,0.1l0,0.1l0,0.1l0,0.1l0,0.1l0,0.1l0,0.1l0,0.1l0,0.1l0,0.1l0,0.1l0,0.1l0,0.1l-0.1,0.1
				l-0.1,0.1l-0.1,0.1l-0.1,0.1l-0.1,0.1l-0.1,0.1l-0.1,0.1l-0.1,0.1l-0.1,0.1l-0.1,0.1l-0.1,0.1l-0.1,0.1l-0.1,0.1l-0.1,0.1l-0.1,0
				l-0.1,0l-0.1,0l-0.1,0l-0.1,0l-0.1,0l-0.1,0l-0.1,0l-0.1,0l-0.1,0l-0.1,0l-0.1,0l-0.1,0l-0.1,0l-0.1,0l-0.1,0l-0.1,0l-0.1,0
				L89.8,143.7L89.8,143.7z M93.8,137.1l0,5l0,0l0,0l0,0l0,0l0,0l0,0l0,0l0,0l0,0l0,0l0,0l0,0l0,0l0,0l0,0l0,0l0,0l0,0l0,0l0,0l0,0
				l0,0l0,0l0,0l0,0l0,0l0,0l0,0l0,0l0,0l0,0l0,0l0,0l-4.4-2l0.1-0.2l0.1-0.2l0.1-0.2l0.1-0.2l0.1-0.2l0.1-0.2l0.1-0.2l0.1-0.2
				l0.1-0.2l0.1-0.1l0.1-0.1l0.1-0.1l0.1-0.1l0.2-0.1l0.2-0.1l0.2-0.1l0.2-0.1l0.2-0.1l0.2-0.1l0.2-0.1l0.2-0.1l0.2-0.1l0.2-0.1
				l0.2-0.1l0.2-0.1l0.2,0l0.2,0l0.2,0l0.2,0l0.2,0l0.2,0L93.8,137.1L93.8,137.1L93.8,137.1z M92.9,138.2l3.7,3.2l-2.6,0.8l0,0l0,0
				l0,0l0,0l0,0l0,0l0,0l0,0l0,0l0,0l0,0l0,0l0,0l0,0l0,0l0,0l0,0l0,0l0,0l0,0l0,0l0,0l0,0l0,0l0,0l0,0l0,0l0,0l0,0l0,0l0,0l0,0l0-5
				l0.1,0l0.1,0l0.1,0l0.1,0l0.1,0l0.1,0l0.1,0l0.1,0l0.1,0l0.1,0l0.1,0l0.1,0l0.1,0l0.1,0l0.1,0l0.1,0l0.1,0l0.1,0l0.1,0l0.1,0
				l0.1,0l0.1,0l0.1,0l0,0l0.1,0l0.1,0l0.1,0l0,0l0.1,0l0.1,0l0.1,0l0.1,0L92.9,138.2L92.9,138.2z M94,142.2l1.6-4.8l0.1,0l0.1,0.1
				l0.1,0.1l0.1,0.1l0.1,0.1l0.1,0.1l0.1,0.1l0.1,0.1l0.1,0.1l0.1,0.1l0.1,0.1l0.1,0.1l0.1,0.1l0.1,0.1l0.1,0.1l0.1,0.1l0,0.1l0,0.1
				l0,0.1l0,0.1l0,0.1l0,0.1l0,0.1l0,0.1l0,0.1l0,0.1l0,0.1l0,0.1l0,0.1l0,0.1l0,0.1l0,0.1l0,0.1l0,0.1l-0.1,0.1l-0.1,0.1l-0.1,0.1
				l-0.1,0.1l-0.1,0.1l-0.1,0.1l-0.1,0.1l-0.1,0.1l-0.1,0.1l-0.1,0.1l-0.1,0.1L96,142l-0.1,0.1l-0.1,0.1l-0.1,0l-0.1,0l-0.1,0
				l-0.1,0l-0.1,0l-0.1,0l-0.1,0l-0.1,0l-0.1,0l-0.1,0l-0.1,0l-0.1,0l-0.1,0l-0.1,0l-0.1,0L94,142.2L94,142.2z M97.2,136.1l0,5l0,0
				l0,0l0,0l0,0l0,0l0,0l0,0l0,0l0,0l0,0l0,0l0,0l0,0l0,0l0,0l0,0l0,0l0,0l0,0l0,0l0,0l0,0l0,0l0,0l0,0l0,0l0,0l0,0l0,0l0,0l0,0l0,0
				l0,0l-3.7-3.2l0.1-0.1l0.1-0.1l0.1-0.1l0.1-0.1l0.1-0.1l0.1-0.1l0.1-0.1l0.1-0.1l0.1-0.1l0.1-0.1l0.1-0.1l0.1-0.1l0.1-0.1
				l0.1-0.1l0.1-0.1l0.1-0.1l0.1-0.1l0.1-0.1l0.1-0.1l0.1-0.1l0.1,0l0.1,0l0.1,0l0.1,0l0.2,0l0.1,0l0.2,0l0.2,0l0.2,0l0.2,0l0.2,0
				L97.2,136.1L97.2,136.1L97.2,136.1z M98.2,137.4l2.3,4.4l-2.9-0.5l0,0l0,0l0,0l0,0l0,0l0,0l0,0l0,0l0,0l0,0l0,0l0,0l0,0l0,0l0,0
				l0,0l0,0l0,0l0,0l0,0l0,0l0,0l0,0l0,0l0,0l0,0l0,0l0,0l0,0l0,0l0,0l0,0l0-5l0.1,0l0.1,0l0.1,0l0.1,0l0.1,0l0.1,0l0.1,0l0.1,0
				l0.1,0l0.1,0l0.1,0l0.1,0l0.1,0l0.1,0.1l0.1,0.1l0.1,0.1l0.1,0.1l0.1,0.1l0.1,0.1l0.1,0.1l0.1,0.1l0.1,0.1l0.1,0.1l0.1,0.1
				l0.1,0.1l0.1,0.1l0.1,0.1l0.1,0.1l0.1,0.1l0.1,0.1l0.1,0.1l0.1,0.1L98.2,137.4L98.2,137.4z M97.6,141.4l3.5-3.4l0.1,0.1l0.1,0.1
				l0.1,0.1l0.1,0.1l0.1,0.1l0.1,0.1l0,0.1l0,0.1l0,0.1l0,0.1l0,0.1l0,0.1l0,0.1l0,0.1l0,0.1l0,0.1l0,0.1l0,0.1l0,0.1l0,0.1l0,0.1
				l0,0.1l0,0.1l0,0.1l-0.1,0.1l-0.1,0.1l-0.1,0.1l-0.1,0.1l-0.1,0.1l-0.1,0.1l-0.1,0.1l-0.1,0.1l-0.1,0.1l-0.1,0.1l-0.1,0.1
				l-0.1,0.1l-0.1,0.1l-0.1,0.1l-0.1,0.1l-0.1,0l-0.1,0l-0.1,0l-0.1,0l-0.1,0l-0.1,0l-0.1,0l-0.1,0l-0.1,0l-0.1,0l-0.1,0l-0.1,0
				l-0.1,0l-0.1,0l-0.1,0l-0.1,0l-0.1,0l-0.1-0.1l-0.1-0.1l-0.1-0.1l-0.1-0.1l-0.1-0.1l-0.1-0.1L97.6,141.4L97.6,141.4L97.6,141.4z
				 M100.9,136.7l0,5l0,0l0,0l0,0l0,0l0,0l0,0l0,0l0,0l0,0l0,0l0,0l0,0l0,0l0,0l0,0l0,0l0,0l0,0l0,0l0,0l0,0l0,0l0,0l0,0l0,0l0,0
				l0,0l0,0l0,0l0,0l0,0l0,0l0,0l-2.3-4.4l0.1,0l0.1,0l0.1,0l0.1,0l0.1,0l0.1,0l0.1,0l0.1,0l0.1,0l0.1,0l0.1,0l0.1,0l0.1,0l0.1,0
				l0.1,0l0.1,0l0.1,0l0.1,0l0.1,0l0.1,0l0.1,0l0.1,0l0.1,0l0.1,0l0.1,0l0.1,0l0.1,0l0.1,0l0.1,0l0.1,0L100.9,136.7L100.9,136.7
				L100.9,136.7L100.9,136.7z M106.2,141.9l-4.8,0.6l0,0l0-0.1l0-0.1l0-0.1l0-0.1l0-0.1l0-0.1l0,0l0,0l0,0l0,0l0,0l0,0l0,0l0,0l0,0
				l0,0l0,0l0,0l0,0l0,0l0,0l0,0l0,0l0,0l0,0l0,0l0,0l0,0l0,0l0,0l0,0l0,0l0-5l0.3,0l0.3,0l0.3,0l0.3,0.1l0.3,0.1l0.3,0.1l0.2,0.1
				l0.2,0.1l0.2,0.1l0.2,0.1l0.2,0.1l0.2,0.1l0.2,0.2l0.2,0.2l0.2,0.2l0.2,0.2l0.2,0.2l0.2,0.2l0.2,0.2l0.1,0.2l0.1,0.2l0.1,0.2
				l0.1,0.2l0.1,0.2l0.1,0.2l0.1,0.2l0.1,0.2l0.1,0.2l0.1,0.2l0.1,0.2l0,0.2L106.2,141.9L106.2,141.9L106.2,141.9z M101.9,146.4
				l-0.5-3.8l4.8-0.6l0.5,3.8l0,0L101.9,146.4L101.9,146.4z M101.3,151.5l0-5l0,0l0,0l0,0l0,0l0,0l0,0l0,0l0,0l0,0l0,0l0,0l0,0l0,0
				l0,0l0,0l0,0l0,0l0,0l0,0l0,0l0,0l0,0l0,0l0,0l0,0l0,0l0,0l0,0l0,0l0,0l0,0l0,0l0,0l4.8-0.6l0,0.3l0,0.3l0,0.3l0,0.3l-0.1,0.3
				l-0.1,0.3l-0.1,0.3l-0.1,0.3l-0.1,0.3l-0.1,0.3l-0.1,0.2l-0.2,0.2l-0.2,0.2l-0.2,0.2l-0.2,0.2l-0.2,0.2l-0.2,0.2l-0.2,0.2
				l-0.2,0.2l-0.2,0.1l-0.2,0.1l-0.2,0.1l-0.2,0.1l-0.2,0.1l-0.2,0.1l-0.2,0.1l-0.3,0.1l-0.3,0.1l-0.3,0l-0.3,0l-0.3,0L101.3,151.5
				L101.3,151.5L101.3,151.5z M102.9,150.4l-4-2.8l2.3-1.1l0,0l0,0l0,0l0,0l0,0l0,0l0,0l0,0l0,0l0,0l0,0l0,0l0,0l0,0l0,0l0,0l0,0
				l0,0l0,0l0,0l0,0l0,0l0,0l0,0l0,0l0,0l0,0l0,0l0,0l0,0l0,0l0,0l0,5l0,0l0,0l0,0l0,0l0,0l0,0l0,0l0,0l0,0l0,0l0,0l0,0l0,0l0,0l0,0
				l0,0l0,0l0,0l0,0l-0.1,0l0,0l0,0l0,0l0,0l0,0l0,0l0,0l0,0l0,0l0,0l0,0l0,0L102.9,150.4L102.9,150.4z M101.2,146.5l-0.6,5l-0.1,0
				l-0.1,0l-0.1,0l-0.1,0l-0.1,0l-0.1,0l-0.1-0.1l-0.1-0.1l-0.1-0.1l-0.1-0.1l-0.1-0.1l-0.1-0.1l-0.1-0.1l-0.1-0.1l-0.1-0.1
				l-0.1-0.1l-0.1-0.1l-0.1-0.1l-0.1-0.1l-0.1-0.1l0-0.1l0-0.1l0-0.1l0-0.1l0-0.1l0-0.1l0-0.1l0-0.1l0-0.1l0-0.1l0-0.1l0-0.1l0-0.1
				l0-0.1l0-0.1l0-0.1l0-0.1l0-0.1l0.1-0.1l0.1-0.1l0.1-0.1l0.1-0.1l0.1-0.1l0.1-0.1l0.1-0.1l0.1-0.1l0.1-0.1l0.1-0.1l0.1-0.1
				l0.1-0.1l0.1-0.1l0.1-0.1l0.1-0.1l0.1,0l0.1,0l0.1,0l0.1,0l0.1,0l0.1,0l0.1,0l0.1,0l0.1,0l0.1,0L101.2,146.5L101.2,146.5z
				 M98.4,152.9l0-5l0,0l0,0l0,0l0,0l0,0l0,0l0,0l0,0l0,0l0,0l0,0l0,0l0,0l0,0l0,0l0,0l0,0l0,0l0,0l0,0l0,0l0,0l0,0l0,0l0,0l0,0l0,0
				l0,0l0,0l0,0l0,0l0,0l0,0l4,2.8l-0.1,0.1l-0.1,0.1l-0.1,0.1l-0.1,0.1l-0.1,0.1l-0.1,0.1l-0.1,0.1l-0.1,0.1l-0.1,0.1l-0.1,0.1
				l-0.1,0.1l-0.1,0.1l-0.1,0.1l-0.1,0.1l-0.1,0.1l-0.1,0.1l-0.1,0.1l-0.2,0.1l-0.2,0.1l-0.2,0.1l-0.2,0.1l-0.2,0.1l-0.2,0.1l-0.2,0
				l-0.2,0l-0.2,0l-0.2,0l-0.2,0l-0.2,0l-0.2,0l-0.2,0L98.4,152.9L98.4,152.9L98.4,152.9z M96.8,151.5l-1.6-4.7l2.7,0.8l0,0l0,0l0,0
				l0,0l0,0l0,0l0,0l0,0l0,0l0,0l0,0l0,0l0,0l0,0l0,0l0,0l0,0l0,0l0,0l0,0l0,0l0,0l0,0l0,0l0,0l0,0l0,0l0,0l0,0l0,0l0,0l0,0l0,5
				l-0.2,0l-0.2,0l-0.2,0l-0.2,0l-0.2,0l-0.2,0l-0.2,0l-0.2,0l-0.1,0l-0.1,0l-0.1,0l-0.1-0.1l-0.1-0.1l-0.1-0.1l-0.1-0.1l-0.1-0.1
				l-0.1-0.1l-0.1-0.1l-0.1-0.1l-0.1-0.1l-0.1-0.1l-0.1-0.1l-0.1-0.1l-0.1-0.1l-0.1-0.1l-0.1-0.1l-0.1-0.1l-0.1-0.1l-0.1-0.1
				l-0.1-0.1l-0.1-0.1l-0.1-0.1L96.8,151.5L96.8,151.5z M97.9,147.6l-3.8,3.1l-0.1-0.1l-0.1-0.1l-0.1-0.1l-0.1-0.1l-0.1-0.1l0-0.1
				l0-0.1l0-0.1l0-0.1l0-0.1l0-0.1l0-0.1l0-0.1l0-0.1l0-0.1l0-0.1l0-0.1l0-0.1l0-0.1l0-0.1l0-0.1l0-0.1l0-0.1l0.1-0.1l0.1-0.1
				l0.1-0.1l0.1-0.1l0.1-0.1l0.1-0.1l0.1-0.1l0.1-0.1l0.1-0.1l0.1-0.1l0.1-0.1l0.1-0.1l0.1-0.1l0.1-0.1l0.1,0l0.1,0l0.1,0l0.1,0
				l0.1,0l0.1,0l0.1,0l0.1,0l0.1,0l0.1,0l0.1,0l0.1,0l0.1,0l0.1,0l0.1,0l0.1,0l0.1,0l0.1,0.1l0.1,0.1l0.1,0.1l0.1,0.1l0.1,0.1
				l0.1,0.1l0.1,0.1l0.1,0.1l0.1,0.1L97.9,147.6L97.9,147.6z M94.9,151.9l0-5l0,0l0,0l0,0l0,0l0,0l0,0l0,0l0,0l0,0l0,0l0,0l0,0l0,0
				l0,0l0,0l0,0l0,0l0,0l0,0l0,0l0,0l0,0l0,0l0,0l0,0l0,0l0,0l0,0l0,0l0,0l0,0l0,0l0,0l1.6,4.7l-0.1,0l-0.1,0l-0.1,0l-0.1,0l-0.1,0
				l-0.1,0l-0.1,0l-0.1,0l-0.1,0l-0.1,0l-0.1,0l-0.1,0l-0.1,0l-0.1,0l-0.1,0l-0.1,0l-0.1,0l-0.1,0l-0.1,0l-0.1,0l-0.1,0l-0.1,0
				l-0.1,0l-0.1,0l-0.1,0l-0.1,0l-0.1,0l-0.1,0l-0.1,0l-0.1,0L94.9,151.9L94.9,151.9L94.9,151.9L94.9,151.9z M94.6,150.8l-2.9-4
				l2.8-0.1l0,0l0,0l0,0l0,0l0,0l0,0l0,0l0,0l0,0l0,0l0,0l0,0l0,0l0,0l0,0l0,0l0,0l0,0l0,0l0,0l0,0l0,0l0,0l0,0l0,0l0,0l0,0l0,0l0,0
				l0,0l0,0l0,0l0,5l-0.1,0l-0.1,0l-0.1,0l-0.1,0l-0.1,0l-0.1,0l-0.1,0l-0.1,0l-0.1,0l-0.1,0l-0.1,0l-0.1,0l-0.1,0l-0.1,0l-0.1,0
				l-0.1,0l-0.1,0l-0.1,0l-0.1,0l-0.1,0l-0.1,0l-0.1,0l-0.1,0l-0.1,0l-0.1,0l-0.1,0l-0.1-0.1l-0.1-0.1l-0.1-0.1L92,151l-0.1-0.1
				l-0.1-0.1L94.6,150.8L94.6,150.8z M94.6,146.7l-2.7,4.1l-0.1-0.1l-0.1-0.1l-0.1-0.1l-0.1-0.1l-0.1-0.1l-0.1-0.1l-0.1-0.1
				l-0.1-0.1l-0.1-0.1l-0.1-0.1l0-0.1l0-0.1l0-0.1l0-0.1l0-0.1l0-0.1l0-0.1l0-0.1l0-0.1l0-0.1l0-0.1l0-0.1l0-0.1l0-0.1l0-0.1l0-0.1
				l0-0.1l0-0.1l0-0.1l0.1-0.1l0.1-0.1l0.1-0.1l0.1-0.1l0.1-0.1l0.1-0.1l0.1-0.1l0.1-0.1l0.1-0.1l0.1-0.1l0.1-0.1l0.1-0.1l0.1-0.1
				l0.1-0.1l0.1,0l0.1,0l0.1,0l0.1,0l0.1,0l0.1,0l0.1,0l0.1,0l0.1,0l0.1,0l0.1,0l0.1,0l0.1,0l0.1,0l0.1,0l0.1,0l0.1,0l0.1,0.1
				l0.1,0.1l0.1,0.1L94.6,146.7z"/>
			<path fill-rule="evenodd" clip-rule="evenodd" fill="#FFFFFF" d="M93.2,148.8c-0.5,0.4-1.2,0.7-1.9,0.7c-1.9,0-4.7-3.8-4.7-5.4
				c0-1.6,1.4-3,3-3c0.5,0,1,0.1,1.4,0.4c0.4-1.1,1.5-1.9,2.8-1.9c0.4,0,0.7,0.1,1,0.2c0.6-0.7,1.4-1.2,2.4-1.2c0.9,0,1.7,0.4,2.2,1
				c0.5-0.3,1-0.4,1.5-0.4c1.7,0,2.8,1.4,3,3l0.5,3.8c0.2,1.6-1.4,3-3,3c-0.1,0-0.2,0-0.4,0c-0.5,0.8-1.5,1.4-2.5,1.4
				c-1,0-1.8-0.5-2.4-1.2c-0.3,0.1-0.7,0.2-1.1,0.2C94.3,149.4,93.7,149.2,93.2,148.8z"/>
		</g>
		<g>
			<path fill="#4D4D4D" d="M113.6,145.8h-4l0,0l0,0l0,0l0,0l0,0l0,0l0,0l0,0l0,0l0,0l0,0l0,0l0,0l0,0l0,0l0,0l0,0l0,0l0,0l0,0l0,0
				l0,0l0,0l0,0l0,0l0,0l0,0l0,0l0,0l0,0l0,0l0,0h0v-3.8l0.2,0l0.2,0l0.2,0l0.2,0l0.2,0.1l0.2,0.1l0.2,0.1l0.2,0.1l0.2,0.1l0.2,0.1
				l0.2,0.1l0.2,0.1l0.2,0.1l0.2,0.1l0.2,0.1l0.1,0.1l0.1,0.2l0.1,0.2l0.1,0.2l0.1,0.2l0.1,0.2l0.1,0.2l0.1,0.2l0.1,0.2l0.1,0.2
				l0.1,0.2l0.1,0.2l0,0.2l0,0.2l0,0.2l0,0.2L113.6,145.8L113.6,145.8L113.6,145.8z M109.3,150v-3.8l0,0l0,0h0l0,0l0,0l0,0l0,0l0,0
				l0,0l0,0l0,0l0,0l0,0l0,0l0,0l0,0l0,0l0,0l0,0l0,0l0,0l0,0l0,0l0,0l0,0l0,0l0,0l0,0l0,0l0,0l0,0l0,0l0,0h4l0,0.2l0,0.2l0,0.2
				l0,0.2l0,0.2l-0.1,0.2l-0.1,0.2l-0.1,0.2l-0.1,0.2l-0.1,0.2L113,148l-0.1,0.2l-0.1,0.2l-0.1,0.2l-0.1,0.2l-0.1,0.2l-0.1,0.1
				l-0.2,0.1l-0.2,0.1l-0.2,0.1l-0.2,0.1l-0.2,0.1l-0.2,0.1l-0.2,0.1l-0.2,0.1l-0.2,0.1l-0.2,0.1l-0.2,0.1l-0.2,0l-0.2,0l-0.2,0
				L109.3,150L109.3,150L109.3,150z M104.9,145.8h4l0,0l0,0l0,0l0,0l0,0l0,0l0,0l0,0l0,0l0,0l0,0l0,0l0,0l0,0l0,0l0,0l0,0l0,0l0,0
				l0,0l0,0l0,0l0,0l0,0l0,0l0,0l0,0l0,0l0,0l0,0l0,0h0l0,0v3.8l-0.2,0l-0.2,0l-0.2,0l-0.2,0l-0.2-0.1l-0.2-0.1l-0.2-0.1l-0.2-0.1
				l-0.2-0.1l-0.2-0.1l-0.2-0.1l-0.2-0.1l-0.2-0.1l-0.2-0.1l-0.2-0.1l-0.1-0.1l-0.1-0.2l-0.1-0.2l-0.1-0.2l-0.1-0.2l-0.1-0.2
				l-0.1-0.2l-0.1-0.2l-0.1-0.2l-0.1-0.2l-0.1-0.2l-0.1-0.2l0-0.2l0-0.2l0-0.2l0-0.2L104.9,145.8L104.9,145.8L104.9,145.8z
				 M109.3,141.6v3.8l0,0h0l0,0l0,0l0,0l0,0l0,0l0,0l0,0l0,0l0,0l0,0l0,0l0,0l0,0l0,0l0,0l0,0l0,0l0,0l0,0l0,0l0,0l0,0l0,0l0,0l0,0
				l0,0l0,0l0,0l0,0l0,0l0,0h-4l0-0.2l0-0.2l0-0.2l0-0.2l0-0.2l0.1-0.2l0.1-0.2l0.1-0.2l0.1-0.2l0.1-0.2l0.1-0.2l0.1-0.2l0.1-0.2
				l0.1-0.2l0.1-0.2l0.1-0.2l0.1-0.1l0.2-0.1l0.2-0.1l0.2-0.1l0.2-0.1l0.2-0.1l0.2-0.1l0.2-0.1l0.2-0.1l0.2-0.1l0.2-0.1l0.2-0.1
				l0.2,0l0.2,0l0.2,0L109.3,141.6L109.3,141.6z"/>
			<circle fill-rule="evenodd" clip-rule="evenodd" fill="#FFFFFF" cx="109.3" cy="145.8" r="2.3"/>
		</g>
	</g>
</g>
<g id="Layer_2" display="none">
	<g display="inline">
		<path d="M156.5,89c5.1-8.5,13.2-20.7,23.4-32.4c0,0,0,0,0,0c8.6-9.9,25.5-22.7,25.5-22.7c2.5-1.9,2.3-4.6-0.6-5.9l-20.4-9.5
			c-2.9-1.4-6.8-0.4-8.7,2.2c0,0-15.1,21.7-32.9,67.8c-55-24.9-107.2,10-107.2,70.5c0,63.3,48.7,159.4,114.5,130.4
			c69.3,30,114.5-67.1,114.5-130.4C264.5,97.9,217.5,62.1,156.5,89z"/>
		<path d="M144.2,68.5c3.2-0.3,6-3.1,6.2-6.3c0,0,2-24.7-15.2-42C117.9,3,93.2,5.1,93.2,5.1c-3.2,0.3-6,3.1-6.2,6.3
			c0,0-2.1,24.8,15.2,42C119.4,70.6,144.2,68.5,144.2,68.5z"/>
	</g>
</g>
<g id="Layer_3" display="none">
	<g id="Capa_x0020_1" display="inline">
		<g id="_619661696">
			<path d="M134,129.3c27.3,8.2,21.9,10.9,27.3,16.4c-19.1,30,0,5.5-24.6,19.1c8.2-19.1,21.9-30-2.7-24.6l-19.1,5.5v-21.9L134,132
				V129.3z M229.7,118.4c0,10.9-16.4,13.7-19.1,2.7C210.5,110.2,226.9,110.2,229.7,118.4z M142.2,162.1l-76.5,5.5
				c-35.5,2.7-35.5,46.4-13.7,73.8c24.6,27.3,46.4,27.3,92.9,24.6c43.7-2.7,24.6-54.6,65.6-117.5c8.2-16.4,21.9,24.6,46.4,13.7
				c21.9-10.9-21.9-101.1-49.2-79.2c-2.7,2.7-5.5,2.7-8.2,8.2l-8.2,13.7c-16.4,24.6-27.3,27.3-65.6-2.7c-2.7-8.2-2.7-8.2-2.7-16.4
				c-2.7-5.5,10.9-8.2-24.6-10.9c-60.1,106.5-35.5,92.9,49.2,87.4H142.2z"/>
			<path d="M98.5,58.3c19.1,32.8,71-10.9,43.7-43.7C114.9-15.5,79.4,25.5,98.5,58.3z"/>
			<path fill="#2B2A29" d="M74,271.3h90.1c2.7,0,2.7,0,2.7,2.7v2.7c0,2.7,0,2.7-2.7,2.7H74c-2.7,0-2.7-2.7-2.7-2.7v-2.7
				C71.2,271.3,71.2,271.3,74,271.3z"/>
			<path fill="#2B2A29" d="M74,287.7h90.1c2.7,0,2.7,0,2.7,2.7v2.7c0,2.7,0,2.7-2.7,2.7H74c-2.7,0-2.7-2.7-2.7-2.7v-2.7
				C71.2,287.7,71.2,287.7,74,287.7z"/>
		</g>
	</g>
</g>
<g id="Layer_4" display="none">
	<g display="inline">
		<path fill-rule="evenodd" clip-rule="evenodd" fill="#1BA39C" d="M153.4,255.2c8.8-0.3,20.8,1.4,28.8-1.7
			c22.6-8.5-6.4-23.4,3-39.2c3.6-6,13.7-8.8,21.1-7.4c27.4,5.4,4.6,33.6,4.3,35.9c-2.3,17,30.6,15.5,42.9,14.4
			c1.4-13.8-1.4-27.1,4.1-38.9c20.6-4.4,17.3,12.7,31.6,6.9c11.8-4.9,5-25.2-8.7-21.7c-6.7,1.7-5.6,7.5-15.2,6.7
			c-16.5-1.4-8.6-26.9-10.3-51.4c-22.1,4.5-30.8,2.1-46.8-6.7c0.7-14.6,13.6-16.7,7.7-27.6c-4-7.5-18.3-6.5-24.1-0.9
			c-4.8,18.4,10.9,16.8,4.7,30.2c-8.4,5.6-11.6,1.9-20.4,0.8c-7.8-1-16.2,0.2-23.7,1.3l0.9,23.7c1,10.4,0,13.5-1.5,21.4
			c-18.2,5.1-17.9-5.3-27.2-4.6c-10.5,0.7-14.3,19.7,1.5,20.1c11,0.2,20.5-10.9,26,4.8C156.3,233.2,153.4,243.4,153.4,255.2
			L153.4,255.2z"/>
		<path fill-rule="evenodd" clip-rule="evenodd" fill="#F2784B" d="M80.4,201.9c0.1,0.6,12,18.9-3.6,25.6
			c-17.1,7.4-14.2-8.4-29.9-6.5c-6.5,8.4-4.5,23.8-4,34.4c95.7-9.4,22.7,27.7,52.5,39.5c11.4,2.1,17.3-1.8,19.4-11.8
			c-3.5-11-17.3-17.9-2.8-32.1l36.5,3c0.2-12.2,5-27.3-4.6-37.8c-9.3,0-13.7,5.7-22.9,2.9c-16.7-5.1-12.1-31.2,5.8-28
			c9.2,1.6,7.6,6.9,21.5,6.1c2-15-0.8-22.7-1.9-37.3c-12.5-3.4-34.8,8-45.4-8.9c-1-10,2.9-8.4,7.1-14.1c7.8-10.5-3.7-26-17.4-19.3
			c-6.6,3.2-8.1,7.9-7.3,17.4c6.2,5.5,10.4,7.9,6.7,19c-11.1,3.8-32.7,3.1-46,2.7l1.9,45.3C51,213.9,57.5,192.7,80.4,201.9
			L80.4,201.9z"/>
		<path fill-rule="evenodd" clip-rule="evenodd" fill="#2980B9" d="M84.5,55.3c-11.8-3.8-25.5-1.5-38-1.2c2.3,13.5,11.9,38-6.1,40.9
			c-12.9,2-12.3-5.9-21.7-6.5C8.7,87.7,4.6,94.9,4.7,104.5c12.6,21.4,17.3-3.4,39,7.9c3.3,13.6-2.2,24,1.2,39.7
			c7.5,3.1,33.7,0.7,42.8-0.6c0.3-12.9-10.6-11.8-8.1-24.7c3.9-19.8,33.2-18.9,35.9-0.3c1.7,12.1-7.2,13.4-10.1,23.1
			c10.7,11.1,40,8,43.3,1.7c2.5-15.1-9.8-35.4,2.3-45.3c13.6-11.2,15.8,3.4,26.4,2.8c17.4-0.9,10.7-28.1-6.8-20.1
			c-5.5,2.5-3.9,4.6-12.9,4.1c-22.7-1.3-8.1-24.5-12.3-39.3l-21.4-1.5c-16.1-3.3-16.6,6.6-9.3,16.6c17.3,23.5-19.2,35.8-28.4,18.4
			C78,71.6,101.6,59.1,84.5,55.3L84.5,55.3z"/>
		<path fill-rule="evenodd" clip-rule="evenodd" fill="#F1C40F" d="M182.3,53.8L153,54.4c-2.6,8.6-4.3,24.2-1.7,32.3
			c17.8,10.7,16.4-9.6,33.8-0.3c4.1,2.2,7.4,6.5,7.9,13.1c0.6,7.8-3.9,11.1-8.7,13.4c-14.5,6.8-22.3-13.7-31.7,0.3
			c-4.4,6.6,2.3,27.3,1.5,39.3c33.3-5.5,26.3,3.4,39.6-0.1c2-9.9-13.8-20.1-2.4-32.4c4.9-5.3,22.1-9.4,29.8,5.6c4.5,1.7,3.7,1,7.9,2
			l-0.7-9.2c-20.7-8.8-11.2-26-5.2-30c18-12.1,20.3,11.5,37.2,0.4c2-9.3,0.6-24.4-4.5-31.4c-10.7-5.2-32,4.1-43.9-8
			C196.7,34,223.5,26.3,214.6,10C206-2.6,182,8.4,191.4,24.8C202.4,44,195.8,43.1,182.3,53.8L182.3,53.8z"/>
		<path fill-rule="evenodd" clip-rule="evenodd" fill="#F1C40F" d="M228,118l0.7,9.2c-4.2-1-3.4-0.3-7.9-2
			c3.4,10.6-3.6,16.4-7.2,23.8c1.3,5.4,11.6,7,17.9,7.6c7.7,0.8,14.3,1,21.7-1.8c1.5-5.2,2.1-33.6,0.3-39
			C238.5,109.3,244.7,119.7,228,118L228,118z"/>
	</g>
</g>
<g id="Layer_5" display="none">
	<g display="inline">
		<path d="M275.9,76.5c-4.2,0-32.3,0-68.3,0V47.1c0-5.4-4.4-9.8-9.8-9.8h-92.3c-5.4,0-9.8,4.4-9.8,9.8v29.5c-38.1,0-68.1,0-72.1,0
			C12.1,76.5,5,82.6,5,91.3s0,17.5,0,17.5h290c0,0,0-7.6,0-16.1C295,84.2,288.4,76.5,275.9,76.5z M188,76.5c-23.5,0-48.9,0-72.6,0
			V56.9H188V76.5z"/>
		<path d="M6.1,249.7c0,7.6,3.8,13.1,13.1,13.1h261.6c9.3,0,13.1-7.5,13.1-13.1V119.1c-20.8,0-265.7,0-287.8,0L6.1,249.7L6.1,249.7z
			 M150,139.8c28.3,0,51.2,22.9,51.2,51.2c0,28.3-22.9,51.2-51.2,51.2S98.8,219.2,98.8,191C98.8,162.7,121.7,139.8,150,139.8z"/>
		<polygon points="139,224.6 161,224.6 161,202 183.6,202 183.6,180 161,180 161,157.4 139,157.4 139,180 116.4,180 116.4,202 
			139,202 		"/>
	</g>
</g>
<g id="Layer_6" display="none">
	<path display="inline" d="M224.4,93.3c5.2-3.7,10.2-7.8,14.7-12.4c9.6-9.6,16-21.3,18-33.2c2.3-12.9-1.1-25-9.1-33
		C241.7,8.4,233,5,223,5c-14.2,0-29.2,6.8-41.1,18.7c-19,19-30.2,45.3-36.1,64.1c-4.4-18.9-13.2-44.3-30.4-61.5
		c-9.2-9.2-21-13.9-32-13.9c-9.1,0-17.7,3.2-24.1,9.6c-14.3,14.3-12.4,39.5,4.3,56.2c6,6,12.9,10.9,20.3,15H21.6v73.4H40V295H260
		V166.6h18.3V93.3H224.4z M196.5,38.3c7.9-7.9,17.9-12.7,26.5-12.7c3.1,0,7.4,0.6,10.4,3.7c7.5,7.5,3.3,24.7-9,37
		c-12.6,12.6-29.5,21.3-44.3,27h-14.5C171.1,76.8,180.7,54.2,196.5,38.3z M70.3,47.7c-0.2-2.6,0-7.5,3.5-11c2.9-2.9,6.8-3.6,9.6-3.6
		l0,0c6.1,0,12.5,2.9,17.5,7.9c9.7,9.7,17.7,25.2,23.1,44.7c0.1,0.5,0.3,1.1,0.4,1.6c-0.5-0.1-1-0.3-1.6-0.4
		c-19.5-5.4-35-13.4-44.7-23.1C73.6,59.1,70.8,53.3,70.3,47.7z M131.7,276.6H58.3V157.4h73.4V276.6z M131.7,148.3H40v-36.7h91.7
		V148.3z M241.7,276.6h-73.4V157.4h73.4V276.6z M260,148.3h-91.7v-36.7H260V148.3z"/>
</g>
<g id="Layer_7" display="none">
	<g display="inline">
		<g>
			<path d="M74.7,193.7c0-25.6,0-49.9,0-74.2c-0.6-0.4-0.9-0.9-1.3-0.9c-12.6-1.2-13.3-2.5-10.8-15.2c3.2-16,6.4-32,9.1-48.1
				c1.2-7,4.3-9.6,11.4-9.5c21.8,0.3,43.6,0.1,65.4,0.1c2.6,0,5.1,0,8.5,0c0-4.9,0.1-9.1,0-13.3c-0.1-5.3,2.7-7.8,7.8-7.9
				c8.3,0,16.6,0,24.9,0c5.3,0,7.9,2.5,8,7.7c0,4.2,0,8.4,0,13.4c8.1,0,15.4,0.1,22.7,0c5.7-0.1,8.5,2.3,9.6,8
				c3.4,17.7,7.2,35.2,10.7,52.9c1.8,9,0.1,10.7-12.6,12c0,25.2,0,50.4,0,76.7c7.3,0,14.8,0,22.3,0c9.7,0,19.4-0.3,29.1,0.2
				c2.2,0.1,4.3,3,6.5,4.7c-2.1,1.4-4,3.5-6.3,4.1c-2.9,0.7-6,0.2-10,0.2c0,7-0.1,13.3,0,19.7c0.1,4.8-2,6.9-6.8,6.9
				c-31.3-0.1-62.5,0-94.9,0c0-7.1,0.1-13.8,0-20.6c0-5,0.1-10-0.5-14.9c-1.2-9.8-7.6-15.8-16-15.9c-8.7-0.1-15.6,6.2-16.5,16.3
				c-0.7,8-0.3,16.1-0.4,24.1c0,3.3,0,6.6,0,10.6c-2.4,0.2-4.4,0.4-6.4,0.4c-28.7,0-57.3,0-86,0c-8.7,0-9.2-0.6-9.3-9.3
				c0-6.1,0-12.2,0-19.1c-3.6,0-6.4,0-9.2,0c-3.5,0-7.5-0.2-6.8-4.8c0.3-1.7,4.3-4,6.7-4.1c14.2-0.4,28.4-0.2,42.6-0.2
				C68.9,193.7,71.4,193.7,74.7,193.7z M79.2,52.6c-3.7,19.8-7.4,38.9-11,58.3c56,0,110.8,0,166.3,0c-3.8-19-7.4-37.2-11.3-55.4
				c-0.3-1.2-3.1-2.6-4.8-2.7c-6.4-0.3-12.8-0.1-19.2-0.2c-5.5,0-8.3-2.6-8.1-8.3c0.1-4.1,0-8.3,0-12.5c-9.6,0-18.2,0-27,0
				c-0.1,2.5-0.3,4.3-0.3,6.2c-0.2,14.5-0.3,14.6-14.8,14.6C126.1,52.6,103.1,52.6,79.2,52.6z M134.5,147.5
				c-0.1-12.4-9.9-21.9-22.2-21.7c-11.8,0.2-21.5,10.1-21.6,21.9c0,12,10.1,22.2,22.1,22.1C125.1,169.7,134.6,159.9,134.5,147.5z
				 M187.1,125.7c-12.1-0.2-22.3,9.7-22.5,21.8c-0.1,12,10,22.2,22.1,22.2c11.9,0.1,21.6-9.4,22-21.5
				C209.1,136.2,199.2,125.9,187.1,125.7z M42.8,203.1c0,6.7,0,12.6,0,18.6c4.8,0,8.9,0,13,0c0-6.4,0-12.4,0-18.6
				C51.3,203.1,47.3,203.1,42.8,203.1z M260.2,221.8c0-6,0-11.3,0-16.8c-4.7,0-8.8,0-13.1,0c0,5.7,0,11.2,0,16.8
				C251.6,221.8,255.6,221.8,260.2,221.8z M66.2,221.6c3.2,0,5.7,0,8.3,0c0-6.4,0-12.3,0-18.3c-3,0-5.5,0-8.3,0
				C66.2,209.5,66.2,215.3,66.2,221.6z M236.5,221.7c0-5.9,0-11,0-16.2c-3.1,0-5.7,0-8.4,0c0,5.7,0,10.8,0,16.2
				C231.1,221.7,233.5,221.7,236.5,221.7z"/>
			<path d="M152.1,264.6c-19.2,0-38.3,0-57.5,0c-4.3,0-8.5-0.1-8.3-6c0.2-5.4,4.3-5.4,8.2-5.4c38.3,0,76.7,0,115,0
				c4.3,0,8.6,0.2,8.4,6c-0.2,5.3-4.3,5.4-8.3,5.4C190.4,264.5,171.3,264.6,152.1,264.6z"/>
			<path d="M149.6,248.3c-14.2,0-28.4,0-42.6,0c-4,0-8.5,0.6-8.6-5.5c-0.1-5.9,4-6,8.3-6c28.9,0,57.7,0,86.6,0c4,0,7.8,0.1,8,5.6
				c0.1,5.5-3.5,5.9-7.6,5.9C179,248.3,164.3,248.3,149.6,248.3z"/>
			<path d="M127.6,145.5c-4.6,0-8.5,0-12.7,0c0-4.1,0-7.9,0-12.2C122.4,134.2,125.5,138.8,127.6,145.5z"/>
			<path d="M128.2,152.2c-3.9,3.8-7.7,7.5-11.6,11.3c-0.6-0.4-1.1-0.9-1.7-1.3c0-3.8,0-7.7,0-12.1c4.1,0,7.9,0,11.8,0
				C127.2,150.8,127.7,151.5,128.2,152.2z"/>
			<path d="M111,145.6c-4.6,0-8.3,0-12,0c0.6-7.3,2.6-9.6,11.2-12.4C110.5,137.2,110.8,141,111,145.6z"/>
			<path d="M110.5,150c0,4.5,0,8.2,0,12.6c-6.7-2-11.2-5-12.1-12.6C102.7,150,106.3,150,110.5,150z"/>
			<path d="M184.8,146.1c-4.3,0-8.1,0-12.4,0c0.8-7.8,5.3-11.2,12.4-13.3C184.8,137.6,184.8,141.4,184.8,146.1z"/>
			<path d="M201,146.2c-4.2,0-7.8,0-12,0c0-4.3,0-8.1,0-12C196.2,134.3,199.7,137.6,201,146.2z"/>
			<path d="M173.1,150.4c4.2,0,7.7,0,11.6,0c0,4,0,7.6,0,11.3C177.5,161.3,173.9,157.9,173.1,150.4z"/>
			<path d="M189.3,150.4c4.1,0,7.8,0,11.4,0c0.5,0.6,1,1.1,1.5,1.7c-3.7,3.8-7.4,7.6-11,11.4c-0.6-0.4-1.3-0.8-1.9-1.2
				C189.3,158.6,189.3,154.9,189.3,150.4z"/>
		</g>
	</g>
</g>
<g id="Layer_8" display="none">
	<g id="Capa_x0020_1_1_" display="inline">
		<g id="_404297552">
			<path d="M249.5,204.9l11.5,21.6c-5.8,2.9-5.8,2.9-12.9,2.9l1.4-25.9V204.9z M243.8,204.9v15.8v10.1l-12.9-4.3L243.8,204.9z
				 M72.6,210.6l10.1,18.7l-10.1,1.4l1.4-20.1H72.6z M58.2,227.9c4.3-7.2,4.3-10.1,10.1-15.8v18.7L58.2,227.9z M89.9,225
				c-7.2-2.9-4.3,0-8.6-8.6c-1.4-4.3-2.9-5.8-4.3-8.6c7.2,4.3,12.9,4.3,15.8,12.9L89.9,225z M62.5,209.2
				c-2.9,7.2-4.3,10.1-10.1,15.8c-7.2-4.3-4.3-1.4-7.2-8.6l15.8-8.6L62.5,209.2z M276.8,214.9c-4.3,4.3-4.3,5.8-10.1,10.1
				l-14.4-24.5C261,206.3,268.2,209.2,276.8,214.9z M215,214.9c5.8-5.8,14.4-10.1,23-12.9l-12.9,21.6l-8.6-8.6H215z M97.1,214.9
				c-7.2-2.9-14.4-5.8-17.3-10.1h18.7L97.1,214.9z M41,204.9h20.1c-5.8,5.8-8.6,7.2-17.3,10.1L41,204.9z M89.9,193.3
				c2.9-1.4,4.3-1.4,7.2-4.3l2.9,10.1H81.2l8.6-7.2V193.3z M49.6,191.9c8.6,2.9,10.1,7.2,10.1,8.6H41
				C42.4,190.5,39.5,189,49.6,191.9z M281.2,209.2c-8.6-4.3-15.8-8.6-23-12.9h27.3L281.2,209.2z M209.2,196.2h25.9
				c-7.2,4.3-14.4,10.1-23,14.4L209.2,196.2z M281.2,177.5c1.4,1.4,1.4-1.4,2.9,5.8c1.4,2.9,0,4.3,1.4,7.2l-25.9-1.4l23-12.9
				L281.2,177.5z M209.2,190.5c0-7.2,0-7.2,4.3-14.4l21.6,12.9h-25.9V190.5z M87,177.5c7.2,2.9,4.3,1.4,8.6,8.6
				c-8.6,1.4-8.6,4.3-17.3,7.2L87,177.5z M53.9,189c0,0-2.9-2.9-4.3-2.9c-2.9-2.9-1.4-1.4-2.9-2.9l7.2-5.8L64,194.8
				c-4.3-1.4-5.8-2.9-10.1-4.3V189z M216.4,170.3c4.3-5.8,4.3-5.8,10.1-10.1c14.4,23,14.4,18.7,10.1,23L216.4,170.3z M128.7,82.6
				c14.4-11.5,27.3-7.2,44.6-1.4l-1.4,94.9c-2.9,2.9,0,1.4-5.8,4.3l-15.8,2.9c-8.6,0-12.9-1.4-21.6-4.3V84V82.6z M74,170.3l10.1,4.3
				l-11.5,17.3l1.4-20.1V170.3z M69.7,170.3l-1.4,20.1l-8.6-17.3L69.7,170.3z M269.6,158.8c5.8,4.3,5.8,4.3,10.1,10.1l-23,11.5
				l12.9-23V158.8z M251,151.6c7.2,0,8.6,0,14.4,4.3L251,177.5v-27.3V151.6z M135.9,190.5c74.8,8.6,53.2-36,97.8-44.6l-2.9,1.4
				c-10.1,5.8-15.8,10.1-23,21.6c-5.8,11.5-7.2,27.3-1.4,40.3c27.3,60.4,117.9,8.6,79.1-44.6c-14.4-20.1-43.1-21.6-67.6-18.7
				c2.9-18.7,5.8-23,4.3-46c0,0,1.4,0,1.4-1.4c0,0,1.4,0,1.4-1.4c0,0,1.4,0,1.4-1.4l2.9-1.4c1.4-1.4,2.9-2.9,2.9-4.3
				c1.4-7.2-2.9-7.2-4.3-10.1c-7.2,7.2-4.3,10.1-7.2,15.8c-4.3-44.6-48.9-27.3-50.3-27.3c-1.4,0-7.2-2.9-12.9-4.3
				c-12.9-1.4-21.6,4.3-27.3,4.3c-10.1-1.4-12.9-7.2-28.8-1.4c-7.2,2.9-14.4,8.6-17.3,14.4c-5.8,12.9-7.2,43.1-1.4,56.1
				c-8.6,4.3-7.2-2.9-41.7-1.4l1.4,2.9c0,0,0,1.4,1.4,1.4c0,0,0,1.4,1.4,1.4c5.8,12.9-2.9,11.5,5.8,23c-12.9,1.4-21.6,1.4-33.1-2.9
				C5,156,10.8,145.9,7.9,134.4C5,138.7,5,138.7,5,147.3c0,18.7,17.3,24.5,41.7,27.3c-5.8,11.5-20.1,30.2,0,50.3
				c30.2,30.2,80.5-10.1,53.2-44.6c-18.7-24.5-36-11.5-44.6-10.1c-8.6,1.4,12.9-23,37.4-8.6c14.4,12.9,21.6,25.9,41.7,30.2
				L135.9,190.5z M239.4,151.6h7.2V179c-4.3-4.3-11.5-17.3-14.4-23C238,153.1,238,151.6,239.4,151.6z M125.8,132.9
				c-15.8,1.4-21.6-2.9-27.3-12.9c-7.2-11.5-7.2-17.3-5.8-31.6l30.2,1.4c2.9,2.9,0-1.4,1.4,4.3v38.8H125.8z M176.2,88.4h31.6
				c2.9,27.3-5.8,43.1-31.6,44.6V88.4z"/>
			<path d="M134.4,135.8c0-8.6-1.4-31.6,0-38.8c1.4-12.9,14.4-10.1,25.9-7.2c2.9,7.2,2.9,38.8,0,46
				C150.3,138.7,143.1,137.3,134.4,135.8z M130.1,177.5c14.4,5.8,23,4.3,37.4,0V84c-20.1-4.3-17.3-7.2-38.8,0l1.4,92.1V177.5z"/>
			<path fill="#FFFFFF" d="M134.4,135.8c10.1,1.4,17.3,2.9,30.2,0c0-8.6,2.9-43.1-4.3-47.5c-7.2-4.3-24.5-4.3-25.9,8.6
				C133,104.2,134.4,127.2,134.4,135.8z"/>
			<path fill="#FFFFFF" d="M124.4,135.8V97c0-2.9,0-4.3-1.4-4.3l-30.2-1.4c-1.4,14.4-1.4,21.6,5.8,31.6
				c5.8,10.1,11.5,14.4,27.3,12.9H124.4z"/>
			<path fill="#FFFFFF" d="M176.2,137.3c25.9-1.4,34.5-17.3,30.2-44.6c-10.1,0-30.2,0-30.2,0V137.3z"/>
			<path fill="#FFFFFF" d="M130.1,85.5c21.6-7.2,18.7-5.8,38.8,0V179c-14.4,4.3-23,5.8-37.4,0l-1.4-92.1V85.5z M127.3,85.5v94.9
				c8.6,2.9,12.9,4.3,21.6,4.3l15.8-2.9c5.8-2.9,2.9-1.4,5.8-4.3l1.4-94.9c-17.3-5.8-30.2-10.1-44.6,1.4V85.5z"/>
			<path fill="#FFFFFF" d="M215,171.8c7.2,4.3,17.3,11.5,25.9,15.8c-1.4-2.9-5.8-10.1-15.8-25.9C219.3,166,219.3,166,215,171.8z"/>
			<path fill="#FFFFFF" d="M249.5,181.8l14.4-21.6c-5.8-4.3-7.2-4.3-14.4-4.3V181.8z"/>
			<path fill="#FFFFFF" d="M255.3,184.7l23-11.5c-2.9-7.2-2.9-7.2-10.1-10.1l-12.9,23V184.7z"/>
			<path fill="#FFFFFF" d="M266.8,207.7c-1.4-1.4-2.9-1.4-5.8-2.9C259.6,204.9,285.5,217.8,266.8,207.7z"/>
			<path fill="#FFFFFF" d="M207.8,190.5h25.9l-21.6-12.9c-2.9,5.8-4.3,5.8-4.3,14.4V190.5z"/>
			<path fill="#FFFFFF" d="M258.1,190.5l25.9,1.4c0-2.9,0-4.3-1.4-7.2c-2.9-7.2-2.9-4.3-2.9-5.8l-23,12.9L258.1,190.5z"/>
			<path fill="#FFFFFF" d="M281.2,209.2l4.3-12.9h-27.3C265.3,200.5,272.5,206.3,281.2,209.2z"/>
			<path fill="#FFFFFF" d="M212.1,209.2c8.6-4.3,15.8-8.6,23-14.4h-25.9L212.1,209.2z"/>
			<path d="M79.8,99.9c0-12.9-1.4-14.4-11.5-20.1c-1.4,2.9-2.9,7.2-1.4,11.5c1.4,10.1,8.6,8.6,14.4,8.6H79.8z"/>
			<polygon fill="#FFFFFF" points="230.8,226.4 243.8,230.7 243.8,220.7 243.8,204.9 			"/>
			<path fill="#FFFFFF" d="M215,214.9l8.6,8.6l12.9-21.6c-7.2,2.9-15.8,7.2-23,12.9H215z"/>
			<path fill="#FFFFFF" d="M249.5,230.7c7.2,0,7.2,0,12.9-2.9L251,206.3l-1.4,25.9V230.7z"/>
			<path fill="#FFFFFF" d="M41,200.5h18.7c0,0-2.9-4.3-10.1-8.6C41,189,42.4,190.5,41,200.5z"/>
			<path fill="#FFFFFF" d="M76.9,194.8c8.6-2.9,8.6-4.3,17.3-7.2c-4.3-8.6-1.4-5.8-8.6-8.6L76.9,194.8z"/>
			<path fill="#FFFFFF" d="M97.1,214.9l1.4-10.1H79.8C84.1,209.2,89.9,213.5,97.1,214.9z"/>
			<path fill="#FFFFFF" d="M89.9,225l2.9-4.3c-4.3-8.6-8.6-7.2-15.8-12.9c1.4,2.9,2.9,4.3,4.3,8.6C85.5,225,82.7,222.1,89.9,225z"/>
			<path fill="#FFFFFF" d="M46.7,217.8c2.9,7.2,0,4.3,7.2,8.6c5.8-7.2,7.2-8.6,10.1-15.8l-15.8,8.6L46.7,217.8z"/>
			<path fill="#FFFFFF" d="M43.8,214.9c8.6-2.9,11.5-4.3,17.3-10.1H41L43.8,214.9z"/>
			<path fill="#FFFFFF" d="M58.2,227.9l10.1,2.9V212C62.5,217.8,61.1,220.7,58.2,227.9z"/>
			<path fill="#FFFFFF" d="M81.2,200.5h18.7l-2.9-10.1c-2.9,1.4-5.8,2.9-7.2,4.3l-8.6,7.2V200.5z"/>
			<path fill="#FFFFFF" d="M46.7,184.7c1.4,2.9,0,1.4,2.9,2.9l4.3,2.9c4.3,2.9,5.8,2.9,10.1,4.3l-10.1-17.3l-7.2,5.8V184.7z"/>
			<polygon fill="#FFFFFF" points="72.6,193.3 82.7,176.1 72.6,171.8 			"/>
			<polygon fill="#FFFFFF" points="72.6,230.7 82.7,229.3 72.6,210.6 			"/>
			<polygon fill="#FFFFFF" points="58.2,174.7 66.8,191.9 68.3,171.8 			"/>
		</g>
	</g>
</g>
<g id="Layer_9" display="none">
	<g display="inline">
		<path d="M181.8,205.3c0.3,5.4,0.9,10.7,0.9,16.1c0.1,19,0.1,38,0,57c0,1.6-0.6,3.2-0.9,4.7c0.5-2.2,0.5-3.9-2.6-3.8
			c-9.8,0.4-19.6,0.6-29.4,1c-0.3,0-0.6,0.6-1.7,1.8c11.2,0.8,21.5,1.6,31.8,2.3c0.6,0,1.3-0.9,1.9-1.4c-0.5,1.3-1,2.7-1.3,3.5
			c-10.9-0.9-21.2-1.8-31.8-2.8c0-28,0-56.4,0-85.2c-1.7,0-3.9,0-7,0c0,1.8,0,3.7,0,5.6c0,23.8-0.1,47.6,0.1,71.5
			c0,5.8-1.5,10.7-6.8,13.4c-5.7,2.9-11.6,2.8-17.2-0.5c-4.4-2.7-5.9-7-5.8-12c0-15.3,0-30.7,0-46c0-31.3,0-62.6,0-94
			c0-1.3,0-2.6,0-5.2c-2,1.6-3.4,2.6-4.6,3.7c-11.8,10.5-23.6,21-35.5,31.5c-6.9,6.2-13.5,6.1-19.1-0.1c-7.3-8.1-8-17-1.3-23
			c17.1-15.4,34.6-30.3,51.3-46c6.8-6.4,13.6-9.1,22.9-8.7c16.1,0.7,32.3,0.1,48.5,0.3c2.8,0,6,0.8,8.4,2.2
			c21.3,12.8,42.4,25.8,63.6,38.6c5.5,3.3,7.9,8.1,7,14.2c-1.1,6.8-3.9,13-11,15.4c-2.5,0.8-6.3,0.6-8.6-0.7
			c-12.8-7.4-25.4-15.2-38-23c4.7-7.7,1.4-15.4,0.8-23c-0.1-0.9-2.3-2-3.7-2.3c-1.6-0.3-3.3,0.4-4.9,0.5c-10,0.7-10.6-0.9-9.2,12.1
			c0.6,5.2,0.5,10.5,0.5,15.8c0.1,20.3,0.1,40.6,0,61c0,2.6,0.3,4.5,3.1,5.4c-9.1,0-18.1,0-27.1,0c8.1,1.2,16.2,1.9,24.3,2.4
			C179.9,207.9,180.9,206.2,181.8,205.3z M147.3,254.7c1.5,2.5,2.2,5,3.2,5.1c10.3,1.1,20.7,1.8,31.3,2.6c0-3,0-5.4,0-7.7
			C170.6,254.7,159.8,254.7,147.3,254.7z M181.7,221.3c0-2.9,0-5.3,0-7.5c-11.1,0-22,0-32.8,0c-0.3,0.4-0.7,0.9-1,1.3
			c1,1.2,1.8,3.5,2.9,3.6C161,219.7,171.2,220.4,181.7,221.3z M181.9,267.3c-10.6,0-20.7-0.1-30.8,0.1c-0.9,0-1.7,1.4-2.6,2.1
			c0.8,0.8,1.6,2.1,2.6,2.2c5.1,0.6,10.3,1,15.4,1.4c5.1,0.4,10.1,0.7,15.4,1C181.9,271.5,181.9,269.5,181.9,267.3z M148.7,227.1
			c10.5,0,20.6,0,30.7-0.1c0.8,0,1.7-1.1,2.5-1.7c-0.8-0.9-1.4-2.4-2.3-2.5c-10.2-1-20.4-1.7-30.9-2.6
			C148.7,222.9,148.7,224.8,148.7,227.1z M148.7,240.1c5.9,0,11.5,0.1,17.1,0c4.6-0.1,9.3-0.2,13.9-0.5c0.8-0.1,1.5-1.3,2.2-2
			c-0.7-0.5-1.4-1.5-2.1-1.6c-10.3-1-20.6-1.8-31.1-2.7C148.7,236,148.7,237.9,148.7,240.1z M181.7,242c-10.6,0-20.9,0-31.1,0.1
			c-0.7,0-1.3,1.1-2,1.6c0.6,0.6,1.2,1.7,1.8,1.8c10.4,1,20.7,1.8,31.3,2.6C181.7,245.6,181.7,243.7,181.7,242z M148.7,252.2
			c11.4,0,22.2,0,32.9,0c0-0.7,0.1-1.5,0.1-2.2c-10.9-0.9-21.8-1.9-33-2.9C148.7,249.4,148.7,250.9,148.7,252.2z M181.9,229.6
			c-11.3,0-22.2,0-33.2,0c0,0.7,0,1.4-0.1,2.1c11,0.9,22,1.8,33.2,2.8C181.9,232.3,181.9,231,181.9,229.6z M148.7,277.5
			c11.4,0,22.1,0,32.9,0c0-0.5,0-1.1,0-1.6c-10.9-0.9-21.8-1.7-32.9-2.6C148.7,275.3,148.7,276.5,148.7,277.5z M149.3,207.1
			c-0.4,0.4-0.9,0.9-1.3,1.3c0.8,1.2,1.6,3.5,2.4,3.5c10.3,0.2,20.6,0.2,30.9,0.2c0-0.8,0-1.6,0.1-2.4
			C170.7,208.9,160,208,149.3,207.1z M180.6,265.6c0-0.5-0.1-1-0.1-1.6c-10.5-0.9-21-1.7-31.4-2.6c-0.3,0.6-0.6,1.2-0.9,1.7
			c1.2,0.8,2.3,2.3,3.5,2.3C161.3,265.6,170.9,265.6,180.6,265.6z"/>
		<path d="M108.5,42.2c0.2-19.2,16-34.8,35.2-34.7c19.2,0.1,35,16.3,34.8,35.7c-0.2,19.1-16.2,34.9-35.3,34.7
			C123.7,77.6,108.3,61.9,108.5,42.2z"/>
		<path d="M210.8,291.6c-3.1,0.3-5.8,0.6-8.8,0.9c0-3.1,0-5.5,0-7.6c2-1.5,3.9-2.9,5.3-4C208.1,283.4,209.3,287.1,210.8,291.6z"/>
	</g>
	<path display="inline" fill="#9B9B9B" d="M179.4,135.3c-0.5-5.9-0.9-11.9-1.7-17.8c-0.5-4.1,0.3-6.1,4.9-6.5
		c14-1.3,13.9-1.5,15.9,12.5c0.6,4,1.1,8-1.8,11.4c-0.8,1-1.9,1.6-1.9,2.3c-2.6-0.1-1.2,0.9-1,3.5c1.5,14.8,3,29.7,4.5,44.6
		c0.1,1.4,0.9,2.4,2.1,3.2c1.5,1,2.5,3.1,1.4,4.3c-4.8,5.1-1.7,10.9-1.3,16.1c0.4,5.8,1.8,11.6,2.2,17.4c1.4,19.2,4.9,38.1,5.8,57.3
		c-2.2,0.1-4.4,0.3-6.6,0.4c-2.5-6.8-2-14-2.8-21c-2.2-18-4-36.1-5.9-54.1c-2.2-20.5-4.3-41-6.3-61.5
		C186.4,141.9,185.5,137,179.4,135.3z"/>
</g>
<g id="Layer_10">
	<g id="EGG_1_" opacity="0.85">
		<path fill-rule="evenodd" clip-rule="evenodd" fill="#CD8BDA" d="M62.7,59.5c3.6,4.1,13.7,11.8,29.4,19.7
			c15.6,7.9,36.7,16.1,56.7,20.5c20,4.4,39,5,49.1,5.9c10.1,0.9,11.4,2,15.9-2.4c4.5-4.4,12.2-14.3,16.7-22c4.5-7.6,5.8-13,6-16.3
			c0.2-3.3-0.6-4.5-1.3-5.1c-0.8-0.6-1.5-0.6-7.4-0.7c-5.9-0.2-17.1-0.5-31.7-0.7c-14.7-0.2-32.9-0.2-48.4-3.4
			c-15.5-3.2-28.4-9.6-38.5-12.2c-10-2.6-17.2-1.3-22.9,0.8c-5.7,2.1-9.8,5.1-13.1,7c-3.3,1.9-5.7,2.7-8.4,3.4
			C62.1,54.9,59.1,55.4,62.7,59.5"/>
		<path fill-rule="evenodd" clip-rule="evenodd" fill="#CD8BDA" d="M105,109.8c3.3,2.5,8.3,7.1,14,10.5c5.7,3.4,12.2,5.4,23,7.9
			c10.8,2.4,25.9,5.3,45.9,5.7c20,0.5,44.8-1.3,57.4-1.8c12.6-0.5,13,0.3,13.1,1.2c0.1,0.9-0.1,1.9-8.1,11.9
			c-7.9,10-23.5,29-34.6,38.4c-11,9.4-17.5,9.1-31,7.9c-13.5-1.3-34.1-3.6-50.1-7.5c-16-3.8-27.4-9.2-39.9-15.7
			c-12.5-6.5-26.2-14.1-35.1-19.8c-8.9-5.7-13-9.4-15.1-11.8c-2.1-2.4-2.3-3.5,7-8.3c9.3-4.8,28.1-13.4,38.2-17.5
			C100.1,107,101.7,107.3,105,109.8"/>
		<path fill-rule="evenodd" clip-rule="evenodd" fill="#9A3CBB" d="M71.5,79.7c15.9-2.1,40.7-7.5,61.7-19.4
			c21-11.9,38.3-30.3,48.1-40c9.8-9.8,12.1-11,17.4-7.1c5.3,3.9,13.4,12.9,17.5,18.7c4.1,5.7,4.1,8.2-7.9,22.9
			c-12,14.7-36,41.5-65.7,58c-29.7,16.5-65.2,22.5-83.4,24.4c-18.2,1.8-19-0.5-19-10.9c0-10.3,0.8-28.6,4.7-37.1
			C48.8,80.6,55.7,81.8,71.5,79.7"/>
		<path fill-rule="evenodd" clip-rule="evenodd" fill="#CD8BDA" d="M82.7,192.6c7.3,2.7,11.5,5.8,17.5,9.2c6,3.4,13.9,7.1,22.7,10.2
			c8.8,3.1,18.6,5.5,32.2,7.7c13.6,2.2,31,4.1,48.5,5.7c17.5,1.5,35.1,2.6,41.5,4.1c6.4,1.5,1.6,3.4-7,10.2
			c-8.7,6.8-21.2,18.5-29,25.5c-7.7,7-10.7,9.4-21.7,8.5c-11-0.9-30.2-5.2-46.8-9.6c-16.7-4.4-30.8-9.1-42.6-14.2
			c-11.8-5.1-21.3-10.7-30.7-19.1c-9.3-8.4-18.5-19.6-22.4-25.7c-3.9-6.1-2.6-7.1-0.1-9.5c2.6-2.4,6.4-6.2,13.4-7
			C65.2,187.8,75.4,190,82.7,192.6"/>
		<path fill-rule="evenodd" clip-rule="evenodd" fill="#9A3CBB" d="M66.7,154.9c20.5-2.3,55.1-7.7,83.9-23.8
			c28.8-16.1,51.9-42.8,64.9-57.4c13-14.6,16-17,20.5-12.2c4.5,4.8,10.6,16.7,13,25.4c2.4,8.8,1.3,14.4-12.8,31.1
			c-14,16.7-40.9,44.3-72.8,61.3c-31.9,16.9-68.7,23-90.4,26.4c-21.7,3.3-28.3,3.8-32.4-5c-4.1-8.9-5.6-27.1-3.2-35.7
			C39.9,156.2,46.2,157.2,66.7,154.9"/>
		<path fill-rule="evenodd" clip-rule="evenodd" fill="#9A3CBB" d="M89.5,225.3c21.5-2.8,52.6-9.1,81.5-24.5
			c29-15.4,54-40,67.9-54.1c13.9-14.2,16.6-17.9,19.3-11.2c2.6,6.8,5.1,24,5.4,34.6c0.3,10.6-1.6,14.6-13.9,28.4
			c-12.3,13.9-35,37.7-62.2,52.3c-27.2,14.6-58.9,20-76,22.6c-17.1,2.6-19.5,2.4-27.9-5.8c-8.5-8.3-23-24.6-25.3-32.5
			c-2.2-7.8,7.9-7.1,29.3-9.9"/>
		<path fill-rule="evenodd" clip-rule="evenodd" fill="#9A3CBB" d="M117.2,289.1c10.9-1.1,32.7-3.2,49.7-8.2
			c15.4-4.5,28.1-12.1,42.7-22.4c13.4-9.5,27.8-20.5,34.2-25c6.4-4.5,4.6-2.6,2.1,1.9c-2.5,4.5-5.7,11.6-12.2,19.9
			c-6.5,8.3-16.4,17.8-27.5,25.3c-11.1,7.5-23.5,13-37.2,15.4c-13.7,2.4-28.7,1.6-39.5,0.2c-10.7-1.5-17.1-3.7-20.2-4.8
			C106.1,290.2,106.2,290.2,117.2,289.1"/>
		<path fill-rule="evenodd" clip-rule="evenodd" fill="#9A3CBB" d="M68.2,58.2c6.6-0.5,18.2-2.2,30.3-5.8
			c12.1-3.6,23.1-9.1,36.3-17.2c13.2-8.1,28.7-18.9,35.6-24.3c6.9-5.4,6.9-5.4,0.7-6.4c-6.2-1-18.6-3-31.9-1.2
			c-13.3,1.9-27.6,7.6-39,14C88.8,23.8,80.4,31,73.9,37.8c-6.5,6.8-11,13.3-12.4,16.8C60,58.1,61.6,58.7,68.2,58.2"/>
	</g>
</g>
</svg>
