<?xml version="1.0" encoding="utf-8"?>
<!-- Generator: Adobe Illustrator 18.1.0, SVG Export Plug-In . SVG Version: 6.00 Build 0)  -->
<!DOCTYPE svg PUBLIC "-//W3C//DTD SVG 1.1//EN" "http://www.w3.org/Graphics/SVG/1.1/DTD/svg11.dtd">
<svg version="1.1" id="Layer_1" xmlns="http://www.w3.org/2000/svg" xmlns:xlink="http://www.w3.org/1999/xlink" x="0px" y="0px"
	 viewBox="0 0 300 300" enable-background="new 0 0 300 300" xml:space="preserve">
<g id="Layer_6">
	<rect x="149.9" y="101" fill="#16A085" width="110.1" height="189"/>
	<rect x="40" y="93.2" fill="#1ABC9C" width="93" height="191.8"/>
	<path fill="#34495E" d="M224.4,93.3c5.2-3.7,10.2-7.8,14.7-12.4c9.6-9.6,16-21.3,18-33.2c2.3-12.9-1.1-25-9.1-33
		C241.7,8.4,233,5,223,5c-14.2,0-29.2,6.8-41.1,18.7c-19,19-30.2,45.3-36.1,64.1c-4.4-18.9-13.2-44.3-30.4-61.5
		c-9.2-9.2-21-13.9-32-13.9c-9.1,0-17.7,3.2-24.1,9.6C45,36.3,46.9,61.5,63.6,78.2c6,6,12.9,10.9,20.3,15H21.6v73.4H40V295h220
		V166.6h18.3V93.3H224.4z M196.5,38.3c7.9-7.9,17.9-12.7,26.5-12.7c3.1,0,7.4,0.6,10.4,3.7c7.5,7.5,3.3,24.7-9,37
		c-12.6,12.6-29.5,21.3-44.3,27h-14.5C171.1,76.8,180.7,54.2,196.5,38.3z M70.3,47.7c-0.2-2.6,0-7.5,3.5-11c2.9-2.9,6.8-3.6,9.6-3.6
		l0,0c6.1,0,12.5,2.9,17.5,7.9c9.7,9.7,17.7,25.2,23.1,44.7c0.1,0.5,0.3,1.1,0.4,1.6c-0.5-0.1-1-0.3-1.6-0.4
		c-19.5-5.4-35-13.4-44.7-23.1C73.6,59.1,70.8,53.3,70.3,47.7z M131.7,276.6H58.3V157.4h73.4V276.6z M131.7,148.3H40v-36.7h91.7
		V148.3z M241.7,276.6h-73.4V157.4h73.4L241.7,276.6L241.7,276.6z M260,148.3h-91.7v-36.7H260V148.3z"/>
</g>
</svg>
