<?xml version="1.0" encoding="utf-8"?>
<!-- Generator: Adobe Illustrator 18.1.0, SVG Export Plug-In . SVG Version: 6.00 Build 0)  -->
<!DOCTYPE svg PUBLIC "-//W3C//DTD SVG 1.1//EN" "http://www.w3.org/Graphics/SVG/1.1/DTD/svg11.dtd">
<svg version="1.1" id="Capa_1" xmlns="http://www.w3.org/2000/svg" xmlns:xlink="http://www.w3.org/1999/xlink" x="0px" y="0px"
	 viewBox="0 0 800 800" enable-background="new 0 0 800 800" xml:space="preserve">
<rect y="673.5" fill="#FFFFFF" width="798.3" height="126.5"/>
<path fill-rule="evenodd" clip-rule="evenodd" fill="#FFFFFF" d="M121.1,196.7c-8.2-0.5-18.7-3.2-26.8-2.1c-9.8,1.4-11.5,5-24.2,2.2
	c-25.7-5.7-5.1-2.4-24.6-2.5c-15.7-0.1-16.2,2.9-21.6-2.4c5.6-3.1,2.5-0.1,6.9-5.8c7-0.6,8.3,1,13.5,1c4.1,0,6.3-1.2,11.8-1.3
	c4.1-0.1,10.4,0.5,13.9-0.1c5.2-0.9,5.3-2.3,12-0.9c9.7,2,8.5,5.6,20.4,4.9c4.8-0.3,6.4,0.2,10.8,1.9L121.1,196.7z"/>
<path fill-rule="evenodd" clip-rule="evenodd" fill="#F2F2F2" d="M450.4,165.2c1.5,3.1,0.5-0.8,2.5,2.9c-7.2,1.6-5.6,0.7-12.8,0.6
	c-6.5-0.1-10.4,1.1-15.5,1.3c-10.8,0.6-7.3-5.1-19.1,2.8c-4.9,3.3-2.2-0.6-4.5,3.9c4.2,8.3,8,3.5,22.9,4.3c5.1,0.3,7.7-1.6,13.7-0.7
	c4.2,0.6,7.7,2.5,12.1,3.3c13.6,2.2,16.8-2.2,26.9-2.5c7.2-0.2,21.6,4.3,25.9,0.4c-8.6-11.9-22.7-6.4-31.1-10.1l-10.4-4.1
	c7.4-0.3,8.3,1.7,17.3,0.7c7.2-0.8,10.6,0.9,17.2,0.8c7.3-0.2,7.9-3.3,16.1-2.3c6.8,0.8,10.1,2.7,16.2,1.3c-1.1-4.1,0.1-3.5-4.9-5.4
	l-24.4-3.9c-3.8-0.5-4.3,0.5-7.8,0.5c-5.3,0-3.1-0.9-7.6-1.8c-7-1.4-8.4,3.2-14.9,4.3c5.4,4.1,5.7-2.4,11.9-2.7
	c3.9-0.2,4.5,1,7.4,1.5c4.5,0.8,5.1-0.2,9.2-0.1c5.6,0.2,6.8,2.4,14.1,2.5c6.3,0,11.2-0.5,14.6,4.3c-35.7-4.5-17.9,2-37.4-0.3
	c-3.2-0.4-24.1,0.6-36.4-1.6l-1.1-3.5L450.4,165.2z M473.5,179.5c-9.8,1.4-11.5,5-24.2,2.2c-25.7-5.7-5.1-2.4-24.6-2.5
	c-15.7-0.1-16.2,2.9-21.6-2.4c5.6-3.1,2.5-0.1,6.9-5.8c7-0.6,8.3,1,13.5,1c4.1,0,6.3-1.2,11.8-1.3c4.1-0.1,10.4,0.5,13.9-0.1
	c5.2-0.9,5.3-2.3,12-0.9c9.7,2,8.5,5.6,20.4,4.9c4.8-0.3,6.4,0.2,10.8,1.9l8,5.1C492.1,181.1,481.6,178.4,473.5,179.5z"/>
<path fill-rule="evenodd" clip-rule="evenodd" fill="#FFFFFF" d="M417.8,104.7c8.1-0.6,8.8-4.6,18.2-1.2c11.4,4.2,6.9-1.1,16.2-1.5
	l25.7,6.7c3.9,0.9,3.9,1.1,6,3.2c-3.6,1.9-10.5-1.4-15.8-1.9c-5.6-0.5-11.8,1.2-18.3,0.8c-6.9-0.4-10.8-0.5-17.5-0.7
	C425.6,110,418,109.7,417.8,104.7"/>
<path fill-rule="evenodd" clip-rule="evenodd" fill="#F2F2F2" d="M147.4,111.2c8.5-1.4,10.4,0.4,17.6,0c5.4,4.1,5.7-2.4,11.9-2.7
	c3.9-0.2,4.5,1,7.4,1.5c4.5,0.8,5.1-0.2,9.2-0.1c5.6,0.2,6.8,2.4,14.1,2.5c6.3,0,11.2-0.5,14.6,4.3c-35.7-4.5-17.9,2-37.4-0.3
	c-3.2-0.4-24.1,0.6-36.4-1.6L147.4,111.2z"/>
<path fill-rule="evenodd" clip-rule="evenodd" fill="#E6E6E6" d="M663.1,119.6c-2.4,1.4-1-3.5-2.2,3.1c7.7,7.6,49.9,3.5,55.4,4.4
	c6.6,1,10.5,4.5,15-0.3c-2.9-5.8-9.9-4.2-20.8-8.3c-11.3-4.2-11.8-4.8-22.4,0.2C687.1,118.9,672.9,111.4,663.1,119.6 M663.1,119.6
	c8.1-0.6,8.8-4.6,18.2-1.2c11.4,4.2,6.9-1.1,16.2-1.5l25.7,6.7c3.9,0.9,3.9,1.1,6,3.2c-3.6,1.9-10.5-1.4-15.8-1.9
	c-5.6-0.5-11.8,1.2-18.3,0.8c-6.9-0.4-10.8-0.5-17.5-0.7C670.8,124.9,663.2,124.6,663.1,119.6"/>
<path fill-rule="evenodd" clip-rule="evenodd" fill="#F39C12" d="M1,351c25.7-10.1,59.9-15,112.1,3C156.3,369,219.8,418.3,222.2,465
	C131,462.7,45,459.8,1,463.5"/>
<g>
	<path fill="#F1C40F" d="M19,725.3l11.3-1l66,2.9c21.1-3.5,42.4-4.6,50.6,5.9l58.2,10.1l32.9,1.8l10.7-21.3L234.3,700l130.3,39.3
		l48.3-31.7l31.7,11.7l58.7-13l17,39.7l157.1-45.5l57.3,27.7c3.5-15.8-38.3,15.4-31.9,27.3l73.9-9.3c13.2-1.7,23.2,18.9,23.2,3.1
		V459H0l0,260.8C0,732.2,8.6,727.1,19,725.3z"/>
	<g>
		<g>
			<ellipse fill="#C18123" cx="547" cy="505" rx="167.1" ry="37.9"/>
			<polygon fill="#E6E6E6" points="723.2,196.8 535.9,188 372.4,284.2 374.8,304 396.8,306.1 416.4,313.2 470.9,308 509.5,290.8 
				576.8,287.1 631.7,256.4 691.8,240.9 713.2,215.1 			"/>
			<g>
				<path fill="#F2F2F2" d="M721.6,195.6c0,0,17.9,12.2,7.5,24.9c0,0-9.3,7.8-15.9-5.4c0,0,7.1,23.7-22,39.6c0,0-26,11.7-59.5,1.8
					C631.7,256.4,718.3,229.4,721.6,195.6z"/>
				<path fill="#F2F2F2" d="M712.4,213.4c3-4.5,8.4-9.6,9.3-17.9c0,0,17.9,12.2,7.5,24.9c0,0-9.3,7.8-15.9-5.4L712.4,213.4z"/>
				<path fill="#F2F2F2" d="M631.7,256.4c0,0-72.4,29.7-122.2,34.4C509.5,290.8,589.7,328.1,631.7,256.4z"/>
				<path fill="#F2F2F2" d="M368.6,290.8c0,0-4.3,24.2,15,29.7c0,0,16.7,2.3,13.9-12.6c0,0,18.8,21.5,55.1,16.4
					c0,0,44.4-6.3,56.8-33.6C509.5,290.8,421.2,328.2,368.6,290.8z"/>
			</g>
			<g>
				<g>
					<path fill="#726128" d="M625.6,507.9c-25.9-87.7-51.8-175.4-77.8-263.1c0-0.1,0-0.1,0-0.2c-1.1-3.8,4.8-5.4,5.9-1.6
						c25.9,87.7,51.8,175.4,77.8,263.1c0,0.1,0,0.1,0,0.2C632.6,510,626.7,511.6,625.6,507.9L625.6,507.9z"/>
				</g>
				<g>
					<path fill="#726128" d="M556.9,265.9c30-19.3,59.9-38.6,89.9-57.9c1.7-1.1,3.2,1.6,1.5,2.6c-30,19.3-59.9,38.6-89.9,57.9
						C556.8,269.6,555.3,266.9,556.9,265.9L556.9,265.9z"/>
				</g>
				<g>
					<path fill="#726128" d="M620.4,207.5c-20.6,20.3-41.1,40.5-61.7,60.8c-1.4,1.4-3.6-0.8-2.2-2.2c20.6-20.3,41.1-40.5,61.7-60.8
						C619.7,204,621.8,206.1,620.4,207.5L620.4,207.5z"/>
				</g>
				<g>
					<path fill="#726128" d="M567.3,235c-2.7,10.9-5.4,21.7-8.1,32.6c-0.5,1.9-3.4,1.1-2.9-0.8c2.7-10.9,5.4-21.7,8.2-32.6
						C564.8,232.3,567.8,233.1,567.3,235L567.3,235z"/>
				</g>
				<g>
					<path fill="#726128" d="M553.4,266.1c-9.6-5.6-19.1-11.2-28.7-16.7c-1.7-1-0.2-3.6,1.5-2.6c9.6,5.6,19.1,11.2,28.7,16.7
						C556.6,264.5,555.1,267.1,553.4,266.1L553.4,266.1z"/>
				</g>
				<g>
					<path fill="#726128" d="M554.2,268.7c-30.1-4.3-60.2-8.7-90.3-13c-1.9-0.3-1.1-3.2,0.8-2.9c30.1,4.3,60.2,8.7,90.3,13
						C557,266,556.2,268.9,554.2,268.7L554.2,268.7z"/>
				</g>
				<g>
					<path fill="#726128" d="M554.6,270.2c-37.4,0.7-74.8,1.5-112.2,2.2c-2,0-2-3,0-3c37.4-0.7,74.8-1.5,112.2-2.2
						C556.6,267.1,556.6,270.2,554.6,270.2L554.6,270.2z"/>
				</g>
			</g>
			<path fill="#F1C40F" d="M527.7,174.5l190.6,10.4c0,0,9.1,14.4-3,20c0,0-13.4,2.8-17-9.1L527.7,174.5z"/>
			<path fill="#F2F2F2" d="M527.7,174.5l76.5,33.3c0,0,67,26.6,94.1-12L527.7,174.5z"/>
			<path fill="#F1C40F" d="M472.9,244.2c0,0,80.7,26.6,132.6-35.9l-77.8-33.8L472.9,244.2z"/>
			<path fill="#F2F2F2" d="M377.5,281.4l150.2-106.9l-54.8,69.7C472.9,244.2,438.1,296.9,377.5,281.4z"/>
			<path fill="#F2F2F2" d="M396.6,303.6c-6.4-0.9-20.2-8.6-28.1-14.5c0,0-5.6,32.4,19.1,31.5c0,0,11.8,0.7,10.6-12.1L396.6,303.6z"
				/>
			<path fill="#F1C40F" d="M528,174.8L363.3,286.1c0,0-3.5,14.1,9.9,13.2c0,0,6.9-5.7,4.3-17.9L528,174.8z"/>
		</g>
		<g>
			<path fill="#FFFFFF" d="M678.2,342.9c-45,57.1-90,114.2-135,171.2c-4.6,5.8-9.1,11.5-13.7,17.3c-4.4,5.5-13.6-0.4-9.2-6
				c45-57.1,90-114.2,135-171.2c4.5-5.8,9.1-11.5,13.7-17.3C673.3,331.4,682.6,337.3,678.2,342.9L678.2,342.9z"/>
		</g>
		<g>
			<path fill="#F2F2F2" d="M622.8,394.9c10.4,33.2,20.8,66.4,31.3,99.7c2.1,6.8-8.6,9.2-10.7,2.4c-10.4-33.2-20.8-66.4-31.3-99.6
				C609.9,390.5,620.7,388.2,622.8,394.9L622.8,394.9z"/>
		</g>
		<path fill="#F2F2F2" d="M622.9,395.3C623,395.8,622.8,394.8,622.9,395.3c-3.2-4.7-12.9-2.1-8.2,10.4c-0.2-0.7-2.3-7.4-2.5-8.1
			C609.6,390.1,620.8,387.4,622.9,395.3z"/>
		<path fill="#FFFFFF" d="M532.1,446c0,0,1.6-2.7,7-1l8.9,3.1l-5.4,9.3l-9.1-3.3C533.6,454.1,528.9,450.8,532.1,446z"/>
		<g>
			<path fill="#F2F2F2" d="M676,335.3c3.1,1.3,4.3,4.6,2.6,7c-41.2,56.6-86.7,110-130,165c-6.4,8.1-12.8,16.3-19.2,24.4
				c-2.1,2.6-5.5,2.4-7.9,0.8L676,335.3z"/>
		</g>
		<g>
			<path fill="#FFFFFF" d="M747,371.4c-26.3-4.7-52.6-9.4-78.8-14.1c-6.7-1.2-6.3-12.2,0.5-11c26.3,4.7,52.6,9.4,78.8,14.1
				C754.2,361.6,753.8,372.6,747,371.4L747,371.4z"/>
		</g>
		<g>
			<path fill="#F2F2F2" d="M751.9,368.8c-0.3,2.6-2.1,4.8-5.4,4.2c-26.2-5.2-52.4-10.4-78.6-15.6c-3-0.6-4.5-3.2-4.7-5.7
				L751.9,368.8z"/>
		</g>
		<g>
			<g>
				<path fill="#F2F2F2" d="M616.5,541.2c-25.1-9.1-50.2-18.2-75.3-27.3c-1.5-0.5-2.4-1.1-3.8-1.8c-3.9-2.1,1.1-10.7,6.1-8.9
					c25.1,9.1,50.2,18.2,75.3,27.3C625.3,532.8,621.6,543.1,616.5,541.2L616.5,541.2z"/>
			</g>
			<g>
				<path fill="#F2F2F2" d="M621.3,539.2c-1.3,2.4-2.4,4.6-5.5,3.4c-24.9-9.6-49.9-19.1-74.8-28.7c-1.3-0.5-4-1.2-3.5-1.8
					c0.7-1,1.5-2,2.8-3.5L621.3,539.2z"/>
			</g>
		</g>
		<path fill="#F39C12" d="M686,347c0,0-21,8.6-35.3,55.5c0,0-21.5,53.4-82.2,53l53.9,18.9c0,0,60.3,11.8,86.6-61.2
			c0,0,8.1-37.6,33.8-53.7L686,347z"/>
		<path fill="#F39C12" d="M606.9,469.1c0,0-8.3-4.3-10.7,2.2c0,0-0.4,5,8.2,8l-62.3-22c0,0-2.6-2.6-1-5.9c0,0,1-4.9,8.9-2.8
			L606.9,469.1z"/>
		<g>
			<g>
				<path fill="#FFFFFF" d="M760.6,361.4c-45,57.7-90,115.3-135,173c-6.7,8.5-13.3,17.1-20,25.6c-4.3,5.5-13.6-0.4-9.2-6
					c45-57.7,90-115.3,135-173c6.7-8.5,13.3-17.1,20-25.6C755.7,349.9,765,355.8,760.6,361.4L760.6,361.4z"/>
			</g>
		</g>
		<g>
			<path fill="#F2F2F2" d="M759.6,354.6c2.6,1.4,4.2,4.5,1.8,7.5c-45.3,57.5-90.5,114.9-135.8,172.4c-6.7,8.5-13.4,17-20.1,25.5
				c-2.2,2.7-5.5,2.7-7.8,1.2L759.6,354.6z"/>
		</g>
		<g>
			<path fill="#F2F2F2" d="M730.1,525.7c-9.9-33.9-19.8-67.9-29.7-101.8c-2-6.8,8.8-9.2,10.7-2.4c9.9,33.9,19.8,67.9,29.7,101.8
				C742.8,530.1,732,532.5,730.1,525.7L730.1,525.7z"/>
		</g>
		<g>
			<path fill="#FFFFFF" d="M746.4,534.6c-48.9-19.1-97.8-38.1-146.7-57.2c-6.6-2.6-3.2-13.1,3.4-10.5
				c48.9,19.1,97.8,38.1,146.7,57.2C756.4,526.7,753.1,537.2,746.4,534.6L746.4,534.6z"/>
		</g>
		<g>
			<path fill="#F2F2F2" d="M753,531.4c-0.9,2.6-3.3,4.5-6.6,3.2c-48.9-19-97.8-38.1-146.8-57.1c-3.2-1.2-4-4.3-3.3-6.9L753,531.4z"
				/>
		</g>
	</g>
</g>
<path fill-rule="evenodd" clip-rule="evenodd" fill="#F2F2F2" d="M570.2,631.8c-33.9-5-47.1-22-86,2.2c-28.8,17.9-26.8,36.3-45,62.3
	l-4.8-2.8c-0.6-0.4-1.6-1-2.3-1.5c-34.4-23.4-118.1-51.1-113.7,17.8c30.8,21.3,21.1,13.1,49.8,3.1c-0.5-17.7,2.2-17.8-14.4-22.3
	c4.5,11.3,4.5,33.9-12.5,24.7c-7.3-3.9-4.3-16.3-1.3-25.4c4.8-15.1,32.2,3.1,33.2,3.4c7.8,2.6,16.5,1.5,25.6,6.4
	c13.7,7.3,2.7,0.8,10.6,7.8c-5,4-2.9,0.8-9.1,2c-1.4,3.8,2.7,10.7-28.7,17.6c-36.2,7.9-37.9-4.2-51.6-5.7
	c-12.3-1.3-22.2-0.3-39.9-12.2c-13.6-9.1,7.9,6.8-4.1-3l-3.5-3.6c-15.6-3.2-46.7-27.6-70.2-10.8c9.7,5.9,21.4,9.4,29.2,16.2
	c35.7,30.8-7.8,47.5-51.6,23.5c-29.9-16.4-30.6-1.3-63.3-7.3c-33.9-6.2-21.8-6.4-58.5-2.2c-23.5,2.7-40.3-10.4-58.1,4.6
	c20.5,8.1,49.2,0,73.9,0c33.4,0.1,42.2,8.9,67.2,12c16.5,2,25.6-2.5,40.9,0.8c14.1,3,15.3,5.5,33.6,6.4c47.1,2.6,46.4-11,40.9-29.5
	c45,10.7,36.4,43.8,131.2,19.6c22-5.6,20.9-7.3,34.3-18.1c6.9,9.2,2.9,11,17.1,11.9c28,1.9,31-26.2,64.9-13.7
	c-3.1,9.9-0.8,4-8.5,10.6c-4.1,3.5,0.2-2.8-8.2,5.6l16.8,0.5c-3,7.1-14.5,14.5,8,20.5c35.9,9.6,56.6-19.9,102.3-11.3
	c4.9-11.9,3.4-11.8,16.4-14.8c6.9-9.5,22.1-13.3,35.2-14.9c16.9-2,29-2.7,37.4,7.8c-15.2,23.1-37.7-6.4-45.9,25.9
	c19.8-2.7,30.2-13.2,42.4-1.1c-7.9,14.6-8.5,2.5-15.9,17.9c19.5,9.7,33.9-1.3,56.5-4.3c25-3.3,38,0,60.4,5.3v-18.4
	c-57.1-5.2-72.5,7.8-85.9-7.6c0.8-0.4,1.9-0.8,2.5-1c0.6-0.2,1.9-0.7,2.7-0.9l9.2-1.9c1-0.2,2.1-0.4,3.1-0.7
	c0.9-0.2,2.2-0.6,2.9-0.7l5.5-1.7c4-63.5-52.2-35.4-71.5-31.8c-24.9,4.7-33.8-27.4-93,16.4c-33.2,24.5-25.8,15.3-63.3,8.3
	c0.8-0.6,2.1-2.3,2.6-1.6l15-9.4c-14-49.6-94.5,25.5-112.6-14.5c22.2,8.1,27.8,9.7,52.1-0.8c21.5-9.3,12.8-25.2,36.2-34.5
	c0-0.1-2.7-10.7,25.4-13.8c16.7-1.8,23.2,2.7,31.7,9.4c1,16.7-1.3,20.9-14.3,26c-10.6-5.8-4.2,4.1-8.8-12.6
	c-9.4,8.5-7.5,7.6-9.2,23.6c16.4,9.4,29.7,9.4,42.9-7.5c14.5-18.6,9-29,3.5-49.8C568.8,636.1,572.3,638.2,570.2,631.8 M410.2,695.2
	c5.6-2.5-5.5-6.7,4.1-1.4c8.6,4.8-0.9-4.5,3.9,4.6C401.5,702,413.9,700.6,410.2,695.2z"/>
<path fill-rule="evenodd" clip-rule="evenodd" fill="#F2F2F2" d="M303.2,781.6v2.7c-9.2-0.1-14.1,2-22.3,1.7
	c-9.8-0.4-10.7-3.6-22.2-2.8l-49.2-1.1c-8.9-0.4-13.5-3.3-22.2-3.1c-12.8,0.3-50.1,5.6-63.7-3.8l45.8,2.5c9.7,0.3,14.4-2.6,24.6-1.4
	c21.4,2.6,45.5,5.4,67.3,3.4c8.4-0.8,12.8,2.8,20,3.5C288.6,783.8,293.2,781.1,303.2,781.6"/>
<path fill-rule="evenodd" clip-rule="evenodd" fill="#E6E6E6" d="M463.4,765.1c-29.9,2.8-57.8-1.8-86.9-1.6c2.1-2.1-0.2-1.6,3.9-3.2
	c10.6-4.2,19.5,3.1,40.5,0.3C429.1,759.5,456.1,761.7,463.4,765.1"/>
<path fill-rule="evenodd" clip-rule="evenodd" fill="#F2F2F2" d="M645.8,780.1v3.7c-30.3-5.8-42.6,7.6-48.4,2.1
	c-0.3-0.3-1-0.9-1.3-1.2c-3.6-3.3-5-5.9-11.7-6.8c-5.4-0.7-50.8,4.2-56.3-3l64.1,0.4l8.9,8.5C622.4,780.1,620.9,778.2,645.8,780.1"
	/>
<path fill-rule="evenodd" clip-rule="evenodd" fill="#FFFFFF" d="M381.6,100.8c-8.2-0.5-18.7-3.2-26.8-2.1c-9.8,1.4-11.5,5-24.2,2.2
	c-25.7-5.7-5.1-2.4-24.6-2.5c-15.7-0.1-16.2,2.9-21.6-2.4c5.6-3.1,2.5-0.1,6.9-5.8c7-0.6,8.3,1,13.5,1c4.1,0,6.3-1.2,11.8-1.3
	c4.1-0.1,10.4,0.5,13.9-0.1c5.2-0.9,5.3-2.3,12-0.9c9.7,2,8.5,5.6,20.4,4.9c4.8-0.3,6.4,0.2,10.8,1.9L381.6,100.8z"/>
<path fill-rule="evenodd" clip-rule="evenodd" fill="#F2F2F2" d="M407.9,15.3c8.5-1.4,10.4,0.4,17.6,0c5.4,4.1,5.7-2.4,11.9-2.7
	c3.9-0.2,4.5,1,7.4,1.5c4.5,0.8,5.1-0.2,9.2-0.1c5.6,0.2,6.8,2.4,14.1,2.5c6.3,0,11.2-0.5,14.6,4.3c-35.7-4.5-17.9,2-37.4-0.3
	c-3.2-0.4-24.1,0.6-36.4-1.6L407.9,15.3z"/>
<path fill-rule="evenodd" clip-rule="evenodd" fill="#F2F2F2" d="M200.4,199.4c1.5,3.1,0.5-0.8,2.5,2.9c-7.2,1.6-5.6,0.7-12.8,0.6
	c-6.5-0.1-10.4,1.1-15.5,1.3c-10.8,0.6-7.3-5.1-19.1,2.8c-4.9,3.3-2.2-0.6-4.5,3.9c4.2,8.3,8,3.5,22.9,4.3c5.1,0.3,7.7-1.6,13.7-0.7
	c4.2,0.6,7.7,2.5,12.1,3.3c13.6,2.2,16.8-2.2,26.9-2.5c7.2-0.2,21.6,4.3,25.9,0.4c-8.6-11.9-22.7-6.4-31.1-10.1l-10.4-4.1
	c7.4-0.3,8.3,1.7,17.3,0.7c7.2-0.8,10.6,0.9,17.2,0.8c7.3-0.2,7.9-3.3,16.1-2.3c6.8,0.8,10.1,2.7,16.2,1.3c-1.1-4.1,0.1-3.5-4.9-5.4
	l-24.4-3.9c-3.8-0.5-4.3,0.5-7.8,0.5c-5.3,0-3.1-0.9-7.6-1.8c-7-1.4-8.4,3.2-14.9,4.3c5.4,4.1,5.7-2.4,11.9-2.7
	c3.9-0.2,4.5,1,7.4,1.5c4.5,0.8,5.1-0.2,9.2-0.1c5.6,0.2,6.8,2.4,14.1,2.5c6.3,0,11.2-0.5,14.6,4.3c-35.7-4.5-17.9,2-37.4-0.3
	c-3.2-0.4-24.1,0.6-36.4-1.6l-1.1-3.5L200.4,199.4z M223.5,213.7c-9.8,1.4-11.5,5-24.2,2.2c-25.7-5.7-5.1-2.4-24.6-2.5
	c-15.7-0.1-16.2,2.9-21.6-2.4c5.6-3.1,2.5-0.1,6.9-5.8c7-0.6,8.3,1,13.5,1c4.1,0,6.3-1.2,11.8-1.3c4.1-0.1,10.4,0.5,13.9-0.1
	c5.2-0.9,5.3-2.3,12-0.9c9.7,2,8.5,5.6,20.4,4.9c4.8-0.3,6.4,0.2,10.8,1.9l8,5.1C242.1,215.3,231.6,212.6,223.5,213.7z"/>
<g display="none">
	<path display="inline" fill="#FFFFFF" d="M304,432.1c0,0,0.2-6-7-12.7c-7.2-6.7-10.2-9.3-11.8-12.5c-1.6-3.2-5.8-6-5.8-6
		s0.9-3.2-1.9-7.2c-2.8-3.9-6.3-8.1-12.3-10.4c0,0,2.1,1.2,1.4,4.4c0,0-7.6-1.9-16.7-1.9c-9,0-14.6-5.3-14.6-5.3s4.6,6,10.7,7.6
		c0,0-6.7,1.6-10.7,0.2c0,0,0.7,2.1,3,2.8c0,0-11.6-1.4-17.6,1.6c0,0,7.4-1.2,9.7,0.2c0,0-5.8,1.6-8.1,1.9
		c-2.3,0.2-11.1,1.6-13.9,4.2c0,0,8.3-2.1,11.4-1.2c0,0-10.4,4.6-16.7,4.4c0,0,5.1,1.9,8.6,1.6c0,0-5.8,1.9-12,7c0,0,6-2.8,8.6-1.4
		c0,0-6,7.2-13.4,9.5c0,0,1.2,0.5,4.6,0.5c0,0-7,6.5-11.4,10.9c-4.4,4.4-11.6,11.1-19.2,12.3c-7.6,1.2-21.8,3.2-25,3.7
		c-3.2,0.5-29.7-5.3-41.2,4.9c0,0-9.3,1.6-19.7-7.6c-10.4-9.3-19.9-8.6-19.9-8.6s12,1.6,17.1,11.1c0,0-13.7-10-24.1-9.7
		c-10.4,0.2-18.3,6.7-18.3,6.7s12-3.9,15.5-2.3c0,0-14.4,3.7-21.3,7.2c-7,3.5-20.6-0.9-21.1-5.1c0,0,1.2,6.3,5.6,9.5
		c0,0-13.7,3.9-16.2-4.6c0,0-1.6,14.8,30.4,15.1c0,0-11.6,3-18.8,2.3c0,0,13.7,3.7,19.9,2.8c0,0-5.3,2.1-7.4,2.5
		c0,0,20.2,0.9,27.1-2.1c7-3,32.4-11.1,43.8-8.1c0,0-5.6,15.1-7.4,27.8c-1.9,12.7-9.5,16.2-16,12.5c0,0-5.6,6.5-10.9,14.8
		c-5.3,8.3-17.4,13.2-25.7,13.7s-1.9,7-3.7,9.3c-1.9,2.3-8.6-2.8-11.4,10c-2.8,12.7,2.1,13.2,5.3,10.7c3.2-2.5,8.6-6.3,10-11.1
		c0,0,6.5-0.9,8.3-3.5c1.9-2.5,7.2-13.2,17.6-16.5c10.4-3.2,16-11.6,26.9-10c10.9,1.6,27.5-0.7,33.8-10.9c0,0,3.1,3.9,2.9,7.4
		c0,0-4.9,9.7,2.9,11.4c7.8,1.6,47.9,9,49.5,13.2c1.6,4.2,7.3,4.2,6.7,6.3c-0.6,2.1-5.4,3,0,7.9c5.4,4.9,18.6,11.6,17.9,5.6
		c-0.7-6-5.4-10-7.9-12.3c-2.5-2.3,1.7-8.1-5.5-13.2c-7.2-5.1-40.2-8.8-40-16.2c0.1-7.4,4.3-10,1.1-17.8c0,0,18.5-0.5,34.8,5.1
		c16.2,5.6,31.3,4.6,38.7,0c0,0,2.1,6.5,8.8,4.2c6.7-2.3,15.5-6.3,25.5-1.9c10,4.4,14.6,3,14.6,3s-4.2,5.6-7.4,7
		c0,0-2.5,4.2-4.2,4.2c-1.6,0-3.5-2.8-10.2,3.9c-6.7,6.7-6.7,13.2-3.9,13c2.8-0.2,6.5-0.2,8.6-1.6c2.1-1.4,3.9-2.5,7.2-2.1
		c3.2,0.5,5.3-2.1,7.6-7s8.8-16.2,8.8-16.2s9.3-0.7,11.8,2.3c2.5,3,8.8,6,13.7,6c4.9,0,13.2,4.2,15.5,11.1c0,0,2.8,1.2,3,3.9
		c0.2,2.8-0.7,11.1,9.5,14.4c0,0,5.1-5.8,2.1-14.8c-3-9-3.5-10.7-10.9-13.7s-14.4-6-17.6-9c-3.2-3-5.8-6.5-13.2-7.2
		c0,0-4.6-3.2-7.2-4.4c0,0,5.8-3.9,2.5-12.7c-3.2-8.8-10.2-7.4-14.6-6.3c-4.4,1.2-18.5,1.9-21.3,3.5c0,0,1.9-4.2-0.5-7
		c-2.3-2.8-4.4-5.1-4.9-11.1c-0.5-6-6.7-11.1-5.1-14.6c1.6-3.5,3.9-13.4,5.6-18.8c1.6-5.3,8.3-10.4,16-7.2
		c7.6,3.2,10.7,1.9,10.7,1.9s14,14,19.9,12C298.6,437.4,300.5,439,304,432.1z"/>
	<path display="inline" fill="#F2F2F2" d="M201,424.8c0,0-13.2,2.4-24.3-6c0,0,12.5-7.7,12.3-12.3c0,0,0.6-2.6,2.2-2.4
		c2.4,0.3,3.4,3.3,5.9,1.4c2-1.5,2.1-3.4,3.6-4.6c0.9-0.7,1.2,0.1,2.5-0.5c0,0,0.5-4.2,2.3-7.2c1.7-3,4.2-3.9,3.9-6.6
		c-0.3-2.8-0.3-12.1-13.1-16.8c-12.8-4.7-22.1,6.7-21,17.3c0,0-13.4,0.4-24.7,7.7c-11.3,7.3-27,15.7-25.9,21.6
		c0,0-10.4,11.3-3.5,22.3c6.9,11.1,33,8.8,33,8.8l29.6,1.7c5.6-4.8,3.5-11.9-0.9-13.1c-4.4-1.1-26-4.2-25.2-7c0.8-2.8,7-6.6,7-6.6
		s7.6,8,25,10L201,424.8z"/>
</g>
</svg>
