<?xml version="1.0" encoding="utf-8"?>
<!-- Generator: Adobe Illustrator 18.1.0, SVG Export Plug-In . SVG Version: 6.00 Build 0)  -->
<!DOCTYPE svg PUBLIC "-//W3C//DTD SVG 1.1//EN" "http://www.w3.org/Graphics/SVG/1.1/DTD/svg11.dtd">
<svg version="1.1" xmlns="http://www.w3.org/2000/svg" xmlns:xlink="http://www.w3.org/1999/xlink" x="0px" y="0px"
	 viewBox="0 0 64 64" enable-background="new 0 0 64 64" xml:space="preserve">
<g id="Layer_1" display="none">
	<g id="Layer_1_1_" display="inline">
		<g>
			<path fill="#F1C40F" d="M18.4,3.3l0.1,0.9l0.1,4.7l0,2.1c0.1,1.3-0.9,4.8,0,7c0.8,2,3.7,1.8,5.9,1.5c1.6-0.2,3.2-2.3,3.9-3.6
				c2.5-4.4,1.6-2.2,3.5-4.1c-0.3-1.9-1.4-2.3-2.7-3.2c0.3-1.1,0.6-0.6,0.9-2.1c0.2-0.9,0.3-1.4,0.9-1.9c0.9-0.8,3.3-0.8,4.9-0.6
				c1.2,0.7,0,1.9,2,4.6c2,0,3.8-0.3,6.1-0.2c4.7,0.3,4.5,4.7,3.4,7.4c-0.8,2-1.6,1.6-0.9,4.4c0.5,2.1,0.6,3.2,0.8,5.5
				c0.3,4.2,0.3,2.1,0.8,3.6l0.8,3.7c-0.1,1.4-0.5,0.8,0.3,2.3c0.6,1.1,1.8,2.7,1.9,4.2c-1.1-0.2-1.1-1-1.7-2
				c-0.4-0.7-1-1.7-1.3-2.3c-0.5-1.1-0.6-4.6-1.2-5.8c0,0-0.1,0-0.1,0c0,0-0.1,0-0.1,0c-1.4,0.6-0.5,1.8-1.6,2.9
				c-0.5-0.2-0.3-0.1-0.6-0.5c0,0-0.1-0.2-0.2-0.3l-0.2-0.3c-0.2,3.7,0.3,7.3,0.3,7.9l-1,0.1l-0.9-7.4c-0.4,0.1-0.5-0.2-0.5,1.4
				c0,1.7-0.1,3.7,0.2,5.3c0.4,2.2,0.5,4.4,0.5,6.7c0,2.6,0.4,4.2,0.6,6.6c0.2,2.2,0,4.7,0.2,6.8c2.8,0.4,5.7-0.2,8.5-0.1V63H9.4
				v-2.9c3.3,0.4,4.9-0.2,8.1-0.1c0.5-0.3,0.2,0.6,0.5-0.7c0-3,0.1-6.2,0-9.2c0-1.5-0.2-3-0.2-4.5c0-1.5,0.2-3,0.2-4.5c0-3,0-6,0-9
				l-0.4-8.8c-0.2-1.3,0-1.2-0.6-2.5c-0.5-1.1-0.2-1.5,0.2-2.4c0.3-0.7,0.3-4.8,0.1-5.8l0.1-0.3c0,0,0-0.1,0-0.2l0.2-2.7
				c0.8-1.9-0.4-7.3,0.3-9L18.4,3.3z"/>
			<path fill="#F39C12" d="M34.8,11.7c-0.3-1.9,0.4-2.3-0.9-3.2c0.3-1.1,0-0.9,0.3-2.5c0.2-0.9-0.9-1.2-0.3-1.8
				c0.9-0.8,0.3-0.4,2-0.2c1.2,0.7,0,1.9,2,4.6c2,0,3.8-0.3,6.1-0.2c4.7,0.3,4.5,4.7,3.4,7.4c-0.8,2-1.6,1.6-0.9,4.4
				c0.5,2.1,0.6,3.2,0.8,5.5c0.3,4.2,0.3,2.1,0.8,3.6l0.8,3.7c-0.1,1.4-0.5,0.8,0.3,2.3c0.6,1.1,1.8,2.7,1.9,4.2
				c-1.1-0.2-1.1-1-1.7-2c-0.4-0.7-1-1.7-1.3-2.3c-0.5-1.1-0.6-4.6-1.2-5.8c0,0-0.1,0-0.1,0s-0.1,0-0.1,0c-1.4,0.6-0.5,1.8-1.6,2.9
				c-0.5-0.2-0.3-0.1-0.6-0.5c0,0-0.1-0.2-0.2-0.3l-0.2-0.3c-0.2,3.7,0.3,7.3,0.3,7.9l-1,0.1l-0.9-7.4C42.1,31.7,42,31.4,42,33
				c0,1.7-0.1,3.7,0.2,5.3c0.4,2.2,0.5,4.4,0.5,6.7c0,2.6,0.4,4.2,0.6,6.6c0.2,2.2,0,4.7,0.2,6.8c2.8,0.4,5.7-0.2,8.5-0.1V63H36.9
				C37,63,34.9,15.9,34.8,11.7z"/>
			<path fill="#D64541" d="M24,58.8c-0.2-1.2-0.8-3.1-0.8-4.3c0-1.5,0.5-0.8-0.3-2.5c-0.5-1.1,0-1.2-0.1-2.7c0,0-0.1,0-0.1,0
				c0,0-0.5,0.2-0.6-0.9c-0.1-0.5,0-0.9-0.3-1.6c-0.4-1.4-0.6-1.9-0.8-3.3c0,0-0.1,0.1-0.1,0.2l-0.4,1.5c-0.1,0.6-0.3,1.1-0.4,1.6
				c-0.3,1.1-0.2,0.7-0.3,1.5c-0.1,0.7-0.2,0.6-0.3,1.6c-0.5-1.2-0.5,0-0.8-2.3c-0.2-1.5-0.1-25.5,0-26.5l1.1,0.2
				c0.8,1.6,0.9,1.4,4.7,1.3c2.3,0,2.9-0.8,4-1.3l0.5-0.1c0.2,0.5,0.9,3.8,1,4.4c0,1.2-0.9,2.4-1,4.2c-0.1,4.4,2.3,0.6-0.1,8.5
				c-1.2,4-1.8,4.9-1.6,9.2c0,1.8,0.8,2.7,0.9,4.5c0.2,1.7,0.9,2.7,1.4,4.2c-0.9,0,0.3,0.8-0.4,1L24,58.8z"/>
			<path fill="#D64541" d="M24.4,55.3c0.3,0.7-0.4,0.7,0.3,1.1l1.4,0.3c0.1-0.9,0-0.9,1.1-1c0.7,0,1.2,0.3,1.6,0.6
				c0.8-2-0.6,0.5,0.1-1.2l0.4,0.9c0-2.3-0.1-0.8,0.6-1.4c0,1.9-0.2,2.3-1.7,2.9c-1.8,0.7-1.2,0.3-2,1.9c-1.5,0.3-5.9,0.3-7.4,0
				c-0.4-2.7-0.3-30.6-0.3-35.2c0-1.5-0.6-2.3,0-3.1c0,1,0.2,23,0.4,24.5c0.4,2.3,0.1,0.3,0.6,1.4c0-1-0.1-1,0.1-1.7
				c0.1-0.8,0.4,0.6,0.8-0.5c0.1-0.5,0.3-1,0.4-1.6l0.4-1.5c0-0.1,0-0.1,0.1-0.2c0.1,1.4,0.3,1.9,0.8,3.3c0.2,0.7,0.2,1.1,0.3,1.6
				c0.2,1.1,0.6,0.9,0.6,0.9c0,0,0.1,0,0.1,0c0.2,1.5-0.3,1.6,0.1,2.7c0.8,1.7,0.3,1,0.3,2.5C23.5,53.8,24.2,54.1,24.4,55.3z"/>
			<path fill="#D64541" d="M35.4,58.4c-0.3-3.2-0.8-3.6-0.9-5c-0.1-1.3-0.3-1.6-0.5-2.7c-0.2-1,0-1.9-0.2-2.9
				c-0.4-2.1,0.1-2.9,0.8-4.8c0.4-1.3,0.9-3.5,1.7-4.5c1.1,0.5,1.1,3.7,1.5,5.1c0.6,2.1-1.1,1.9-0.2,5.8c1.2,5-0.3,2.7,1.2,5.5
				C39.6,56.8,36.9,58,35.4,58.4z"/>
		</g>
	</g>
</g>
<g id="Layer_2">
	<g>
		<path fill-rule="evenodd" clip-rule="evenodd" fill="#E74C3C" d="M47.8,37.5L44.6,36c-0.3-0.2-0.4-0.2-0.7-0.4
			c-1.2-0.8,0.5,0.4-0.3-0.2c-0.4-0.3-0.3-0.2-0.4-0.4c-1.1-0.1-1.1-0.4-2.1-0.7c-0.6-0.7-1.7-1.1-2.5-1.6c-0.4-0.3-0.2-0.1-0.4-0.3
			c0,0-0.1-0.1-0.1-0.1c0-0.1-0.1-0.1-0.1-0.2c-0.5-0.1-0.2,0-0.5-0.2c0,0-0.1-0.1-0.1-0.1c0-0.1-0.1-0.1-0.1-0.1
			c-0.5-0.1-0.5,0-1.3-0.7l-0.2-0.3c-0.7-0.2-1.2-0.5-1.8-1l-1.5-1.3c-0.5-0.1-0.2,0-0.5-0.2c0,0-0.1-0.1-0.1-0.1
			c0-0.1-0.1-0.1-0.1-0.2c-0.5-0.1-0.2,0-0.5-0.2c0,0-0.1-0.1-0.1-0.1c0-0.1-0.1-0.1-0.1-0.2c-0.5-0.1-0.2,0-0.5-0.2
			c0,0-0.1-0.1-0.1-0.1c0-0.1-0.1-0.1-0.1-0.2c-1.7-0.4-2.5-1.7-5-2c0.3,1.9,0.9,10.7,1.8,11.5c1.6,1.4,7.1,3.1,9.7,3.7
			c7.3,1.9,15.8,3.3,23.7,2.6c0.4-0.5,0.9-1.6,0.8-2.5c-2.5,0-4.8-0.3-7.2-0.8C51.6,38.8,49.9,38,47.8,37.5 M36,32.9
			c0.3-0.4,0.5-0.5,1-0.7C40.2,33.1,36.3,36,36,32.9z M41.1,34.3c1.1,1.4,0.5,2.2-1.5,1.5C39.2,34.3,39.4,34.1,41.1,34.3z M44.6,36
			c0.5,0.4,0.2,0.2,0.3,0.5c0.5,0.2,0.1-0.5,0.5,0.5c-0.6,1.2-1.3,0.8-2.3,0.3C43,36.1,43.1,35.9,44.6,36z M47.8,37.5
			c0.3,0.4,0.2,0.4,0.3,0.6c0.3,0.3,0.3-0.7,0.3,0.8c-1.2,0.4-2.1,0.3-2-1.1C47.1,37.3,46.9,37.5,47.8,37.5z M51.6,39.7
			c-0.8,0.5-0.5,0.3-1.4,0.2c-0.1-0.1-1.1-0.8,0-1.2C51.2,38.3,51.5,38.9,51.6,39.7z M54.1,39.9c0,0.1,0.1,0.1,0.1,0.1
			c0,0.1,0,0.1,0,0.2c-0.1,0.6-0.3,0.6-0.9,0.5C51.4,40.3,53.5,38.4,54.1,39.9z M56.6,40.1l0.4,0.6c-1.1,0.4-1.4,0.4-1.7-0.6
			C56.2,39.7,56,39.8,56.6,40.1z M57.8,40.5c0.8-0.5,0.8-0.4,1.5-0.1c-0.2,0.4-0.2,0.8-0.8,0.8C57.7,41.2,57.8,40.5,57.8,40.5z"/>
		<path fill-rule="evenodd" clip-rule="evenodd" fill="#FFFFFF" d="M17.3,40c-0.1,0.5,0.1,0.3-0.5,0.5c-0.4,1.5-0.8,2.2,0.2,3.5
			c0.9,1.2,1.9,1.2,3,0.5c-0.1-1.1,0-1.1-0.6-1.7c-0.3,1.2,0.1,0.5-0.6,0.9c-0.9-0.4-1.1-0.7-1-1.8c0.6-0.5,1.1-0.8,2.2-0.7
			c2,0.2,1.8,1,1.8,1c1.6,0.7,1,1.8,2.5,2.4c1.7,0.7,2.1,0.6,3.6,0.1c-1.3,2.8-6.9-2.5-7.9,1l1,0.7c0-0.1,0.1,0.1,0.2,0.1
			c-2.6,0.5-2.1,1.1-4.4-0.6c-4.1-3.1-4.8-0.8-6.5-1.1c-1.4-0.3-5.3-2.2-5,2.2l0.4,0.1c0.1,0,0.1,0,0.2,0.1c0.1,0,0.1,0,0.2,0
			l0.6,0.1c0.1,0,0.1,0,0.2,0.1c0,0,0.1,0,0.2,0.1c-0.9,1.1-2,0.2-6,0.5v1.3c1.6-0.4,2.5-0.6,4.2-0.4c1.6,0.2,2.6,1,4,0.3
			c-0.5-1.1-0.6-0.2-1.1-1.3c0.9-0.8,1.6-0.1,3,0.1C10.6,45.7,9,47.8,8,46.2c0.6-0.7,1.4-0.7,2.6-0.5c0.9,0.1,2,0.4,2.5,1
			c0.9,0.2,0.8,0.2,1.1,1c3.2-0.6,4.7,1.5,7.2,0.8c1.6-0.4,0.8-0.9,0.6-1.4l1.2,0c-0.6-0.6-0.3-0.1-0.6-0.4c-0.5-0.5-0.4,0-0.6-0.7
			c2.4-0.9,2.6,1.1,4.5,1c1-0.1,0.7-0.2,1.2-0.8c0.9,0.8,0.9,0.9,2.4,1.3c6.6,1.7,6-0.6,9.2-1.4c-0.4,1.3-0.4,2.2,2.9,2.1
			c1.3-0.1,1.4-0.2,2.4-0.5c1.1-0.2,1.7,0.1,2.9-0.1c1.8-0.2,2.4-0.8,4.7-0.8c1.7,0,3.7,0.6,5.2,0c-1.3-1.1-2.4-0.1-4.1-0.3
			c-2.6-0.3-1.7-0.3-4.1,0.2c-2.3,0.4-2.3-0.6-4.4,0.5c-3.1,1.7-6.1,0.5-3.6-1.6c0.5-0.5,1.4-0.7,2-1.1c-1.6-1.2-3.8,0.5-4.9,0.8
			l-0.2,0.3c-0.8,0.7,0.7-0.4-0.3,0.2c-1.2,0.8-1.9,0.8-2.8,0.9c-1,0.1-1.1,1-3.6,0.4c-2.2-0.5-1.9-1-2-1.2
			c-0.4-0.1-0.3,0.1-0.6-0.1c0.6-0.5-0.2,0,0.7-0.5c0.6-0.3,1.2-0.3,1.8-0.4c0.1,0,2-1.3,2.3-0.2c0.2,0.6,0.4,1.5-0.1,1.8
			c-1.2,0.6-1.2-0.9-0.9-1.7c-1.2,0.3-1,0.3-1,1.6c2,0.7,1.3,1.3,3.5-0.2c0.3-4.8-5.6-2.9-8-1.2c0,0-0.1,0.1-0.2,0.1l-0.3,0.2
			c-1.3-1.8-1.1-3.1-3.2-4.4C20.6,38.4,19.7,39.6,17.3,40 M28,44.7c0.3-0.6-0.3,0,0.3-0.3c0.7-0.4-0.1-0.1,0.3,0.1
			C28.3,44.8,29.1,44.9,28,44.7z"/>
		<path fill-rule="evenodd" clip-rule="evenodd" fill="#E74C3C" d="M31.2,25.8c0.8,0.2,0.5,0.2,1.1,0.6c0.1,0.1,0.4,0.3,0.6,0.4
			c0.4,0.4,0.1,0.1,0.3,0.4c0.3,0.1,0.4,0.1,0.7,0.3c0.4,0.3,0.1,0.1,0.3,0.5c0.4,0.1,0.4,0.1,0.7,0.3c0.4,0.3,0.1,0.1,0.3,0.5
			c0.3,0.1,0.4,0.1,0.7,0.3c0.4,0.3,0.1,0.1,0.3,0.4c0.6,0.2,0.5,0.1,1,0.5c0.1,0.1,0.3,0.2,0.4,0.3c0.3,0.3,0.2,0.2,0.4,0.4
			c0.6,0.1,0.2-0.1,0.7,0.3c1.1,0.7,0,0,0.5,0.5c0.7,0.1,2.4,1.1,3,1.7l9,4c1.6,0.6,8.9,2.4,10.6,1.8c-0.5-0.5-2.5-0.3-4.9-0.8
			c-1.3-0.3-3.7-0.7-4.4-1.6c-1.6-0.1-4.8-2.4-6.3-3.4l-0.8-0.7c-1.5-0.4-3.2-2.5-4.5-3.2c0.9-2,0.4-4-0.5-5.4L38,23.8
			c0.5,0.7,2.1,2.3,2.9,2.7l-0.1,2c-0.1,0-0.2,0-0.2,0.1c0,0.1-0.1,0-0.2,0c-0.2,0-0.4-0.1-0.4-0.2c-0.2-0.2-0.1-0.1-0.4-0.3
			l-0.9-0.9c-0.2-0.2-0.1,0-0.4-0.4l-1.1-1.1c-0.2-0.3-0.2-0.1-0.3-0.4L36.6,25c-0.2-0.3-0.2,0-0.4-0.4c-0.4-0.5-0.1-0.1-0.3-0.6
			c-0.4-0.2-0.1,0-0.4-0.3c-0.2-0.2-0.2-0.2-0.4-0.4l-2.2-2.3c-0.3-0.1-0.4-0.1-0.6-0.3c-0.1,0-0.2-0.2-0.3-0.2
			c-0.4-0.4-0.1-0.1-0.3-0.4c-1-0.4-2.3-1.5-3.4-2c-1-0.5-3.1-1.2-4.5-1.2l0.9,5.4C25.3,22.7,30.3,24.2,31.2,25.8 M26.2,19.6
			c-1.3,0.5-1.6-0.5-1-1.5c0.6,0.8,0,0.3,0.2,1.3c1-0.3,0.4,0,0.8-0.4c0.2-0.2,0.1-0.2,0.2-0.4l0.2-0.4
			C26.6,19.3,26.8,18.8,26.2,19.6z"/>
		<path fill-rule="evenodd" clip-rule="evenodd" fill="#D64541" d="M26.7,43.8c2.2-1.3,7.6-3.3,8.6,0.5c5.8-0.3,4.1-0.7,6.1-0.8
			c1.9-0.2,1.6,0.5,2.7,0.6l15-0.4c1.4-0.1,0.7,0.3,1.2-0.5c0,0-0.1-0.1-0.2-0.1c0,0.1-0.1,0-0.2,0l-4.1,0.1
			c-8.4,0-22.8-2.7-29.2-6.6L26.7,43.8z"/>
		<path fill-rule="evenodd" clip-rule="evenodd" fill="#D64541" d="M43.1,27.8c0.5,0,0.9,0,1.3,0.1l1.3,0.3l0.2,2l2.6,0.1
			c0-1.6,0-3.2,0-4.7c0.1-2.8,0.4-3.3-1.4-3.4C42.9,22,43.2,24.3,43.1,27.8 M46.4,26.3c-0.9-0.6-0.2-0.3-0.9-1.2
			c0.6-0.5,0.6-0.2,0.7-1.2c-1,0.9-0.8,0.3-0.9,0.3c0-0.3,1-0.9,1.3,0c0,0.1,0.1,1.1-0.4,1.5l0.3,0.1c0.3,0.1,0.2,0,0.4,0.2
			C46.6,26.2,47.3,25.9,46.4,26.3z"/>
		<path fill-rule="evenodd" clip-rule="evenodd" fill="#D64541" d="M30.2,26.8c0.7,0.1-0.2-0.3,0.4,0.1c0.4,0.3,0.2,0.1,0.4,0.4
			c0.7,0.1-0.2-0.3,0.4,0.1c0.4,0.3,0.2,0.1,0.4,0.4c0.7,0.1-0.2-0.3,0.4,0.1c0.4,0.3,0.2,0.1,0.3,0.4c0.6,0.2,2.8,1.6,3.2,2.3
			c0.5,0.1,0.5,0.1,0.9,0.3c0.1,0,0.2,0.2,0.3,0.2c0.3,0.3,0.2,0.2,0.3,0.4c0.8,0.2-0.2-0.3,0.4,0.1c0.4,0.3,0.2,0.2,0.4,0.4
			c1,0.2,2.7,1.5,3.8,2.1c0.2,0.1,0.4,0.2,0.7,0.3l0.7,0.5c0.4,0,5.7,2.5,8.4,3.3c1.3,0.4,8.5,2.1,10,1.2c-6.3,0-10.2-1.7-15.2-3.9
			c-0.9-0.4-3.4-1.5-4.1-2.3c-0.9-0.1-0.7-0.2-1.5-0.7c-0.7-0.4-0.9-0.4-1.5-1c-0.6-0.1-0.2,0.1-0.8-0.2c-1-0.7,0,0.1-0.5-0.5
			c-0.6-0.1-0.5-0.1-1-0.5c-0.1-0.1-0.3-0.2-0.4-0.3c-0.3-0.3-0.1-0.1-0.3-0.4c-0.6-0.2,0.1,0.3-0.5-0.2c-0.7-0.5-0.3-0.2-0.4-0.5
			c-0.5-0.2,0.1,0.3-0.5-0.2c-0.6-0.4-0.3-0.3-0.4-0.6c-0.6-0.2,0.1,0.3-0.5-0.2c-0.6-0.4-0.3-0.3-0.4-0.6c-0.7-0.2-0.6-0.2-1.1-0.6
			c-0.1-0.1-0.5-0.4-0.6-0.4c-0.4-0.4-0.1-0.1-0.3-0.4c-1.6-0.4-3.7-2.6-6.4-2.9c0.3,2.7,1.4,0.9,4.7,3.3c0.2,0.2,0.1,0,0.3,0.2
			C30.2,26.7,30.1,26.6,30.2,26.8"/>
		<path fill-rule="evenodd" clip-rule="evenodd" fill="#E74C3C" d="M22.5,27.5l2.6,9.4l1-0.7l-1.1-11C24.1,25.6,23,26.7,22.5,27.5"
			/>
		<path fill-rule="evenodd" clip-rule="evenodd" fill="#E74C3C" d="M20.1,19.7c-0.7,3.2-1.8-0.4,0.6,6.1c0.6-0.6,0.6-0.8,1.1-1.4
			c0.5-0.5,0.9-0.9,1.3-1.2l-0.8-5.7l-1.6,1.6c0,0.1-0.2,0.2-0.2,0.3C20.2,19.8,20.4,19.6,20.1,19.7 M22.1,19.6
			c0.3,0.4,0.3,0.3,0.3,1c-1.4,0.8-2.1-0.1-1-1.4C22.6,19.3,21.8,19.2,22.1,19.6z"/>
		<path fill-rule="evenodd" clip-rule="evenodd" fill="#F8F8F8" d="M45.4,32.5c0.9-0.3,0.2,0.1,0.7-0.9c1-0.2,4.4-0.5,5.4-0.2
			c0,1.4-0.3,3.8,0.3,4.8c0.5-0.8,0.3-4.4,0.2-5.6l-6.4,0.2l-0.3-2.4l-2.5,0.5l0,1.8l2.2,1.5C45.4,32.4,45.2,32.2,45.4,32.5
			 M43.3,28.5l2.1,0.3l-0.1,1.5l-1.9,0.2L43.3,28.5z"/>
		<path fill-rule="evenodd" clip-rule="evenodd" fill="#FBFBFB" d="M20,44.5l0.1,0.4c1.1-0.9,1.2-0.8,3-0.7c-0.3-0.7-0.1-0.4-0.6-1
			c-0.4-0.5-0.4-0.3-0.8-1C21,42,20.1,41.4,19,41.6c-1.2,0.2-1.4,1-0.2,1.6l0-0.5c-0.1-0.4-0.1,0.1,0-0.5C20,42.5,20.7,43.3,20,44.5
			"/>
		<path fill-rule="evenodd" clip-rule="evenodd" fill="#F8F8F8" d="M52.7,36.5c1.2,0.6,5.9,2.2,7.1,1.4c-0.9,0-2.5-0.4-3.2-1
			c-0.8-0.1-1-0.2-1.7-0.6c-0.2-0.1-0.6-0.3-0.8-0.5c-0.5-0.3-0.4-0.4-0.5-0.5c-0.4-0.1-0.2,0-0.5-0.2c0,0-0.1-0.1-0.1-0.1
			c0-0.1-0.1-0.1-0.1-0.2c-0.7,0.3-0.4,0.2-0.5,1.3C52.5,36.4,52.3,36.5,52.7,36.5"/>
		<path fill-rule="evenodd" clip-rule="evenodd" fill="#F8F8F8" d="M46.4,32.5c0.9,0,1.5,0.2,2.2,0.2c0.7,0,1.5-0.2,2.4-0.2l0.1-1
			l-4.7,0.3L46.4,32.5z"/>
		<path fill-rule="evenodd" clip-rule="evenodd" fill="#F2F2F2" d="M34.9,45.5c-2.2,1.5-1.5,0.9-3.5,0.2c0,0.1,0.3,0.7,0.3,0.8
			l-2.5-1c0.1,0.3-0.2,0.8,2,1.2c2.5,0.6,2.7-0.3,3.6-0.4c0.9-0.1,1.6,0,2.8-0.9c1-0.6-0.6,0.5,0.3-0.2l0.2-0.3
			c-1.2,0.1-1.4,0.8-3,1C34.9,45.7,34.8,46.4,34.9,45.5"/>
		<path fill-rule="evenodd" clip-rule="evenodd" fill="#F2F2F2" d="M29.2,45.4c0.7-0.6,0.6-0.7,1.7-0.7c0,0,0.2,0.4,0.2,0.4
			c0.2,0.3,0.3,0.4,0.3,0.5c0-1.2-0.2-1.3,1-1.6c-0.3,0.8-0.3,2.4,0.9,1.7c0.5-0.3,0.3-1.1,0.1-1.8c-0.3-1.1-2.3,0.2-2.3,0.2
			c-0.5,0.2-1.2,0.1-1.8,0.4c-1,0.5-0.2,0.1-0.7,0.5C28.9,45.6,28.8,45.3,29.2,45.4 M32.5,44.8c1,0.1,0.6,0,0.9,0.7
			C32.3,45.3,32.9,45.6,32.5,44.8z"/>
		<path fill-rule="evenodd" clip-rule="evenodd" fill="#D64541" d="M22.3,26.9c0.9-0.5,1.4-1.4,2.5-2.1l-0.3-1.7
			C23.5,24.1,21.8,25.2,22.3,26.9"/>
		<polygon fill-rule="evenodd" clip-rule="evenodd" fill="#F8F8F8" points="43.4,30.5 45.3,30.3 45.4,28.8 43.3,28.5 		"/>
		<path fill-rule="evenodd" clip-rule="evenodd" fill="#F8F8F8" d="M48.2,34.1c0.8,0.7,1.8,1.4,3,1.8L51.1,34L48.2,34.1z"/>
		<path fill-rule="evenodd" clip-rule="evenodd" fill="#D64541" d="M25.1,37.6c0.2,0.5,0.3,1.4,0.5,2.1l0.7,2.2l-0.1-5.1
			C25.6,37,25.5,37.1,25.1,37.6"/>
		<path fill-rule="evenodd" clip-rule="evenodd" fill="#F8F8F8" d="M34.9,45.5c-0.1,1-0.1,0.2,0.2,0.5c1.5-0.3,1.8-0.9,3-1
			c0.1-0.5-0.4-0.4,0.1-0.4c-2.8,0.2-2.4-0.1-3.2,0.8C35,45.3,35,45.4,34.9,45.5"/>
		<path fill-rule="evenodd" clip-rule="evenodd" fill="#F1C40F" d="M29.2,45.4l2.5,1c0-0.1-0.2-0.7-0.3-0.8
			c-0.1-0.1-0.1-0.1-0.3-0.5c0-0.1-0.2-0.4-0.2-0.4C29.8,44.8,29.9,44.8,29.2,45.4"/>
		<path fill-rule="evenodd" clip-rule="evenodd" fill="#F2F2F2" d="M36,32.9c0.4,3.1,4.2,0.1,1-0.7C36.4,32.4,36.2,32.5,36,32.9
			 M36.5,33.7c-0.1-1.6,1.1-1.6,1.4-0.2C37.2,33.9,37.5,33.9,36.5,33.7z"/>
		<path fill-rule="evenodd" clip-rule="evenodd" fill="#F2F2F2" d="M41.1,34.3c1,0.3,1,0.6,2.1,0.7l-0.7-0.5
			c-0.3-0.1-0.4-0.2-0.7-0.3c-1.2-0.6-2.9-1.9-3.8-2.1c0,0.1,0.1,0.1,0.1,0.2c0,0.1,0.1,0.1,0.1,0.1c0.2,0.2,0,0.1,0.4,0.3
			C39.4,33.2,40.5,33.6,41.1,34.3"/>
		<path fill-rule="evenodd" clip-rule="evenodd" fill="#F2F2F2" d="M41.1,34.3c-1.6-0.2-1.9,0.1-1.5,1.5
			C41.6,36.5,42.1,35.7,41.1,34.3 M41.4,35.2c-0.7,0.7-1.4,0.8-1.5-0.5C40.8,34.3,41,34.7,41.4,35.2z"/>
		<path fill-rule="evenodd" clip-rule="evenodd" fill="#F8F8F8" d="M45.2,24.1c0.1,0-0.1,0.6,0.9-0.3c0,1,0,0.8-0.7,1.2
			c0.7,0.9,0,0.7,0.9,1.2c0.9-0.3,0.2,0,0.5-0.5c-0.2-0.1-0.1-0.1-0.4-0.2l-0.3-0.1c0.5-0.4,0.4-1.4,0.4-1.5
			C46.2,23.1,45.3,23.8,45.2,24.1"/>
		<path fill-rule="evenodd" clip-rule="evenodd" fill="#F2F2F2" d="M44.9,36.5c-0.2-0.3,0.2,0-0.3-0.5c-1.5-0.1-1.5,0.1-1.4,1.3
			c0.9,0.5,1.6,0.9,2.3-0.3C45,35.9,45.4,36.7,44.9,36.5 M44.9,36.5l-0.2,0.9c-0.9,0.2-1,0.1-1.3-0.6C44,36,43.8,36.2,44.9,36.5"/>
		<path fill-rule="evenodd" clip-rule="evenodd" fill="#FAFAFA" d="M36,23.4c0.4-0.2,0.8,0.4,0.5-2.2l-0.2-0.8
			C35.6,21,35.6,22.8,36,23.4"/>
		<path fill-rule="evenodd" clip-rule="evenodd" fill="#F2F2F2" d="M48.1,38c-0.1-0.2,0-0.2-0.3-0.6c-0.9,0-0.7-0.2-1.4,0.3
			c-0.1,1.4,0.8,1.5,2,1.1C48.4,37.3,48.4,38.3,48.1,38 M48.1,38c0,0.6-0.1,0.6-0.6,0.6c-1.1-0.1-0.6-0.2-0.8-0.7L48.1,38z"/>
		<path fill-rule="evenodd" clip-rule="evenodd" fill="#F2F2F2" d="M54.1,39.9c-0.6-1.5-2.7,0.4-0.8,0.8c0.6,0.1,0.8,0.1,0.9-0.5
			c0,0,0-0.1,0-0.2C54.2,40,54.1,39.9,54.1,39.9 M54.1,39.9l-0.3,0.5l-1-0.3L54.1,39.9z"/>
		<path fill-rule="evenodd" clip-rule="evenodd" fill="#F2F2F2" d="M50.1,39.9c0.9,0.1,0.7,0.3,1.4-0.2c0-0.8-0.3-1.4-1.5-1
			C49,39.1,50.1,39.8,50.1,39.9 M50.1,39.2c0.2-0.1-0.2-0.6,1.2,0c-0.1,0.1,0.2,0.5-0.7,0.4C50.1,39.5,50.1,39.2,50.1,39.2z"/>
		<path fill-rule="evenodd" clip-rule="evenodd" fill="#F1C40F" d="M36.5,33.7c1.1,0.2,0.7,0.2,1.4-0.2
			C37.6,32.1,36.4,32.1,36.5,33.7"/>
		<path fill-rule="evenodd" clip-rule="evenodd" fill="#F2F2F2" d="M22.1,19.6c-0.3-0.3,0.5-0.2-0.7-0.3c-1.1,1.3-0.4,2.1,1,1.4
			C22.4,19.8,22.4,20,22.1,19.6 M22.1,19.6c-0.1,1,0,0.8-0.7,1C21,19.7,21.2,19.6,22.1,19.6"/>
		<path fill-rule="evenodd" clip-rule="evenodd" fill="#F1C40F" d="M39.9,34.7c0.1,1.3,0.8,1.2,1.5,0.5C41,34.7,40.8,34.3,39.9,34.7
			"/>
		<path fill-rule="evenodd" clip-rule="evenodd" fill="#F1C40F" d="M44.9,36.5c-1.1-0.2-0.9-0.4-1.5,0.3c0.3,0.7,0.4,0.8,1.3,0.6
			L44.9,36.5z"/>
		<path fill-rule="evenodd" clip-rule="evenodd" fill="#F2F2F2" d="M59.3,40.4c-0.7-0.3-0.7-0.5-1.5,0.1c0,0-0.1,0.8,0.8,0.7
			C59.1,41.1,59.1,40.8,59.3,40.4"/>
		<path fill-rule="evenodd" clip-rule="evenodd" fill="#F2F2F2" d="M25.1,20c0.6-0.8,0.4-0.3,0.3-1.4l-0.2,0.4
			c-0.1,0.2,0,0.2-0.2,0.4c-0.4,0.4,0.3,0.1-0.8,0.4c-0.2-1,0.4-0.5-0.2-1.3C23.5,19.6,23.8,20.5,25.1,20"/>
		<path fill-rule="evenodd" clip-rule="evenodd" fill="#F2F2F2" d="M35.7,30.5c-0.4-0.6-2.6-2.1-3.2-2.3l1.5,1.3
			C34.5,30,34.9,30.4,35.7,30.5"/>
		<path fill-rule="evenodd" clip-rule="evenodd" fill="#F2F2F2" d="M42.1,33.2c-0.6-0.7-2.3-1.6-3-1.7c0.5,0.6,0.8,0.6,1.5,1
			C41.5,33,41.3,33.1,42.1,33.2"/>
		<path fill-rule="evenodd" clip-rule="evenodd" fill="#FDFDFD" d="M27.1,15.3l-0.7,0c0,1.3-0.3,1.1,0.5,1.6
			C27.2,16.2,27.1,16.1,27.1,15.3"/>
		<path fill-rule="evenodd" clip-rule="evenodd" fill="#F2F2F2" d="M56.6,40.1c-0.7-0.3-0.5-0.5-1.3,0.1c0.2,0.9,0.6,0.9,1.7,0.6
			L56.6,40.1z M56.6,40.1c-0.4,0.8-0.2,0.9-0.9,0L56.6,40.1z"/>
		<path fill-rule="evenodd" clip-rule="evenodd" fill="#EBEBEB" d="M27.8,17.6c0.4-0.5,0.2,0.5,0.3-0.8c0.1-0.6-0.1-0.7-0.2-1
			c-0.5,0.3-0.5-0.3-0.5,0.7L27.8,17.6z"/>
		<path fill-rule="evenodd" clip-rule="evenodd" fill="#EBEBEB" d="M28.8,18c0,0,0.4,0.4,0.3-0.8c-0.1-1,0-0.4-0.5-0.7
			C28.3,17.6,28.3,17.5,28.8,18"/>
		<path fill-rule="evenodd" clip-rule="evenodd" fill="#F1C40F" d="M48.1,38l-1.4-0.1c0.2,0.5-0.3,0.6,0.8,0.7
			C48,38.7,48.1,38.6,48.1,38"/>
		<path fill-rule="evenodd" clip-rule="evenodd" fill="#F2F2F2" d="M24.5,16c0.1-0.1,0.6,0.5,0.5-0.7c-0.2-1,0.1-0.2-0.6-0.5
			c-0.2,0.4-0.3-0.6-0.1,0.7C24.3,15.7,24.4,15.8,24.5,16"/>
		<path fill-rule="evenodd" clip-rule="evenodd" fill="#E8E8E8" d="M44.4,44.7c-0.7,1.3-0.1,0.9-1.4,1.6c0.9,0.2,1.2-0.3,1.7-0.8
			c0-0.1,0-0.2,0-0.2L44.4,44.7z"/>
		<path fill-rule="evenodd" clip-rule="evenodd" fill="#E4E4E4" d="M52.6,33.3c0.3-0.1,0.8,0.1,0.6-1.2c-0.4,0-0.5-0.1-0.7,0.2
			C52.1,33.2,52.6,33.3,52.6,33.3"/>
		<path fill-rule="evenodd" clip-rule="evenodd" fill="#F8F8F8" d="M59.8,38l-0.3-0.2c-0.1,0-0.3-0.1-0.4-0.1L56.6,37
			C57.3,37.6,58.9,37.9,59.8,38"/>
		<path fill-rule="evenodd" clip-rule="evenodd" fill="#FAFAFA" d="M25.8,16.3c0,0,0.2-0.1,0.2-0.6c-0.1-0.6-0.1-0.4-0.4-0.7
			c0,0-0.5-0.4-0.3,0.8C25.5,16.6,25.2,16,25.8,16.3"/>
		<path fill-rule="evenodd" clip-rule="evenodd" fill="#F2F2F2" d="M33.2,27.3c-0.2-0.4,0.1-0.1-0.3-0.4c-0.1-0.1-0.5-0.3-0.6-0.4
			c-0.6-0.5-0.4-0.4-1.1-0.6c0.2,0.3,0,0.1,0.3,0.4c0,0,0.5,0.4,0.6,0.4C32.6,27,32.5,27,33.2,27.3"/>
		<path fill-rule="evenodd" clip-rule="evenodd" fill="#F0F1F2" d="M30.1,18.8c0-0.7-0.1-1.1-0.3-1.5c0,0-0.4-0.1-0.4,0.7
			C29.4,18.5,29.7,18.5,30.1,18.8"/>
		<path fill-rule="evenodd" clip-rule="evenodd" fill="#F8F8F8" d="M56.6,37l-3-1.5c0.1,0.2,0,0.2,0.5,0.5c0.2,0.1,0.5,0.3,0.8,0.5
			C55.6,36.8,55.8,36.9,56.6,37"/>
		<path fill-rule="evenodd" clip-rule="evenodd" fill="#F8F8F8" d="M22.1,19.6c-0.9,0.1-1.1,0.2-0.7,1C22.1,20.3,22,20.6,22.1,19.6"
			/>
		<path fill-rule="evenodd" clip-rule="evenodd" fill="#F1C40F" d="M50.1,39.2c0,0,0,0.3,0.6,0.4c0.8,0.1,0.6-0.3,0.7-0.4
			C49.9,38.6,50.3,39.1,50.1,39.2"/>
		<path fill-rule="evenodd" clip-rule="evenodd" fill="#F8F8F8" d="M19.9,18c0.2-0.2,0.5-0.4,0.6-0.6c0.2-0.8-0.4-0.6-0.4-0.7
			C19.7,17.4,19.6,17.3,19.9,18"/>
		<path fill-rule="evenodd" clip-rule="evenodd" fill="#F2F2F2" d="M37.9,30.8c-0.1-0.2,0-0.1-0.4-0.4c-0.1-0.1-0.3-0.2-0.4-0.3
			c-0.5-0.4-0.4-0.3-1-0.5c0.2,0.3,0,0.1,0.3,0.4c0.1,0.1,0.3,0.2,0.4,0.3C37.4,30.7,37.3,30.6,37.9,30.8"/>
		<path fill-rule="evenodd" clip-rule="evenodd" fill="#E8E8E8" d="M31.1,18.5l-0.6-0.1c0,1,0,0.8,0.7,1.3L31.1,18.5z"/>
		<path fill-rule="evenodd" clip-rule="evenodd" fill="#F6F6F6" d="M52.8,45.2l2.4-0.3C54.3,44.6,53.3,44.5,52.8,45.2"/>
		<path fill-rule="evenodd" clip-rule="evenodd" fill="#F0F1F2" d="M19.4,19.2l0,0.9l0.7-0.4l-0.1-0.6c-0.1,0-0.2-0.1-0.2,0
			L19.4,19.2z"/>
		<path fill-rule="evenodd" clip-rule="evenodd" fill="#F6F6F6" d="M18.9,21.4c0.5-0.7,0.5-0.6,0.1-1.3
			C18.6,20.7,18.5,20.7,18.9,21.4"/>
		<path fill-rule="evenodd" clip-rule="evenodd" fill="#F2F2F2" d="M37.2,31.5c-0.1-0.2,0-0.2-0.3-0.4c0,0-0.2-0.2-0.3-0.2
			c-0.4-0.3-0.4-0.2-0.9-0.3l0.2,0.3C36.6,31.5,36.7,31.4,37.2,31.5"/>
		<path fill-rule="evenodd" clip-rule="evenodd" fill="#F7F7F7" d="M21.4,18.1c0.3-0.7,0.5-0.3,0-1c0,0-0.4,0.1-0.4,0.5
			C21,18.4,21.2,17.9,21.4,18.1"/>
		<path fill-rule="evenodd" clip-rule="evenodd" fill="#EBEBEB" d="M25.8,17.5c0-0.1,0.8,0.1-0.2-1c-0.1,0.1-0.4-0.3-0.2,0.4
			C25.5,17.7,25.3,17.2,25.8,17.5"/>
		<path fill-rule="evenodd" clip-rule="evenodd" fill="#F5F5F5" d="M20.9,17c0.4-0.6,0.4-0.6,0-1.2c-0.3,0.6-0.2-0.1-0.2,0.5
			C20.6,17.5,20.7,16.7,20.9,17"/>
		<path fill-rule="evenodd" clip-rule="evenodd" fill="#E5E6E7" d="M23.5,15.7c0.2-0.3,0.6-0.2,0.1-1.1c-0.3,0.3-0.2-0.5-0.3,0.5
			C23.2,16.2,23.2,15.3,23.5,15.7"/>
		<path fill-rule="evenodd" clip-rule="evenodd" fill="#F7F7F7" d="M20.4,19c0.8-0.6,0.5-0.5,0.2-1C20.5,18.1,19.8,18,20.4,19"/>
		<path fill-rule="evenodd" clip-rule="evenodd" fill="#EFEFEF" d="M26.8,17.9c0.1-0.1,0.4,0.4,0.2-0.4c-0.1-0.5,0.2-0.1-0.4-0.5
			c-0.2,0.3-0.4-0.5-0.1,0.4C26.6,17.9,26.4,17.6,26.8,17.9"/>
		<path fill-rule="evenodd" clip-rule="evenodd" fill="#F0F1F2" d="M22,16c0-0.7,0-0.5-0.3-1C21.2,16,21.1,15.7,22,16"/>
		<path fill-rule="evenodd" clip-rule="evenodd" fill="#F2F2F2" d="M39.1,31.5c-0.4-0.5,0.6,0.2-0.5-0.5c-0.5-0.3-0.2-0.1-0.7-0.3
			c0.4,0.6-0.6-0.2,0.5,0.5C38.9,31.6,38.6,31.4,39.1,31.5"/>
		<path fill-rule="evenodd" clip-rule="evenodd" fill="#FDFDFD" d="M24.5,17.3c0.5-0.4,0.4,0.3,0.4-0.5c0-0.6,0-0.1-0.3-0.5
			C24.5,16.4,24,16.2,24.5,17.3"/>
		<path fill-rule="evenodd" clip-rule="evenodd" fill="#F7F7F7" d="M19.4,19.2l0.1-1.2c0,0-0.1-0.1-0.1-0.2
			C18.7,18.7,18.8,18.5,19.4,19.2"/>
		<path fill-rule="evenodd" clip-rule="evenodd" fill="#F1C40F" d="M32.5,44.8c0.3,0.8-0.2,0.6,0.9,0.7
			C33.1,44.7,33.6,44.9,32.5,44.8"/>
		<path fill-rule="evenodd" clip-rule="evenodd" fill="#F6F6F6" d="M22.9,16.9c0.1-0.3,0.4,0.5,0.1-0.5c-0.2-1-0.2-0.3-0.4-0.6
			C22.3,16.7,22.7,16.7,22.9,16.9"/>
		<path fill-rule="evenodd" clip-rule="evenodd" fill="#F2F2F2" d="M29,19.2c0-0.8,0-0.6-0.6-1C28.5,19.2,28.2,18.8,29,19.2"/>
		<path fill-rule="evenodd" clip-rule="evenodd" fill="#E5E6E7" d="M30.6,20.5c1,0.2,0.2,0.1,0.5-0.3c-0.4-0.5-0.1-0.3-0.7-0.5
			C30.5,20.2,30.5,20.2,30.6,20.5"/>
		<path fill-rule="evenodd" clip-rule="evenodd" fill="#F4F4F4" d="M22.2,17.3c0-0.2,0.5-0.3-0.4-1C21.7,17,21.7,16.9,22.2,17.3"/>
		<path fill-rule="evenodd" clip-rule="evenodd" fill="#F7F7F7" d="M22.6,15.6c0.3-0.5,0.2-0.5,0-0.8c-0.5,0.3-0.4-0.2-0.4,0.3
			C22.2,15.8,22.4,15.4,22.6,15.6"/>
		<path fill-rule="evenodd" clip-rule="evenodd" fill="#F6F6F6" d="M30.1,19.8c-0.2-0.8,0.1-0.5-0.7-0.9
			C29.6,19.7,29,19.3,30.1,19.8"/>
		<path fill-rule="evenodd" clip-rule="evenodd" fill="#E1E1E1" d="M27.8,17.6c-0.5,0.2-0.2-0.2-0.3,0.4c0.3,0.5,0,0.3,0.7,0.5
			L27.8,17.6z"/>
		<path fill-rule="evenodd" clip-rule="evenodd" fill="#F8F8F8" d="M23.6,17c0.2-0.2,0.7,0,0.1-1C23.2,16.8,23.4,16.7,23.6,17"/>
		<path fill-rule="evenodd" clip-rule="evenodd" fill="#F1C40F" d="M56.6,40.1l-0.9,0C56.4,41.1,56.2,40.9,56.6,40.1"/>
		<path fill-rule="evenodd" clip-rule="evenodd" fill="#F2F2F2" d="M36.2,29.5c-0.2-0.3,0.1-0.1-0.3-0.4c-0.3-0.2-0.4-0.2-0.7-0.3
			c0.2,0.3-0.2,0.1,0.4,0.5C36.3,29.8,35.6,29.4,36.2,29.5"/>
		<path fill-rule="evenodd" clip-rule="evenodd" fill="#EFEFEF" d="M36.4,25.2c0.2-0.3,0.5,0.5,0.1-0.8
			C36.6,24.5,35.8,24.2,36.4,25.2"/>
		<path fill-rule="evenodd" clip-rule="evenodd" fill="#F2F2F2" d="M34.2,28c-0.2-0.3,0.1-0.2-0.3-0.5c-0.3-0.2-0.3-0.2-0.7-0.3
			c0.2,0.3-0.1,0.1,0.4,0.6C34.3,28.3,33.6,27.8,34.2,28"/>
		<path fill-rule="evenodd" clip-rule="evenodd" fill="#F2F2F2" d="M35.2,28.8c-0.2-0.3,0.1-0.2-0.3-0.5c-0.3-0.2-0.3-0.2-0.7-0.3
			c0.2,0.3-0.1,0.1,0.4,0.6C35.3,29.1,34.6,28.6,35.2,28.8"/>
		<path fill-rule="evenodd" clip-rule="evenodd" fill="#ECEEEE" d="M33.1,20.7l-0.7-0.3l0.4,0.9C33,21.1,32.9,21.2,33.1,20.7"/>
		<polygon fill-rule="evenodd" clip-rule="evenodd" fill="#F1C40F" points="54.1,39.9 52.9,40.1 53.8,40.4 		"/>
		<path fill-rule="evenodd" clip-rule="evenodd" fill="#F2F2F2" d="M31.8,20.5c0.5-0.9,0.4-0.6-0.2-1.1L31.8,20.5z"/>
		<path fill-rule="evenodd" clip-rule="evenodd" fill="#B9B9B9" d="M62.1,38c1.1,0.6,0.5,0,0.7-0.2C62.2,37.7,62.6,37.4,62.1,38"/>
		<path fill-rule="evenodd" clip-rule="evenodd" fill="#E3E3E3" d="M33.6,22.2l0.1-0.8C33.6,21.4,32.7,21.5,33.6,22.2"/>
		<polygon fill-rule="evenodd" clip-rule="evenodd" fill="#C3C3C3" points="31.8,21.5 32.2,20.8 31.8,20.5 		"/>
		<path fill-rule="evenodd" clip-rule="evenodd" fill="#EFEFEF" d="M34.8,23.2c0,0.2,0.6,0.7,0.4,0.1C35,23,34.7,22.6,34.8,23.2"/>
		<path fill-rule="evenodd" clip-rule="evenodd" fill="#F3F3F3" d="M35.5,24c0,0.3,0.5,0.7,0.3,0.1C35.8,23.7,35.5,23.4,35.5,24"/>
		<path fill-rule="evenodd" clip-rule="evenodd" fill="#F2F2F2" d="M28,44.7c1.2,0.2,0.3,0.1,0.6-0.2c-0.4-0.2,0.4-0.5-0.3-0.1
			C27.6,44.7,28.3,44,28,44.7"/>
		<path fill-rule="evenodd" clip-rule="evenodd" fill="#EFEFEF" d="M34.8,24.5c0.6-0.2,0.5,0.4,0.3-0.6C34.5,24.4,35,23.7,34.8,24.5
			"/>
		<path fill-rule="evenodd" clip-rule="evenodd" fill="#E4E4E4" d="M34,22.5c0.1,0.5,0.5,0.4,0.3,0.1C34.3,22.3,34,21.9,34,22.5"/>
		<path fill-rule="evenodd" clip-rule="evenodd" fill="#F2F2F2" d="M32.5,28.3c-0.2-0.2,0-0.1-0.3-0.4c-0.6-0.4,0.3,0-0.4-0.1
			c0,0.1,0.1,0.1,0.1,0.2c0,0.1,0.1,0.1,0.1,0.1C32.3,28.3,32,28.2,32.5,28.3"/>
		<path fill-rule="evenodd" clip-rule="evenodd" fill="#F2F2F2" d="M31.7,27.8c-0.2-0.2,0-0.1-0.4-0.4c-0.6-0.4,0.3,0-0.4-0.1
			c0,0.1,0.1,0.1,0.1,0.2c0,0.1,0.1,0.1,0.1,0.1C31.5,27.8,31.2,27.7,31.7,27.8"/>
		<path fill-rule="evenodd" clip-rule="evenodd" fill="#F2F2F2" d="M31,27.3c-0.2-0.2,0-0.1-0.4-0.4c-0.6-0.4,0.3,0-0.4-0.1
			c0,0,0.1,0.1,0.1,0.2c0,0.1,0.1,0.1,0.1,0.1C30.8,27.3,30.5,27.2,31,27.3"/>
		<path fill-rule="evenodd" clip-rule="evenodd" fill="#F2F2F2" d="M37.9,32c-0.1-0.2,0-0.1-0.4-0.4c-0.6-0.4,0.4,0.1-0.4-0.1
			c0,0,0.1,0.1,0.1,0.1c0,0.1,0.1,0.1,0.1,0.1C37.7,32,37.4,31.9,37.9,32"/>
		<path fill-rule="evenodd" clip-rule="evenodd" fill="#F8F8F8" d="M53.6,35.5c0,0-0.1-0.2-0.1-0.1c0,0-0.1-0.1-0.1-0.1
			c-0.4-0.2,0-0.1-0.5-0.2c0,0,0.1,0.1,0.1,0.2c0,0.1,0.1,0.1,0.1,0.1C53.4,35.5,53.1,35.4,53.6,35.5"/>
		<path fill-rule="evenodd" clip-rule="evenodd" fill="#F2F2F2" d="M16.8,40.5c0.6-0.2,0.4,0,0.5-0.5L16.8,40.5z"/>
		<path fill-rule="evenodd" clip-rule="evenodd" fill="#EBEBEB" d="M18.1,20"/>
	</g>
</g>
</svg>
