<?xml version="1.0" encoding="utf-8"?>
<!-- Generator: Adobe Illustrator 18.1.0, SVG Export Plug-In . SVG Version: 6.00 Build 0)  -->
<!DOCTYPE svg PUBLIC "-//W3C//DTD SVG 1.1//EN" "http://www.w3.org/Graphics/SVG/1.1/DTD/svg11.dtd" [
	<!ENTITY ns_extend "http://ns.adobe.com/Extensibility/1.0/">
	<!ENTITY ns_ai "http://ns.adobe.com/AdobeIllustrator/10.0/">
	<!ENTITY ns_graphs "http://ns.adobe.com/Graphs/1.0/">
	<!ENTITY ns_vars "http://ns.adobe.com/Variables/1.0/">
	<!ENTITY ns_imrep "http://ns.adobe.com/ImageReplacement/1.0/">
	<!ENTITY ns_sfw "http://ns.adobe.com/SaveForWeb/1.0/">
	<!ENTITY ns_custom "http://ns.adobe.com/GenericCustomNamespace/1.0/">
	<!ENTITY ns_adobe_xpath "http://ns.adobe.com/XPath/1.0/">
]>
<svg version="1.1" xmlns:x="&ns_extend;" xmlns:i="&ns_ai;" xmlns:graph="&ns_graphs;"
	 xmlns="http://www.w3.org/2000/svg" xmlns:xlink="http://www.w3.org/1999/xlink" x="0px" y="0px" viewBox="0 0 705 210"
	 enable-background="new 0 0 705 210" xml:space="preserve">
<metadata>
	<sfw  xmlns="&ns_sfw;">
		<slices></slices>
		<sliceSourceBounds  height="206.5" width="701.9" y="1.5" x="1" bottomLeftOrigin="true"></sliceSourceBounds>
	</sfw>
</metadata>
<g id="Layer_1" display="none">
	<g display="inline">
		<g>
			<rect x="534" y="75" display="none" fill="#FFFFFF" width="83" height="111"/>
			<g>
				<path fill="#FFFFFF" d="M628.4,68.4c0-3-2.4-5.4-5.4-5.4h-92.6c-3,0-5.4,2.4-5.4,5.4v123.4c0,3,2.4,5.4,5.4,5.4H623
					c3,0,5.4-2.4,5.4-5.4V68.4z M617.7,185.7h-82.5v-111h82.5V185.7z"/>
				<defs>
					<filter id="Adobe_OpacityMaskFilter" filterUnits="userSpaceOnUse" x="518.4" y="196.9" width="115.6" height="11.6">
						<feColorMatrix  type="matrix" values="1 0 0 0 0  0 1 0 0 0  0 0 1 0 0  0 0 0 1 0"/>
					</filter>
				</defs>
				<mask maskUnits="userSpaceOnUse" x="518.4" y="196.9" width="115.6" height="11.6" id="SVGID_1_">
					<g filter="url(#Adobe_OpacityMaskFilter)">
						
							<radialGradient id="SVGID_2_" cx="576.2" cy="-38.7346" r="57.8421" gradientTransform="matrix(1 0 0 -0.1002 0 198.8188)" gradientUnits="userSpaceOnUse">
							<stop  offset="0" style="stop-color:#FFFFFF"/>
							<stop  offset="1" style="stop-color:#14130A"/>
						</radialGradient>
						<path fill="url(#SVGID_2_)" d="M634,202.7c0,3.2-25.9,5.8-57.8,5.8c-31.9,0-57.8-2.6-57.8-5.8s25.9-5.8,57.8-5.8
							C608.2,196.9,634,199.5,634,202.7z"/>
					</g>
				</mask>
				
					<linearGradient id="SVGID_3_" gradientUnits="userSpaceOnUse" x1="576.2166" y1="1.5168" x2="576.1838" y2="12.9888" gradientTransform="matrix(1 0 0 -1 0 210)">
					<stop  offset="0" style="stop-color:#4D4848"/>
					<stop  offset="0.3539" style="stop-color:#14130A"/>
					<stop  offset="1" style="stop-color:#14130A"/>
				</linearGradient>
				<path display="none" opacity="0.33" mask="url(#SVGID_1_)" fill="url(#SVGID_3_)" enable-background="new    " d="M634,202.7
					c0,3.2-25.9,5.8-57.8,5.8c-31.9,0-57.8-2.6-57.8-5.8s25.9-5.8,57.8-5.8C608.2,196.9,634,199.5,634,202.7z"/>
				
					<linearGradient id="SVGID_4_" gradientUnits="userSpaceOnUse" x1="531.7" y1="80.45" x2="628.5443" y2="80.45" gradientTransform="matrix(1 0 0 -1 0 210)">
					<stop  offset="0" style="stop-color:#FFFFFF;stop-opacity:0"/>
					<stop  offset="1" style="stop-color:#FFFFFF"/>
				</linearGradient>
				<path display="none" opacity="0.6" fill="url(#SVGID_4_)" enable-background="new    " d="M593.4,62.5h30c0,0,5.7,0.1,5.1,7.7
					l-0.2,121.3c0,0,0.3,4.5-5.5,5.1c-6.1-0.3-91.1,0-91.1,0"/>
			</g>
			<g>
				<rect x="535" y="83" fill="#C0392B" width="82" height="39"/>
				<g display="none">
					<ellipse display="inline" fill="#FFFFFF" cx="551.5" cy="100.5" rx="11.4" ry="11.5"/>
					<ellipse display="inline" fill="none" stroke="#FFFFFF" stroke-width="0.7313" cx="551.6" cy="100.6" rx="13.3" ry="13.5"/>
					<g display="inline">
						<path fill="#8CC63F" d="M553,108.5c-2-3.5-2-6.8,0.4-10.5c-2.5,2.7-3,7-1,10.6L553,108.5z"/>
						<path fill="#8CC63F" d="M552.3,101.8c1.8-0.8,3.7-0.6,5.1-2.4c1.2-1.6,1.3-3.8,2.8-5.5c-1.6,2-3.5,0.4-5.5,0.9
							c-2.4,0.6-2.9,3.2-3.1,5.5c0.5-2.3,2.8-3.7,5.1-3.9c-2.5,1.1-4.3,3.3-4.8,5.9L552.3,101.8z"/>
						<path fill="#8CC63F" d="M550.3,109c1.1-3,0.6-5.5-1.7-8c2.3,1.7,3.3,5,2.2,8H550.3z"/>
						<path fill="#8CC63F" d="M549.9,103.8c-1.5-0.3-2.9,0.1-4.2-1.2c-1.2-1.1-1.5-2.7-2.9-3.8c1.5,1.3,2.8-0.2,4.4,0
							c1.9,0.1,2.7,2,3.1,3.8c-0.7-1.7-2.7-2.5-4.4-2.3c2.1,0.5,3.8,1.9,4.5,3.8L549.9,103.8z"/>
					</g>
				</g>
				<g>
					<rect x="571" y="93" fill="#FFFFFF" width="5" height="5"/>
					<rect x="578" y="93" fill="#FFFFFF" width="29" height="5"/>
				</g>
				<polygon fill="#D6F99D" points="571.3,103 607.3,103 607.3,103 				"/>
				<rect x="571.5" y="107.5" fill="#F4D03F" stroke="#F2F2F2" stroke-miterlimit="10" width="36" height="2"/>
				<path fill="#F4D03F" stroke="#F2F2F2" stroke-miterlimit="10" d="M562.5,110.6l-5.2,3c-1.8,1-4,1-5.8,0l-5.2-3
					c-1.8-1-2.9-2.9-2.9-5v-6c0-2.1,1.1-4,2.9-5l5.2-3c1.8-1,4-1,5.8,0l5.2,3c1.8,1,2.9,2.9,2.9,5v6
					C565.4,107.7,564.3,109.6,562.5,110.6z"/>
			</g>
			<rect x="539" y="127" fill="#D64541" width="35" height="22"/>
			<rect x="539" y="168" fill="#D64541" width="35" height="18"/>
			<g>
				<rect x="539" y="151" fill="#E6E6E6" width="35" height="3"/>
				<rect x="539" y="155" fill="#E6E6E6" width="24" height="1"/>
				<rect x="539" y="157" fill="#E6E6E6" width="27" height="2"/>
			</g>
			<rect x="539" y="161" fill="#E6E6E6" width="24" height="1"/>
			<rect x="539" y="163" fill="#E6E6E6" width="34" height="1"/>
			<polygon fill="#999999" points="539.7,172 563.5,172 563.5,172 			"/>
			<rect x="578" y="127" fill="#D64541" width="34" height="23"/>
			<g>
				<rect x="578" y="155" fill="#E6E6E6" width="29" height="2"/>
				<rect x="578" y="158" fill="#E6E6E6" width="23" height="1"/>
				<rect x="578" y="153" fill="#E6E6E6" width="34" height="1"/>
			</g>
			<rect x="578" y="162" fill="#E6E6E6" width="23" height="1"/>
			<rect x="578" y="164" fill="#E6E6E6" width="33" height="1"/>
			<rect x="578" y="168" fill="#E6E6E6" width="33" height="4"/>
			<polygon fill="#E6E6E6" points="577.6,172 601.4,172 601.4,172 			"/>
			<polygon fill="#E6E6E6" points="578.3,173 611.3,173 611.3,173 			"/>
			<g>
				<rect x="578" y="181" fill="#E6E6E6" width="29" height="2"/>
				<rect x="578" y="183" display="none" fill="#999999" width="23" height="3"/>
				<rect x="578" y="178" fill="#E6E6E6" width="34" height="1"/>
			</g>
			<polygon opacity="0.3" fill="#FFFFFF" enable-background="new    " points="617,185.8 617,75 554.4,75 			"/>
		</g>
		<g>
			<rect x="661" y="130" display="none" fill="#FFFFFF" width="31" height="56"/>
			<g>
				<defs>
					<filter id="Adobe_OpacityMaskFilter_1_" filterUnits="userSpaceOnUse" x="649.7" y="197.8" width="53.2" height="4.6">
						<feColorMatrix  type="matrix" values="1 0 0 0 0  0 1 0 0 0  0 0 1 0 0  0 0 0 1 0"/>
					</filter>
				</defs>
				<mask maskUnits="userSpaceOnUse" x="649.7" y="197.8" width="53.2" height="4.6" id="SVGID_5_">
					<g filter="url(#Adobe_OpacityMaskFilter_1_)">
						
							<radialGradient id="SVGID_6_" cx="664.7344" cy="-238.4167" r="25.3998" gradientTransform="matrix(1.0468 0 0 -8.930000e-002 -19.544 178.8094)" gradientUnits="userSpaceOnUse">
							<stop  offset="0" style="stop-color:#FFFFFF"/>
							<stop  offset="1" style="stop-color:#14130A"/>
						</radialGradient>
						<ellipse fill="url(#SVGID_6_)" cx="676.3" cy="200.1" rx="26.6" ry="2.3"/>
					</g>
				</mask>
				
					<ellipse display="none" opacity="0.33" mask="url(#SVGID_5_)" fill="#FFFFFF" enable-background="new    " cx="676.3" cy="200.1" rx="26.6" ry="2.3"/>
				<path fill="#FFFFFF" d="M695.3,123.3c0-3-2.4-5.3-5.3-5.3h-26.8c-3,0-5.3,2.4-5.3,5.3V192c0,3,2.4,5.3,5.3,5.3H690
					c3,0,5.3-2.4,5.3-5.3V123.3z M680.4,125c0,0.5-0.4,0.8-0.8,0.8h-5.7c-0.5,0-0.8-0.4-0.8-0.8v-0.1c0-0.5,0.4-0.8,0.8-0.8h5.7
					C680.1,124.1,680.4,124.5,680.4,125L680.4,125z M692.7,186h-31.8v-56.7h31.8V186z"/>
			</g>
			<g>
				<rect x="661" y="135" fill="#C0392B" width="31" height="20"/>
				<path fill="#F4D03F" stroke="#F2F2F2" stroke-miterlimit="10" d="M675,149.8l-3.1,1.8c-1.1,0.6-2.4,0.6-3.4,0l-3.1-1.8
					c-1.1-0.6-1.7-1.7-1.7-3v-3.6c0-1.2,0.6-2.4,1.7-3l3.1-1.8c1.1-0.6,2.4-0.6,3.4,0l3.1,1.8c1.1,0.6,1.7,1.7,1.7,3v3.6
					C676.7,148,676.1,149.2,675,149.8z"/>
			</g>
			<rect x="663" y="158" fill="#D64541" width="27" height="16"/>
			<g>
				<rect x="663" y="176" fill="#E6E6E6" width="27" height="1"/>
				<rect x="663" y="178" fill="#E6E6E6" width="18" height="1"/>
				<rect x="663" y="180" fill="#E6E6E6" width="21" height="2"/>
			</g>
			<rect x="663" y="183" fill="#E6E6E6" width="18" height="1"/>
			<polygon fill="#E6E6E6" points="663.4,185 689.3,185 689.3,185 			"/>
			<g>
				<rect x="679" y="141" fill="#F4D03F" width="11" height="2"/>
				<rect x="679" y="144" fill="#F4D03F" width="7" height="1"/>
				<rect x="679" y="146" fill="#F4D03F" width="8" height="1"/>
			</g>
			<polygon opacity="0.3" fill="#FFFFFF" enable-background="new    " points="692,186.1 692,130 661,130 			"/>
		</g>
		<g>
			<g>
				<path fill="#F2F2F2" d="M468.7,184.9c0,3.1-1.9,5.6-4.2,5.6H291.1c-2.3,0-4.2-2.5-4.2-5.6V73.6c0-3.1,1.9-5.6,4.2-5.6h173.4
					c2.3,0,4.2,2.5,4.2,5.6V184.9z"/>
				<rect x="292.5" y="74.1" fill="#F1C40F" width="168.6" height="108.3"/>
				<rect x="294.2" y="74.8" fill="none" width="167.8" height="103.4"/>
				<g>
					<g>
						<path fill="#FFFFFF" d="M256,192.2c0,0-1.5,2.8,9.2,5.2h224.9c0,0,7.5-0.5,9.5-4v-1.9L256,192.2z"/>
						<path fill="#FFFFFF" d="M256,186.5h243.7v6.3c0,0,0.4,0.8-2.5,0.6H258.3c0,0-2.2,0.6-2.5-0.8L256,186.5z"/>
						<path fill="#FFFFFF" d="M488.4,190.2c0,0.2-0.2,0.4-0.4,0.4h-8.3c-0.2,0-0.4-0.2-0.4-0.4l0,0c0-0.2,0.2-0.4,0.4-0.4h8.3
							C488.3,189.7,488.4,189.9,488.4,190.2L488.4,190.2z"/>
					</g>
					<path fill="#FFFFFF" d="M361.3,186.6c0,0-0.9,3.1,2.2,3.4h28.3c0,0,3,0.4,2.6-3.3L361.3,186.6z"/>
					<g>
						<path fill="#FFFFFF" d="M361.5,186.6L361.5,186.6L361.5,186.6l-0.3-0.1c0,0-0.9,2.7,1.8,3.2
							C360.7,189.1,361.5,186.6,361.5,186.6z"/>
						<path fill="#FFFFFF" d="M394.6,186.7h-0.3v0.1c0.2,3.5-2.6,3-2.6,3h-28.3c-0.1,0-0.3,0-0.4-0.1c0.2,0.1,0.4,0.1,0.7,0.1H392
							C391.9,189.9,394.9,190.4,394.6,186.7z"/>
						<path fill="#FFFFFF" d="M394.2,186.7L394.2,186.7L394.2,186.7L394.2,186.7z"/>
					</g>
				</g>
			</g>
			<rect x="294" y="83" fill="#C0392B" width="167" height="32"/>
			<path fill="#F4D03F" stroke="#F2F2F2" stroke-miterlimit="10" d="M327.3,107l-5.3,3.1c-1.8,1.1-4.1,1.1-5.9,0l-5.4-3.1
				c-1.8-1.1-3-3-3-5.1v-6.2c0-2.1,1.1-4.1,2.9-5.1l5.3-3.1c1.8-1.1,4.1-1.1,5.9,0l5.4,3.1c1.8,1.1,3,3,3,5.1v6.2
				C330.3,104,329.1,105.9,327.3,107z"/>
			<g>
				<rect x="349" y="89" fill="#FFFFFF" width="14" height="5"/>
				<rect x="365" y="89" fill="#FFFFFF" width="87" height="5"/>
			</g>
			<rect x="349" y="99" fill="#F4D03F" width="103" height="1"/>
			<rect x="349" y="104" fill="#F4D03F" width="103" height="3"/>
			<rect x="297" y="119" fill="#D64541" width="23" height="43"/>
			<rect x="323" y="119" fill="#D64541" width="23" height="43"/>
			<rect x="353" y="120" fill="#C0392B" width="33" height="21"/>
			<rect x="389" y="120" fill="#C0392B" width="33" height="21"/>
			<rect x="424" y="120" fill="#C0392B" width="33" height="21"/>
			<g>
				<rect x="353" y="143" fill="#E6E6E6" width="33" height="1"/>
				<rect x="353" y="147" fill="#E6E6E6" width="22" height="1"/>
				<rect x="353" y="148" fill="#E6E6E6" width="26" height="2"/>
			</g>
			<g>
				<rect x="389" y="147" fill="#E6E6E6" width="28" height="1"/>
				<rect x="389" y="148" fill="#E6E6E6" width="23" height="2"/>
				<rect x="389" y="143" fill="#E6E6E6" width="33" height="1"/>
			</g>
			<g>
				<rect x="424" y="147" fill="#E6E6E6" width="23" height="1"/>
				<rect x="424" y="148" fill="#E6E6E6" width="27" height="2"/>
				<rect x="424" y="143" fill="#E6E6E6" width="33" height="1"/>
			</g>
			<polygon fill="#E6E6E6" points="352.9,153 375.7,153 375.7,153 			"/>
			<polygon fill="#E6E6E6" points="353.3,155 386.3,155 386.3,155 			"/>
			<g>
				<polygon fill="#E6E6E6" points="353.3,166 386.3,166 386.3,166 				"/>
				<rect x="353" y="169" fill="#E6E6E6" width="22" height="1"/>
				<rect x="353" y="170" fill="#E6E6E6" width="26" height="3"/>
			</g>
			<rect x="353" y="175" fill="#E6E6E6" width="22" height="1"/>
			<polygon fill="#E6E6E6" points="353.3,177 386.3,177 386.3,177 			"/>
			<g>
				<polygon fill="#E6E6E6" points="389.3,166 422.3,166 422.3,166 				"/>
				<rect x="389" y="169" fill="#E6E6E6" width="23" height="1"/>
				<rect x="389" y="170" fill="#E6E6E6" width="26" height="3"/>
			</g>
			<rect x="389" y="175" fill="#E6E6E6" width="23" height="1"/>
			<polygon fill="#E6E6E6" points="389.3,177 421.3,177 421.3,177 			"/>
			<g>
				<polygon fill="#E6E6E6" points="424.3,166 457.3,166 457.3,166 				"/>
				<rect x="424" y="169" fill="#E6E6E6" width="23" height="1"/>
				<rect x="424" y="170" fill="#E6E6E6" width="26" height="3"/>
			</g>
			<rect x="424" y="175" fill="#E6E6E6" width="23" height="1"/>
			<polygon fill="#E6E6E6" points="424.3,177 456.3,177 456.3,177 			"/>
			<rect x="353" y="159" fill="#E6E6E6" width="33" height="2"/>
			<polygon fill="#E6E6E6" points="353.3,162 376,162 376,162 			"/>
			<rect x="353" y="163" fill="#E6E6E6" width="33" height="1"/>
			<polygon fill="#E6E6E6" points="389.1,153 411.9,153 411.9,153 			"/>
			<polygon fill="#E6E6E6" points="389.3,155 421.3,155 421.3,155 			"/>
			<rect x="389" y="159" fill="#E6E6E6" width="32" height="2"/>
			<rect x="424" y="159" fill="#E6E6E6" width="32" height="2"/>
			<polygon fill="#E6E6E6" points="388.7,162 411.4,162 411.4,162 			"/>
			<rect x="389" y="163" fill="#E6E6E6" width="32" height="1"/>
			<rect x="424" y="153" fill="#E6E6E6" width="22" height="2"/>
			<rect x="424" y="155" fill="#E6E6E6" width="33" height="1"/>
			<rect x="424" y="163" fill="#E6E6E6" width="33" height="1"/>
			<polygon opacity="0.3" fill="#FFFFFF" enable-background="new    " points="293.3,74 461,74 461,170.1 			"/>
			<rect x="297" y="165" fill="#D34658" width="49" height="12"/>
		</g>
		<g>
			<g>
				<g>
					<defs>
						<filter id="Adobe_OpacityMaskFilter_2_" filterUnits="userSpaceOnUse" x="63.2" y="196.7" width="123" height="11">
							<feColorMatrix  type="matrix" values="1 0 0 0 0  0 1 0 0 0  0 0 1 0 0  0 0 0 1 0"/>
						</filter>
					</defs>
					<mask maskUnits="userSpaceOnUse" x="63.2" y="196.7" width="123" height="11" id="SVGID_7_">
						<g filter="url(#Adobe_OpacityMaskFilter_2_)">
							
								<radialGradient id="SVGID_8_" cx="124.7" cy="-262.1544" r="61.512" gradientTransform="matrix(1 0 0 -8.930000e-002 0 178.8094)" gradientUnits="userSpaceOnUse">
								<stop  offset="0" style="stop-color:#FFFFFF"/>
								<stop  offset="1" style="stop-color:#14130A"/>
							</radialGradient>
							<path fill="url(#SVGID_8_)" d="M186.2,202.2c0,3-27.5,5.5-61.5,5.5s-61.5-2.5-61.5-5.5s27.5-5.5,61.5-5.5
								S186.2,199.2,186.2,202.2z"/>
						</g>
					</mask>
					
						<linearGradient id="SVGID_9_" gradientUnits="userSpaceOnUse" x1="124.7157" y1="2.2972" x2="124.6846" y2="13.1796" gradientTransform="matrix(1 0 0 -1 0 210)">
						<stop  offset="0" style="stop-color:#4D4848"/>
						<stop  offset="0.3539" style="stop-color:#14130A"/>
						<stop  offset="1" style="stop-color:#14130A"/>
					</linearGradient>
					<path display="none" opacity="0.33" mask="url(#SVGID_7_)" fill="url(#SVGID_9_)" enable-background="new    " d="M186.2,202.2
						c0,3-27.5,5.5-61.5,5.5s-61.5-2.5-61.5-5.5s27.5-5.5,61.5-5.5S186.2,199.2,186.2,202.2z"/>
					<g>
						
							<linearGradient id="SVGID_10_" gradientUnits="userSpaceOnUse" x1="86.5284" y1="13.65" x2="164.1358" y2="13.65" gradientTransform="matrix(1 0 0 -1 0 210)">
							<stop  offset="6.060610e-003" style="stop-color:#58595B"/>
							<stop  offset="0.2803" style="stop-color:#757679"/>
							<stop  offset="0.5091" style="stop-color:#88898D"/>
							<stop  offset="1" style="stop-color:#58595B"/>
						</linearGradient>
						<path display="none" fill="url(#SVGID_10_)" d="M87,195v-0.3c0,0,0,0,0,0.1l0,0c0,1.4,2.2,3.2,8.2,3.2c11.6,0,24.3,0,28.9,0
							c1.2,0,1.8,0,1.8,0c4.6,0,17.2,0,28.9,0c6,0,8.1-1,8.1-3h-0.6l0,0H87z"/>
						<path fill="#FFFFFF" d="M155.2,187c-5.4-5.5-5.6-17-5.6-17h-24.1h-1.8H99.5c0,0-0.2,11.6-5.6,17c-5.4,5.5-13.8,10,0.8,10
							c11.6,0,24.3,0,28.9,0c1.2,0,1.8,0,1.8,0c4.6,0,17.2,0,28.9,0C168.9,197,160.5,192.5,155.2,187z"/>
						
							<radialGradient id="SVGID_11_" cx="161.5449" cy="-0.2029" r="28.9267" gradientTransform="matrix(1 0 0 -1 0 210)" gradientUnits="userSpaceOnUse">
							<stop  offset="0" style="stop-color:#FFFFFF"/>
							<stop  offset="1" style="stop-color:#FFFFFF;stop-opacity:0"/>
						</radialGradient>
						<path fill="url(#SVGID_11_)" d="M129.4,197c3-6,12.5-12.2,24.3-13.4c0.5,0.9,1.2,1.9,1.9,2.6c5.3,5.4,13.5,10.8-0.1,10.8
							L129.4,197L129.4,197z"/>
						
							<radialGradient id="SVGID_12_" cx="682.524" cy="-0.2029" r="28.9267" gradientTransform="matrix(-1 0 0 -1 770.9258 210)" gradientUnits="userSpaceOnUse">
							<stop  offset="0" style="stop-color:#FFFFFF"/>
							<stop  offset="1" style="stop-color:#FFFFFF;stop-opacity:0"/>
						</radialGradient>
						<path fill="url(#SVGID_12_)" d="M120.6,197c-3-6-12.5-12.2-24.3-13.4c-0.5,0.9-1.2,1.9-1.9,2.6c-5.3,5.4-13.5,10.8,0.1,10.8
							L120.6,197L120.6,197z"/>
						<path fill="#FFFFFF" d="M94.4,196.5c5-0.1,10.1-0.1,15.1-0.2h15.1h15.1l7.5,0.1l7.5,0.1l-7.5,0.1l-7.5,0.1h-15.1h-15.1
							C104.5,196.6,99.5,196.6,94.4,196.5z"/>
						<path fill="#FFFFFF" d="M1,161.7c0,4,3.9,8.3,8,8.3h113h3.8h113.1c4,0,7.1-4.3,7.1-8.3V147H1V161.7z"/>
						<path fill="#F2F2F2" d="M238.9,2h-113H122H9C5,2,1,4.1,1,8.1V147h245V8.1C246,4.1,243,2,238.9,2z M235,137H11V11h224V137z"/>
						<path fill="#FFFFFF" d="M1,160.9c0,4,3.9,9.1,8,9.1h113h3.8h113.1c4,0,7.1-5.1,7.1-9.1V147H1V160.9z"/>
					</g>
				</g>
				<rect x="11" y="25" fill="#C0392B" width="224" height="43"/>
				<g>
					<rect x="85" y="34" fill="#FFFFFF" width="19" height="6"/>
					<rect x="106" y="34" fill="#FFFFFF" width="116" height="6"/>
				</g>
				<rect x="85" y="46" fill="#F4D03F" width="137" height="2"/>
				<rect x="85" y="54" fill="#F4D03F" width="137" height="2"/>
				<rect x="52" y="72" fill="#D64541" width="29" height="59"/>
				<rect x="18" y="72" fill="#D64541" width="29" height="59"/>
				<rect x="90" y="76" fill="#C0392B" width="44" height="26"/>
				<rect x="137" y="76" fill="#C0392B" width="44" height="26"/>
				<rect x="185" y="76" fill="#C0392B" width="44" height="26"/>
				<g>
					<rect x="90" y="105" fill="#E6E6E6" width="44" height="2"/>
					<rect x="90" y="109" fill="#E6E6E6" width="30" height="2"/>
					<rect x="90" y="112" fill="#E6E6E6" width="36" height="2"/>
				</g>
				<g>
					<rect x="137" y="109" fill="#E6E6E6" width="38" height="2"/>
					<rect x="137" y="112" fill="#E6E6E6" width="30" height="2"/>
					<rect x="137" y="105" fill="#E6E6E6" width="44" height="2"/>
				</g>
				<g>
					<rect x="185" y="109" fill="#E6E6E6" width="30" height="2"/>
					<rect x="185" y="112" fill="#E6E6E6" width="35" height="2"/>
					<rect x="185" y="105" fill="#E6E6E6" width="44" height="2"/>
				</g>
				<rect x="90" y="118" fill="#E6E6E6" width="29" height="1"/>
				<rect x="90" y="120" fill="#E6E6E6" width="43" height="2"/>
				<rect x="90" y="126" fill="#E6E6E6" width="43" height="2"/>
				<rect x="90" y="129" fill="#E6E6E6" width="29" height="2"/>
				<rect x="90" y="132" fill="#E6E6E6" width="43" height="1"/>
				<rect x="137" y="118" fill="#E6E6E6" width="30" height="1"/>
				<rect x="137" y="120" fill="#E6E6E6" width="43" height="2"/>
				<rect x="137" y="126" fill="#E6E6E6" width="43" height="2"/>
				<rect x="137" y="129" fill="#E6E6E6" width="30" height="2"/>
				<rect x="137" y="132" fill="#E6E6E6" width="43" height="1"/>
				<rect x="185" y="118" fill="#E6E6E6" width="29" height="1"/>
				<rect x="185" y="121" fill="#E6E6E6" width="42" height="2"/>
				<rect x="185" y="127" fill="#E6E6E6" width="42" height="1"/>
				<rect x="185" y="130" fill="#E6E6E6" width="29" height="1"/>
				<rect x="185" y="132" fill="#E6E6E6" width="42" height="2"/>
				<polygon opacity="0.3" fill="#FFFFFF" enable-background="new    " points="12.6,11 235,11 235,137 				"/>
				<path fill="#F4D03F" stroke="#F2F2F2" stroke-miterlimit="10" d="M52.4,56.1l-6.6,3.8c-2.3,1.3-5,1.3-7.3,0L32,56.2
					c-2.3-1.3-3.7-3.7-3.7-6.3v-7.6c0-2.6,1.4-5,3.6-6.3l6.6-3.8c2.3-1.3,5-1.3,7.3,0l6.6,3.8c2.3,1.3,3.7,3.7,3.7,6.3v7.6
					C56.1,52.4,54.7,54.8,52.4,56.1z"/>
			</g>
		</g>
	</g>
</g>
<g id="Layer_2">
	<g>
		<path fill="#FFFFFF" d="M362.1,96c-2.2-2.3-2.3-7-2.3-7h-10.1h-0.8h-10.1c0,0-0.1,4.7-2.3,7c-2.2,2.3-5.8,4,0.3,4
			c4.9,0,10.2,0,12.1,0c0.5,0,0.8,0,0.8,0c1.9,0,7.2,0,12.1,0C367.8,100,364.3,98.3,362.1,96z"/>
		<path fill="#F2F2F2" d="M397.2,18h-47.4h-1.6h-47.4c-1.7,0-2.8,0.7-2.8,2.4V79h102V20.4C400,18.7,398.9,18,397.2,18z M396,75h-94
			V22h94V75z"/>
		<path fill="#FFFFFF" d="M298,84.4c0,1.7,1.1,4.6,2.8,4.6h47.4h1.6h47.4c1.7,0,2.8-2.9,2.8-4.6V79H298V84.4z"/>
		<polygon opacity="0.3" fill="#FFFFFF" points="302.3,22 396,22 396,74.4 		"/>
		<path fill="#F2F2F2" d="M584.6,46.6l-2.6-2.6l1.3-1.3l2.6,2.6L584.6,46.6z M604.9,68.7c-5-4.4-15.7-13-20-16.9l-0.6,1.6l19.3,16.6
			L604.9,68.7z M583.8,55l-0.6,1.7l18.3,15.4l1.3-1.3C596.5,65.6,586.6,57.7,583.8,55z M603.8,76.2l-19.5,19.6h2.4
			c4.4-4.4,12.9-13.1,18.3-18.5L603.8,76.2z M580.4,95.8h2.3c5.1-5.2,15.4-15.7,20.1-20.6l-1.2-1.2L580.4,95.8z M605.4,69.1
			l-1.2,1.2l-0.9,0.9l-1.3,1.3l-0.5,0.5l0.6,0.6l1.2,1.2l1,1l1.2,1.2l0.6,0.6l4.5-4.5l-4.5-4.5L605.4,69.1z M566.4,49.3l13,13
			l1.8-1.8l1.5-4.2l0.5-1.6l0.6-1.8l0.6-1.6l1-3l-1.2-1.2l-2.6-2.6l-1.2-1.2l-12.2,4.2L566.4,49.3z M592.1,96.4h-6h-2.4h-1.6h-2.3
			h-4.7v2.5h17V96.4z"/>
		<g>
			<path fill="#F2F2F2" d="M546.7,94.2c0,1.2-0.7,2.1-1.6,2.1h-65.6c-0.9,0-1.6-0.9-1.6-2.1V52.1c0-1.2,0.7-2.1,1.6-2.1h65.6
				c0.9,0,1.6,0.9,1.6,2.1V94.2z"/>
			<rect x="480.1" y="52.3" fill="#F1C40F" width="63.8" height="41"/>
			<rect x="480.7" y="52.6" fill="none" width="63.5" height="39.1"/>
			<g>
				<g>
					<path fill="#FFFFFF" d="M466.3,97c0,0-0.6,1.1,3.5,2h85.1c0,0,2.8-0.2,3.6-1.5l0-0.7L466.3,97z"/>
					<path fill="#FFFFFF" d="M466.3,94.8h92.2v2.4c0,0,0.1,0.3-0.9,0.2h-90.4c0,0-0.8,0.2-0.9-0.3L466.3,94.8z"/>
					<path fill="#FFFFFF" d="M554.2,96.2c0,0.1-0.1,0.2-0.1,0.2h-3.1c-0.1,0-0.1-0.1-0.1-0.2l0,0c0-0.1,0.1-0.2,0.1-0.2h3.1
						C554.1,96,554.2,96.1,554.2,96.2L554.2,96.2z"/>
				</g>
				<path fill="#FFFFFF" d="M506.1,94.8c0,0-0.4,1.2,0.8,1.3h10.7c0,0,1.1,0.1,1-1.3L506.1,94.8z"/>
				<g>
					<path fill="#FFFFFF" d="M506.2,94.8L506.2,94.8L506.2,94.8l-0.1,0c0,0-0.3,1,0.7,1.2C505.9,95.8,506.2,94.8,506.2,94.8z"/>
					<path fill="#FFFFFF" d="M518.7,94.9l-0.1,0v0c0.1,1.3-1,1.2-1,1.2h-10.7c-0.1,0-0.1,0-0.2,0c0.1,0,0.2,0,0.3,0.1h10.7
						C517.7,96.1,518.8,96.3,518.7,94.9z"/>
					<path fill="#FFFFFF" d="M518.6,94.9L518.6,94.9L518.6,94.9C518.6,94.9,518.6,94.9,518.6,94.9z"/>
				</g>
			</g>
		</g>
		<path fill="#F2F2F2" d="M121.5,46.8l2.6-2.6l1.3,1.3l-2.6,2.6L121.5,46.8z M103.8,71.5l19.3-16.6l-0.6-1.6
			c-4.3,3.9-15,12.5-20,16.9L103.8,71.5z M104.7,72.4l1.3,1.3l18.3-15.4l-0.6-1.7C120.9,59.3,110.9,67.2,104.7,72.4z M102.5,78.9
			c5.3,5.4,13.9,14,18.3,18.5h2.4l-19.5-19.6L102.5,78.9z M105.8,75.6l-1.2,1.2c4.7,4.9,15.1,15.4,20.1,20.6h2.3L105.8,75.6z
			 M101.4,70l-4.5,4.5l4.5,4.5l0.6-0.6l1.2-1.2l1-1l1.2-1.2l0.6-0.6l-0.5-0.5l-1.3-1.3l-0.9-0.9l-1.2-1.2L101.4,70z M139.2,49
			L127,44.8l-1.2,1.2l-2.6,2.6l-1.2,1.2l1,3l0.6,1.6l0.6,1.8l0.5,1.6l1.5,4.2l1.8,1.8l13-13L139.2,49z M115.4,100.5h17V98h-4.7h-2.3
			h-1.6h-2.4h-6V100.5z"/>
		<g>
			<path fill="#F2F2F2" d="M230.2,95.8c0,1.2-0.7,2.1-1.6,2.1h-65.6c-0.9,0-1.6-0.9-1.6-2.1V53.7c0-1.2,0.7-2.1,1.6-2.1h65.6
				c0.9,0,1.6,0.9,1.6,2.1V95.8z"/>
			<rect x="163.6" y="53.9" fill="#F1C40F" width="63.8" height="41"/>
			<rect x="164.2" y="54.1" fill="none" width="63.5" height="39.1"/>
			<g>
				<g>
					<path fill="#FFFFFF" d="M149.8,98.5c0,0-0.6,1.1,3.5,2h85.1c0,0,2.8-0.2,3.6-1.5l0-0.7L149.8,98.5z"/>
					<path fill="#FFFFFF" d="M149.8,96.4H242v2.4c0,0,0.1,0.3-0.9,0.2h-90.4c0,0-0.8,0.2-0.9-0.3L149.8,96.4z"/>
					<path fill="#FFFFFF" d="M237.7,97.8c0,0.1-0.1,0.2-0.1,0.2h-3.1c-0.1,0-0.1-0.1-0.1-0.2l0,0c0-0.1,0.1-0.2,0.1-0.2h3.1
						C237.6,97.6,237.7,97.7,237.7,97.8L237.7,97.8z"/>
				</g>
				<path fill="#FFFFFF" d="M189.6,96.4c0,0-0.4,1.2,0.8,1.3h10.7c0,0,1.1,0.1,1-1.3L189.6,96.4z"/>
				<g>
					<path fill="#FFFFFF" d="M189.7,96.4L189.7,96.4L189.7,96.4l-0.1,0c0,0-0.3,1,0.7,1.2C189.4,97.4,189.7,96.4,189.7,96.4z"/>
					<path fill="#FFFFFF" d="M202.2,96.4l-0.1,0v0c0.1,1.3-1,1.2-1,1.2h-10.7c-0.1,0-0.1,0-0.2,0c0.1,0,0.2,0,0.3,0.1h10.7
						C201.2,97.7,202.3,97.8,202.2,96.4z"/>
					<path fill="#FFFFFF" d="M202.1,96.5L202.1,96.5L202.1,96.5C202.1,96.5,202.1,96.5,202.1,96.5z"/>
				</g>
			</g>
			<polygon opacity="0.3" fill="#FFFFFF" points="161.2,53 229,53 229,91.3 			"/>
		</g>
		<polygon opacity="0.3" fill="#FFFFFF" points="478.2,51 546,51 546,89.3 		"/>
		<path fill="#D64541" d="M100.2,107.6h5.2v84.9h-5.2V107.6z M238.7,192.5h5.2v-84.9h-5.2V192.5z M105.4,105.7h133.2h5.2h5.7v-5.2
			h-5.7h-5.2H94.5v5.2h5.7H105.4z M186.9,130.9h23.3v-5.2h-23.3V130.9z M186.9,174.6h23.3v-5.2h-23.3V174.6z M236,148.7h-5.2h-64.6
			h-5.2l0,0v-5.2l0,0v-30.6l0,0v-5.2h75v0.2v5v30.6V148.7z M230.8,143.5v-30.6h-64.6v30.6H230.8L230.8,143.5z M161.1,187.3v-30.6
			l0,0v-5.2h75v0.2v5v30.6v5.2h-5.2h-64.6h-5.2l0,0V187.3L161.1,187.3z M166.3,187.3h64.6v-30.6h-64.6V187.3z"/>
		<path fill="#D64541" d="M277.4,106.6h5.2v84.9h-5.2V106.6z M415.9,191.5h5.2v-84.9h-5.2V191.5z M282.6,104.7h133.2h5.2h5.7v-5.2
			h-5.7h-5.2H271.6v5.2h5.7H282.6z M364.1,129.9h23.3v-5.2h-23.3V129.9z M364.1,173.6h23.3v-5.2h-23.3V173.6z M413.2,147.7H408
			h-64.6h-5.2l0,0v-5.2l0,0v-30.6l0,0v-5.2h75v0.2v5v30.6V147.7z M408,142.5v-30.6h-64.6v30.6H408L408,142.5z M338.2,186.3v-30.6
			l0,0v-5.2h75v0.2v5v30.6v5.2H408h-64.6h-5.2l0,0V186.3L338.2,186.3z M343.4,186.3H408v-30.6h-64.6V186.3z"/>
		<path fill="#D64541" d="M457.5,106.6h5.2v84.9h-5.2V106.6z M596,191.5h5.2v-84.9H596V191.5z M462.7,104.7H596h5.2h5.7v-5.2h-5.7
			H596H451.8v5.2h5.7H462.7z M544.2,129.9h23.3v-5.2h-23.3V129.9z M544.2,173.6h23.3v-5.2h-23.3V173.6z M593.3,147.7h-5.2h-64.6
			h-5.2l0,0v-5.2l0,0v-30.6l0,0v-5.2h75v0.2v5v30.6V147.7z M588.1,142.5v-30.6h-64.6v30.6H588.1L588.1,142.5z M518.4,186.3v-30.6
			l0,0v-5.2h75v0.2v5v30.6v5.2h-5.2h-64.6h-5.2l0,0V186.3L518.4,186.3z M523.6,186.3h64.6v-30.6h-64.6V186.3z"/>
		<path fill="#C0392B" d="M415.6,191.5h5.2v-84.9h-5.2V191.5z M343.6,104.7h76.7h3h3.3v-5.2h-3.3h-3h-83v5.2h3.3H343.6z
			 M363.8,129.9h23.3v-5.2h-23.3V129.9z M363.8,173.6h23.3v-5.2h-23.3V173.6z M413,147.7h-5.2h-64.6H338l0,0v-5.2l0,0v-30.6l0,0
			v-5.2h75v0.2v5v30.6V147.7z M407.8,142.5v-30.6h-64.6v30.6H407.8L407.8,142.5z M338,186.3v-30.6l0,0v-5.2h75v0.2v5v30.6v5.2h-5.2
			h-64.6H338l0,0V186.3L338,186.3z M343.2,186.3h64.6v-30.6h-64.6V186.3z"/>
		<path fill="#C0392B" d="M238.6,192.5h5.2v-84.9h-5.2V192.5z M166.5,105.7h76.7h3h3.3v-5.2h-3.3h-3h-83v5.2h3.3H166.5z
			 M186.8,130.9h23.3v-5.2h-23.3V130.9z M186.8,174.6h23.3v-5.2h-23.3V174.6z M236,148.7h-5.2h-64.6H161l0,0v-5.2l0,0v-30.6l0,0
			v-5.2h75v0.2v5v30.6V148.7z M230.8,143.5v-30.6h-64.6v30.6H230.8L230.8,143.5z M161,187.3v-30.6l0,0v-5.2h75v0.2v5v30.6v5.2h-5.2
			h-64.6H161l0,0V187.3L161,187.3z M166.2,187.3h64.6v-30.6h-64.6V187.3z"/>
		<path fill="#C0392B" d="M596,191.5h5.2v-84.9H596V191.5z M523.9,104.7h76.7h3h3.3v-5.2h-3.3h-3h-83v5.2h3.3H523.9z M544.2,129.9
			h23.3v-5.2h-23.3V129.9z M544.2,173.6h23.3v-5.2h-23.3V173.6z M593.3,147.7h-5.2h-64.6h-5.2l0,0v-5.2l0,0v-30.6l0,0v-5.2h75v0.2v5
			v30.6V147.7z M588.1,142.5v-30.6h-64.6v30.6H588.1L588.1,142.5z M518.3,186.3v-30.6l0,0v-5.2h75v0.2v5v30.6v5.2h-5.2h-64.6h-5.2
			l0,0V186.3L518.3,186.3z M523.5,186.3h64.6v-30.6h-64.6V186.3z"/>
	</g>
</g>
</svg>
