<?xml version="1.0" encoding="utf-8"?>
<!-- Generator: Adobe Illustrator 18.1.0, SVG Export Plug-In . SVG Version: 6.00 Build 0)  -->
<!DOCTYPE svg PUBLIC "-//W3C//DTD SVG 1.1//EN" "http://www.w3.org/Graphics/SVG/1.1/DTD/svg11.dtd" [
	<!ENTITY ns_extend "http://ns.adobe.com/Extensibility/1.0/">
	<!ENTITY ns_ai "http://ns.adobe.com/AdobeIllustrator/10.0/">
	<!ENTITY ns_graphs "http://ns.adobe.com/Graphs/1.0/">
	<!ENTITY ns_vars "http://ns.adobe.com/Variables/1.0/">
	<!ENTITY ns_imrep "http://ns.adobe.com/ImageReplacement/1.0/">
	<!ENTITY ns_sfw "http://ns.adobe.com/SaveForWeb/1.0/">
	<!ENTITY ns_custom "http://ns.adobe.com/GenericCustomNamespace/1.0/">
	<!ENTITY ns_adobe_xpath "http://ns.adobe.com/XPath/1.0/">
]>
<svg version="1.1" xmlns:x="&ns_extend;" xmlns:i="&ns_ai;" xmlns:graph="&ns_graphs;"
	 xmlns="http://www.w3.org/2000/svg" xmlns:xlink="http://www.w3.org/1999/xlink" x="0px" y="0px" viewBox="0 0 705 210"
	 enable-background="new 0 0 705 210" xml:space="preserve">
<metadata>
	<sfw  xmlns="&ns_sfw;">
		<slices></slices>
		<sliceSourceBounds  height="256.3" width="16383" y="-48" x="-7865" bottomLeftOrigin="true"></sliceSourceBounds>
	</sfw>
</metadata>
<g id="Layer_1" display="none">
	<g display="inline">
		<g>
			<rect x="534" y="75" display="none" fill="#FFFFFF" width="83" height="111"/>
			<g>
				<path fill="#FFFFFF" d="M628.4,68.4c0-3-2.4-5.4-5.4-5.4h-92.6c-3,0-5.4,2.4-5.4,5.4v123.4c0,3,2.4,5.4,5.4,5.4H623
					c3,0,5.4-2.4,5.4-5.4V68.4z M617.7,185.7h-82.5v-111h82.5V185.7z"/>
				<defs>
					<filter id="Adobe_OpacityMaskFilter" filterUnits="userSpaceOnUse" x="518.4" y="196.9" width="115.6" height="11.6">
						<feColorMatrix  type="matrix" values="1 0 0 0 0  0 1 0 0 0  0 0 1 0 0  0 0 0 1 0"/>
					</filter>
				</defs>
				<mask maskUnits="userSpaceOnUse" x="518.4" y="196.9" width="115.6" height="11.6" id="SVGID_1_">
					<g filter="url(#Adobe_OpacityMaskFilter)">
						
							<radialGradient id="SVGID_2_" cx="576.2" cy="-38.7346" r="57.8421" gradientTransform="matrix(1 0 0 -0.1002 0 198.8188)" gradientUnits="userSpaceOnUse">
							<stop  offset="0" style="stop-color:#FFFFFF"/>
							<stop  offset="1" style="stop-color:#14130A"/>
						</radialGradient>
						<path fill="url(#SVGID_2_)" d="M634,202.7c0,3.2-25.9,5.8-57.8,5.8c-31.9,0-57.8-2.6-57.8-5.8s25.9-5.8,57.8-5.8
							C608.2,196.9,634,199.5,634,202.7z"/>
					</g>
				</mask>
				
					<linearGradient id="SVGID_3_" gradientUnits="userSpaceOnUse" x1="576.2166" y1="1.5168" x2="576.1838" y2="12.9888" gradientTransform="matrix(1 0 0 -1 0 210)">
					<stop  offset="0" style="stop-color:#4D4848"/>
					<stop  offset="0.3539" style="stop-color:#14130A"/>
					<stop  offset="1" style="stop-color:#14130A"/>
				</linearGradient>
				<path display="none" opacity="0.33" mask="url(#SVGID_1_)" fill="url(#SVGID_3_)" enable-background="new    " d="M634,202.7
					c0,3.2-25.9,5.8-57.8,5.8c-31.9,0-57.8-2.6-57.8-5.8s25.9-5.8,57.8-5.8C608.2,196.9,634,199.5,634,202.7z"/>
				
					<linearGradient id="SVGID_4_" gradientUnits="userSpaceOnUse" x1="531.7" y1="80.45" x2="628.5443" y2="80.45" gradientTransform="matrix(1 0 0 -1 0 210)">
					<stop  offset="0" style="stop-color:#FFFFFF;stop-opacity:0"/>
					<stop  offset="1" style="stop-color:#FFFFFF"/>
				</linearGradient>
				<path display="none" opacity="0.6" fill="url(#SVGID_4_)" enable-background="new    " d="M593.4,62.5h30c0,0,5.7,0.1,5.1,7.7
					l-0.2,121.3c0,0,0.3,4.5-5.5,5.1c-6.1-0.3-91.1,0-91.1,0"/>
			</g>
			<g>
				<rect x="535" y="83" fill="#C0392B" width="82" height="39"/>
				<g display="none">
					<ellipse display="inline" fill="#FFFFFF" cx="551.5" cy="100.5" rx="11.4" ry="11.5"/>
					<ellipse display="inline" fill="none" stroke="#FFFFFF" stroke-width="0.7313" cx="551.6" cy="100.6" rx="13.3" ry="13.5"/>
					<g display="inline">
						<path fill="#8CC63F" d="M553,108.5c-2-3.5-2-6.8,0.4-10.5c-2.5,2.7-3,7-1,10.6L553,108.5z"/>
						<path fill="#8CC63F" d="M552.3,101.8c1.8-0.8,3.7-0.6,5.1-2.4c1.2-1.6,1.3-3.8,2.8-5.5c-1.6,2-3.5,0.4-5.5,0.9
							c-2.4,0.6-2.9,3.2-3.1,5.5c0.5-2.3,2.8-3.7,5.1-3.9c-2.5,1.1-4.3,3.3-4.8,5.9L552.3,101.8z"/>
						<path fill="#8CC63F" d="M550.3,109c1.1-3,0.6-5.5-1.7-8c2.3,1.7,3.3,5,2.2,8H550.3z"/>
						<path fill="#8CC63F" d="M549.9,103.8c-1.5-0.3-2.9,0.1-4.2-1.2c-1.2-1.1-1.5-2.7-2.9-3.8c1.5,1.3,2.8-0.2,4.4,0
							c1.9,0.1,2.7,2,3.1,3.8c-0.7-1.7-2.7-2.5-4.4-2.3c2.1,0.5,3.8,1.9,4.5,3.8L549.9,103.8z"/>
					</g>
				</g>
				<g>
					<rect x="571" y="93" fill="#FFFFFF" width="5" height="5"/>
					<rect x="578" y="93" fill="#FFFFFF" width="29" height="5"/>
				</g>
				<polygon fill="#D6F99D" points="571.3,103 607.3,103 607.3,103 				"/>
				<rect x="571.5" y="107.5" fill="#F4D03F" stroke="#F2F2F2" stroke-miterlimit="10" width="36" height="2"/>
				<path fill="#F4D03F" stroke="#F2F2F2" stroke-miterlimit="10" d="M562.5,110.6l-5.2,3c-1.8,1-4,1-5.8,0l-5.2-3
					c-1.8-1-2.9-2.9-2.9-5v-6c0-2.1,1.1-4,2.9-5l5.2-3c1.8-1,4-1,5.8,0l5.2,3c1.8,1,2.9,2.9,2.9,5v6
					C565.4,107.7,564.3,109.6,562.5,110.6z"/>
			</g>
			<rect x="539" y="127" fill="#D64541" width="35" height="22"/>
			<rect x="539" y="168" fill="#D64541" width="35" height="18"/>
			<g>
				<rect x="539" y="151" fill="#E6E6E6" width="35" height="3"/>
				<rect x="539" y="155" fill="#E6E6E6" width="24" height="1"/>
				<rect x="539" y="157" fill="#E6E6E6" width="27" height="2"/>
			</g>
			<rect x="539" y="161" fill="#E6E6E6" width="24" height="1"/>
			<rect x="539" y="163" fill="#E6E6E6" width="34" height="1"/>
			<polygon fill="#999999" points="539.7,172 563.5,172 563.5,172 			"/>
			<rect x="578" y="127" fill="#D64541" width="34" height="23"/>
			<g>
				<rect x="578" y="155" fill="#E6E6E6" width="29" height="2"/>
				<rect x="578" y="158" fill="#E6E6E6" width="23" height="1"/>
				<rect x="578" y="153" fill="#E6E6E6" width="34" height="1"/>
			</g>
			<rect x="578" y="162" fill="#E6E6E6" width="23" height="1"/>
			<rect x="578" y="164" fill="#E6E6E6" width="33" height="1"/>
			<rect x="578" y="168" fill="#E6E6E6" width="33" height="4"/>
			<polygon fill="#E6E6E6" points="577.6,172 601.4,172 601.4,172 			"/>
			<polygon fill="#E6E6E6" points="578.3,173 611.3,173 611.3,173 			"/>
			<g>
				<rect x="578" y="181" fill="#E6E6E6" width="29" height="2"/>
				<rect x="578" y="183" display="none" fill="#999999" width="23" height="3"/>
				<rect x="578" y="178" fill="#E6E6E6" width="34" height="1"/>
			</g>
			<polygon opacity="0.3" fill="#FFFFFF" enable-background="new    " points="617,185.8 617,75 554.4,75 			"/>
		</g>
		<g>
			<rect x="661" y="130" display="none" fill="#FFFFFF" width="31" height="56"/>
			<g>
				<defs>
					<filter id="Adobe_OpacityMaskFilter_1_" filterUnits="userSpaceOnUse" x="649.7" y="197.8" width="53.2" height="4.6">
						<feColorMatrix  type="matrix" values="1 0 0 0 0  0 1 0 0 0  0 0 1 0 0  0 0 0 1 0"/>
					</filter>
				</defs>
				<mask maskUnits="userSpaceOnUse" x="649.7" y="197.8" width="53.2" height="4.6" id="SVGID_5_">
					<g filter="url(#Adobe_OpacityMaskFilter_1_)">
						
							<radialGradient id="SVGID_6_" cx="664.7344" cy="-238.4167" r="25.3998" gradientTransform="matrix(1.0468 0 0 -8.930000e-002 -19.544 178.8094)" gradientUnits="userSpaceOnUse">
							<stop  offset="0" style="stop-color:#FFFFFF"/>
							<stop  offset="1" style="stop-color:#14130A"/>
						</radialGradient>
						<ellipse fill="url(#SVGID_6_)" cx="676.3" cy="200.1" rx="26.6" ry="2.3"/>
					</g>
				</mask>
				
					<ellipse display="none" opacity="0.33" mask="url(#SVGID_5_)" fill="#FFFFFF" enable-background="new    " cx="676.3" cy="200.1" rx="26.6" ry="2.3"/>
				<path fill="#FFFFFF" d="M695.3,123.3c0-3-2.4-5.3-5.3-5.3h-26.8c-3,0-5.3,2.4-5.3,5.3V192c0,3,2.4,5.3,5.3,5.3H690
					c3,0,5.3-2.4,5.3-5.3V123.3z M680.4,125c0,0.5-0.4,0.8-0.8,0.8h-5.7c-0.5,0-0.8-0.4-0.8-0.8v-0.1c0-0.5,0.4-0.8,0.8-0.8h5.7
					C680.1,124.1,680.4,124.5,680.4,125L680.4,125z M692.7,186h-31.8v-56.7h31.8V186z"/>
			</g>
			<g>
				<rect x="661" y="135" fill="#C0392B" width="31" height="20"/>
				<path fill="#F4D03F" stroke="#F2F2F2" stroke-miterlimit="10" d="M675,149.8l-3.1,1.8c-1.1,0.6-2.4,0.6-3.4,0l-3.1-1.8
					c-1.1-0.6-1.7-1.7-1.7-3v-3.6c0-1.2,0.6-2.4,1.7-3l3.1-1.8c1.1-0.6,2.4-0.6,3.4,0l3.1,1.8c1.1,0.6,1.7,1.7,1.7,3v3.6
					C676.7,148,676.1,149.2,675,149.8z"/>
			</g>
			<rect x="663" y="158" fill="#D64541" width="27" height="16"/>
			<g>
				<rect x="663" y="176" fill="#E6E6E6" width="27" height="1"/>
				<rect x="663" y="178" fill="#E6E6E6" width="18" height="1"/>
				<rect x="663" y="180" fill="#E6E6E6" width="21" height="2"/>
			</g>
			<rect x="663" y="183" fill="#E6E6E6" width="18" height="1"/>
			<polygon fill="#E6E6E6" points="663.4,185 689.3,185 689.3,185 			"/>
			<g>
				<rect x="679" y="141" fill="#F4D03F" width="11" height="2"/>
				<rect x="679" y="144" fill="#F4D03F" width="7" height="1"/>
				<rect x="679" y="146" fill="#F4D03F" width="8" height="1"/>
			</g>
			<polygon opacity="0.3" fill="#FFFFFF" enable-background="new    " points="692,186.1 692,130 661,130 			"/>
		</g>
		<g>
			<g>
				<path fill="#F2F2F2" d="M468.7,184.9c0,3.1-1.9,5.6-4.2,5.6H291.1c-2.3,0-4.2-2.5-4.2-5.6V73.6c0-3.1,1.9-5.6,4.2-5.6h173.4
					c2.3,0,4.2,2.5,4.2,5.6V184.9z"/>
				<rect x="292.5" y="74.1" fill="#F1C40F" width="168.6" height="108.3"/>
				<rect x="294.2" y="74.8" fill="none" width="167.8" height="103.4"/>
				<g>
					<g>
						<path fill="#FFFFFF" d="M256,192.2c0,0-1.5,2.8,9.2,5.2h224.9c0,0,7.5-0.5,9.5-4v-1.9L256,192.2z"/>
						<path fill="#FFFFFF" d="M256,186.5h243.7v6.3c0,0,0.4,0.8-2.5,0.6H258.3c0,0-2.2,0.6-2.5-0.8L256,186.5z"/>
						<path fill="#FFFFFF" d="M488.4,190.2c0,0.2-0.2,0.4-0.4,0.4h-8.3c-0.2,0-0.4-0.2-0.4-0.4l0,0c0-0.2,0.2-0.4,0.4-0.4h8.3
							C488.3,189.7,488.4,189.9,488.4,190.2L488.4,190.2z"/>
					</g>
					<path fill="#FFFFFF" d="M361.3,186.6c0,0-0.9,3.1,2.2,3.4h28.3c0,0,3,0.4,2.6-3.3L361.3,186.6z"/>
					<g>
						<path fill="#FFFFFF" d="M361.5,186.6L361.5,186.6L361.5,186.6l-0.3-0.1c0,0-0.9,2.7,1.8,3.2
							C360.7,189.1,361.5,186.6,361.5,186.6z"/>
						<path fill="#FFFFFF" d="M394.6,186.7h-0.3v0.1c0.2,3.5-2.6,3-2.6,3h-28.3c-0.1,0-0.3,0-0.4-0.1c0.2,0.1,0.4,0.1,0.7,0.1H392
							C391.9,189.9,394.9,190.4,394.6,186.7z"/>
						<path fill="#FFFFFF" d="M394.2,186.7L394.2,186.7L394.2,186.7L394.2,186.7z"/>
					</g>
				</g>
			</g>
			<rect x="294" y="83" fill="#C0392B" width="167" height="32"/>
			<path fill="#F4D03F" stroke="#F2F2F2" stroke-miterlimit="10" d="M327.3,107l-5.3,3.1c-1.8,1.1-4.1,1.1-5.9,0l-5.4-3.1
				c-1.8-1.1-3-3-3-5.1v-6.2c0-2.1,1.1-4.1,2.9-5.1l5.3-3.1c1.8-1.1,4.1-1.1,5.9,0l5.4,3.1c1.8,1.1,3,3,3,5.1v6.2
				C330.3,104,329.1,105.9,327.3,107z"/>
			<g>
				<rect x="349" y="89" fill="#FFFFFF" width="14" height="5"/>
				<rect x="365" y="89" fill="#FFFFFF" width="87" height="5"/>
			</g>
			<rect x="349" y="99" fill="#F4D03F" width="103" height="1"/>
			<rect x="349" y="104" fill="#F4D03F" width="103" height="3"/>
			<rect x="297" y="119" fill="#D64541" width="23" height="43"/>
			<rect x="323" y="119" fill="#D64541" width="23" height="43"/>
			<rect x="353" y="120" fill="#C0392B" width="33" height="21"/>
			<rect x="389" y="120" fill="#C0392B" width="33" height="21"/>
			<rect x="424" y="120" fill="#C0392B" width="33" height="21"/>
			<g>
				<rect x="353" y="143" fill="#E6E6E6" width="33" height="1"/>
				<rect x="353" y="147" fill="#E6E6E6" width="22" height="1"/>
				<rect x="353" y="148" fill="#E6E6E6" width="26" height="2"/>
			</g>
			<g>
				<rect x="389" y="147" fill="#E6E6E6" width="28" height="1"/>
				<rect x="389" y="148" fill="#E6E6E6" width="23" height="2"/>
				<rect x="389" y="143" fill="#E6E6E6" width="33" height="1"/>
			</g>
			<g>
				<rect x="424" y="147" fill="#E6E6E6" width="23" height="1"/>
				<rect x="424" y="148" fill="#E6E6E6" width="27" height="2"/>
				<rect x="424" y="143" fill="#E6E6E6" width="33" height="1"/>
			</g>
			<polygon fill="#E6E6E6" points="352.9,153 375.7,153 375.7,153 			"/>
			<polygon fill="#E6E6E6" points="353.3,155 386.3,155 386.3,155 			"/>
			<g>
				<polygon fill="#E6E6E6" points="353.3,166 386.3,166 386.3,166 				"/>
				<rect x="353" y="169" fill="#E6E6E6" width="22" height="1"/>
				<rect x="353" y="170" fill="#E6E6E6" width="26" height="3"/>
			</g>
			<rect x="353" y="175" fill="#E6E6E6" width="22" height="1"/>
			<polygon fill="#E6E6E6" points="353.3,177 386.3,177 386.3,177 			"/>
			<g>
				<polygon fill="#E6E6E6" points="389.3,166 422.3,166 422.3,166 				"/>
				<rect x="389" y="169" fill="#E6E6E6" width="23" height="1"/>
				<rect x="389" y="170" fill="#E6E6E6" width="26" height="3"/>
			</g>
			<rect x="389" y="175" fill="#E6E6E6" width="23" height="1"/>
			<polygon fill="#E6E6E6" points="389.3,177 421.3,177 421.3,177 			"/>
			<g>
				<polygon fill="#E6E6E6" points="424.3,166 457.3,166 457.3,166 				"/>
				<rect x="424" y="169" fill="#E6E6E6" width="23" height="1"/>
				<rect x="424" y="170" fill="#E6E6E6" width="26" height="3"/>
			</g>
			<rect x="424" y="175" fill="#E6E6E6" width="23" height="1"/>
			<polygon fill="#E6E6E6" points="424.3,177 456.3,177 456.3,177 			"/>
			<rect x="353" y="159" fill="#E6E6E6" width="33" height="2"/>
			<polygon fill="#E6E6E6" points="353.3,162 376,162 376,162 			"/>
			<rect x="353" y="163" fill="#E6E6E6" width="33" height="1"/>
			<polygon fill="#E6E6E6" points="389.1,153 411.9,153 411.9,153 			"/>
			<polygon fill="#E6E6E6" points="389.3,155 421.3,155 421.3,155 			"/>
			<rect x="389" y="159" fill="#E6E6E6" width="32" height="2"/>
			<rect x="424" y="159" fill="#E6E6E6" width="32" height="2"/>
			<polygon fill="#E6E6E6" points="388.7,162 411.4,162 411.4,162 			"/>
			<rect x="389" y="163" fill="#E6E6E6" width="32" height="1"/>
			<rect x="424" y="153" fill="#E6E6E6" width="22" height="2"/>
			<rect x="424" y="155" fill="#E6E6E6" width="33" height="1"/>
			<rect x="424" y="163" fill="#E6E6E6" width="33" height="1"/>
			<polygon opacity="0.3" fill="#FFFFFF" enable-background="new    " points="293.3,74 461,74 461,170.1 			"/>
			<rect x="297" y="165" fill="#D34658" width="49" height="12"/>
		</g>
		<g>
			<g>
				<g>
					<defs>
						<filter id="Adobe_OpacityMaskFilter_2_" filterUnits="userSpaceOnUse" x="63.2" y="196.7" width="123" height="11">
							<feColorMatrix  type="matrix" values="1 0 0 0 0  0 1 0 0 0  0 0 1 0 0  0 0 0 1 0"/>
						</filter>
					</defs>
					<mask maskUnits="userSpaceOnUse" x="63.2" y="196.7" width="123" height="11" id="SVGID_7_">
						<g filter="url(#Adobe_OpacityMaskFilter_2_)">
							
								<radialGradient id="SVGID_8_" cx="124.7" cy="-262.1544" r="61.512" gradientTransform="matrix(1 0 0 -8.930000e-002 0 178.8094)" gradientUnits="userSpaceOnUse">
								<stop  offset="0" style="stop-color:#FFFFFF"/>
								<stop  offset="1" style="stop-color:#14130A"/>
							</radialGradient>
							<path fill="url(#SVGID_8_)" d="M186.2,202.2c0,3-27.5,5.5-61.5,5.5s-61.5-2.5-61.5-5.5s27.5-5.5,61.5-5.5
								S186.2,199.2,186.2,202.2z"/>
						</g>
					</mask>
					
						<linearGradient id="SVGID_9_" gradientUnits="userSpaceOnUse" x1="124.7157" y1="2.2972" x2="124.6846" y2="13.1796" gradientTransform="matrix(1 0 0 -1 0 210)">
						<stop  offset="0" style="stop-color:#4D4848"/>
						<stop  offset="0.3539" style="stop-color:#14130A"/>
						<stop  offset="1" style="stop-color:#14130A"/>
					</linearGradient>
					<path display="none" opacity="0.33" mask="url(#SVGID_7_)" fill="url(#SVGID_9_)" enable-background="new    " d="M186.2,202.2
						c0,3-27.5,5.5-61.5,5.5s-61.5-2.5-61.5-5.5s27.5-5.5,61.5-5.5S186.2,199.2,186.2,202.2z"/>
					<g>
						
							<linearGradient id="SVGID_10_" gradientUnits="userSpaceOnUse" x1="86.5284" y1="13.65" x2="164.1358" y2="13.65" gradientTransform="matrix(1 0 0 -1 0 210)">
							<stop  offset="6.060610e-003" style="stop-color:#58595B"/>
							<stop  offset="0.2803" style="stop-color:#757679"/>
							<stop  offset="0.5091" style="stop-color:#88898D"/>
							<stop  offset="1" style="stop-color:#58595B"/>
						</linearGradient>
						<path display="none" fill="url(#SVGID_10_)" d="M87,195v-0.3c0,0,0,0,0,0.1l0,0c0,1.4,2.2,3.2,8.2,3.2c11.6,0,24.3,0,28.9,0
							c1.2,0,1.8,0,1.8,0c4.6,0,17.2,0,28.9,0c6,0,8.1-1,8.1-3h-0.6l0,0H87z"/>
						<path fill="#FFFFFF" d="M155.2,187c-5.4-5.5-5.6-17-5.6-17h-24.1h-1.8H99.5c0,0-0.2,11.6-5.6,17c-5.4,5.5-13.8,10,0.8,10
							c11.6,0,24.3,0,28.9,0c1.2,0,1.8,0,1.8,0c4.6,0,17.2,0,28.9,0C168.9,197,160.5,192.5,155.2,187z"/>
						
							<radialGradient id="SVGID_11_" cx="161.5449" cy="-0.2029" r="28.9267" gradientTransform="matrix(1 0 0 -1 0 210)" gradientUnits="userSpaceOnUse">
							<stop  offset="0" style="stop-color:#FFFFFF"/>
							<stop  offset="1" style="stop-color:#FFFFFF;stop-opacity:0"/>
						</radialGradient>
						<path fill="url(#SVGID_11_)" d="M129.4,197c3-6,12.5-12.2,24.3-13.4c0.5,0.9,1.2,1.9,1.9,2.6c5.3,5.4,13.5,10.8-0.1,10.8
							L129.4,197L129.4,197z"/>
						
							<radialGradient id="SVGID_12_" cx="682.524" cy="-0.2029" r="28.9267" gradientTransform="matrix(-1 0 0 -1 770.9258 210)" gradientUnits="userSpaceOnUse">
							<stop  offset="0" style="stop-color:#FFFFFF"/>
							<stop  offset="1" style="stop-color:#FFFFFF;stop-opacity:0"/>
						</radialGradient>
						<path fill="url(#SVGID_12_)" d="M120.6,197c-3-6-12.5-12.2-24.3-13.4c-0.5,0.9-1.2,1.9-1.9,2.6c-5.3,5.4-13.5,10.8,0.1,10.8
							L120.6,197L120.6,197z"/>
						<path fill="#FFFFFF" d="M94.4,196.5c5-0.1,10.1-0.1,15.1-0.2h15.1h15.1l7.5,0.1l7.5,0.1l-7.5,0.1l-7.5,0.1h-15.1h-15.1
							C104.5,196.6,99.5,196.6,94.4,196.5z"/>
						<path fill="#FFFFFF" d="M1,161.7c0,4,3.9,8.3,8,8.3h113h3.8h113.1c4,0,7.1-4.3,7.1-8.3V147H1V161.7z"/>
						<path fill="#F2F2F2" d="M238.9,2h-113H122H9C5,2,1,4.1,1,8.1V147h245V8.1C246,4.1,243,2,238.9,2z M235,137H11V11h224V137z"/>
						<path fill="#FFFFFF" d="M1,160.9c0,4,3.9,9.1,8,9.1h113h3.8h113.1c4,0,7.1-5.1,7.1-9.1V147H1V160.9z"/>
					</g>
				</g>
				<rect x="11" y="25" fill="#C0392B" width="224" height="43"/>
				<g>
					<rect x="85" y="34" fill="#FFFFFF" width="19" height="6"/>
					<rect x="106" y="34" fill="#FFFFFF" width="116" height="6"/>
				</g>
				<rect x="85" y="46" fill="#F4D03F" width="137" height="2"/>
				<rect x="85" y="54" fill="#F4D03F" width="137" height="2"/>
				<rect x="52" y="72" fill="#D64541" width="29" height="59"/>
				<rect x="18" y="72" fill="#D64541" width="29" height="59"/>
				<rect x="90" y="76" fill="#C0392B" width="44" height="26"/>
				<rect x="137" y="76" fill="#C0392B" width="44" height="26"/>
				<rect x="185" y="76" fill="#C0392B" width="44" height="26"/>
				<g>
					<rect x="90" y="105" fill="#E6E6E6" width="44" height="2"/>
					<rect x="90" y="109" fill="#E6E6E6" width="30" height="2"/>
					<rect x="90" y="112" fill="#E6E6E6" width="36" height="2"/>
				</g>
				<g>
					<rect x="137" y="109" fill="#E6E6E6" width="38" height="2"/>
					<rect x="137" y="112" fill="#E6E6E6" width="30" height="2"/>
					<rect x="137" y="105" fill="#E6E6E6" width="44" height="2"/>
				</g>
				<g>
					<rect x="185" y="109" fill="#E6E6E6" width="30" height="2"/>
					<rect x="185" y="112" fill="#E6E6E6" width="35" height="2"/>
					<rect x="185" y="105" fill="#E6E6E6" width="44" height="2"/>
				</g>
				<rect x="90" y="118" fill="#E6E6E6" width="29" height="1"/>
				<rect x="90" y="120" fill="#E6E6E6" width="43" height="2"/>
				<rect x="90" y="126" fill="#E6E6E6" width="43" height="2"/>
				<rect x="90" y="129" fill="#E6E6E6" width="29" height="2"/>
				<rect x="90" y="132" fill="#E6E6E6" width="43" height="1"/>
				<rect x="137" y="118" fill="#E6E6E6" width="30" height="1"/>
				<rect x="137" y="120" fill="#E6E6E6" width="43" height="2"/>
				<rect x="137" y="126" fill="#E6E6E6" width="43" height="2"/>
				<rect x="137" y="129" fill="#E6E6E6" width="30" height="2"/>
				<rect x="137" y="132" fill="#E6E6E6" width="43" height="1"/>
				<rect x="185" y="118" fill="#E6E6E6" width="29" height="1"/>
				<rect x="185" y="121" fill="#E6E6E6" width="42" height="2"/>
				<rect x="185" y="127" fill="#E6E6E6" width="42" height="1"/>
				<rect x="185" y="130" fill="#E6E6E6" width="29" height="1"/>
				<rect x="185" y="132" fill="#E6E6E6" width="42" height="2"/>
				<polygon opacity="0.3" fill="#FFFFFF" enable-background="new    " points="12.6,11 235,11 235,137 				"/>
				<path fill="#F4D03F" stroke="#F2F2F2" stroke-miterlimit="10" d="M52.4,56.1l-6.6,3.8c-2.3,1.3-5,1.3-7.3,0L32,56.2
					c-2.3-1.3-3.7-3.7-3.7-6.3v-7.6c0-2.6,1.4-5,3.6-6.3l6.6-3.8c2.3-1.3,5-1.3,7.3,0l6.6,3.8c2.3,1.3,3.7,3.7,3.7,6.3v7.6
					C56.1,52.4,54.7,54.8,52.4,56.1z"/>
			</g>
		</g>
	</g>
</g>
<g id="Layer_2" display="none">
	<g display="inline">
		<path fill="#FFFFFF" d="M362.1,96c-2.2-2.3-2.3-7-2.3-7h-10.1h-0.8h-10.1c0,0-0.1,4.7-2.3,7c-2.2,2.3-5.8,4,0.3,4
			c4.9,0,10.2,0,12.1,0c0.5,0,0.8,0,0.8,0c1.9,0,7.2,0,12.1,0C367.8,100,364.3,98.3,362.1,96z"/>
		<path fill="#F2F2F2" d="M397.2,18h-47.4h-1.6h-47.4c-1.7,0-2.8,0.7-2.8,2.4V79h102V20.4C400,18.7,398.9,18,397.2,18z M396,75h-94
			V22h94V75z"/>
		<path fill="#FFFFFF" d="M298,84.4c0,1.7,1.1,4.6,2.8,4.6h47.4h1.6h47.4c1.7,0,2.8-2.9,2.8-4.6V79H298V84.4z"/>
		<polygon opacity="0.3" fill="#FFFFFF" points="302.3,22 396,22 396,74.4 		"/>
		<path fill="#F2F2F2" d="M584.6,46.6l-2.6-2.6l1.3-1.3l2.6,2.6L584.6,46.6z M604.9,68.7c-5-4.4-15.7-13-20-16.9l-0.6,1.6l19.3,16.6
			L604.9,68.7z M583.8,55l-0.6,1.7l18.3,15.4l1.3-1.3C596.5,65.6,586.6,57.7,583.8,55z M603.8,76.2l-19.5,19.6h2.4
			c4.4-4.4,12.9-13.1,18.3-18.5L603.8,76.2z M580.4,95.8h2.3c5.1-5.2,15.4-15.7,20.1-20.6l-1.2-1.2L580.4,95.8z M605.4,69.1
			l-1.2,1.2l-0.9,0.9l-1.3,1.3l-0.5,0.5l0.6,0.6l1.2,1.2l1,1l1.2,1.2l0.6,0.6l4.5-4.5l-4.5-4.5L605.4,69.1z M566.4,49.3l13,13
			l1.8-1.8l1.5-4.2l0.5-1.6l0.6-1.8l0.6-1.6l1-3l-1.2-1.2l-2.6-2.6l-1.2-1.2l-12.2,4.2L566.4,49.3z M592.1,96.4h-6h-2.4h-1.6h-2.3
			h-4.7v2.5h17V96.4z"/>
		<g>
			<path fill="#F2F2F2" d="M546.7,94.2c0,1.2-0.7,2.1-1.6,2.1h-65.6c-0.9,0-1.6-0.9-1.6-2.1V52.1c0-1.2,0.7-2.1,1.6-2.1h65.6
				c0.9,0,1.6,0.9,1.6,2.1V94.2z"/>
			<rect x="480.1" y="52.3" fill="#F1C40F" width="63.8" height="41"/>
			<rect x="480.7" y="52.6" fill="none" width="63.5" height="39.1"/>
			<g>
				<g>
					<path fill="#FFFFFF" d="M466.3,97c0,0-0.6,1.1,3.5,2h85.1c0,0,2.8-0.2,3.6-1.5l0-0.7L466.3,97z"/>
					<path fill="#FFFFFF" d="M466.3,94.8h92.2v2.4c0,0,0.1,0.3-0.9,0.2h-90.4c0,0-0.8,0.2-0.9-0.3L466.3,94.8z"/>
					<path fill="#FFFFFF" d="M554.2,96.2c0,0.1-0.1,0.2-0.1,0.2h-3.1c-0.1,0-0.1-0.1-0.1-0.2l0,0c0-0.1,0.1-0.2,0.1-0.2h3.1
						C554.1,96,554.2,96.1,554.2,96.2L554.2,96.2z"/>
				</g>
				<path fill="#FFFFFF" d="M506.1,94.8c0,0-0.4,1.2,0.8,1.3h10.7c0,0,1.1,0.1,1-1.3L506.1,94.8z"/>
				<g>
					<path fill="#FFFFFF" d="M506.2,94.8L506.2,94.8L506.2,94.8l-0.1,0c0,0-0.3,1,0.7,1.2C505.9,95.8,506.2,94.8,506.2,94.8z"/>
					<path fill="#FFFFFF" d="M518.7,94.9l-0.1,0v0c0.1,1.3-1,1.2-1,1.2h-10.7c-0.1,0-0.1,0-0.2,0c0.1,0,0.2,0,0.3,0.1h10.7
						C517.7,96.1,518.8,96.3,518.7,94.9z"/>
					<path fill="#FFFFFF" d="M518.6,94.9L518.6,94.9L518.6,94.9C518.6,94.9,518.6,94.9,518.6,94.9z"/>
				</g>
			</g>
		</g>
		<path fill="#F2F2F2" d="M121.5,46.8l2.6-2.6l1.3,1.3l-2.6,2.6L121.5,46.8z M103.8,71.5l19.3-16.6l-0.6-1.6
			c-4.3,3.9-15,12.5-20,16.9L103.8,71.5z M104.7,72.4l1.3,1.3l18.3-15.4l-0.6-1.7C120.9,59.3,110.9,67.2,104.7,72.4z M102.5,78.9
			c5.3,5.4,13.9,14,18.3,18.5h2.4l-19.5-19.6L102.5,78.9z M105.8,75.6l-1.2,1.2c4.7,4.9,15.1,15.4,20.1,20.6h2.3L105.8,75.6z
			 M101.4,70l-4.5,4.5l4.5,4.5l0.6-0.6l1.2-1.2l1-1l1.2-1.2l0.6-0.6l-0.5-0.5l-1.3-1.3l-0.9-0.9l-1.2-1.2L101.4,70z M139.2,49
			L127,44.8l-1.2,1.2l-2.6,2.6l-1.2,1.2l1,3l0.6,1.6l0.6,1.8l0.5,1.6l1.5,4.2l1.8,1.8l13-13L139.2,49z M115.4,100.5h17V98h-4.7h-2.3
			h-1.6h-2.4h-6V100.5z"/>
		<g>
			<path fill="#F2F2F2" d="M230.2,95.8c0,1.2-0.7,2.1-1.6,2.1h-65.6c-0.9,0-1.6-0.9-1.6-2.1V53.7c0-1.2,0.7-2.1,1.6-2.1h65.6
				c0.9,0,1.6,0.9,1.6,2.1V95.8z"/>
			<rect x="163.6" y="53.9" fill="#F1C40F" width="63.8" height="41"/>
			<rect x="164.2" y="54.1" fill="none" width="63.5" height="39.1"/>
			<g>
				<g>
					<path fill="#FFFFFF" d="M149.8,98.5c0,0-0.6,1.1,3.5,2h85.1c0,0,2.8-0.2,3.6-1.5l0-0.7L149.8,98.5z"/>
					<path fill="#FFFFFF" d="M149.8,96.4H242v2.4c0,0,0.1,0.3-0.9,0.2h-90.4c0,0-0.8,0.2-0.9-0.3L149.8,96.4z"/>
					<path fill="#FFFFFF" d="M237.7,97.8c0,0.1-0.1,0.2-0.1,0.2h-3.1c-0.1,0-0.1-0.1-0.1-0.2l0,0c0-0.1,0.1-0.2,0.1-0.2h3.1
						C237.6,97.6,237.7,97.7,237.7,97.8L237.7,97.8z"/>
				</g>
				<path fill="#FFFFFF" d="M189.6,96.4c0,0-0.4,1.2,0.8,1.3h10.7c0,0,1.1,0.1,1-1.3L189.6,96.4z"/>
				<g>
					<path fill="#FFFFFF" d="M189.7,96.4L189.7,96.4L189.7,96.4l-0.1,0c0,0-0.3,1,0.7,1.2C189.4,97.4,189.7,96.4,189.7,96.4z"/>
					<path fill="#FFFFFF" d="M202.2,96.4l-0.1,0v0c0.1,1.3-1,1.2-1,1.2h-10.7c-0.1,0-0.1,0-0.2,0c0.1,0,0.2,0,0.3,0.1h10.7
						C201.2,97.7,202.3,97.8,202.2,96.4z"/>
					<path fill="#FFFFFF" d="M202.1,96.5L202.1,96.5L202.1,96.5C202.1,96.5,202.1,96.5,202.1,96.5z"/>
				</g>
			</g>
			<polygon opacity="0.3" fill="#FFFFFF" points="161.2,53 229,53 229,91.3 			"/>
		</g>
		<polygon opacity="0.3" fill="#FFFFFF" points="478.2,51 546,51 546,89.3 		"/>
		<path fill="#D64541" d="M100.2,107.6h5.2v84.9h-5.2V107.6z M238.7,192.5h5.2v-84.9h-5.2V192.5z M105.4,105.7h133.2h5.2h5.7v-5.2
			h-5.7h-5.2H94.5v5.2h5.7H105.4z M186.9,130.9h23.3v-5.2h-23.3V130.9z M186.9,174.6h23.3v-5.2h-23.3V174.6z M236,148.7h-5.2h-64.6
			h-5.2l0,0v-5.2l0,0v-30.6l0,0v-5.2h75v0.2v5v30.6V148.7z M230.8,143.5v-30.6h-64.6v30.6H230.8L230.8,143.5z M161.1,187.3v-30.6
			l0,0v-5.2h75v0.2v5v30.6v5.2h-5.2h-64.6h-5.2l0,0V187.3L161.1,187.3z M166.3,187.3h64.6v-30.6h-64.6V187.3z"/>
		<path fill="#D64541" d="M277.4,106.6h5.2v84.9h-5.2V106.6z M415.9,191.5h5.2v-84.9h-5.2V191.5z M282.6,104.7h133.2h5.2h5.7v-5.2
			h-5.7h-5.2H271.6v5.2h5.7H282.6z M364.1,129.9h23.3v-5.2h-23.3V129.9z M364.1,173.6h23.3v-5.2h-23.3V173.6z M413.2,147.7H408
			h-64.6h-5.2l0,0v-5.2l0,0v-30.6l0,0v-5.2h75v0.2v5v30.6V147.7z M408,142.5v-30.6h-64.6v30.6H408L408,142.5z M338.2,186.3v-30.6
			l0,0v-5.2h75v0.2v5v30.6v5.2H408h-64.6h-5.2l0,0V186.3L338.2,186.3z M343.4,186.3H408v-30.6h-64.6V186.3z"/>
		<path fill="#D64541" d="M457.5,106.6h5.2v84.9h-5.2V106.6z M596,191.5h5.2v-84.9H596V191.5z M462.7,104.7H596h5.2h5.7v-5.2h-5.7
			H596H451.8v5.2h5.7H462.7z M544.2,129.9h23.3v-5.2h-23.3V129.9z M544.2,173.6h23.3v-5.2h-23.3V173.6z M593.3,147.7h-5.2h-64.6
			h-5.2l0,0v-5.2l0,0v-30.6l0,0v-5.2h75v0.2v5v30.6V147.7z M588.1,142.5v-30.6h-64.6v30.6H588.1L588.1,142.5z M518.4,186.3v-30.6
			l0,0v-5.2h75v0.2v5v30.6v5.2h-5.2h-64.6h-5.2l0,0V186.3L518.4,186.3z M523.6,186.3h64.6v-30.6h-64.6V186.3z"/>
		<path fill="#C0392B" d="M415.6,191.5h5.2v-84.9h-5.2V191.5z M343.6,104.7h76.7h3h3.3v-5.2h-3.3h-3h-83v5.2h3.3H343.6z
			 M363.8,129.9h23.3v-5.2h-23.3V129.9z M363.8,173.6h23.3v-5.2h-23.3V173.6z M413,147.7h-5.2h-64.6H338l0,0v-5.2l0,0v-30.6l0,0
			v-5.2h75v0.2v5v30.6V147.7z M407.8,142.5v-30.6h-64.6v30.6H407.8L407.8,142.5z M338,186.3v-30.6l0,0v-5.2h75v0.2v5v30.6v5.2h-5.2
			h-64.6H338l0,0V186.3L338,186.3z M343.2,186.3h64.6v-30.6h-64.6V186.3z"/>
		<path fill="#C0392B" d="M238.6,192.5h5.2v-84.9h-5.2V192.5z M166.5,105.7h76.7h3h3.3v-5.2h-3.3h-3h-83v5.2h3.3H166.5z
			 M186.8,130.9h23.3v-5.2h-23.3V130.9z M186.8,174.6h23.3v-5.2h-23.3V174.6z M236,148.7h-5.2h-64.6H161l0,0v-5.2l0,0v-30.6l0,0
			v-5.2h75v0.2v5v30.6V148.7z M230.8,143.5v-30.6h-64.6v30.6H230.8L230.8,143.5z M161,187.3v-30.6l0,0v-5.2h75v0.2v5v30.6v5.2h-5.2
			h-64.6H161l0,0V187.3L161,187.3z M166.2,187.3h64.6v-30.6h-64.6V187.3z"/>
		<path fill="#C0392B" d="M596,191.5h5.2v-84.9H596V191.5z M523.9,104.7h76.7h3h3.3v-5.2h-3.3h-3h-83v5.2h3.3H523.9z M544.2,129.9
			h23.3v-5.2h-23.3V129.9z M544.2,173.6h23.3v-5.2h-23.3V173.6z M593.3,147.7h-5.2h-64.6h-5.2l0,0v-5.2l0,0v-30.6l0,0v-5.2h75v0.2v5
			v30.6V147.7z M588.1,142.5v-30.6h-64.6v30.6H588.1L588.1,142.5z M518.3,186.3v-30.6l0,0v-5.2h75v0.2v5v30.6v5.2h-5.2h-64.6h-5.2
			l0,0V186.3L518.3,186.3z M523.5,186.3h64.6v-30.6h-64.6V186.3z"/>
	</g>
</g>
<g id="Layer_3">
	<g>
		<g id="champagne1" display="none">
			<path display="inline" fill="#FFFFFF" d="M73.4,233.3c-12.6-2.5-14.2-10.8-14.8-15.9c-0.2-1.5-0.8-38.8-0.8-51.9
				c0-3.9,0.4-7.5,9.7-17.2C100.3,114,81,19,81,19H54.5H28.1c0,0-19.3,95,13.4,129.3c9.3,9.7,9.7,13.3,9.7,17.1
				c0,13.1-0.6,50.4-0.8,51.9c-0.6,5.1-2.2,13.4-14.8,15.9c-12.8,2.6-16.1,4.4-16.1,5.6c0,2.3,18.8,5.8,33.7,5.8c0.4,0,0.9,0,1.3,0
				c0.4,0,0.9,0,1.3,0c14.9,0,33.7-3.5,33.7-5.8C89.5,237.7,86.2,235.9,73.4,233.3z"/>
			<path display="inline" fill="#F2F2F2" d="M73.4,233.3c-12.6-2.5-14.2-10.8-14.8-15.9c-0.2-1.5-0.8-38.8-0.8-51.9
				c0-3.9,0.4-7.5,9.7-17.2C100.3,114,81,19,81,19H54.5c4,1-5.1,225.5-1.3,225.3c0.4,0,0.9,0.2,1.3,0.2c0.4,0,0.9,0.1,1.3,0.1
				c14.9,0,33.7-3.5,33.7-5.7C89.5,237.6,86.2,235.9,73.4,233.3z"/>
			<path display="inline" fill="#F4AF00" d="M81.4,64H27.7c-0.1,2-0.3,4.9-0.3,7.6c-0.4,15.8,0.6,29.5,3,41.1
				c1.2,5.7,2.7,10.8,4.5,15.3c0.7,2.4,1.8,4.7,3.1,6.7c3.8,5.8,9.8,9.5,16.6,9.5c7,0,13.3-4.1,17-10.3c1-1.6,1.8-3.4,2.4-5.2
				c2-4.8,3.5-10.1,4.8-16.2c2.4-11.6,3.4-25.1,3-40.8C81.6,69,81.5,66,81.4,64z"/>
			<path display="inline" fill="#F7CA18" d="M81.4,64H53.7c0,0-6,80.7,0.8,80.7c7,0,13.3-4.3,17-10.5c1-1.6,1.8-3.5,2.4-5.4
				c2-4.8,3.5-10.2,4.8-16.2c2.4-11.6,3.4-25.1,3-40.8C81.6,69,81.5,66,81.4,64z"/>
			<ellipse fill="#F2DFA8" cx="35.2" cy="63.2" rx="26.8" ry="1.7"/>
			<g opacity="0.3">
				<ellipse display="inline" fill="#F8F0D4" cx="25.2" cy="83.2" rx="1" ry="1.2"/>
				<ellipse display="inline" fill="#F8F0D4" cx="45.1" cy="119.8" rx="1" ry="1.2"/>
				<ellipse display="inline" fill="#F8F0D4" cx="42.3" cy="95.8" rx="1" ry="1.2"/>
				<ellipse display="inline" fill="#F8F0D4" cx="35.2" cy="115.3" rx="1" ry="1.2"/>
				<ellipse display="inline" fill="#F8F0D4" cx="37.7" cy="123.4" rx="1" ry="1.2"/>
				<ellipse display="inline" fill="#F8F0D4" cx="29.6" cy="73.9" rx="1.4" ry="1.6"/>
				<ellipse display="inline" fill="#F8F0D4" cx="35.8" cy="77.1" rx="1.4" ry="1.6"/>
				<ellipse display="inline" fill="#F8F0D4" cx="37.2" cy="138.6" rx="1.4" ry="1.6"/>
				<ellipse display="inline" fill="#F8F0D4" cx="35.3" cy="105.4" rx="1.4" ry="1.6"/>
				<ellipse display="inline" fill="#F8F0D4" cx="50.4" cy="80.5" rx="1.4" ry="1.6"/>
				<ellipse display="inline" fill="#F8F0D4" cx="28.8" cy="115.4" rx="1.4" ry="1.6"/>
				<ellipse display="inline" fill="#F8F0D4" cx="29.5" cy="90.8" rx="0.6" ry="0.7"/>
				<ellipse display="inline" fill="#F8F0D4" cx="38.2" cy="84.5" rx="0.6" ry="0.7"/>
				<ellipse display="inline" fill="#F8F0D4" cx="20.8" cy="69.1" rx="0.6" ry="0.7"/>
				<ellipse display="inline" fill="#F8F0D4" cx="42.2" cy="127.8" rx="0.6" ry="0.7"/>
				<ellipse display="inline" fill="#F8F0D4" cx="26.3" cy="100.6" rx="0.6" ry="0.7"/>
				<ellipse display="inline" fill="#F8F0D4" cx="31.6" cy="127.8" rx="0.6" ry="0.7"/>
				<ellipse display="inline" fill="#F8F0D4" cx="32.3" cy="140.9" rx="0.6" ry="0.7"/>
			</g>
			<path opacity="0.6" fill="#FFFFFF" d="M16.2,19c0,0-8.5,83.9-0.4,106.5c8.1,22.6,13.9,25.8,13.9,25.8s-10.5-22.7-10.2-51.5
				C19.8,70.9,23.4,19,23.4,19H16.2z"/>
			<ellipse fill="#FFFFFF" cx="35.2" cy="19.4" rx="26.4" ry="1.3"/>
		</g>
		<ellipse fill="none" stroke="#F4AF00" stroke-width="5" stroke-miterlimit="10" cx="103" cy="83.7" rx="56.7" ry="57.4"/>
		<path fill="#F7CA18" d="M127.8,114.6c0-0.6-2.7-10.3-5.4-19.8l2.7-3c0.9-1,0.8-2.6-0.2-3.5c-1-0.9-2.6-0.8-3.5,0.2l-0.6,0.7
			c-2.1-7.2-3.3-12.7-3.3-12.7s6.7-6.8,13.3-14c6.6-7.2-1.5-14.5-7.9-7.1c-6.4,7.4-12.4,14.8-12.4,14.8s-5.6-0.6-13-1.8l0.6-0.7
			c0.9-1,0.8-2.6-0.2-3.5c-1-0.9-2.6-0.8-3.5,0.2l-2.7,3C81.8,65.6,71.8,64,71.2,64c-1.2,0.2-5.6,2.4-5.4,3.1
			c0.1,0.3,6.7,2.3,13.6,4.5l0.9,0.3c0.6,0.2,1.3,0.4,1.9,0.6l0.9,0.3c1.3,0.4,2.6,0.8,3.8,1.2l0.9,0.3c1.3,0.4,2.5,0.8,3.5,1.2
			l0.9,0.3c1.5,0.5,2.4,0.9,2.7,1.2c1.5,1.4,5.1,4.6,5.1,4.6S89.7,94,87.5,97.4c-0.8,1.3-1.9,3.2-3,5.1c-3.7-0.6-9.3-1.5-10.4-1.5
			c-1.6-0.1-3-0.2-3.4,0.3c-0.5,0.5-1.8,1.3-1.2,1.6c0.5,0.3,9.2,4,12.3,5.3c-0.2,0.6-0.3,1-0.2,1.1c0.1,0.1,0.5,0,1.1-0.3
			c1.6,2.9,6.4,11.2,6.7,11.6c0.4,0.5,1-0.8,1.4-1.4c0.4-0.5,0.2-1.8-0.1-3.5c-0.2-1.1-1.7-6.6-2.7-10.2c1.8-1.3,3.6-2.6,4.8-3.5
			c3.1-2.5,14.4-14.4,14.4-14.4s3.6,3.2,5.1,4.6c0.3,0.2,0.8,1.2,1.5,2.6l0.4,0.9c0.5,1,1,2.1,1.5,3.4l0.4,0.9
			c0.5,1.1,1.1,2.4,1.6,3.6l0.4,0.9c0.3,0.6,0.5,1.2,0.8,1.9l0.4,0.9c2.9,6.7,5.6,13,6,13C126,120.4,127.8,115.7,127.8,114.6z"/>
		<path fill="#F4AF00" d="M128.3,114c0-0.6-2.8-10.3-5.5-19.8l2.7-3.1c0.9-1,0.8-2.6-0.2-3.6c-1-0.9-2.6-0.8-3.6,0.2l-0.6,0.7
			c-2.1-7.2-3.4-12.7-3.4-12.7s6.6-6.8,13.2-14.1c2-2.2,3.9-12.3-1.9-5.6c-12.3,14.2-46.2,52.2-46.9,51.8c-0.2,0.6-0.3,1-0.2,1.1
			c0.1,0.1,0.5,0,1.1-0.3c1.7,2.9,6.4,11.1,6.8,11.6c0.4,0.5,1-0.8,1.4-1.4c0.4-0.5,0.2-1.8-0.1-3.5c-0.2-1.1-1.7-6.6-2.7-10.2
			c1.8-1.3,3.6-2.6,4.7-3.6c3.1-2.6,14.3-14.5,14.3-14.5s3.6,3.2,5.2,4.6c0.3,0.2,0.8,1.2,1.5,2.6l0.4,0.9c0.5,1,1,2.1,1.6,3.4
			l0.4,0.9c0.5,1.1,1.1,2.4,1.6,3.6l0.4,0.9c0.3,0.6,0.5,1.2,0.8,1.9l0.4,0.9c2.9,6.6,5.7,13,6,13
			C126.5,119.9,128.3,115.2,128.3,114z"/>
		<ellipse fill="none" stroke="#F4AF00" stroke-width="5" stroke-miterlimit="10" cx="354.8" cy="148.9" rx="56.7" ry="57.4"/>
		<g display="none">
			<g display="inline">
				<path fill="#F7CA18" d="M355.2,102.7c0,0,3.2,0.3,5,2.2c1.8,1.9,1.1,4.4,0.7,6.1c0,0-1,3-1.1,3.2c0,0.2-0.2-2.4-0.5-3.2
					c-0.4-0.8,0.2-2.9-1.1-3.7c-1.3-0.8-3.1-0.5-3.1-0.5s-2.6-0.7-3.9,0.7c-1.2,1.4-0.5,2.5-0.7,3.6c-0.2,1.1-0.3,2.5-0.3,2.5
					s-0.5-3.1-0.6-4.3C349.6,108.2,348.4,103.9,355.2,102.7z"/>
				<path fill="#F7CA18" d="M352,118.2c0,0-0.2,1.2,0.5,2.1c0.7,0.9,2.4,2.4,2.9,2.2c0.5-0.1,3.8-3.2,4-4c0.2-0.8-0.1-1-0.1-1
					s1.3,1.1,1.4,1.4c0.1,0.3,0.1,0.6,0.1,0.6s4.7,0.4,6.6,1.9c1.9,1.5,3.2,6.2,3.8,9.7c0.6,3.5,0.9,8.2-0.6,9.6
					c-1.5,1.4-4.1,1.4-4.1,1.4s-2.2,0.3-2.4-0.3c-0.2-0.6,0.4-1.7-0.1-2.9c-0.5-1.3-1-3.2-0.6-3.9l1.2-0.3c0,0-0.4-1.5-1.6-1.5
					c-1.2,0-1.5,1.5-2.9,1.5c-1.4,0-4.2-0.8-4.2-0.8l-0.1-8.2l-0.3-0.8l0.6-1.1l1.6-1.1l-0.5-0.6l-1.5,1.2H355l-1.4-0.9l-0.6,0.7
					l1.4,0.8l-0.2,0.7l-0.6,1.1l-0.7,7.5c0,0-2-0.4-3.2,0.1c-1.3,0.4-2.1,1.8-2,2.7c0,0-0.1,0.7,0.9,0.6c0,0-0.3,6-0.3,6.2
					c0,0.1-1.5,0.5-3.1,0.2c-1.5-0.3-3.1-2.2-3.4-4c-0.3-1.7-0.2-6.9,0.1-8.9c0.3-2.1,0.8-6.3,2.7-7.1c2-0.8,4.7-1.4,5.4-2.1
					C350.9,119.9,351.8,118.2,352,118.2z"/>
				<path fill="#F7CA18" d="M364.3,141.4c0,0-3.3-0.9-5.5-2.1c-2.2-1.1-4.4-2.2-4.8-2.2c-0.3,0-3.9-1.2-5.6-0.7l0,0.2
					c0,0,2.9-0.4,5.6,0.9c2.7,1.2,7.8,4.4,10.3,4.3C366.8,141.5,364.3,141.4,364.3,141.4z"/>
				<path fill="#F7CA18" d="M363.8,134.8c0,0-2.9-0.3-4-0.6l-0.2,0.3l4.3,0.8C363.9,135.3,363.7,134.8,363.8,134.8z"/>
				<path fill="#F7CA18" d="M348.1,142.1c0,0,3.8,0.1,7-0.7c3.2-0.8,4.3-1.5,4.3-1.5l0.5,0.2c0,0-2.4,1.3-5.1,1.8
					c-2.7,0.5-7.1,0.8-7.1,0.8L348.1,142.1z"/>
			</g>
		</g>
		<ellipse fill="none" stroke="#F4AF00" stroke-width="5" stroke-miterlimit="10" cx="624.9" cy="61.6" rx="56.7" ry="57.4"/>
		<g>
			<path fill-rule="evenodd" clip-rule="evenodd" fill="#F4AF00" d="M331.1,125l15.7-3.6c1.9-0.4,3.8,0.8,4.2,2.6l12,52.9
				c0.4,1.9-0.8,3.8-2.6,4.2l-29.3,6.7v-56.8l3.2-0.7c0.7-0.1,1.1-0.8,0.9-1.5v0c-0.1-0.7-0.8-1.1-1.5-0.9l-2.6,0.6V125z M313.4,129
				l17.7-4v3.4l-3.2,0.7c-0.7,0.1-1.1,0.8-0.9,1.5v0c0.1,0.7,0.8,1.1,1.5,0.9l2.6-0.6v56.8l-4.1,0.9c-1.9,0.4-3.8-0.8-4.2-2.6
				l-12-52.9C310.4,131.3,311.5,129.4,313.4,129z"/>
			<path fill="#F7CA18" d="M372,105.6c2.1,0.8,4.1,1.8,6.1,3c8.2,5,15,13.8,18.4,28.1c0,0.1,0,0.1,0.2,0.7
				c1.5,6.7,2.9,16.5,2.2,24.9c-0.7,9.1-3.9,16.8-11.6,18.6c0,0-0.1,0-0.1,0l0,0l0,0l0,0c-5.6,1.3-10.8-1.3-15.1-5.8V170
				c2.2,3.1,4.8,5.7,7.6,7.2c-0.7-0.9-1.1-2.1-1.4-3.5c-0.9-3.8-0.5-9.1-0.2-14.5c0.6-10.2,1.3-20.8-6-21.2v-2.6c0.4,0,0.8,0,1.3,0
				c9,0.4,8.3,11.9,7.6,22.8c-0.3,5.3-0.6,10.4,0.2,14c0.7,3.3,2.4,5.1,6,4.3c5.3-1.2,7.2-7,7.3-14.1c0.2-7.7-1.7-16.7-3.4-23.2
				c-4.2-16.4-11.3-24-19.1-26.8v-3.1c0.8,0.2,1.6,0.5,2.4,0.8c-0.8-0.4-1.6-0.8-2.4-1.2V105.6z M326.8,121c0.8-0.1,1.2,0.4,1,1.1
				c-0.2,0.7-1.1,1.4-1.9,1.5c-1.8,0.2-3.1-0.3-3.9-1.3c-0.5-0.7-0.8-1.6-0.7-2.7c0.1-1.1,0.5-2.3,1.3-3.6c0,0,0-0.1,0.1-0.1
				c2.5-4.1,8.8-8.9,20.7-11.5c9-2,19.3-2.2,28.7,1.3v3.3c-9.4-4.2-20-4.1-29.2-2.1c-10.3,2.3-15.6,6.1-17.6,9.3c0,0,0,0,0,0.1
				c-0.5,0.9-0.8,1.7-0.8,2.4c-0.1,0.7,0.1,1.3,0.4,1.7C325.2,120.8,325.9,121.1,326.8,121L326.8,121z M372,175.2
				c-2.2-2.3-4.1-5.1-5.7-8.2c-2.1-4.1-3.7-8.6-4.4-12.8c-0.7-4.3-0.6-8.4,0.5-11.6c1.5-4.2,4.6-7,9.6-7.1v2.6c0,0,0,0-0.1,0
				c-3.6-0.2-5.7,1.5-6.7,4.3c-1,2.8-1.1,6.5-0.4,10.5c0.7,4.1,2.2,8.4,4.2,12.4c0.9,1.7,1.9,3.3,2.9,4.8V175.2L372,175.2z
				 M372,112.5v-3.1c-5.4-1.4-11-0.9-16.4,0.5c-7.1,1.8-13.5,5.1-18.1,7.5c-2.4,1.2-4.3,2.2-5.1,2.4c-0.8,0.2-1.6,0.9-1.7,1.6
				c-0.1,0.7,0.4,1.1,1.2,0.9c1.4-0.3,3.5-1.4,6.2-2.8c4.4-2.3,10.6-5.4,17.1-7.1C360.7,110.9,366.5,110.5,372,112.5z"/>
			
				<rect x="316.3" y="144.1" transform="matrix(-0.975 0.2222 -0.2222 -0.975 699.8068 231.3606)" fill-rule="evenodd" clip-rule="evenodd" fill="#F2F2F2" width="41.2" height="21.9"/>
			<path fill-rule="evenodd" clip-rule="evenodd" fill="#F7CA18" d="M341.7,157.7c2,0.3,4.5,0.1,4.9,2.4c0.1,0.5,0,1.1-0.2,1.8
				l-4.7,1.1v-1.6l0.9-0.6l-0.9-1.6V157.7L341.7,157.7z M341.7,160.8l0.5-0.3l-0.5-1.1V160.8z M340.3,150.1c0.3,0.2,0.5,0.6,0.7,1
				c0.1,0.4,0.2,0.8,0.2,1.2c0,0.4-0.1,0.8-0.2,1.2c-0.1,0.3-0.3,0.5-0.5,0.6c0,0.2-0.1,0.5-0.2,0.7v-1.2c0.5-0.4,0.5-1.4,0.3-2.1
				c-0.1-0.3-0.2-0.4-0.3-0.6V150.1L340.3,150.1z M340.3,157.3c0.2,0.1,0.5,0.3,0.9,0.3c0.2,0,0.3,0.1,0.5,0.1v1.4l-0.6-1l0.6,1.3
				v1.4l-0.9,0.6l0.7,1.5l-0.3-1.3l0.5-0.3v1.6l-1.3,0.3V157.3z M338.8,147.5c0.5,0.4,0.9,1,1.1,1.8c0.1,0.2,0.2,0.5,0.3,0.8
				c0,0,0.1,0,0.1,0.1v0.8c-0.3-0.3-0.6-0.1-0.4,0.7c0.2,0.7,0.2,1.4,0.2,2.1c0.1,0,0.1-0.1,0.2-0.1v1.2c-0.2,0.5-0.4,1-0.7,1.4l0,0
				l0,0c0.1,0.4,0.4,0.8,0.8,1v5.9l-1.5,0.3v0l0.4-0.1l0,0l-0.4,0.1v-2.2c0.1,0.2,0.1,0.5,0.1,0.7c0.1,0.3,0.4,0.5,0.5,1
				c0.7-1.4,0.7-3.6,0.7-5.1c-0.4-0.3-0.7-0.6-0.9-1c-0.1,0.2-0.3,0.4-0.4,0.5v-1.6c0.1-0.1,0.2-0.2,0.2-0.3
				c0.9-1.6,0.3-4.2,0.1-4.9c0,0,0-0.1,0-0.1c-0.1-0.2-0.2-0.4-0.3-0.6V147.5L338.8,147.5z M338.8,160.7c0-0.1,0.1-0.3,0.1-0.4
				c0.1-0.1,0.3,0,0.6,0.2c0,0,0,0,0.1,0l-0.8-0.8V160.7z M337.7,146.7c0.4,0.2,0.8,0.4,1.1,0.7v2.5c-0.3-0.4-0.7-0.7-1.1-1V146.7
				L337.7,146.7z M338.8,163.5l-1.1,0.3V163c0.1,0.1,0.2,0.2,0.3,0.3c-0.1-0.5,0-0.8,0.1-1.1c-0.2-0.2-0.3-0.8-0.2-1
				c-0.1,0-0.1-0.1-0.2-0.1v-2.5l1.1,1.1v1c-0.1,0.2-0.1,0.3-0.2,0.4c0.1,0,0.1,0.1,0.2,0.2V163.5l-0.4,0.1l0,0L338.8,163.5
				L338.8,163.5L338.8,163.5z M338.8,155.9v1.6c-0.3,0.3-0.7,0.6-1.1,0.7v-1.6c0.1,0.1,0.1,0.1,0.2,0.1
				C338.2,156.6,338.6,156.2,338.8,155.9z M335.7,146.5c0.7-0.1,1.4,0,2,0.3v2.3c-0.2-0.1-0.4-0.2-0.7-0.3c-0.4,0.5-0.8,0.8-1.3,1
				V146.5L335.7,146.5z M337.7,163.8l-2,0.5v-1.5l0.2,0l0.3,1.3l0-1.7l-0.5,0v-2.3c0.5,1,1.2,2.2,2,3V163.8L337.7,163.8z
				 M337.7,156.6v1.6c-0.7,0.2-1.4,0.1-2-0.3v-1.1c0.3,0.1,0.7,0.2,1,0.2c0.2-0.1,0.1-0.7,0.5-0.7
				C337.4,156.2,337.5,156.4,337.7,156.6L337.7,156.6z M337.7,158.6L337.7,158.6l-0.9,2.6c0,0,0,0,0,0c0.1-0.3,0.3-0.5,0.4-0.5
				c0.1,0.2,0.3,0.3,0.4,0.4V158.6z M335.2,146.5c0.2,0,0.3-0.1,0.5-0.1v3.3c-0.2,0.1-0.3,0.2-0.5,0.2V146.5L335.2,146.5z
				 M335.7,164.2l-0.5,0.1v-1.6l0.5,0.1V164.2L335.7,164.2z M335.7,156.8v1.1c0,0-0.1-0.1-0.1-0.1c0,0.5-0.1,0.8-0.4,1.2
				c0.1,0.3,0.3,0.7,0.5,1v2.3l-0.5,0v-5.8C335.3,156.6,335.5,156.7,335.7,156.8z M333,159.9c0.4-0.2,0.8-0.5,1.1-0.7
				c0.7-0.5,0.9-1.2,0.9-1.9c0,0-0.1-0.1-0.1-0.1c0,0-0.1-0.1-0.1-0.1c-0.6-0.3-1.1-0.8-1.6-1.4c-0.1,0-0.1,0-0.2,0v-0.5
				c0.1,0,0.2,0.1,0.3,0.1c-0.1-0.2-0.2-0.4-0.3-0.6v-1.9c0.3,1.1,0.9,2.9,2.1,3.8c0,0,0,0,0.1,0v5.8l-0.7-0.1l-0.2-2.5l-0.2,2.9
				l1,0.1v1.6l-2.2,0.5V159.9L333,159.9z M333,147.6c0.6-0.5,1.4-0.9,2.2-1v3.5c-0.9,0.3-1.7,0.5-2.2,0.9V147.6z M332.6,160.2
				c0.1-0.1,0.3-0.2,0.4-0.2v4.9l-0.4,0.1V160.2L332.6,160.2z M333,155.7c-0.1,0-0.3-0.1-0.4-0.2v-0.6c0.1,0.1,0.3,0.2,0.4,0.3
				V155.7L333,155.7z M332.6,148c0.1-0.1,0.3-0.3,0.4-0.4v3.3c-0.2,0.2-0.3,0.4-0.2,0.8c0,0.1,0,0.1,0,0.2c0,0,0,0.1,0,0.1l0,0
				c0,0.1,0,0.1,0,0.2c0,0.1,0.1,0.3,0.2,0.6v1.9c-0.1-0.4-0.2-0.9-0.4-1.4c0-0.1,0-0.1-0.1-0.2V148z M331.2,165.3
				c-0.4-0.5-0.8-1-0.9-1.5c-0.5-1.8,0.9-2.7,2.3-3.6v4.8L331.2,165.3L331.2,165.3z M332.6,155.5c-0.1,0-0.1-0.1-0.2-0.1
				c-0.3-0.2-0.5-0.6-0.7-1c-0.2-0.4-0.3-0.8-0.3-1.2c0-0.5,0-0.9,0.2-1.3c0-0.1,0-0.1,0-0.2c-0.3-1.6,0.1-2.9,0.9-3.8v5.1
				c-0.3-1.2-0.7-0.3-0.7,0.3c0.1,0.6,0.3,1.2,0.7,1.5V155.5z"/>
			<g>
				
					<rect x="327.4" y="136.4" transform="matrix(-0.975 0.2222 -0.2222 -0.975 684.4288 200.3702)" fill-rule="evenodd" clip-rule="evenodd" fill="#F2F2F2" width="7" height="4.7"/>
				<circle fill-rule="evenodd" clip-rule="evenodd" fill="#F2F2F2" cx="320.8" cy="141" r="4.3"/>
				
					<rect x="336.2" y="133.6" transform="matrix(-0.975 0.2222 -0.2222 -0.975 707.5189 192.3)" fill-rule="evenodd" clip-rule="evenodd" fill="#F2F2F2" width="13.6" height="4.7"/>
			</g>
			
				<rect x="323.9" y="172.7" transform="matrix(-0.975 0.2222 -0.2222 -0.975 681.6592 270.9417)" fill-rule="evenodd" clip-rule="evenodd" fill="#FFFFFF" width="3.5" height="2.2"/>
			
				<rect x="329.2" y="171.2" transform="matrix(-0.975 0.2222 -0.2222 -0.975 694.7527 266.3787)" fill-rule="evenodd" clip-rule="evenodd" fill="#FFFFFF" width="6.4" height="2.2"/>
			
				<rect x="337.5" y="167.8" transform="matrix(-0.975 0.2222 -0.2222 -0.975 723.4732 256.3362)" fill-rule="evenodd" clip-rule="evenodd" fill="#FFFFFF" width="19.6" height="2.2"/>
			
				<rect x="324.6" y="175.4" transform="matrix(-0.975 0.2222 -0.2222 -0.975 693.5779 274.9935)" fill-rule="evenodd" clip-rule="evenodd" fill="#FFFFFF" width="13.4" height="2.2"/>
			
				<rect x="339.4" y="172.2" transform="matrix(-0.975 0.2222 -0.2222 -0.975 721.0167 265.4104)" fill-rule="evenodd" clip-rule="evenodd" fill="#FFFFFF" width="12.3" height="2.2"/>
			
				<rect x="353.1" y="169.9" transform="matrix(-0.975 0.2222 -0.2222 -0.975 740.0166 258.7729)" fill-rule="evenodd" clip-rule="evenodd" fill="#FFFFFF" width="4.7" height="2.2"/>
			<g>
				
					<rect x="325.5" y="179.9" transform="matrix(-0.975 0.2222 -0.2222 -0.975 690.0982 284.4254)" fill-rule="evenodd" clip-rule="evenodd" fill="#FFFFFF" width="7" height="2.2"/>
				
					<rect x="334.3" y="177.2" transform="matrix(-0.975 0.2222 -0.2222 -0.975 713.4801 276.2569)" fill-rule="evenodd" clip-rule="evenodd" fill="#FFFFFF" width="13.9" height="2.2"/>
			</g>
			<path fill-rule="evenodd" clip-rule="evenodd" fill="#C47900" d="M326.1,119.1l4.9-1.1c0.3-0.1,0.5,0.1,0.6,0.4l2.3,10.1
				c0.1,0.3-0.1,0.5-0.4,0.6l-4.9,1.1c-0.3,0.1-0.5-0.1-0.6-0.4l-2.3-10.1C325.7,119.5,325.9,119.2,326.1,119.1z"/>
		</g>
		<g display="none">
			<rect x="329.7" y="181.7" display="inline" fill-rule="evenodd" clip-rule="evenodd" fill="#F7CA18" width="51.8" height="6"/>
			
				<rect x="339.8" y="142.3" display="inline" fill-rule="evenodd" clip-rule="evenodd" fill="#F7CA18" width="31.6" height="45.4"/>
			<polygon display="inline" fill-rule="evenodd" clip-rule="evenodd" fill="#F7CA18" points="329.7,142.3 381.5,142.3 387,133.2 
				324.3,133.2 			"/>
			<rect x="339.8" y="142.3" display="inline" fill-rule="evenodd" clip-rule="evenodd" fill="#F4AF00" width="31.6" height="2.4"/>
			<rect x="339.8" y="179.3" display="inline" fill-rule="evenodd" clip-rule="evenodd" fill="#F4AF00" width="31.6" height="2.4"/>
		</g>
		<g display="none">
			<polygon display="inline" fill-rule="evenodd" clip-rule="evenodd" fill="#F4AF00" points="355.9,187.7 381.5,187.7 381.5,181.7 
				355.6,181.7 			"/>
			<polygon display="inline" fill-rule="evenodd" clip-rule="evenodd" fill="#F4AF00" points="355.9,187.7 371.4,187.7 371.4,142.3 
				355.4,142.3 			"/>
			<polygon display="inline" fill-rule="evenodd" clip-rule="evenodd" fill="#F4AF00" points="355.4,142.3 381.5,142.3 387,133.2 
				355.7,133.2 			"/>
			<rect x="339.8" y="142.3" display="inline" fill-rule="evenodd" clip-rule="evenodd" fill="#F4AF00" width="31.6" height="2.4"/>
			<rect x="339.8" y="179.3" display="inline" fill-rule="evenodd" clip-rule="evenodd" fill="#F4AF00" width="31.6" height="2.4"/>
		</g>
		<g>
			<g>
				<path fill="#FFFFFF" d="M655.3,86.4c0,2.2-1.8,4-4,4h-50.7c-2.2,0-4-1.8-4-4V47.2c0-2.2,1.8-4,4-4h50.7c2.2,0,4,1.8,4,4V86.4z"
					/>
				<path fill="#F2F2F2" d="M651.3,43.2h-21.5c-2.2,0-4,1.8-4,4v39.3c0,1.5,0,2.8,0,3.9h16.7v0.1h8.8c2.2,0,4-1.8,4-4V47.2
					C655.3,45,653.5,43.2,651.3,43.2z"/>
				<rect x="596.6" y="43.2" fill="#F2F2F2" width="58.7" height="4.6"/>
				<path display="none" fill="#FDA329" d="M639.9,37.9c0,1.6-1.3,2.9-2.9,2.9h-19.3c-1.6,0-2.9-1.3-2.9-2.9l0,0
					c0-1.6,1.3-2.9,2.9-2.9H637C638.6,35,639.9,36.3,639.9,37.9L639.9,37.9z"/>
			</g>
			<g>
				<path fill="#F7CA18" d="M610.4,60.2c0.4-0.2,0.9-0.4,1.3-0.6c0.4-0.2,0.8-0.4,1.3-0.7c0.4-0.3,0.9-0.6,1.3-1
					c0.5-0.4,1-1,1.5-1.7h5.5v17.5h2.9v4.1h-12.3v-4.1h3.1V62.1l-3.1,1.5L610.4,60.2z"/>
				<path fill="#F7CA18" d="M634.9,78.1c-0.8,0-1.6-0.1-2.3-0.3c-0.8-0.2-1.5-0.5-2.2-0.8c-0.7-0.3-1.3-0.8-1.9-1.2
					c-0.5-0.5-1-0.9-1.3-1.4l3.4-3.5c0.6,0.6,1.2,1.2,1.9,1.6c0.7,0.5,1.5,0.7,2.4,0.7c1,0,1.9-0.3,2.5-0.9c0.6-0.6,0.9-1.3,0.9-2.2
					c0-0.4-0.1-0.8-0.2-1.2c-0.2-0.4-0.4-0.7-0.7-1c-0.3-0.3-0.6-0.5-1-0.6c-0.4-0.2-0.8-0.2-1.2-0.2c-0.7,0-1.3,0.2-1.7,0.4
					c-0.4,0.3-0.8,0.6-1.2,1l-4-1.8l1.9-10.6h12.2v4.6h-8.3l-0.5,3c0.3-0.2,0.7-0.4,1.3-0.5c0.6-0.1,1.2-0.2,2-0.2
					c0.9,0,1.8,0.2,2.7,0.5c0.9,0.3,1.6,0.8,2.3,1.4c0.7,0.6,1.2,1.4,1.6,2.3c0.4,0.9,0.6,2,0.6,3.2c0,1.3-0.3,2.4-0.8,3.4
					c-0.5,1-1.3,1.8-2.1,2.4c-0.9,0.6-1.9,1.1-3,1.5C637.1,77.9,636,78.1,634.9,78.1z"/>
			</g>
		</g>
		<path fill="#F7CA18" d="M626,31h-27c-1.3,0-2.4,1.1-2.4,2.4v9.8H626V31z"/>
		<path fill="#F4AF00" d="M652.9,31h-27.3v12.2h29.7v-9.8C655.3,32.1,654.2,31,652.9,31z"/>
		<g>
			<g>
				<g>
					<g>
						<path fill="#D5202D" d="M651.3,66c0,0.1,0,0,0-0.2l-0.1-0.1L651.3,66z"/>
						<path fill="#D5202D" d="M651.2,64.6c0-0.2-0.1-0.5-0.1-0.4c0.1,0.2,0,0.3,0.1,0.6c0,0.2,0,0.4,0,0.3c0,0.1,0,0.3,0,0.4
							C651.3,65.3,651.3,64.9,651.2,64.6C651.2,64.5,651.2,64.6,651.2,64.6z"/>
						<path fill="#D5202D" d="M640,48.1l0.1,0.1C640.1,48.1,640,48.1,640,48.1z"/>
						<path fill="#D5202D" d="M627.6,44.3c0.1,0,0.1,0,0.2-0.1C627.6,44.3,627.5,44.3,627.6,44.3z"/>
						<path fill="#D5202D" d="M625.3,43.8c0,0,0.1,0,0.1,0C625.4,43.8,625.3,43.7,625.3,43.8z"/>
						<path fill="#D5202D" d="M640,48.1l-0.3-0.3C639.7,47.9,639.9,48,640,48.1z"/>
						<path fill="#D5202D" d="M650.7,61.8c0,0.1,0,0.1,0.1,0.2L650.7,61.8L650.7,61.8z"/>
						<path fill="#D5202D" d="M644.8,51.3L644.8,51.3c0.1,0.1,0.2,0.1,0.2,0.1L644.8,51.3z"/>
						<path fill="#D5202D" d="M647.7,54.6c-0.1-0.1-0.2,0-0.2,0C647.5,54.6,647.6,54.6,647.7,54.6C647.6,54.7,647.7,54.6,647.7,54.6
							z"/>
						<path fill="#D5202D" d="M650.6,60.8l0,0.1C650.6,60.9,650.6,60.9,650.6,60.8z"/>
						<path fill="#D5202D" d="M642.4,49.2C642.4,49.2,642.4,49.1,642.4,49.2C642.3,49.1,642.3,49.1,642.4,49.2z"/>
						<path fill="#D5202D" d="M650.4,70.9L650.4,70.9C650.4,70.9,650.4,70.9,650.4,70.9z"/>
						<path fill="#D5202D" d="M651.3,66L651.3,66C651.3,66.1,651.4,66.1,651.3,66L651.3,66z"/>
						<path fill="#D5202D" d="M621.1,43.7C621.1,43.7,621.1,43.7,621.1,43.7C621.2,43.6,621.1,43.6,621.1,43.7z"/>
						<path fill="#D5202D" d="M600.8,71c0-0.4,0.4,0.6,0.3,0C601.1,71.1,600.7,70.5,600.8,71z"/>
						<path fill="#D5202D" d="M650.6,61.7l-0.1-0.2C650.6,61.6,650.6,61.7,650.6,61.7z"/>
						<path fill="#D5202D" d="M601.1,71L601.1,71L601.1,71C601.1,71,601.1,71,601.1,71z"/>
						<path fill="#D5202D" d="M611.9,46.9c0,0,0.1,0.1,0.2,0.1C612.1,47,612,47,611.9,46.9z"/>
						<path fill="#D5202D" d="M618.8,44.9l-0.2,0C618.7,44.9,618.8,44.9,618.8,44.9z"/>
						<path fill="#D5202D" d="M609,49.3c-0.1,0-0.1,0-0.2,0.1c0,0,0,0,0.1,0C608.9,49.4,608.9,49.3,609,49.3z"/>
						<path fill="#D5202D" d="M606.1,51.8C606.1,51.8,606.2,51.8,606.1,51.8c0.1,0,0.1-0.1,0.2-0.1L606.1,51.8z"/>
						<path fill="#D5202D" d="M644,79.6c0.1,0,0.2,0,0.2,0C644.1,79.6,644.5,79.2,644,79.6z"/>
						<path fill="#D5202D" d="M650.7,61.8C650.7,61.8,650.7,61.8,650.7,61.8L650.7,61.8C650.7,61.8,650.7,61.8,650.7,61.8z"/>
						<path fill="#D5202D" d="M610.4,51.6l-0.5,0.3C610.1,51.8,610.3,51.7,610.4,51.6z"/>
						<path fill="#D5202D" d="M619.7,85.3l0.1,0C619.8,85.3,619.8,85.3,619.7,85.3z"/>
						<path fill="#D5202D" d="M608.7,52.9c-0.1,0-0.3,0-0.4,0c0,0,0,0.1,0,0.1L608.7,52.9z"/>
						<path fill="#D5202D" d="M644.2,80L644.2,80L644.2,80z"/>
						<path fill="#D5202D" d="M646.7,76.9c-0.4,0.4,0,0.3,0,0.5c-0.4,0.5-0.3,0.1-0.6,0.2c-0.3,0.3-0.3,0.7-0.6,0.9
							c0,0-0.1,0-0.1-0.1c-0.2,0.4-0.9,0.8-1.2,1.3c0,0-0.1,0-0.1,0c0.1,0,0.2,0.1,0.3,0.2c-0.2,0.2-0.2,0.4-0.4,0.4
							c0.1-0.1,0.1-0.2,0.1-0.2l-0.1,0.2c-0.3,0,0.2-0.3,0.1-0.4c-0.2,0.2-0.3,0.4-0.5,0.6c-0.2,0.2-0.4,0.4-0.5,0.4
							c-0.2-0.2,0.7-0.6,0.1-0.5c0,0,0.5-0.3,0.5-0.3c-0.6,0,0.3-0.2-0.3-0.3c-0.7,0.4-0.6,0.6-1.3,0.9c-0.1,0.2,0.2,0.2,0.1,0.4
							c-0.7,0.9-1.1-0.2-1.6,0.6c-0.1,0.3,0.1,0.7-0.6,0.8l0-0.4c-0.7,0.3-0.1,0.7-0.9,0.8c0.1-0.2,0.5-0.4,0.4-0.3
							c-0.6-0.1-0.2,0.3-0.6,0.5l-0.2-0.3c-0.3,0.2-0.7,0.4-1.1,0.7c-0.4,0.2-0.8,0.4-1.2,0.6c0-0.1,0.1-0.3-0.1-0.3
							c-1,0.6-2.3,0.7-3.3,0.7l-0.3,0.4c-0.1,0-0.2-0.1-0.1-0.2c-0.4,0,0,0.2-0.1,0.4c-0.2,0.1-0.3-0.1-0.2-0.2
							c-0.3,0.2-0.8,0.5-1.3,0.7c-0.5,0.1-1.1,0.2-1.5,0.1l0.1-0.1c-0.6-0.1-0.6,0.8-1.2,0.5l0.1-0.1c-0.7,0-1.4,0-2,0.1
							c-0.7,0.1-1.3-0.1-1.8-0.3c-0.2,0.4-1.3-0.2-1.4,0.4c-0.7-0.3-0.5-0.4-1.5-0.7c-0.3,0-0.5,0.3-0.8,0.3l0-0.3l-0.5,0.2
							l-0.2-0.3l-0.3,0c0.1,0,0.3,0.2,0.2,0.2c-0.5,0-1.2-0.4-1.2-0.5c0,0-1.2-0.1-1.2-0.1c0.1-0.1,0.3-0.1,0.4-0.1
							c-0.7,0.1,0-0.2-0.7-0.2c0.1,0.1-0.1,0.1-0.1,0.1c-0.2-0.2-0.9-0.3-1.4-0.5l0.1-0.1c-0.8-0.3-1.8-0.5-2.8-1
							c0.3,0.2,0.2,0.3-0.1,0.2l0-0.2c-0.2,0,0.3,0.2-0.2,0.1c-0.3-0.2-0.1-0.3,0.1-0.2l-0.4-0.1c0-0.1,0.2,0,0.3-0.1
							c-0.2,0-0.9-0.5-0.9-0.5v-0.1c-1-0.5-1.5-0.7-2.1-1.1c-0.1,0.1-0.4-0.1-0.6-0.2c-0.2-0.2-0.5-0.4-0.8-0.6
							c-0.3-0.2-0.5-0.5-0.8-0.7c-0.4-0.3-0.2,0-0.4-0.1c0-0.1-0.5-0.6-0.2-0.4c-0.7-0.6-0.8-0.8-1.6-1.6c0.1,0.1,0.1,0.2,0.1,0.2
							c-0.1-0.1-0.3-0.4-0.2-0.4l0,0c-0.4-0.4-0.8-1.1-1.2-1.7c-0.3-0.6-0.6-1.2-0.9-1.6l0,0c0,0-0.2-0.2-0.3-0.4
							c-0.1-0.2-0.3-0.5-0.3-0.5c-0.2-0.4,0.2,0.2,0.1-0.1c-0.3-0.5-0.5-0.9-0.6-1.3c-0.1-0.4-0.2-0.8-0.4-1.2c0-0.2,0-0.4,0-0.7
							c0-0.3-0.1-0.6-0.1-0.9c-0.1-0.6-0.3-1.3-0.1-1.8l-0.1,0.1c-0.1-0.2,0.1-0.3,0.1-0.5c-0.1,0-0.1,0.3-0.2,0.1
							c-0.1-1,0.1-2.1,0.3-3.1c0.3-1,0.7-2,1.2-2.9c0.3-0.7-0.7-0.7,0.1-1.4l0.2,0.4c0.2-0.7,0.5-1.5,0.9-2.1c0.2-0.3,0.4-0.6,0.6-1
							c0.2-0.3,0.4-0.6,0.6-1c0,0.1,0.1,0.2,0,0.3c0.4-0.1,0.7-0.9,0.6-1c0.2-0.2,0.2,0.1,0.4,0c0.3-0.1,0.3-0.8,0.6-0.7
							c0.1,0,0,0.1,0,0.2c0-0.2,0.7-0.7,0.3-0.7c0.5-0.3,0.7-0.8,1.2-1c0-0.5,0.8-0.5,0.6-0.9c0.3,0.4,1.1-0.2,1.2-0.7
							c0,0.2,0.3,0,0.4,0.2c0.3-0.3,0.6-0.5,0.4-0.7c1,0.2,1-1.2,1.8-0.7c0.9-0.8,1.9-1.5,2.9-2c0.2,0.6-1.1,0.5-0.8,1
							c0.9-0.6,1.2-1.3,2.3-1.5c0.3,0-0.1,0.3-0.1,0.4c0.9-0.5,1.9-0.5,2.8-1c0,0.1-0.1,0.1-0.2,0.2c0.2-0.1,0.4,0,0.4-0.3l-0.2,0.1
							c-0.4-0.3,0.5-1,0.5-1.2c-0.2,0.8,1,0,0.6,1.1c0.1-0.1,0.2-0.2,0.2-0.4c0.2,0,0.3,0.1,0.1,0.4c0.6-0.2,0.4-0.5,1-0.6
							c0,0.1-0.1,0.2-0.1,0.4c0.3-0.3,0.5-0.6,1.1-0.5c0,0.1,0,0.2-0.1,0.2c0.8-0.2,1.4-0.8,2.4-0.6c-0.3,0.6,0.3,0.2,0.4,0.7
							c0,0,0.1,0,0.3-0.1c0.1,0,0.3-0.1,0.3-0.1l-0.2-0.2c0.4,0,0.9-0.3,1.2-0.1l-0.3,0.2l0.9-0.1l-0.5-0.2c0.5-0.2,0-0.6,0.6-0.5
							c-0.1,0,0.5,0,0.7,0.3l0,0c0.2-0.1,0.5-0.3,0.8-0.1c0.1,0.2-0.1,0.5-0.1,0.6c0.3-0.4,1.1,0,1.4-0.4c-0.1,0.1-0.2,0.3-0.1,0.4
							l0.2-0.3c0.2,0.1,0.2,0.2,0.1,0.4c0.6,0.2-0.1-0.6,0.6-0.2c-0.1,0,0,0.1-0.2,0.1c0.7,0.3,1.5,0.1,2.1,0.4
							c0.1,0.5-0.6,0-0.5,0.4c1,0.2,2.2,0,3,0.4l-0.2-0.1c0.3-0.5,0.6,0.5,1.1,0.4c-0.1,0-0.3,0.3-0.2,0.2c0.3,0.2,0.6,0.2,1,0.3
							c0.4,0.1,0.8,0.2,1.3,0.3l-0.2,0.1c0.3,0.3,0.9,0.5,1.2,0.8c0.2-0.1,0.4,0.1,0.3-0.2c0.4,0.7,1,0.8,1.5,1.1
							c0.6,0.3,1.1,0.5,1.4,1.1c-0.1-0.1-0.3-0.1-0.2-0.1c0,0,0.8,0.5,0.8,0.5c0.1-0.2,0-0.2-0.1-0.4c0.2,0,0.4,0.1,0.6,0.3
							c-0.4-0.2-0.2,0.2-0.1,0.4c0-0.1,0.1-0.1,0.1-0.1c0.2,0.5,0.3-0.2,0.7,0.4l-0.1,0c0.2,0.1,0.5,0.3,0.6,0.5
							c0,0.2-0.2-0.2-0.4-0.1c0.3,0.3,0.8,0.4,0.9,0.8c-0.1-0.1-0.3-0.3-0.5-0.4c0.1,0.4,0.2,0.4,0.4,0.6l0,0c0,0,0.4,0.5,0.4,0.5
							c0,0-0.1-0.2-0.1-0.2c0.6,0.2,0.7,0.8,1.3,1.2c-0.6-0.4-0.2,0-0.3,0c0.1,0.2,0.2,0.4,0.1,0.3c0.3,0.2,0.2,0.5,0.6,0.8
							c0,0,0.2,0.3,0.1,0.3c0.2,0.3,0-0.1,0.1-0.1c0.2,0.2,0.4,0.6,0.6,1c0.2,0.4,0.3,0.8,0.6,1.2c0.4,0.7,0.5,0.8,0.8,1.5
							c0,0.3-0.1-0.2-0.1-0.2c0.1,0.4,0.2,0.7,0.3,1c0-0.1,0,0,0,0.1c0.1,0.3,0.1,0.2,0.2,0.6c0-0.1-0.1-0.1-0.1-0.3
							c0.1,0.3,0.2,0.7,0.3,1.1c0,0.1-0.1-0.2-0.1-0.3c0.1,0.4,0.2,1.1,0.3,1.2c0,0,0-0.3,0-0.3c0,0.2,0,0.1,0,0
							c-0.1-0.4-0.1-0.5-0.1-0.5l0.1,0.3c0-0.3-0.2-1.1-0.3-1.6c0,0,0.1,0.2,0.1,0.2c0,0-0.2-0.5-0.2-0.5c0-0.1,0-0.2,0.1,0
							c-0.1-0.4-0.1-0.3-0.2-0.7c0,0,0,0,0,0l-0.1-0.4c0,0.1,0-0.1,0.1,0.1c-0.1-0.7-0.4-1-0.4-1.3l0,0.1c-0.4-0.9-0.1-0.1-0.5-0.7
							l0-0.5l-0.1,0c0-0.1-0.1-0.3-0.1-0.3c-0.2-0.3,0,0.1-0.2-0.1c-0.2-0.5-0.7-1.1-0.6-1.3c-0.2-0.1,0.2,0.4-0.1,0
							c0.1-0.2-0.3-0.5-0.5-0.9c0.2,0,0.4,0.4,0.2,0c-0.3-0.1-0.4-0.7-0.7-1c-0.1,0.1-0.5-0.6-1-1c0.1,0-0.7-1-1-1.4l0,0
							c-0.2,0.1-0.6-0.3-1-0.6c0.1-0.1,0.2-0.1,0.4,0l-0.3-0.3c-0.1,0-0.2-0.1-0.5-0.2l0.2-0.1c-0.4-0.4-1-0.5-1.4-1.1
							c-0.2,0.2,0.1,0.8-0.6,0.5c0-0.1,0.1-0.3,0.3-0.2c-0.1,0-0.2-0.1-0.3-0.2l0.3,0c-0.2-0.3-0.2,0-0.4-0.1c0.1-0.1-0.1-0.2,0-0.3
							c0.1,0,0.1,0.2,0.2,0.2c-0.2-0.2-0.4-0.5-0.4-0.7c0,0.1-0.1,0.2-0.3,0.1c-0.5-0.3,0-0.3-0.2-0.5c-0.2,0-0.4-0.3-0.6,0
							c-0.1-0.1-0.1-0.2-0.1-0.3c-0.1,0-0.4-0.2-0.7-0.3c-0.2-0.1-0.4-0.1-0.4,0.1l0.1,0.1c0,0,0,0,0,0l0,0l0,0
							c-0.5-0.1-0.9-0.3-1.3-0.6c-0.4-0.3-0.8-0.6-1.2-0.7l0-0.1c-0.5-0.1-1.1-0.4-1.6-0.3c-0.1-0.1-0.3-0.3-0.2-0.4
							c-0.4,0-0.5,0.1-1-0.3c0.5-0.1-0.1-0.2,0.5,0c-0.5-0.3-0.6-0.5-1.2-0.3c0.3-0.2-0.3-0.5-0.6-0.5c0,0,0.1,0.1,0.2,0.2
							c0.1,0.1,0.2,0.2,0.2,0.2c-0.3,0-0.5-0.1-0.8-0.2l0.2-0.4c-1-0.8-2.1,0.4-2.8-0.6c-0.3,0.3,0.6,0.3,0.3,0.6
							c-0.5-0.1-0.9-0.8-1.1-0.8c-0.7-0.3-0.7,0.5-1.4,0.3c0.1,0.2,0.1,0.6-0.4,0.7c-0.5-0.1-0.6-0.7-0.3-0.8c0.1,0,0.2,0,0.2,0.1
							c0.2,0,0.4-0.1,0.2-0.3l-0.1,0.2c-0.2-0.2-1-0.2-0.8-0.4c-0.4,0.1-0.2,0.3,0.1,0.3c-0.7-0.2-1-0.1-1.7-0.2
							c0.1,0.1,0.2,0.3,0.1,0.3c-1-0.2-0.4,0.3-1.1,0.4c-0.4-0.2,0.1-0.6-0.6-0.4c-0.4-0.1-0.1-0.4,0-0.6c-0.6,0.3-1.2-0.1-1.6-0.1
							l0.3-0.2c-0.2,0.1-0.4,0.1-0.5,0.1l0.2,0.3c-0.2,0-0.4,0-0.4-0.1c-0.2,0.2,0.2,0.5-0.1,0.8c-0.3-0.1-0.7,0.3-0.9-0.1
							c0.8,0-0.2-0.4,0.5-0.6c-0.1,0.1-0.3,0.1-0.5,0.1c0,0,0-0.1,0.1-0.1c-0.8-0.3-0.3,0.5-1.1,0.7c0.1-0.3-0.3-0.4-0.4-0.3
							c0.3-0.1,0.2,0.4,0,0.6c-0.5-0.1-0.5,0.3-0.8,0.3l0.3,0c0,0.3-0.3,0.3-0.6,0.4c-0.1-0.2,0.3-0.2,0.1-0.2
							c-0.3,0.5-1-0.2-1.4,0.2c-0.3-0.1-0.1-0.4-0.4-0.4c-0.5,0.5-0.8-0.1-1.3,0.3c0.3,0.2,0.3,0.1,0,0.6c0,0,0.9-0.6,0.9-0.6
							l-0.5,0.6c0.3-0.1,0.6-0.4,0.8-0.4c-0.2,0.3-0.2,0.3,0,0.5c-0.6-0.3-0.7,0.5-1.3,0.4l-0.3-0.7c-0.8,0-1.1,0.9-2.1,1.1l0.3,0
							c0,0.3-0.5,0.3-0.8,0.6c-0.1-0.2-0.3-0.2-0.5-0.3c0.1,0.2-0.7,0.3-0.5,0.8c0,0-0.1,0-0.3,0c-0.1,0-0.3,0-0.3,0
							c-0.8,0.3-0.4,1.1-1.1,1.4c0.1-0.3-0.3-0.3,0-0.7c-0.2,0.1-0.4,0.2-0.4,0.4c-0.2-0.1-0.4,0.7-0.7,0.6c0,0.2,0.1,0.4-0.2,0.5
							c-0.1,0-0.1-0.1-0.1-0.1c0.1,0.1-0.3,0.4,0.1,0.5c-1.1-0.1-1.6,1.4-2.6,1.5c-0.4,0.4-0.7,1-1.1,1.4c0-0.1-0.1-0.1,0-0.1
							c-0.6,0.4,0.2,0.7-0.5,1.2c-0.5,0.1,0.1-0.5-0.1-0.3c-0.6-0.4-0.5,0.8-1.1,1l0-0.1c-0.4,0.2-0.4,1-0.7,1.5c0,0,0-0.1-0.1-0.1
							c0.1,0.6-0.3,1.4-0.4,2c-0.1-0.3,0-0.3-0.3-0.3c-0.1,0.3,0.4,0.1,0.2,0.7c-0.2,0.1-0.5,0.4-0.7,0.4l0.2-0.5
							c-0.4,0.1-0.3,0.7-0.4,0.9l-0.1-0.1c-0.2,0.8,0.1,1-0.1,1.8l0.1-0.1c0.2,0.6-0.3,0.3-0.2,0.9l-0.3,0.1c0,0.3,0.1,1.2,0.1,1.7
							c-0.2-0.3-0.2-1-0.3-1.5c-0.1,0.3-0.1,1.1,0,1.3c0-0.1-0.1-0.3,0-0.4c0.1,0.2,0.1,0.5,0.2,0.7c0,0.3,0.1,0.5,0,0.9
							c-0.6-0.1-0.2,1.6-0.5,2.1c0.2,0.6,0.1,1.1,0.2,1.7c0.1,0.6,0.2,1.2,0.3,1.8c0.1-0.3,0.1-0.2,0.2,0c0,0.1,0.1,0.3,0.3,0.2
							c0.1,0.3,0.1,0.4,0.1,0.4l0.1,0.9c0,0.2-0.2-0.3-0.2-0.2c0.2,0.6,0,0.3,0.1,0.8c0.1-0.1,0.2,0.2,0.4,0.5l-0.1-0.5
							c0.5,0.8,0.1,0.8,0.7,1.6l-0.2-0.2c0.2,0.4,0.9,1.6,1.3,1.9c0,0.1,0,0.2-0.1,0c0.3,0.5,0.7,1,1.1,1.4c0.2,0.2,0.4,0.5,0.6,0.7
							c0.2,0.2,0.4,0.4,0.5,0.6l-0.1,0c0.2,0.1,0.3,0.2,0.5,0.4c0,0-0.1,0,0,0c0.1,0.1,0.5,0.4,0.6,0.6l-0.2-0.1
							c0.7,0.9,1.4,1.1,2.1,1.7c-0.1,0.1,0.6,0.7,0.9,1l0,0c0.3,0.2,0.5,0.4,0.7,0.6c0.3,0.1,0.5,0.3,0.7,0.4c0.5,0.2,1,0.5,1.5,0.8
							c0.3,0.3,0.8,0.6,1.4,1c0.6,0.4,1.3,0.6,1.8,1c-0.2-0.1,0.1-0.2,0.3-0.1c0.2,0.2,0.8,0.1,0.7,0.4l-0.1,0
							c0.1,0.3,0.7,0.5,1.1,0.6l0.2-0.3c1,1,3.1,0.6,3.6,1.3c0.3-0.1,0.7,0,1-0.1l0,0.3c0.8,0.2,1.2,0.4,2.2,0.4l-0.2,0.2
							c0.6,0.1,0.8-0.7,1.3-0.7l0.1,0.4c1,0.1,2,0.4,2.9,0c0,0.1,0,0.2-0.2,0.2c0.5,0,1.8,0.2,1.6-0.4c0.1,0.4,1-0.1,1.5-0.3l0,0.3
							c0.4-0.4,0.4-0.6,1-0.8c0.2,0,0.2,0.2,0,0.2c0.5,0.1,0.3-0.4,0.9-0.3l-0.2,0.2c0.5-0.1,0.4-0.2,0.7-0.5
							c0.3-0.2,0.9-0.2,1.1,0.1c0-0.2,0.2-0.5,0.5-0.5c0.1,0.1,0,0.2-0.1,0.2c0.9-0.1,1.1-0.7,1.7-0.6c0,0.1,0.1,0.1,0.2,0.1
							c-0.6,0.3-1.2,0.4-1.1,0.3c0.1,0.3,0.6,0.1,0.3,0.7c0.4-0.3,0.9-1.1,1.4-1.1c0,0,0.1,0,0.1,0.1l0,0.1c0.1,0,0.2-0.1,0.3-0.2
							c0.2,0,0.3,0,0.4-0.1c0.1,0.2,0.6-0.1,0.9-0.3c-0.1-0.3,0.2-0.4-0.2-0.4c0,0,0,0.1-0.2,0.2c0,0-0.1,0.1-0.1,0.1l0,0
							c-0.2,0.1-0.4,0.2-0.6,0.3c0.1-0.2,0.3-0.4,0.6-0.4c0-0.2,0.1-0.5,0.1-0.6c0.5,0.2,1.2,0,1.4,0.2c0.7-0.5,1.6-1.2,1.8-1.8
							c0.2-0.2,0.3,0,0.4,0c-0.1,0.1-0.2,0.2-0.2,0.3c0.3-0.3,1.1-0.9,1-1.2c0.5-0.3-0.1,0.4,0.5-0.1l0,0.1c0.4-0.2,0.7-0.4,0.9-0.6
							c0.2-0.3,0.4-0.6,0.6-0.9c0.4-0.6,0.8-1.1,1.5-1.6c-0.1,0.1-0.1,0.1-0.2,0.1c0.4-0.3,0.7-0.7,1-1.1c0.3-0.4,0.6-0.9,0.8-1.3
							c0.3-0.4,0.5-0.9,0.8-1.3c0.2-0.4,0.5-0.8,0.7-1.3c0.2-0.5,0.2-0.6,0.3-0.9l0.1-0.1l0.2-0.6c0.2-0.8,0.6-1.3,0.7-2.3l-0.1,0.1
							c0.1-0.4,0.2-1.2,0.2-1.1c0,0,0-0.1,0-0.3l0,0c0,0,0.1-0.9,0.1-0.9c0.1-0.7,0.1,0.1,0.1-0.9c0-0.4,0-1.1,0-0.9
							c0,0.2,0,0.4-0.1,0.4l0-0.3c-0.1-0.1-0.1-0.3-0.2,0.5l0,0.6l0,0.2l0-0.5c0,0.3,0,0.5,0,0.7c0,0,0,0.1,0,0.2c0,0,0,0.6,0,0.6
							c0,0.1,0-0.3-0.1,0.1c0,0.3,0.1-0.2,0,0.2c-0.1,0.3-0.1,0.2-0.1,0.5c0,0,0,0,0-0.2c0,0.3-0.1,0.8-0.1,0.9
							c-0.1,0.3-0.3,1-0.3,0.9c0,0.1-0.1,0.5-0.2,0.8c0.1-0.5-0.3,1-0.4,0.8c-0.1,0.4-0.5,1.2-0.8,1.8c0,0,0-0.1,0.1-0.2
							c-0.2,0.3-0.3,0.4-0.5,0.5c0.1,0.1-0.2,0.6-0.3,0.9c-0.4,0.3,0-0.3-0.2-0.3c0.1,0-0.3,0.7-0.2,0.6c-0.3,0.2-0.2,0.2-0.4,0.3
							c0.1,0.2-0.2,0.3-0.3,0.6c-0.4,0.3-0.2,0-0.5,0.4C646.5,77.3,646.7,76.9,646.7,76.9z M636.5,84.2L636.5,84.2
							c0.1-0.1,0.2-0.1,0.2-0.1C636.7,84.1,636.6,84.1,636.5,84.2z M635.5,84.5c0.1,0,0.3-0.1,0.4-0.1c0.1,0.1,0.1,0.2,0,0.2
							C635.9,84.5,635.7,84.6,635.5,84.5z M638.4,85.6c-0.2,0.1-0.2,0.1-0.3,0c0.1,0,0.2-0.1,0.3-0.2c0,0,0,0,0,0
							C638.5,85.5,638.5,85.5,638.4,85.6z"/>
						<path fill="#D5202D" d="M638.6,85.1C638.6,85.1,638.6,85.1,638.6,85.1C638.6,85,638.6,85,638.6,85.1L638.6,85.1L638.6,85.1z"
							/>
						<path fill="#D5202D" d="M640.1,48.2L640.1,48.2C640.1,48.2,640.1,48.2,640.1,48.2C640.1,48.2,640.1,48.2,640.1,48.2z"/>
						<polygon fill="#D5202D" points="620.9,85.4 620.9,85.4 621,85.4 						"/>
						<path fill="#D5202D" d="M644.6,52.3C644.6,52.4,644.6,52.4,644.6,52.3C644.6,52.4,644.6,52.4,644.6,52.3z"/>
						<path fill="#D5202D" d="M646.4,54.2l0.2,0.3C646.5,54.3,646.5,54.2,646.4,54.2z"/>
						<path fill="#D5202D" d="M647.6,55.7C647.7,55.7,647.7,55.7,647.6,55.7L647.6,55.7L647.6,55.7z"/>
						<path fill="#D5202D" d="M619.5,47.3C619.5,47.3,619.5,47.3,619.5,47.3C619.3,47.4,619.4,47.4,619.5,47.3z"/>
						<path fill="#D5202D" d="M628.6,45.8c-0.1,0.1-0.2,0.1-0.3,0.2C628.5,46,628.6,46,628.6,45.8z"/>
						<polygon fill="#D5202D" points="610.5,51.5 610.5,51.5 610.4,51.6 						"/>
						<path fill="#D5202D" d="M627.9,45.9c0.2,0.1,0.3,0.1,0.4,0C628.2,45.9,628,45.9,627.9,45.9z"/>
						<path fill="#D5202D" d="M651,63.6L651,63.6c0,0.1,0,0.1,0,0.1L651,63.6z"/>
						<path fill="#D5202D" d="M651,63.7l0,0.1C651.1,63.7,651.1,63.7,651,63.7z"/>
						<path fill="#D5202D" d="M651.1,64c0,0,0-0.2,0-0.2C651.1,63.8,651.1,63.9,651.1,64z"/>
						<path fill="#D5202D" d="M650.4,61L650.4,61C650.4,61,650.4,61,650.4,61z"/>
						<path fill="#D5202D" d="M650.2,60.2c0.1,0.2,0.1,0.5,0.2,0.7l0,0C650.3,60.9,650.2,60.4,650.2,60.2z"/>
						<path fill="#D5202D" d="M649,57l0.3,0.6c0-0.1-0.1-0.3,0.1,0C649.1,56.8,649.5,57.8,649,57z"/>
						<path fill="#D5202D" d="M648,55.2C648.2,55.5,648,55.1,648,55.2C647.9,55,647.9,54.9,648,55.2z"/>
						<path fill="#D5202D" d="M635.8,45.9l0.1-0.3C635.6,45.6,635.9,45.8,635.8,45.9z"/>
						<polygon fill="#D5202D" points="632.6,46.7 632.8,47 633,46.7 						"/>
						<path fill="#D5202D" d="M631.3,44.1l0.1,0c0,0-0.5,0-0.5,0L631.3,44.1z"/>
						<path fill="#D5202D" d="M606.4,51.1l0.3,0.2C606.8,51.1,606.6,50.8,606.4,51.1z"/>
						<path fill="#D5202D" d="M600.7,61c-0.2,0.1-0.3,0.4-0.3,0.6C600.6,61.4,600.7,61.1,600.7,61z"/>
						<polygon fill="#D5202D" points="617.7,86.7 617.4,86.7 617.8,86.8 						"/>
					</g>
				</g>
			</g>
		</g>
	</g>
</g>
</svg>
