<?xml version="1.0" encoding="utf-8"?>
<!-- Generator: Adobe Illustrator 18.1.0, SVG Export Plug-In . SVG Version: 6.00 Build 0)  -->
<!DOCTYPE svg PUBLIC "-//W3C//DTD SVG 1.1//EN" "http://www.w3.org/Graphics/SVG/1.1/DTD/svg11.dtd" [
	<!ENTITY ns_extend "http://ns.adobe.com/Extensibility/1.0/">
	<!ENTITY ns_ai "http://ns.adobe.com/AdobeIllustrator/10.0/">
	<!ENTITY ns_graphs "http://ns.adobe.com/Graphs/1.0/">
	<!ENTITY ns_vars "http://ns.adobe.com/Variables/1.0/">
	<!ENTITY ns_imrep "http://ns.adobe.com/ImageReplacement/1.0/">
	<!ENTITY ns_sfw "http://ns.adobe.com/SaveForWeb/1.0/">
	<!ENTITY ns_custom "http://ns.adobe.com/GenericCustomNamespace/1.0/">
	<!ENTITY ns_adobe_xpath "http://ns.adobe.com/XPath/1.0/">
]>
<svg version="1.1" id="Layer_1" xmlns:x="&ns_extend;" xmlns:i="&ns_ai;" xmlns:graph="&ns_graphs;"
	 xmlns="http://www.w3.org/2000/svg" xmlns:xlink="http://www.w3.org/1999/xlink" x="0px" y="0px" viewBox="0 0 60 60"
	 enable-background="new 0 0 60 60" xml:space="preserve">
<metadata>
	<sfw  xmlns="&ns_sfw;">
		<slices></slices>
		<sliceSourceBounds  width="64" height="64.8" y="-2.3" x="-1.6" bottomLeftOrigin="true"></sliceSourceBounds>
	</sfw>
</metadata>
<g id="Layer_1_1_" display="none">
	<path display="inline" fill="#F1C40F" d="M21.1,9.1c0.2,0,0.1,1,0,2S20.9,13,20.9,14c-0.1,1-0.2,1.9-0.2,3.1s0.1,2.3,0.2,3.5
		c0.1,1.1,0.2,2,0.6,2.9c0.3,0.9,0.9,1.8,1.7,2.7c0.7,1,1.7,2,3,3.5c1.3,1.4,3,3.1,4.3,4.3c1.4,1.3,2.3,2.2,3.3,3.1
		c1,0.9,1.9,1.9,2.7,2.7s1.5,1.5,2.2,2.4c0.6,0.8,1.3,1.9,1.8,2.7c0.5,0.9,0.8,1.7,1.1,2.4c0.2,0.8,0.5,1.6,0.6,2.6
		c0.2,1,0.2,2,0.2,2.8s-0.1,1.4-0.5,1.8c-0.4,0.4-1,0.6-1.9,0.6C39.2,55,38.2,55,37.1,55c-1,0-2.1,0.1-2.5,0c-0.4-0.2-0.2-0.5-0.2-1
		c0.2-0.6,0.2-1.4,0.3-2.3c0.1-0.8,0-1.4-0.1-2.1s-0.3-1.3-0.5-1.8c-0.2-0.4-0.2-0.6,0-0.6s0.8,0.2,1.4,0.6c0.6,0.4,1.1,1,1.7,1.6
		c0.6,0.5,1,0.9,1.4,1s0.6,0,0.8-0.4s0.2-1,0.1-1.6c-0.2-0.6-0.4-1-0.7-1.7c-0.3-0.6-0.7-1.3-1.3-1.9c-0.6-0.6-1.2-0.9-1.9-1
		c-0.6-0.2-1.4-0.2-2-0.2s-1.3,0-1.9-0.1s-1.2-0.3-2.1-0.6c-0.9-0.4-2.1-1-3.2-1.6s-2.2-1.3-3.1-1.9c-0.9-0.6-1.5-1.1-2-1.6
		c-0.6-0.5-1-0.9-1.4-1.6c-0.4-0.7-0.7-1.9-1-3c-0.2-1.2-0.4-2.4-0.6-4c-0.2-1.5-0.6-3.4-1-4.7c-0.4-1.3-0.7-2.1-1.3-2.7
		c-0.5-0.6-1-0.9-1.6-1c-0.6-0.2-1.1-0.1-1.8,0c-0.6,0.2-1.4,0.3-2.2,0.6c-0.8,0.3-1.7,0.6-2.4,1c-0.7,0.3-1.4,0.5-1.9,0.7
		c-0.6,0.2-1,0.4-1.3,0.4c-0.2,0-0.3-0.2-0.2-0.4c0.2-0.3,0.5-0.7,1.1-1.3c0.6-0.6,1.5-1.3,2.3-1.9s1.5-1.1,2.3-1.7
		c0.7-0.6,1.5-1.2,2.1-1.6c0.6-0.4,0.9-0.6,1-0.5c0.2,0.1,0,0.5,0.2,0.8s0.6,0.6,1,0.6c0.5,0,1-0.2,1.4-0.4c0.4-0.3,0.7-0.7,0.8-1.1
		c0.2-0.4,0.2-0.8,0-1.2c-0.2-0.3-0.6-0.6-0.9-0.6c-0.4-0.1-0.8-0.1-0.9-0.3c-0.1-0.2,0.1-0.6,0.3-1c0.2-0.5,0.4-1.2,0.6-1.9
		c0.2-0.6,0.3-1.4,0.7-1c0.4,0.3,1,1.6,1.4,2.2c0.3,0.6,0.3,0.5,0.5,0.2c0.2-0.2,0.6-0.6,1-1.4C20.2,10.1,20.9,9.1,21.1,9.1
		 M25.2,57.8c1.4,0,3.3,0,5.1-0.1c1.9,0,3.6,0,5.1,0s3-0.1,4.2-0.1s2.3,0,3-0.2s1-0.4,1.4-0.9s0.7-1.1,1.1-2.1
		c0.4-1,0.7-2.2,1.4-4.2c0.6-2,1.4-4.7,1.9-7.2c0.6-2.3,1-4.3,1.5-6.3c0.5-1.9,1-3.8,1.4-5.1c0.4-1.4,0.7-2.3,1.1-3.1
		c0.3-0.8,0.7-1.5,1.3-2.2c0.5-0.6,1.1-1.1,1.8-1.8c0.6-0.6,1.4-1.4,1.9-2.1c0.5-0.6,0.8-1.3,0.9-1.9c0.1-0.6,0.1-1.1-0.2-1.4
		c-0.2-0.3-0.5-0.4-0.6-0.2c-0.2,0.2-0.3,0.6-0.6,1.1c-0.2,0.5-0.6,1-1,1.6c-0.5,0.6-1,1.1-1.6,1.5s-1.2,0.7-1.6,0.9
		c-0.4,0.1-0.6,0-0.8-0.2s-0.2-0.6-0.1-1.2c0.1-0.5,0.2-1,0.4-1.4s0.5-0.7,0.7-1.2c0.2-0.4,0.3-0.9,0.2-1.2
		c-0.1-0.3-0.4-0.5-0.7-0.4s-0.6,0.3-1.1,1c-0.4,0.6-1,1.6-1.4,2.7s-0.7,2.3-1,3.7c-0.3,1.3-0.6,2.7-1,4.4c-0.3,1.7-0.8,3.8-1.2,5.9
		s-0.9,4.3-1.3,6c-0.4,1.7-0.6,2.7-0.9,3.5c-0.1,1-0.3,1.4-0.5,1.4c-0.2,0.1-0.3-0.2-0.4-0.8c-0.1-0.5-0.2-1.2-0.6-2
		c-0.3-0.8-0.9-1.7-1.8-2.7c-0.8-1-1.9-2-3-3.2c-1.1-1.1-2.3-2.3-3.5-3.5s-2.1-2.1-3.2-3.3S29,29,27.9,27.7s-2-2.4-2.7-3.5
		c-0.7-1-1.3-1.9-1.7-2.9c-0.4-1-0.6-1.9-0.6-3.1C23,17,23,15.6,23.1,14s0.3-3.3,0.4-4.6s0-2.2-0.2-3.2S22.9,4,22.6,3.3
		S22.2,2.2,22,2.2s-0.4,0.4-0.6,1s-0.6,1.6-0.8,2.5c-0.2,0.9-0.6,1.6-0.7,2.2c-0.2,0.6-0.4,0.9-0.6,1C19.2,9.1,19,9,18.9,8.6
		c-0.2-0.4-0.5-1.2-0.8-2.1s-0.7-1.9-1-2.7s-0.6-1.4-0.9-1.2c-0.3,0.1-0.6,0.9-0.9,1.8c-0.2,0.9-0.3,1.9-0.5,2.9s-0.3,1.9-0.5,2.7
		c-0.2,0.9-0.5,1.8-1,2.5c-0.4,0.7-1,1.3-1.8,2c-0.8,0.6-1.8,1.4-2.8,2.3c-1,0.9-2.1,1.9-3.1,2.7c-0.9,0.9-1.7,1.7-2.3,2.3
		c-0.6,0.7-1,1.3-1.4,1.9c-0.3,0.6-0.6,1.2-0.7,1.7C1,26,1,26.3,1.2,26.5s0.6,0.2,1.2,0.2c0.6-0.2,1.2-0.5,2-0.7
		c0.8-0.3,1.7-0.6,2.8-1s2.4-0.9,3.5-1.3c1-0.4,1.9-0.6,2.4-0.7c0.6-0.1,0.9,0,1.2,0.3s0.6,1,1,2.1c0.3,1.1,0.6,2.6,0.9,4.2
		c0.2,1.6,0.5,3.2,0.6,5.1c0.2,1.9,0.3,4.3,0.3,6.1c0.1,1.9,0.1,3.4,0,4.8s-0.2,3-0.2,4.1c-0.1,1.2-0.2,2-0.5,2.6
		c-0.2,0.6-0.6,0.9-1,1.1c-0.4,0.2-0.8,0.3-1.4,0.2c-0.5-0.1-1.1-0.3-1.7-0.4c-0.6-0.1-1.3,0.1-1.8,0.3c-0.5,0.3-0.8,0.7-1,1.3
		S9.3,56,9.6,56.5c0.2,0.5,0.6,0.7,1.2,0.9c0.6,0.2,1.5,0.1,2.7,0.1c1.2-0.1,2.7-0.2,3.7-0.6c1-0.5,1.4-1.4,1.9-2.6
		c0.5-1.1,0.9-2.5,1.2-3.9c0.2-1.4,0.4-2.8,0.4-4.1c0.1-1.3,0.1-2.5,0-3.5c0-1-0.1-1.9,0-2.4c0.1-0.4,0.2-0.4,0.8-0.1
		c0.5,0.3,1.4,0.9,2.5,1.5s2.5,1.4,3.5,1.9c1.1,0.6,1.9,0.9,2.6,1.5c0.6,0.6,1.2,1.6,1.5,2.5s0.5,1.7,0.6,2.5s0,1.7-0.2,2.2
		c-0.2,0.6-0.6,0.7-1.1,0.8c-0.5,0-1-0.2-1.5-0.4c-0.6-0.2-1.1-0.6-1.9-0.6c-0.6-0.2-1.4-0.1-2.2,0c-0.7,0.2-1.4,0.3-2.1,0.8
		c-0.6,0.4-1.1,1-1.4,1.5c-0.2,0.5-0.2,0.8-0.1,1.3c0.2,0.5,0.5,1,1,1.4C23.4,57.6,23.8,57.8,25.2,57.8z"/>
</g>
<g id="Layer_2" display="none">
	<rect display="inline" fill="#F1C40F" width="60" height="60"/>
	<path display="inline" fill="#FFFFFF" d="M31.5,40c0.2-0.5,0.1-1-0.4-1.3l-13.9-7.6c-0.5-0.2-1-0.1-1.3,0.4L6,50.1
		c-0.2,0.5-0.1,1,0.4,1.3L20.3,59c0.5,0.2,1,0.1,1.3-0.4L31.5,40z M20.4,56.7L8,50l9-16.7L29.4,40L20.4,56.7z"/>
	
		<rect x="14" y="37.5" transform="matrix(0.8786 0.4776 -0.4776 0.8786 22.0569 -5.0824)" display="inline" fill="#C0392B" width="14.1" height="6.7"/>
	<g display="inline">
		
			<rect x="20.6" y="38.7" transform="matrix(0.8786 0.4776 -0.4776 0.8786 21.2676 -5.3005)" fill="#FFFFFF" width="0.9" height="0.9"/>
		
			<rect x="21.4" y="40.3" transform="matrix(0.8786 0.4776 -0.4776 0.8786 22.3719 -6.4574)" fill="#FFFFFF" width="5" height="0.9"/>
	</g>
	<polygon display="inline" fill="#D6F99D" points="20.2,40.2 25.6,43.1 25.6,43.1 	"/>
	
		<rect x="19.4" y="42.7" transform="matrix(0.8786 0.4776 -0.4776 0.8786 23.1806 -5.5086)" display="inline" fill="#F4D03F" stroke="#F2F2F2" stroke-miterlimit="10" width="6.1" height="0.3"/>
	<path display="inline" fill="#F4D03F" stroke="#F2F2F2" stroke-width="0.1" stroke-miterlimit="10" d="M18.2,41h-1
		c-0.4,0-0.7-0.2-0.9-0.5l-0.5-0.9c-0.2-0.3-0.2-0.7,0-1l0.5-0.9c0.2-0.3,0.5-0.5,0.8-0.5h1c0.4,0,0.7,0.2,0.9,0.5l0.5,0.9
		c0.2,0.3,0.2,0.7,0,1L19,40.5C18.9,40.8,18.6,41,18.2,41z"/>
	
		<rect x="12.1" y="42.3" transform="matrix(0.8786 0.4776 -0.4776 0.8786 22.9457 -1.8198)" display="inline" fill="#D64541" width="6" height="3.8"/>
	
		<rect x="8.9" y="48.5" transform="matrix(0.8786 0.4776 -0.4776 0.8786 25.3609 0.4032)" display="inline" fill="#D64541" width="6" height="3.1"/>
	<g display="inline">
		
			<rect x="10.9" y="46.2" transform="matrix(0.8786 0.4776 -0.4776 0.8786 23.8561 -0.9887)" fill="#E6E6E6" width="6" height="0.5"/>
		
			<rect x="10.8" y="46.3" transform="matrix(0.8786 0.4776 -0.4776 0.8786 23.7028 -0.4865)" fill="#E6E6E6" width="4.1" height="0.2"/>
		
			<rect x="10.6" y="46.8" transform="matrix(0.8786 0.4776 -0.4776 0.8786 23.9839 -0.4461)" fill="#E6E6E6" width="4.6" height="0.3"/>
	</g>
	
		<rect x="10.3" y="47.2" transform="matrix(0.8786 0.4776 -0.4776 0.8786 24.0769 -0.1474)" display="inline" fill="#E6E6E6" width="4.1" height="0.2"/>
	
		<rect x="10" y="47.9" transform="matrix(0.8786 0.4776 -0.4776 0.8786 24.5016 -0.3526)" display="inline" fill="#E6E6E6" width="5.8" height="0.2"/>
	<polygon display="inline" fill="#999999" points="9.8,47.9 13.4,49.9 13.4,49.9 	"/>
	
		<rect x="17.9" y="45.9" transform="matrix(0.8786 0.4776 -0.4776 0.8786 25.3749 -4.1269)" display="inline" fill="#D64541" width="5.8" height="3.9"/>
	<g display="inline">
		
			<rect x="16.5" y="50.1" transform="matrix(0.8786 0.4776 -0.4776 0.8786 26.3197 -2.964)" fill="#E6E6E6" width="5" height="0.3"/>
		
			<rect x="16.4" y="50.2" transform="matrix(0.8786 0.4776 -0.4776 0.8786 26.258 -2.6744)" fill="#E6E6E6" width="3.9" height="0.2"/>
		
			<rect x="16.7" y="49.9" transform="matrix(0.8786 0.4776 -0.4776 0.8786 26.2574 -3.2943)" fill="#E6E6E6" width="5.8" height="0.2"/>
	</g>
	
		<rect x="16.1" y="50.8" transform="matrix(0.8786 0.4776 -0.4776 0.8786 26.4963 -2.4362)" display="inline" fill="#E6E6E6" width="3.9" height="0.2"/>
	
		<rect x="15.9" y="51.5" transform="matrix(0.8786 0.4776 -0.4776 0.8786 26.9209 -2.6414)" display="inline" fill="#E6E6E6" width="5.6" height="0.2"/>
	
		<rect x="15.3" y="52.1" transform="matrix(0.8786 0.4776 -0.4776 0.8786 27.2714 -2.2843)" display="inline" fill="#E6E6E6" width="5.6" height="0.7"/>
	<polygon display="inline" fill="#E6E6E6" points="15.5,51.4 19,53.3 19,53.3 	"/>
	<polygon display="inline" fill="#E6E6E6" points="15.5,51.6 20.4,54.3 20.4,54.3 	"/>
	
		<rect x="14.4" y="54" transform="matrix(0.8786 0.4776 -0.4776 0.8786 27.9187 -1.47)" display="inline" fill="#E6E6E6" width="5" height="0.3"/>
	
		<rect x="14.7" y="53.7" transform="matrix(0.8786 0.4776 -0.4776 0.8786 27.84 -1.8701)" display="inline" fill="#E6E6E6" width="5.8" height="0.2"/>
	<polygon display="inline" opacity="0.3" fill="#FFFFFF" enable-background="new    " points="20.4,56.7 29.4,40.1 20,35 	"/>
	<g display="inline">
		<path display="none" opacity="0.3" fill="#333333" enable-background="new    " d="M50.8,33c0.1,0,0.2-0.3-1.5-1.7
			c0,0,0-0.2-0.2-0.2c0,0-1.5-1.2-2.6-1.6c0,0-0.4,0.1-0.2,0.3c0,0,0.5,1.1,2,2.3c0,0,0.2,0.4,0.5,0.2c0,0,0,0-0.1,0l9,7.7
			c0,0,0,0,0-0.1c0,0.1,0,0.1,0,0.1c0.5,0,0.7-0.7,0.7-0.7L50.8,33z"/>
		<g>
			<path fill="#CC3333" d="M51.1,32.7c0,0,0.4-0.1-1.5-1.7c0,0,0-0.2-0.2-0.2c0,0-1.5-1.2-2.6-1.6c0,0-0.4,0.1-0.2,0.3
				c0,0,0.5,1.1,2,2.3c0,0,0.2,0.4,0.5,0.2c0,0-0.1,0-0.3-0.4c0,0,0.2-0.4,0.3-0.4c0,0,0,0,0.1,0C49.1,31.3,50.6,32.8,51.1,32.7z"/>
			<path fill="#E6E6E6" d="M58.6,39.1L49.2,31c0,0-0.6,0.2-0.7,0.7l9.4,8C57.8,39.8,58,39.1,58.6,39.1z"/>
			<path fill="#CCCCCC" d="M58.3,39.2l-9.4-8l-0.2,0.2l9.4,8C58.1,39.3,58.2,39.2,58.3,39.2z"/>
			<path fill="#D34658" d="M58.6,39.1c0,0-0.2,0.6-0.7,0.7C57.8,39.8,58,39,58.6,39.1z"/>
		</g>
	</g>
	<g display="inline">
		<path display="none" opacity="0.4" fill="#333333" enable-background="new    " d="M2.7,37.7L3,37.9c0.3,0.2,0.7,0.2,0.9-0.1
			L5,36.5c1.1,0.7,2.4,1,3.7,0.9c3.2-0.3,5.6-3,5.2-6.1c-0.3-3.1-3.2-5.4-6.5-5.1c-3.2,0.3-5.6,3-5.2,6.1c0.1,1.2,0.7,2.3,1.5,3.2
			l-1.1,1.3C2.3,37.1,2.4,37.5,2.7,37.7z"/>
		<g>
			<path fill="#F2F2F2" d="M3.5,34.4c0.2-0.3,0.6-0.3,0.9-0.1l0.1,0.1c0.3,0.2,0.5,0.8,0.3,1L3,37.5c-0.2,0.3-0.6,0.3-0.9,0.1
				l-0.3-0.2c-0.3-0.2-0.3-0.6-0.1-0.9L3.5,34.4z"/>
			<g>
				<path fill="#F2F2F2" d="M11.7,27.7c2.1,2.4,1.7,5.9-0.8,8s-6.2,1.9-8.2-0.5c-2.1-2.4-1.7-5.9,0.8-8S9.7,25.4,11.7,27.7z"/>
				<path fill="#42210B" d="M7.6,26.9c2.4,0.1,4.3,2.3,4.1,4.8S9.4,36.2,6.9,36c-2.4-0.1-4.3-2.3-4.1-4.8S5.1,26.8,7.6,26.9z"/>
				<path fill="#603813" d="M10.9,29.8c1,1.5,0.4,3.6-1.2,4.5c-1.6,1-3.7,0.5-4.7-1s-0.4-3.6,1.2-4.5C7.8,27.8,9.9,28.2,10.9,29.8z"
					/>
			</g>
		</g>
		<path opacity="0.1" fill="#FFFFFF" enable-background="new    " d="M6.9,26.5c2.5-0.1,4.7,1.7,4.9,4.2c0.3,2.5-1.5,4.6-4,4.8"/>
	</g>
	<circle display="inline" fill="#FFFFFF" cx="49.9" cy="20.6" r="8.6"/>
	<circle display="inline" fill="#C0392B" cx="50" cy="20.6" r="7.8"/>
	<g display="inline">
		<g>
			
				<radialGradient id="SVGID_1_" cx="50.7446" cy="36.7132" r="4.518" gradientTransform="matrix(0.9181 -0.3963 -0.3963 -0.9181 18.3888 74.6013)" gradientUnits="userSpaceOnUse">
				<stop  offset="0" style="stop-color:#FFFFFF"/>
				<stop  offset="1" style="stop-color:#FFFFFF"/>
			</radialGradient>
			<path fill="url(#SVGID_1_)" d="M49.3,15.2c-0.3,0.1-0.7,0.2-1.1,0.4l0,0l0,0l0,0l0,0c-0.4,0.2-0.8,0.4-1.1,0.5
				c-1.5,0.9-0.7,2.8-0.1,4.2l0.5,1.1v0.1l0.4,0.8l0.1,0.3l0.4,0.9c0.6,1.4,1.4,3.3,3.1,2.8c0.3-0.1,0.7-0.2,1.1-0.4l0,0l0,0l0,0
				l0,0c0.4-0.2,0.8-0.4,1.1-0.5c1.5-0.9,0.7-2.7,0.1-4.2l-0.4-0.9L53.3,20L53,19.2v-0.1L52.5,18C51.8,16.5,51,14.7,49.3,15.2z"/>
		</g>
	</g>
	<g display="inline">
		<g>
			<g>
				
					<rect x="36.2" y="35.6" transform="matrix(0.918 -0.3966 0.3966 0.918 -14.5331 21.0415)" fill="#F2F2F2" width="14.9" height="20.2"/>
			</g>
			
				<rect x="37" y="36.2" transform="matrix(-0.9152 0.403 -0.403 -0.9152 101.8627 69.5322)" fill="#FFFFFF" width="13.2" height="18.6"/>
			<g display="none">
				<path display="inline" fill="#CCCCCC" d="M40.5,35.8l0.6,1.3l-0.9,0.4c-0.1,0,0,0.2-0.1,0.2l-0.4,0.2c-0.1,0-0.1-0.1-0.2-0.1
					l-0.9,0.4L38,36.9L40.5,35.8z"/>
				<path display="inline" fill="#CCCCCC" d="M39.8,37.7L39.8,37.7c0.2-0.1,0.2,0,0.3,0l-0.4,0.2C39.8,37.8,39.7,37.7,39.8,37.7z"/>
				<path display="inline" fill="#D64541" d="M39.4,37.8L39.4,37.8L39.4,37.8l-0.6-2l0,0l0,0c-0.2,0-0.3-0.1-0.4-0.2
					c-0.1-0.2,0-0.4,0.2-0.5c0,0,0.1,0,0.1-0.1h0.1c0.2-0.1,0.5,0,0.5,0.2c0.1,0.2,0,0.3-0.1,0.4l0,0l0,0l1,1.8l0,0l0,0l0,0l0,0v0.1
					h-0.1l-1-1.8c0,0,0,0,0-0.1c0,0,0,0,0-0.1l0.1-0.1c0-0.1,0.1-0.2,0-0.3c0-0.1-0.1-0.1-0.2-0.2c-0.1,0-0.1,0-0.2,0
					c0,0-0.1,0-0.2,0c-0.1,0-0.1,0.1-0.2,0.1l-0.1,0.1c0,0.1-0.1,0.2,0,0.3c0,0.1,0.1,0.1,0.2,0.2h0.1c0,0,0,0,0.1,0v0.1L39.4,37.8
					C39.5,37.9,39.5,37.9,39.4,37.8L39.4,37.8C39.4,37.9,39.4,37.9,39.4,37.8C39.4,37.9,39.4,37.9,39.4,37.8z"/>
				<g display="inline">
					<path fill="#CCCCCC" d="M40.3,37.6c0.3-0.1,0.5-0.2,0.8-0.4c0-0.1,0-0.2-0.1-0.2c-0.3,0.1-0.5,0.2-0.8,0.4
						C40.2,37.5,40.3,37.5,40.3,37.6z"/>
				</g>
				<g display="inline">
					<path fill="#CCCCCC" d="M39.4,38c-0.3,0.1-0.5,0.2-0.8,0.4c-0.1,0-0.1-0.1-0.1-0.2c0.3-0.1,0.5-0.2,0.8-0.4
						C39.4,37.8,39.5,37.9,39.4,38z"/>
				</g>
			</g>
		</g>
		<g display="none">
			
				<rect x="36.9" y="41.8" transform="matrix(-0.924 0.3825 -0.3825 -0.924 96.5386 64.5048)" display="inline" fill="#87653D" width="9.9" height="0.1"/>
			<g display="inline">
				<path fill="#E2713B" d="M37.8,44.1c-0.2,0-0.5-0.1-0.6-0.4c-0.1-0.1-0.1-0.3,0-0.5s0.2-0.3,0.3-0.3h0.1h0.1
					c0.2,0,0.5,0.1,0.6,0.4c0.1,0.3,0,0.7-0.3,0.8H37.8L37.8,44.1z"/>
				<path fill="#F9EEC0" d="M37.8,43.3C37.9,43.3,37.9,43.3,37.8,43.3c0.1,0.2,0.1,0.3,0,0.3c0,0,0,0-0.1,0s-0.1,0-0.1-0.1
					C37.7,43.5,37.7,43.4,37.8,43.3L37.8,43.3 M37.8,42.4c-0.1,0-0.3,0-0.4,0.1c-0.3,0.1-0.5,0.3-0.6,0.6s-0.1,0.6,0,0.8
					c0.2,0.4,0.6,0.7,1,0.7c0.1,0,0.3,0,0.4-0.1c0.3-0.1,0.5-0.3,0.6-0.6s0.1-0.6,0-0.8C38.7,42.7,38.3,42.4,37.8,42.4L37.8,42.4z"
					/>
			</g>
			<g display="inline">
				<path fill="#B79980" d="M45.7,40.8c-0.2,0-0.5-0.1-0.6-0.4c-0.1-0.1-0.1-0.3,0-0.5s0.2-0.3,0.3-0.3h0.1h0.1
					c0.2,0,0.5,0.1,0.6,0.4c0.1,0.3,0,0.7-0.3,0.8H45.7L45.7,40.8z"/>
				<path fill="#F9EEC0" d="M45.7,40.1C45.8,40.1,45.8,40.1,45.7,40.1c0.1,0.2,0.1,0.3,0,0.3c0,0,0,0-0.1,0s-0.1,0-0.1-0.1
					C45.6,40.2,45.6,40.1,45.7,40.1L45.7,40.1 M45.7,39.2c-0.1,0-0.3,0-0.4,0.1c-0.5,0.2-0.8,0.8-0.6,1.4c0.2,0.4,0.6,0.7,1,0.7
					c0.1,0,0.3,0,0.4-0.1c0.5-0.2,0.8-0.8,0.6-1.4C46.5,39.4,46.2,39.2,45.7,39.2L45.7,39.2z"/>
			</g>
			<g display="inline">
				<path fill="#E3C62F" d="M41.9,42.4c-0.2,0-0.5-0.1-0.6-0.4c-0.1-0.3,0-0.7,0.3-0.8h0.1h0.2c0.2,0,0.5,0.1,0.6,0.4
					c0.1,0.1,0.1,0.3,0,0.5s-0.2,0.3-0.3,0.3h-0.1H41.9z"/>
				<path fill="#F9EEC0" d="M41.9,41.6C42,41.6,42,41.6,41.9,41.6c0.1,0.2,0.1,0.3,0,0.3c0,0,0,0-0.1,0s-0.1,0-0.1-0.1
					C41.8,41.8,41.8,41.7,41.9,41.6L41.9,41.6 M41.9,40.7c-0.1,0-0.3,0-0.4,0.1C41,41,40.7,41.7,41,42.2c0.2,0.4,0.6,0.7,1,0.7
					c0.1,0,0.3,0,0.4-0.1c0.5-0.2,0.8-0.8,0.6-1.4C42.8,41,42.4,40.7,41.9,40.7L41.9,40.7z"/>
			</g>
			<g display="inline">
				<path fill="#56997D" d="M42.9,42c-0.2,0-0.5-0.1-0.6-0.4c-0.1-0.1-0.1-0.3,0-0.5c0.1-0.1,0.2-0.3,0.3-0.3h0.1h0.2
					c0.2,0,0.5,0.1,0.6,0.4c0.1,0.3,0,0.7-0.3,0.8h-0.1H42.9z"/>
				<path fill="#F9EEC0" d="M42.9,41.2C43,41.2,43,41.2,42.9,41.2c0.1,0.2,0.1,0.3,0,0.3c0,0,0,0-0.1,0s-0.1,0-0.1-0.1
					C42.7,41.4,42.8,41.3,42.9,41.2L42.9,41.2 M42.9,40.3c-0.1,0-0.3,0-0.4,0.1c-0.5,0.2-0.8,0.8-0.6,1.4c0.2,0.4,0.6,0.7,1,0.7
					c0.1,0,0.3,0,0.4-0.1c0.3-0.1,0.5-0.3,0.6-0.6s0.1-0.6,0-0.8C43.7,40.6,43.3,40.3,42.9,40.3L42.9,40.3z"/>
			</g>
			<g display="inline">
				<path fill="#D3B666" d="M40,43.2c-0.2,0-0.5-0.1-0.6-0.4c-0.1-0.2-0.1-0.3,0-0.5s0.2-0.3,0.3-0.3h0.1h0.1c0.2,0,0.5,0.1,0.6,0.4
					c0.1,0.3,0,0.7-0.3,0.8H40L40,43.2z"/>
				<path fill="#F9EEC0" d="M40,42.5C40.1,42.5,40.1,42.5,40,42.5c0.1,0.2,0.1,0.3,0,0.3c0,0,0,0-0.1,0s-0.1,0-0.1-0.1
					C39.8,42.6,39.8,42.5,40,42.5C39.9,42.5,40,42.5,40,42.5 M40,41.5c-0.1,0-0.3,0-0.4,0.1C39,41.9,38.8,42.5,39,43
					c0.2,0.4,0.6,0.7,1,0.7c0.1,0,0.3,0,0.4-0.1c0.3-0.1,0.5-0.3,0.6-0.6s0.1-0.6,0-0.8C40.8,41.8,40.4,41.5,40,41.5L40,41.5z"/>
			</g>
			<g display="inline">
				<path fill="#E29674" d="M39.3,43.5c-0.2,0-0.5-0.1-0.6-0.4c-0.1-0.1-0.1-0.3,0-0.5s0.2-0.3,0.3-0.3h0.1h0.1
					c0.2,0,0.5,0.1,0.6,0.4c0.1,0.3,0,0.7-0.3,0.8H39.3L39.3,43.5z"/>
				<path fill="#F9EEC0" d="M39.3,42.7C39.4,42.7,39.4,42.7,39.3,42.7c0.1,0.2,0.1,0.3,0,0.3c0,0,0,0-0.1,0s-0.1,0-0.1-0.1
					C39.2,42.9,39.2,42.8,39.3,42.7L39.3,42.7 M39.3,41.8L39.3,41.8c-0.1,0-0.3,0-0.4,0.1c-0.3,0.1-0.5,0.3-0.6,0.6s-0.1,0.6,0,0.8
					c0.2,0.4,0.6,0.7,1,0.7c0.1,0,0.3,0,0.4-0.1c0.3-0.1,0.5-0.3,0.6-0.6s0.1-0.6,0-0.8C40.1,42.1,39.8,41.8,39.3,41.8L39.3,41.8z"
					/>
			</g>
			<g display="inline">
				<path fill="#7AC1A0" d="M43.7,41.7c-0.2,0-0.5-0.1-0.6-0.4c-0.1-0.2-0.1-0.3,0-0.5s0.2-0.3,0.3-0.3h0.1h0.1
					c0.2,0,0.5,0.1,0.6,0.4c0.1,0.1,0.1,0.3,0,0.5s-0.2,0.3-0.3,0.3H43.7L43.7,41.7z"/>
				<path fill="#F9EEC0" d="M43.7,40.9C43.8,40.9,43.8,40.9,43.7,40.9c0.1,0.2,0.1,0.3,0,0.3c0,0,0,0-0.1,0s-0.1,0-0.1-0.1
					C43.5,41,43.6,41,43.7,40.9L43.7,40.9 M43.7,40c-0.1,0-0.3,0-0.4,0.1c-0.5,0.2-0.8,0.8-0.6,1.4c0.2,0.4,0.6,0.7,1,0.7
					c0.1,0,0.3,0,0.4-0.1c0.3-0.1,0.5-0.3,0.6-0.6s0.1-0.6,0-0.8C44.5,40.3,44.1,40,43.7,40L43.7,40z"/>
			</g>
			<g display="inline">
				<path fill="#87653D" d="M44.5,41.3c-0.2,0-0.5-0.1-0.6-0.4c-0.1-0.1-0.1-0.3,0-0.5c0.1-0.1,0.2-0.3,0.3-0.3h0.1h0.2
					c0.2,0,0.5,0.1,0.6,0.4c0.1,0.3,0,0.7-0.3,0.8h-0.1H44.5z"/>
				<path fill="#F9EEC0" d="M44.5,40.6C44.6,40.6,44.6,40.6,44.5,40.6c0.1,0.2,0.1,0.3,0,0.3c0,0,0,0-0.1,0s-0.1,0-0.1-0.1
					C44.3,40.7,44.4,40.6,44.5,40.6L44.5,40.6 M44.5,39.7c-0.1,0-0.3,0-0.4,0.1c-0.3,0.1-0.5,0.3-0.6,0.6s-0.1,0.6,0,0.8
					c0.2,0.4,0.6,0.7,1,0.7c0.1,0,0.3,0,0.4-0.1c0.3-0.1,0.5-0.3,0.6-0.6s0.1-0.6,0-0.8C45.3,39.9,44.9,39.7,44.5,39.7L44.5,39.7z"
					/>
			</g>
			<g display="inline">
				<polygon fill="#FFFF66" points="38.4,43.9 38,43.7 38.1,44 38.4,44.8 39.5,44.4 39.2,43.5 				"/>
				<g>
					<g>
						<path fill="#A67C52" d="M38.5,44.3c0,0-0.2-0.3,0.1-0.5C38.9,43.7,39,44,39,44l0,0v0.1v0.1V44c0,0-0.1-0.2-0.3-0.1
							c-0.2,0.1-0.1,0.3-0.1,0.3l0.1,0.3c0,0,0,0-0.1,0L38.5,44.3C38.5,44.4,38.5,44.4,38.5,44.3"/>
						<path fill="#A67C52" d="M38.8,44.5L38.8,44.5L38.8,44.5C38.7,44.6,38.7,44.6,38.8,44.5l-0.2-0.2l0,0h0.1l0,0L38.8,44.5z"/>
						<path fill="#A67C52" d="M39.1,44.3C39.1,44.3,39.1,44.4,39.1,44.3L39.1,44.3C39,44.4,39,44.4,39.1,44.3l-0.2-0.2l0,0H39l0,0
							L39.1,44.3z"/>
						<path fill="#A67C52" d="M38.5,44.4L38.5,44.4C38.6,44.5,38.5,44.5,38.5,44.4L38.5,44.4z"/>
						<path fill="#A67C52" d="M39.1,44.1L39.1,44.1C39.1,44.2,39.2,44.2,39.1,44.1L39.1,44.1z"/>
					</g>
				</g>
			</g>
			<g display="inline">
				<polygon fill="#D34658" points="40.5,43 40.1,42.8 40.2,43.1 40.5,43.9 41.6,43.5 41.3,42.7 				"/>
				<g>
					<g>
						<path fill="#F9EEC0" d="M40.9,43.2L40.9,43.2L40.9,43.2L40.9,43.2L40.9,43.2c-0.3,0-0.5,0.2-0.5,0.2l0,0h0.1
							c0,0,0,0.1,0.1,0.1h0.2c0.1,0,0.1-0.1,0.1-0.1v-0.1C40.9,43.3,40.9,43.3,40.9,43.2L40.9,43.2C40.9,43.3,40.9,43.3,40.9,43.2
							l0.2,0.2c0,0,0.1,0,0.2,0l0.1-0.1v-0.1c0,0,0,0,0-0.1l0,0C41.4,43.1,41.1,43.1,40.9,43.2z M40.5,43.4L40.5,43.4L40.5,43.4
							L40.5,43.4L40.5,43.4z M40.9,43.4L40.9,43.4c-0.1,0.1-0.1,0.2-0.2,0.2c-0.1,0-0.1,0-0.1-0.1s0.1-0.1,0.1-0.1
							S40.8,43.4,40.9,43.4C40.9,43.3,40.9,43.4,40.9,43.4z M41.3,43.3c0,0-0.1,0.1-0.2,0.1H41c0,0-0.1-0.1,0-0.1
							C41.1,43.2,41.2,43.2,41.3,43.3L41.3,43.3L41.3,43.3z M41.3,43.1L41.3,43.1L41.3,43.1C41.3,43,41.3,43,41.3,43.1L41.3,43.1z"
							/>
					</g>
				</g>
			</g>
			<g display="inline">
				<polygon fill="#FF6666" points="38.7,42.5 39.2,42.6 39,42.4 38.7,41.5 37.6,42 38,42.8 				"/>
				<g>
					<g>
						<path fill="#F9EEC0" d="M38.1,41.9l0.2-0.1l0,0l0,0l0,0l0,0l0,0l0,0l-0.4,0.1l0,0H38.1C38,42,38,42,38.1,41.9L38.1,41.9
							L38.1,41.9C38.1,42,38.1,41.9,38.1,41.9"/>
						<path fill="#F9EEC0" d="M38.5,42.3l-0.2,0.1l-0.1-0.1H38.5L38.5,42.3z M38.4,42l-0.3,0.1l0.2,0.4l0,0l0.2-0.1l0,0L38.4,42z"/>
					</g>
				</g>
			</g>
			<g display="inline">
				<polygon fill="#FFFF66" points="41.4,41.4 41.8,41.5 41.7,41.2 41.4,40.4 40.3,40.9 40.6,41.7 				"/>
				<g>
					<g>
						<path fill="#A67C52" d="M41.1,40.7l-0.5,0.2c0,0,0,0,0,0.1l0.1,0.4c0,0,0,0,0.1,0l0.2-0.1v0.1l-0.2,0.1l0,0l0.5-0.2l0,0
							l-0.2,0.1v-0.1l0.2-0.1c0,0,0,0,0-0.1L41.1,40.7C41.2,40.7,41.2,40.7,41.1,40.7z M41,41.2L41,41.2C41,41.2,41.1,41.2,41,41.2
							C41.1,41.2,41.1,41.2,41,41.2L41,41.2z M41.3,41l-0.6,0.2L40.6,41l0.6-0.2L41.3,41z"/>
					</g>
				</g>
			</g>
			<g display="inline">
				<polygon fill="#FF6666" points="43.5,41.8 43.1,41.7 43.2,42 43.5,42.8 44.6,42.3 44.3,41.5 				"/>
				<g>
					<g>
						<path fill="#F9EEC0" d="M43.9,41.8l-0.2,0.1c0,0,0,0,0,0.1l0.2,0.6c0,0,0,0,0.1,0l0.2-0.1c0,0,0,0,0-0.1L43.9,41.8
							C44,41.8,43.9,41.8,43.9,41.8z M43.8,41.9L43.8,41.9C43.9,41.9,43.9,41.9,43.8,41.9C43.9,41.9,43.9,41.9,43.8,41.9L43.8,41.9
							L43.8,41.9C43.7,41.9,43.8,41.9,43.8,41.9z M44,42.4C44,42.5,44,42.4,44,42.4L44,42.4L44,42.4C44.1,42.4,44.1,42.4,44,42.4z
							 M44.1,42.3l-0.3,0.1L43.7,42l0.3-0.1L44.1,42.3z"/>
						<polygon fill="#F9EEC0" points="43.8,41.9 43.8,41.9 43.9,41.9 43.8,41.9 43.8,41.9 						"/>
					</g>
				</g>
			</g>
			<g display="inline">
				<polygon fill="#00CCCC" points="45,41.2 44.6,41.1 44.7,41.3 45.1,42.1 46.2,41.7 45.8,40.9 				"/>
				<g>
					<path fill="#F9EEC0" d="M45.4,41.2L45.4,41.2C45.4,41.1,45.4,41.1,45.4,41.2C45.3,41.1,45.3,41.2,45.4,41.2
						C45.3,41.2,45.3,41.3,45.4,41.2z M45.5,41.3C45.5,41.2,45.5,41.2,45.5,41.3h-0.2c0,0,0,0,0,0.1l0.1,0.2l0,0l0,0l-0.1-0.2l0,0
						l0.2,0.5l0,0l0,0l-0.1-0.3l0,0l0.1,0.3l0,0l0,0V41.3L45.5,41.3v0.2l0,0l0,0V41.3z"/>
				</g>
			</g>
			<g display="inline">
				<polygon fill="#00CCCC" points="43.1,40.7 43.5,40.8 43.4,40.5 43.1,39.7 42,40.2 42.3,41 				"/>
				<g>
					<g>
						<path fill="#F9EEC0" d="M42.7,40.4c0,0,0-0.1,0.2-0.1H43c0,0,0,0,0.1,0l0,0l0,0c0,0,0,0,0.1,0c0,0,0.1,0,0.1,0.1
							c0,0,0,0.1-0.1,0.1C43,40.4,42.9,40.4,42.7,40.4C42.8,40.4,42.8,40.4,42.7,40.4L42.7,40.4c0,0.1,0,0.2-0.2,0.2h-0.1
							c0,0-0.1,0,0-0.1c0,0,0,0,0.1,0c0,0-0.1,0,0,0.1l0,0c0,0,0,0,0.1-0.1C42.6,40.5,42.6,40.4,42.7,40.4
							C42.6,40.4,42.6,40.3,42.7,40.4"/>
					</g>
				</g>
			</g>
			<g display="inline">
				<polygon fill="#D34658" points="45.1,39.8 45.5,40 45.4,39.7 45.1,38.9 44,39.3 44.3,40.2 				"/>
				<g>
					<path fill="#F9EEC0" d="M44.9,39.4L44.9,39.4c0-0.2-0.2-0.2-0.2-0.2s0.1,0.1-0.1,0.2c-0.2,0.1-0.2,0.2-0.2,0.2l0,0
						c0,0.1,0.1,0.2,0.1,0.3l0,0l-0.1-0.1v-0.1c0,0,0.1,0,0.2,0C44.8,39.5,44.9,39.5,44.9,39.4l0.1,0.2v0.1l0,0
						C45,39.6,45,39.4,44.9,39.4z"/>
				</g>
			</g>
		</g>
	</g>
	<g display="inline">
		<path opacity="0.3" fill="#333333" enable-background="new    " d="M44.6,36.3L44.6,36.3L44.6,36.3L44.6,36.3L44.6,36.3z
			 M44.5,36.4L44.5,36.4L44.5,36.4L44.5,36.4L44.5,36.4z"/>
		<g>
			
				<linearGradient id="SVGID_2_" gradientUnits="userSpaceOnUse" x1="3060.0791" y1="402.3584" x2="3060.8044" y2="402.3584" gradientTransform="matrix(0.3887 -0.5707 -0.8265 -0.563 -805.9167 2013.7811)">
				<stop  offset="0" style="stop-color:#F9AAAA"/>
				<stop  offset="0.3354" style="stop-color:#F7A8AA"/>
				<stop  offset="0.5218" style="stop-color:#EFA2AA"/>
				<stop  offset="0.6712" style="stop-color:#E198AA"/>
				<stop  offset="0.8009" style="stop-color:#CD89AA"/>
				<stop  offset="0.8086" style="stop-color:#CC88AA"/>
			</linearGradient>
			<path fill="url(#SVGID_2_)" d="M51.4,40.6c0.1,0,0.1,0.1,0.1,0.2L51.3,41c0,0-0.1,0-0.2,0l-0.3-0.2c-0.1,0-0.1-0.1-0.1-0.2
				l0.2-0.2c0,0,0.1,0,0.2,0L51.4,40.6z"/>
			<g>
				<polygon fill="#F4CEA4" points="43.9,35.8 44.6,36.3 44.7,36.2 43.9,35.7 				"/>
				<polygon fill="#F2DCC7" points="43.9,35.8 44.5,36.4 44.6,36.3 				"/>
				<polygon fill="#E8BB8E" points="44.7,36.2 44.7,36 44,35.7 43.9,35.7 				"/>
				
					<linearGradient id="SVGID_3_" gradientUnits="userSpaceOnUse" x1="3060.3093" y1="411.3039" x2="3060.574" y2="411.3039" gradientTransform="matrix(0.3887 -0.5707 -0.8265 -0.563 -805.9167 2013.7811)">
					<stop  offset="0" style="stop-color:#3C3C3B"/>
					<stop  offset="4.713451e-002" style="stop-color:#444443"/>
					<stop  offset="0.1209" style="stop-color:#5A5A59"/>
					<stop  offset="0.2122" style="stop-color:#7E7E7E"/>
					<stop  offset="0.3164" style="stop-color:#B0B0B0"/>
					<stop  offset="0.3578" style="stop-color:#C6C6C6"/>
					<stop  offset="0.4447" style="stop-color:#9B9B9B"/>
					<stop  offset="0.5946" style="stop-color:#555554"/>
					<stop  offset="1" style="stop-color:#3C3C3B"/>
				</linearGradient>
				<polygon fill="url(#SVGID_3_)" points="43.5,35.5 43.9,35.8 43.9,35.8 43.9,35.7 44,35.7 				"/>
			</g>
			
				<linearGradient id="SVGID_4_" gradientUnits="userSpaceOnUse" x1="3060.0791" y1="402.4974" x2="3060.8042" y2="402.4974" gradientTransform="matrix(0.3887 -0.5707 -0.8265 -0.563 -805.9167 2013.7811)">
				<stop  offset="0" style="stop-color:#706F6F"/>
				<stop  offset="0.1816" style="stop-color:#FFFFFF"/>
				<stop  offset="0.2491" style="stop-color:#FDFDFD"/>
				<stop  offset="0.2734" style="stop-color:#F6F6F6"/>
				<stop  offset="0.2907" style="stop-color:#EBEBEB"/>
				<stop  offset="0.3047" style="stop-color:#DADADA"/>
				<stop  offset="0.3167" style="stop-color:#C4C4C4"/>
				<stop  offset="0.3272" style="stop-color:#A9A9A9"/>
				<stop  offset="0.3366" style="stop-color:#8A8A8A"/>
				<stop  offset="0.3373" style="stop-color:#878787"/>
				<stop  offset="0.4645" style="stop-color:#7E7E7E"/>
				<stop  offset="0.6714" style="stop-color:#666666"/>
				<stop  offset="0.931" style="stop-color:#40403F"/>
				<stop  offset="0.9532" style="stop-color:#3C3C3B"/>
			</linearGradient>
			<polygon fill="url(#SVGID_4_)" points="51.3,40.5 51,40.9 50.7,40.7 51,40.3 			"/>
			<path opacity="0.51" fill="#D64541" enable-background="new    " d="M44.6,36.3C44.5,36.3,44.5,36.3,44.6,36.3
				C44.5,36.3,44.5,36.4,44.6,36.3L44.6,36.3l6.2,4.4l0.1-0.1L44.6,36.3L44.6,36.3z"/>
			<path fill="#D64541" d="M44.7,36.2C44.6,36.2,44.6,36.2,44.7,36.2C44.6,36.2,44.6,36.3,44.7,36.2L44.7,36.2l6.2,4.4l0.1-0.1
				L44.7,36.2L44.7,36.2z"/>
			<path fill="#C0392B" d="M44.8,36C44.7,36,44.7,36,44.8,36C44.7,36,44.7,36.1,44.8,36L44.8,36l6.2,4.4l0.1-0.1L44.8,36L44.8,36z"
				/>
		</g>
	</g>
	
		<line display="inline" fill="none" stroke="#4D4D4D" stroke-width="0.1" stroke-miterlimit="10" x1="37.1" y1="43.3" x2="45.4" y2="39.8"/>
	
		<line display="inline" fill="none" stroke="#4D4D4D" stroke-width="0.1" stroke-miterlimit="10" x1="38.1" y1="45.3" x2="46.4" y2="41.8"/>
	<g display="inline">
		<g>
			<path fill="#F2F2F2" d="M40.2,14.7c0.1,0.5-0.2,1-0.7,1.1L9,23.4c-0.5,0.1-1-0.2-1.1-0.7l-3-12c-0.1-0.5,0.2-1,0.7-1.1L36.1,2
				c0.5-0.1,1,0.2,1.1,0.7L40.2,14.7z"/>
		</g>
		<g>
			<g>
				<path fill="#FFFFFF" d="M10.4,22.1c0,0.1,0,0.3-0.2,0.3l-1.3,0.3c-0.1,0-0.3,0-0.3-0.2l-0.3-1.3c0-0.1,0-0.3,0.2-0.3l1.3-0.3
					c0.1,0,0.3,0,0.3,0.2L10.4,22.1z"/>
			</g>
			<g>
				<path fill="#FFFFFF" d="M12.5,21.5c0,0.1,0,0.3-0.2,0.3L11,22.2c-0.1,0-0.3,0-0.3-0.2l-0.3-1.3c0-0.1,0-0.3,0.2-0.3l1.3-0.3
					c0.1,0,0.3,0,0.3,0.2L12.5,21.5z"/>
			</g>
			<g>
				<path fill="#FFFFFF" d="M14.6,21c0,0.1,0,0.3-0.2,0.3l-1.3,0.3c-0.1,0-0.3,0-0.3-0.2l-0.3-1.3c0-0.1,0-0.3,0.2-0.3l1.3-0.3
					c0.1,0,0.3,0,0.3,0.2L14.6,21z"/>
			</g>
			<g>
				<path fill="#FFFFFF" d="M16.6,20.5c0,0.1,0,0.3-0.2,0.3l-1.3,0.3c-0.1,0-0.3,0-0.3-0.2l-0.3-1.3c0-0.1,0-0.3,0.2-0.3L16,19
					c0.1,0,0.3,0,0.3,0.2L16.6,20.5z"/>
			</g>
			<g>
				<path fill="#FFFFFF" d="M31.6,16.8c0,0.1,0,0.3-0.2,0.3l-1.6,0.4c-0.1,0-0.3,0-0.3-0.2L29.2,16c0-0.1,0-0.3,0.2-0.3l1.6-0.4
					c0.1,0,0.3,0,0.3,0.2L31.6,16.8z"/>
			</g>
			<g>
				<g>
					<path fill="#FFFFFF" d="M12.5,19.3c0,0.1,0,0.3-0.2,0.3L11,19.9c-0.1,0-0.3,0-0.3-0.2l-0.3-1.3c0-0.1,0-0.3,0.2-0.3l1.3-0.3
						c0.1,0,0.3,0,0.3,0.2L12.5,19.3z"/>
				</g>
				<g>
					<path fill="#FFFFFF" d="M14.6,18.8c0,0.1,0,0.3-0.2,0.3l-1.3,0.3c-0.1,0-0.3,0-0.3-0.2L12.5,18c0-0.1,0-0.3,0.2-0.3l1.3-0.3
						c0.1,0,0.3,0,0.3,0.2L14.6,18.8z"/>
				</g>
				<g>
					<path fill="#FFFFFF" d="M16.6,18.3c0,0.1,0,0.3-0.2,0.3l-1.3,0.3c-0.1,0-0.3,0-0.3-0.2l-0.3-1.3c0-0.1,0-0.3,0.2-0.3l1.3-0.3
						c0.1,0,0.3,0,0.3,0.2L16.6,18.3z"/>
				</g>
				<g>
					<path fill="#FFFFFF" d="M18.7,17.8c0,0.1,0,0.3-0.2,0.3l-1.3,0.3c-0.1,0-0.3,0-0.3-0.2l-0.3-1.3c0-0.1,0-0.3,0.2-0.3l1.3-0.3
						c0.1,0,0.3,0,0.3,0.2L18.7,17.8z"/>
				</g>
				<g>
					<path fill="#FFFFFF" d="M20.8,17.2c0,0.1,0,0.3-0.2,0.3l-1.3,0.3c-0.1,0-0.3,0-0.3-0.2l-0.3-1.3c0-0.1,0-0.3,0.2-0.3l1.3-0.3
						c0.1,0,0.3,0,0.3,0.2L20.8,17.2z"/>
				</g>
				<g>
					<path fill="#FFFFFF" d="M22.9,16.7c0,0.1,0,0.3-0.2,0.3l-1.3,0.3c-0.1,0-0.3,0-0.3-0.2l-0.3-1.3c0-0.1,0-0.3,0.2-0.3l1.3-0.3
						c0.1,0,0.3,0,0.3,0.2L22.9,16.7z"/>
				</g>
				<g>
					<path fill="#FFFFFF" d="M25,16.2c0,0.1,0,0.3-0.2,0.3l-1.3,0.3c-0.1,0-0.3,0-0.3-0.2L23,15.4c0-0.1,0-0.3,0.2-0.3l1.3-0.3
						c0.1,0,0.3,0,0.3,0.2L25,16.2z"/>
				</g>
				<g>
					<path fill="#FFFFFF" d="M27.1,15.7c0,0.1,0,0.3-0.2,0.3l-1.3,0.3c-0.1,0-0.3,0-0.3-0.2L25,14.8c0-0.1,0-0.3,0.2-0.3l1.3-0.3
						c0.1,0,0.3,0,0.3,0.2L27.1,15.7z"/>
				</g>
				<g>
					<path fill="#FFFFFF" d="M29.2,15.2c0,0.1,0,0.3-0.2,0.3l-1.3,0.3c-0.1,0-0.3,0-0.3-0.2l-0.3-1.3c0-0.1,0-0.3,0.2-0.3l1.3-0.3
						c0.1,0,0.3,0,0.3,0.2L29.2,15.2z"/>
				</g>
				<g>
					<path fill="#FFFFFF" d="M31.3,14.6c0,0.1,0,0.3-0.2,0.3l-1.3,0.3c-0.1,0-0.3,0-0.3-0.2l-0.3-1.3c0-0.1,0-0.3,0.2-0.3l1.3-0.3
						c0.1,0,0.3,0,0.3,0.2L31.3,14.6z"/>
				</g>
				<g>
					<path fill="#FFFFFF" d="M33.4,14.1c0,0.1,0,0.3-0.2,0.3L32,14.7c-0.1,0-0.3,0-0.3-0.2l-0.3-1.3c0-0.1,0-0.3,0.2-0.3l1.3-0.3
						c0.1,0,0.3,0,0.3,0.2L33.4,14.1z"/>
				</g>
			</g>
			<g>
				<path fill="#FFFFFF" d="M13.7,16.8c0,0.1,0,0.3-0.2,0.3l-1.3,0.3c-0.1,0-0.3,0-0.3-0.2L11.6,16c0-0.1,0-0.3,0.2-0.3l1.3-0.3
					c0.1,0,0.3,0,0.3,0.2L13.7,16.8z"/>
			</g>
			<g>
				<path fill="#FFFFFF" d="M15.8,16.3c0,0.1,0,0.3-0.2,0.3l-1.3,0.3c-0.1,0-0.3,0-0.3-0.2l-0.3-1.3c0-0.1,0-0.3,0.2-0.3l1.3-0.3
					c0.1,0,0.3,0,0.3,0.2L15.8,16.3z"/>
			</g>
			<g>
				<path fill="#FFFFFF" d="M17.9,15.8c0,0.1,0,0.3-0.2,0.3l-1.3,0.3c-0.1,0-0.3,0-0.3-0.2l-0.3-1.3c0-0.1,0-0.3,0.2-0.3l1.3-0.3
					c0.1,0,0.3,0,0.3,0.2L17.9,15.8z"/>
			</g>
			<g>
				<path fill="#FFFFFF" d="M20,15.2c0,0.1,0,0.3-0.2,0.3l-1.3,0.3c-0.1,0-0.3,0-0.3-0.2l-0.3-1.3c0-0.1,0-0.3,0.2-0.3l1.3-0.3
					c0.1,0,0.3,0,0.3,0.2L20,15.2z"/>
			</g>
			<g>
				<path fill="#FFFFFF" d="M22.1,14.7c0,0.1,0,0.3-0.2,0.3l-1.3,0.3c-0.1,0-0.3,0-0.3-0.2L20,13.9c0-0.1,0-0.3,0.2-0.3l1.3-0.3
					c0.1,0,0.3,0,0.3,0.2L22.1,14.7z"/>
			</g>
			<g>
				<path fill="#FFFFFF" d="M24.1,14.2c0,0.1,0,0.3-0.2,0.3l-1.3,0.3c-0.1,0-0.3,0-0.3-0.2L22,13.3c0-0.1,0-0.3,0.2-0.3l1.3-0.3
					c0.1,0,0.3,0,0.3,0.2L24.1,14.2z"/>
			</g>
			<g>
				<path fill="#FFFFFF" d="M26.2,13.7c0,0.1,0,0.3-0.2,0.3l-1.3,0.3c-0.1,0-0.3,0-0.3-0.2l-0.3-1.3c0-0.1,0-0.3,0.2-0.3l1.3-0.3
					c0.1,0,0.3,0,0.3,0.2L26.2,13.7z"/>
			</g>
			<g>
				<path fill="#FFFFFF" d="M28.3,13.2c0,0.1,0,0.3-0.2,0.3l-1.3,0.3c-0.1,0-0.3,0-0.3-0.2l-0.3-1.3c0-0.1,0-0.3,0.2-0.3l1.3-0.3
					c0.1,0,0.3,0,0.3,0.2L28.3,13.2z"/>
			</g>
			<g>
				<path fill="#FFFFFF" d="M30.4,12.6c0,0.1,0,0.3-0.2,0.3L29,13.3c-0.1,0-0.3,0-0.3-0.2l-0.3-1.3c0-0.1,0-0.3,0.2-0.3l1.3-0.3
					c0.1,0,0.3,0,0.3,0.2L30.4,12.6z"/>
			</g>
			<g>
				<path fill="#FFFFFF" d="M32.5,12.1c0,0.1,0,0.3-0.2,0.3L31,12.7c-0.1,0-0.3,0-0.3-0.2l-0.3-1.3c0-0.1,0-0.3,0.2-0.3l1.3-0.3
					c0.1,0,0.3,0,0.3,0.2L32.5,12.1z"/>
			</g>
			<g>
				<path fill="#FFFFFF" d="M34.6,11.6c0,0.1,0,0.3-0.2,0.3l-1.3,0.3c-0.1,0-0.3,0-0.3-0.2l-0.3-1.3c0-0.1,0-0.3,0.2-0.3l1.3-0.3
					c0.1,0,0.3,0,0.3,0.2L34.6,11.6z"/>
			</g>
			<g>
				<path fill="#FFFFFF" d="M36.7,11.1c0,0.1,0,0.3-0.2,0.3l-1.3,0.3c-0.1,0-0.3,0-0.3-0.2l-0.3-1.3c0-0.1,0-0.3,0.2-0.3l1.3-0.3
					c0.1,0,0.3,0,0.3,0.2L36.7,11.1z"/>
			</g>
			<g>
				<g>
					<path fill="#FFFFFF" d="M12.8,14.8c0,0.1,0,0.3-0.2,0.3l-1.3,0.3c-0.1,0-0.3,0-0.3-0.2L10.8,14c0-0.1,0-0.3,0.2-0.3l1.3-0.3
						c0.1,0,0.3,0,0.3,0.2L12.8,14.8z"/>
				</g>
				<g>
					<path fill="#FFFFFF" d="M14.9,14.3c0,0.1,0,0.3-0.2,0.3l-1.3,0.3c-0.1,0-0.3,0-0.3-0.2l-0.3-1.3c0-0.1,0-0.3,0.2-0.3l1.3-0.3
						c0.1,0,0.3,0,0.3,0.2L14.9,14.3z"/>
				</g>
				<g>
					<path fill="#FFFFFF" d="M17,13.8c0,0.1,0,0.3-0.2,0.3l-1.3,0.3c-0.1,0-0.3,0-0.3-0.2l-0.3-1.3c0-0.1,0-0.3,0.2-0.3l1.3-0.3
						c0.1,0,0.3,0,0.3,0.2L17,13.8z"/>
				</g>
				<g>
					<path fill="#FFFFFF" d="M19.1,13.2c0,0.1,0,0.3-0.2,0.3l-1.3,0.3c-0.1,0-0.3,0-0.3-0.2L17,12.4c0-0.1,0-0.3,0.2-0.3l1.3-0.3
						c0.1,0,0.3,0,0.3,0.2L19.1,13.2z"/>
				</g>
				<g>
					<path fill="#FFFFFF" d="M21.2,12.7c0,0.1,0,0.3-0.2,0.3l-1.3,0.3c-0.1,0-0.3,0-0.3-0.2l-0.3-1.3c0-0.1,0-0.3,0.2-0.3l1.3-0.3
						c0.1,0,0.3,0,0.3,0.2L21.2,12.7z"/>
				</g>
				<g>
					<path fill="#FFFFFF" d="M23.3,12.2c0,0.1,0,0.3-0.2,0.3l-1.3,0.3c-0.1,0-0.3,0-0.3-0.2l-0.3-1.3c0-0.1,0-0.3,0.2-0.3l1.3-0.3
						c0.1,0,0.3,0,0.3,0.2L23.3,12.2z"/>
				</g>
				<g>
					<path fill="#FFFFFF" d="M25.4,11.7c0,0.1,0,0.3-0.2,0.3l-1.3,0.3c-0.1,0-0.3,0-0.3-0.2l-0.3-1.3c0-0.1,0-0.3,0.2-0.3l1.3-0.3
						c0.1,0,0.3,0,0.3,0.2L25.4,11.7z"/>
				</g>
				<g>
					<path fill="#FFFFFF" d="M27.5,11.2c0,0.1,0,0.3-0.2,0.3L26,11.8c-0.1,0-0.3,0-0.3-0.2l-0.3-1.3c0-0.1,0-0.3,0.2-0.3l1.3-0.3
						c0.1,0,0.3,0,0.3,0.2L27.5,11.2z"/>
				</g>
				<g>
					<path fill="#FFFFFF" d="M29.6,10.6c0,0.1,0,0.3-0.2,0.3l-1.3,0.3c-0.1,0-0.3,0-0.3-0.2l-0.3-1.3c0-0.1,0-0.3,0.2-0.3L29,9.1
						c0.1,0,0.3,0,0.3,0.2L29.6,10.6z"/>
				</g>
				<g>
					<path fill="#FFFFFF" d="M31.7,10.1c0,0.1,0,0.3-0.2,0.3l-1.3,0.3c-0.1,0-0.3,0-0.3-0.2l-0.3-1.3c0-0.1,0-0.3,0.2-0.3L31,8.7
						c0.1,0,0.3,0,0.3,0.2L31.7,10.1z"/>
				</g>
				<g>
					<path fill="#FFFFFF" d="M33.7,9.6c0,0.1,0,0.3-0.2,0.3l-1.3,0.3c-0.1,0-0.3,0-0.3-0.2l-0.3-1.3c0-0.1,0-0.3,0.2-0.3l1.3-0.3
						c0.1,0,0.3,0,0.3,0.2L33.7,9.6z"/>
				</g>
				<g>
					<path fill="#FFFFFF" d="M35.8,9.1c0,0.1,0,0.3-0.2,0.3l-1.3,0.3c-0.1,0-0.3,0-0.3-0.2l-0.3-1.3c0-0.1,0-0.3,0.2-0.3l1.3-0.3
						c0.1,0,0.3,0,0.3,0.2L35.8,9.1z"/>
				</g>
			</g>
			<g>
				<path fill="#FFFFFF" d="M10.4,13.2c0,0.1,0,0.3-0.2,0.3l-1.3,0.3c-0.1,0-0.3,0-0.3-0.2l-0.3-1.3c0-0.1,0-0.3,0.2-0.3l1.3-0.3
					c0.1,0,0.3,0,0.3,0.2L10.4,13.2z"/>
			</g>
			<g>
				<path fill="#FFFFFF" d="M12.5,12.7c0,0.1,0,0.3-0.2,0.3L11,13.3c-0.1,0-0.3,0-0.3-0.2l-0.3-1.3c0-0.1,0-0.3,0.2-0.3l1.3-0.3
					c0.1,0,0.3,0,0.3,0.2L12.5,12.7z"/>
			</g>
			<g>
				<path fill="#FFFFFF" d="M14.6,12.1c0,0.1,0,0.3-0.2,0.3l-1.3,0.3c-0.1,0-0.3,0-0.3-0.2l-0.3-1.3c0-0.1,0-0.3,0.2-0.3l1.3-0.3
					c0.1,0,0.3,0,0.3,0.2L14.6,12.1z"/>
			</g>
			<g>
				<path fill="#FFFFFF" d="M16.7,11.6c0,0.1,0,0.3-0.2,0.3l-1.3,0.3c-0.1,0-0.3,0-0.3-0.2l-0.3-1.3c0-0.1,0-0.3,0.2-0.3l1.3-0.3
					c0.1,0,0.3,0,0.3,0.2L16.7,11.6z"/>
			</g>
			<g>
				<path fill="#FFFFFF" d="M18.7,11.1c0,0.1,0,0.3-0.2,0.3l-1.3,0.3c-0.1,0-0.3,0-0.3-0.2l-0.3-1.3c0-0.1,0-0.3,0.2-0.3l1.3-0.3
					c0.1,0,0.3,0,0.3,0.2L18.7,11.1z"/>
			</g>
			<g>
				<path fill="#FFFFFF" d="M20.8,10.6c0,0.1,0,0.3-0.2,0.3l-1.3,0.3c-0.1,0-0.3,0-0.3-0.2l-0.3-1.3c0-0.1,0-0.3,0.2-0.3l1.3-0.3
					c0.1,0,0.3,0,0.3,0.2L20.8,10.6z"/>
			</g>
			<g>
				<path fill="#FFFFFF" d="M22.9,10.1c0,0.1,0,0.3-0.2,0.3l-1.3,0.3c-0.1,0-0.3,0-0.3-0.2l-0.3-1.3c0-0.1,0-0.3,0.2-0.3l1.3-0.3
					c0.1,0,0.3,0,0.3,0.2L22.9,10.1z"/>
			</g>
			<g>
				<path fill="#FFFFFF" d="M25,9.5c0,0.1,0,0.3-0.2,0.3l-1.3,0.3c-0.1,0-0.3,0-0.3-0.2L23,8.7c0-0.1,0-0.3,0.2-0.3l1.3-0.3
					c0.1,0,0.3,0,0.3,0.2L25,9.5z"/>
			</g>
			<g>
				<path fill="#FFFFFF" d="M27.1,9c0,0.1,0,0.3-0.2,0.3l-1.3,0.3c-0.1,0-0.3,0-0.3-0.2L25,8.1c0-0.1,0-0.3,0.2-0.3l1.3-0.3
					c0.1,0,0.3,0,0.3,0.2L27.1,9z"/>
			</g>
			<g>
				<path fill="#FFFFFF" d="M29.2,8.5c0,0.1,0,0.3-0.2,0.3l-1.3,0.3c-0.1,0-0.3,0-0.3-0.2l-0.3-1.3c0-0.1,0-0.3,0.2-0.3L28.6,7
					c0.1,0,0.3,0,0.3,0.2L29.2,8.5z"/>
			</g>
			<g>
				<path fill="#FFFFFF" d="M31.3,8c0,0.1,0,0.3-0.2,0.3l-1.3,0.3c-0.1,0-0.3,0-0.3-0.2l-0.3-1.3c0-0.1,0-0.3,0.2-0.3l1.3-0.3
					c0.1,0,0.3,0,0.3,0.2L31.3,8z"/>
			</g>
			<g>
				<path fill="#FFFFFF" d="M33.4,7.5c0,0.1,0,0.3-0.2,0.3L32,8.1c-0.1,0-0.3,0-0.3-0.2l-0.3-1.3c0-0.1,0-0.3,0.2-0.3L32.8,6
					c0.1,0,0.3,0,0.3,0.2L33.4,7.5z"/>
			</g>
			<g>
				<path fill="#FFFFFF" d="M33.7,16.3c0,0.1,0,0.3-0.2,0.3l-1.3,0.3c-0.1,0-0.3,0-0.3-0.2l-0.3-1.3c0-0.1,0-0.3,0.2-0.3l1.3-0.3
					c0.1,0,0.3,0,0.3,0.2L33.7,16.3z"/>
			</g>
			<g>
				<path fill="#FFFFFF" d="M10.4,19.8c0,0.1,0,0.3-0.2,0.3l-1.8,0.4c-0.1,0-0.3,0-0.3-0.2L7.8,19c0-0.1,0-0.3,0.2-0.3l1.8-0.4
					c0.1,0,0.3,0,0.3,0.2L10.4,19.8z"/>
			</g>
			<g>
				<path fill="#FFFFFF" d="M11.6,17.3c0,0.1,0,0.3-0.2,0.3l-3.5,0.9c-0.1,0-0.3,0-0.3-0.2L7.3,17c0-0.1,0-0.3,0.2-0.3l3.5-0.9
					c0.1,0,0.3,0,0.3,0.2L11.6,17.3z"/>
			</g>
			<g>
				<path fill="#FFFFFF" d="M39,12.7c0,0.1,0,0.3-0.2,0.3L34,14.2c-0.1,0-0.3,0-0.3-0.2l-0.3-1.3c0-0.1,0-0.3,0.2-0.3l4.7-1.2
					c0.1,0,0.3,0,0.3,0.2L39,12.7z"/>
			</g>
			<g>
				<path fill="#FFFFFF" d="M37.4,6.5c0,0.1,0,0.3-0.2,0.3L34,7.6c-0.1,0-0.3,0-0.3-0.2l-0.3-1.3c0-0.1,0-0.3,0.2-0.3L36.8,5
					c0.1,0,0.3,0,0.3,0.2L37.4,6.5z"/>
			</g>
			<g>
				<path fill="#FFFFFF" d="M10.7,15.3c0,0.1,0,0.3-0.2,0.3l-3.2,0.8c-0.1,0-0.3,0-0.3-0.2L6.7,15c0-0.1,0-0.3,0.2-0.3l3.2-0.8
					c0.1,0,0.3,0,0.3,0.2L10.7,15.3z"/>
			</g>
			<g>
				<path fill="#FFFFFF" d="M8.3,13.7c0,0.1,0,0.3-0.2,0.3l-1.3,0.3c-0.1,0-0.3,0-0.3-0.2l-0.3-1.3c0-0.1,0-0.3,0.2-0.3l1.3-0.3
					c0.1,0,0.3,0,0.3,0.2L8.3,13.7z"/>
			</g>
			<g>
				<path fill="#FFFFFF" d="M7.8,11.6c0,0.1,0,0.3-0.2,0.3l-1.3,0.3c-0.1,0-0.3,0-0.3-0.2l-0.1-0.4c0-0.1,0-0.3,0.2-0.3L7.4,11
					c0.1,0,0.3,0,0.3,0.2L7.8,11.6z"/>
			</g>
			<g>
				<path fill="#FFFFFF" d="M9.9,11.1c0,0.1,0,0.3-0.2,0.3l-1.3,0.3c-0.1,0-0.3,0-0.3-0.2L8,11.1c0-0.1,0-0.3,0.2-0.3l1.3-0.3
					c0.1,0,0.3,0,0.3,0.2L9.9,11.1z"/>
			</g>
			<g>
				<path fill="#FFFFFF" d="M12,10.6c0,0.1,0,0.3-0.2,0.3l-1.3,0.3c-0.1,0-0.3,0-0.3-0.2l-0.1-0.4c0-0.1,0-0.3,0.2-0.3l1.3-0.3
					c0.1,0,0.3,0,0.3,0.2L12,10.6z"/>
			</g>
			<g>
				<path fill="#FFFFFF" d="M14,10c0,0.1,0,0.3-0.2,0.3l-1.3,0.3c-0.1,0-0.3,0-0.3-0.2L12.1,10c0-0.1,0-0.3,0.2-0.3l1.3-0.3
					c0.1,0,0.3,0,0.3,0.2L14,10z"/>
			</g>
			<g>
				<path fill="#FFFFFF" d="M16.1,9.5c0,0.1,0,0.3-0.2,0.3l-1.3,0.3c-0.1,0-0.3,0-0.3-0.2l-0.1-0.4c0-0.1,0-0.3,0.2-0.3L15.7,9
					C15.8,9,16,9,16,9.2L16.1,9.5z"/>
			</g>
			<g>
				<path fill="#FFFFFF" d="M18.2,9c0,0.1,0,0.3-0.2,0.3l-1.3,0.3c-0.1,0-0.3,0-0.3-0.2L16.3,9c0-0.1,0-0.3,0.2-0.3l1.3-0.3
					c0.1,0,0.3,0,0.3,0.2L18.2,9z"/>
			</g>
			<g>
				<path fill="#FFFFFF" d="M20.3,8.5c0,0.1,0,0.3-0.2,0.3l-1.3,0.3c-0.1,0-0.3,0-0.3-0.2l-0.1-0.4c0-0.1,0-0.3,0.2-0.3l1.3-0.3
					c0.1,0,0.3,0,0.3,0.2L20.3,8.5z"/>
			</g>
			<g>
				<path fill="#FFFFFF" d="M22.4,8c0,0.1,0,0.3-0.2,0.3L21,8.6c-0.1,0-0.3,0-0.3-0.2L20.6,8c0-0.1,0-0.3,0.2-0.3L22,7.4
					c0.1,0,0.3,0,0.3,0.2L22.4,8z"/>
			</g>
			<g>
				<path fill="#FFFFFF" d="M24.3,7.5c0,0.1,0,0.3-0.2,0.3l-1.3,0.3c-0.1,0-0.3,0-0.3-0.2l-0.1-0.4c0-0.1,0-0.3,0.2-0.3l1.3-0.3
					c0.1,0,0.3,0,0.3,0.2L24.3,7.5z"/>
			</g>
			<g>
				<path fill="#FFFFFF" d="M26.4,7c0,0.1,0,0.3-0.2,0.3L25,7.6c-0.1,0-0.3,0-0.3-0.2L24.6,7c0-0.1,0-0.3,0.2-0.3L26,6.4
					c0.1,0,0.3,0,0.3,0.2L26.4,7z"/>
			</g>
			<g>
				<path fill="#FFFFFF" d="M28.5,6.4c0,0.1,0,0.3-0.2,0.3L27,7c-0.1,0-0.3,0-0.3-0.2l-0.1-0.4c0-0.1,0-0.3,0.2-0.3l1.3-0.3
					c0.1,0,0.3,0,0.3,0.2L28.5,6.4z"/>
			</g>
			<g>
				<path fill="#FFFFFF" d="M30.6,5.9c0,0.1,0,0.3-0.2,0.3l-1.3,0.3c-0.1,0-0.3,0-0.3-0.2l0-0.3c0-0.1,0-0.3,0.2-0.3l1.3-0.3
					c0.1,0,0.3,0,0.3,0.2L30.6,5.9z"/>
			</g>
			<g>
				<path fill="#FFFFFF" d="M32.7,5.4c0,0.1,0,0.3-0.2,0.3L31.3,6C31.2,6,31,6,31,5.8l-0.1-0.4c0-0.1,0-0.3,0.2-0.3l1.3-0.3
					c0.1,0,0.3,0,0.3,0.2V5.4z"/>
			</g>
			<g>
				<g>
					<path fill="#FFFFFF" d="M37.3,14.3c0,0.1-0.1,0.2-0.2,0.3l-1.3,0.3c-0.1,0-0.3,0-0.3-0.1l-0.1-0.2c0-0.1,0-0.3,0.2-0.3l1.3-0.3
						c0.1,0,0.3,0.1,0.3,0.2L37.3,14.3z"/>
				</g>
			</g>
			<g>
				<g>
					<path fill="#FFFFFF" d="M37.5,15.2c0,0.1-0.1,0.2-0.2,0.3L36,15.8c-0.1,0-0.3,0-0.3-0.1l-0.1-0.2c0-0.1,0-0.3,0.2-0.3l1.3-0.3
						c0.1,0,0.3,0.1,0.3,0.2L37.5,15.2z"/>
				</g>
			</g>
			<g>
				<g>
					<path fill="#FFFFFF" d="M39.5,14.7c0,0.1-0.1,0.2-0.2,0.3L38,15.3c-0.1,0-0.3,0-0.3-0.1L37.6,15c0-0.1,0-0.3,0.2-0.3l1.3-0.3
						c0.1,0,0.3,0.1,0.3,0.2L39.5,14.7z"/>
				</g>
			</g>
			<g>
				<g>
					<path fill="#FFFFFF" d="M35.6,15.7c0,0.2-0.1,0.2-0.2,0.3l-1.3,0.3c-0.1,0-0.3,0-0.3-0.1L33.7,16c0-0.1,0-0.3,0.2-0.3l1.3-0.3
						c0.1,0,0.3,0.1,0.3,0.2L35.6,15.7z"/>
				</g>
			</g>
			<g>
				<path fill="#FFFFFF" d="M34.8,4.9c0,0.1,0,0.3-0.2,0.3l-1.3,0.3c-0.1,0-0.3,0-0.3-0.2V4.9c0-0.1,0-0.3,0.2-0.3l1.3-0.3
					c0.1,0,0.3,0,0.3,0.2V4.9z"/>
			</g>
			<g>
				<path fill="#FFFFFF" d="M36.9,4.4c0,0.1,0,0.3-0.2,0.3L35.4,5c-0.1,0-0.3,0-0.3-0.2L35,4.4c0-0.1,0-0.3,0.2-0.3l1.3-0.3
					c0.1,0,0.3,0,0.3,0.2L36.9,4.4z"/>
			</g>
			<g>
				<path fill="#FFFFFF" d="M28.6,15.9h-0.1l-1.2,0.3l-0.8,0.2l-1.3,0.3L24.4,17l-1.3,0.3l-0.8,0.2L21,17.8L20.2,18L19,18.3
					l-0.8,0.2l-0.6,0.2L17,18.9c-0.1,0-0.2,0.2-0.2,0.3l0.3,1.3c0,0.1,0.2,0.2,0.3,0.2l0.6-0.2l0.6-0.2l0.8-0.2l1.3-0.3l0.8-0.2
					l1.3-0.3l0.8-0.2l1.3-0.3l0.8-0.2l1.3-0.3l0.8-0.2l1.2-0.3h0.1c0.1,0,0.2-0.2,0.2-0.3L29,16.2C28.9,16,28.7,15.9,28.6,15.9z"/>
			</g>
			<g>
				<path fill="#FFFFFF" d="M37.3,7.1L36,7.4c-0.1,0-0.2,0.2-0.2,0.3L36.2,9c0,0.1,0.2,0.2,0.3,0.2h0.1l0.1,0.6l0.2,0.8l0.1,0.5
					c0,0.1,0.2,0.2,0.3,0.2l0.9-0.2c0.1,0,0.2-0.2,0.2-0.3l-0.1-0.5l-0.2-0.8l-0.2-0.8l-0.2-0.6l-0.2-0.6
					C37.6,7.2,37.4,7.1,37.3,7.1z"/>
			</g>
		</g>
	</g>
</g>
<g id="Layer_3">
	<g id="Layer_2_1_">
		
			<ellipse display="none" fill="none" stroke="#F3AF1C" stroke-width="5" stroke-miterlimit="10" cx="30.4" cy="29.9" rx="29.5" ry="29.9"/>
		<g>
			<path fill="#F3AF1C" d="M18,17.5l8.2-1.9c1-0.2,2,0.4,2.2,1.3l6.3,27.5c0.2,1-0.4,2-1.3,2.2L18,50.1V20.6l1.6-0.4
				c0.4,0,0.6-0.4,0.5-0.8l0,0c0-0.4-0.4-0.6-0.8-0.5L18,19.2C18,19.3,18,17.5,18,17.5z M8.8,19.5l9.2-2.1v1.8l-1.6,0.4
				c-0.4,0-0.6,0.4-0.5,0.8l0,0c0,0.4,0.4,0.6,0.8,0.5l1.3-0.3v29.5l-2.1,0.5c-1,0.2-2-0.4-2.2-1.3L7.5,21.7
				C7.3,20.7,7.8,19.8,8.8,19.5z"/>
			<path fill="#F7CB1C" d="M39.3,7.5c1.1,0.4,2,0.9,3.1,1.5c4.3,2.6,7.8,7.2,9.6,14.6c0,0,0,0,0.1,0.4c0.8,3.5,1.5,8.6,1.2,13
				c-0.4,4.7-2,8.7-6,9.7l0,0c-2.9,0.7-5.6-0.7-7.9-3V41c1.2,1.6,2.5,3,4,3.7c-0.4-0.5-0.6-1.1-0.7-1.8c-0.5-2-0.3-4.7-0.1-7.6
				c0.3-5.3,0.7-10.8-3.1-11V23c0.2,0,0.4,0,0.7,0c4.7,0.2,4.3,6.2,4,11.9c-0.1,2.8-0.3,5.4,0.1,7.3c0.4,1.7,1.2,2.7,3.1,2.2
				c2.8-0.6,3.7-3.6,3.8-7.3c0.1-4-0.9-8.7-1.8-12.1c-2.2-8.5-6.1-12.6-10.1-14V9.3c0.4,0.1,1,0.3,1.4,0.4c-0.4-0.2-0.9-0.3-1.4-0.5
				V7.5z M15.8,15.4c0.4,0,0.6,0.2,0.5,0.6c-0.1,0.4-0.6,0.7-1,0.8c-0.9,0.1-1.6-0.1-2-0.7c-0.3-0.4-0.4-0.8-0.4-1.4
				c0-0.6,0.3-1.2,0.7-1.9l0,0c1.3-2.1,4.6-4.6,10.8-6c4.7-1,10-1.2,14.9,0.7v1.7C34.5,6.9,29,7,24.2,8c-5.4,1.2-8.1,3.2-9.2,4.8
				l0,0c-0.3,0.5-0.4,0.9-0.4,1.2c0,0.4,0,0.7,0.2,0.9C15,15.3,15.3,15.4,15.8,15.4L15.8,15.4z M39.3,43.6c-1.2-1.2-2-2.7-2.8-4.3
				c-1.1-2.1-1.9-4.5-2.3-6.7c-0.4-2.2-0.3-4.4,0.3-6c0.8-2.2,2.4-3.5,5-3.6v1.3l-0.3,0c-1.9-0.1-2.7,0.7-3.2,2.1
				c-0.5,1.5-0.6,3.4-0.2,5.5c0.4,2.1,1.2,4.4,2.2,6.4c0.5,0.9,1,1.9,1.5,2.7L39.3,43.6L39.3,43.6L39.3,43.6z M39.3,11V9.3
				c-2.8-0.7-5.7-0.5-8.5,0.3c-3.7,0.9-7,2.7-9.4,3.9c-1.2,0.6-2.2,1.2-2.7,1.2c-0.4,0.1-0.8,0.5-0.9,0.8c0,0.4,0.2,0.6,0.6,0.5
				c0.7-0.1,1.8-0.7,3.2-1.5c2.3-1.2,5.5-2.8,8.9-3.7C33.4,10.1,36.5,9.9,39.3,11z"/>
			
				<rect x="10.3" y="27.4" transform="matrix(-0.975 0.2222 -0.2222 -0.975 48.9399 60.6899)" fill="#F3F3F3" width="21.5" height="11.4"/>
			<path fill="#F7CB1C" d="M23.5,34.5c1,0.1,2.4,0,2.5,1.2c0,0.3,0,0.6-0.1,0.9l-2.4,0.6v-0.8l0.5-0.3l-0.5-0.8V34.5L23.5,34.5z
				 M23.5,36.1l0.3-0.1l-0.3-0.6V36.1z M22.8,30.5c0.1,0.1,0.3,0.3,0.4,0.5c0,0.2,0.1,0.4,0.1,0.6s0,0.4-0.1,0.6
				c0,0.1-0.1,0.3-0.3,0.3c0,0.1,0,0.3-0.1,0.4v-0.6c0.3-0.2,0.3-0.7,0.1-1.1c0-0.1-0.1-0.2-0.1-0.3V30.5L22.8,30.5z M22.8,34.3
				c0.1,0,0.3,0.1,0.5,0.1c0.1,0,0.1,0,0.3,0v0.7l-0.3-0.5l0.3,0.7V36l-0.5,0.3l0.4,0.8l-0.1-0.7l0.3-0.1v0.8L23,37.2L22.8,34.3
				L22.8,34.3C22.8,34.2,22.8,34.3,22.8,34.3z M22,29.2c0.3,0.2,0.5,0.5,0.6,0.9c0,0.1,0.1,0.3,0.1,0.4l0,0V31
				c-0.1-0.1-0.3,0-0.2,0.4c0.1,0.4,0.1,0.7,0.1,1.1c0,0,0,0,0.1,0V33c-0.1,0.3-0.2,0.5-0.4,0.7l0,0l0,0c0,0.2,0.2,0.4,0.4,0.5v3.1
				L22,37.5l0,0h0.2l0,0H22v-1.2c0,0.1,0,0.3,0,0.4c0,0.1,0.2,0.3,0.3,0.5c0.4-0.7,0.4-1.9,0.4-2.7c-0.2-0.1-0.4-0.3-0.5-0.5
				c0,0.1-0.1,0.2-0.2,0.3v-0.8l0.1-0.1c0.5-0.8,0.1-2.2,0-2.5l0,0c0-0.1-0.1-0.2-0.1-0.3L22,29.2L22,29.2L22,29.2z M22,36
				c0,0,0-0.1,0-0.2c0,0,0.1,0,0.3,0.1l0,0L22,35.5V36z M21.4,28.7c0.2,0.1,0.4,0.2,0.6,0.4v1.3c-0.1-0.2-0.4-0.4-0.6-0.5V28.7
				L21.4,28.7z M22,37.5l-0.6,0.1v-0.4l0.1,0.1c0-0.3,0-0.4,0-0.6c-0.1-0.1-0.1-0.4-0.1-0.5c0,0,0,0-0.1,0v-1.3l0.6,0.6V36
				c0,0.1,0,0.1-0.1,0.2c0,0,0,0,0.1,0.1L22,37.5h-0.2l0,0H22L22,37.5L22,37.5z M22,33.5v0.9c-0.1,0.1-0.4,0.3-0.6,0.4V34
				c0,0,0,0,0.1,0C21.7,33.9,21.9,33.7,22,33.5z M20.4,28.7c0.4,0,0.7,0,1,0.1V30c-0.1,0-0.2-0.1-0.4-0.1c-0.2,0.3-0.4,0.4-0.7,0.5
				v-1.7H20.4z M21.4,37.6l-1,0.3v-0.8h0.1l0.1,0.7v-0.9h-0.3v-1.2c0.3,0.5,0.6,1.2,1,1.6L21.4,37.6L21.4,37.6z M21.4,33.9v0.8
				c-0.4,0.1-0.7,0-1-0.1V34c0.1,0,0.4,0.1,0.5,0.1s0-0.4,0.3-0.4C21.3,33.7,21.4,33.8,21.4,33.9L21.4,33.9z M21.4,34.9L21.4,34.9
				L21,36.3l0,0c0-0.1,0.1-0.3,0.2-0.3c0,0.1,0.1,0.1,0.2,0.2L21.4,34.9L21.4,34.9z M20.2,28.7c0.1,0,0.1,0,0.3,0v1.7
				c-0.1,0-0.1,0.1-0.3,0.1V28.7L20.2,28.7z M20.4,37.9h-0.3v-0.8h0.3V37.9L20.4,37.9z M20.4,34v0.6l0,0c0,0.3,0,0.4-0.2,0.6
				c0,0.1,0.1,0.4,0.3,0.5v1.2h-0.3v-3C20.2,33.9,20.3,33.9,20.4,34z M19,35.6c0.2-0.1,0.4-0.3,0.6-0.4c0.4-0.3,0.5-0.6,0.5-1l0,0
				l0,0c-0.3-0.1-0.6-0.4-0.8-0.7c0,0,0,0-0.1,0v-0.3h0.1c0-0.1-0.1-0.2-0.1-0.3v-1c0.1,0.6,0.5,1.5,1.1,2l0,0v3h-0.4l-0.1-1.3
				l-0.1,1.5h0.5V38L19,38.3V35.6L19,35.6L19,35.6z M19,29.2c0.3-0.3,0.7-0.5,1.2-0.5v1.8c-0.5,0.1-0.9,0.3-1.2,0.5V29.2z
				 M18.8,35.8c0,0,0.1-0.1,0.2-0.1v2.5h-0.2V35.8L18.8,35.8z M19,33.5c0,0-0.1,0-0.2-0.1V33c0,0,0.1,0.1,0.2,0.1V33.5L19,33.5z
				 M18.8,29.4c0,0,0.1-0.1,0.2-0.2v1.7c-0.1,0.1-0.1,0.2-0.1,0.4c0,0,0,0,0,0.1l0,0l0,0c0,0,0,0,0,0.1c0,0,0,0.1,0.1,0.3v1
				c0-0.2-0.1-0.5-0.2-0.7c0,0,0,0,0-0.1V29.4L18.8,29.4L18.8,29.4z M18.1,38.4c-0.2-0.3-0.4-0.5-0.5-0.8c-0.3-0.9,0.5-1.4,1.2-1.9
				v2.5L18.1,38.4L18.1,38.4z M18.8,33.3c0,0,0,0-0.1,0c-0.1-0.1-0.3-0.3-0.4-0.5s-0.1-0.4-0.1-0.6c0-0.3,0-0.5,0.1-0.7
				c0,0,0,0,0-0.1c-0.1-0.8,0-1.5,0.5-2V32c-0.1-0.6-0.4-0.1-0.4,0.1c0,0.3,0.1,0.6,0.4,0.8V33.3L18.8,33.3z"/>
			<g>
				
					<rect x="16.1" y="23.3" transform="matrix(-0.975 0.2222 -0.2222 -0.975 40.7856 44.4298)" fill="#F3F3F3" width="3.6" height="2.4"/>
				<circle fill="#F3F3F3" cx="12.7" cy="25.8" r="2.2"/>
				
					<rect x="20.6" y="22" transform="matrix(-0.975 0.2222 -0.2222 -0.975 52.8631 40.4577)" fill="#F3F3F3" width="7.1" height="2.4"/>
			</g>
			
				<rect x="14.2" y="42.3" transform="matrix(-0.975 0.2222 -0.2222 -0.975 39.3727 81.3837)" fill="#FFFFFF" width="1.8" height="1.2"/>
			
				<rect x="17" y="41.5" transform="matrix(-0.975 0.2222 -0.2222 -0.975 46.2171 79.0174)" fill="#FFFFFF" width="3.3" height="1.2"/>
			
				<rect x="21.4" y="39.7" transform="matrix(-0.975 0.2222 -0.2222 -0.975 61.2952 73.6907)" fill="#FFFFFF" width="10.2" height="1.2"/>
			
				<rect x="14.7" y="43.7" transform="matrix(-0.975 0.2222 -0.2222 -0.975 45.789 83.431)" fill="#FFFFFF" width="7" height="1.2"/>
			
				<rect x="22.4" y="42" transform="matrix(-0.975 0.2222 -0.2222 -0.975 60.0408 78.4382)" fill="#FFFFFF" width="6.4" height="1.2"/>
			
				<rect x="29.5" y="40.8" transform="matrix(-0.975 0.2222 -0.2222 -0.975 69.8309 74.9481)" fill="#FFFFFF" width="2.4" height="1.2"/>
			<g>
				
					<rect x="15.2" y="46.1" transform="matrix(-0.975 0.2222 -0.2222 -0.975 43.9696 88.4439)" fill="#FFFFFF" width="3.6" height="1.2"/>
				
					<rect x="19.6" y="44.6" transform="matrix(-0.975 0.2222 -0.2222 -0.975 55.8909 84.1344)" fill="#FFFFFF" width="7.2" height="1.2"/>
			</g>
			<path fill="#C37B2A" d="M15.4,14.4l2.5-0.6c0.1,0,0.3,0,0.3,0.2l1.2,5.2c0,0.1,0,0.3-0.2,0.3l-2.5,0.6c-0.1,0-0.3,0-0.3-0.2
				l-1.2-5.2C15.2,14.6,15.3,14.4,15.4,14.4z"/>
		</g>
	</g>
</g>
<g id="Layer_4" display="none">
	<g display="inline">
		<path fill="#F7CA18" d="M51.4,50.6c0-0.4-2-7.8-4.1-15l2-2.3c0.7-0.8,0.6-2-0.1-2.7c-0.8-0.7-2-0.6-2.7,0.1l-0.4,0.5
			c-1.6-5.5-2.5-9.6-2.5-9.6s5-5.1,10.1-10.6s-1.1-10.9-6-5.4S38.3,17,38.3,17s-4.2-0.4-9.8-1.4l0.4-0.5c0.7-0.8,0.6-2-0.1-2.7
			c-0.8-0.7-2-0.6-2.7,0.1l-2,2.3c-7.5-1.4-15-2.6-15.5-2.6c-0.9,0.2-4.2,1.8-4.1,2.4c0.1,0.2,5,1.7,10.3,3.4l0.7,0.2
			c0.4,0.1,1,0.3,1.4,0.4l0.7,0.2c1,0.3,2,0.6,2.9,0.9l0.7,0.2c1,0.3,1.9,0.6,2.7,0.9l0.7,0.2c1.1,0.4,1.8,0.7,2,0.9
			c1.1,1.1,3.9,3.5,3.9,3.5s-7.8,9.4-9.4,11.9c-0.6,1-1.4,2.4-2.3,3.9c-2.8-0.4-7-1.1-7.8-1.1C9.8,40,8.7,40,8.4,40.3
			c-0.4,0.4-1.4,1-0.9,1.2c0.4,0.2,7,3,9.3,4c-0.1,0.4-0.2,0.8-0.1,0.8c0.1,0.1,0.4,0,0.8-0.2c1.2,2.2,4.8,8.5,5,8.8
			c0.3,0.4,0.8-0.6,1.1-1.1c0.3-0.4,0.1-1.4-0.1-2.7c-0.1-0.8-1.3-5-2-7.7c1.4-1,2.7-2,3.6-2.7C27.5,38.8,36,29.8,36,29.8
			s2.7,2.4,3.9,3.5c0.2,0.1,0.6,0.9,1.1,2l0.3,0.7c0.4,0.8,0.8,1.6,1.1,2.6l0.3,0.7c0.4,0.8,0.8,1.8,1.2,2.7l0.1,1
			c0.2,0.4,0.4,0.9,0.6,1.4l0.3,0.7c2.2,5,4.2,9.8,4.5,9.8C50,55,51.4,51.5,51.4,50.6z"/>
		<path fill="#F4AF00" d="M51.5,50.7c0-0.4-2.1-7.8-4.2-15l2-2.4c0.7-0.8,0.6-2-0.1-2.7c-0.8-0.7-2-0.6-2.7,0.1L46,31.3
			c-1.6-5.5-2.6-9.6-2.6-9.6s5.9-5.8,10.9-11.4c1.7-1.4,1.9-8-2.3-3.5C42.7,17.6,17.1,46.3,16.6,46c-0.1,0.4-0.2,0.8-0.1,0.8
			c0.1,0.1,0.4,0,0.8-0.2c1.3,2.2,4.8,8.4,5.1,8.8s0.8-0.6,1.1-1.1c0.3-0.4,0.1-1.4-0.1-2.7c-0.1-0.8-1.3-5-2-7.7
			c1.4-1,2.7-2,3.5-2.7c2.4-2,10.8-10.9,10.8-10.9s2.7,2.4,3.9,3.5c0.2,0.1,0.6,0.9,1.1,2l0.3,0.7c0.4,0.8,0.8,1.6,1.2,2.6l0.3,0.7
			c0.4,0.8,0.8,1.8,1.2,2.7l0.3,0.7c0.2,0.4,0.4,0.9,0.6,1.4l0.3,0.7c2.2,5,4.3,9.8,4.5,9.8C50.1,55.2,51.5,51.6,51.5,50.7z"/>
	</g>
</g>
</svg>
