<?xml version="1.0" encoding="utf-8"?>
<!-- Generator: Adobe Illustrator 18.1.0, SVG Export Plug-In . SVG Version: 6.00 Build 0)  -->
<!DOCTYPE svg PUBLIC "-//W3C//DTD SVG 1.1//EN" "http://www.w3.org/Graphics/SVG/1.1/DTD/svg11.dtd" [
	<!ENTITY ns_extend "http://ns.adobe.com/Extensibility/1.0/">
	<!ENTITY ns_ai "http://ns.adobe.com/AdobeIllustrator/10.0/">
	<!ENTITY ns_graphs "http://ns.adobe.com/Graphs/1.0/">
	<!ENTITY ns_vars "http://ns.adobe.com/Variables/1.0/">
	<!ENTITY ns_imrep "http://ns.adobe.com/ImageReplacement/1.0/">
	<!ENTITY ns_sfw "http://ns.adobe.com/SaveForWeb/1.0/">
	<!ENTITY ns_custom "http://ns.adobe.com/GenericCustomNamespace/1.0/">
	<!ENTITY ns_adobe_xpath "http://ns.adobe.com/XPath/1.0/">
]>
<svg version="1.1" id="Layer_1" xmlns:x="&ns_extend;" xmlns:i="&ns_ai;" xmlns:graph="&ns_graphs;"
	 xmlns="http://www.w3.org/2000/svg" xmlns:xlink="http://www.w3.org/1999/xlink" x="0px" y="0px" viewBox="0 0 312.2 29.3"
	 enable-background="new 0 0 312.2 29.3" xml:space="preserve">
<metadata>
	<sfw  xmlns="&ns_sfw;">
		<slices></slices>
		<sliceSourceBounds  width="310.2" height="27.3" y="0" x="0" bottomLeftOrigin="true"></sliceSourceBounds>
	</sfw>
</metadata>
<rect x="95.7" y="2" fill-rule="evenodd" clip-rule="evenodd" fill="#2E145D" width="214.5" height="27.3"/>
<path fill-rule="evenodd" clip-rule="evenodd" fill="#2E145D" d="M0.4,27.8c0.4,0,1.2,0,1.6,0c0.4,0,0.4,0,0.4-1.8
	c0-1.8,0-5.4,0-7.3c0-1.9,0-2.1,0.1-2.2c0.1-0.1,0.3-0.1,1.2-0.1c0.9,0,2.5,0,3.3,0c0.8,0,0.8,0,0.8-0.2c0-0.2,0-0.6,0-0.8
	s0-0.2-0.9-0.2c-0.9,0-2.6,0-3.5,0c-0.9,0-0.9,0-0.9-0.4c0-0.4,0-1.2,0-1.9c0-0.7,0.1-1.2,0.2-1.6c0.1-0.4,0.2-0.7,0.4-1
	C3.1,10,3.3,9.8,3.5,9.6c0.2-0.2,0.5-0.4,0.7-0.5C4.4,9,4.7,8.9,4.9,8.8c0.2,0,0.5-0.1,1-0.1c0.5,0,1.1,0,1.5,0c0.3,0,0.3,0,0.3-0.2
	c0-0.2,0-0.6,0-0.9s0-0.2-0.2-0.2c-0.2,0-0.6,0-0.9-0.1c-0.4,0-0.7,0-1.1,0c-0.3,0-0.7,0-1,0.1c-0.4,0-0.8,0.1-1.1,0.2
	C3,7.8,2.7,8,2.4,8.1C2.1,8.3,1.8,8.6,1.5,8.8C1.2,9.1,1,9.5,0.8,9.8c-0.2,0.3-0.3,0.5-0.4,0.8c-0.1,0.3-0.3,0.7-0.3,3.6
	C0,17.1,0,22.4,0,25.1C0,27.8,0,27.8,0.4,27.8"/>
<path fill-rule="evenodd" clip-rule="evenodd" fill="#2E145D" d="M8.8,12.7c0.4-0.1,1.3-0.1,1.7,0c0.4,0,0.4,0.1,0.5,1.3
	c0,1.2,0,3.5,0,4.8c0,1.3,0.1,1.5,0.1,1.7c0.1,0.2,0.1,0.3,0.2,0.5c0.1,0.1,0.2,0.3,0.3,0.5c0.1,0.2,0.3,0.3,0.5,0.4
	c0.2,0.1,0.5,0.2,0.9,0.2c0.3,0,0.7,0,1,0c0.3-0.1,0.6-0.2,0.8-0.4c0.2-0.2,0.4-0.5,0.5-0.7c0.1-0.2,0.3-0.5,0.3-0.7
	c0.1-0.2,0.1-0.5,0.1-1.7c0-1.2,0-3.5,0-4.6c0-1.1,0.1-1.1,0.5-1.1c0.4,0,1.2,0,1.6,0c0.4,0,0.4,0.1,0.4,1.2c0,1.1,0,3.2,0,4.4
	c0,1.2-0.1,1.5-0.2,1.8c-0.1,0.3-0.2,0.7-0.4,1c-0.2,0.3-0.4,0.6-0.6,0.8c-0.2,0.2-0.4,0.5-0.6,0.7c-0.3,0.2-0.6,0.4-0.8,0.5
	c-0.3,0.1-0.5,0.2-0.7,0.3c-0.2,0.1-0.5,0.1-0.9,0.1c-0.4,0-0.9,0-1.3,0c-0.4,0-0.7,0-1-0.1c-0.3-0.1-0.6-0.1-0.9-0.3
	c-0.3-0.1-0.6-0.3-0.8-0.6c-0.2-0.2-0.4-0.5-0.6-0.8c-0.2-0.3-0.3-0.5-0.4-0.8c-0.1-0.3-0.2-0.6-0.3-0.9c-0.1-0.3-0.2-0.7-0.2-1.8
	c0-1.2-0.1-3.2-0.1-4.3C8.4,12.9,8.4,12.8,8.8,12.7"/>
<path fill-rule="evenodd" clip-rule="evenodd" fill="#2E145D" d="M20.1,23.5c0.4,0.1,1.3,0.1,1.7,0c0.4,0,0.4-0.1,0.5-1.3
	c0-1.2,0-3.5,0-4.8c0-1.3,0.1-1.5,0.2-1.7c0.1-0.2,0.2-0.5,0.3-0.7c0.1-0.2,0.3-0.4,0.6-0.6c0.2-0.1,0.5-0.2,0.9-0.2
	c0.3,0,0.7,0,1.1,0c0.4,0,0.9,0.1,1.2,0.4c0.3,0.3,0.4,0.9,0.5,1.3c0.1,0.4,0.1,0.6,0.1,1.8c0,1.2,0,3.4,0,4.6
	c0,1.1,0.1,1.1,0.5,1.1c0.4,0,1.2,0,1.6-0.1c0.4-0.1,0.4-0.2,0.4-1.3c0-1.1,0-3.1,0-4.3c0-1.2-0.1-1.4-0.2-1.8
	c-0.1-0.3-0.2-0.7-0.4-1.1c-0.2-0.4-0.4-0.7-0.7-1.1c-0.3-0.3-0.7-0.7-1.1-0.8c-0.3-0.2-0.6-0.3-0.9-0.3c-0.3-0.1-0.5-0.1-0.9-0.1
	c-0.4,0-0.9,0-1.3,0c-0.4,0-0.7,0-1,0.1c-0.3,0.1-0.6,0.1-0.9,0.3c-0.3,0.1-0.6,0.3-0.8,0.6c-0.2,0.2-0.4,0.5-0.6,0.8
	c-0.2,0.3-0.3,0.5-0.4,0.8c-0.1,0.3-0.2,0.6-0.3,0.9c-0.1,0.3-0.2,0.7-0.2,1.8c0,1.2-0.1,3.2-0.1,4.3C19.7,23.3,19.7,23.5,20.1,23.5
	"/>
<path fill-rule="evenodd" clip-rule="evenodd" fill="#2E145D" d="M81.7,23.5c0.4,0.1,1.3,0.1,1.7,0c0.4,0,0.4-0.1,0.5-1.3
	c0-1.2,0-3.5,0-4.8c0-1.3,0.1-1.5,0.2-1.7c0.1-0.2,0.1-0.3,0.2-0.5c0.1-0.1,0.2-0.3,0.3-0.5c0.1-0.2,0.3-0.3,0.5-0.4
	c0.2-0.1,0.5-0.2,0.9-0.2c0.3,0,0.7,0,1,0c0.3,0.1,0.6,0.2,0.8,0.4c0.2,0.2,0.4,0.5,0.6,0.8c0.2,0.3,0.3,0.6,0.4,0.8
	c0.1,0.2,0.1,0.4,0.1,1.6c0,1.2,0,3.4,0,4.6c0,1.1,0.1,1.1,0.5,1.1c0.4,0,1.2,0,1.6-0.1c0.4-0.1,0.4-0.2,0.4-1.3c0-1.1,0-3.1,0-4.3
	c0-1.2-0.1-1.4-0.2-1.8c-0.1-0.3-0.2-0.7-0.4-1c-0.2-0.3-0.4-0.6-0.6-0.8s-0.4-0.5-0.6-0.7c-0.3-0.2-0.6-0.4-0.8-0.5
	c-0.3-0.1-0.5-0.2-0.7-0.3c-0.2-0.1-0.5-0.1-0.9-0.1c-0.4,0-0.9,0-1.3,0c-0.4,0-0.7,0-1,0.1c-0.3,0.1-0.6,0.1-0.9,0.3
	c-0.3,0.1-0.6,0.3-0.8,0.6c-0.2,0.2-0.4,0.5-0.6,0.8c-0.2,0.3-0.3,0.5-0.4,0.8c-0.1,0.3-0.2,0.6-0.3,0.9c-0.1,0.3-0.2,0.7-0.2,1.8
	c0,1.2-0.1,3.2-0.1,4.3C81.3,23.3,81.3,23.5,81.7,23.5"/>
<path fill-rule="evenodd" clip-rule="evenodd" fill="#2E145D" d="M35.8,14h0.4c1.3,0,2.5,1,2.5,2.2v3.6c0,1.3-1.2,2.3-2.5,2.3h-0.4
	c-1.3,0-2.3-1-2.3-2.3v-3.6C33.5,15,34.5,14,35.8,14 M38.5,13.2c-0.1-0.1-0.3-0.2-0.4-0.3c-0.2-0.1-0.4-0.1-0.6-0.2
	c-0.2-0.1-0.4-0.1-0.7-0.2c-0.2,0-0.5,0-0.8,0c-0.3,0-0.7,0.1-1.1,0.1c-0.4,0.1-0.8,0.2-1.2,0.3c-0.3,0.1-0.6,0.3-0.9,0.6
	c-0.3,0.2-0.5,0.5-0.8,0.9c-0.2,0.3-0.4,0.7-0.5,1.2c-0.1,0.5-0.3,1.1-0.3,1.8c-0.1,0.7,0,1.4,0,2c0.1,0.6,0.2,1.2,0.4,1.6
	c0.2,0.5,0.4,0.8,0.6,1.1c0.2,0.3,0.5,0.5,0.8,0.8c0.3,0.2,0.6,0.4,0.9,0.5c0.3,0.1,0.7,0.2,1.1,0.3c0.4,0,0.8,0.1,1.2,0
	c0.4,0,0.8-0.1,1.2-0.1c0.4-0.1,0.7-0.2,1-0.2c0.3-0.1,0.6-0.2,0.9-0.4c0.3-0.2,0.7-0.6,1.1-1.1c0.3-0.5,0.5-1.1,0.7-1.5
	c0.1-0.4,0.1-0.7,0.1-2.7c0-2.1,0-6.1,0-8.1c0-2,0-2.1-0.4-2.1c-0.4,0-1.2,0-1.6,0c-0.4,0-0.4,0-0.4,1c0,1,0,2.9,0,3.9
	C38.7,13.2,38.7,13.2,38.5,13.2z"/>
<path fill-rule="evenodd" clip-rule="evenodd" fill="#FFFFFF" d="M118.4,13.6h0.4c1.3,0,2.4,0.9,2.4,2.2v3.6c0,1.3-1.2,2.4-2.4,2.4
	h-0.4c-1.3,0-2.3-1-2.3-2.3v-3.6C116.2,14.7,117.2,13.6,118.4,13.6 M120.1,22.9c-0.5,0.3-1.1,0.4-1.7,0.4c-0.6,0-1.3-0.1-1.8-0.2
	c-0.5-0.1-0.8-0.3-1-0.5c-0.3-0.2-0.5-0.5-0.8-0.9c-0.2-0.3-0.4-0.7-0.5-1c-0.1-0.3-0.3-0.6-0.3-0.9c-0.1-0.3-0.1-0.6-0.1-1.1
	c0-0.5,0-1.2,0.1-1.9c0.1-0.6,0.3-1.2,0.5-1.7c0.2-0.5,0.4-0.8,0.6-1.1c0.2-0.3,0.5-0.5,0.8-0.8c0.3-0.2,0.6-0.4,0.9-0.5
	c0.3-0.1,0.7-0.2,1.1-0.3c0.4,0,0.8-0.1,1.2,0c0.4,0,0.8,0.1,1.2,0.1c0.4,0.1,0.7,0.2,1,0.3c0.3,0.1,0.6,0.3,0.9,0.5
	c0.4,0.2,0.8,0.6,1.1,1c0.3,0.5,0.5,1.1,0.6,1.5c0.1,0.4,0.1,0.7,0.1,1.8c0,1.2,0,3.3,0,4.4c0,1.1,0,1.2-0.4,1.2
	c-0.4,0-1.3,0-1.7-0.1c-0.4-0.1-0.4-0.3-0.4-0.5c0-0.3,0-0.6-0.2-0.6C121,22.1,120.6,22.6,120.1,22.9z"/>
<path fill-rule="evenodd" clip-rule="evenodd" fill="#2E145D" d="M47.2,14h0.4c1.3,0,2.5,1.1,2.5,2.3v3.1c0,1.3-1.2,2.4-2.4,2.4
	h-0.4c-1.3,0-2.4-1.4-2.4-2.7v-1.4v-1.4C44.9,15.2,46,14,47.2,14 M49,23c-0.5,0.3-1.1,0.4-1.7,0.4c-0.6,0-1.3-0.1-1.8-0.2
	c-0.5-0.1-0.8-0.3-1-0.5c-0.3-0.2-0.5-0.5-0.8-0.9c-0.2-0.3-0.4-0.7-0.5-1c-0.1-0.3-0.3-0.6-0.3-0.9c-0.1-0.3-0.1-0.6-0.1-1.1
	c0-0.5,0-1.2,0.1-1.9c0.1-0.6,0.3-1.2,0.5-1.7c0.2-0.5,0.4-0.8,0.6-1.1c0.2-0.3,0.5-0.5,0.8-0.8c0.3-0.2,0.6-0.4,0.9-0.5
	c0.3-0.1,0.7-0.2,1.1-0.3c0.4,0,0.8-0.1,1.2,0c0.4,0,0.8,0.1,1.2,0.1c0.4,0.1,0.7,0.2,1,0.3c0.3,0.1,0.6,0.3,0.9,0.5
	c0.4,0.2,0.8,0.6,1.1,1c0.3,0.5,0.5,1.1,0.6,1.5c0.1,0.4,0.1,0.7,0.1,1.8c0,1.2,0,3.3,0,4.4c0,1.1,0,1.2-0.4,1.2
	c-0.4,0-1.3,0-1.7-0.1c-0.4-0.1-0.4-0.3-0.4-0.5c0-0.3,0-0.6-0.2-0.6C49.8,22.2,49.4,22.7,49,23z"/>
<path fill-rule="evenodd" clip-rule="evenodd" fill="#FFFFFF" d="M183.4,13.6h0.4c1.3,0,2.4,0.9,2.4,2.2v3.6c0,1.3-1.2,2.4-2.4,2.4
	h-0.4c-1.3,0-2.3-1-2.3-2.3v-3.6C181.2,14.7,182.2,13.6,183.4,13.6 M185.1,22.9c-0.5,0.3-1.1,0.4-1.7,0.4c-0.6,0-1.3-0.1-1.8-0.2
	c-0.5-0.1-0.8-0.3-1-0.5c-0.3-0.2-0.5-0.5-0.8-0.9c-0.2-0.3-0.4-0.7-0.5-1c-0.1-0.3-0.3-0.6-0.3-0.9c-0.1-0.3-0.1-0.6-0.1-1.1
	c0-0.5,0-1.2,0.1-1.9c0.1-0.6,0.3-1.2,0.5-1.7c0.2-0.5,0.4-0.8,0.6-1.1c0.2-0.3,0.5-0.5,0.8-0.8c0.3-0.2,0.6-0.4,0.9-0.5
	c0.3-0.1,0.7-0.2,1.1-0.3c0.4,0,0.8-0.1,1.2,0c0.4,0,0.8,0.1,1.2,0.1c0.4,0.1,0.7,0.2,1,0.3c0.3,0.1,0.6,0.3,0.9,0.5
	c0.4,0.2,0.8,0.6,1.1,1c0.3,0.5,0.5,1.1,0.6,1.5c0.1,0.4,0.1,0.7,0.1,1.8c0,1.2,0,3.3,0,4.4s0,1.2-0.4,1.2c-0.4,0-1.3,0-1.7-0.1
	c-0.4-0.1-0.4-0.3-0.4-0.5c0-0.3,0-0.6-0.2-0.6C186,22.1,185.6,22.6,185.1,22.9z"/>
<path fill-rule="evenodd" clip-rule="evenodd" fill="#FFFFFF" d="M258.7,13.6h0.4c1.3,0,2.4,0.9,2.4,2.2v3.6c0,1.3-1.2,2.4-2.4,2.4
	h-0.4c-1.3,0-2.3-1-2.3-2.3v-3.6C256.4,14.7,257.4,13.6,258.7,13.6 M260.3,22.9c-0.5,0.3-1.1,0.4-1.7,0.4c-0.6,0-1.3-0.1-1.8-0.2
	c-0.5-0.1-0.8-0.3-1-0.5c-0.3-0.2-0.5-0.5-0.8-0.9c-0.2-0.3-0.4-0.7-0.5-1c-0.1-0.3-0.3-0.6-0.3-0.9c-0.1-0.3-0.1-0.6-0.1-1.1
	c0-0.5,0-1.2,0.1-1.9c0.1-0.6,0.3-1.2,0.5-1.7c0.2-0.5,0.4-0.8,0.6-1.1c0.2-0.3,0.5-0.5,0.8-0.8c0.3-0.2,0.6-0.4,0.9-0.5
	c0.3-0.1,0.7-0.2,1.1-0.3c0.4,0,0.8-0.1,1.2,0c0.4,0,0.8,0.1,1.2,0.1c0.4,0.1,0.7,0.2,1,0.3c0.3,0.1,0.6,0.3,0.9,0.5
	c0.4,0.2,0.8,0.6,1.1,1c0.3,0.5,0.5,1.1,0.6,1.5c0.1,0.4,0.1,0.7,0.1,1.8c0,1.2,0,3.3,0,4.4s0,1.2-0.4,1.2c-0.4,0-1.3,0-1.7-0.1
	c-0.4-0.1-0.4-0.3-0.4-0.5c0-0.3,0-0.6-0.2-0.6C261.2,22.1,260.8,22.6,260.3,22.9z"/>
<path fill-rule="evenodd" clip-rule="evenodd" fill="#FFFFFF" d="M214.8,22.2h0.4c1.3,0,2.4-0.9,2.4-2.2v-3.6c0-1.3-1.2-2.4-2.4-2.4
	h-0.4c-1.3,0-2.3,1-2.3,2.3v3.6C212.6,21.1,213.6,22.2,214.8,22.2 M216.5,12.9c-0.5-0.3-1.1-0.4-1.7-0.4c-0.6,0-1.3,0.1-1.8,0.2
	c-0.5,0.1-0.8,0.3-1,0.5c-0.3,0.2-0.5,0.5-0.8,0.9c-0.2,0.3-0.4,0.7-0.5,1c-0.1,0.3-0.3,0.6-0.3,0.9c-0.1,0.3-0.1,0.6-0.1,1.1
	c0,0.5,0,1.2,0.1,1.9c0.1,0.6,0.3,1.2,0.5,1.7c0.2,0.5,0.4,0.8,0.6,1.1c0.2,0.3,0.5,0.5,0.8,0.8c0.3,0.2,0.6,0.4,0.9,0.5
	c0.3,0.1,0.7,0.2,1.1,0.3c0.4,0,0.8,0.1,1.2,0c0.4,0,0.8-0.1,1.2-0.1c0.4-0.1,0.7-0.2,1-0.3c0.3-0.1,0.6-0.3,0.9-0.5
	c0.4-0.2,0.8-0.6,1.1-1c0.3-0.5,0.5-1.1,0.6-1.5c0.1-0.4,0.1-0.7,0.1-1.8c0-1.2,0-3.3,0-5.2c0-1.9,0-3.5,0-4.4c0-0.9,0-1-0.4-1.1
	c-0.4-0.1-1.2-0.1-1.7,0c-0.4,0.1-0.4,0.2-0.4,1.2c0,0.9,0,2.7,0,3.7c0,1.1,0,1.4-0.2,1.4C217.3,13.6,217,13.2,216.5,12.9z"/>
<path fill-rule="evenodd" clip-rule="evenodd" fill="#FFFFFF" d="M290.3,22.2h0.4c1.3,0,2.4-0.9,2.4-2.2v-3.6c0-1.3-1.2-2.4-2.4-2.4
	h-0.4c-1.3,0-2.3,1-2.3,2.3v3.6C288,21.1,289.1,22.2,290.3,22.2 M292,12.9c-0.5-0.3-1.1-0.4-1.7-0.4c-0.6,0-1.3,0.1-1.8,0.2
	c-0.5,0.1-0.8,0.3-1,0.5c-0.3,0.2-0.5,0.5-0.8,0.9c-0.2,0.3-0.4,0.7-0.5,1c-0.1,0.3-0.3,0.6-0.3,0.9c-0.1,0.3-0.1,0.6-0.1,1.1
	c0,0.5,0,1.2,0.1,1.9c0.1,0.6,0.3,1.2,0.5,1.7c0.2,0.5,0.4,0.8,0.6,1.1c0.2,0.3,0.5,0.5,0.8,0.8c0.3,0.2,0.6,0.4,0.9,0.5
	c0.3,0.1,0.7,0.2,1.1,0.3c0.4,0,0.8,0.1,1.2,0c0.4,0,0.8-0.1,1.2-0.1c0.4-0.1,0.7-0.2,1-0.3c0.3-0.1,0.6-0.3,0.9-0.5
	c0.4-0.2,0.8-0.6,1.1-1c0.3-0.5,0.5-1.1,0.6-1.5c0.1-0.4,0.1-0.7,0.1-1.8c0-1.2,0-3.3,0-5.2c0-1.9,0-3.5,0-4.4c0-0.9,0-1-0.4-1.1
	c-0.4-0.1-1.2-0.1-1.7,0c-0.4,0.1-0.4,0.2-0.4,1.2c0,0.9,0,2.7,0,3.7c0,1.1,0,1.4-0.2,1.4C292.8,13.6,292.5,13.2,292,12.9z"/>
<path fill-rule="evenodd" clip-rule="evenodd" fill="#2E145D" d="M74.6,13.7H75c1.9,0,2.8,1.6,2.8,3.5v1.1c0,1.9-0.9,3.4-2.8,3.4
	h-0.4c-1.9,0-2.9-1.7-2.9-3.5V17C71.7,15.1,72.7,13.7,74.6,13.7 M74.5,12.1h0.6c2.6,0,4.8,2.2,4.8,4.8v1.5c0,2.6-2.2,4.8-4.8,4.8
	h-0.6c-2.6,0-4.8-2.2-4.8-4.8v-1.5C69.7,14.3,71.9,12.1,74.5,12.1z"/>
<path fill-rule="evenodd" clip-rule="evenodd" fill="#FFFFFF" d="M143.5,13.7h0.4c1.9,0,2.8,1.6,2.8,3.5v1.1c0,1.9-0.9,3.4-2.8,3.4
	h-0.4c-1.9,0-2.9-1.7-2.9-3.5V17C140.7,15.1,141.6,13.7,143.5,13.7 M143.4,12.1h0.6c2.6,0,4.8,2.2,4.8,4.8v1.5
	c0,2.6-2.2,4.8-4.8,4.8h-0.6c-2.6,0-4.8-2.2-4.8-4.8v-1.5C138.6,14.3,140.8,12.1,143.4,12.1z"/>
<path fill-rule="evenodd" clip-rule="evenodd" fill="#FFFFFF" d="M226.6,13.7h0.4c1.9,0,2.8,1.6,2.8,3.5v1.1c0,1.9-0.9,3.4-2.8,3.4
	h-0.4c-1.9,0-2.9-1.7-2.9-3.5V17C223.7,15.1,224.7,13.7,226.6,13.7 M226.5,12.1h0.6c2.6,0,4.8,2.2,4.8,4.8v1.5
	c0,2.6-2.2,4.8-4.8,4.8h-0.6c-2.6,0-4.8-2.2-4.8-4.8v-1.5C221.7,14.3,223.8,12.1,226.5,12.1z"/>
<path fill-rule="evenodd" clip-rule="evenodd" fill="#FFFFFF" d="M302.4,13.7h0.4c1.9,0,2.8,1.6,2.8,3.5v1.1c0,1.9-0.9,3.4-2.8,3.4
	h-0.4c-1.9,0-2.9-1.7-2.9-3.5V17C299.5,15.1,300.5,13.7,302.4,13.7 M302.3,12.1h0.6c2.6,0,4.8,2.2,4.8,4.8v1.5
	c0,2.6-2.2,4.8-4.8,4.8h-0.6c-2.6,0-4.8-2.2-4.8-4.8v-1.5C297.5,14.3,299.6,12.1,302.3,12.1z"/>
<path fill-rule="evenodd" clip-rule="evenodd" fill="#2E145D" d="M66.6,7.3c0.9,0,1.7,0.8,1.7,1.7c0,0.9-0.8,1.7-1.7,1.7
	c-0.9,0-1.7-0.8-1.7-1.7C64.9,8.1,65.7,7.3,66.6,7.3"/>
<path fill-rule="evenodd" clip-rule="evenodd" fill="#FFFFFF" d="M207.4,7.3c0.9,0,1.7,0.8,1.7,1.7c0,0.9-0.8,1.7-1.7,1.7
	c-0.9,0-1.7-0.8-1.7-1.7C205.7,8.1,206.5,7.3,207.4,7.3"/>
<path fill-rule="evenodd" clip-rule="evenodd" fill="#FFFFFF" d="M282.7,7.3c0.9,0,1.7,0.8,1.7,1.7c0,0.9-0.8,1.7-1.7,1.7
	S281,10,281,9C281,8.1,281.7,7.3,282.7,7.3"/>
<polyline fill-rule="evenodd" clip-rule="evenodd" fill="#2E145D" points="73.1,10.1 77.2,7.5 77.3,7.6 78,9.5 78,9.5 73,11.3 
	73,11.2 73,10.1 73.1,10.1 "/>
<path fill-rule="evenodd" clip-rule="evenodd" fill="#2E145D" d="M63.1,15.7c0.2-0.2,0.4-0.3,0.5-0.5c0.1-0.2,0-0.3,0-0.5
	c-0.1-0.2-0.2-0.4-0.4-0.6c-0.2-0.2-0.3-0.3-0.5-0.5c-0.2-0.2-0.5-0.3-0.8-0.5c-0.3-0.1-0.6-0.3-0.9-0.3c-0.3-0.1-0.5-0.1-0.8-0.1
	c-0.3,0-0.7,0-1.1,0c-0.4,0-0.9,0.2-1.3,0.3c-0.5,0.2-0.9,0.4-1.3,0.7c-0.4,0.3-0.6,0.5-0.9,0.9c-0.3,0.3-0.5,0.7-0.6,1
	c-0.2,0.3-0.3,0.6-0.3,0.9c-0.1,0.3-0.1,0.6-0.2,1c-0.1,0.5-0.1,1.2,0,1.8c0.1,0.6,0.3,1.3,0.5,1.7c0.2,0.5,0.4,0.8,0.6,1.1
	c0.2,0.3,0.4,0.5,0.6,0.6c0.2,0.2,0.4,0.3,0.7,0.5c0.3,0.2,0.8,0.4,1.4,0.5c0.6,0.1,1.2,0.1,1.7,0.1c0.5,0,0.8-0.1,1.2-0.1
	c0.4-0.1,0.8-0.2,1.2-0.3c0.4-0.1,0.7-0.3,1-0.4c0.3-0.1,0.4-0.2,0.5-0.3c0.1-0.1,0.1-0.2,0.1-0.3c0-0.1-0.1-0.2-0.2-0.3
	c-0.1-0.1-0.3-0.1-0.5-0.1c-0.2,0-0.3,0.1-0.4,0.1c-0.1,0.1-0.2,0.1-0.4,0.2c-0.2,0-0.6,0-1,0s-0.8,0-1.1,0c-0.3,0-0.6-0.1-1-0.3
	c-0.3-0.1-0.6-0.3-1-0.6c-0.3-0.3-0.6-0.6-0.8-0.9c-0.2-0.3-0.3-0.4-0.4-0.7c-0.1-0.2-0.2-0.5-0.3-0.9c-0.1-0.4,0-0.8,0-1.3
	c0-0.4,0.1-0.8,0.2-1.1c0.1-0.3,0.3-0.7,0.5-0.9c0.2-0.3,0.5-0.5,0.8-0.7c0.3-0.2,0.7-0.3,1-0.4c0.3-0.1,0.6-0.1,0.8,0
	c0.3,0.1,0.6,0.2,0.9,0.3c0.2,0.1,0.4,0.3,0.5,0.4c0.1,0.2,0.2,0.3,0.3,0.5c0.1,0.1,0.1,0.3,0.2,0.4c0.1,0.1,0.3,0.1,0.5,0
	C62.6,16,62.9,15.8,63.1,15.7"/>
<path fill-rule="evenodd" clip-rule="evenodd" fill="#2E145D" d="M66.5,12.5c0.3,0,0.6,0,0.8,0c0.2,0,0.3,0,0.4,0
	c0.1,0.1,0.1,0.2,0.2,2s0,5.3,0,7.1c0,1.8,0,1.9-0.2,1.9c-0.1,0.1-0.3,0.1-0.7,0.1c-0.4,0-0.9,0-1.2,0c-0.3,0-0.3,0-0.4-1.8
	c0-1.8,0-5.4,0-7.3c0-1.8,0-1.9,0.2-2C65.8,12.5,66.2,12.5,66.5,12.5"/>
<path fill-rule="evenodd" clip-rule="evenodd" fill="#FFFFFF" d="M207.3,12.5c0.3,0,0.6,0,0.8,0c0.2,0,0.3,0,0.4,0
	c0.1,0.1,0.1,0.2,0.2,2c0,1.8,0,5.3,0,7.1c0,1.8,0,1.9-0.2,1.9c-0.1,0.1-0.3,0.1-0.7,0.1c-0.4,0-0.9,0-1.2,0c-0.3,0-0.3,0-0.4-1.8
	c0-1.8,0-5.4,0-7.3s0-1.9,0.2-2C206.6,12.5,207,12.5,207.3,12.5"/>
<path fill-rule="evenodd" clip-rule="evenodd" fill="#FFFFFF" d="M282.6,12.5c0.3,0,0.6,0,0.8,0c0.2,0,0.3,0,0.4,0
	c0.1,0.1,0.1,0.2,0.2,2s0,5.3,0,7.1c0,1.8,0,1.9-0.2,1.9c-0.1,0.1-0.3,0.1-0.7,0.1c-0.4,0-0.9,0-1.2,0c-0.3,0-0.3,0-0.4-1.8
	c0-1.8,0-5.4,0-7.3s0-1.9,0.2-2C281.9,12.5,282.3,12.5,282.6,12.5"/>
<path fill-rule="evenodd" clip-rule="evenodd" fill="#FFFFFF" d="M176.7,9.6c0.1-0.2,0.1-0.6,0-0.8c0-0.2,0-0.4-0.2-0.5
	s-0.4-0.2-0.9-0.3c-0.4-0.1-1-0.3-1.5-0.3c-0.5-0.1-1.1-0.1-1.6-0.1c-0.6,0-1.2,0.1-1.6,0.1c-0.5,0.1-0.9,0.1-1.3,0.4
	c-0.4,0.2-0.9,0.6-1.4,0.9c-0.4,0.4-0.8,0.7-1.1,1.2c-0.3,0.5-0.6,1-0.9,1.6c-0.2,0.6-0.4,1.3-0.5,2c-0.1,0.7-0.2,1.5-0.1,2.3
	c0,0.8,0.1,1.5,0.3,2.2c0.2,0.7,0.4,1.3,0.7,1.8c0.3,0.6,0.6,1.1,1,1.5c0.4,0.4,0.8,0.7,1.2,1c0.4,0.3,0.9,0.5,1.3,0.7
	c0.5,0.1,1,0.2,1.5,0.2c0.5,0,1,0,1.4,0c0.4-0.1,0.7-0.2,1-0.3c0.3-0.1,0.5-0.3,0.6-0.4c0.1-0.1,0.2-0.1,0.3-0.1
	c0.1,0,0.2,0,0.2,0.9c0,0.9,0.1,2.6,0.1,3.4c0,0.9,0.1,0.8,0.4,0.8c0.3,0,0.9,0,1.2,0c0.3,0,0.3-0.1,0.4-2.1c0-2,0-5.9,0-7.8
	c0-2,0-2.1-0.1-2.1c0-0.1-0.1-0.1-0.4-0.1c-0.3,0-0.8-0.1-1.1-0.1c-0.3,0-0.4,0-0.4,1c0,1,0,2.9,0,3.9c0,1-0.1,1.1-0.2,1.2
	c-0.2,0.1-0.5,0.2-0.7,0.4c-0.3,0.1-0.4,0.2-0.7,0.3c-0.3,0-0.6,0-1,0c-0.3,0-0.7,0-1-0.1c-0.3-0.1-0.7-0.1-1-0.3
	c-0.3-0.2-0.7-0.5-1-0.9c-0.3-0.4-0.6-0.8-0.9-1.3c-0.2-0.5-0.4-1.2-0.5-1.8c-0.1-0.6-0.2-1.3-0.2-1.9c0-0.7,0.1-1.4,0.1-2
	c0.1-0.6,0.2-1.1,0.4-1.7c0.2-0.5,0.4-1,0.7-1.5c0.3-0.4,0.5-0.7,0.9-1c0.3-0.3,0.7-0.5,1.1-0.6c0.4-0.1,0.8-0.2,1.2-0.2
	c0.4,0,0.8,0,1.2,0c0.4,0,0.8,0.1,1.1,0.2c0.4,0.1,0.7,0.3,1,0.4c0.3,0.2,0.6,0.3,0.7,0.4C176.5,9.8,176.6,9.8,176.7,9.6"/>
<path fill-rule="evenodd" clip-rule="evenodd" fill="#FFFFFF" d="M251.9,9.6c0.1-0.2,0.1-0.6,0-0.8c0-0.2,0-0.4-0.2-0.5
	c-0.2-0.1-0.4-0.2-0.9-0.3c-0.4-0.1-1-0.3-1.5-0.3c-0.5-0.1-1.1-0.1-1.6-0.1c-0.6,0-1.2,0.1-1.6,0.1c-0.5,0.1-0.9,0.1-1.3,0.4
	c-0.4,0.2-0.9,0.6-1.4,0.9c-0.4,0.4-0.8,0.7-1.1,1.2c-0.3,0.5-0.6,1-0.9,1.6c-0.2,0.6-0.4,1.3-0.5,2c-0.1,0.7-0.2,1.5-0.1,2.3
	c0,0.8,0.1,1.5,0.3,2.2c0.2,0.7,0.4,1.3,0.7,1.8c0.3,0.6,0.6,1.1,1,1.5c0.4,0.4,0.8,0.7,1.2,1c0.4,0.3,0.9,0.5,1.3,0.7
	c0.5,0.1,1,0.2,1.5,0.2c0.5,0,1,0,1.4,0c0.4-0.1,0.7-0.2,1-0.3c0.3-0.1,0.5-0.3,0.6-0.4c0.1-0.1,0.2-0.1,0.3-0.1
	c0.1,0,0.2,0,0.2,0.9c0,0.9,0.1,2.6,0.1,3.4c0,0.9,0.1,0.8,0.4,0.8c0.3,0,0.9,0,1.2,0c0.3,0,0.3-0.1,0.4-2.1c0-2,0-5.9,0-7.8
	c0-2,0-2.1-0.1-2.1c0-0.1-0.1-0.1-0.4-0.1c-0.3,0-0.8-0.1-1.1-0.1c-0.3,0-0.4,0-0.4,1c0,1,0,2.9,0,3.9c0,1-0.1,1.1-0.2,1.2
	c-0.2,0.1-0.5,0.2-0.7,0.4c-0.3,0.1-0.4,0.2-0.7,0.3c-0.3,0-0.6,0-1,0c-0.3,0-0.7,0-1-0.1c-0.3-0.1-0.7-0.1-1-0.3
	c-0.3-0.2-0.7-0.5-1-0.9c-0.3-0.4-0.6-0.8-0.9-1.3c-0.2-0.5-0.4-1.2-0.5-1.8c-0.1-0.6-0.2-1.3-0.2-1.9c0-0.7,0.1-1.4,0.1-2
	c0.1-0.6,0.2-1.1,0.4-1.7c0.2-0.5,0.4-1,0.7-1.5c0.3-0.4,0.5-0.7,0.9-1c0.3-0.3,0.7-0.5,1.1-0.6c0.4-0.1,0.8-0.2,1.2-0.2
	c0.4,0,0.8,0,1.2,0c0.4,0,0.8,0.1,1.1,0.2c0.4,0.1,0.7,0.3,1,0.4c0.3,0.2,0.6,0.3,0.7,0.4C251.7,9.8,251.8,9.8,251.9,9.6"/>
<path fill-rule="evenodd" clip-rule="evenodd" fill="#FFFFFF" d="M191.2,23.5c0.3,0,0.8,0,1,0c0.3,0,0.3,0,0.4-1.1
	c0-1.1,0-3.1,0.1-4.4c0-1.2,0-1.6,0.1-2c0.1-0.3,0.2-0.6,0.4-0.9c0.2-0.3,0.4-0.5,0.7-0.8c0.3-0.2,0.8-0.4,1.2-0.5
	c0.4-0.1,0.7-0.1,1-0.1c0.3,0,0.5,0,0.7,0c0.1,0,0.2-0.1,0.2-0.2c0-0.1,0-0.3,0-0.4c0-0.1,0-0.2-0.2-0.3c-0.1,0-0.3,0-0.7,0
	c-0.3,0-0.8,0-1.2,0.1c-0.4,0.1-0.7,0.1-1,0.3c-0.3,0.1-0.7,0.3-1.1,0.5c-0.3,0.2-0.7,0.5-0.9,0.8s-0.5,0.4-0.7,0.8
	c-0.2,0.4-0.3,1-0.5,1.4c-0.1,0.4-0.1,0.7-0.2,1.4c0,0.7,0,1.7,0,2.6c0,0.9,0,1.6,0,2c0,0.4,0,0.6,0.1,0.6
	C190.8,23.5,190.9,23.5,191.2,23.5"/>
<path fill-rule="evenodd" clip-rule="evenodd" fill="#FFFFFF" d="M126,23.5c0.3,0,0.8,0,1,0c0.3,0,0.3,0,0.4-1.1
	c0-1.1,0-3.1,0.1-4.4c0-1.2,0-1.6,0.1-2c0.1-0.3,0.2-0.6,0.4-0.9c0.2-0.3,0.4-0.5,0.7-0.8c0.3-0.2,0.8-0.4,1.2-0.5
	c0.4-0.1,0.7-0.1,1-0.1c0.3,0,0.5,0,0.7,0c0.1,0,0.2-0.1,0.2-0.2c0-0.1,0-0.3,0-0.4c0-0.1,0-0.2-0.2-0.3c-0.1,0-0.3,0-0.7,0
	c-0.3,0-0.8,0-1.2,0.1c-0.4,0.1-0.7,0.1-1,0.3c-0.3,0.1-0.7,0.3-1.1,0.5c-0.3,0.2-0.7,0.5-0.9,0.8c-0.3,0.3-0.5,0.4-0.7,0.8
	c-0.2,0.4-0.3,1-0.5,1.4c-0.1,0.4-0.1,0.7-0.2,1.4c0,0.7,0,1.7,0,2.6c0,0.9,0,1.6,0,2c0,0.4,0,0.6,0.1,0.6
	C125.6,23.5,125.7,23.5,126,23.5"/>
<path fill-rule="evenodd" clip-rule="evenodd" fill="#FFFFFF" d="M133.7,7.6c0.3,0,0.8,0,1,0c0.3,0,0.3,0,0.3,0.1c0,0.1,0,0.2,0,2.1
	c0,1.9,0,5.6,0,7.6c0,2,0,2.4,0.1,2.8c0.1,0.3,0.2,0.6,0.4,0.9c0.2,0.3,0.4,0.5,0.7,0.7c0.3,0.2,0.7,0.3,1,0.4
	c0.3,0.1,0.5,0.1,0.7,0.1c0.2,0,0.3,0,0.3,0c0.1,0,0.1,0.1,0.1,0.2c0,0.1,0,0.3,0,0.4c0,0.1,0,0.2-0.1,0.3c0,0.1-0.1,0.1-0.3,0.1
	c-0.2,0-0.6-0.1-0.9-0.1c-0.3,0-0.5-0.1-0.8-0.2c-0.3-0.1-0.7-0.3-1-0.5c-0.3-0.2-0.7-0.5-0.9-0.8c-0.3-0.3-0.5-0.4-0.7-0.8
	c-0.2-0.4-0.3-1-0.5-1.4c-0.1-0.4-0.1-0.7-0.2-1.4c0-0.7,0-1.7,0-3.5s0-4.2,0-5.5c0-1.3,0-1.4,0.1-1.5
	C133.2,7.6,133.4,7.6,133.7,7.6"/>
<path fill-rule="evenodd" clip-rule="evenodd" fill="#FFFFFF" d="M266.7,23.5c0.3,0,0.8,0,1,0c0.3,0,0.3,0,0.4-1.1
	c0-1.1,0-3.1,0.1-4.4c0-1.2,0-1.6,0.1-2c0.1-0.3,0.2-0.6,0.4-0.9c0.2-0.3,0.4-0.5,0.7-0.8c0.3-0.2,0.8-0.4,1.2-0.5
	c0.4-0.1,0.7-0.1,1-0.1c0.3,0,0.5,0,0.7,0c0.1,0,0.2-0.1,0.2-0.2c0-0.1,0-0.3,0-0.4c0-0.1,0-0.2-0.2-0.3c-0.1,0-0.3,0-0.7,0
	c-0.3,0-0.8,0-1.2,0.1c-0.4,0.1-0.7,0.1-1,0.3c-0.3,0.1-0.7,0.3-1.1,0.5c-0.3,0.2-0.7,0.5-0.9,0.8c-0.3,0.3-0.5,0.4-0.7,0.8
	c-0.2,0.4-0.3,1-0.5,1.4c-0.1,0.4-0.1,0.7-0.2,1.4c0,0.7,0,1.7,0,2.6c0,0.9,0,1.6,0,2c0,0.4,0,0.6,0.1,0.6
	C266.2,23.5,266.4,23.5,266.7,23.5"/>
<path fill-rule="evenodd" clip-rule="evenodd" fill="#FFFFFF" d="M198.8,23.6c0.3,0,0.8,0,1,0c0.3,0,0.3,0,0.4-1.1
	c0-1.1,0-3.1,0.1-4.4c0-1.2,0-1.6,0.1-2c0.1-0.3,0.2-0.6,0.4-0.9c0.2-0.3,0.4-0.5,0.7-0.8c0.3-0.2,0.8-0.4,1.2-0.5
	c0.4-0.1,0.7-0.1,1-0.1c0.3,0,0.5,0,0.7,0c0.1,0,0.2-0.1,0.2-0.2c0-0.1,0-0.3,0-0.4c0-0.1,0-0.2-0.2-0.3c-0.1,0-0.3,0-0.7,0
	c-0.3,0-0.8,0-1.2,0.1c-0.4,0.1-0.7,0.1-1,0.3c-0.3,0.1-0.7,0.3-1.1,0.5c-0.3,0.2-0.7,0.5-0.9,0.8c-0.3,0.3-0.5,0.4-0.7,0.8
	c-0.2,0.4-0.3,1-0.5,1.4c-0.1,0.4-0.1,0.7-0.2,1.4c0,0.7,0,1.7,0,2.6c0,0.9,0,1.6,0,2c0,0.4,0,0.6,0.1,0.6
	C198.4,23.6,198.5,23.6,198.8,23.6"/>
<path fill-rule="evenodd" clip-rule="evenodd" fill="#FFFFFF" d="M274.3,23.5c0.3,0,0.8,0,1,0c0.3,0,0.3,0,0.4-1.1
	c0-1.1,0-3.1,0.1-4.4c0-1.2,0-1.6,0.1-2c0.1-0.3,0.2-0.6,0.4-0.9c0.2-0.3,0.4-0.5,0.7-0.8c0.3-0.2,0.8-0.4,1.2-0.5
	c0.4-0.1,0.7-0.1,1-0.1c0.3,0,0.5,0,0.7,0c0.1,0,0.2-0.1,0.2-0.2c0-0.1,0-0.3,0-0.4c0-0.1,0-0.2-0.2-0.3c-0.1,0-0.3,0-0.7,0
	c-0.3,0-0.8,0-1.2,0.1c-0.4,0.1-0.7,0.1-1,0.3c-0.3,0.1-0.7,0.3-1.1,0.5c-0.3,0.2-0.7,0.5-0.9,0.8c-0.3,0.3-0.5,0.4-0.7,0.8
	c-0.2,0.4-0.3,1-0.5,1.4c-0.1,0.4-0.1,0.7-0.2,1.4c0,0.7,0,1.7,0,2.6c0,0.9,0,1.6,0,2c0,0.4,0,0.6,0.1,0.6
	C273.9,23.5,274,23.5,274.3,23.5"/>
<path fill-rule="evenodd" clip-rule="evenodd" fill="#FFFFFF" d="M112.1,9.6c0.1,0,0.2-0.1,0.2-0.3c0.1-0.2,0.1-0.4,0.1-0.6
	c0-0.2,0-0.4-0.2-0.5c-0.2-0.2-0.6-0.4-1.1-0.5c-0.5-0.2-1-0.3-1.6-0.4c-0.6-0.1-1.1-0.2-1.7-0.2c-0.6,0-1.4,0.1-2.1,0.2
	c-0.7,0.1-1.2,0.3-1.8,0.6c-0.6,0.3-1.2,0.8-1.6,1.1c-0.4,0.4-0.7,0.7-1,1c-0.3,0.3-0.5,0.8-0.7,1.3c-0.2,0.5-0.5,1.1-0.6,1.6
	c-0.1,0.5-0.2,1-0.2,1.6c0,0.7,0,1.5,0.1,2.2c0.1,0.7,0.3,1.3,0.5,1.8c0.2,0.5,0.5,0.9,0.7,1.3c0.2,0.3,0.4,0.6,0.6,0.8
	c0.2,0.2,0.4,0.5,0.7,0.7c0.2,0.2,0.5,0.4,0.8,0.6c0.3,0.2,0.6,0.3,1,0.5c0.4,0.2,0.9,0.3,1.3,0.4s0.9,0.2,1.3,0.3
	c0.4,0,0.8,0,1.3,0s0.8-0.1,1.3-0.2c0.4-0.1,0.9-0.2,1.3-0.4c0.4-0.1,0.7-0.2,1-0.3c0.3-0.1,0.4-0.2,0.5-0.3
	c0.1-0.1,0.1-0.2,0.1-0.3c0-0.2,0-0.5,0-0.6c-0.1-0.2-0.2-0.2-0.3-0.2c-0.1,0-0.2,0.1-0.3,0.2c-0.1,0.1-0.2,0.2-0.4,0.3
	c-0.2,0.1-0.5,0.2-0.8,0.3c-0.3,0.1-0.6,0.2-0.9,0.2s-0.7,0.1-1.1,0.1c-0.4,0-0.9,0-1.3,0c-0.5-0.1-0.9-0.2-1.3-0.4
	c-0.4-0.2-0.8-0.4-1.1-0.7c-0.3-0.3-0.6-0.5-0.9-0.9c-0.3-0.3-0.5-0.7-0.7-1c-0.2-0.3-0.3-0.6-0.4-0.8c-0.1-0.3-0.2-0.6-0.3-1
	c-0.1-0.4-0.1-0.7-0.2-1.2c0-0.5-0.1-1.1-0.1-1.7c0-0.6,0.1-1.1,0.2-1.6c0.1-0.5,0.3-1,0.5-1.4c0.2-0.4,0.5-0.8,0.8-1.1
	c0.3-0.3,0.6-0.6,1-0.8c0.3-0.2,0.7-0.4,1.1-0.5c0.4-0.1,0.7-0.2,1.1-0.2c0.4,0,0.7-0.1,1.1-0.1c0.3,0,0.7,0.1,1.1,0.1
	c0.4,0.1,0.8,0.1,1.1,0.2c0.3,0.1,0.6,0.2,0.8,0.3c0.2,0.1,0.4,0.2,0.6,0.3c0.2,0.1,0.4,0.2,0.5,0.3C111.9,9.5,112,9.6,112.1,9.6"/>
<path fill-rule="evenodd" clip-rule="evenodd" fill="#FFFFFF" d="M156.7,14c0.1-0.1,0.1-0.3,0.1-0.5c0-0.1-0.1-0.2-0.3-0.4
	c-0.2-0.1-0.4-0.3-0.7-0.4c-0.3-0.1-0.6-0.2-1-0.3c-0.4-0.1-0.9-0.1-1.3,0c-0.4,0-0.8,0.1-1.2,0.2c-0.4,0.1-0.7,0.3-1,0.6
	c-0.3,0.3-0.6,0.6-0.8,0.9c-0.2,0.3-0.2,0.7-0.2,1c0,0.3,0,0.7,0.1,1c0.1,0.3,0.2,0.6,0.4,0.9c0.2,0.3,0.5,0.5,0.9,0.7
	c0.4,0.2,0.8,0.4,1.2,0.6c0.4,0.2,0.7,0.3,1,0.5c0.3,0.2,0.6,0.4,0.8,0.5c0.2,0.2,0.4,0.3,0.6,0.4c0.1,0.2,0.2,0.3,0.2,0.6
	c0,0.2-0.1,0.5-0.1,0.7c-0.1,0.2-0.2,0.5-0.4,0.7c-0.2,0.2-0.4,0.3-0.6,0.4c-0.2,0.1-0.4,0.2-0.7,0.2c-0.3,0.1-0.6,0.1-1,0.1
	c-0.4,0-0.8-0.1-1-0.2c-0.3-0.1-0.5-0.1-0.7-0.2c-0.2-0.1-0.4-0.1-0.5,0c-0.1,0.1-0.1,0.2-0.1,0.4c0,0.2,0,0.3,0.2,0.4
	c0.1,0.1,0.3,0.2,0.7,0.3c0.4,0.1,0.9,0.1,1.5,0.2c0.6,0,1.3,0,1.8-0.1c0.5-0.1,0.8-0.3,1.1-0.5c0.3-0.2,0.7-0.6,0.9-0.9
	c0.2-0.3,0.3-0.6,0.4-0.9c0.1-0.4,0.1-0.8,0.1-1.2c0-0.4-0.1-0.7-0.3-0.9c-0.2-0.3-0.5-0.6-0.8-0.8c-0.3-0.2-0.5-0.3-0.9-0.5
	c-0.4-0.2-0.8-0.4-1.3-0.6c-0.4-0.2-0.7-0.3-1-0.5c-0.3-0.1-0.5-0.3-0.6-0.4c-0.1-0.2-0.2-0.3-0.2-0.6c0-0.2,0-0.5,0-0.8
	c0-0.3,0.1-0.5,0.3-0.7c0.2-0.2,0.4-0.3,0.7-0.4c0.3-0.1,0.5-0.1,0.8-0.1c0.3,0,0.6,0,0.8,0.1c0.3,0,0.5,0.1,0.7,0.2
	c0.2,0.1,0.4,0.2,0.6,0.3c0.2,0.1,0.3,0.2,0.5,0.2C156.5,14.1,156.6,14.1,156.7,14"/>
</svg>
