<?xml version="1.0" encoding="utf-8"?>
<!-- Generator: Adobe Illustrator 18.1.0, SVG Export Plug-In . SVG Version: 6.00 Build 0)  -->
<!DOCTYPE svg PUBLIC "-//W3C//DTD SVG 1.1//EN" "http://www.w3.org/Graphics/SVG/1.1/DTD/svg11.dtd" [
	<!ENTITY ns_extend "http://ns.adobe.com/Extensibility/1.0/">
	<!ENTITY ns_ai "http://ns.adobe.com/AdobeIllustrator/10.0/">
	<!ENTITY ns_graphs "http://ns.adobe.com/Graphs/1.0/">
	<!ENTITY ns_vars "http://ns.adobe.com/Variables/1.0/">
	<!ENTITY ns_imrep "http://ns.adobe.com/ImageReplacement/1.0/">
	<!ENTITY ns_sfw "http://ns.adobe.com/SaveForWeb/1.0/">
	<!ENTITY ns_custom "http://ns.adobe.com/GenericCustomNamespace/1.0/">
	<!ENTITY ns_adobe_xpath "http://ns.adobe.com/XPath/1.0/">
]>
<svg version="1.1" id="Layer_1" xmlns:x="&ns_extend;" xmlns:i="&ns_ai;" xmlns:graph="&ns_graphs;"
	 xmlns="http://www.w3.org/2000/svg" xmlns:xlink="http://www.w3.org/1999/xlink" x="0px" y="0px" viewBox="0 0 408 70"
	 enable-background="new 0 0 408 70" xml:space="preserve">
<metadata>
	<sfw  xmlns="&ns_sfw;">
		<slices></slices>
		<sliceSourceBounds  height="69" width="407.3" x="0.6" y="-70.1" bottomLeftOrigin="true"></sliceSourceBounds>
	</sfw>
</metadata>
<path fill-rule="evenodd" clip-rule="evenodd" fill="#FFFFFF" d="M361.7,9.5c0.3,0,0.1,1.3,0,2.5c-0.1,1.2-0.2,2.4-0.3,3.6
	c-0.1,1.2-0.2,2.4-0.2,3.8c0,1.4,0.1,2.9,0.2,4.3c0.1,1.4,0.3,2.5,0.8,3.6c0.4,1.1,1.1,2.2,2.1,3.4c0.9,1.2,2.1,2.5,3.7,4.3
	c1.6,1.7,3.7,3.8,5.4,5.4c1.7,1.6,2.9,2.7,4.1,3.8c1.2,1.1,2.4,2.3,3.4,3.3c1,1,1.9,1.9,2.7,3c0.8,1,1.6,2.3,2.2,3.3
	c0.6,1.1,1,2.1,1.4,3c0.3,1,0.6,2,0.7,3.2c0.2,1.2,0.2,2.5,0.2,3.5c0,1-0.1,1.8-0.6,2.2c-0.5,0.5-1.3,0.7-2.3,0.8
	c-1,0.1-2.3,0.1-3.6,0.1c-1.3,0-2.6,0.1-3.1,0c-0.5-0.2-0.3-0.6-0.2-1.3c0.2-0.7,0.3-1.8,0.4-2.8c0.1-1,0-1.8-0.1-2.6
	c-0.1-0.8-0.4-1.6-0.6-2.2c-0.2-0.5-0.3-0.8,0-0.8c0.3,0,1,0.2,1.7,0.7c0.7,0.5,1.4,1.3,2.1,2c0.7,0.6,1.3,1.1,1.7,1.2
	c0.5,0.1,0.8,0,1-0.5c0.2-0.5,0.2-1.3,0.1-2c-0.2-0.7-0.5-1.3-0.9-2.1c-0.4-0.7-0.9-1.6-1.6-2.3c-0.7-0.7-1.5-1.1-2.4-1.3
	c-0.8-0.2-1.7-0.2-2.5-0.2c-0.8,0-1.6,0-2.3-0.1c-0.8-0.1-1.5-0.4-2.6-0.8c-1.1-0.5-2.6-1.2-4-2c-1.4-0.8-2.7-1.6-3.8-2.3
	c-1.1-0.7-1.9-1.4-2.5-2c-0.7-0.6-1.2-1.1-1.7-2c-0.5-0.9-0.9-2.3-1.2-3.7c-0.3-1.5-0.5-3-0.8-5c-0.3-1.9-0.7-4.2-1.2-5.9
	c-0.5-1.6-0.9-2.6-1.6-3.3c-0.6-0.7-1.3-1.1-2-1.3c-0.7-0.2-1.4-0.1-2.2,0c-0.8,0.2-1.7,0.4-2.7,0.8c-1,0.4-2.1,0.8-3,1.2
	c-0.9,0.4-1.8,0.6-2.4,0.9c-0.7,0.3-1.3,0.5-1.6,0.5c-0.3,0-0.4-0.2-0.2-0.5c0.2-0.4,0.6-0.9,1.4-1.6c0.8-0.7,1.9-1.6,2.9-2.4
	c1-0.8,1.9-1.4,2.8-2.1c0.9-0.7,1.9-1.5,2.6-2c0.7-0.5,1.1-0.7,1.3-0.6c0.2,0.1,0,0.6,0.2,1c0.2,0.4,0.7,0.7,1.3,0.7
	c0.6,0,1.2-0.2,1.7-0.5c0.5-0.4,0.9-0.9,1-1.4c0.2-0.5,0.2-1,0-1.5c-0.2-0.4-0.7-0.7-1.1-0.8c-0.5-0.1-1-0.1-1.1-0.4
	c-0.1-0.2,0.1-0.7,0.4-1.3c0.3-0.6,0.5-1.5,0.8-2.3c0.2-0.8,0.4-1.7,0.9-1.3c0.5,0.4,1.3,2,1.7,2.7c0.4,0.7,0.4,0.6,0.6,0.3
	c0.2-0.3,0.7-0.8,1.3-1.8C360.6,10.8,361.4,9.5,361.7,9.5 M366.8,70.1c1.7,0,4.1,0,6.4-0.1c2.3,0,4.5,0,6.4,0c1.9,0,3.7-0.1,5.2-0.1
	c1.5,0,2.8,0,3.7-0.2c0.9-0.2,1.3-0.5,1.8-1.1c0.5-0.6,0.9-1.4,1.4-2.6c0.5-1.2,0.9-2.7,1.7-5.2c0.7-2.5,1.7-5.9,2.4-8.9
	c0.7-2.9,1.3-5.4,1.9-7.8c0.6-2.4,1.2-4.7,1.8-6.4c0.5-1.7,0.9-2.8,1.4-3.8c0.4-1,0.9-1.9,1.6-2.7c0.6-0.8,1.4-1.4,2.2-2.2
	c0.8-0.8,1.7-1.7,2.3-2.6c0.6-0.8,1-1.6,1.1-2.3c0.1-0.7,0.1-1.4-0.2-1.7c-0.2-0.4-0.6-0.5-0.8-0.3c-0.3,0.2-0.4,0.8-0.7,1.4
	c-0.3,0.6-0.7,1.3-1.3,2c-0.6,0.7-1.3,1.4-2,1.9c-0.7,0.5-1.5,0.9-2,1.1c-0.5,0.1-0.8,0-1-0.3c-0.2-0.3-0.2-0.8-0.1-1.5
	c0.1-0.6,0.2-1.3,0.5-1.8c0.3-0.5,0.6-0.9,0.9-1.5c0.3-0.5,0.4-1.1,0.3-1.5c-0.1-0.4-0.5-0.6-0.9-0.5c-0.4,0.1-0.8,0.4-1.4,1.2
	c-0.5,0.8-1.2,2-1.7,3.4c-0.5,1.4-0.9,2.9-1.3,4.6c-0.4,1.6-0.7,3.4-1.2,5.5c-0.4,2.1-1,4.7-1.5,7.3c-0.5,2.6-1.1,5.4-1.6,7.4
	c-0.5,2.1-0.8,3.4-1.1,4.4c-0.3,0.9-0.6,1.5-0.8,1.5c-0.2,0.1-0.4-0.3-0.5-1c-0.1-0.6-0.3-1.5-0.7-2.5c-0.4-1-1.1-2.1-2.2-3.3
	c-1-1.2-2.3-2.5-3.7-4c-1.4-1.4-2.9-2.9-4.3-4.3c-1.4-1.4-2.6-2.6-4-4.1c-1.4-1.5-3.1-3.1-4.5-4.7c-1.4-1.6-2.5-3-3.4-4.3
	c-0.9-1.3-1.6-2.4-2.1-3.6c-0.5-1.2-0.7-2.4-0.7-3.9c-0.1-1.6,0-3.4,0.1-5.4c0.1-2,0.4-4.1,0.5-5.7c0.1-1.6,0-2.7-0.2-4
	c-0.2-1.3-0.6-2.7-0.9-3.6c-0.3-0.9-0.5-1.4-0.7-1.4c-0.2,0-0.5,0.5-0.8,1.3c-0.3,0.8-0.7,2-1,3.1c-0.3,1.1-0.7,2-0.9,2.7
	c-0.3,0.7-0.5,1.1-0.7,1.3c-0.2,0.2-0.4,0.1-0.6-0.4c-0.3-0.5-0.6-1.5-1-2.6c-0.4-1.1-0.9-2.4-1.3-3.4c-0.4-1-0.7-1.7-1.1-1.5
	c-0.4,0.1-0.8,1.1-1.1,2.2c-0.3,1.1-0.4,2.4-0.6,3.6c-0.2,1.2-0.4,2.3-0.6,3.4c-0.3,1.1-0.6,2.2-1.2,3.1c-0.5,0.9-1.2,1.6-2.2,2.5
	c-1,0.8-2.2,1.8-3.5,2.9c-1.3,1.1-2.6,2.3-3.8,3.4c-1.1,1.1-2.1,2.1-2.9,2.9c-0.8,0.9-1.3,1.6-1.8,2.4c-0.4,0.7-0.8,1.5-0.9,2.1
	c-0.2,0.6-0.2,1,0.1,1.3c0.3,0.3,0.8,0.3,1.5,0.2c0.7-0.2,1.5-0.6,2.4-0.9c1-0.4,2.1-0.7,3.5-1.2c1.4-0.5,3-1.1,4.3-1.6
	c1.3-0.5,2.3-0.8,3-0.9c0.7-0.1,1.1,0,1.5,0.4c0.4,0.4,0.8,1.3,1.2,2.6c0.4,1.4,0.8,3.2,1.1,5.2c0.3,2,0.6,4,0.8,6.4
	c0.2,2.4,0.4,5.3,0.4,7.6c0.1,2.3,0.1,4.2,0,6c-0.1,1.8-0.2,3.7-0.3,5.1c-0.1,1.5-0.3,2.5-0.6,3.2c-0.3,0.7-0.7,1.1-1.2,1.4
	c-0.5,0.3-1,0.4-1.7,0.3c-0.6-0.1-1.4-0.4-2.1-0.5c-0.8-0.1-1.6,0.1-2.2,0.4c-0.6,0.4-1,0.9-1.2,1.6c-0.2,0.7-0.2,1.5,0.1,2.1
	c0.2,0.6,0.7,0.9,1.5,1.1c0.8,0.2,1.9,0.1,3.4,0.1c1.5-0.1,3.4-0.2,4.6-0.8c1.2-0.6,1.8-1.8,2.4-3.2c0.6-1.4,1.1-3.1,1.5-4.8
	c0.3-1.7,0.5-3.5,0.5-5.1c0.1-1.6,0.1-3.1,0-4.4c0-1.3-0.1-2.4,0-3c0.1-0.5,0.3-0.5,1-0.1c0.6,0.4,1.7,1.1,3.1,1.9
	c1.4,0.8,3.1,1.7,4.4,2.4c1.4,0.7,2.4,1.1,3.2,1.9c0.8,0.8,1.5,2,1.9,3.1c0.4,1.1,0.6,2.1,0.7,3.1c0.1,1,0,2.1-0.2,2.7
	c-0.3,0.7-0.8,0.9-1.4,1c-0.6,0-1.2-0.2-1.9-0.5c-0.7-0.3-1.4-0.7-2.3-0.8c-0.8-0.2-1.8-0.1-2.7,0c-0.9,0.2-1.8,0.4-2.6,1
	c-0.8,0.5-1.4,1.3-1.7,1.9c-0.3,0.6-0.3,1-0.1,1.6c0.2,0.6,0.6,1.3,1.2,1.7S365.1,70.1,366.8,70.1z"/>
<path fill="#FFFFFF" d="M194.9,43.2l-2.9-2.9h-31.8l-2.9,2.9V45h37.6V43.2z M163,48.9v-2.3h-5.7v10.9h5.7v-3.9h26.1v3.9h5.8V46.7
	h-5.8v2.3H163z M117.1,45h37.6v-1.9l-2.9-2.9h-34.7V45z M122.9,52.8v-6.2h-5.7v10.9h34.7l2.9-2.9v-8h-5.8v6.2H122.9z M82.7,57.6
	V46.7H77v10.9H82.7z M114.6,57.6V46.7h-5.8v10.9H114.6z M114.6,43.2l-2.9-2.9H79.9L77,43.2V45h37.6V43.2z M68.7,45h5.8v-4.7h-5.8V45
	z M42.6,52.8v-6.2h-5.7v8l2.9,2.9h31.8l2.9-2.9v-8h-5.8v6.2H42.6z M37.2,40.3h-0.4H3.5l-2.9,2.9V45h36.2h0.4h5.4v-4.7H37.2z
	 M0.6,46.7v10.9h5.7v-6.3h26.1v-4.6H0.6z"/>
<path fill="#FFFFFF" d="M348.8,40.3H343V45h5.8V40.3z M311.2,46.7v10.9h5.7v-6.3H343v6.3h5.8V46.7H311.2z M292.9,57.6l0-10.9h-5.9
	v10.9H292.9z M271.9,40.3h-0.8h-33.3l-2.9,2.9V45h36.2h0.8h21.1v0h18.3v0h5.7v-4.7h-4h-1.7H271.9z M234.9,46.7v8l2.9,2.9h30.8v-4.8
	h-28v-1.6h26.1v-4.6H234.9z M197.7,45h34.7v-4.7h-31.7l-3,2.9V45z M203.6,46.8v-0.1h-5.9v1.8l3.7,2.5h25v1.8h-28.7v4.8h31.6l3.1-3
	v-5.2l-3.2-2.6H203.6z"/>
</svg>
