<?xml version="1.0" encoding="utf-8"?>
<!-- Generator: Adobe Illustrator 18.1.0, SVG Export Plug-In . SVG Version: 6.00 Build 0)  -->
<!DOCTYPE svg PUBLIC "-//W3C//DTD SVG 1.1//EN" "http://www.w3.org/Graphics/SVG/1.1/DTD/svg11.dtd" [
	<!ENTITY ns_extend "http://ns.adobe.com/Extensibility/1.0/">
	<!ENTITY ns_ai "http://ns.adobe.com/AdobeIllustrator/10.0/">
	<!ENTITY ns_graphs "http://ns.adobe.com/Graphs/1.0/">
	<!ENTITY ns_vars "http://ns.adobe.com/Variables/1.0/">
	<!ENTITY ns_imrep "http://ns.adobe.com/ImageReplacement/1.0/">
	<!ENTITY ns_sfw "http://ns.adobe.com/SaveForWeb/1.0/">
	<!ENTITY ns_custom "http://ns.adobe.com/GenericCustomNamespace/1.0/">
	<!ENTITY ns_adobe_xpath "http://ns.adobe.com/XPath/1.0/">
]>
<svg version="1.1" id="Layer_1" xmlns:x="&ns_extend;" xmlns:i="&ns_ai;" xmlns:graph="&ns_graphs;"
	 xmlns="http://www.w3.org/2000/svg" xmlns:xlink="http://www.w3.org/1999/xlink" x="0px" y="0px" viewBox="0 0 60 60"
	 enable-background="new 0 0 60 60" xml:space="preserve">
<metadata>
	<sfw  xmlns="&ns_sfw;">
		<slices></slices>
		<sliceSourceBounds  width="57.4" height="55.7" y="-57.8" x="1" bottomLeftOrigin="true"></sliceSourceBounds>
	</sfw>
</metadata>
<path fill="#F1C40F" d="M21.1,9.1c0.2,0,0.1,1,0,2S20.9,13,20.9,14c-0.1,1-0.2,1.9-0.2,3.1s0.1,2.3,0.2,3.5c0.1,1.1,0.2,2,0.6,2.9
	c0.3,0.9,0.9,1.8,1.7,2.7c0.7,1,1.7,2,3,3.5c1.3,1.4,3,3.1,4.3,4.3c1.4,1.3,2.3,2.2,3.3,3.1c1,0.9,1.9,1.9,2.7,2.7
	c0.8,0.8,1.5,1.5,2.2,2.4c0.6,0.8,1.3,1.9,1.8,2.7c0.5,0.9,0.8,1.7,1.1,2.4c0.2,0.8,0.5,1.6,0.6,2.6c0.2,1,0.2,2,0.2,2.8
	c0,0.8-0.1,1.4-0.5,1.8c-0.4,0.4-1,0.6-1.9,0.6C39.2,55,38.2,55,37.1,55c-1,0-2.1,0.1-2.5,0c-0.4-0.2-0.2-0.5-0.2-1
	c0.2-0.6,0.2-1.4,0.3-2.3c0.1-0.8,0-1.4-0.1-2.1s-0.3-1.3-0.5-1.8c-0.2-0.4-0.2-0.6,0-0.6s0.8,0.2,1.4,0.6c0.6,0.4,1.1,1,1.7,1.6
	c0.6,0.5,1,0.9,1.4,1c0.4,0.1,0.6,0,0.8-0.4c0.2-0.4,0.2-1,0.1-1.6c-0.2-0.6-0.4-1-0.7-1.7c-0.3-0.6-0.7-1.3-1.3-1.9
	c-0.6-0.6-1.2-0.9-1.9-1c-0.6-0.2-1.4-0.2-2-0.2s-1.3,0-1.9-0.1c-0.6-0.1-1.2-0.3-2.1-0.6c-0.9-0.4-2.1-1-3.2-1.6
	c-1.1-0.6-2.2-1.3-3.1-1.9c-0.9-0.6-1.5-1.1-2-1.6c-0.6-0.5-1-0.9-1.4-1.6c-0.4-0.7-0.7-1.9-1-3c-0.2-1.2-0.4-2.4-0.6-4
	c-0.2-1.5-0.6-3.4-1-4.7c-0.4-1.3-0.7-2.1-1.3-2.7c-0.5-0.6-1-0.9-1.6-1c-0.6-0.2-1.1-0.1-1.8,0c-0.6,0.2-1.4,0.3-2.2,0.6
	c-0.8,0.3-1.7,0.6-2.4,1c-0.7,0.3-1.4,0.5-1.9,0.7c-0.6,0.2-1,0.4-1.3,0.4c-0.2,0-0.3-0.2-0.2-0.4c0.2-0.3,0.5-0.7,1.1-1.3
	c0.6-0.6,1.5-1.3,2.3-1.9c0.8-0.6,1.5-1.1,2.3-1.7c0.7-0.6,1.5-1.2,2.1-1.6c0.6-0.4,0.9-0.6,1-0.5c0.2,0.1,0,0.5,0.2,0.8
	c0.2,0.3,0.6,0.6,1,0.6c0.5,0,1-0.2,1.4-0.4c0.4-0.3,0.7-0.7,0.8-1.1c0.2-0.4,0.2-0.8,0-1.2c-0.2-0.3-0.6-0.6-0.9-0.6
	c-0.4-0.1-0.8-0.1-0.9-0.3c-0.1-0.2,0.1-0.6,0.3-1c0.2-0.5,0.4-1.2,0.6-1.9c0.2-0.6,0.3-1.4,0.7-1c0.4,0.3,1,1.6,1.4,2.2
	c0.3,0.6,0.3,0.5,0.5,0.2c0.2-0.2,0.6-0.6,1-1.4C20.2,10.1,20.9,9.1,21.1,9.1 M25.2,57.8c1.4,0,3.3,0,5.1-0.1c1.9,0,3.6,0,5.1,0
	c1.5,0,3-0.1,4.2-0.1c1.2,0,2.3,0,3-0.2c0.7-0.2,1-0.4,1.4-0.9c0.4-0.5,0.7-1.1,1.1-2.1c0.4-1,0.7-2.2,1.4-4.2
	c0.6-2,1.4-4.7,1.9-7.2c0.6-2.3,1-4.3,1.5-6.3c0.5-1.9,1-3.8,1.4-5.1c0.4-1.4,0.7-2.3,1.1-3.1c0.3-0.8,0.7-1.5,1.3-2.2
	c0.5-0.6,1.1-1.1,1.8-1.8c0.6-0.6,1.4-1.4,1.9-2.1c0.5-0.6,0.8-1.3,0.9-1.9c0.1-0.6,0.1-1.1-0.2-1.4c-0.2-0.3-0.5-0.4-0.6-0.2
	c-0.2,0.2-0.3,0.6-0.6,1.1c-0.2,0.5-0.6,1-1,1.6c-0.5,0.6-1,1.1-1.6,1.5c-0.6,0.4-1.2,0.7-1.6,0.9c-0.4,0.1-0.6,0-0.8-0.2
	s-0.2-0.6-0.1-1.2c0.1-0.5,0.2-1,0.4-1.4c0.2-0.4,0.5-0.7,0.7-1.2c0.2-0.4,0.3-0.9,0.2-1.2c-0.1-0.3-0.4-0.5-0.7-0.4
	c-0.3,0.1-0.6,0.3-1.1,1c-0.4,0.6-1,1.6-1.4,2.7c-0.4,1.1-0.7,2.3-1,3.7c-0.3,1.3-0.6,2.7-1,4.4c-0.3,1.7-0.8,3.8-1.2,5.9
	c-0.4,2.1-0.9,4.3-1.3,6c-0.4,1.7-0.6,2.7-0.9,3.5C44.4,46.6,44.2,47,44,47c-0.2,0.1-0.3-0.2-0.4-0.8c-0.1-0.5-0.2-1.2-0.6-2
	c-0.3-0.8-0.9-1.7-1.8-2.7c-0.8-1-1.9-2-3-3.2c-1.1-1.1-2.3-2.3-3.5-3.5s-2.1-2.1-3.2-3.3s-2.5-2.5-3.6-3.8c-1.1-1.3-2-2.4-2.7-3.5
	c-0.7-1-1.3-1.9-1.7-2.9c-0.4-1-0.6-1.9-0.6-3.1C23,17,23,15.6,23.1,14s0.3-3.3,0.4-4.6s0-2.2-0.2-3.2S22.9,4,22.6,3.3
	s-0.4-1.1-0.6-1.1c-0.2,0-0.4,0.4-0.6,1s-0.6,1.6-0.8,2.5c-0.2,0.9-0.6,1.6-0.7,2.2c-0.2,0.6-0.4,0.9-0.6,1C19.2,9.1,19,9,18.9,8.6
	c-0.2-0.4-0.5-1.2-0.8-2.1s-0.7-1.9-1-2.7s-0.6-1.4-0.9-1.2c-0.3,0.1-0.6,0.9-0.9,1.8c-0.2,0.9-0.3,1.9-0.5,2.9s-0.3,1.9-0.5,2.7
	c-0.2,0.9-0.5,1.8-1,2.5c-0.4,0.7-1,1.3-1.8,2c-0.8,0.6-1.8,1.4-2.8,2.3s-2.1,1.9-3.1,2.7c-0.9,0.9-1.7,1.7-2.3,2.3
	c-0.6,0.7-1,1.3-1.4,1.9c-0.3,0.6-0.6,1.2-0.7,1.7C1,26,1,26.3,1.2,26.5c0.2,0.2,0.6,0.2,1.2,0.2C3,26.5,3.6,26.2,4.4,26
	c0.8-0.3,1.7-0.6,2.8-1s2.4-0.9,3.5-1.3c1-0.4,1.9-0.6,2.4-0.7c0.6-0.1,0.9,0,1.2,0.3c0.3,0.3,0.6,1,1,2.1c0.3,1.1,0.6,2.6,0.9,4.2
	c0.2,1.6,0.5,3.2,0.6,5.1c0.2,1.9,0.3,4.3,0.3,6.1c0.1,1.9,0.1,3.4,0,4.8s-0.2,3-0.2,4.1c-0.1,1.2-0.2,2-0.5,2.6
	c-0.2,0.6-0.6,0.9-1,1.1c-0.4,0.2-0.8,0.3-1.4,0.2c-0.5-0.1-1.1-0.3-1.7-0.4c-0.6-0.1-1.3,0.1-1.8,0.3c-0.5,0.3-0.8,0.7-1,1.3
	c-0.2,0.6-0.2,1.2,0.1,1.7c0.2,0.5,0.6,0.7,1.2,0.9c0.6,0.2,1.5,0.1,2.7,0.1c1.2-0.1,2.7-0.2,3.7-0.6c1-0.5,1.4-1.4,1.9-2.6
	c0.5-1.1,0.9-2.5,1.2-3.9c0.2-1.4,0.4-2.8,0.4-4.1c0.1-1.3,0.1-2.5,0-3.5c0-1-0.1-1.9,0-2.4c0.1-0.4,0.2-0.4,0.8-0.1
	c0.5,0.3,1.4,0.9,2.5,1.5c1.1,0.6,2.5,1.4,3.5,1.9c1.1,0.6,1.9,0.9,2.6,1.5c0.6,0.6,1.2,1.6,1.5,2.5s0.5,1.7,0.6,2.5s0,1.7-0.2,2.2
	c-0.2,0.6-0.6,0.7-1.1,0.8c-0.5,0-1-0.2-1.5-0.4c-0.6-0.2-1.1-0.6-1.9-0.6c-0.6-0.2-1.4-0.1-2.2,0c-0.7,0.2-1.4,0.3-2.1,0.8
	c-0.6,0.4-1.1,1-1.4,1.5c-0.2,0.5-0.2,0.8-0.1,1.3c0.2,0.5,0.5,1,1,1.4C23.4,57.6,23.8,57.8,25.2,57.8z"/>
</svg>
