<?xml version="1.0" encoding="utf-8"?>
<!-- Generator: Adobe Illustrator 18.1.0, SVG Export Plug-In . SVG Version: 6.00 Build 0)  -->
<!DOCTYPE svg PUBLIC "-//W3C//DTD SVG 1.1//EN" "http://www.w3.org/Graphics/SVG/1.1/DTD/svg11.dtd" [
	<!ENTITY ns_extend "http://ns.adobe.com/Extensibility/1.0/">
	<!ENTITY ns_ai "http://ns.adobe.com/AdobeIllustrator/10.0/">
	<!ENTITY ns_graphs "http://ns.adobe.com/Graphs/1.0/">
	<!ENTITY ns_vars "http://ns.adobe.com/Variables/1.0/">
	<!ENTITY ns_imrep "http://ns.adobe.com/ImageReplacement/1.0/">
	<!ENTITY ns_sfw "http://ns.adobe.com/SaveForWeb/1.0/">
	<!ENTITY ns_custom "http://ns.adobe.com/GenericCustomNamespace/1.0/">
	<!ENTITY ns_adobe_xpath "http://ns.adobe.com/XPath/1.0/">
]>
<svg version="1.1" xmlns:x="&ns_extend;" xmlns:i="&ns_ai;" xmlns:graph="&ns_graphs;"
	 xmlns="http://www.w3.org/2000/svg" xmlns:xlink="http://www.w3.org/1999/xlink" x="0px" y="0px" viewBox="0 0 50 50"
	 enable-background="new 0 0 50 50" xml:space="preserve">
<metadata>
	<sfw  xmlns="&ns_sfw;">
		<slices></slices>
		<sliceSourceBounds  width="-32766" height="-32766" y="24274" x="8592" bottomLeftOrigin="true"></sliceSourceBounds>
	</sfw>
</metadata>
<g id="Layer_1" display="none">
	<g display="inline">
		<g>
			<g>
				<polygon fill="#F1C40F" points="1.6,24.7 0.1,22.5 8.3,16.2 11.8,20.1 22.2,10.7 25.6,16 34.4,7.8 37.3,13.1 46.1,6.7 47.6,8.8 
					36.4,17.1 33.7,12.1 25,20.1 21.6,14.8 11.6,23.9 7.9,19.7 				"/>
				<polygon fill="#F1C40F" points="49,13.3 46,12.9 46.6,7.9 40.9,7.5 41.2,4.5 49.9,5.2 				"/>
			</g>
		</g>
		<g>
			<g>
				<g>
					<g>
						<rect x="5.5" y="30.9" fill="#F1C40F" width="6.1" height="10"/>
						<rect x="13.7" y="28.2" fill="#F1C40F" width="6.1" height="12.8"/>
						<rect x="21.9" y="24.7" fill="#F1C40F" width="6.1" height="16.3"/>
						<rect x="30.2" y="21.2" fill="#F1C40F" width="6.1" height="19.7"/>
						<rect x="38.4" y="19" fill="#F1C40F" width="6.1" height="21.9"/>
					</g>
				</g>
			</g>
		</g>
	</g>
</g>
<g id="Layer_2">
	<g>
		<path fill="#F1C40F" d="M22.7,49.3c12.1,0,21.8-9.8,21.8-21.8c0-3.7-0.9-7.2-2.6-10.3c-0.2,0-0.4,0-0.5,0c-0.1,0-0.2,0-0.3,0
			L38.3,17l-2,2c1.5,2.5,2.4,5.3,2.4,8.4c0,8.9-7.2,16-16,16s-16-7.2-16-16s7.2-16,16-16c3.1,0,6,0.9,8.4,2.4l1.8-1.8l-0.2-3.2
			c0-0.3,0-0.5,0-0.8c-3-1.6-6.4-2.4-10-2.4c-12,0-21.8,9.8-21.8,21.8C0.8,39.5,10.6,49.3,22.7,49.3L22.7,49.3z M22.7,49.3"/>
		<path fill="#F1C40F" d="M22.7,21.8c0.1,0,0.3,0,0.4,0l4-4l0.1-0.1c-1.4-0.6-2.9-1-4.5-1c-5.9,0-10.7,4.8-10.7,10.7
			c0,5.9,4.8,10.7,10.7,10.7c5.9,0,10.7-4.8,10.7-10.7c0-1.6-0.4-3.2-1-4.5L32.3,23l-4,4c0,0.1,0,0.3,0,0.4c0,3.1-2.5,5.6-5.6,5.6
			c-3.1,0-5.6-2.5-5.6-5.6S19.5,21.8,22.7,21.8L22.7,21.8z M22.7,21.8"/>
		<path fill="#F1C40F" d="M45.2,8l1.3-1.3c0.6-0.6,0.6-1.5,0-2.1l-0.9-0.9c-0.3-0.3-0.7-0.4-1.1-0.4c-0.4,0-0.8,0.1-1.1,0.4
			l-1.5,1.5l-0.3-3.9c0-0.3-0.3-0.5-0.5-0.5c-0.1,0-0.3,0-0.4,0.1l-5.8,5.8c-0.5,0.5-0.8,1.3-0.7,2l0,0.2l0.3,3.7l-2.1,2.1l-3.8,3.8
			l-0.1,0.1l-3.7,3.7l-1.6,1.6c-0.2,0.2-0.3,0.5-0.4,0.8L22.7,26c-0.1,0.7,0.5,1.4,1.3,1.4h0.1l1.4-0.1c0.3,0,0.6-0.1,0.8-0.4
			l11.5-11.5l3.3,0.3l0.1,0c0.1,0,0.1,0,0.2,0c0.7,0,1.3-0.3,1.8-0.7L49,9.1c0.3-0.3,0.1-0.8-0.3-0.9L45.2,8z M45.2,8"/>
	</g>
</g>
<g id="Layer_3" display="none">
	<g display="inline">
		<path fill="#D64541" d="M48.9,23.9c-0.1-0.1-2.5-3.1-6.6-6.2c-5.5-4-11.5-6.2-17.3-6.2c-5.8,0-11.8,2.1-17.3,6.2
			c-4.1,3-6.5,6-6.6,6.2L0.1,25L1,26.1c0.1,0.1,2.5,3.1,6.6,6.2c5.5,4,11.5,6.2,17.3,6.2c5.8,0,11.8-2.1,17.3-6.2
			c4.1-3,6.5-6,6.6-6.2l0.9-1.1L48.9,23.9z M24.9,34.4c-5.2,0-9.4-4.2-9.4-9.4c0-0.8,0.1-1.6,0.3-2.4l-2.1-0.4
			c-0.2,0.9-0.3,1.8-0.3,2.7c0,3.4,1.4,6.4,3.7,8.5c-2.9-1.1-5.4-2.6-7.3-4c-2.3-1.7-4.1-3.4-5.1-4.5c1-1.1,2.7-2.8,5.1-4.5
			c1.9-1.4,4.4-2.9,7.3-4l1.4,1.6c1.7-1.6,3.9-2.5,6.4-2.5c5.2,0,9.4,4.2,9.4,9.4C34.3,30.2,30.1,34.4,24.9,34.4z M40.1,29.5
			c-1.9,1.4-4.4,2.9-7.3,4c2.3-2.1,3.7-5.1,3.7-8.5c0-3.4-1.4-6.4-3.7-8.5c2.9,1.1,5.4,2.6,7.3,4c2.3,1.7,4.1,3.4,5.1,4.5
			C44.2,26.1,42.4,27.8,40.1,29.5z"/>
		<path fill="#D64541" d="M18.9,23.2c-0.2,0.6-0.3,1.2-0.3,1.8c0,3.5,2.8,6.3,6.3,6.3c3.5,0,6.3-2.8,6.3-6.3s-2.8-6.3-6.3-6.3
			c-1.7,0-3.2,0.7-4.3,1.7l3.1,3.5L18.9,23.2z"/>
	</g>
</g>
<g id="Layer_4" display="none">
	<g display="inline">
		<path fill="#D64541" d="M28.4,14.9c0,0-0.2,0.4,0.5,0.7l1.7,1c0,0,0.5,0.3,0.6,1.1c0,0,0.2,1-0.2,1.3l-2.3,1.5
			c0,0-0.4,0.2-0.3,0.8l0.9,2.1c0,0,0.4,0.5,0.8,0.2l1.9-0.5c0,0,0.7-0.3,1.4,0.4c0,0,0.8,0.6,0.6,1.3L33.7,27c0,0-0.2,0.5,0.5,0.8
			l1.9,0.8c0,0,0.6,0.1,0.8-0.3l1-1.9c0,0,0.2-0.6,1-0.6c0,0,1.1-0.3,1.6,0.4l1.2,2c0,0,0.2,0.5,0.9,0.3l1.8-0.8c0,0,0.6-0.3,0.4-1
			l-0.6-2.1c0,0-0.2-0.5,0.5-1.2c0,0,0.7-0.9,1.4-0.6l2.1,0.5c0,0,0.6,0.2,0.9-0.4l0.7-1.8c0,0,0.3-0.7-0.4-1l-2-1
			c0,0-0.5-0.5-0.5-1.2c0,0,0-1.1,0.6-1.3l1.9-1.2c0,0,0.5-0.4,0.4-0.9l-1-2.2c0,0-0.3-0.4-0.7-0.2l-2.5,0.7c0,0-0.8-0.1-1.2-0.8
			c0,0-0.5-0.6-0.5-0.9c0,0,0.6-2.4,0.6-2.5c0,0,0.2-0.5-0.3-0.7l-2-0.8c0,0-0.5-0.1-0.7,0.2l-1.4,2.4c0,0-0.6,0.4-1.2,0.3
			c0,0-1-0.2-1.3-0.5l-1.2-2c0,0-0.3-0.6-0.9-0.4l-2,0.9c0,0-0.4,0.2-0.3,0.7l0.7,2.4c0,0,0.3,0.7-0.7,1.4c0,0-0.6,0.7-1.6,0.4
			c-1-0.3-1.9-0.5-1.9-0.5s-0.5-0.2-0.7,0.3C28.9,13.3,28.4,14.9,28.4,14.9z M35.8,16.4c0.8-1.9,2.9-2.8,4.8-2.1
			c1.9,0.8,2.8,2.9,2.1,4.8c-0.8,1.9-2.9,2.8-4.8,2.1C35.9,20.5,35,18.3,35.8,16.4z"/>
		<path fill="#D64541" d="M0.4,30c0,0,0,0.6,1,0.6l2.8,0.3c0,0,0.8,0.1,1.3,1.1c0,0,0.8,1.2,0.5,1.7l-2.1,3.2c0,0-0.5,0.5,0.1,1.2
			l2.4,2.2c0,0,0.7,0.4,1.2-0.2l2.1-1.7c0,0,0.8-0.8,2.1-0.2c0,0,1.4,0.4,1.5,1.3l0.5,3.3c0,0,0,0.8,1,0.7l2.9-0.1
			c0,0,0.9-0.2,0.9-0.9l0.3-3c0,0-0.1-0.9,1-1.4c0,0,1.3-1,2.2-0.3l2.7,1.9c0,0,0.5,0.5,1.4-0.1l1.9-2c0,0,0.6-0.7,0-1.4l-1.9-2.4
			c0,0-0.6-0.6,0-1.8c0,0,0.4-1.5,1.4-1.6l3-0.5c0,0,0.9,0,0.9-1l-0.1-2.7c0,0,0-1-1.1-1.1l-3.1-0.2c0,0-1-0.4-1.3-1.3
			c0,0-0.6-1.4,0-2l1.8-2.5c0,0,0.5-0.7,0-1.3l-2.4-2.2c0,0-0.6-0.3-1,0.1l-2.8,2.2c0,0-1,0.3-2-0.3c0,0-1-0.5-1.2-0.9
			c0,0-0.5-3.4-0.6-3.6c0,0-0.1-0.8-0.8-0.8l-3.1,0.1c0,0-0.7,0.1-0.7,0.6l-0.5,3.9c0,0-0.5,0.8-1.3,1c0,0-1.4,0.4-1.9,0.1L6.8,16
			c0,0-0.7-0.6-1.3,0l-2.1,2.2c0,0-0.4,0.5,0,1L5.5,22c0,0,0.7,0.8-0.2,2.2c0,0-0.4,1.2-1.8,1.4C2.2,25.7,0.9,26,0.9,26
			S0.2,26,0.2,26.8C0.2,27.6,0.4,30,0.4,30z M9.9,27.9c-0.1-3.3,2.5-6,5.8-6c3.3-0.1,6,2.5,6,5.8c0.1,3.3-2.5,6-5.8,6
			C12.7,33.8,10,31.2,9.9,27.9z"/>
	</g>
</g>
</svg>
