<?xml version="1.0" encoding="utf-8"?>
<!-- Generator: Adobe Illustrator 18.1.0, SVG Export Plug-In . SVG Version: 6.00 Build 0)  -->
<!DOCTYPE svg PUBLIC "-//W3C//DTD SVG 1.1//EN" "http://www.w3.org/Graphics/SVG/1.1/DTD/svg11.dtd">
<svg version="1.1" xmlns="http://www.w3.org/2000/svg" xmlns:xlink="http://www.w3.org/1999/xlink" x="0px" y="0px"
	 viewBox="0 0 701.9 206.5" style="enable-background:new 0 0 701.9 206.5;" xml:space="preserve">
<g id="a" style="display:none;">
	<g style="display:inline;">
		<path style="fill-rule:evenodd;clip-rule:evenodd;fill:#F7CA18;" d="M581.3,45.8l0.2,2.2l0.2,12l-0.1,5.5
			c0.2,3.4-2.4,12.3-0.1,17.9c2,5.1,9.5,4.6,15.2,3.8c4-0.5,8.3-5.9,10.1-9.1c6.4-11.3,4-5.7,9-10.5c-0.7-4.8-3.6-5.8-6.9-8.3
			c0.7-2.7,1.6-1.5,2.4-5.4c0.5-2.4,0.8-3.5,2.3-4.8c2.4-2.1,8.5-2.1,12.7-1.5c3.1,1.8-0.2,4.9,5.1,11.9c5.1,0,9.8-0.9,15.6-0.6
			c12,0.7,11.5,12,8.7,19.1c-2.1,5.2-4.2,4.1-2.3,11.4c1.4,5.4,1.5,8.3,2,14.1c0.9,10.8,0.9,5.5,2.1,9.3l2.1,9.4
			c-0.2,3.7-1.2,2,0.9,5.9c1.5,2.7,4.5,6.9,4.9,10.7c-2.8-0.6-2.9-2.6-4.3-5.2c-1-1.8-2.6-4.4-3.3-6.1c-1.3-2.9-1.5-11.9-3.2-15
			c-0.1,0-0.3,0.1-0.3,0.1c-0.1,0-0.3,0.1-0.3,0.1c-3.6,1.6-1.3,4.6-4.1,7.3c-1.2-0.5-0.7-0.2-1.4-1.3c-0.1-0.1-0.4-0.6-0.4-0.8
			l-0.4-0.8c-0.5,9.5,0.9,18.8,0.8,20.3l-2.5,0.3l-2.3-19.1c-1,0.2-1.2-0.6-1.2,3.6c0,4.3-0.2,9.6,0.6,13.6
			c1.1,5.7,1.4,11.2,1.4,17.3c0,6.8,1.1,10.7,1.7,17c0.5,5.6-0.1,12.2,0.6,17.6c7.3,1,14.6-0.6,22-0.3v11.9H558.2v-7.3
			c8.6,1.1,12.5-0.4,20.8-0.3c1.2-0.9,0.6,1.5,1.3-1.7c0-7.8,0.2-15.9-0.1-23.7c-0.1-3.9-0.5-7.8-0.6-11.6
			c-0.1-3.7,0.5-7.7,0.6-11.6c0.1-7.6,0-15.5-0.1-23.1l-1-22.8c-0.5-3.5-0.1-3.2-1.6-6.5c-1.3-2.9-0.5-3.7,0.5-6.1
			c0.7-1.7,0.7-12.5,0.4-15l0.3-0.7c0-0.1,0.1-0.3,0.1-0.4l0.6-7c1.9-4.8-1.1-18.8,0.7-23.1L581.3,45.8z"/>
		<path style="fill-rule:evenodd;clip-rule:evenodd;fill:#FFFFFF;" d="M596.8,180.9c-0.5-3.1-2.3-3.8-2.3-6.9c0.1-3.9,1.3-2-0.7-6.4
			c-1.3-2.8,0.1-3-0.3-6.9c-0.1,0-0.3-0.2-0.3-0.1c0,0-1.2,0.5-1.7-2.4c-0.2-1.3-0.2-2.3-0.7-4.1c-1.1-3.6-1.6-4.8-1.9-8.5
			c-0.1,0.1-0.2,0.2-0.2,0.4l-1.1,3.8c-0.3,1.7-0.7,2.9-1.1,4.2c-0.9,2.8-0.4,1.8-0.7,3.8c-0.3,1.7-0.6,1.6-0.7,4.2
			c-1.2-3-1.2-0.1-2.1-5.9c-0.6-3.9-0.2-65.5-0.1-68.1l2.9,0.6c2.1,4,2.3,3.5,12.2,3.3c5.9-0.1,7.4-2,10.4-3.4l1.3-0.3
			c0.5,1.2,2.4,9.8,2.5,11.2c0.2,3.2-2.3,6.1-2.5,10.8c-0.3,11.2,5.9,1.5-0.2,21.8c-3.1,10.2-4.5,12.5-4.1,23.7
			c0.2,4.5,1.9,7,2.4,11.5c0.5,4.4,1.2,7.8,2.3,11.4c-2.3,0.1-5.4-0.1-7.2,0.3L596.8,180.9z"/>
		<path style="fill-rule:evenodd;clip-rule:evenodd;fill:#FFFFFF;" d="M626.5,187.4c-0.9-8.1-2.1-9.3-2.4-12.9
			c-0.3-3.4-0.9-4.2-1.4-6.9c-0.5-2.6-0.2-5-0.7-7.4c-1.1-5.4,0.3-7.5,1.9-12.5c1.1-3.4,2.2-9.1,4.4-11.5c2.8,1.3,2.8,9.4,4,13.2
			c1.6,5.5-2.9,5-0.6,15c2.9,12.7-0.8,6.9,3,14.2C637.3,183.5,630.4,186.5,626.5,187.4z"/>
		<path style="fill-rule:evenodd;clip-rule:evenodd;fill:#F1F2F3;" d="M616.2,96.2c-0.7,1.3-0.7,1.4-1.7,2.4
			c-2.9-2.3-2.4-7-2.7-11.7c2.9,2.5,0.6,0,2.3,4.8C614.6,93.2,615.4,94.8,616.2,96.2z"/>
	</g>
	<g style="display:inline;">
		<defs>
			<rect id="SVGID_1_" x="628.1" width="79.8" height="206.5"/>
		</defs>
		<clipPath id="SVGID_2_">
			<use xlink:href="#SVGID_1_"  style="overflow:visible;"/>
		</clipPath>
		<g style="clip-path:url(#SVGID_2_);">
			<path style="fill-rule:evenodd;clip-rule:evenodd;fill:#F4AF00;" d="M581.8,45.4l0.2,2.2l0.2,12l-0.1,5.5
				c0.2,3.4-2.4,12.3-0.1,17.9c2,5.1,9.5,4.6,15.2,3.8c4-0.5,8.3-5.9,10.1-9.1c6.4-11.3,4-5.7,9-10.5c-0.7-4.8-3.6-5.8-6.9-8.3
				c0.7-2.7,1.6-1.5,2.4-5.4c0.5-2.4,0.8-3.5,2.3-4.8c2.4-2.1,8.5-2.1,12.7-1.5c3.1,1.8-0.2,4.9,5.1,11.9c5.1,0,9.8-0.9,15.6-0.6
				c12,0.7,11.5,12,8.7,19.1c-2.1,5.2-4.2,4.1-2.3,11.4c1.4,5.4,1.5,8.3,2,14.1c0.9,10.8,0.9,5.5,2.1,9.3l2.1,9.4
				c-0.2,3.7-1.2,2,0.9,5.9c1.5,2.7,4.5,6.9,4.9,10.7c-2.8-0.6-2.9-2.6-4.3-5.2c-1-1.8-2.6-4.4-3.3-6.1c-1.3-2.9-1.5-11.9-3.2-15
				c-0.1,0-0.3,0.1-0.3,0.1c-0.1,0-0.3,0.1-0.3,0.1c-3.6,1.6-1.3,4.6-4.1,7.3c-1.2-0.5-0.7-0.2-1.4-1.3c-0.1-0.1-0.4-0.6-0.4-0.8
				l-0.4-0.8c-0.5,9.5,0.9,18.8,0.8,20.3l-2.5,0.3l-2.3-19.1c-1,0.2-1.2-0.6-1.2,3.6c0,4.3-0.2,9.6,0.6,13.6
				c1.1,5.7,1.4,11.2,1.4,17.3c0,6.8,1.1,10.7,1.7,17c0.5,5.6-0.1,12.2,0.6,17.6c7.3,1,14.6-0.6,22-0.3v11.9H558.7v-7.3
				c8.6,1.1,12.5-0.4,20.8-0.3c1.2-0.9,0.6,1.5,1.3-1.7c0-7.8,0.2-15.9-0.1-23.7c-0.1-3.9-0.5-7.8-0.6-11.6
				c-0.1-3.7,0.5-7.7,0.6-11.6c0.1-7.6,0-15.5-0.1-23.1l-1-22.8c-0.5-3.5-0.1-3.2-1.6-6.5c-1.3-2.9-0.5-3.7,0.5-6.1
				c0.7-1.7,0.7-12.5,0.4-15l0.3-0.7c0-0.1,0.1-0.3,0.1-0.4l0.6-7c1.9-4.8-1.1-18.8,0.7-23.1L581.8,45.4z"/>
			<path style="fill-rule:evenodd;clip-rule:evenodd;fill:#FFFFFF;" d="M597.3,180.5c-0.5-3.1-2.3-3.8-2.3-6.9
				c0.1-3.9,1.3-2-0.7-6.4c-1.3-2.8,0.1-3-0.3-6.9c-0.1,0-0.3-0.2-0.3-0.1c0,0-1.2,0.5-1.7-2.4c-0.2-1.3-0.2-2.3-0.7-4.1
				c-1.1-3.6-1.6-4.8-1.9-8.5c-0.1,0.1-0.2,0.2-0.2,0.4l-1.1,3.8c-0.3,1.7-0.7,2.9-1.1,4.2c-0.9,2.8-0.4,1.8-0.7,3.8
				c-0.3,1.7-0.6,1.6-0.7,4.2c-1.2-3-1.2-0.1-2.1-5.9c-0.6-3.9-0.2-65.5-0.1-68.1l2.9,0.6c2.1,4,2.3,3.5,12.2,3.3
				c5.9-0.1,7.4-2,10.4-3.4l1.3-0.3c0.5,1.2,2.4,9.8,2.5,11.2c0.2,3.2-2.3,6.1-2.5,10.8c-0.3,11.2,5.9,1.5-0.2,21.8
				c-3.1,10.2-4.5,12.5-4.1,23.7c0.2,4.5,1.9,7,2.4,11.5c0.5,4.4,1.2,7.8,2.3,11.4c-2.3,0.1-5.4-0.1-7.2,0.3L597.3,180.5z"/>
			<path style="fill-rule:evenodd;clip-rule:evenodd;fill:#FFFFFF;" d="M627,187c-0.9-8.1-2.1-9.3-2.4-12.9
				c-0.3-3.4-0.9-4.2-1.4-6.9c-0.5-2.6-0.2-5-0.7-7.4c-1.1-5.4,0.3-7.5,1.9-12.5c1.1-3.4,2.2-9.1,4.4-11.5c2.8,1.3,2.8,9.4,4,13.2
				c1.6,5.5-2.9,5-0.6,15c2.9,12.7-0.8,6.9,3,14.2C637.8,183.1,630.9,186.1,627,187z"/>
			<path style="fill-rule:evenodd;clip-rule:evenodd;fill:#F1F2F3;" d="M616.8,95.7c-0.7,1.3-0.7,1.4-1.7,2.4
				c-2.9-2.3-2.4-7-2.7-11.7c2.9,2.5,0.6,0,2.3,4.8C615.2,92.8,615.9,94.4,616.8,95.7z"/>
		</g>
	</g>
</g>
<g id="b">
	<rect style="display:none;fill:#D64541;" width="701.9" height="206.5"/>
	<g>
		<path style="fill:#E6E7E8;" d="M103.4,5C49.1,5,5,49,5,103.3s44.1,98.3,98.4,98.3c0.1,0,0.2,0,0.4,0V5C103.6,5,103.5,5,103.4,5z"
			/>
		<path style="fill:#FFFFFF;" d="M201.8,103.3c0-54.2-43.9-98.1-98.1-98.3v196.6C158,201.5,201.8,157.5,201.8,103.3z"/>
		<path style="fill:#F1C40F;" d="M195.4,67.7l-5.1,0.1l-2.6-2.8l-0.5-4.5l-2.6,1.4l-1.4,5.6l-3.8-4.1l-0.2-3.8l-3.7-3.2l-1.4-1.3
			h-4.3l1.4,3.8l5.1,2.9l0.9,0.9l-1.1,0.6l0,3l-2.5,1l-2.1-0.5l-1.3-1.9l3.5,0.2l0.9-1.3l-7.7-5.2l-0.6-2.2l-3.1,2.8l-3.2-0.7
			l-4.8,6.3l-0.9,2.5l-3.1,0.3l-4.6,0l-2.7-1.3l-0.8-5.4l1-2.6l4.6-1l5.1,1l0.6-2.8l-2.1-0.5l0.7-4.4l5.1-0.8l3.6-5l3.7-0.6l3.3,0.5
			h1.2l-0.7-4.7l-4,1.6l-1.4-3.5l-2.3-0.3l-0.4-2.4l1.9-2.1l4.5-1.8l1.2-2.1c-17.3-15.3-40-24.6-64.8-24.6v17.7l1.9,0.8v3.5l3,0.7
			l-1.5,2.8h-3.4v12.8l2,1.2l-0.2,3.4l-1.9,0.6v2.4l2.9,1.3l-0.1,2.4l-1.3,0.1c0,0,0-0.1,0-0.1l-1.5-0.5v66l2.5,0.9l8.7,0.1l2.5,4.2
			l3.8,1.2l-0.7,3.4l-4.2,5.4l-1.2,11.9l-3.8,3l-5.7-0.2l-1.9,3.3v0l1.4,6.1l-1.4,1.8v40.4c30.7-0.1,58.1-14.3,76.2-36.4h-3.2v-6.5
			l-3.8-5.1v-7.9l-2.9-2.9l-0.2-3.3l3.6-7l-6.9-12.2l0.8-8.3l-6.2-0.6l-2.3-2.3h-4.2l-2.1,2h-7.4l-0.2,0.7h-4.1l-9.4-10.7l0.1-8.4
			l1.6-0.6l0.6-3.2h-2.2l-0.9-3.4l10.9-7.9v-5.6l5.3-3l2.2,0.2h4.4l3.4-1.8l11.1-0.9v5.6l8.7,2.2l1.7,1.2h1.6v-3.1l5-0.5l4.8,3.6
			h7.9l0.6-0.5C197.3,72.8,196.4,70.2,195.4,67.7z M148.9,39.7l0.9-1.4l3.2-0.7l0.8,3.9l1.7,2.8l1.1,1.3l2.1,0.8l-2,2.3l-3.8,0.4
			h-2.9l0.3-3.4l2.4-0.5l-0.2-1.6l-2.2-1.4l-1.6-1.1V39.7z M143.5,45.8l2-3.2l2.7-0.6l1.9,0.8l-0.2,2.1l-4,2.9h-2.3V45.8z"/>
		<polygon style="fill:#004346;" points="103.8,153.4 103.8,153.4 103.8,153.4 		"/>
		<path style="fill:#F4AF00;" d="M99,167.4l-2,3.6l-5.9,2.8l-3.9,0.6l-0.2,1.6l2.7,0.8l-0.3,1.8l-2.4,2.3l1.5,1.8l2.9,0.1l-0.2,2.2
			l-0.8,2.2l-0.3,1.8l4.3,3.6l-0.6,1.9l-5.9-0.1l-5.8-5.1l-4.5-8l0.6-7.7l-3.4-4.6l1.4-7.8l-2-0.6v-16.9c0,0-5.7-4.3-6.1-4.3
			c-0.3,0-3-0.7-3-0.7l-0.6-3.2l-7.4-9.3l0.7-3.4l0.2-5.5l5.2-3.6l-0.7-6.1l-7.5-0.6l-5.9-6.7l-4.2-1.1l-2.7-0.5l0.3-2.5l-3.4-0.5
			v1.4l-8.6-2.1l-3.5-5.3l1.4-2.6l-5.4-7.9l-0.9-5.8H20l0.7,5.6l3.8,5.8l-0.4,2.3l-3.2-0.5L17,80.1v-7.8l-4.1-2v-5.6
			C7.9,76.5,5,89.6,5,103.2c0,54.3,44.2,98.5,98.5,98.5c0.1,0,0.1,0,0.2,0v-40.4L99,167.4z"/>
		<path style="fill:#F4AF00;" d="M99.8,52.9l-0.2-1.8h0l1.6-1.1v-1.6l-1.7-0.4L99,49.5L96,50l-0.3-0.1v0.2l-1,0.2l-0.9-1.7l-1-0.4
			h-2.1l-1,0.8v1.8l1.8,0.6l1.8,0.3l-0.4,0.2l-1.7,1.8l-0.7-0.9l-1.6-0.4l-4.4,4.1l0.6,0.5l-6.4,3.6l-6.1,6.3l-0.4,2.8l-6.1,4l-3,3
			l0.3,6.1l-4.2-1.9l0-3.5l-11.6,0l-6,3l-2.6,4.8l-1,3.8l1.7,3.7l4.7,0.6l7.5-5l0.7,2.5l-2.3,4.3l5.7,1l0.6,8.9l7.9,1.3l5-5.8
			l6.1,1.2l2.1,3l5.8-0.3l0.2-1.7l3.2,1.6l3.6,5.6l6.2,0.1l2.3,4l0.3,4.9l4.4,1.7v-66L99.8,52.9z M90,57.9l-2,0.2l0.1-1.4l0.9-1.1
			l1.2,1L90,57.9z M97.2,55.4l-1.4,0.1l-0.3,1.4l-1.1,0.7l-1.7,0.1c-0.1-0.4-0.1-0.7-0.1-0.7H92v-1.5h2.8l0.6-1.5l1.1,0l1.3,0.3
			L97.2,55.4z"/>
		<path style="fill:#F4AF00;" d="M103.5,4.8c-21.6,0-41.6,7-57.9,18.9l5,0l2.2,1.2l4.2,0.9l0.3,1.6l6.6,0.2l-0.9-2.1l-5.9-0.2
			l1.4-1.3l-0.5-1.6h-5.3l5.8-4.3h5.6l2.6,3.6l4.3,0.2l2.6-2.5l2,1l-3.6,3.5c0,0-5,0.1-4.7,0.1c0.2,0,0.4,3.4,0.4,3.4l6-0.2l0.7-1.6
			l4.2-0.2l0.5-2.5l-2.5-0.4l0.8-2.2l1.9-0.6l6.5,0.3l-3.6,3.3l0.6,2.5l3.8,0.6l-0.2-4.6L90,20l6.4-0.7l7.4,3.3V4.8
			C103.7,4.8,103.6,4.8,103.5,4.8z"/>
		<polygon style="fill:#F4AF00;" points="102.9,30.4 101.7,33.6 92.2,31.3 99.7,27.3 96.8,24.9 90.3,25.7 89.8,26.3 89.8,26.3 
			89.6,26.4 87.8,28.3 84.7,28.6 85,30.1 86,30.6 86,31.1 83.5,31.4 83.3,32.9 80.9,33 80.5,30.1 76.2,31.4 67.4,36.6 68.4,40.2 
			70.8,41.8 75.8,42.5 75.8,48.1 78,47.7 80.1,43.3 85.3,41.7 85.3,35 88.2,32.8 95.3,34.5 94.8,38.9 96.6,38.9 101.8,36.3 
			102,42.2 103.8,43.2 103.8,30.4 		"/>
		<polygon style="fill:#F4AF00;" points="102,49.1 102.3,50.2 103.8,50.9 103.8,48.5 		"/>
	</g>
	<g style="display:none;">
		
			<rect x="274.4" y="16.1" transform="matrix(0.7117 -0.7025 0.7025 0.7117 69.5331 205.2894)" style="display:inline;fill:#C0392B;" width="21" height="3.6"/>
		
			<rect x="285.6" y="10" transform="matrix(0.7025 0.7117 -0.7117 0.7025 100.1004 -198.4332)" style="display:inline;fill:#D64541;" width="3.7" height="21"/>
		<path style="display:inline;fill:#E1A916;" d="M273.7,31.2c-0.1-0.1-0.1-0.2-0.2-0.2l-0.1-0.1c0,0,0,0,0,0
			c-1.2-0.6-2.5-0.5-3.4-0.3c-2.8,0.6-5,3.1-5,5.9l0,0c0,0.2,0,0.5,0,0.7c0,0.3,0.3,0.5,0.6,0.5c0.3,0,0.6-0.2,0.6-0.5
			c0-0.2,0.2-0.3,0.4-0.4c0.1,0,0.2,0,0.2,0c0.1,0.1,0.1,0.2,0.1,0.2c0,0.3-0.8,0.7-1.3,1c-0.3,0.2-0.6,0.4-0.9,0.6
			c-0.9,0.7-1.4,1.6-1.4,2.8c0,0,0,0.1,0,0.1c0,0.1,0,0.2,0.1,0.2l10.5-10.4C273.8,31.3,273.7,31.3,273.7,31.2z"/>
		<path style="display:inline;fill:#FCBB14;" d="M273.6,37.5c0.6-1,0.9-2.1,0.9-3.3c0-1-0.2-2-0.7-2.9l-10.5,10.4
			c0.1,0.2,0.2,0.3,0.4,0.3c0.3,0.1,0.5,0,0.7-0.2c0.5-0.8,1.6-0.9,2.7-0.9c0.4,0,0.7-0.1,1.1-0.1C270,40.5,272.2,39.9,273.6,37.5z"
			/>
		<path style="display:inline;fill:#C0392B;" d="M266.9,19.9c-1.4,0.4-2.6,1.1-3.6,2.1l-0.4,0.4l6.3,6.4l1.7-1.7l3.6,3.6l1.6-1.6
			L266.9,19.9z"/>
		<path style="display:inline;fill:#D64541;" d="M285.3,38.5C285.3,38.5,285.3,38.5,285.3,38.5l-9.2-9.3l-1.6,1.6l3.7,3.7l-1.7,1.7
			l6.3,6.4l0.4-0.4C284.2,41.1,284.9,39.8,285.3,38.5z"/>
		<path style="display:inline;fill:#F2F2F2;" d="M285.6,36.2c0-2-0.7-4-2-5.5l10-10.1c1.6-1.6,3.4-5.2,3.5-8.1c0-1.3-0.3-2.3-1-3
			l-3.3,3.2c0.5,0.5,0.8,1.2,0.8,2c0,1.5-1.3,2.8-2.8,2.8c-0.8,0-1.5-0.3-2-0.8l-0.4,0.4c0.5,0.5,0.8,1.2,0.8,2
			c0,1.5-1.3,2.8-2.8,2.8c-0.8,0-1.5-0.3-2-0.8l-0.4,0.4c0.5,0.5,0.8,1.2,0.8,2c0,1.5-1.3,2.8-2.8,2.8c-0.8,0-1.5-0.3-2-0.8
			l-3.2,3.2l8.8,8.8C285.6,36.9,285.6,36.6,285.6,36.2z"/>
		<path style="display:inline;fill:#E6E6E6;" d="M279.2,23.2c0-1.5,1.3-2.8,2.8-2.8c0.8,0,1.5,0.3,2,0.8l0.4-0.4
			c-0.5-0.5-0.8-1.2-0.8-2c0-1.5,1.3-2.8,2.8-2.8c0.8,0,1.5,0.3,2,0.8l0.4-0.4c-0.5-0.5-0.8-1.2-0.8-2c0-1.5,1.3-2.8,2.8-2.8
			c0.8,0,1.5,0.3,2,0.8l3.3-3.2c0,0,0,0,0,0c-2.5-2.6-8.9,0-11.2,2.3l-10.1,10c-1.5-1.3-3.4-2-5.4-2.1c-0.4,0-0.7,0-1.1,0.1l8.7,8.8
			l3.2-3.2C279.5,24.7,279.2,24,279.2,23.2z"/>
		<path style="display:inline;fill:#C0392B;" d="M262.3,41.5c0-1.3,0.9-2.3,1.6-3.3c0.1-0.2,0.2-0.4,0.1-0.5c0.2-3.1,0.9-6.1,4-7.3
			c0.8-0.3,0.5-1.6-0.3-1.3c-1.7,0.7-3,1.7-3.9,3.4c-0.8,1.6-1,3.5-1.1,5.2c-0.9,1.2-1.7,2.3-1.7,3.9
			C261,42.3,262.3,42.3,262.3,41.5z"/>
		<path style="display:inline;fill:#D64541;" d="M275.9,37c0.3-0.8-1-1.2-1.3-0.4c-0.5,1.3-1.1,2.5-2.2,3.4c-1,0.9-2.4,1.3-3.8,1.6
			c-0.8,0.2-0.5,1.5,0.3,1.3c1.6-0.4,3.1-0.9,4.3-1.9C274.6,40,275.4,38.5,275.9,37z"/>
	</g>
	<g style="display:none;">
		<circle style="display:inline;fill:#E6E7E8;" cx="303.3" cy="73.9" r="2.2"/>
		<circle style="display:inline;fill:#E6E7E8;" cx="291" cy="65.3" r="1.1"/>
		<circle style="display:inline;fill:#E6E7E8;" cx="292.9" cy="63.2" r="1.1"/>
		<circle style="display:inline;fill:#E6E7E8;" cx="299.3" cy="55.4" r="1.1"/>
		<circle style="display:inline;fill:#E6E7E8;" cx="301.1" cy="53.2" r="1.1"/>
		<circle style="display:inline;fill:#E6E7E8;" cx="311.7" cy="63.7" r="2.2"/>
		<path style="display:inline;fill:#F4AF00;" d="M290.3,62.9c-1,1.2-1,4.2-1,4.2l1.2,1l6.7-8l-2.7-2.3
			C292.7,60,290.9,62.3,290.3,62.9z M291.6,65.9c-0.3,0.3-0.8,0.4-1.2,0.1c-0.3-0.3-0.4-0.8-0.1-1.2c0.3-0.3,0.8-0.4,1.2-0.1
			C291.9,65,291.9,65.5,291.6,65.9z M293.4,63.8c-0.3,0.3-0.8,0.4-1.2,0.1c-0.3-0.3-0.4-0.8-0.1-1.2c0.3-0.3,0.8-0.4,1.2-0.1
			C293.6,62.9,293.7,63.4,293.4,63.8z"/>
		<path style="display:inline;fill:#F1C40F;" d="M302.7,51.1c0,0-2.9,0.4-4.1,1.9c-0.6,0.7-2.3,2.7-4,4.8l2.7,2.3l6.6-7.9
			L302.7,51.1z M300,55.9c-0.3,0.3-0.8,0.4-1.2,0.1c-0.3-0.3-0.4-0.8-0.1-1.2c0.3-0.3,0.8-0.4,1.2-0.1C300.3,55,300.3,55.5,300,55.9
			z M301.8,53.8c-0.3,0.3-0.8,0.4-1.2,0.1c-0.3-0.3-0.4-0.8-0.1-1.2c0.3-0.3,0.8-0.4,1.2-0.1C302,52.9,302.1,53.4,301.8,53.8z"/>
		<path style="display:inline;fill:#F4AF00;" d="M310.7,71.7l-6.7,7.9c-0.4,0.4-0.3,0.7,0.1,1c0.3,0.3,0.7,0.1,1-0.2
			c0.3-0.3,0.7-0.3,1-0.1l1.1,0.9c0.4,0.3,1,0.3,1.3-0.1l1.8-2.2c0.2-0.2,0.2-0.4,0.2-0.7c0-0.2-0.1-0.5-0.3-0.6
			c-0.3-0.3-0.7-0.6-0.8-0.7c-0.4-0.3-0.5-1-0.1-1.4l2.7-3.2l-1.1-0.9L310.7,71.7z"/>
		<path style="display:inline;fill:#F1C40F;" d="M317.7,63.5l-6.7,7.9l-0.1,0.1l1.1,0.9l0,0l0,0l0,0l2.6-3.1c0.4-0.4,1-0.5,1.4-0.1
			c0.1,0.1,0.5,0.4,0.8,0.7c0.2,0.2,0.4,0.2,0.7,0.2c0.2,0,0.5-0.1,0.6-0.3l1.8-2.2c0.3-0.4,0.3-1-0.1-1.3l-1.1-0.9
			c-0.3-0.3-0.3-0.7-0.1-1c0.3-0.3,0.4-0.7,0-1C318.4,63,318.1,63,317.7,63.5z"/>
		
			<rect x="303.7" y="67.9" transform="matrix(-0.7664 -0.6424 0.6424 -0.7664 495.5327 319.9846)" style="display:inline;fill:#E6E7E8;" width="4.4" height="4"/>
		
			<rect x="306.6" y="64.8" transform="matrix(0.6423 -0.7664 0.7664 0.6423 58.8943 260.2902)" style="display:inline;fill:#FFFFFF;" width="3.5" height="4.4"/>
		<polygon style="display:inline;fill:#E6E7E8;" points="299.3,62.4 299.3,62.4 298.4,63.6 299,64.2 300,63 300,63 300.4,62.6 
			299.7,62 		"/>
		<polygon style="display:inline;fill:#E6E7E8;" points="300,61.7 300,61.7 299.7,62 300.4,62.6 300.7,62.2 300.7,62.2 301.8,60.9 
			301.1,60.3 		"/>
		<path style="display:inline;fill:#F1C40F;" d="M313.2,58.4c-0.6-0.5-1.4,0.2-1.9-0.2c-0.5-0.4-6.8-5.7-6.8-5.7l0,0l-6.6,8l1.8,1.5
			l0.3-0.4l-1.2-1l5.1-6.1l4.8,4l-5.1,6.1l-2.9-2.4l-0.3,0.4l5.6,4.7l2.1-2.5l0.5,0.4l-2.1,2.5l0.5,0.4l2.1-2.5l0.5,0.4l-2.1,2.5
			l0.4,0.4l2.1-2.5l0.5,0.4l-2.1,2.5l2,1.6l7.3-8.8C317.7,62.2,313.7,58.9,313.2,58.4z M312.9,64.9c-0.6,0.7-1.7,0.8-2.5,0.2
			c-0.7-0.6-0.8-1.7-0.2-2.5c0.6-0.7,1.7-0.8,2.5-0.2C313.4,63.1,313.5,64.2,312.9,64.9z"/>
		<path style="display:inline;fill:#F4AF00;" d="M306.3,71.9l-0.5-0.4l2.2-2.6l-0.4-0.4l-2.2,2.6l-0.5-0.4l2.2-2.6l-0.5-0.4
			l-2.2,2.6l-0.5-0.4l2.2-2.6l-5.6-4.7L300,63l2.9,2.4l-5.4,6.4l-4.8-4l5.4-6.4l1.2,1l0.3-0.4l-1.8-1.5l-6.7,8.1
			c0,0,5.8,4.9,6.3,5.3c0.5,0.4,0.3,1.6,0.7,2c0.4,0.4,4.7,4,4.7,4l7.4-8.9l-2-1.6L306.3,71.9z M304.5,75c-0.6,0.7-1.7,0.8-2.5,0.2
			c-0.7-0.6-0.8-1.7-0.2-2.5c0.6-0.7,1.7-0.8,2.5-0.2C305,73.1,305.1,74.2,304.5,75z"/>
		<path style="display:inline;fill:#F4AF00;" d="M295.2,72.9c0.4,0.3,0.4,0.8,0.1,1.2l-0.8,1c-0.3,0.4-0.8,0.4-1.2,0.1l-2.2-1.8
			c-0.4-0.3-0.4-0.8-0.1-1.2l0.8-1c0.3-0.4,0.8-0.4,1.2-0.1L295.2,72.9z"/>
		<path style="display:inline;fill:#F1C40F;" d="M311.4,53.8c0.4,0.3,0.4,0.8,0.1,1.2l-0.8,1c-0.3,0.4-0.8,0.4-1.2,0.1l-2.2-1.8
			c-0.4-0.3-0.4-0.8-0.1-1.2l0.8-1c0.3-0.4,0.8-0.4,1.2-0.1L311.4,53.8z"/>
	</g>
	<g style="display:none;">
		<path style="display:inline;fill:#684629;" d="M410.1,118.9c0.2-0.4,0.5-0.8,0.7-1.4c0.2-0.6,0.3-1.2,0.4-1.7
			c0.1-0.7-0.5-1.4-1.2-1.6c-0.1,0-0.3-0.1-0.4,0l-1.3,5.2c0,0,0,0,0,0C408.8,119.7,409.7,119.5,410.1,118.9z"/>
		<path style="display:inline;fill:#774F32;" d="M407.5,125.5c0.3-0.4,0.6-0.9,0.8-1.5c0.2-0.6,0.4-1.1,0.4-1.5
			c0.1-0.7-0.5-1.4-1-1.6c0,0,0,0,0,0l-2.5,4.8c0.1,0.1,0.2,0.2,0.3,0.2C406.2,126.2,407.1,126.1,407.5,125.5z"/>
		
			<ellipse transform="matrix(-0.3524 0.9358 -0.9358 -0.3524 650.6227 -232.705)" style="display:inline;fill:#E0A815;" cx="405.8" cy="108.8" rx="3.1" ry="2.9"/>
		
			<ellipse transform="matrix(-0.3524 0.9358 -0.9358 -0.3524 659.2358 -200.8329)" style="display:inline;fill:#FCBB14;" cx="399.1" cy="127.7" rx="3.1" ry="2.9"/>
		
			<rect x="400.9" y="113.5" transform="matrix(0.9358 0.3525 -0.3525 0.9358 66.8128 -134.9556)" style="display:inline;fill:#02373C;" width="6.3" height="5"/>
		
			<rect x="399.5" y="117.7" transform="matrix(-0.3524 0.9359 -0.9359 -0.3524 657.0128 -212.9769)" style="display:inline;fill:#014446;" width="5.4" height="6.3"/>
		<path style="display:inline;fill:#CE2921;" d="M400.4,117.2C400.5,117.2,400.5,117.2,400.4,117.2c0.3-0.4,0.7-0.6,1.2-0.4l3.7,1.4
			c0.4,0.2,0.7,0.6,0.6,1c0,0,0,0,0,0c0,0,0,0.1,0,0.1l2.1,0.8c0.1-0.2,0.2-0.4,0.3-0.7c0.5-1.4,1.3-5.3,1.3-5.3c0,0,0,0,0,0
			c0.2-0.9,0.3-1.7,0.3-2.3c0.1-0.7,0.5-0.9,1-0.4l3.3,2.9c0.5,0.4,0.8,1.3,0.7,2c-0.4,2.2-1,4.1-1.6,5.8l1.3,0.5
			c0-0.1,0.1-0.2,0.1-0.3l0,0c1-2.9,1.5-5,1.6-6.2c0.1-0.7-0.2-1.6-0.7-2.1c-1-1.1-2.7-2.9-4.2-3.9c-0.6-0.4-0.9-1.2-1-1.9
			c-0.1-0.8-0.5-1.9-1.8-2.4l-3.8-1.4c-0.6-0.2-1.6,0.3-1.8,0.9l-4.2,11.1l-0.1,0.3l1.6,0.6C400.4,117.3,400.4,117.2,400.4,117.2z
			 M404,108.1c0.4-1.1,1.6-1.6,2.7-1.2c1.1,0.4,1.6,1.6,1.2,2.7c-0.4,1.1-1.6,1.6-2.7,1.2C404.2,110.4,403.6,109.1,404,108.1z
			 M402.2,115.2c-0.5-0.2-0.8-0.8-0.6-1.3c0.2-0.5,0.8-0.8,1.3-0.6l3.7,1.4c0.5,0.2,0.8,0.8,0.6,1.3c-0.2,0.5-0.8,0.8-1.3,0.6
			L402.2,115.2z"/>
		<path style="display:inline;fill:#E42D1E;" d="M402,130.8c0.5-0.4,1.3-0.8,2-0.8c1.8,0.2,4.3,0,5.7-0.2c0.7-0.1,1.6-0.6,1.9-1.1
			c0.7-1,1.7-2.9,2.9-5.8l0,0c0-0.1,0.1-0.2,0.1-0.3l0,0l-1.3-0.5c0,0,0,0,0,0c-0.6,1.6-1.5,3.5-2.6,5.4c-0.3,0.6-1.2,1-1.9,1
			l-4.4,0c-0.7,0-0.9-0.4-0.5-1c0.3-0.5,0.8-1.1,1.3-2c0,0,0,0,0,0c0,0,2.4-4.4,2.6-4.9c0-0.1,0.1-0.3,0.2-0.6l-2.1-0.8c0,0,0,0,0,0
			c0,0,0,0.1-0.1,0.1c0,0,0,0,0,0c-0.2,0.4-0.7,0.5-1.2,0.4l-3.7-1.4c-0.4-0.2-0.7-0.6-0.6-1c0,0,0,0,0,0c0,0,0-0.1,0-0.1
			c0,0,0,0,0,0l-1.6-0.6l-0.1,0.3l-4.2,11.1c-0.2,0.6,0.1,1.6,0.7,1.9l3.8,1.4C400.4,131.9,401.4,131.3,402,130.8z M399.7,121.9
			c-0.5-0.2-0.8-0.8-0.6-1.3c0.2-0.5,0.8-0.8,1.3-0.6l3.7,1.4c0.5,0.2,0.8,0.8,0.6,1.3c-0.2,0.5-0.8,0.8-1.3,0.6L399.7,121.9z
			 M397,126.7c0.4-1.1,1.6-1.6,2.7-1.2c1.1,0.4,1.6,1.6,1.2,2.7c-0.4,1.1-1.6,1.6-2.7,1.2C397.2,129,396.6,127.8,397,126.7z"/>
		<path style="display:inline;fill:#02373C;" d="M397.2,115.8l4.4-11.7c0.2-0.6,0-0.9-0.5-1.1c-0.5-0.2-0.9,0.1-1,0.6
			c-0.2,0.4-0.7,0.7-1.1,0.5l-1.7-0.6c-0.6-0.2-1.2,0.1-1.4,0.6l-1.2,3.2c-0.1,0.3-0.1,0.6,0,0.8c0.1,0.3,0.3,0.5,0.6,0.6
			c0.5,0.2,1,0.4,1.2,0.4c0.6,0.2,1,0.9,0.7,1.5l-1.8,4.8l1.6,0.6L397.2,115.8z"/>
		<path style="display:inline;fill:#014446;" d="M392.6,128l4.4-11.7l0.1-0.3l-1.6-0.6h0l-1.8,4.7c-0.2,0.6-0.9,0.9-1.6,0.7
			c-0.2-0.1-0.7-0.3-1.2-0.5c-0.3-0.1-0.6-0.1-0.8,0c-0.3,0.1-0.5,0.3-0.6,0.6l-1.2,3.2c-0.2,0.6,0.1,1.2,0.6,1.4l1.7,0.6
			c0.4,0.2,0.7,0.7,0.5,1.1c-0.2,0.5-0.1,0.9,0.4,1.1C392,128.8,392.4,128.6,392.6,128z"/>
	</g>
	<g>
		<g>
			<polygon style="fill:#F2F2F2;" points="561.6,57.8 563.5,16.3 594.6,59.4 			"/>
			<path style="fill:#E6E6E6;" d="M558.6,25.7c0,0.8-0.8,1.9-2.3,3.5c-1.5,1.5-3.3,3.3-5.4,5.2c-2.1,2-4.2,4-6.3,6.2
				c-2.1,2.2-3.8,4.7-5.2,7.6c-1.4,2.9-2,5.7-1.8,8.5l19.6,0.9L558.6,25.7z"/>
			<path style="fill:#F4AF00;" d="M585,63.6l-0.4,9.4c-0.6,0-1.2,0.1-1.9,0.5c-1.3,0.4-2.7,0.6-4.1,0.5c-1.4-0.1-2.8-0.4-4.2-0.9
				c-1.3-0.8-2.7-1.2-4.2-1.2c-1.5-0.1-2.9,0.2-4.2,0.8c-1.4,0.4-2.8,0.6-4.2,0.5c-1.4-0.1-2.7-0.4-4.1-0.9c-0.7-0.4-1.3-0.7-2-0.9
				l0.4-9.2L585,63.6z"/>
			<path style="fill:#F7CA18;" d="M534.4,61.2l10.3,0.5l11.5,0.5l-0.4,9.2c-0.7-0.2-1.4-0.3-2.1-0.4c-1.4-0.1-2.8,0.2-4.2,0.8
				c-1.3,0.4-2.7,0.6-4.2,0.5l-0.7,0l-0.1,0l-0.1-0.1c-0.1-0.1-0.2-0.1-0.3-0.1c-0.6,0-0.9-0.1-1-0.2c-0.9-0.2-1.7-0.6-2.5-1.1
				c-0.8-0.5-1.3-1-1.7-1.4l-0.6-0.6l-5.4-7.8L534.4,61.2z"/>
			<polygon style="fill:#C0392B;" points="584.9,66.7 584.8,68.7 556,67.3 556.1,65.3 			"/>
			<polygon style="fill:#D64541;" points="535,64.3 556.1,65.3 556,67.3 536.5,66.4 			"/>
		</g>
		<ellipse style="fill:none;stroke:#F4AF00;stroke-width:2;stroke-miterlimit:10;" cx="561.6" cy="48.7" rx="41.8" ry="42.3"/>
	</g>
	<g>
		<g id="rocket">
			<g>
				<path style="opacity:0.7;fill:#FFFFFF;" d="M671.9,145.7c-0.6-0.3-1.4-0.1-1.7,0.5c-0.3,0.6-0.1,1.4,0.5,1.7s8,2.7,8,2.7
					S672.5,146,671.9,145.7z"/>
				<path style="opacity:0.7;fill:#FFFFFF;" d="M680.4,145.8c-0.6-0.3-1.4-0.1-1.7,0.5c-0.3,0.6-0.1,1.4,0.5,1.7
					c0.6,0.3,8,2.7,8,2.7S681,146.1,680.4,145.8z"/>
				<path style="opacity:0.7;fill:#FFFFFF;" d="M676.6,139.3c-0.6-0.3-1.4-0.1-1.7,0.5c-0.3,0.6-0.1,1.4,0.5,1.7
					c0.6,0.3,8,2.7,8,2.7S677.2,139.6,676.6,139.3z"/>
			</g>
			
				<rect x="664.9" y="140.1" transform="matrix(0.46 -0.8879 0.8879 0.46 235.8624 671.2919)" style="fill:#EDEDEF;" width="9.9" height="3.3"/>
			
				<rect x="666.2" y="142.3" transform="matrix(0.46 -0.8879 0.8879 0.46 233.2861 671.4683)" style="fill:#FFFFFF;" width="5" height="3.3"/>
			<g>
				<path style="fill:#F7CA18;" d="M667.4,140.4c3.4-6.5,10.3-10,17.2-9.3c-1.4-1.6-3.1-2.9-5.1-4c-8.5-4.4-19-1.1-23.4,7.4
					c-4.4,8.5-1.1,19,7.4,23.4c2,1,4.1,1.6,6.1,1.8C665.2,154.7,664,147,667.4,140.4z"/>
				<path style="fill:#F4AF00;" d="M658.7,131l11.2,5.8c3.7-4.1,9.2-6.2,14.7-5.6c-1.4-1.6-3.1-2.9-5.1-4
					C672.4,123.5,663.9,125.2,658.7,131z"/>
				<path style="fill:#F2F2F2;" d="M669.4,141.5c1-1.9,2.2-3.6,3.7-5c-3.8-5.2-9.7-10.2-16.9-14c-11.5-6-23.5-7.3-31.4-4.2
					c2,8.2,10,17.2,21.5,23.2c7.3,3.8,14.7,5.7,21.2,5.8C667.7,145.3,668.4,143.4,669.4,141.5z"/>
				<path style="fill:#E6E6E6;" d="M624.7,118.3C624.7,118.4,624.7,118.4,624.7,118.3l44.6,23.2c0,0,0,0,0-0.1c1-1.9,2.2-3.6,3.7-5
					c-3.8-5.2-9.7-10.2-16.9-14C644.5,116.5,632.5,115.2,624.7,118.3z"/>
				<path style="fill:#F7CA18;" d="M635.6,124c1.2-2.4,2.5-4.7,3.9-6.9c-5.6-0.8-10.8-0.4-14.8,1.2c1,4.2,3.6,8.7,7.5,12.8
					C633.3,128.8,634.4,126.4,635.6,124z"/>
				<path style="fill:#F4AF00;" d="M624.7,118.4l10.9,5.6c0,0,0,0,0-0.1c1.2-2.4,2.5-4.7,3.9-6.9
					C633.9,116.3,628.8,116.7,624.7,118.4C624.7,118.4,624.7,118.4,624.7,118.4z"/>
				<path style="fill:#F7CA18;" d="M655.2,134.1c1.4,2.3,5.1,5.3,9.9,7.7c4.8,2.5,9.4,3.8,12.1,3.7c-1.4-2.3-5.1-5.3-9.9-7.7
					C662.5,135.3,657.9,134,655.2,134.1z"/>
				<path style="fill:#F4AF00;" d="M655.3,134.2l21.8,11.3c0,0,0.1,0,0.1,0c-1.4-2.3-5.1-5.3-9.9-7.7c-4.8-2.5-9.4-3.8-12.1-3.7
					C655.3,134.2,655.3,134.2,655.3,134.2z"/>
				<path style="fill:#D64541;" d="M651.1,132c-1.5,3-5.2,4.1-8.1,2.6c-2.9-1.5-4.1-5.2-2.6-8.1c1.5-2.9,5.2-4.1,8.1-2.6
					C651.5,125.4,652.7,129.1,651.1,132L651.1,132z"/>
				<path style="fill:#FFFFFF;" d="M642.1,127.3c-1.1,2-0.3,4.6,1.8,5.6c2.1,1.1,4.6,0.3,5.6-1.8c1.1-2,0.3-4.6-1.8-5.6
					C645.7,124.5,643.1,125.3,642.1,127.3L642.1,127.3z"/>
				<g>
					<path style="fill:#C0392B;" d="M640.4,126.5C640.4,126.5,640.4,126.5,640.4,126.5l1.6,0.9c0,0,0,0,0-0.1c1.1-2,3.6-2.9,5.6-1.8
						c2.1,1.1,2.9,3.6,1.8,5.6c0,0,0,0,0,0.1l1.6,0.8c0,0,0,0,0-0.1c1.5-2.9,0.4-6.6-2.6-8.1C645.6,122.4,642,123.5,640.4,126.5z"/>
					<path style="fill:#D1ECFB;" d="M647.7,125.5c-2-1.1-4.6-0.3-5.6,1.8c0,0,0,0,0,0.1l7.4,3.8c0,0,0,0,0-0.1
						C650.6,129.1,649.8,126.6,647.7,125.5z"/>
				</g>
			</g>
		</g>
		<ellipse style="fill:none;stroke:#F4AF00;stroke-width:2;stroke-miterlimit:10;" cx="653.7" cy="135.6" rx="41.8" ry="42.3"/>
	</g>
	<g>
		<g>
			<g>
				<path style="fill:#F4AF00;" d="M446.2,143.5c2.3-2.8,50.1-3.8,52.4-2.1c1.8,1.4,1.6,15.9,1.3,17.4s-1.2,2-3.3,2.1
					s-55.8,2.3-58.6,2.4c-2,0.1-3.6-0.1-3.9-2.3c-0.4-2.3,0-7.6,1.7-8.4c1.7-0.8,9-1,9.4-2.1C445.5,149.3,445.1,144.8,446.2,143.5z"
					/>
				<path d="M500,150.8l-44.5,1.8l0.1,1.8l44.5-1.8C500,152.1,500,151.4,500,150.8z"/>
				<path d="M500.3,158l-66.5,2.7c-0.4,0-0.7,0.4-0.7,0.7l0.1,1.6c0,0.4,0.4,0.7,0.7,0.7l66.5-2.7c0.4,0,0.7-0.4,0.7-0.7l-0.1-1.6
					C501,158.3,500.7,158,500.3,158z"/>
				<circle style="fill:#D64541;" cx="495.8" cy="153" r="1.1"/>
				<path style="fill:#E6E6E6;" d="M453.1,143.4c-4.1,0.5-5.5,0.8-5.9,1c-0.2,0.4-0.5,1.9-0.4,6.6c0.2,4.6,0.7,6.1,0.9,6.5
					c0.3,0.1,3.3-0.1,6-0.3L453.1,143.4z"/>
				<g>
					<path style="fill:#E6E6E6;" d="M489.1,149.5l9.4-0.4c-0.2-4.6-0.7-6.1-0.9-6.5c-0.5-0.1-2.5-0.4-8.8-0.5L489.1,149.5z"/>
					<path style="fill:#E6E6E6;" d="M467.2,150.4l8.2-0.3l-0.3-7.9c-2.1,0.1-4.3,0.1-6.4,0.2c-0.6,0-1.2,0.1-1.8,0.1L467.2,150.4z"
						/>
					<path style="fill:#E6E6E6;" d="M478.1,149.9l8.2-0.3L486,142c-2.6,0-5.4,0-8.2,0.1L478.1,149.9z"/>
					<path style="fill:#E6E6E6;" d="M464.1,142.6c-3.1,0.2-5.8,0.4-8.2,0.6l0.3,7.7l8.2-0.3L464.1,142.6z"/>
				</g>
				<path style="fill:#FCB813;" d="M433.4,155.4c0.1-0.8,0.8-1.4,1.5-1.3c0.5,0.1,0.8,0.7,0.6,1.6c-0.1,0.8-0.6,1.5-1.1,1.4
					C433.7,157,433.2,156.3,433.4,155.4z"/>
			</g>
			<g>
				<circle cx="443.2" cy="162.2" r="5.6"/>
				<circle style="fill:#F7CA18;" cx="443.2" cy="162.2" r="4"/>
			</g>
			<g>
				<circle cx="481.3" cy="160.7" r="5.6"/>
				<circle style="fill:#F7CA18;" cx="481.3" cy="160.7" r="4"/>
			</g>
		</g>
		<ellipse style="fill:none;stroke:#F4AF00;stroke-width:2;stroke-miterlimit:10;" cx="467.1" cy="154.9" rx="41.8" ry="42.3"/>
	</g>
	<g>
		<g>
			<ellipse style="fill:#F3F0EF;" cx="383.4" cy="53.3" rx="20" ry="24"/>
			<g>
				<path style="fill:#F1C40F;" d="M384,26.5v45.8c0.6-2.4,3.9-18,0.4-40.4c2.4,0.1,4.7,0.6,6.8,1.6c4.5,12.6-2,38.1-2,38.1
					c10.2-20.4,7-31.9,3.8-37.2c5.2,3.1,8.6,8.7,8.7,15.2c0,6.6-7.4,20.9-12.7,25l-4.9,0v5.3l6.7,0c7.2-4.2,16.3-21.5,16.2-30.2
					C406.9,36.8,396.6,26.6,384,26.5z"/>
				<path style="fill:#F4AF00;" d="M378.9,74.4c-5.2-4.4-12.7-18.8-12.8-24.8c0-6.2,3.2-11.7,8.1-14.9c-2.9,5.1-5.2,15.9,4.5,36.8
					c0,0-6.7-25.5-2.2-38.1c2-0.9,4.2-1.5,6.6-1.6c-1.4,7-3.8,24,0.8,40.7c0,0,0-0.1,0.1-0.3V26.5c-0.1,0-0.1,0-0.2,0
					c-12.8,0-23.1,10.4-23.1,23.2c0,8.3,9.7,26.1,16.4,30.1l6.9,0v-5.3L378.9,74.4z"/>
				<path style="fill:#FFFFFF;" d="M390.4,79.9c0.1-0.1,0.2-0.1,0.3-0.2l-6.7,0v0.1l3.6,0l-1.2,3.7l-2.4,0v6.5l4.8,0
					c0.7,0,1.2-0.6,1.2-1.2l0-4.1c0-0.7-0.6-1.2-1.2-1.2h-0.1l1.2-3.6L390.4,79.9z"/>
				<path style="fill:#E6E7E8;" d="M381.1,83.6l-1.3-3.8l4.2,0v-0.1l-6.9,0c0,0,0,0,0,0l0.4,0l1.3,3.8c-0.6,0.1-1,0.6-1,1.2l0,4.1
					c0,0.7,0.6,1.2,1.2,1.2l4.9,0v-6.5L381.1,83.6z"/>
			</g>
		</g>
		<ellipse style="fill:none;stroke:#F4AF00;stroke-width:2;stroke-miterlimit:10;" cx="384" cy="56.9" rx="41.8" ry="42.3"/>
	</g>
	<g>
		<g id="Layer_4">
			<g>
				<path style="fill:#F7CA18;" d="M300.3,114.8c-0.4,0-7.1,2.6-13.7,5.3l-2.3-1.7c-0.8-0.6-1.9-0.4-2.5,0.4
					c-0.6,0.8-0.4,1.9,0.4,2.5l0.5,0.4c-4.9,2-8.8,3.3-8.8,3.3s-5.2-4.3-10.9-8.4c-5.7-4.1-10.2,2.2-4.5,6.2
					c5.7,4,11.4,7.7,11.4,7.7s0,4-0.4,9.3l-0.5-0.4c-0.8-0.6-1.9-0.4-2.5,0.4c-0.6,0.8-0.4,1.9,0.4,2.5l2.3,1.7
					c-0.6,7.1-1,14.4-0.9,14.8c0.3,0.9,2.2,3.8,2.6,3.6c0.2-0.1,1.2-4.9,2.2-10l0.2-0.7c0.1-0.5,0.2-0.9,0.3-1.4l0.2-0.7
					c0.2-0.9,0.4-1.9,0.6-2.7l0.2-0.7c0.2-0.9,0.4-1.8,0.6-2.6l0.2-0.7c0.2-1.1,0.5-1.7,0.7-2c0.9-1.2,2.8-4,2.8-4s9.5,6.4,12.1,7.7
					c0.9,0.5,2.5,1.1,3.9,1.7c-0.2,2.7-0.4,6.8-0.3,7.5c0,1.1,0.1,2.1,0.5,2.4c0.4,0.3,1,1.2,1.2,0.8c0.2-0.4,2.2-6.8,2.9-9.1
					c0.5,0.1,0.8,0.1,0.8,0c0.1-0.1,0-0.3-0.3-0.8c1.9-1.3,7.5-5.4,7.7-5.6c0.3-0.4-0.6-0.7-1.1-0.9c-0.4-0.3-1.3,0-2.5,0.4
					c-0.8,0.2-4.5,1.7-7,2.6c-1-1.2-2.1-2.4-2.9-3.2c-2-2-11.2-9.1-11.2-9.1s2.1-2.8,2.8-4c0.1-0.2,0.8-0.6,1.8-1.3l0.6-0.4
					c0.7-0.4,1.4-0.9,2.3-1.4l0.6-0.4c0.7-0.4,1.6-0.9,2.4-1.4l0.6-0.4c0.4-0.3,0.9-0.4,1.3-0.7l0.6-0.4c4.6-2.5,8.8-4.9,8.8-5.2
					C304.5,115.7,301,114.7,300.3,114.8z"/>
				<path style="fill:#F4AF00;" d="M300.3,114.7c-0.4,0-7.1,2.7-13.7,5.3l-2.4-1.7c-0.8-0.6-1.9-0.4-2.5,0.4
					c-0.6,0.8-0.4,1.9,0.4,2.5l0.5,0.4c-4.9,2-8.8,3.4-8.8,3.4s-6-5-11.7-9.1c-1.6-1.4-7.7-1-3.1,2.6c11,7.7,40.4,28.9,40.2,29.5
					c0.5,0.1,0.8,0.1,0.8,0c0.1-0.1,0-0.3-0.3-0.8c1.9-1.4,7.4-5.3,7.7-5.6c0.3-0.4-0.6-0.7-1.1-0.9c-0.4-0.3-1.3,0-2.5,0.4
					c-0.8,0.2-4.5,1.7-7,2.6c-1-1.2-2.1-2.4-2.9-3.1c-2.1-2-11.3-9.1-11.3-9.1s2.1-2.8,2.8-4c0.1-0.2,0.8-0.6,1.8-1.3l0.6-0.4
					c0.7-0.4,1.4-0.9,2.3-1.4l0.6-0.4c0.7-0.4,1.6-0.9,2.4-1.4l0.6-0.4c0.4-0.3,0.9-0.4,1.3-0.7l0.6-0.4c4.4-2.5,8.8-5,8.8-5.2
					C304.6,115.6,301.1,114.6,300.3,114.7z"/>
			</g>
		</g>
		<ellipse style="fill:none;stroke:#F4AF00;stroke-width:2;stroke-miterlimit:10;" cx="280.4" cy="134.5" rx="41.8" ry="42.3"/>
	</g>
</g>
</svg>
