<?xml version="1.0" encoding="utf-8"?>
<!-- Generator: Adobe Illustrator 18.1.0, SVG Export Plug-In . SVG Version: 6.00 Build 0)  -->
<!DOCTYPE svg PUBLIC "-//W3C//DTD SVG 1.1//EN" "http://www.w3.org/Graphics/SVG/1.1/DTD/svg11.dtd">
<svg version="1.1" id="b" xmlns="http://www.w3.org/2000/svg" xmlns:xlink="http://www.w3.org/1999/xlink" x="0px" y="0px"
	 viewBox="0 0 701.9 206.5" style="enable-background:new 0 0 701.9 206.5;" xml:space="preserve">
<rect style="fill:#D64541;" width="701.9" height="206.5"/>
<g id="a">
	<g>
		<path style="fill-rule:evenodd;clip-rule:evenodd;fill:#F7CA18;" d="M425.4,4.3l-0.5,0.6l-2.8,3.2l-1.3,1.4
			c-0.7,0.9-3.6,2.7-4.3,4.8c-0.7,1.8,1.4,3.5,3.1,4.6c1.2,0.8,3.6,0.4,4.9,0c4.4-1.5,2.4-0.6,4.9-0.7c1-1.4,0.4-2.4,0.1-3.8
			c0.8-0.5,0.8,0,1.9-0.9c0.7-0.5,1-0.8,1.8-0.7c1.2,0,2.8,1.5,3.7,2.6c0.4,1.2-1.2,1.3-1.5,4.4c1.4,1.2,2.8,2.1,4.3,3.6
			c3,3,0.2,5.9-2.2,7.2c-1.8,0.9-2.1,0.1-3.3,2.5c-0.9,1.8-1.6,2.6-2.8,4.2c-2.3,3.1-1.1,1.7-1.7,3l-1.7,3c-0.9,0.9-0.8,0.3-1.2,1.8
			c-0.3,1.1-0.5,2.9-1.3,4c-0.6-0.8-0.2-1.4,0.1-2.4c0.2-0.7,0.4-1.8,0.6-2.4c0.3-1.1,2.4-3.5,2.7-4.8c0,0-0.1-0.1-0.1-0.1
			c0,0-0.1,0-0.1-0.1c-1.4-0.4-1.4,0.9-2.8,1c-0.2-0.4-0.1-0.2-0.1-0.7c0-0.1,0.1-0.3,0.1-0.3L426,39c-2.4,2.4-4.2,5.2-4.6,5.6
			l-0.7-0.5l3.9-5.6c-0.3-0.2-0.2-0.4-1.2,0.7c-1,1.2-2.3,2.5-3.1,3.8c-1.1,1.8-2.3,3.3-3.8,5c-1.6,1.8-2.3,3.1-3.6,4.9
			c-1.2,1.6-2.9,3.2-4.1,4.8c1.7,2,4,3.3,5.9,5.2L412,66l-29.4-26.3l1.7-2c2,2.3,3.4,2.9,5.6,4.9c0.5,0-0.2,0.6,0.7-0.2
			c1.9-2.1,3.8-4.2,5.6-6.3c0.9-1.1,1.7-2.2,2.6-3.2c0.9-1,2-1.9,2.9-3c1.9-2,3.7-4.1,5.5-6.2l5.2-6.3c0.7-1,0.7-0.9,1.1-2.1
			c0.3-1.1,0.8-1.1,1.6-1.5c0.6-0.3,3.2-3.2,3.7-3.9l0.3-0.1c0,0,0.1,0,0.1-0.1l1.8-1.7c1.7-0.8,4.2-5.3,5.7-6L425.4,4.3z"/>
		<path style="fill-rule:evenodd;clip-rule:evenodd;fill:#D64541;" d="M397.3,44c0.6-1,0.3-1.6,1-2.4c1-1,0.8-0.2,1.4-1.9
			c0.3-1,0.7-0.8,1.5-1.9c0,0,0-0.1-0.1-0.1c0,0-0.4-0.2,0.1-1c0.3-0.4,0.5-0.7,0.8-1.3c0.6-1.2,0.7-1.7,1.5-2.7
			c-0.1,0-0.1,0-0.2,0.1l-1.2,0.7c-0.5,0.4-0.9,0.6-1.3,0.8c-0.9,0.5-0.5,0.4-1.1,0.8c-0.5,0.4-0.5,0.3-1.2,0.9
			c0.4-1.1-0.3-0.3,0.8-2.1c0.8-1.2,15.6-17.5,16.2-18.2l0.6,0.8c-0.4,1.6-0.2,1.5,2.5,3.8c1.6,1.4,2.4,1.2,3.6,1.6l0.4,0.2
			c-0.2,0.4-1.7,3.2-2,3.6c-0.7,0.9-2.1,1.1-3.2,2.3c-2.8,2.9,1.2,1.8-5.3,5.7c-3.3,2-4.2,2.3-6.7,5.3c-1,1.2-1.2,2.3-2.1,3.6
			c-0.9,1.3-1.5,2.4-2.1,3.6c-0.6-0.5-1.4-1.3-2-1.6L397.3,44z"/>
		<path style="fill-rule:evenodd;clip-rule:evenodd;fill:#D64541;" d="M403.6,52.8c1.7-2.4,1.6-3,2.4-4c0.7-1,0.8-1.3,1.3-2.2
			c0.5-0.8,1.2-1.4,1.6-2.1c1-1.7,1.9-1.9,3.5-2.9c1.1-0.6,2.8-1.9,3.9-2c0.4,1-1.5,3.2-2.1,4.5c-0.9,1.9-2,0.6-3.7,3.8
			c-2.3,4.1-1.9,1.6-2.6,4.5C407.5,54.4,404.9,53.5,403.6,52.8z"/>
		<path style="fill-rule:evenodd;clip-rule:evenodd;fill:#D64541;" d="M422.7,26c-0.5,0.2-0.5,0.2-1,0.2c-0.2-1.3,1-2.5,2.1-3.8
			c0.2,1.4,0.1,0.2-0.6,1.8C423,24.9,422.8,25.5,422.7,26z"/>
	</g>
	<g>
		<defs>
			
				<rect id="SVGID_1_" x="420.5" y="3.3" transform="matrix(0.7451 0.6669 -0.6669 0.7451 137.699 -279.713)" width="28.5" height="73.9"/>
		</defs>
		<clipPath id="SVGID_2_">
			<use xlink:href="#SVGID_1_"  style="overflow:visible;"/>
		</clipPath>
		<g style="clip-path:url(#SVGID_2_);">
			<path style="fill-rule:evenodd;clip-rule:evenodd;fill:#F4AF00;" d="M425.6,4.3l-0.5,0.6l-2.8,3.2L421,9.6
				c-0.7,0.9-3.6,2.7-4.3,4.8c-0.7,1.8,1.4,3.5,3.1,4.6c1.2,0.8,3.6,0.4,4.9,0c4.4-1.5,2.4-0.6,4.9-0.7c1-1.4,0.4-2.4,0.1-3.8
				c0.8-0.5,0.8,0,1.9-0.9c0.7-0.5,1-0.8,1.8-0.7c1.2,0,2.8,1.5,3.7,2.6c0.4,1.2-1.2,1.3-1.5,4.4c1.4,1.2,2.8,2.1,4.3,3.6
				c3,3,0.2,5.9-2.2,7.2c-1.8,0.9-2.1,0.1-3.3,2.5c-0.9,1.8-1.6,2.6-2.8,4.2c-2.3,3.1-1.1,1.7-1.7,3l-1.7,3
				c-0.9,0.9-0.8,0.3-1.2,1.8c-0.3,1.1-0.5,2.9-1.3,4c-0.6-0.8-0.2-1.4,0.1-2.4c0.2-0.7,0.4-1.8,0.6-2.4c0.3-1.1,2.4-3.5,2.7-4.8
				c0,0-0.1-0.1-0.1-0.1c0,0-0.1,0-0.1-0.1c-1.4-0.4-1.4,0.9-2.8,1c-0.2-0.4-0.1-0.2-0.1-0.7c0-0.1,0.1-0.3,0.1-0.3l0.1-0.3
				c-2.4,2.4-4.2,5.2-4.6,5.6l-0.7-0.5l3.9-5.6c-0.3-0.2-0.2-0.4-1.2,0.7c-1,1.2-2.3,2.5-3.1,3.8c-1.1,1.8-2.3,3.3-3.8,5
				c-1.6,1.8-2.3,3.1-3.6,4.9c-1.2,1.6-2.9,3.2-4.1,4.8c1.7,2,4,3.3,5.9,5.2l-2.8,3.2l-29.4-26.3l1.7-2c2,2.3,3.4,2.9,5.6,4.9
				c0.5,0-0.2,0.6,0.7-0.2c1.9-2.1,3.8-4.2,5.6-6.3c0.9-1.1,1.7-2.2,2.6-3.2c0.9-1,2-1.9,2.9-3c1.9-2,3.7-4.1,5.5-6.2l5.2-6.3
				c0.7-1,0.7-0.9,1.1-2.1c0.3-1.1,0.8-1.1,1.6-1.5c0.6-0.3,3.2-3.2,3.7-3.9l0.3-0.1c0,0,0.1,0,0.1-0.1l1.8-1.7
				c1.7-0.8,4.2-5.3,5.7-6L425.6,4.3z"/>
			<path style="fill-rule:evenodd;clip-rule:evenodd;fill:#FFFFFF;" d="M397.5,44c0.6-1,0.3-1.6,1-2.4c1-1,0.8-0.2,1.4-1.9
				c0.3-1,0.7-0.8,1.5-1.9c0,0,0-0.1-0.1-0.1c0,0-0.4-0.2,0.1-1c0.3-0.4,0.5-0.7,0.8-1.3c0.6-1.2,0.7-1.7,1.5-2.7
				c-0.1,0-0.1,0-0.2,0.1l-1.2,0.7c-0.5,0.4-0.9,0.6-1.3,0.8c-0.9,0.5-0.5,0.4-1.1,0.8c-0.5,0.4-0.5,0.3-1.2,0.9
				c0.4-1.1-0.3-0.3,0.8-2.1c0.8-1.2,15.6-17.5,16.2-18.2l0.6,0.8c-0.4,1.6-0.2,1.5,2.5,3.8c1.6,1.4,2.4,1.2,3.6,1.6l0.4,0.2
				c-0.2,0.4-1.7,3.2-2,3.6c-0.7,0.9-2.1,1.1-3.2,2.3c-2.8,2.9,1.2,1.8-5.3,5.7c-3.3,2-4.2,2.3-6.7,5.3c-1,1.2-1.2,2.3-2.1,3.6
				c-0.9,1.3-1.5,2.4-2.1,3.6c-0.6-0.5-1.4-1.3-2-1.6L397.5,44z"/>
			<path style="fill-rule:evenodd;clip-rule:evenodd;fill:#D64541;" d="M403.9,52.8c1.7-2.4,1.6-3,2.4-4c0.7-1,0.8-1.3,1.3-2.2
				c0.5-0.8,1.2-1.4,1.6-2.1c1-1.7,1.9-1.9,3.5-2.9c1.1-0.6,2.8-1.9,3.9-2c0.4,1-1.5,3.2-2.1,4.5c-0.9,1.9-2,0.6-3.7,3.8
				c-2.3,4.1-1.9,1.6-2.6,4.5C407.7,54.4,405.1,53.5,403.9,52.8z"/>
			<path style="fill-rule:evenodd;clip-rule:evenodd;fill:#F1F2F3;" d="M422.9,26.1c-0.5,0.2-0.5,0.2-1,0.2c-0.2-1.3,1-2.5,2.1-3.8
				c0.2,1.4,0.1,0.2-0.6,1.8C423.2,24.9,423,25.5,422.9,26.1z"/>
		</g>
	</g>
</g>
<g>
	<g>
		<g>
			<path style="fill:#CCCCCC;" d="M422.5,180.2c0.3-4.5-0.2-8.9-1.4-13.3c-1-3.5-6.5-2-5.5,1.5c1.1,3.9,1.4,7.7,1.2,11.7
				C416.5,183.9,422.2,183.9,422.5,180.2L422.5,180.2z"/>
		</g>
	</g>
	<path style="fill:#CCCCCC;" d="M401.5,173.4l-5.3-6.9c-0.2-0.3-0.3-0.8-0.1-1.1c0.4-0.7,1.3-1.8,2.8-2.7c1.5-0.9,2.5-1.1,3-1.1
		c0.3,0,0.6,0.1,0.8,0.4c0.6,0.8,2.2,2.8,3.1,4.7c1.1,2.4,1.5,4.5,1.5,4.5S402.9,174,401.5,173.4z"/>
	<path style="fill:#CCCCCC;" d="M393.2,182c0,0-3.3-4.8-4.5-6.4c-0.8-1-1.5-1.7-1.9-2.2c-0.3-0.4-0.4-1,0-1.4c0.4-0.5,1.1-1.1,2-1.9
		c1.2-0.9,2.2-1.4,2.9-1.7c0.4-0.2,0.8,0,1.1,0.3c0.7,1.1,2.1,3.4,2.8,4.4c1,1.4,2.2,3.2,2.1,3.4C397.6,176.7,395,181.8,393.2,182z"
		/>
	<path style="fill:#F2F2F2;" d="M411.5,192c0,0-4.9,3.1-8,6.3c-3.1,3.2-6.8,10.3-13.6,5.2s-8-13-9.6-18.2c-1.7-5.4-0.2-8.8,1.9-10.2
		c2.1-1.3,3,2.3,3,2.3s-2.4,1.3-2.4,4.1s2.5,6.9,3.4,7.9c0.9,1,3.5,2.4,4.7,2.2c1.2-0.1,1.1-5.3,1.7-8.1c0.5-2.8,0-6.1,6.2-11.3
		c6.2-5.2,10.2-5.7,15.6-2.5s7.4,10.3,5.7,13.9C418.4,187.3,415.2,190.3,411.5,192z"/>
	<circle cx="390.1" cy="199.8" r="0.8"/>
	<path style="fill:#FFFFFF;" d="M395.5,196.8c0,0-8.5-9.3-11.9-6.3c-3.1,2.8-1.1,6.4-1.1,6.4s-2-0.9-2.7-3c-0.7-2.1,0.1-4.4,2.4-6.1
		c2.3-1.8,5.8-1.2,8.2,0.5c2.4,1.7,3.6,2.9,3.6,2.9S398.4,195.8,395.5,196.8z"/>
	<path style="fill:#E6E6E6;" d="M398.9,203.6c0,0,2.6,0.2,5.7-1.9c3-2,3.3-5.5,3.1-6.8s-3.1-5.2-4.9-6.7c-1.9-1.5-4.2-3.1-6.9-1.6
		c-2.8,1.4-2.7,4.6-1.3,8.3C396,198.5,397.8,202.8,398.9,203.6z"/>
	<path style="fill:#E6E6E6;" d="M402.3,171.6l-5.3-6.9c-0.2-0.3-0.3-0.8-0.1-1.1c0.4-0.7,1.3-1.8,2.8-2.7c1.5-0.9,2.5-1.1,3-1.1
		c0.3,0,0.6,0.1,0.8,0.4c0.6,0.8,2.2,2.8,3.1,4.7c1.1,2.4,1.5,4.5,1.5,4.5S403.7,172.2,402.3,171.6z"/>
	<path style="fill:#E6E6E6;" d="M394,180.2c0,0-3.3-4.8-4.5-6.4c-0.8-1-1.5-1.7-1.9-2.2c-0.3-0.4-0.4-1,0-1.4c0.4-0.5,1.1-1.1,2-1.9
		c1.2-0.9,2.2-1.4,2.9-1.7c0.4-0.2,0.8,0,1.1,0.3c0.7,1.1,2.1,3.4,2.8,4.4c1,1.4,2.2,3.2,2.1,3.4C398.4,174.9,395.8,180,394,180.2z"
		/>
</g>
<g>
	<path style="fill:#FFFFFF;" d="M264.1,180.1c-1.1,1.2-1.3,2.9-0.8,4.4c-0.5,0.2-1,0.5-1.4,0.9c-1.1,1.3-1,3.3,0.3,4.5
		c0.3,0.3,0.7,0.5,1.1,0.6c-0.3,1.4,0.2,2.9,1.4,4c1.2,1,2.8,1.3,4.1,0.8c-0.4,1.5,0.1,3.1,1.3,4.1c1.2,1,2.7,1.3,4.1,0.8
		c0.1,1.3,0.7,2.6,1.8,3.5c1.6,1.4,3.9,1.7,5.8,0.8c0.1,0.1,0.2,0.2,0.3,0.3c1.3,1.1,3.2,1,4.3-0.3c0.6-0.7,0.8-1.6,0.7-2.4
		c0.8-0.2,1.6-0.7,2.1-1.3c1.3-1.6,1.4-3.8,0.2-5.4c0.1-0.1,0.1-0.2,0.2-0.2c1.5-1.7,1.3-4.4-0.4-5.9c-0.5-0.5-1.1-0.8-1.8-0.9
		l3.6-11l-1.5-1.3l-9.8,3.6c-0.1-0.1-0.2-0.2-0.3-0.3c-1.4-1.2-3.2-1.4-4.8-0.8c-0.2-0.5-0.5-1-0.9-1.4c-1.3-1.1-3.3-1-4.5,0.3
		c-0.3,0.4-0.6,0.9-0.7,1.4C267,178.4,265.2,178.8,264.1,180.1z"/>
	<path style="fill:#E6E7E8;" d="M287.5,188.3c-0.1,0-0.1,0-0.2,0c-0.1,0-0.2,0-0.3,0c-0.1,0-0.2,0-0.3,0c-0.1,0-0.2,0-0.3,0
		c-0.1,0-0.2,0-0.3,0l-0.1,0c0,0-0.1,0-0.1,0c0,0-0.1,0-0.1,0c0,0-0.1,0-0.1,0c-0.1,0-0.2,0.1-0.3,0.1c-0.2,0.1-0.3,0.1-0.5,0.2
		c-0.1,0-0.2,0.1-0.2,0.1c0,0-0.1,0-0.1,0.1c0,0-0.1,0-0.1,0.1c-0.1,0.1-0.2,0.2-0.3,0.2c-0.1,0.1-0.2,0.2-0.2,0.2
		c-0.1,0.1-0.2,0.2-0.2,0.2s0.1-0.1,0.2-0.2c0.1-0.1,0.1-0.1,0.2-0.2c0.1-0.1,0.2-0.2,0.3-0.3c0,0,0.1,0,0.1-0.1c0,0,0.1,0,0.1-0.1
		c0.1,0,0.1-0.1,0.2-0.1c0.2-0.1,0.3-0.2,0.5-0.2c0.1,0,0.2-0.1,0.3-0.1c0,0,0.1,0,0.1,0c0,0,0.1,0,0.1,0c0,0,0.1,0,0.2,0l0.2,0
		c0.1,0,0.2,0,0.3,0c0.1,0,0.2,0,0.3,0c0.1,0,0.2,0,0.3,0c0.1,0,0.2,0,0.3,0c0.1,0,0.1,0,0.2,0L287.5,188.3z"/>
	<path style="fill:#E6E7E8;" d="M274.1,200.2C274.1,200.2,274.1,200.2,274.1,200.2c0-0.1,0-0.1,0-0.2c0-0.1,0-0.1,0-0.1
		c0-0.1,0-0.2,0.1-0.3c0-0.2,0.1-0.4,0.2-0.5c0-0.1,0.1-0.2,0.1-0.2c0,0,0-0.1,0.1-0.1c0,0,0-0.1,0.1-0.1c0.1-0.1,0.2-0.3,0.2-0.4
		c0.1-0.1,0.1-0.2,0.2-0.3c0.1-0.1,0.2-0.2,0.2-0.2s-0.1,0.1-0.2,0.2c0,0.1-0.1,0.2-0.2,0.3c-0.1,0.1-0.1,0.2-0.2,0.4
		c0,0,0,0.1,0,0.1c0,0,0,0.1,0,0.1c0,0.1-0.1,0.2-0.1,0.2c-0.1,0.2-0.1,0.3-0.1,0.5c0,0.1,0,0.2,0,0.3c0,0,0,0.1,0,0.1
		c0,0,0,0.1,0,0.1c0,0,0,0,0,0L274.1,200.2z"/>
	<path style="fill:#E6E7E8;" d="M268.8,195.2c0.1,0,0.2-0.1,0.3-0.1c0.1,0,0.2-0.1,0.2-0.1c0,0,0.1,0,0.1-0.1c0,0,0.1,0,0.1-0.1
		c0.1-0.1,0.2-0.2,0.3-0.2c0.1-0.1,0.2-0.2,0.2-0.2c0.1-0.1,0.2-0.2,0.2-0.2s-0.1,0.1-0.2,0.2c-0.1,0.1-0.1,0.1-0.2,0.2
		c-0.1,0.1-0.2,0.2-0.3,0.3c0,0-0.1,0-0.1,0.1c0,0-0.1,0-0.1,0.1c-0.1,0-0.1,0.1-0.2,0.1c-0.1,0.1-0.3,0.1-0.4,0.2L268.8,195.2z"/>
	<path style="fill:#E6E7E8;" d="M279.7,179.6c0,0,0.1,0.1,0.1,0.1c0,0.1,0.1,0.1,0.1,0.2c0.1,0.1,0.2,0.2,0.3,0.4
		c0,0.1,0.1,0.1,0.1,0.2c0,0.1,0.1,0.2,0.1,0.3c0,0.1,0.1,0.2,0.1,0.3c0,0.1,0.1,0.2,0.1,0.3c0,0.1,0,0.2,0.1,0.3c0,0.1,0,0.2,0,0.3
		c0,0.1,0,0.2,0,0.3l0,0.1c0,0,0,0.1,0,0.1c0,0,0,0.1,0,0.1c0,0,0,0.1,0,0.1c0,0.1,0,0.2,0,0.3c0,0.2-0.1,0.4-0.1,0.5
		c0,0.1-0.1,0.2-0.1,0.2c0,0,0,0.1,0,0.1c0,0,0,0.1,0,0.1c-0.1,0.1-0.1,0.3-0.2,0.4c-0.1,0.1-0.1,0.2-0.2,0.3
		c-0.1,0.1-0.2,0.2-0.2,0.2s0.1-0.1,0.2-0.2c0.1-0.1,0.1-0.2,0.2-0.3c0.1-0.1,0.1-0.2,0.2-0.4c0,0,0-0.1,0.1-0.1c0,0,0-0.1,0.1-0.1
		c0-0.1,0.1-0.2,0.1-0.2c0.1-0.2,0.1-0.3,0.2-0.5c0-0.1,0-0.2,0.1-0.3c0,0,0-0.1,0-0.1c0-0.1,0-0.1,0-0.2c0-0.1,0-0.1,0-0.2l0-0.2
		c0-0.1,0-0.2,0-0.3c0-0.1,0-0.2,0-0.3c0-0.1,0-0.2,0-0.3c0-0.1,0-0.2-0.1-0.3c0-0.1-0.1-0.2-0.1-0.3c0-0.1-0.1-0.2-0.1-0.3
		c0-0.1-0.1-0.2-0.1-0.3c-0.1-0.2-0.2-0.3-0.3-0.4c0-0.1-0.1-0.1-0.1-0.2c0,0,0,0-0.1-0.1L279.7,179.6L279.7,179.6z"/>
	<path style="fill:#E6E7E8;" d="M271.4,181.8C271.4,181.8,271.4,181.8,271.4,181.8c0.2,0,0.3,0,0.4,0.1c0.1,0,0.3,0.1,0.4,0.1
		c0.1,0,0.2,0.1,0.3,0.1c0.1,0,0.2,0.1,0.3,0.1c0.1,0.1,0.2,0.1,0.3,0.2c0,0,0.1,0.1,0.1,0.1c0,0,0.1,0.1,0.1,0.1c0,0,0,0,0.1,0.1
		l0,0l0,0l0,0l0,0c0,0,0.1,0.1,0.1,0.1c0,0,0.1,0.1,0.1,0.1c0,0.1,0.1,0.1,0.1,0.2c0,0.1,0.1,0.1,0.1,0.2c0,0.1,0.1,0.1,0.1,0.2
		c0,0.1,0.1,0.1,0.1,0.2c0,0.1,0.1,0.1,0.1,0.2c0.1,0.1,0.1,0.2,0.2,0.4c0.1,0.1,0.1,0.3,0.2,0.4c0,0.1,0.1,0.3,0.1,0.4l0,0.2
		c0,0.1,0,0.1,0,0.2c0,0.1,0,0.1,0,0.2c0,0.1,0,0.1,0,0.2c0,0.1,0,0.3,0,0.4c0,0.3-0.1,0.5-0.1,0.8c0,0.1-0.1,0.2-0.1,0.3
		c0,0.1-0.1,0.2-0.1,0.3c0,0.1-0.1,0.2-0.1,0.3c0,0.1-0.1,0.2-0.1,0.2c-0.1,0.1-0.2,0.3-0.3,0.4c-0.2,0.2-0.3,0.3-0.3,0.3
		s0.1-0.1,0.2-0.3c0,0,0.1-0.1,0.1-0.2c0-0.1,0.1-0.1,0.1-0.2c0-0.1,0.1-0.2,0.1-0.2c0-0.1,0.1-0.2,0.1-0.3c0-0.1,0.1-0.2,0.1-0.3
		c0-0.1,0.1-0.2,0.1-0.3c0-0.2,0.1-0.5,0.1-0.7c0-0.1,0-0.3,0-0.4c0-0.1,0-0.3,0-0.4c0-0.1,0-0.1,0-0.2l0-0.2c0-0.1-0.1-0.3-0.1-0.4
		c0-0.1-0.1-0.3-0.1-0.4c0-0.1-0.1-0.2-0.2-0.4c-0.1-0.1-0.1-0.2-0.2-0.3c0-0.1-0.1-0.1-0.1-0.2c0,0-0.1-0.1-0.1-0.1
		c0,0-0.1-0.1-0.1-0.1c0,0-0.1-0.1-0.1-0.1c0,0-0.1-0.1-0.1-0.1l0,0l0,0c0,0,0,0,0,0l0,0c0,0,0,0-0.1-0.1c0,0-0.1-0.1-0.1-0.1
		c0,0-0.1-0.1-0.1-0.1c-0.1-0.1-0.2-0.1-0.3-0.2c-0.1-0.1-0.2-0.1-0.3-0.2c-0.1,0-0.2-0.1-0.2-0.1c-0.2-0.1-0.3-0.1-0.4-0.2
		C271.6,181.9,271.5,181.8,271.4,181.8C271.4,181.8,271.4,181.8,271.4,181.8z"/>
	<path style="fill:#E6E7E8;" d="M276.3,195.8C276.3,195.8,276.4,195.8,276.3,195.8c0.1-0.1,0.2-0.2,0.2-0.3c0.1-0.1,0.2-0.2,0.3-0.3
		c0.1-0.1,0.1-0.1,0.2-0.2c0.1-0.1,0.2-0.1,0.2-0.2c0.1-0.1,0.2-0.1,0.3-0.2c0.1,0,0.1-0.1,0.2-0.1c0.1,0,0.1-0.1,0.2-0.1
		c0,0,0.1,0,0.1,0l0,0l0,0l0,0l0,0c0.1,0,0.1,0,0.2-0.1c0.1,0,0.1,0,0.2-0.1c0.1,0,0.1,0,0.2-0.1c0.1,0,0.1,0,0.2-0.1
		c0.1,0,0.1,0,0.2,0c0.1,0,0.1,0,0.2,0c0.1,0,0.1,0,0.2,0c0.1,0,0.3,0,0.4,0c0.1,0,0.3,0,0.4,0c0.1,0,0.3,0,0.4,0.1
		c0.1,0,0.1,0,0.2,0.1c0.1,0,0.1,0,0.2,0.1c0.1,0,0.1,0,0.2,0.1c0.1,0,0.1,0.1,0.2,0.1c0.1,0.1,0.3,0.1,0.4,0.2
		c0.2,0.1,0.4,0.3,0.6,0.5c0.1,0.1,0.2,0.2,0.3,0.2c0.1,0.1,0.1,0.2,0.2,0.3c0.1,0.1,0.1,0.2,0.2,0.2c0.1,0.1,0.1,0.2,0.2,0.2
		c0.1,0.2,0.2,0.3,0.2,0.4c0.1,0.2,0.1,0.4,0.1,0.4s-0.1-0.1-0.2-0.3c0-0.1-0.1-0.1-0.1-0.2c0-0.1-0.1-0.1-0.1-0.2
		c0-0.1-0.1-0.1-0.2-0.2c-0.1-0.1-0.1-0.2-0.2-0.2c-0.1-0.1-0.1-0.1-0.2-0.2c-0.1-0.1-0.2-0.1-0.3-0.2c-0.2-0.1-0.4-0.3-0.6-0.4
		c-0.1-0.1-0.2-0.1-0.4-0.2c-0.1-0.1-0.2-0.1-0.4-0.1c-0.1,0-0.1,0-0.2-0.1c-0.1,0-0.1,0-0.2,0c-0.1,0-0.3-0.1-0.4-0.1
		c-0.1,0-0.3,0-0.4,0c-0.1,0-0.3,0-0.4,0c-0.1,0-0.3,0-0.4,0c-0.1,0-0.1,0-0.2,0c-0.1,0-0.1,0-0.2,0c-0.1,0-0.1,0-0.2,0
		c-0.1,0-0.1,0-0.2,0.1c-0.1,0-0.1,0-0.2,0.1l0,0l0,0c0,0,0,0,0,0l0,0c0,0-0.1,0-0.1,0c-0.1,0-0.1,0-0.2,0.1c-0.1,0-0.1,0.1-0.2,0.1
		c-0.1,0-0.2,0.1-0.3,0.2c-0.1,0.1-0.2,0.1-0.3,0.2c-0.1,0.1-0.1,0.1-0.2,0.2c-0.1,0.1-0.2,0.2-0.3,0.3
		C276.5,195.7,276.5,195.7,276.3,195.8C276.4,195.8,276.3,195.8,276.3,195.8z"/>
	<path style="fill:#E6E7E8;" d="M267.1,186.2C267.1,186.2,267.1,186.2,267.1,186.2c0.1,0.1,0.1,0.1,0.1,0.2c0,0.1,0.1,0.1,0.1,0.2
		c0,0,0,0.1,0.1,0.2c0,0.1,0,0.1,0.1,0.2c0,0.1,0.1,0.3,0.1,0.4l0,0.1c0,0,0,0,0,0.1c0,0,0,0.1,0,0.1c0,0,0,0.1,0,0.1
		c0,0,0,0.1,0,0.1c0,0,0,0.1,0,0.1c0,0,0,0.1,0,0.1c0,0.1,0,0.2,0,0.3c0,0.1,0,0.2-0.1,0.3c0,0.1-0.1,0.2-0.1,0.2
		c0,0.1-0.1,0.2-0.1,0.2c0,0.1-0.1,0.2-0.1,0.2c-0.1,0.1-0.1,0.1-0.2,0.2c-0.1,0.1-0.1,0.1-0.2,0.2c-0.1,0.1-0.3,0.2-0.4,0.3
		c-0.1,0-0.1,0.1-0.2,0.1c-0.1,0-0.1,0.1-0.2,0.1c-0.1,0-0.1,0-0.2,0.1c-0.1,0-0.1,0-0.2,0c-0.1,0-0.2,0-0.3,0.1c-0.2,0-0.2,0-0.2,0
		s0.1,0,0.2-0.1c0.1,0,0.2,0,0.3-0.1c0,0,0.1,0,0.2-0.1c0.1,0,0.1,0,0.2-0.1c0.1,0,0.1-0.1,0.2-0.1c0.1,0,0.1-0.1,0.2-0.1
		c0.1-0.1,0.2-0.2,0.3-0.3c0.1-0.1,0.1-0.1,0.2-0.2c0.1-0.1,0.1-0.1,0.1-0.2c0.1-0.1,0.1-0.1,0.1-0.2c0-0.1,0.1-0.1,0.1-0.2
		c0-0.1,0.1-0.2,0.1-0.2c0-0.1,0-0.2,0.1-0.2c0-0.1,0-0.2,0-0.2c0,0,0-0.1,0-0.1c0,0,0-0.1,0-0.1c0,0,0-0.1,0-0.1c0,0,0-0.1,0-0.1
		c0,0,0-0.1,0-0.1c0,0,0,0,0-0.1l0-0.1c0,0,0-0.1,0-0.1c0,0,0-0.1,0-0.1c0-0.1,0-0.1,0-0.2c0-0.1-0.1-0.2-0.1-0.3
		c0-0.1-0.1-0.2-0.1-0.2C267.2,186.3,267.2,186.3,267.1,186.2C267.1,186.2,267.1,186.2,267.1,186.2z"/>
	<path style="fill:#E6E7E8;" d="M281.6,200.9C281.6,200.9,281.6,200.9,281.6,200.9c0-0.1,0.1-0.1,0.1-0.2c0-0.1,0.1-0.1,0.1-0.2
		c0,0,0.1-0.1,0.1-0.1c0,0,0.1-0.1,0.1-0.1c0.1-0.1,0.2-0.2,0.3-0.3l0,0c0,0,0,0,0.1,0c0,0,0.1,0,0.1-0.1c0,0,0.1,0,0.1-0.1
		c0,0,0.1,0,0.1-0.1c0,0,0.1,0,0.1-0.1c0,0,0.1,0,0.1,0c0.1,0,0.2-0.1,0.2-0.1c0.1,0,0.2,0,0.3-0.1c0.1,0,0.2,0,0.3,0
		c0.1,0,0.2,0,0.3,0c0.1,0,0.2,0,0.3,0c0.1,0,0.2,0,0.3,0c0.1,0,0.2,0,0.2,0.1c0.2,0.1,0.3,0.1,0.4,0.2c0.1,0,0.1,0.1,0.2,0.1
		c0.1,0,0.1,0.1,0.2,0.1c0.1,0,0.1,0.1,0.1,0.1c0,0,0.1,0.1,0.1,0.1c0.1,0.1,0.1,0.2,0.2,0.2c0.1,0.1,0.1,0.2,0.1,0.2
		s-0.1-0.1-0.2-0.2c0-0.1-0.1-0.1-0.2-0.2c0,0-0.1-0.1-0.1-0.1c0,0-0.1-0.1-0.1-0.1c-0.1,0-0.1-0.1-0.2-0.1c-0.1,0-0.1-0.1-0.2-0.1
		c-0.1-0.1-0.3-0.1-0.4-0.2c-0.1,0-0.2,0-0.2-0.1c-0.1,0-0.2,0-0.2,0c-0.1,0-0.2,0-0.2,0c-0.1,0-0.2,0-0.3,0c-0.1,0-0.2,0-0.2,0
		c-0.1,0-0.2,0-0.2,0c-0.1,0-0.2,0-0.2,0.1c0,0-0.1,0-0.1,0c0,0-0.1,0-0.1,0c0,0-0.1,0-0.1,0c0,0-0.1,0-0.1,0.1c0,0-0.1,0-0.1,0.1
		c0,0,0,0,0,0l0,0c0,0-0.1,0-0.1,0.1c0,0-0.1,0-0.1,0.1c-0.1,0-0.1,0.1-0.2,0.1c-0.1,0.1-0.2,0.2-0.2,0.2c-0.1,0.1-0.1,0.2-0.2,0.2
		C281.7,200.8,281.7,200.8,281.6,200.9C281.6,200.9,281.6,200.9,281.6,200.9z"/>
	<g>
		<g>
			<polygon style="fill:#F1C40F;" points="320.4,174.4 311.8,174.2 301.2,178.1 295.4,177.9 292.4,180 287.2,174.9 287.7,167.8 
				287.6,163.8 289.4,160 287.9,146.3 			"/>
		</g>
	</g>
	<g>
		<g>
			<polygon style="fill:#F4AF00;" points="291.3,149.2 287.9,146.3 289.4,160 287.6,163.8 287.7,167.8 287.2,174.9 289,176.7 
				289.6,168.6 288.7,163.9 290.9,160.5 			"/>
		</g>
	</g>
	<polygon style="fill:#D64541;" points="287.2,174.9 292.4,180 292,178.5 293.1,176.3 294.9,174.4 299.9,174.5 309.5,170.2 
		313.4,170.1 316.7,171.2 307.9,163.6 306.2,166.7 299.1,169 293.6,172.5 291.7,176.3 290.5,176.9 	"/>
</g>
<path style="fill:#F4AF00;" d="M295.2,48.9c-3,0.6-5.8-0.7-7.5-1.7c0.4,0.1,0.9-0.1,1.1-0.5c0.2-0.5,0-1-0.5-1.2
	c-0.2-0.1-0.4-0.1-0.6-0.1c0.1-0.1,0.3-0.2,0.4-0.4c0.2-0.5,0-1-0.5-1.2c-0.2-0.1-0.5-0.1-0.7,0c1.5-1.7,4.8-2.6,4.8-2.6
	c-4.5-1.9-8,2.2-8,2.2c-0.2-3.3,3.7-5.6,3.7-5.6c-3.6-0.6-5.7,2.2-6.2,4.1c-1.2-0.6-3.2-1.1-5.1,0.5c0,0,2.1,0.6,3.3,1.7
	c-6.6,2.8-4.4,7.9-4.4,7.9c0.3-4.9,5.2-4.7,5.2-4.7c-1.3,6,6.7,5.7,6.7,5.7c-4.8-2-3.5-5.9-3.5-5.9c2.3,3,6.4,4.6,8.8,5.3
	c-5.3,5.5-8.4,9.9-7.4,11c1.3,1.5,9.7-3.9,18.8-12c9.1-8.1,15.3-15.8,14-17.3C316.4,32.7,299.1,43.8,295.2,48.9z M279.4,31.8
	c0.2-0.2,0.5-0.3,0.7-0.5c0,0.2,0.1,0.3,0.1,0.5C280,31.8,279.7,31.8,279.4,31.8z M282.1,33.8c0-0.2-0.1-0.4-0.2-0.7
	c0.1,0,0.3,0,0.4,0C282.2,33.4,282.1,33.6,282.1,33.8z M284.2,32.2c0.1-0.1,0.1-0.2,0.2-0.3c0.2,0.1,0.4,0.3,0.6,0.4
	C284.7,32.2,284.4,32.2,284.2,32.2z M287.2,45.5c0.1,0,0.2,0,0.3,0c-0.1,0.1-0.2,0.1-0.2,0.2C287.2,45.6,287.2,45.5,287.2,45.5z
	 M286.3,44.6c0,0.1,0,0.2,0.1,0.3c-0.1,0-0.1,0-0.2,0C286.2,44.8,286.3,44.7,286.3,44.6z M287.2,46.8c-0.1-0.1-0.2-0.1-0.2-0.2
	c0,0,0.1-0.1,0.1-0.1C287.1,46.6,287.1,46.7,287.2,46.8z"/>
<path style="fill:#F1C40F;" d="M302.5,42.7c-2.1-3.7-9.4-15.2-19.8-19.2c0,0,7.8-5.6,15.6,3.9c0,0-4.9-18-17.5-11.1
	c0,0-3.7-10.8,7.1-14.9c0,0-13-1.5-14.7,15.4c-3.4-1.8-6.1-6.2-6.1-6.2c-2.2,5.3,0.2,9.4,2.4,11.7c-4,2.4-8.7,9-5,16.7
	c0,0,2.5-10.3,10-12.1c0,0-6.8,10.6,0.5,19.5c0,0-0.4-8,2.5-12.6c0,0.6,0.1,1.2,0.5,1.7c0.8,0.9,2.2,1,3.1,0.2
	c0.3-0.3,0.6-0.7,0.7-1.1c0,0.5,0.2,0.9,0.5,1.3c0.8,0.9,2.2,1,3.1,0.2c0.8-0.7,1-1.9,0.4-2.7c3.5,3,8.4,8.4,9.1,15.6
	c-3,0.6-5.5,2.7-3.1,3.4c-5.3,5.5-8.4,9.9-7.4,11c1.3,1.5,9.7-3.9,18.8-12c9.1-8.1,15.3-15.8,14-17.3
	C316.4,32.7,310,36.5,302.5,42.7z M279.4,31.8c0.2-0.2,0.5-0.3,0.7-0.5c0,0.2,0.1,0.3,0.1,0.5C280,31.8,279.7,31.8,279.4,31.8z
	 M282.1,33.8c0-0.2-0.1-0.4-0.2-0.7c0.1,0,0.3,0,0.4,0C282.2,33.4,282.1,33.6,282.1,33.8z M284.2,32.2c0.1-0.1,0.1-0.2,0.2-0.3
	c0.2,0.1,0.4,0.3,0.6,0.4C284.7,32.2,284.4,32.2,284.2,32.2z M287.5,45.4c-0.1,0.1-0.2,0.1-0.2,0.2
	C287.2,45.6,287.4,45.5,287.5,45.4z M286.3,44.6c0,0.1,0,0.2,0.1,0.3c-0.1,0-0.1,0-0.2,0C286.2,44.8,286.3,44.7,286.3,44.6z
	 M287.2,46.8c-0.1-0.1-0.2-0.1-0.2-0.2c0,0,0.1-0.1,0.1-0.1C287.1,46.6,287.1,46.7,287.2,46.8z"/>
<path style="fill:#F1C40F;" d="M449.5,119.4l-1.9,0l0,2.8l1.9,0l0,3.6l-1.9,0l0,2.8l1.8,0l0,3.6l-1.8,0l-3.6,0l0,0l0-16.3l0.1,0
	l3.4,0l1.9,0L449.5,119.4z M444,95.8l3.6,0l1.8,0l0-3.6l-1.8,0l0-2.8l1.9,0l0-3.6l-1.9,0l0-2.8l1.9,0l0-3.6l-1.9,0l-3.4,0l-0.1,0
	L444,95.8L444,95.8z M442.8,130.9l-21.1,0.1c1-1.8,4.7-20.9,4.7-25.2c0-3.1-4.3-24-4.9-25.1l15.4,0l5.7,0l0,14l-5.7,0l0,4.2l19.2,0
	l0-4.5l10.9,10.8l8.2,0l0,1.2l-0.5,0c-6,3.4,4.3,6.7-2.5,10.1c4.9-3.4-7.4-6.7-3.3-10.1l-1.9,0l-10.8,10.9l0-4.5l-19.2,0l0,4.2
	l5.7,0L442.8,130.9L442.8,130.9z M451.2,108.9c1.7,0,3.1-1.4,3.1-3.1c0-1.7-1.4-3.1-3.1-3.1l-6,0l0,6.1L451.2,108.9L451.2,108.9z"/>
<g>
	<g>
		<g>
			<path style="fill:#F4AF00;" d="M226.2,91.6c2.5-2,4.7-4.3,7-6.4c1.7-1.5,3.3-3.1,5-4.6c0.2-0.2,0.5-0.7,0.8-0.2
				c0.2,0.3-0.2,0.5-0.4,0.7c-3.8,3.5-7.6,6.9-11.5,10.4c-0.3,0.2-0.5,0.6-0.9,0.5C226.2,91.7,226.2,91.6,226.2,91.6z"/>
			<path style="fill:#F4AF00;" d="M274,100.1c5.7,0.2,11.5,0.5,17.2,0.6c1,0,1.1,0.3,0.7,1.1c-0.7,1.8-1.7,3.5-2.9,5
				c-1.6,2-3.7,2.7-6.1,2.9c-3.7,0.3-7.5-0.2-11.2-0.2c-2.6,0-5.3-0.3-7.9-0.3c-2.2,0-4.4,0.5-6.6,1.1c-4.8,1.2-3.9,1-4.9,4.9
				c-0.4,1.4-0.9,2.9-1.4,4.3c-0.5,1.4-1.5,2.1-3,2.1c-1.4-0.1-2.8,0-4.2,0c-1.6,0.1-3.3-2.4-2.7-3.9c0.2-0.6,0.6-0.6,1-0.5
				c1,0.1,2,0.1,3.1-0.1c0.6-0.1,0.9-0.4,1.1-1.1c0.5-2.3,0.1-3.4-1.7-4.6c-1.3-0.8-1.5-2.1-1.3-3.4c0.4-1.9,0.3-3.4-0.6-5.3
				c-1.3-2.7-1-5.5,1.1-7.9c0.3-0.3,0.3-0.6,0.3-1c0.2-1.5,0.3-3,0.5-4.5c0.1-1.2,0.7-1.9,1.7-2.4c2-0.9,2.6-2.5,1.9-4.4
				c-0.4-1.2-1.5-1.5-2.5-2c-0.9-0.4-1.8-0.7-1.5-2c0.3-1.2,1.3-2,2.5-2c1.7,0.1,3.3,0.6,4.8,1.4c1,0.5,1.5,1.4,1.8,2.4
				c0.7,2.1,1,4.2,1,6.4c0,1.1,0.5,1.5,1.5,1.6c6.3,1,12.6,1.6,19,1.3c3.6-0.2,7.1-0.1,10.6,0.6c2.8,0.5,4.6,2.7,4.9,5.8
				c0.3,3,0.3,3-2.6,3c-4.3,0-8.6,0.4-12.9,0.7c-0.3,0-0.6,0.1-0.8,0.2C274,100,274,100,274,100.1z"/>
			<path style="fill:#CCCCCC;" d="M241.7,96.6c-1.1,1.9-1,3.8-0.3,5.7c-0.6,0.1-1.2,0.1-1.8,0.2c-0.9,0.1-1.8,0.3-2.6,0.9
				c-0.7,0.6-1.6,0.8-2.6,0.3c-0.8-0.4-1.9-0.4-2.9-0.4c-0.7-0.1-1.2-0.4-1.5-0.9c-0.9-1.5-1.5-3-0.9-5c0.4-1.4,0.7-2.5,2.1-3
				c0.2-0.1,0.5-0.2,0.7-0.2c1.3-0.4,2.6,0.3,3.9-0.2c0.4-0.1,1.1,0.2,1.4,0.5C238.4,95.9,240,96.1,241.7,96.6z"/>
			<path style="fill:#CCCCCC;" d="M237.5,116c-0.2-0.7-1.2-1.1-0.7-1.6c0.5-0.5,1.1,0.4,1.6,0.6c0.4,0.2,0.7,0.5,1,0.7
				c0.8,0.7,1.9,1.2,1,2.5c-0.1,0.1,0,0.2,0,0.3c0,1.6-0.1,1.7-1.6,1.4c-1.6-0.3-3-1-4.3-1.9c-0.4-0.3-0.7-0.9-0.8-1.5
				c-0.2-0.5,0.2-0.7,0.7-0.7C235.3,116,236.4,116,237.5,116z"/>
			<path style="fill:#F4AF00;" d="M244.5,77c-0.6,0.8-1.1,1.6-0.8,2.7c0.1,0.5-1.7,1.2-2.2,0.8c-0.5-0.5-1.1-0.4-1.7-0.5
				c-0.7-0.1-0.8-0.5-0.8-1.1c0.1-1.8,1.9-3,3.6-2.4C243.1,76.8,243.9,76.6,244.5,77z"/>
		</g>
	</g>
	<g>
		<defs>
			<polygon id="SVGID_3_" points="294.3,74.2 293.8,100.1 241.6,99.1 242,101.2 220.7,100.8 220.7,98.7 221.2,72.8 			"/>
		</defs>
		<clipPath id="SVGID_4_">
			<use xlink:href="#SVGID_3_"  style="overflow:visible;"/>
		</clipPath>
		<g style="clip-path:url(#SVGID_4_);">
			<g>
				<path style="fill:#FFFFFF;" d="M226.2,91.6c2.5-2,4.7-4.3,7-6.4c1.7-1.5,3.3-3.1,5-4.6c0.2-0.2,0.5-0.7,0.8-0.2
					c0.2,0.3-0.2,0.5-0.4,0.7c-3.8,3.5-7.6,6.9-11.5,10.4c-0.3,0.2-0.5,0.6-0.9,0.5C226.2,91.7,226.2,91.7,226.2,91.6z"/>
				<path style="fill:#F1C40F;" d="M274,100.1c5.7,0.2,11.5,0.5,17.2,0.6c1,0,1.1,0.3,0.7,1.1c-0.7,1.8-1.7,3.5-2.9,5
					c-1.6,2-3.7,2.7-6.1,2.9c-3.7,0.3-7.5-0.2-11.2-0.2c-2.6,0-5.3-0.3-7.9-0.3c-2.2,0-4.4,0.5-6.6,1.1c-4.8,1.2-3.9,1-4.9,4.9
					c-0.4,1.4-0.9,2.9-1.4,4.3c-0.5,1.4-1.5,2.1-3,2.1c-1.4-0.1-2.8,0-4.2,0c-1.6,0.1-3.3-2.4-2.7-3.9c0.2-0.6,0.6-0.6,1-0.5
					c1,0.1,2,0.1,3.1-0.1c0.6-0.1,0.9-0.4,1.1-1.1c0.5-2.3,0.1-3.4-1.7-4.6c-1.3-0.8-1.5-2.1-1.3-3.4c0.4-1.9,0.3-3.4-0.6-5.3
					c-1.3-2.7-1-5.5,1.1-7.9c0.3-0.3,0.3-0.6,0.3-1c0.2-1.5,0.3-3,0.5-4.5c0.1-1.2,0.7-1.9,1.7-2.4c2-0.9,2.6-2.5,1.9-4.4
					c-0.4-1.2-1.5-1.5-2.5-2c-0.9-0.4-1.8-0.7-1.5-2c0.3-1.2,1.3-2,2.5-2c1.7,0.1,3.3,0.6,4.8,1.4c1,0.5,1.5,1.4,1.8,2.4
					c0.7,2.1,1,4.2,1,6.4c0,1.1,0.5,1.5,1.5,1.6c6.3,1,12.6,1.6,19,1.3c3.6-0.2,7.1-0.1,10.6,0.6c2.8,0.5,4.6,2.7,4.9,5.8
					c0.3,3,0.3,3-2.6,3c-4.3,0-8.6,0.4-12.9,0.7c-0.3,0-0.6,0.1-0.8,0.2C274,100,274,100.1,274,100.1z"/>
				<path style="fill:#E6E6E6;" d="M241.7,96.6c-1.1,1.9-1,3.8-0.3,5.7c-0.6,0.1-1.2,0.1-1.8,0.2c-0.9,0.1-1.8,0.3-2.6,0.9
					c-0.7,0.6-1.6,0.8-2.6,0.3c-0.8-0.4-1.9-0.4-2.9-0.4c-0.7-0.1-1.2-0.4-1.5-0.9c-0.9-1.5-1.5-3-0.9-5c0.4-1.4,0.7-2.5,2.1-3
					c0.2-0.1,0.5-0.2,0.7-0.2c1.3-0.4,2.6,0.3,3.9-0.2c0.4-0.1,1.1,0.2,1.4,0.5C238.4,95.9,240,96.1,241.7,96.6z"/>
				<path style="fill:#F1C40F;" d="M237.5,116c-0.2-0.7-1.2-1.1-0.7-1.6c0.5-0.5,1.1,0.4,1.6,0.6c0.4,0.2,0.7,0.5,1,0.7
					c0.8,0.7,1.9,1.2,1,2.5c-0.1,0.1,0,0.2,0,0.3c0,1.6-0.1,1.7-1.6,1.4c-1.6-0.3-3-1-4.3-1.9c-0.4-0.3-0.7-0.9-0.8-1.5
					c-0.2-0.5,0.2-0.7,0.7-0.7C235.3,116,236.4,116,237.5,116z"/>
				<path style="fill:#E6E6E6;" d="M244.5,77.1c-0.6,0.8-1.1,1.6-0.8,2.7c0.1,0.5-1.7,1.2-2.2,0.8c-0.5-0.5-1.1-0.4-1.7-0.5
					c-0.7-0.1-0.8-0.5-0.8-1.1c0.1-1.8,1.9-3,3.6-2.4C243.1,76.9,243.9,76.6,244.5,77.1z"/>
			</g>
		</g>
	</g>
</g>
<g>
	<defs>
		<rect id="SVGID_5_" x="413.4" y="109.4" width="66" height="29.7"/>
	</defs>
	<clipPath id="SVGID_6_">
		<use xlink:href="#SVGID_5_"  style="overflow:visible;"/>
	</clipPath>
	<path style="clip-path:url(#SVGID_6_);fill:#F4AF00;" d="M449.5,119.4l-1.9,0l0,2.8l1.9,0l0,3.6l-1.9,0l0,2.8l1.8,0l0,3.6l-1.8,0
		l-3.6,0l0,0l0-16.3l0.1,0l3.4,0l1.9,0L449.5,119.4z M444,95.8l3.6,0l1.8,0l0-3.6l-1.8,0l0-2.8l1.9,0l0-3.6l-1.9,0l0-2.8l1.9,0
		l0-3.6l-1.9,0l-3.4,0l-0.1,0L444,95.8L444,95.8z M442.8,130.9l-21.1,0.1c1-1.8,4.7-20.9,4.7-25.2c0-3.1-4.3-24-4.9-25.1l15.4,0
		l5.7,0l0,14l-5.7,0l0,4.2l19.2,0l0-4.5l10.9,10.8l8.2,0l0,1.2l-0.5,0c-6,3.4,4.3,6.7-2.5,10.1c4.9-3.4-7.4-6.7-3.3-10.1l-1.9,0
		l-10.8,10.9l0-4.5l-19.2,0l0,4.2l5.7,0L442.8,130.9L442.8,130.9z M451.2,108.9c1.7,0,3.1-1.4,3.1-3.1c0-1.7-1.4-3.1-3.1-3.1l-6,0
		l0,6.1L451.2,108.9L451.2,108.9z"/>
</g>
<g>
	<path style="fill:#E6E7E8;" d="M350.9,24.3c-43.7,0-79.1,35.4-79.1,79s35.4,79,79.1,79c0.1,0,0.2,0,0.3,0v-158
		C351.1,24.3,351,24.3,350.9,24.3z"/>
	<path style="fill:#FFFFFF;" d="M430,103.3c0-43.5-35.3-78.9-78.8-79v158C394.8,182.2,430,146.9,430,103.3z"/>
	<path style="fill:#F1C40F;" d="M424.9,74.7l-4.1,0.1l-2.1-2.3l-0.4-3.6l-2.1,1.2l-1.1,4.5l-3.1-3.3l-0.1-3.1l-3-2.5l-1.1-1.1h-3.4
		l1.1,3.1l4.1,2.3l0.7,0.8l-0.9,0.4l0,2.4l-2,0.8l-1.7-0.4l-1.1-1.5l2.8,0.1l0.8-1l-6.2-4.2l-0.5-1.8l-2.5,2.3l-2.5-0.5l-3.9,5
		l-0.8,2l-2.5,0.2l-3.7,0l-2.2-1l-0.6-4.4l0.8-2.1l3.7-0.8l4.1,0.8l0.5-2.3l-1.7-0.4l0.6-3.5l4.1-0.6l2.9-4l3-0.5l2.7,0.4h1
		l-0.5-3.8l-3.2,1.3l-1.1-2.8l-1.9-0.3l-0.4-1.9l1.5-1.7l3.6-1.4l0.9-1.7c-13.9-12.3-32.1-19.7-52.1-19.8v14.3l1.5,0.7v2.8l2.4,0.6
		l-1.2,2.2h-2.7V55l1.6,1l-0.1,2.8l-1.5,0.5v1.9l2.3,1l-0.1,1.9l-1,0.1c0,0,0-0.1,0-0.1l-1.2-0.4v53.1l2,0.8l7,0.1l2,3.3l3.1,1
		l-0.6,2.8l-3.4,4.3l-1,9.5l-3.1,2.4l-4.5-0.1l-1.5,2.6v0l1.1,4.9l-1.1,1.4v32.5c24.7-0.1,46.7-11.5,61.2-29.3h-2.6v-5.3l-3-4.1
		v-6.3l-2.3-2.3l-0.2-2.6l2.9-5.6l-5.6-9.8l0.7-6.6l-5-0.5l-1.8-1.8h-3.4l-1.7,1.6h-5.9l-0.2,0.5H381l-7.6-8.6l0.1-6.7l1.3-0.5
		l0.5-2.6h-1.8l-0.7-2.7l8.8-6.3v-4.5l4.3-2.4l1.7,0.2h3.5l2.8-1.5l8.9-0.7v4.5l7,1.8l1.4,1h1.3v-2.5l4-0.4l3.9,2.9h6.3l0.4-0.4
		C426.4,78.8,425.7,76.7,424.9,74.7z M387.5,52.1l0.7-1.1l2.6-0.5l0.7,3.2l1.4,2.2l0.9,1.1l1.7,0.7l-1.6,1.9l-3.1,0.3h-2.3l0.3-2.7
		l1.9-0.4l-0.2-1.3l-1.8-1.1l-1.2-0.9V52.1z M383.2,57.1l1.6-2.5l2.1-0.5l1.5,0.7l-0.1,1.7l-3.3,2.3h-1.8V57.1z"/>
	<polygon style="fill:#004346;" points="351.2,143.5 351.2,143.6 351.2,143.5 	"/>
	<path style="fill:#F4AF00;" d="M347.4,154.8l-1.6,2.9l-4.7,2.3l-3.1,0.5l-0.1,1.3l2.2,0.6l-0.3,1.4l-1.9,1.9l1.2,1.5l2.3,0.1
		l-0.1,1.8l-0.6,1.8l-0.2,1.4l3.5,2.9l-0.5,1.5l-4.7-0.1l-4.7-4.1l-3.7-6.4l0.5-6.2l-2.8-3.7l1.1-6.2l-1.6-0.5v-13.5
		c0,0-4.6-3.5-4.9-3.5c-0.3,0-2.4-0.6-2.4-0.6l-0.5-2.6l-6-7.5l0.6-2.7l0.2-4.4l4.1-2.9l-0.6-4.9l-6-0.5l-4.7-5.4l-3.4-0.9l-2.2-0.4
		l0.3-2l-2.8-0.4v1.1l-6.9-1.7l-2.8-4.3l1.1-2.1l-4.4-6.4l-0.8-4.7h-1.8l0.6,4.5l3,4.7l-0.3,1.8l-2.6-0.4l-3.2-5.4v-6.3l-3.3-1.6
		v-4.5c-4.1,9.5-6.3,20-6.3,31c0,43.6,35.5,79.2,79.2,79.2c0.1,0,0.1,0,0.2,0v-32.5L347.4,154.8z"/>
	<path style="fill:#F4AF00;" d="M348.1,62.8l-0.2-1.4h0l1.3-0.9v-1.3l-1.4-0.3l-0.3,1.2l-2.4,0.4l-0.2-0.1v0.1l-0.8,0.1l-0.7-1.4
		l-0.8-0.3h-1.7l-0.8,0.6V61l1.5,0.5l1.5,0.2l-0.3,0.1l-1.3,1.5l-0.6-0.7l-1.3-0.3l-3.5,3.3l0.5,0.4l-5.2,2.9l-4.9,5.1l-0.3,2.3
		l-4.9,3.2l-2.4,2.4l0.3,4.9l-3.4-1.6l0-2.8l-9.3,0l-4.8,2.4l-2.1,3.9l-0.8,3.1l1.4,3l3.8,0.5l6.1-4l0.5,2l-1.8,3.5l4.6,0.8l0.5,7.1
		l6.3,1.1l4-4.6l4.9,1l1.7,2.4l4.7-0.3l0.1-1.4l2.6,1.3l2.9,4.5l5,0.1l1.8,3.2l0.3,3.9l3.6,1.4V63.8L348.1,62.8z M340.2,66.8
		l-1.6,0.1l0.1-1.1l0.7-0.9l1,0.8L340.2,66.8z M346,64.8l-1.1,0.1l-0.2,1.1l-0.9,0.5l-1.4,0.1c0-0.3-0.1-0.6-0.1-0.6h-0.5v-1.2h2.3
		l0.5-1.2l0.9,0l1,0.2L346,64.8z"/>
	<path style="fill:#F4AF00;" d="M351.1,24.1c-17.4,0-33.4,5.6-46.5,15.2l4,0l1.8,1l3.4,0.7l0.3,1.3l5.3,0.2l-0.7-1.7l-4.7-0.1
		l1.1-1.1l-0.4-1.3h-4.3l4.7-3.5h4.5l2.1,2.9l3.5,0.2l2.1-2l1.6,0.8l-2.9,2.8c0,0-4,0.1-3.8,0.1c0.2,0,0.3,2.8,0.3,2.8l4.9-0.1
		l0.5-1.3l3.4-0.2l0.4-2l-2-0.3l0.7-1.8l1.5-0.5l5.3,0.3L334,39l0.5,2l3,0.5l-0.2-3.7l2.9-1.5l5.1-0.6l5.9,2.6V24.1
		C351.2,24.1,351.1,24.1,351.1,24.1z"/>
	<polygon style="fill:#F4AF00;" points="350.6,44.7 349.6,47.2 341.9,45.4 347.9,42.2 345.6,40.3 340.4,40.9 340,41.4 340,41.4 
		339.9,41.5 338.4,43.1 335.9,43.3 336.1,44.5 337,44.9 336.9,45.3 334.9,45.5 334.8,46.7 332.9,46.8 332.5,44.5 329.1,45.5 
		322,49.7 322.8,52.6 324.8,53.9 328.7,54.4 328.7,58.9 330.5,58.6 332.2,55.1 336.4,53.8 336.4,48.4 338.8,46.6 344.4,48 344,51.5 
		345.5,51.5 349.7,49.5 349.9,54.1 351.2,55 351.2,44.7 	"/>
	<polygon style="fill:#F4AF00;" points="349.9,59.7 350.1,60.7 351.2,61.2 351.2,59.3 	"/>
</g>
<g>
	<g>
		<polygon style="fill:#F2F2F2;" points="507.7,57.2 509.7,15.7 540.7,58.8 		"/>
		<path style="fill:#E6E6E6;" d="M504.8,25.1c0,0.8-0.8,1.9-2.3,3.5c-1.5,1.5-3.3,3.3-5.4,5.2c-2.1,2-4.2,4-6.3,6.2
			c-2.1,2.2-3.8,4.7-5.2,7.6c-1.4,2.9-2,5.7-1.8,8.5l19.6,0.9L504.8,25.1z"/>
		<path style="fill:#F4AF00;" d="M531.2,63l-0.4,9.4c-0.6,0-1.2,0.1-1.9,0.5c-1.3,0.4-2.7,0.6-4.1,0.5c-1.4-0.1-2.8-0.4-4.2-0.9
			c-1.3-0.8-2.7-1.2-4.2-1.2c-1.5-0.1-2.9,0.2-4.2,0.8c-1.4,0.4-2.8,0.6-4.2,0.5c-1.4-0.1-2.7-0.4-4.1-0.9c-0.7-0.4-1.3-0.7-2-0.9
			l0.4-9.2L531.2,63z"/>
		<path style="fill:#F7CA18;" d="M480.6,60.6l10.3,0.5l11.5,0.5l-0.4,9.2c-0.7-0.2-1.4-0.3-2.1-0.4c-1.4-0.1-2.8,0.2-4.2,0.8
			c-1.3,0.4-2.7,0.6-4.2,0.5l-0.7,0l-0.1,0l-0.1-0.1c-0.1-0.1-0.2-0.1-0.3-0.1c-0.6,0-0.9-0.1-1-0.2c-0.9-0.2-1.7-0.6-2.5-1.1
			c-0.8-0.5-1.3-1-1.7-1.4l-0.6-0.6l-5.4-7.8L480.6,60.6z"/>
		<polygon style="fill:#C0392B;" points="531,66.1 530.9,68.1 502.1,66.7 502.2,64.7 		"/>
		<polygon style="fill:#D64541;" points="481.1,63.7 502.2,64.7 502.1,66.7 482.6,65.8 		"/>
	</g>
	<ellipse style="fill:none;stroke:#F4AF00;stroke-width:2;stroke-miterlimit:10;" cx="507.7" cy="48.1" rx="41.8" ry="42.3"/>
</g>
<g>
	<g id="rocket">
		<g>
			<path style="opacity:0.7;fill:#FFFFFF;" d="M587.1,165.4c-0.6-0.3-1.4-0.1-1.7,0.5c-0.3,0.6-0.1,1.4,0.5,1.7c0.6,0.3,8,2.7,8,2.7
				S587.7,165.7,587.1,165.4z"/>
			<path style="opacity:0.7;fill:#FFFFFF;" d="M595.6,165.5c-0.6-0.3-1.4-0.1-1.7,0.5c-0.3,0.6-0.1,1.4,0.5,1.7c0.6,0.3,8,2.7,8,2.7
				S596.2,165.8,595.6,165.5z"/>
			<path style="opacity:0.7;fill:#FFFFFF;" d="M591.8,159c-0.6-0.3-1.4-0.1-1.7,0.5c-0.3,0.6-0.1,1.4,0.5,1.7c0.6,0.3,8,2.7,8,2.7
				S592.4,159.3,591.8,159z"/>
		</g>
		
			<rect x="580.1" y="159.8" transform="matrix(0.46 -0.8879 0.8879 0.46 172.6117 606.6437)" style="fill:#EDEDEF;" width="9.9" height="3.3"/>
		
			<rect x="581.5" y="162" transform="matrix(0.46 -0.8879 0.8879 0.46 170.0354 606.8201)" style="fill:#FFFFFF;" width="5" height="3.3"/>
		<g>
			<path style="fill:#F7CA18;" d="M582.6,160.1c3.4-6.5,10.3-10,17.2-9.3c-1.4-1.6-3.1-2.9-5.1-4c-8.5-4.4-19-1.1-23.4,7.4
				c-4.4,8.5-1.1,19,7.4,23.4c2,1,4.1,1.6,6.1,1.8C580.4,174.3,579.2,166.6,582.6,160.1z"/>
			<path style="fill:#F4AF00;" d="M573.9,150.6l11.2,5.8c3.7-4.1,9.2-6.2,14.7-5.6c-1.4-1.6-3.1-2.9-5.1-4
				C587.6,143.2,579.1,144.9,573.9,150.6z"/>
			<path style="fill:#F2F2F2;" d="M584.6,161.1c1-1.9,2.2-3.6,3.7-5c-3.8-5.2-9.7-10.2-16.9-14c-11.5-6-23.5-7.3-31.4-4.2
				c2,8.2,10,17.2,21.5,23.2c7.3,3.8,14.7,5.7,21.2,5.8C583,165,583.6,163,584.6,161.1z"/>
			<path style="fill:#E6E6E6;" d="M539.9,138C539.9,138,540,138.1,539.9,138l44.6,23.2c0,0,0,0,0-0.1c1-1.9,2.2-3.6,3.7-5
				c-3.8-5.2-9.7-10.2-16.9-14C559.8,136.2,547.8,134.9,539.9,138z"/>
			<path style="fill:#F7CA18;" d="M550.9,143.7c1.2-2.4,2.5-4.7,3.9-6.9c-5.6-0.8-10.8-0.4-14.8,1.2c1,4.2,3.6,8.7,7.5,12.8
				C548.5,148.5,549.6,146.1,550.9,143.7z"/>
			<path style="fill:#F4AF00;" d="M540,138.1l10.9,5.6c0,0,0,0,0-0.1c1.2-2.4,2.5-4.7,3.9-6.9C549.1,136,544,136.4,540,138.1
				C539.9,138,540,138.1,540,138.1z"/>
			<path style="fill:#F7CA18;" d="M570.5,153.8c1.4,2.3,5.1,5.3,9.9,7.7c4.8,2.5,9.4,3.8,12.1,3.7c-1.4-2.3-5.1-5.3-9.9-7.7
				C577.7,155,573.1,153.7,570.5,153.8z"/>
			<path style="fill:#F4AF00;" d="M570.5,153.9l21.8,11.3c0,0,0.1,0,0.1,0c-1.4-2.3-5.1-5.3-9.9-7.7c-4.8-2.5-9.4-3.8-12.1-3.7
				C570.5,153.9,570.5,153.9,570.5,153.9z"/>
			<path style="fill:#D64541;" d="M566.4,151.7c-1.5,3-5.2,4.1-8.1,2.6c-2.9-1.5-4.1-5.2-2.6-8.1c1.5-2.9,5.2-4.1,8.1-2.6
				C566.7,145.1,567.9,148.8,566.4,151.7L566.4,151.7z"/>
			<path style="fill:#FFFFFF;" d="M557.3,147c-1.1,2-0.3,4.6,1.8,5.6c2.1,1.1,4.6,0.3,5.6-1.8c1.1-2,0.3-4.6-1.8-5.6
				C560.9,144.2,558.4,145,557.3,147L557.3,147z"/>
			<g>
				<path style="fill:#C0392B;" d="M555.7,146.2C555.7,146.2,555.7,146.2,555.7,146.2l1.6,0.9c0,0,0,0,0-0.1c1.1-2,3.6-2.9,5.6-1.8
					c2.1,1.1,2.9,3.6,1.8,5.6c0,0,0,0,0,0.1l1.6,0.8c0,0,0,0,0-0.1c1.5-2.9,0.4-6.6-2.6-8.1C560.8,142.1,557.2,143.2,555.7,146.2z"
					/>
				<path style="fill:#D1ECFB;" d="M562.9,145.2c-2-1.1-4.6-0.3-5.6,1.8c0,0,0,0,0,0.1l7.4,3.8c0,0,0,0,0-0.1
					C565.8,148.8,565,146.3,562.9,145.2z"/>
			</g>
		</g>
	</g>
	<ellipse style="fill:none;stroke:#F4AF00;stroke-width:2;stroke-miterlimit:10;" cx="569" cy="155.2" rx="41.8" ry="42.3"/>
</g>
<g>
	<g>
		<g>
			<path style="fill:#F4AF00;" d="M225.6,149.8c-2.3-2.8-50.1-3.8-52.4-2.1c-1.8,1.4-1.6,15.9-1.3,17.4c0.3,1.6,1.2,2,3.3,2.1
				c2.1,0.1,55.8,2.3,58.6,2.4c2,0.1,3.6-0.1,3.9-2.3c0.4-2.3,0-7.6-1.7-8.4s-9-1-9.4-2.1S226.7,151.1,225.6,149.8z"/>
			<path d="M171.8,157.1l44.5,1.8l-0.1,1.8l-44.5-1.8C171.7,158.3,171.7,157.7,171.8,157.1z"/>
			<path d="M171.5,164.3L238,167c0.4,0,0.7,0.4,0.7,0.7l-0.1,1.6c0,0.4-0.4,0.7-0.7,0.7l-66.5-2.7c-0.4,0-0.7-0.4-0.7-0.7l0.1-1.6
				C170.7,164.6,171.1,164.3,171.5,164.3z"/>
			<circle style="fill:#D64541;" cx="175.9" cy="159.3" r="1.1"/>
			<path style="fill:#E6E6E6;" d="M218.6,149.7c4.1,0.5,5.5,0.8,5.9,1c0.2,0.4,0.5,1.9,0.4,6.6c-0.2,4.6-0.7,6.1-0.9,6.5
				c-0.3,0.1-3.3-0.1-6-0.3L218.6,149.7z"/>
			<g>
				<path style="fill:#E6E6E6;" d="M182.7,155.8l-9.4-0.4c0.2-4.6,0.7-6.1,0.9-6.5c0.5-0.1,2.5-0.4,8.8-0.5L182.7,155.8z"/>
				<path style="fill:#E6E6E6;" d="M204.6,156.7l-8.2-0.3l0.3-7.9c2.1,0.1,4.3,0.1,6.4,0.2c0.6,0,1.2,0.1,1.8,0.1L204.6,156.7z"/>
				<path style="fill:#E6E6E6;" d="M193.6,156.2l-8.2-0.3l0.3-7.6c2.6,0,5.4,0,8.2,0.1L193.6,156.2z"/>
				<path style="fill:#E6E6E6;" d="M207.7,148.9c3.1,0.2,5.8,0.4,8.2,0.6l-0.3,7.7l-8.2-0.3L207.7,148.9z"/>
			</g>
			<path style="fill:#FCB813;" d="M238.4,161.7c-0.1-0.8-0.8-1.4-1.5-1.3c-0.5,0.1-0.8,0.7-0.6,1.6c0.1,0.8,0.6,1.5,1.1,1.4
				C238.1,163.3,238.5,162.5,238.4,161.7z"/>
		</g>
		<g>
			<circle cx="228.5" cy="168.5" r="5.6"/>
			<circle style="fill:#F7CA18;" cx="228.5" cy="168.5" r="4"/>
		</g>
		<g>
			<circle cx="190.4" cy="167" r="5.6"/>
			<circle style="fill:#F7CA18;" cx="190.4" cy="167" r="4"/>
		</g>
	</g>
	<ellipse style="fill:none;stroke:#F4AF00;stroke-width:2;stroke-miterlimit:10;" cx="204.7" cy="161.2" rx="41.8" ry="42.3"/>
</g>
<g>
	<g>
		<ellipse style="fill:#F3F0EF;" cx="157.4" cy="44.5" rx="20" ry="24"/>
		<g>
			<path style="fill:#F1C40F;" d="M158,17.7v45.8c0.6-2.4,3.9-18,0.4-40.4c2.4,0.1,4.7,0.6,6.8,1.6c4.5,12.6-2,38.1-2,38.1
				c10.2-20.4,7-31.9,3.8-37.2c5.2,3.1,8.6,8.7,8.7,15.2c0,6.6-7.4,20.9-12.7,25l-4.9,0V71l6.7,0c7.2-4.2,16.3-21.5,16.2-30.2
				C180.9,28,170.7,17.8,158,17.7z"/>
			<path style="fill:#F4AF00;" d="M152.9,65.7c-5.2-4.4-12.7-18.8-12.8-24.8c0-6.2,3.2-11.7,8.1-14.9c-2.9,5.1-5.2,15.9,4.5,36.8
				c0,0-6.7-25.5-2.2-38.1c2-0.9,4.2-1.5,6.6-1.6c-1.4,7-3.8,24,0.8,40.7c0,0,0-0.1,0.1-0.3V17.7c-0.1,0-0.1,0-0.2,0
				c-12.8,0-23.1,10.4-23.1,23.2c0,8.3,9.7,26.1,16.4,30.1l6.9,0v-5.3L152.9,65.7z"/>
			<path style="fill:#FFFFFF;" d="M164.4,71.1c0.1-0.1,0.2-0.1,0.3-0.2l-6.7,0v0.1l3.6,0l-1.2,3.7l-2.4,0v6.5l4.8,0
				c0.7,0,1.2-0.6,1.2-1.2l0-4.1c0-0.7-0.6-1.2-1.2-1.2h-0.1l1.2-3.6L164.4,71.1z"/>
			<path style="fill:#E6E7E8;" d="M155.1,74.8l-1.3-3.8l4.2,0V71l-6.9,0c0,0,0,0,0,0l0.4,0l1.3,3.8c-0.6,0.1-1,0.6-1,1.2l0,4.1
				c0,0.7,0.6,1.2,1.2,1.2l4.9,0v-6.5L155.1,74.8z"/>
		</g>
	</g>
	<ellipse style="fill:none;stroke:#F4AF00;stroke-width:2;stroke-miterlimit:10;" cx="158" cy="48.1" rx="41.8" ry="42.3"/>
</g>
<g>
	<g id="Layer_4">
		<g>
			<path style="fill:#F7CA18;" d="M27.7,84.2c0,0.2,4.2,2.7,8.8,5.2l0.6,0.4c0.4,0.3,0.9,0.4,1.3,0.7l0.6,0.4c0.9,0.4,1.7,1,2.4,1.4
				l0.6,0.4c1,0.4,1.6,0.9,2.3,1.4l0.6,0.4c0.9,0.7,1.7,1.1,1.8,1.3c0.8,1.2,2.8,4,2.8,4s-9.2,7.1-11.2,9.1
				c-0.8,0.8-1.9,1.9-2.9,3.2c-2.5-0.9-6.2-2.4-7-2.6c-1.2-0.3-2.2-0.7-2.5-0.4c-0.5,0.2-1.4,0.5-1.1,0.9c0.2,0.2,5.8,4.3,7.7,5.6
				c-0.3,0.4-0.4,0.6-0.3,0.8c0,0.1,0.3,0,0.8,0c0.7,2.3,2.7,8.8,2.9,9.1c0.2,0.5,0.8-0.5,1.2-0.8s0.5-1.3,0.5-2.4
				c0.1-0.8-0.2-4.8-0.3-7.5c1.4-0.6,2.9-1.3,3.9-1.7c2.6-1.3,12.1-7.7,12.1-7.7s2,2.8,2.8,4c0.2,0.2,0.5,0.8,0.7,2l0.2,0.7
				c0.3,0.8,0.4,1.7,0.6,2.6l0.2,0.7c0.3,0.8,0.4,1.8,0.6,2.7l0.2,0.7c0.1,0.5,0.2,0.9,0.3,1.4l0.2,0.7c1,5,2,9.8,2.2,10
				c0.4,0.2,2.3-2.8,2.6-3.6c0-0.3-0.3-7.6-0.9-14.8l2.3-1.7c0.7-0.6,1-1.7,0.4-2.5c-0.6-0.7-1.7-1-2.5-0.4l-0.5,0.4
				c-0.4-5.3-0.4-9.3-0.4-9.3s5.7-3.7,11.4-7.7s1.2-10.3-4.5-6.2S58,93.3,58,93.3S54.1,92,49.1,90l0.5-0.4c0.7-0.6,1-1.7,0.4-2.5
				c-0.6-0.7-1.7-1-2.5-0.4l-2.3,1.7c-6.5-2.7-13.2-5.3-13.7-5.3C30.7,83,27.3,84,27.7,84.2z"/>
			<path style="fill:#F4AF00;" d="M27.5,84.4c0,0.1,4.3,2.7,8.8,5.2l0.6,0.4c0.4,0.3,0.9,0.4,1.3,0.7l0.6,0.4c0.9,0.4,1.7,1,2.4,1.4
				l0.6,0.4c1,0.4,1.6,0.9,2.3,1.4l0.6,0.4c0.9,0.7,1.7,1.1,1.8,1.3c0.8,1.2,2.8,4,2.8,4S40.1,107,38,109c-0.7,0.7-1.9,1.8-2.9,3.1
				c-2.5-0.9-6.2-2.4-7-2.6c-1.2-0.3-2.2-0.7-2.5-0.4c-0.5,0.2-1.4,0.5-1.1,0.9c0.3,0.3,5.8,4.2,7.7,5.6c-0.3,0.4-0.4,0.6-0.3,0.8
				c0,0.1,0.3,0,0.8,0c-0.3-0.6,29.2-21.8,40.2-29.5c4.6-3.6-1.5-4-3.1-2.6c-5.7,4.1-11.7,9.1-11.7,9.1s-3.9-1.4-8.8-3.4l0.5-0.4
				c0.7-0.6,1-1.7,0.4-2.5c-0.6-0.7-1.7-1-2.5-0.4l-2.4,1.7C38.6,85.7,32,83,31.5,83C30.6,82.9,27.2,83.9,27.5,84.4z"/>
		</g>
	</g>
	<ellipse style="fill:none;stroke:#F4AF00;stroke-width:2;stroke-miterlimit:10;" cx="51.4" cy="102.7" rx="41.8" ry="42.3"/>
</g>
<g>
	<g>
		<g>
			<ellipse cx="629.5" cy="74" rx="1.8" ry="1.8"/>
			<g>
				<ellipse style="fill:#E6E6E6;" cx="629.5" cy="74" rx="0.8" ry="0.8"/>
				<path style="fill:#E6E6E6;" d="M629.5,73.3c-0.3,0-0.5,0.2-0.7,0.4c0.3,0.3,0.8,0.6,1.4,0.6c0-0.1,0-0.1,0-0.2
					C630.3,73.6,629.9,73.3,629.5,73.3z"/>
			</g>
		</g>
		<g>
			<ellipse cx="625.7" cy="74" rx="1.8" ry="1.8"/>
			<g>
				<ellipse style="fill:#E6E6E6;" cx="625.7" cy="74" rx="0.8" ry="0.8"/>
				<path style="fill:#E6E6E6;" d="M625.7,73.3c-0.3,0-0.5,0.2-0.7,0.4c0.3,0.3,0.8,0.6,1.4,0.6c0-0.1,0-0.1,0-0.2
					C626.5,73.6,626.1,73.3,625.7,73.3z"/>
			</g>
		</g>
		<g>
			<ellipse cx="622.1" cy="74" rx="1.8" ry="1.8"/>
			<g>
				<ellipse style="fill:#E6E6E6;" cx="622.1" cy="74" rx="0.8" ry="0.8"/>
				<path style="fill:#E6E6E6;" d="M622.1,73.3c-0.3,0-0.5,0.2-0.7,0.4c0.3,0.3,0.8,0.6,1.4,0.6c0-0.1,0-0.1,0-0.2
					C622.9,73.6,622.5,73.3,622.1,73.3z"/>
			</g>
		</g>
		<g>
			<ellipse cx="668.5" cy="74" rx="1.8" ry="1.8"/>
			<g>
				<ellipse style="fill:#E6E6E6;" cx="668.5" cy="74" rx="0.8" ry="0.8"/>
				<path style="fill:#E6E6E6;" d="M668.5,73.3c-0.3,0-0.5,0.2-0.7,0.4c0.3,0.3,0.8,0.6,1.4,0.6c0-0.1,0-0.1,0-0.2
					C669.3,73.6,668.9,73.3,668.5,73.3z"/>
			</g>
		</g>
		<g>
			<ellipse cx="664.7" cy="74" rx="1.8" ry="1.8"/>
			<g>
				<ellipse style="fill:#E6E6E6;" cx="664.7" cy="74" rx="0.8" ry="0.8"/>
				<path style="fill:#E6E6E6;" d="M664.7,73.3c-0.3,0-0.5,0.2-0.7,0.4c0.3,0.3,0.8,0.6,1.4,0.6c0-0.1,0-0.1,0-0.2
					C665.4,73.6,665.1,73.3,664.7,73.3z"/>
			</g>
		</g>
		<g>
			<ellipse cx="661.1" cy="74" rx="1.8" ry="1.8"/>
			<g>
				<ellipse style="fill:#E6E6E6;" cx="661.1" cy="74" rx="0.8" ry="0.8"/>
				<path style="fill:#E6E6E6;" d="M661.1,73.3c-0.3,0-0.5,0.2-0.7,0.4c0.3,0.3,0.8,0.6,1.4,0.6c0-0.1,0-0.1,0-0.2
					C661.9,73.6,661.5,73.3,661.1,73.3z"/>
			</g>
		</g>
		<g>
			<path style="fill:#E6E6E6;" d="M616,70.7c1.1,2.1,20.1,1.5,23,1.5h40.6c2.9,0,4.3-2.3,4.3-5.2v-5.9c0-2.9-1.4-5.2-4.3-5.2H639
				c-2.9,0-12.5,3.9-16.9,7C617.6,66.1,614.8,68.4,616,70.7z"/>
			<path style="fill:#F7CA18;" d="M616,70c1.1,2.1,20.3,1.5,23.2,1.5h41.1c2.9,0,4.4-2.3,4.4-5.2v-5.9c0-2.9-1.4-5.2-4.4-5.2h-41.1
				c-2.9,0-12.2,1.9-17.1,7C618.3,66.1,614.7,67.7,616,70z"/>
			<g>
				<g>
					<path style="fill:#FFFFFF;" d="M647.1,62.1c0,0.4,0.3,0.7,0.8,0.7h0.5c0.4,0,0.8-0.3,0.8-0.7v-1.5c0-0.4-0.3-0.7-0.8-0.7h-0.5
						c-0.4,0-0.8,0.3-0.8,0.7V62.1z"/>
					<path style="fill:#FFFFFF;" d="M649.7,62.1c0,0.4,0.3,0.7,0.8,0.7h0.5c0.4,0,0.8-0.3,0.8-0.7v-1.5c0-0.4-0.3-0.7-0.8-0.7h-0.5
						c-0.4,0-0.8,0.3-0.8,0.7V62.1z"/>
					<path style="fill:#FFFFFF;" d="M652.4,62.1c0,0.4,0.3,0.7,0.8,0.7h0.5c0.4,0,0.8-0.3,0.8-0.7v-1.5c0-0.4-0.3-0.7-0.8-0.7h-0.5
						c-0.4,0-0.8,0.3-0.8,0.7V62.1z"/>
					<path style="fill:#FFFFFF;" d="M655.1,62.1c0,0.4,0.3,0.7,0.8,0.7h0.5c0.4,0,0.8-0.3,0.8-0.7v-1.5c0-0.4-0.3-0.7-0.8-0.7h-0.5
						c-0.4,0-0.8,0.3-0.8,0.7V62.1z"/>
					<path style="fill:#FFFFFF;" d="M657.8,62.1c0,0.4,0.3,0.7,0.8,0.7h0.5c0.4,0,0.8-0.3,0.8-0.7v-1.5c0-0.4-0.3-0.7-0.8-0.7h-0.5
						c-0.4,0-0.8,0.3-0.8,0.7V62.1z"/>
					<path style="fill:#FFFFFF;" d="M660.4,62.1c0,0.4,0.3,0.7,0.8,0.7h0.5c0.4,0,0.8-0.3,0.8-0.7v-1.5c0-0.4-0.3-0.7-0.8-0.7h-0.5
						c-0.4,0-0.8,0.3-0.8,0.7V62.1z"/>
				</g>
				<g>
					<path style="fill:#FFFFFF;" d="M663.3,62.1c0,0.4,0.3,0.7,0.8,0.7h0.5c0.4,0,0.8-0.3,0.8-0.7v-1.5c0-0.4-0.3-0.7-0.8-0.7h-0.5
						c-0.4,0-0.8,0.3-0.8,0.7V62.1z"/>
					<path style="fill:#FFFFFF;" d="M666,62.1c0,0.4,0.3,0.7,0.8,0.7h0.5c0.4,0,0.8-0.3,0.8-0.7v-1.5c0-0.4-0.3-0.7-0.8-0.7h-0.5
						c-0.4,0-0.8,0.3-0.8,0.7V62.1z"/>
					<path style="fill:#FFFFFF;" d="M668.7,62.1c0,0.4,0.3,0.7,0.8,0.7h0.5c0.4,0,0.8-0.3,0.8-0.7v-1.5c0-0.4-0.3-0.7-0.8-0.7h-0.5
						c-0.4,0-0.8,0.3-0.8,0.7V62.1z"/>
					<path style="fill:#FFFFFF;" d="M671.3,62.1c0,0.4,0.3,0.7,0.8,0.7h0.5c0.4,0,0.8-0.3,0.8-0.7v-1.5c0-0.4-0.3-0.7-0.8-0.7h-0.5
						c-0.4,0-0.8,0.3-0.8,0.7V62.1z"/>
					<path style="fill:#FFFFFF;" d="M674,62.1c0,0.4,0.3,0.7,0.8,0.7h0.5c0.4,0,0.8-0.3,0.8-0.7v-1.5c0-0.4-0.3-0.7-0.8-0.7h-0.5
						c-0.4,0-0.8,0.3-0.8,0.7V62.1z"/>
					<path style="fill:#FFFFFF;" d="M676.7,62.1c0,0.4,0.3,0.7,0.8,0.7h0.5c0.4,0,0.8-0.3,0.8-0.7v-1.5c0-0.4-0.3-0.7-0.8-0.7h-0.5
						c-0.4,0-0.8,0.3-0.8,0.7V62.1z"/>
				</g>
			</g>
			<path style="fill:#FFFFFF;" d="M622.1,62.2c1.4-1.3,1.4-1.3,3-2.3h6.9c0.4,0,0.7,0.7,0.7,1.5V63c0,0.8-0.3,1.5-0.7,1.5l-12.5,0
				C619.7,64.3,621.9,62.4,622.1,62.2z"/>
		</g>
		<path style="fill:none;stroke:#278CA5;stroke-width:2;stroke-miterlimit:10;" d="M684.7,66.9"/>
	</g>
	<ellipse style="fill:none;stroke:#F4AF00;stroke-width:2;stroke-miterlimit:10;" cx="652.1" cy="64.8" rx="41.8" ry="42.3"/>
</g>
</svg>
