<?xml version="1.0" encoding="utf-8"?>
<!-- Generator: Adobe Illustrator 18.1.0, SVG Export Plug-In . SVG Version: 6.00 Build 0)  -->
<!DOCTYPE svg PUBLIC "-//W3C//DTD SVG 1.1//EN" "http://www.w3.org/Graphics/SVG/1.1/DTD/svg11.dtd">
<svg version="1.1" id="Layer_1" xmlns="http://www.w3.org/2000/svg" xmlns:xlink="http://www.w3.org/1999/xlink" x="0px" y="0px"
	 viewBox="0 0 64 64" enable-background="new 0 0 64 64" xml:space="preserve">
<path fill-rule="evenodd" clip-rule="evenodd" fill="#D64641" d="M23.9,1.9c-0.5,0.3-1,0.6-1.5,0.9c-0.6,0.3-1.2,0.6-1.8,0.8
	C19.9,3.8,19.5,3.9,19,4c-0.5,0.1-1.1,0.2-1.6,0.4c-0.6,0.2-1.2,0.6-1.9,1C14.7,5.8,14,6.3,13.3,7c-0.7,0.7-1.4,1.5-2,2.2
	c-0.6,0.7-1,1.3-1.4,1.9C9.5,11.7,9,12.4,8.7,13c-0.4,0.6-0.7,1.2-0.8,2c-0.1,0.8-0.1,1.8-0.1,2.7c0,0.9,0,1.8-0.2,2.5
	c-0.2,0.7-0.6,1.2-0.6,2.1c-0.1,0.9,0.2,2.1,0.4,3c0.2,0.9,0.3,1.5,0.4,2.2c0.1,0.7,0.1,1.5,0.3,2.3c0.2,0.8,0.4,1.5,0.7,1.9
	c0.3,0.5,0.7,0.7,0.9,1.1c0.3,0.4,0.5,0.8,0.6,1.2c0.2,0.4,0.3,0.9,0.5,1.3c0.2,0.4,0.5,0.8,1,1.2c0.4,0.4,1,0.6,1.4,0.8
	c0.4,0.2,0.6,0.2,0.8,0.3c0.2,0.1,0.4,0.3,0.5,0.4c0.1,0.2,0.1,0.4,0,0.7c-0.1,0.2-0.2,0.5-0.4,0.8c-0.2,0.3-0.3,0.6-0.7,0.7
	c-0.4,0.2-1,0.2-1.5,0.3c-0.5,0.1-1,0.2-1.6,0.4c-0.6,0.2-1.2,0.5-1.6,0.9c-0.4,0.4-0.6,0.7-0.7,1.1c-0.1,0.3-0.1,0.6-0.1,1
	c0,0.3-0.1,0.7-0.1,1.2c0,0.4,0.2,1,0.2,1.4c0,0.4-0.1,0.7-0.4,1c-0.2,0.2-0.5,0.4-0.5,0.6c0.1,0.2,0.5,0.3,0.9,0.6
	c0.4,0.3,0.7,0.7,0.8,1.3c0.2,0.5,0.2,1.2,0.4,1.8c0.2,0.6,0.4,1.2,0.8,1.6c0.4,0.4,0.9,0.7,1.5,0.8c0.5,0.1,1.1,0,1.6,0
	c0.5-0.1,1-0.2,1.4-0.4c0.4-0.2,0.7-0.4,0.8-0.5c0.1-0.1,0.1-0.1,0.1-0.1l0,0c0,0,0,0,0,0c0,0,0,0.1,0,0.2c0,0.1-0.1,0.1-0.2,0.2
	c-0.1,0.1-0.2,0.2-0.2,0.4c-0.1,0.2-0.1,0.4-0.2,0.8c-0.1,0.4-0.2,0.9-0.2,1.4c0,0.5,0,1,0.1,1.3c0.1,0.3,0.3,0.4,0.7,0.5
	c0.4,0.1,1.2,0.2,2.1,0.3c0.9,0.1,2.1,0.1,3.2,0.2c1.1,0.1,2.1,0.3,3.2,0.4c1.1,0.2,2.2,0.4,3.1,0.6c1,0.2,1.8,0.4,2.8,0.7
	c1.1,0.3,2.5,0.7,3.9,1.2c1.5,0.4,3,0.9,4.6,1.1c1.6,0.2,3.2,0.3,5.1,0.3c1.9,0,4,0,5.9,0c1.9,0,3.5-0.1,4.7-0.2
	c1.3-0.1,2.2-0.4,2.7-0.6c0.5-0.2,0.5-0.4,0.1-1.1c-0.4-0.7-1.1-1.7-1.8-2.8c-0.7-1.1-1.4-2.1-1.9-2.7c-0.5-0.7-0.9-0.9-1-1.2
	c-0.2-0.3-0.1-0.6,0.2-0.6c0.3-0.1,0.8,0.1,1.3,0.2c0.5,0.1,0.9,0.2,1.3,0.3c0.3,0,0.5,0,0.4-0.1c-0.1-0.1-0.4-0.4-0.9-0.8
	c-0.5-0.4-1.2-1.1-1.6-1.6c-0.4-0.5-0.4-0.9-0.6-1.1c-0.2-0.2-0.4-0.3-0.7-0.3c-0.3,0-0.6,0.1-0.9-0.1c-0.3-0.2-0.7-0.6-0.9-1.1
	c-0.2-0.4-0.2-0.9-0.4-1.3c-0.1-0.4-0.3-0.9-0.5-1.2c-0.2-0.4-0.5-0.6-0.8-0.9c-0.2-0.3-0.4-0.7-0.7-1.1c-0.2-0.3-0.5-0.5-0.8-0.6
	c-0.3-0.1-0.7,0-0.9-0.2c-0.2-0.2-0.3-0.5-0.2-1c0.1-0.4,0.5-0.9,1.1-1.3c0.6-0.4,1.5-0.8,2.1-1.1c0.6-0.4,0.9-0.7,1.1-1.1
	c0.2-0.4,0.2-0.8,0.3-1.2c0-0.4,0-0.8-0.1-1c-0.1-0.2-0.3-0.3-0.4-0.4c-0.1-0.1-0.2-0.2-0.3-0.4c0-0.2,0-0.4,0-0.6
	c0.1-0.1,0.2-0.2,0.4-0.3c0.2-0.1,0.4-0.4,0.5-0.5c0.1-0.2,0.1-0.4,0-0.5c-0.1-0.1-0.2-0.3-0.3-0.4c-0.1-0.1-0.1-0.2,0-0.4
	c0-0.2,0-0.5,0.1-0.8c0-0.3,0-0.6-0.1-0.9c-0.1-0.3-0.2-0.5-0.4-0.7c-0.1-0.2-0.2-0.4-0.2-0.6c-0.1-0.2-0.1-0.5,0-0.6
	c0.1-0.1,0.5-0.2,0.9-0.3c0.4-0.1,0.8-0.4,1.1-0.7c0.3-0.3,0.4-0.7,0.5-1.1c0-0.3-0.1-0.6-0.7-1c-0.5-0.4-1.5-1-2-1.5
	c-0.5-0.5-0.7-0.9-0.9-1.2c-0.2-0.3-0.5-0.6-1-0.8c-0.4-0.2-0.9-0.4-1.3-0.6c-0.4-0.2-0.6-0.5-0.7-0.9c-0.1-0.4-0.1-1,0-1.5
	c0-0.6,0.1-1.2-0.1-1.6c-0.1-0.4-0.5-0.7-0.8-1.1c-0.3-0.4-0.6-1-0.8-1.5c-0.2-0.5-0.3-0.9-0.5-1.2c-0.1-0.3-0.3-0.6-0.4-1.1
	c-0.1-0.4-0.2-1.1-0.1-1.6c0.2-0.6,0.6-1.1,0.8-1.8c0.3-0.7,0.4-1.5,0.2-2.3c-0.1-0.8-0.5-1.5-1.1-2.1c-0.6-0.6-1.3-1.1-1.8-1.3
	c-0.6-0.2-0.9-0.2-1.3-0.5c-0.4-0.2-0.8-0.7-1.2-1.1c-0.4-0.4-1-0.6-1.5-0.8C36,2,35.4,1.8,34.7,1.6c-0.7-0.2-1.5-0.4-2.4-0.5
	C31.4,1,30.5,1,29.3,1C28.2,1,27,1,26,1.1C25,1.3,24.4,1.6,23.9,1.9z"/>
<path fill="none" stroke="#F2F2F2" stroke-miterlimit="22.9256" d="M24,1.9c-0.5,0.3-1,0.6-1.5,0.9c-0.6,0.3-1.2,0.6-1.8,0.8
	C20,3.8,19.6,3.9,19,4c-0.5,0.1-1.1,0.2-1.6,0.4c-0.6,0.2-1.2,0.6-1.9,1c-0.7,0.4-1.4,0.9-2.1,1.6c-0.7,0.7-1.4,1.5-2,2.2
	c-0.6,0.7-1,1.3-1.4,1.9c-0.4,0.6-0.9,1.3-1.3,1.9c-0.4,0.6-0.7,1.2-0.8,2c-0.1,0.8-0.1,1.8-0.1,2.7c0,0.9,0,1.8-0.2,2.5
	C7.4,20.9,7,21.5,7,22.3c-0.1,0.9,0.2,2.1,0.4,3c0.2,0.9,0.3,1.5,0.4,2.2c0.1,0.7,0.1,1.5,0.3,2.3c0.2,0.8,0.4,1.5,0.7,1.9
	C9,32.4,9.3,32.6,9.6,33c0.3,0.4,0.5,0.8,0.6,1.2c0.2,0.4,0.3,0.9,0.5,1.3c0.2,0.4,0.5,0.8,1,1.2c0.4,0.4,1,0.6,1.4,0.8
	c0.4,0.2,0.6,0.2,0.8,0.3c0.2,0.1,0.4,0.3,0.5,0.4c0.1,0.2,0.1,0.4,0,0.7c-0.1,0.2-0.2,0.5-0.4,0.8c-0.2,0.3-0.3,0.6-0.7,0.7
	c-0.4,0.2-1,0.2-1.5,0.3c-0.5,0.1-1,0.2-1.6,0.4c-0.6,0.2-1.2,0.5-1.6,0.9c-0.4,0.4-0.6,0.7-0.7,1.1c-0.1,0.3-0.1,0.6-0.1,1
	c0,0.3-0.1,0.7-0.1,1.2c0,0.4,0.2,1,0.2,1.4c0,0.4-0.1,0.7-0.4,1C7.3,47.9,7,48,7,48.2c0.1,0.2,0.5,0.3,0.9,0.6
	c0.4,0.3,0.7,0.7,0.8,1.3c0.2,0.5,0.2,1.2,0.4,1.8c0.2,0.6,0.4,1.2,0.8,1.6c0.4,0.4,0.9,0.7,1.5,0.8c0.5,0.1,1.1,0,1.6,0
	c0.5-0.1,1-0.2,1.4-0.4c0.4-0.2,0.7-0.4,0.8-0.5c0.1-0.1,0.1-0.1,0.1-0.1l0,0c0,0,0,0,0,0c0,0,0,0.1,0,0.2c0,0.1-0.1,0.1-0.2,0.2
	c-0.1,0.1-0.2,0.2-0.2,0.4c-0.1,0.2-0.1,0.4-0.2,0.8c-0.1,0.4-0.2,0.9-0.2,1.4c0,0.5,0,1,0.1,1.3c0.1,0.3,0.3,0.4,0.7,0.5
	c0.4,0.1,1.2,0.2,2.1,0.3c0.9,0.1,2.1,0.1,3.2,0.2c1.1,0.1,2.1,0.3,3.2,0.4c1.1,0.2,2.2,0.4,3.1,0.6c1,0.2,1.8,0.4,2.8,0.7
	c1.1,0.3,2.5,0.7,3.9,1.2c1.5,0.4,3,0.9,4.6,1.1c1.6,0.2,3.2,0.3,5.1,0.3c1.9,0,4,0,5.9,0c1.9,0,3.5-0.1,4.7-0.2
	c1.3-0.1,2.2-0.4,2.7-0.6c0.5-0.2,0.5-0.4,0.1-1.1c-0.4-0.7-1.1-1.7-1.8-2.8c-0.7-1.1-1.4-2.1-1.9-2.7c-0.5-0.7-0.9-0.9-1-1.2
	C52,54,52,53.7,52.3,53.7c0.3-0.1,0.8,0.1,1.3,0.2c0.5,0.1,0.9,0.2,1.3,0.3c0.3,0,0.5,0,0.4-0.1c-0.1-0.1-0.4-0.4-0.9-0.8
	c-0.5-0.4-1.2-1.1-1.6-1.6c-0.4-0.5-0.4-0.9-0.6-1.1c-0.2-0.2-0.4-0.3-0.7-0.3c-0.3,0-0.6,0.1-0.9-0.1c-0.3-0.2-0.7-0.6-0.9-1.1
	c-0.2-0.4-0.2-0.9-0.4-1.3c-0.1-0.4-0.3-0.9-0.5-1.2c-0.2-0.4-0.5-0.6-0.8-0.9c-0.2-0.3-0.4-0.7-0.7-1.1c-0.2-0.3-0.5-0.5-0.8-0.6
	c-0.3-0.1-0.7,0-0.9-0.2c-0.2-0.2-0.3-0.5-0.2-1c0.1-0.4,0.5-0.9,1.1-1.3c0.6-0.4,1.5-0.8,2.1-1.1c0.6-0.4,0.9-0.7,1.1-1.1
	c0.2-0.4,0.2-0.8,0.3-1.2c0-0.4,0-0.8-0.1-1c-0.1-0.2-0.3-0.3-0.4-0.4c-0.1-0.1-0.2-0.2-0.3-0.4c0-0.2,0-0.4,0-0.6
	c0.1-0.1,0.2-0.2,0.4-0.3c0.2-0.1,0.4-0.4,0.5-0.5c0.1-0.2,0.1-0.4,0-0.5c-0.1-0.1-0.2-0.3-0.3-0.4c-0.1-0.1-0.1-0.2,0-0.4
	c0-0.2,0-0.5,0.1-0.8c0-0.3,0-0.6-0.1-0.9c-0.1-0.3-0.2-0.5-0.4-0.7c-0.1-0.2-0.2-0.4-0.2-0.6c-0.1-0.2-0.1-0.5,0-0.6
	c0.1-0.1,0.5-0.2,0.9-0.3c0.4-0.1,0.8-0.4,1.1-0.7c0.3-0.3,0.4-0.7,0.5-1.1c0-0.3-0.1-0.6-0.7-1c-0.5-0.4-1.5-1-2-1.5
	c-0.5-0.5-0.7-0.9-0.9-1.2c-0.2-0.3-0.5-0.6-1-0.8c-0.4-0.2-0.9-0.4-1.3-0.6c-0.4-0.2-0.6-0.5-0.7-0.9c-0.1-0.4-0.1-1,0-1.5
	c0-0.6,0.1-1.2-0.1-1.6c-0.1-0.4-0.5-0.7-0.8-1.1c-0.3-0.4-0.6-1-0.8-1.5c-0.2-0.5-0.3-0.9-0.5-1.2c-0.1-0.3-0.3-0.6-0.4-1.1
	c-0.1-0.4-0.2-1.1-0.1-1.6c0.2-0.6,0.6-1.1,0.8-1.8c0.3-0.7,0.4-1.5,0.2-2.3c-0.1-0.8-0.5-1.5-1.1-2.1c-0.6-0.6-1.3-1.1-1.8-1.3
	c-0.6-0.2-0.9-0.2-1.3-0.5c-0.4-0.2-0.8-0.7-1.2-1.1c-0.4-0.4-1-0.6-1.5-0.8c-0.6-0.2-1.2-0.4-1.9-0.7c-0.7-0.2-1.5-0.4-2.4-0.5
	C31.5,1,30.6,1,29.4,1c-1.1,0-2.4,0-3.3,0.1C25.1,1.3,24.5,1.6,24,1.9z"/>
</svg>
