<?xml version="1.0" encoding="utf-8"?>
<!-- Generator: Adobe Illustrator 18.1.0, SVG Export Plug-In . SVG Version: 6.00 Build 0)  -->
<!DOCTYPE svg PUBLIC "-//W3C//DTD SVG 1.1//EN" "http://www.w3.org/Graphics/SVG/1.1/DTD/svg11.dtd" [
	<!ENTITY ns_extend "http://ns.adobe.com/Extensibility/1.0/">
	<!ENTITY ns_ai "http://ns.adobe.com/AdobeIllustrator/10.0/">
	<!ENTITY ns_graphs "http://ns.adobe.com/Graphs/1.0/">
	<!ENTITY ns_vars "http://ns.adobe.com/Variables/1.0/">
	<!ENTITY ns_imrep "http://ns.adobe.com/ImageReplacement/1.0/">
	<!ENTITY ns_sfw "http://ns.adobe.com/SaveForWeb/1.0/">
	<!ENTITY ns_custom "http://ns.adobe.com/GenericCustomNamespace/1.0/">
	<!ENTITY ns_adobe_xpath "http://ns.adobe.com/XPath/1.0/">
]>
<svg version="1.1" id="Layer_1" xmlns:x="&ns_extend;" xmlns:i="&ns_ai;" xmlns:graph="&ns_graphs;"
	 xmlns="http://www.w3.org/2000/svg" xmlns:xlink="http://www.w3.org/1999/xlink" x="0px" y="0px" viewBox="0 0 705 210"
	 enable-background="new 0 0 705 210" xml:space="preserve">
<metadata>
	<sfw  xmlns="&ns_sfw;">
		<slices></slices>
		<sliceSourceBounds  width="701.9" height="206.5" x="1" y="-208.5" bottomLeftOrigin="true"></sliceSourceBounds>
	</sfw>
</metadata>
<g>
	<g>
		<rect x="534" y="75" display="none" fill="#FFFFFF" width="83" height="111"/>
		<g>
			<path fill="#FFFFFF" d="M628.4,68.4c0-3-2.4-5.4-5.4-5.4h-92.6c-3,0-5.4,2.4-5.4,5.4v123.4c0,3,2.4,5.4,5.4,5.4H623
				c3,0,5.4-2.4,5.4-5.4V68.4z M617.7,185.7h-82.5v-111h82.5V185.7z"/>
			<defs>
				<filter id="Adobe_OpacityMaskFilter" filterUnits="userSpaceOnUse" x="518.5" y="196.9" width="115.6" height="11.6">
					<feColorMatrix  type="matrix" values="1 0 0 0 0  0 1 0 0 0  0 0 1 0 0  0 0 0 1 0"/>
				</filter>
			</defs>
			<mask maskUnits="userSpaceOnUse" x="518.5" y="196.9" width="115.6" height="11.6" id="SVGID_1_">
				<g filter="url(#Adobe_OpacityMaskFilter)">
					
						<radialGradient id="SVGID_2_" cx="576.2534" cy="248.7918" r="57.7969" gradientTransform="matrix(1 0 0 0.1002 0 177.7768)" gradientUnits="userSpaceOnUse">
						<stop  offset="0" style="stop-color:#FFFFFF"/>
						<stop  offset="1" style="stop-color:#14130A"/>
					</radialGradient>
					<path fill="url(#SVGID_2_)" d="M634,202.7c0,3.2-25.9,5.8-57.8,5.8c-31.9,0-57.8-2.6-57.8-5.8c0-3.2,25.9-5.8,57.8-5.8
						C608.2,196.9,634,199.5,634,202.7z"/>
				</g>
			</mask>
			<linearGradient id="SVGID_3_" gradientUnits="userSpaceOnUse" x1="576.2699" y1="208.483" x2="576.2371" y2="197.011">
				<stop  offset="0" style="stop-color:#4D4848"/>
				<stop  offset="0.3539" style="stop-color:#14130A"/>
				<stop  offset="1" style="stop-color:#14130A"/>
			</linearGradient>
			<path display="none" opacity="0.33" mask="url(#SVGID_1_)" fill="url(#SVGID_3_)" d="M634,202.7c0,3.2-25.9,5.8-57.8,5.8
				c-31.9,0-57.8-2.6-57.8-5.8c0-3.2,25.9-5.8,57.8-5.8C608.2,196.9,634,199.5,634,202.7z"/>
			<linearGradient id="SVGID_4_" gradientUnits="userSpaceOnUse" x1="531.7065" y1="129.6022" x2="628.519" y2="129.6022">
				<stop  offset="0" style="stop-color:#FFFFFF;stop-opacity:0"/>
				<stop  offset="1" style="stop-color:#FFFFFF"/>
			</linearGradient>
			<path display="none" opacity="0.6" fill="url(#SVGID_4_)" d="M593.4,62.5h30c0,0,5.7,0.1,5.1,7.7l-0.2,121.3c0,0,0.3,4.5-5.5,5.1
				c-6.1-0.3-91.1,0-91.1,0"/>
		</g>
		<g>
			<rect x="535" y="83" fill-rule="evenodd" clip-rule="evenodd" fill="#C0392B" width="82" height="39"/>
			<g display="none">
				<ellipse display="inline" fill-rule="evenodd" clip-rule="evenodd" fill="#FFFFFF" cx="551.5" cy="100.5" rx="11.4" ry="11.5"/>
				
					<ellipse display="inline" fill-rule="evenodd" clip-rule="evenodd" fill="none" stroke="#FFFFFF" stroke-width="0.7313" cx="551.6" cy="100.6" rx="13.3" ry="13.5"/>
				<g display="inline">
					<path fill-rule="evenodd" clip-rule="evenodd" fill="#8CC63F" d="M553,108.5c-2-3.5-2-6.8,0.4-10.5c-2.5,2.7-3,7-1,10.6
						L553,108.5z"/>
					<path fill-rule="evenodd" clip-rule="evenodd" fill="#8CC63F" d="M552.3,101.8c1.8-0.8,3.7-0.6,5.1-2.4
						c1.2-1.6,1.3-3.8,2.8-5.5c-1.6,2-3.5,0.4-5.5,0.9c-2.4,0.6-2.9,3.2-3.1,5.5c0.5-2.3,2.8-3.7,5.1-3.9c-2.5,1.1-4.3,3.3-4.8,5.9
						L552.3,101.8z"/>
					<path fill-rule="evenodd" clip-rule="evenodd" fill="#8CC63F" d="M550.3,109c1.1-3,0.6-5.5-1.7-8c2.3,1.7,3.3,5,2.2,8
						L550.3,109z"/>
					<path fill-rule="evenodd" clip-rule="evenodd" fill="#8CC63F" d="M549.9,103.8c-1.5-0.3-2.9,0.1-4.2-1.2
						c-1.2-1.1-1.5-2.7-2.9-3.8c1.5,1.3,2.8-0.2,4.4,0c1.9,0.1,2.7,2,3.1,3.8c-0.7-1.7-2.7-2.5-4.4-2.3c2.1,0.5,3.8,1.9,4.5,3.8
						L549.9,103.8z"/>
				</g>
			</g>
			<g>
				<rect x="571" y="93" fill-rule="evenodd" clip-rule="evenodd" fill="#FFFFFF" width="5" height="5"/>
				<rect x="578" y="93" fill-rule="evenodd" clip-rule="evenodd" fill="#FFFFFF" width="29" height="5"/>
			</g>
			<rect x="571.3" y="103" fill-rule="evenodd" clip-rule="evenodd" fill="#D6F99D" width="36" height="0"/>
			
				<rect x="571.5" y="107.5" fill-rule="evenodd" clip-rule="evenodd" fill="#F4D03F" stroke="#F2F2F2" stroke-miterlimit="10" width="36" height="2"/>
			<path fill="#F4D03F" stroke="#F2F2F2" stroke-miterlimit="10" d="M562.5,110.6l-5.2,3c-1.8,1-4,1-5.8,0l-5.2-3
				c-1.8-1-2.9-2.9-2.9-5l0-6c0-2.1,1.1-4,2.9-5l5.2-3c1.8-1,4-1,5.8,0l5.2,3c1.8,1,2.9,2.9,2.9,5l0,6
				C565.4,107.7,564.3,109.6,562.5,110.6z"/>
		</g>
		<rect x="539" y="127" fill="#D64541" width="35" height="22"/>
		<rect x="539" y="168" fill="#D64541" width="35" height="18"/>
		<g>
			<rect x="539" y="151" fill="#E6E6E6" width="35" height="3"/>
			<rect x="539" y="155" fill="#E6E6E6" width="24" height="1"/>
			<rect x="539" y="157" fill="#E6E6E6" width="27" height="2"/>
		</g>
		<rect x="539" y="161" fill="#E6E6E6" width="24" height="1"/>
		<rect x="539" y="163" fill="#E6E6E6" width="34" height="1"/>
		<rect x="539.7" y="172" fill="#999999" width="23.8" height="0"/>
		<rect x="578" y="127" fill="#D64541" width="34" height="23"/>
		<g>
			<rect x="578" y="155" fill="#E6E6E6" width="29" height="2"/>
			<rect x="578" y="158" fill="#E6E6E6" width="23" height="1"/>
			<rect x="578" y="153" fill="#E6E6E6" width="34" height="1"/>
		</g>
		<rect x="578" y="162" fill="#E6E6E6" width="23" height="1"/>
		<rect x="578" y="164" fill="#E6E6E6" width="33" height="1"/>
		<rect x="578" y="168" fill="#E6E6E6" width="33" height="4"/>
		<rect x="577.6" y="172" fill="#E6E6E6" width="23.8" height="0"/>
		<rect x="578.3" y="173" fill="#E6E6E6" width="33" height="0"/>
		<g>
			<rect x="578" y="181" fill="#E6E6E6" width="29" height="2"/>
			<rect x="578" y="183" display="none" fill="#999999" width="23" height="3"/>
			<rect x="578" y="178" fill="#E6E6E6" width="34" height="1"/>
		</g>
		<polygon opacity="0.3" fill="#FFFFFF" points="617,185.8 617,75 554.4,75 		"/>
	</g>
	<g>
		<rect x="661" y="130" display="none" fill="#FFFFFF" width="31" height="56"/>
		<g>
			<defs>
				<filter id="Adobe_OpacityMaskFilter_1_" filterUnits="userSpaceOnUse" x="649.7" y="197.8" width="53.2" height="4.5">
					<feColorMatrix  type="matrix" values="1 0 0 0 0  0 1 0 0 0  0 0 1 0 0  0 0 0 1 0"/>
				</filter>
			</defs>
			<mask maskUnits="userSpaceOnUse" x="649.7" y="197.8" width="53.2" height="4.5" id="SVGID_5_">
				<g filter="url(#Adobe_OpacityMaskFilter_1_)">
					
						<radialGradient id="SVGID_6_" cx="664.713" cy="448.4257" r="25.4148" gradientTransform="matrix(1.0468 0 0 8.930000e-002 -19.544 160.0564)" gradientUnits="userSpaceOnUse">
						<stop  offset="0" style="stop-color:#FFFFFF"/>
						<stop  offset="1" style="stop-color:#14130A"/>
					</radialGradient>
					<ellipse fill="url(#SVGID_6_)" cx="676.3" cy="200.1" rx="26.6" ry="2.3"/>
				</g>
			</mask>
			<ellipse display="none" opacity="0.33" mask="url(#SVGID_5_)" fill="#FFFFFF" cx="676.3" cy="200.1" rx="26.6" ry="2.3"/>
			<path fill="#FFFFFF" d="M695.3,123.3c0-3-2.4-5.3-5.3-5.3h-26.8c-3,0-5.3,2.4-5.3,5.3V192c0,3,2.4,5.3,5.3,5.3h26.8
				c3,0,5.3-2.4,5.3-5.3V123.3z M680.4,125c0,0.5-0.4,0.8-0.8,0.8h-5.7c-0.5,0-0.8-0.4-0.8-0.8v-0.1c0-0.5,0.4-0.8,0.8-0.8h5.7
				C680.1,124.1,680.4,124.5,680.4,125L680.4,125z M692.7,186h-31.8v-56.7h31.8V186z"/>
		</g>
		<g>
			<rect x="661" y="135" fill-rule="evenodd" clip-rule="evenodd" fill="#C0392B" width="31" height="20"/>
			<path fill="#F4D03F" stroke="#F2F2F2" stroke-miterlimit="10" d="M675,149.8l-3.1,1.8c-1.1,0.6-2.4,0.6-3.4,0l-3.1-1.8
				c-1.1-0.6-1.7-1.7-1.7-3l0-3.6c0-1.2,0.6-2.4,1.7-3l3.1-1.8c1.1-0.6,2.4-0.6,3.4,0l3.1,1.8c1.1,0.6,1.7,1.7,1.7,3l0,3.6
				C676.7,148,676.1,149.2,675,149.8z"/>
		</g>
		<rect x="663" y="158" fill="#D64541" width="27" height="16"/>
		<g>
			<rect x="663" y="176" fill="#E6E6E6" width="27" height="1"/>
			<rect x="663" y="178" fill="#E6E6E6" width="18" height="1"/>
			<rect x="663" y="180" fill="#E6E6E6" width="21" height="2"/>
		</g>
		<rect x="663" y="183" fill="#E6E6E6" width="18" height="1"/>
		<rect x="663.4" y="185" fill="#E6E6E6" width="25.9" height="0"/>
		<g>
			<rect x="679" y="141" fill="#F4D03F" width="11" height="2"/>
			<rect x="679" y="144" fill="#F4D03F" width="7" height="1"/>
			<rect x="679" y="146" fill="#F4D03F" width="8" height="1"/>
		</g>
		<polygon opacity="0.3" fill="#FFFFFF" points="692,186.1 692,130 661,130 		"/>
	</g>
	<g>
		<g>
			<path fill="#F2F2F2" d="M468.7,184.9c0,3.1-1.9,5.6-4.2,5.6H291.1c-2.3,0-4.2-2.5-4.2-5.6V73.6c0-3.1,1.9-5.6,4.2-5.6h173.4
				c2.3,0,4.2,2.5,4.2,5.6V184.9z"/>
			<rect x="292.5" y="74.1" fill="#F1C40F" width="168.6" height="108.3"/>
			<rect x="294.2" y="74.8" fill="none" width="167.8" height="103.4"/>
			<g>
				<g>
					<path fill="#FFFFFF" d="M256,192.2c0,0-1.5,2.8,9.2,5.2h224.9c0,0,7.5-0.5,9.5-4l0-1.9L256,192.2z"/>
					<path fill="#FFFFFF" d="M256,186.5h243.7v6.3c0,0,0.4,0.8-2.5,0.6H258.3c0,0-2.2,0.6-2.5-0.8L256,186.5z"/>
					<path fill="#FFFFFF" d="M488.4,190.2c0,0.2-0.2,0.4-0.4,0.4h-8.3c-0.2,0-0.4-0.2-0.4-0.4l0,0c0-0.2,0.2-0.4,0.4-0.4h8.3
						C488.3,189.7,488.4,189.9,488.4,190.2L488.4,190.2z"/>
				</g>
				<path fill="#FFFFFF" d="M361.3,186.6c0,0-0.9,3.1,2.2,3.4h28.3c0,0,3,0.4,2.6-3.3L361.3,186.6z"/>
				<g>
					<path fill="#FFFFFF" d="M361.5,186.6L361.5,186.6L361.5,186.6l-0.3-0.1c0,0-0.9,2.7,1.8,3.2
						C360.7,189.1,361.5,186.6,361.5,186.6z"/>
					<path fill="#FFFFFF" d="M394.6,186.7l-0.3,0v0.1c0.2,3.5-2.6,3-2.6,3h-28.3c-0.1,0-0.3,0-0.4-0.1c0.2,0.1,0.4,0.1,0.7,0.1h28.3
						C391.9,189.9,394.9,190.4,394.6,186.7z"/>
					<path fill="#FFFFFF" d="M394.2,186.7L394.2,186.7L394.2,186.7C394.2,186.7,394.2,186.7,394.2,186.7z"/>
				</g>
			</g>
		</g>
		<rect x="294" y="83" fill-rule="evenodd" clip-rule="evenodd" fill="#C0392B" width="167" height="32"/>
		<path fill="#F4D03F" stroke="#F2F2F2" stroke-miterlimit="10" d="M327.3,107l-5.3,3.1c-1.8,1.1-4.1,1.1-5.9,0l-5.4-3.1
			c-1.8-1.1-3-3-3-5.1l0-6.2c0-2.1,1.1-4.1,2.9-5.1l5.3-3.1c1.8-1.1,4.1-1.1,5.9,0l5.4,3.1c1.8,1.1,3,3,3,5.1l0,6.2
			C330.3,104,329.1,105.9,327.3,107z"/>
		<g>
			<rect x="349" y="89" fill-rule="evenodd" clip-rule="evenodd" fill="#FFFFFF" width="14" height="5"/>
			<rect x="365" y="89" fill-rule="evenodd" clip-rule="evenodd" fill="#FFFFFF" width="87" height="5"/>
		</g>
		<rect x="349" y="99" fill-rule="evenodd" clip-rule="evenodd" fill="#F4D03F" width="103" height="1"/>
		<rect x="349" y="104" fill-rule="evenodd" clip-rule="evenodd" fill="#F4D03F" width="103" height="3"/>
		<rect x="297" y="119" fill="#D64541" width="23" height="43"/>
		<rect x="323" y="119" fill="#D64541" width="23" height="43"/>
		<rect x="353" y="120" fill="#C0392B" width="33" height="21"/>
		<rect x="389" y="120" fill="#C0392B" width="33" height="21"/>
		<rect x="424" y="120" fill="#C0392B" width="33" height="21"/>
		<g>
			<rect x="353" y="143" fill="#E6E6E6" width="33" height="1"/>
			<rect x="353" y="147" fill="#E6E6E6" width="22" height="1"/>
			<rect x="353" y="148" fill="#E6E6E6" width="26" height="2"/>
		</g>
		<g>
			<rect x="389" y="147" fill="#E6E6E6" width="28" height="1"/>
			<rect x="389" y="148" fill="#E6E6E6" width="23" height="2"/>
			<rect x="389" y="143" fill="#E6E6E6" width="33" height="1"/>
		</g>
		<g>
			<rect x="424" y="147" fill="#E6E6E6" width="23" height="1"/>
			<rect x="424" y="148" fill="#E6E6E6" width="27" height="2"/>
			<rect x="424" y="143" fill="#E6E6E6" width="33" height="1"/>
		</g>
		<rect x="352.9" y="153" fill="#E6E6E6" width="22.8" height="0"/>
		<rect x="353.3" y="155" fill="#E6E6E6" width="33" height="0"/>
		<g>
			<rect x="353.3" y="166" fill="#E6E6E6" width="33" height="0"/>
			<rect x="353" y="169" fill="#E6E6E6" width="22" height="1"/>
			<rect x="353" y="170" fill="#E6E6E6" width="26" height="3"/>
		</g>
		<rect x="353" y="175" fill="#E6E6E6" width="22" height="1"/>
		<rect x="353.3" y="177" fill="#E6E6E6" width="33" height="0"/>
		<g>
			<rect x="389.3" y="166" fill="#E6E6E6" width="33" height="0"/>
			<rect x="389" y="169" fill="#E6E6E6" width="23" height="1"/>
			<rect x="389" y="170" fill="#E6E6E6" width="26" height="3"/>
		</g>
		<rect x="389" y="175" fill="#E6E6E6" width="23" height="1"/>
		<rect x="389.3" y="177" fill="#E6E6E6" width="32" height="0"/>
		<g>
			<rect x="424.3" y="166" fill="#E6E6E6" width="33" height="0"/>
			<rect x="424" y="169" fill="#E6E6E6" width="23" height="1"/>
			<rect x="424" y="170" fill="#E6E6E6" width="26" height="3"/>
		</g>
		<rect x="424" y="175" fill="#E6E6E6" width="23" height="1"/>
		<rect x="424.3" y="177" fill="#E6E6E6" width="32" height="0"/>
		<rect x="353" y="159" fill="#E6E6E6" width="33" height="2"/>
		<rect x="353.3" y="162" fill="#E6E6E6" width="22.7" height="0"/>
		<rect x="353" y="163" fill="#E6E6E6" width="33" height="1"/>
		<rect x="389.1" y="153" fill="#E6E6E6" width="22.8" height="0"/>
		<rect x="389.3" y="155" fill="#E6E6E6" width="32" height="0"/>
		<rect x="389" y="159" fill="#E6E6E6" width="32" height="2"/>
		<rect x="424" y="159" fill="#E6E6E6" width="32" height="2"/>
		<rect x="388.7" y="162" fill="#E6E6E6" width="22.7" height="0"/>
		<rect x="389" y="163" fill="#E6E6E6" width="32" height="1"/>
		<rect x="424" y="153" fill="#E6E6E6" width="22" height="2"/>
		<rect x="424" y="155" fill="#E6E6E6" width="33" height="1"/>
		<rect x="424" y="163" fill="#E6E6E6" width="33" height="1"/>
		<polygon opacity="0.3" fill="#FFFFFF" points="293.3,74 461,74 461,170.1 		"/>
		<rect x="297" y="165" fill="#D34658" width="49" height="12"/>
	</g>
	<g>
		<g>
			<g>
				<defs>
					<filter id="Adobe_OpacityMaskFilter_2_" filterUnits="userSpaceOnUse" x="63.2" y="196.7" width="123.1" height="11">
						<feColorMatrix  type="matrix" values="1 0 0 0 0  0 1 0 0 0  0 0 1 0 0  0 0 0 1 0"/>
					</filter>
				</defs>
				<mask maskUnits="userSpaceOnUse" x="63.2" y="196.7" width="123.1" height="11" id="SVGID_7_">
					<g filter="url(#Adobe_OpacityMaskFilter_2_)">
						
							<radialGradient id="SVGID_8_" cx="124.6821" cy="472.1544" r="61.5209" gradientTransform="matrix(1 0 0 8.930000e-002 0 160.0564)" gradientUnits="userSpaceOnUse">
							<stop  offset="0" style="stop-color:#FFFFFF"/>
							<stop  offset="1" style="stop-color:#14130A"/>
						</radialGradient>
						<path fill="url(#SVGID_8_)" d="M186.2,202.2c0,3-27.5,5.5-61.5,5.5c-34,0-61.5-2.5-61.5-5.5c0-3,27.5-5.5,61.5-5.5
							C158.7,196.7,186.2,199.2,186.2,202.2z"/>
					</g>
				</mask>
				<linearGradient id="SVGID_9_" gradientUnits="userSpaceOnUse" x1="124.6978" y1="207.7001" x2="124.6667" y2="196.8177">
					<stop  offset="0" style="stop-color:#4D4848"/>
					<stop  offset="0.3539" style="stop-color:#14130A"/>
					<stop  offset="1" style="stop-color:#14130A"/>
				</linearGradient>
				<path display="none" opacity="0.33" mask="url(#SVGID_7_)" fill="url(#SVGID_9_)" d="M186.2,202.2c0,3-27.5,5.5-61.5,5.5
					c-34,0-61.5-2.5-61.5-5.5c0-3,27.5-5.5,61.5-5.5C158.7,196.7,186.2,199.2,186.2,202.2z"/>
				<g>
					<linearGradient id="SVGID_10_" gradientUnits="userSpaceOnUse" x1="86.5284" y1="196.3688" x2="164.1358" y2="196.3688">
						<stop  offset="6.060610e-003" style="stop-color:#58595B"/>
						<stop  offset="0.2803" style="stop-color:#757679"/>
						<stop  offset="0.5091" style="stop-color:#88898D"/>
						<stop  offset="1" style="stop-color:#58595B"/>
					</linearGradient>
					<path display="none" fill="url(#SVGID_10_)" d="M87,195v-0.3c0,0,0,0,0,0.1v0c0,1.4,2.2,3.2,8.2,3.2c11.6,0,24.3,0,28.9,0
						c1.2,0,1.8,0,1.8,0c4.6,0,17.2,0,28.9,0c6,0,8.1-1,8.1-3h-0.6l0,0H87z"/>
					<path fill="#FFFFFF" d="M155.2,187c-5.4-5.5-5.6-17-5.6-17h-24.1h-1.8H99.5c0,0-0.2,11.6-5.6,17c-5.4,5.5-13.8,10,0.8,10
						c11.6,0,24.3,0,28.9,0c1.2,0,1.8,0,1.8,0c4.6,0,17.2,0,28.9,0C168.9,197,160.5,192.5,155.2,187z"/>
					<radialGradient id="SVGID_11_" cx="161.5449" cy="210.2029" r="28.9267" gradientUnits="userSpaceOnUse">
						<stop  offset="0" style="stop-color:#FFFFFF"/>
						<stop  offset="1" style="stop-color:#FFFFFF;stop-opacity:0"/>
					</radialGradient>
					<path fill="url(#SVGID_11_)" d="M129.4,197c3-6,12.5-12.2,24.3-13.4c0.5,0.9,1.2,1.9,1.9,2.6c5.3,5.4,13.5,10.8-0.1,10.8H129.4
						z"/>
					
						<radialGradient id="SVGID_12_" cx="682.524" cy="210.2029" r="28.9267" gradientTransform="matrix(-1 0 0 1 770.9258 0)" gradientUnits="userSpaceOnUse">
						<stop  offset="0" style="stop-color:#FFFFFF"/>
						<stop  offset="1" style="stop-color:#FFFFFF;stop-opacity:0"/>
					</radialGradient>
					<path fill="url(#SVGID_12_)" d="M120.6,197c-3-6-12.5-12.2-24.3-13.4c-0.5,0.9-1.2,1.9-1.9,2.6c-5.3,5.4-13.5,10.8,0.1,10.8
						H120.6z"/>
					<path fill="#FFFFFF" d="M94.4,196.5c5-0.1,10.1-0.1,15.1-0.2l15.1,0l15.1,0l7.5,0.1l7.5,0.1l-7.5,0.1l-7.5,0.1l-15.1,0l-15.1,0
						C104.5,196.6,99.5,196.6,94.4,196.5z"/>
					<path fill="#FFFFFF" d="M1,161.7c0,4,3.9,8.3,8,8.3H122h3.8h113.1c4,0,7.1-4.3,7.1-8.3V147H1V161.7z"/>
					<path fill="#F2F2F2" d="M238.9,2H125.9H122H9c-4,0-8,2.1-8,6.1V147h245V8.1C246,4.1,243,2,238.9,2z M235,137H11V11h224V137z"/>
					<path fill="#FFFFFF" d="M1,160.9c0,4,3.9,9.1,8,9.1H122h3.8h113.1c4,0,7.1-5.1,7.1-9.1V147H1V160.9z"/>
				</g>
			</g>
			<rect x="11" y="25" fill-rule="evenodd" clip-rule="evenodd" fill="#C0392B" width="224" height="43"/>
			<g>
				<rect x="85" y="34" fill-rule="evenodd" clip-rule="evenodd" fill="#FFFFFF" width="19" height="6"/>
				<rect x="106" y="34" fill-rule="evenodd" clip-rule="evenodd" fill="#FFFFFF" width="116" height="6"/>
			</g>
			<rect x="85" y="46" fill-rule="evenodd" clip-rule="evenodd" fill="#F4D03F" width="137" height="2"/>
			<rect x="85" y="54" fill-rule="evenodd" clip-rule="evenodd" fill="#F4D03F" width="137" height="2"/>
			<rect x="52" y="72" fill="#D64541" width="29" height="59"/>
			<rect x="18" y="72" fill="#D64541" width="29" height="59"/>
			<rect x="90" y="76" fill="#C0392B" width="44" height="26"/>
			<rect x="137" y="76" fill="#C0392B" width="44" height="26"/>
			<rect x="185" y="76" fill="#C0392B" width="44" height="26"/>
			<g>
				<rect x="90" y="105" fill="#E6E6E6" width="44" height="2"/>
				<rect x="90" y="109" fill="#E6E6E6" width="30" height="2"/>
				<rect x="90" y="112" fill="#E6E6E6" width="36" height="2"/>
			</g>
			<g>
				<rect x="137" y="109" fill="#E6E6E6" width="38" height="2"/>
				<rect x="137" y="112" fill="#E6E6E6" width="30" height="2"/>
				<rect x="137" y="105" fill="#E6E6E6" width="44" height="2"/>
			</g>
			<g>
				<rect x="185" y="109" fill="#E6E6E6" width="30" height="2"/>
				<rect x="185" y="112" fill="#E6E6E6" width="35" height="2"/>
				<rect x="185" y="105" fill="#E6E6E6" width="44" height="2"/>
			</g>
			<rect x="90" y="118" fill="#E6E6E6" width="29" height="1"/>
			<rect x="90" y="120" fill="#E6E6E6" width="43" height="2"/>
			<rect x="90" y="126" fill="#E6E6E6" width="43" height="2"/>
			<rect x="90" y="129" fill="#E6E6E6" width="29" height="2"/>
			<rect x="90" y="132" fill="#E6E6E6" width="43" height="1"/>
			<rect x="137" y="118" fill="#E6E6E6" width="30" height="1"/>
			<rect x="137" y="120" fill="#E6E6E6" width="43" height="2"/>
			<rect x="137" y="126" fill="#E6E6E6" width="43" height="2"/>
			<rect x="137" y="129" fill="#E6E6E6" width="30" height="2"/>
			<rect x="137" y="132" fill="#E6E6E6" width="43" height="1"/>
			<rect x="185" y="118" fill="#E6E6E6" width="29" height="1"/>
			<rect x="185" y="121" fill="#E6E6E6" width="42" height="2"/>
			<rect x="185" y="127" fill="#E6E6E6" width="42" height="1"/>
			<rect x="185" y="130" fill="#E6E6E6" width="29" height="1"/>
			<rect x="185" y="132" fill="#E6E6E6" width="42" height="2"/>
			<polygon opacity="0.3" fill="#FFFFFF" points="12.6,11 235,11 235,137 			"/>
			<path fill="#F4D03F" stroke="#F2F2F2" stroke-miterlimit="10" d="M52.4,56.1l-6.6,3.8c-2.3,1.3-5,1.3-7.3,0L32,56.2
				c-2.3-1.3-3.7-3.7-3.7-6.3l0-7.6c0-2.6,1.4-5,3.6-6.3l6.6-3.8c2.3-1.3,5-1.3,7.3,0l6.6,3.8c2.3,1.3,3.7,3.7,3.7,6.3l0,7.6
				C56.1,52.4,54.7,54.8,52.4,56.1z"/>
		</g>
	</g>
</g>
</svg>
